<svg width="32" height="32" viewBox="0 0 32 32" fill="none" xmlns="http://www.w3.org/2000/svg"><g clip-path="url(#clip0_1411_5747)"><path d="M15.7646 5.91016c.079-.22132.3918-.22133.4708 0l2.2998 6.49024c.1762.4971.5673.8882 1.0644 1.0644l6.4902 2.2998c.2214.079.2214.3918 0 .4708l-6.4902 2.2998c-.4971.1762-.8882.5673-1.0644 1.0644l-2.2998 6.4902c-.079.2214-.3918.2214-.4708 0l-2.2998-6.4902c-.1762-.4971-.5673-.8882-1.0644-1.0644l-6.49024-2.2998c-.22132-.079-.22133-.3918 0-.4708l6.49024-2.2998c.4971-.1762.8882-.5673 1.0644-1.0644l2.2998-6.49024Z" stroke="#3A3C49" stroke-width="1.5"/><path d="m27 0 1.3081 3.69185L32 5l-3.6919 1.30815L27 10l-1.3081-3.69185L22 5l3.6919-1.30815L27 0ZM5 22l1.30815 3.6919L10 27l-3.69185 1.3081L5 32l-1.30815-3.6919L0 27l3.69185-1.3081L5 22Z" fill="#3A3C49"/></g><defs><clipPath id="clip0_1411_5747"><path fill="#fff" d="M0 0h32v32H0z"/></clipPath></defs></svg>