<svg width="32" height="32" viewBox="0 0 32 32" fill="none" xmlns="http://www.w3.org/2000/svg"><path d="M12 13V4c0-.55228.4477-1 1-1h10.1388c.2761 0 .5398.11409.7288.31526l5.8612 6.23819c.1742.18543.2712.4303.2712.68475V28c0 .5523-.4477 1-1 1H16.1429M6 13V4c0-.55228.44772-1 1-1h2M1 13V4c0-.55228.44772-1 1-1h2" stroke="#3A3C49" stroke-width="1.5" stroke-linecap="round"/><path d="M21.5 5.5v5c0 .5523.4477 1 1 1H27" stroke="#3A3C49" stroke-width="1.5" stroke-linecap="round"/><path d="M6.85938 17.0107c.44702-1.0165 1.94425-.9827 2.32128.1016l1.00194 2.8828 3.0518.0625c1.1849.0242 1.6739 1.5301.7295 2.2461l-2.4327 1.8438.8848 2.9218c.3429 1.1342-.9374 2.0643-1.9101 1.3877L8 26.7129 5.49414 28.457c-.9727.6766-2.25306-.2535-1.91016-1.3877l.88379-2.9218-2.43164-1.8438c-.94441-.716-.45541-2.2219.72949-2.2461l3.05079-.0625 1.00293-2.8828.04004-.1016Z" stroke="#3A3C49" stroke-width="1.5"/></svg>