<svg width="32" height="32" viewBox="0 0 32 32" fill="none" xmlns="http://www.w3.org/2000/svg"><path d="M12 13V4c0-.55228.4477-1 1-1h10.1388c.2761 0 .5398.11409.7288.31526l5.8612 6.23819c.1742.18543.2712.4303.2712.68475V28c0 .5523-.4477 1-1 1H16.1429M6 13V4c0-.55228.44772-1 1-1h2M1 13V4c0-.55228.44772-1 1-1h2" stroke="#356FED" stroke-width="1.5" stroke-linecap="round"/><path d="M21.5 5.5v5c0 .5523.4477 1 1 1H27" stroke="#356FED" stroke-width="1.5" stroke-linecap="round"/><path d="M4.29993 17.0361c.44399-.0071.84591.2822.97461.7159l2.17382 7.332c.11722.3968-.10917.8138-.50586.9316-.39711.1178-.81486-.1097-.93261-.5068l-.59473-2.0098-1.15039.001h-1.1084l-.59472 2.0059c-.11774.3969-.53467.6233-.93165.5058-.39681-.1179-.62354-.5356-.50585-.9326l2.17187-7.3281c.13153-.4437.54903-.7354 1.00391-.7149ZM12.7452 17c.5523 0 1 .4477 1 1v3.5c0 .5523-.4477 1-1 1H9.99524v2.7422c0 .4183-.33949.7578-.75781.7578-.41817-.0002-.75684-.3396-.75684-.7578V18c0-.5523.44772-1 1-1h3.26461Zm3.084 0c.4142 0 .75.3358.75.75v4.3896l-.001 3.1114c-.0003.4137-.3352.7489-.749.749-.414 0-.75-.336-.75-.75v-7.5c0-.4141.3359-.7498.75-.75ZM3.60168 21.999h1.36915l-.68458-2.3066-.68457 2.3066ZM9.99524 21l2.49996-.0068V18.5H9.99524V21Z" fill="#356FED"/></svg>