<svg width="32" height="32" viewBox="0 0 32 32" fill="none" xmlns="http://www.w3.org/2000/svg">
<path d="M12 12.5789V4C12 3.44771 12.4477 3 13 3H23.1388C23.4149 3 23.6786 3.11409 23.8676 3.31526L29.7288 9.55345C29.903 9.73888 30 9.98375 30 10.2382V28C30 28.5523 29.5523 29 29 29H16.1429" stroke="#356FED" stroke-width="1.5" stroke-linecap="round"/>
<path d="M6 13V4C6 3.44772 6.44772 3 7 3H9" stroke="#356FED" stroke-width="1.5" stroke-linecap="round"/>
<path d="M1 13V4C1 3.44772 1.44772 3 2 3H4" stroke="#356FED" stroke-width="1.5" stroke-linecap="round"/>
<path d="M21.5 5.5V10.5C21.5 11.0523 21.9477 11.5 22.5 11.5H27" stroke="#356FED" stroke-width="1.5" stroke-linecap="round"/>
<path d="M4.31738 16.0371C4.75473 16.0374 5.14744 16.3237 5.27441 16.752L7.54395 24.4033C7.66165 24.8003 7.43492 25.218 7.03809 25.3359C6.64115 25.4536 6.2234 25.2278 6.10547 24.8311L5.41504 22.499L4.26465 22.5H3.15723L2.46973 24.8184C2.35186 25.2153 1.93413 25.441 1.53711 25.3232C1.14033 25.2053 0.914532 24.7885 1.03223 24.3916L3.29785 16.751C3.43104 16.3018 3.85591 16.0084 4.31738 16.0371ZM12.7451 16C13.2974 16 13.7451 16.4477 13.7451 17V20.5C13.7451 21.0523 13.2974 21.5 12.7451 21.5H9.99512V24.2422C9.99512 24.6605 9.65563 25 9.2373 25C8.81919 24.9998 8.48047 24.6604 8.48047 24.2422V17C8.48047 16.4477 8.92818 16 9.48047 16H12.7451ZM15.8291 16C16.2435 16.0001 16.5791 16.3365 16.5791 16.751V24.25C16.579 24.6642 16.2423 25 15.8281 25C15.4141 24.9997 15.0782 24.6641 15.0781 24.25V16.751C15.0781 16.3365 15.4146 16 15.8291 16ZM3.60156 20.999L4.9707 21L4.28613 18.6934L3.60156 20.999ZM9.99512 20L12.4951 19.9932V17.5H9.99512V20Z" fill="#356FED"/>
</svg>
