<svg width="32" height="32" viewBox="0 0 32 32" fill="none" xmlns="http://www.w3.org/2000/svg">
<path d="M15 19L11 28.5" stroke="#356FED" stroke-width="1.5" stroke-linecap="round"/>
<path d="M8 19L4.29444 22.0318C3.34912 22.8053 3.3118 24.238 4.21557 25.0596L8 28.5" stroke="#356FED" stroke-width="1.5" stroke-linecap="round"/>
<path d="M18 28.5L21.7056 25.4682C22.6509 24.6947 22.6882 23.262 21.7844 22.4404L18 19" stroke="#356FED" stroke-width="1.5" stroke-linecap="round"/>
<path d="M3 18V12C3 10.8954 3.89543 10 5 10H25.5C26.6046 10 27.5 10.8954 27.5 12V27.5C27.5 28.6046 26.6046 29.5 25.5 29.5H23.5" stroke="#356FED" stroke-width="1.5" stroke-linecap="round"/>
<path d="M5.5 10V7.5C5.5 6.39543 6.39543 5.5 7.5 5.5H11.6716C12.202 5.5 12.7107 5.28929 13.0858 4.91421L14.9142 3.08579C15.2893 2.71071 15.798 2.5 16.3284 2.5H29C30.1046 2.5 31 3.39543 31 4.5V25" stroke="#356FED" stroke-width="1.5" stroke-linecap="round"/>
</svg>
