<svg width="32" height="32" viewBox="0 0 32 32" fill="none" xmlns="http://www.w3.org/2000/svg"><path d="m15 19-4 9.5M8 19l-3.70556 3.0318c-.94532.7735-.98264 2.2062-.07887 3.0278L8 28.5M18 28.5l3.7056-3.0318c.9453-.7735.9826-2.2062.0788-3.0278L18 19" stroke="#3A3C49" stroke-width="1.5" stroke-linecap="round"/><path d="M3 18v-6c0-1.1046.89543-2 2-2h20.5c1.1046 0 2 .8954 2 2v15.5c0 1.1046-.8954 2-2 2h-2" stroke="#3A3C49" stroke-width="1.5" stroke-linecap="round"/><path d="M5.5 10V7.5c0-1.10457.89543-2 2-2h4.1716c.5304 0 1.0391-.21071 1.4142-.58579l1.8284-1.82842c.3751-.37508.8838-.58579 1.4142-.58579H29c1.1046 0 2 .89543 2 2V25" stroke="#3A3C49" stroke-width="1.5" stroke-linecap="round"/></svg>