<svg width="32" height="32" viewBox="0 0 32 32" fill="none" xmlns="http://www.w3.org/2000/svg"><path d="M12 6.5V4c0-.55228.4477-1 1-1h10.1388c.2761 0 .5398.11409.7288.31526l5.8612 6.23819c.1742.18543.2712.4303.2712.68475V28c0 .5523-.4477 1-1 1H13.1429" stroke="#356FED" stroke-width="1.5" stroke-linecap="round"/><path d="M20 12c.5523 0 1 .4477 1 1s-.4477 1-1 1h-7c-.5523 0-1-.4477-1-1s.4477-1 1-1h7ZM2 12c.55228 0 1 .4477 1 1s-.44772 1-1 1H1c-.552285 0-1-.4477-1-1s.447715-1 1-1h1ZM9 15.9474h1.5V31H9V15.9474ZM4.59998 16h1.5v15.0526h-1.5V16Z" fill="#356FED"/><path d="M6 19.5h4V21H6v-1.5ZM6 25.5h4V27H6v-1.5ZM16 14h1.5v3H16v-3ZM11.25 30c.4142 0 .75.3358.75.75s-.3358.75-.75.75h-7.5c-.41421 0-.75-.3358-.75-.75s.33579-.75.75-.75h7.5Z" fill="#356FED"/><rect x="2.75" y="9.75" width="9.5" height="5.5" rx="1.25" stroke="#356FED" stroke-width="1.5"/><path d="M21 20.5c0 1.933-1.567 3.5-3.5 3.5S14 22.433 14 20.5s1.567-3.5 3.5-3.5" stroke="#356FED" stroke-width="1.5" stroke-linecap="round"/><path d="M5 8.5c0-.55228.44772-1 1-1h3c.55228 0 1 .44772 1 1V9H5v-.5Z" fill="#356FED"/></svg>