<svg width="32" height="32" viewBox="0 0 32 32" fill="none" xmlns="http://www.w3.org/2000/svg">
<path d="M12 6.5V4C12 3.44772 12.4477 3 13 3H23.1388C23.4149 3 23.6786 3.11409 23.8676 3.31526L29.7288 9.55345C29.903 9.73888 30 9.98375 30 10.2382V28C30 28.5523 29.5523 29 29 29H13.1429" stroke="#356FED" stroke-width="1.5" stroke-linecap="round"/>
<path d="M20 12C20.5523 12 21 12.4477 21 13C21 13.5523 20.5523 14 20 14H13C12.4477 14 12 13.5523 12 13C12 12.4477 12.4477 12 13 12H20Z" fill="#356FED"/>
<path d="M2 12C2.55228 12 3 12.4477 3 13C3 13.5523 2.55228 14 2 14H1C0.447715 14 0 13.5523 0 13C0 12.4477 0.447715 12 1 12H2Z" fill="#356FED"/>
<path d="M9 15.9474H10.5V31H9L9 15.9474Z" fill="#356FED"/>
<path d="M4.59998 16H6.09998L6.09998 31.0526H4.59998L4.59998 16Z" fill="#356FED"/>
<path d="M6 19.5H10V21H6V19.5Z" fill="#356FED"/>
<path d="M6 25.5H10V27H6V25.5Z" fill="#356FED"/>
<path d="M16 14H17.5V17H16V14Z" fill="#356FED"/>
<path d="M11.25 30C11.6642 30 12 30.3358 12 30.75C12 31.1642 11.6642 31.5 11.25 31.5H3.75C3.33579 31.5 3 31.1642 3 30.75C3 30.3358 3.33579 30 3.75 30H11.25Z" fill="#356FED"/>
<rect x="2.75" y="9.75" width="9.5" height="5.5" rx="1.25" stroke="#356FED" stroke-width="1.5"/>
<path d="M21 20.5C21 22.433 19.433 24 17.5 24C15.567 24 14 22.433 14 20.5C14 18.567 15.567 17 17.5 17" stroke="#356FED" stroke-width="1.5" stroke-linecap="round"/>
<path d="M5 8.5C5 7.94772 5.44772 7.5 6 7.5H9C9.55228 7.5 10 7.94772 10 8.5V9H5V8.5Z" fill="#356FED"/>
</svg>
