<svg width="32" height="32" viewBox="0 0 32 32" fill="none" xmlns="http://www.w3.org/2000/svg"><path d="M14.3467 4.4707c.5449-1.56684 2.7617-1.56685 3.3066 0l2.1182 6.0957c.0344.0986.127.1649.2314.167l6.4512.1318c1.6586.0341 2.3436 2.1422 1.0215 3.1446l-5.1416 3.8984c-.0833.0632-.1192.1714-.0889.2715l1.8692 6.1758c.4802 1.5879-1.313 2.8907-2.6748 1.9433l-5.2969-3.6855c-.0858-.0597-.1994-.0597-.2852 0l-5.2969 3.6855c-1.3618.9474-3.15503-.3554-2.67476-1.9433l1.86914-6.1758c.03028-.1001-.00554-.2083-.08886-.2715l-5.14161-3.8984c-1.32209-1.0024-.63716-3.1105 1.02149-3.1446l6.4512-.1318c.1044-.0021.197-.0684.2314-.167l2.1182-6.0957Z" stroke="#3A3C49" stroke-width="1.5"/></svg>