<svg width="32" height="32" viewBox="0 0 32 32" fill="none" xmlns="http://www.w3.org/2000/svg">
<path d="M12 11.5789V4C12 3.44772 12.4477 3 13 3H23.1388C23.4149 3 23.6786 3.11409 23.8676 3.31526L29.7288 9.55345C29.903 9.73888 30 9.98375 30 10.2382V28C30 28.5523 29.5523 29 29 29H26.1429" stroke="#356FED" stroke-width="1.5" stroke-linecap="round"/>
<path d="M21.5 5.5V10.5C21.5 11.0523 21.9477 11.5 22.5 11.5H27" stroke="#356FED" stroke-width="1.5" stroke-linecap="round"/>
<rect x="1.25" y="15.25" width="21.5" height="15.5" rx="1.75" stroke="#356FED" stroke-width="1.5"/>
<path d="M12.5758 24.4369C12.5932 24.76 12.654 25.058 12.7581 25.3311C12.8667 25.5995 13.0078 25.8316 13.1814 26.0273C13.3594 26.223 13.5656 26.3754 13.8 26.4846C14.0344 26.5893 14.2927 26.6416 14.5749 26.6416C14.8223 26.6416 15.0589 26.6143 15.2847 26.5597C15.5104 26.5051 15.7101 26.4187 15.8837 26.3003C16.0574 26.1775 16.1963 26.0182 16.3005 25.8225C16.4047 25.6223 16.4567 25.3788 16.4567 25.0922C16.4567 24.8328 16.3808 24.6143 16.2288 24.4369C16.0812 24.2594 15.8859 24.1069 15.6428 23.9795C15.3997 23.8476 15.1219 23.7292 14.8093 23.6246C14.4967 23.5154 14.1777 23.4039 13.8521 23.2901C13.5309 23.1763 13.214 23.0489 12.9014 22.9078C12.5888 22.7622 12.311 22.5848 12.0679 22.3754C11.8248 22.1661 11.6273 21.9158 11.4753 21.6246C11.3278 21.3333 11.254 20.9829 11.254 20.5734C11.254 20.1547 11.3321 19.7861 11.4884 19.4676C11.6447 19.1445 11.8639 18.876 12.146 18.6621C12.4326 18.4437 12.7712 18.2799 13.1619 18.1706C13.5526 18.0569 13.9823 18 14.4512 18C14.8679 18 15.2369 18.0455 15.5581 18.1365C15.8794 18.223 16.1594 18.3413 16.3981 18.4915C16.6412 18.6416 16.8453 18.8191 17.0102 19.0239C17.1752 19.2287 17.3098 19.4471 17.414 19.6792C17.5225 19.9067 17.6028 20.1456 17.6549 20.3959C17.707 20.6416 17.7417 20.8828 17.7591 21.1195H16.2028C16.1767 20.8146 16.1116 20.5506 16.0074 20.3276C15.9076 20.1047 15.7795 19.9204 15.6233 19.7747C15.4713 19.6291 15.2933 19.5222 15.0893 19.4539C14.8896 19.3811 14.6769 19.3447 14.4512 19.3447C14.2471 19.3447 14.0453 19.3675 13.8456 19.413C13.6502 19.4539 13.4744 19.5222 13.3181 19.6177C13.1619 19.7133 13.036 19.8407 12.9405 20C12.845 20.1547 12.7972 20.3458 12.7972 20.5734C12.7972 20.8373 12.871 21.0603 13.0186 21.2423C13.1705 21.4198 13.3681 21.5768 13.6112 21.7133C13.8543 21.8498 14.1321 21.9727 14.4447 22.0819C14.7572 22.1866 15.0741 22.2981 15.3953 22.4164C15.7209 22.5301 16.04 22.6598 16.3526 22.8055C16.6651 22.9465 16.9429 23.1195 17.186 23.3242C17.4291 23.529 17.6245 23.7747 17.7721 24.0614C17.924 24.3481 18 24.6917 18 25.0922C18 25.5745 17.9132 25.9977 17.7395 26.3618C17.5702 26.7213 17.3336 27.0239 17.0298 27.2696C16.7259 27.5108 16.3634 27.6928 15.9423 27.8157C15.5256 27.9386 15.0698 28 14.5749 28C14.1278 28 13.6915 27.9181 13.266 27.7543C12.845 27.5904 12.4673 27.3561 12.133 27.0512C11.8031 26.7418 11.534 26.3663 11.3256 25.9249C11.1216 25.4835 11.013 24.9875 11 24.4369H12.5758Z" fill="#356FED"/>
<path d="M10 19V25.3315C10 25.8056 9.91748 26.2126 9.75243 26.5524C9.59223 26.8881 9.37379 27.1629 9.09709 27.3769C8.82039 27.5909 8.5 27.7483 8.13592 27.849C7.77184 27.9497 7.38835 28 6.98544 28C6.60194 28 6.23058 27.9476 5.87136 27.8427C5.51214 27.742 5.19417 27.5909 4.91748 27.3895C4.64078 27.1839 4.41748 26.9301 4.24757 26.628C4.08252 26.3259 4 25.9755 4 25.5769V24.7273H5.73301V25.5643C5.73301 25.7657 5.76942 25.942 5.84223 26.093C5.9199 26.2399 6.01942 26.3636 6.14078 26.4643C6.26699 26.5608 6.40534 26.6322 6.55583 26.6783C6.70631 26.7245 6.85922 26.7476 7.01456 26.7476C7.13592 26.7476 7.26942 26.7308 7.41505 26.6972C7.56068 26.6594 7.6966 26.5965 7.82282 26.5084C7.95388 26.4161 8.06311 26.2944 8.15049 26.1434C8.23786 25.9881 8.28155 25.7951 8.28155 25.5643V19H10Z" fill="#356FED"/>
</svg>
