<svg width="32" height="32" viewBox="0 0 32 32" fill="none" xmlns="http://www.w3.org/2000/svg"><path d="M12 11.5789V4c0-.55228.4477-1 1-1h10.1388c.2761 0 .5398.11409.7288.31526l5.8612 6.23819c.1742.18543.2712.4303.2712.68475V28c0 .5523-.4477 1-1 1h-2.8571" stroke="#3A3C49" stroke-width="1.5" stroke-linecap="round"/><path d="M21.5 5.5v5c0 .5523.4477 1 1 1H27" stroke="#3A3C49" stroke-width="1.5" stroke-linecap="round"/><rect x="1.25" y="15.25" width="21.5" height="15.5" rx="1.75" stroke="#3A3C49" stroke-width="1.5"/><path d="M16 18.25c.9665 0 1.75.7835 1.75 1.75v.5c0 .4142-.3358.75-.75.75s-.75-.3358-.75-.75V20c0-.1381-.1119-.25-.25-.25h-3c-.1381 0-.25.1119-.25.25v1.3232c.0001.1021.0624.1935.1572.2315l3.7432 1.4971c.6642.2657 1.0995.9096 1.0996 1.625V26c0 .9665-.7835 1.75-1.75 1.75h-3c-.9665 0-1.75-.7835-1.75-1.75v-.5c0-.4142.3358-.75.75-.75s.75.3358.75.75v.5c0 .1381.1119.25.25.25h3c.1381 0 .25-.1119.25-.25v-1.3232c-.0001-.1021-.0624-.1935-.1572-.2315l-3.7432-1.4971c-.6642-.2657-1.0995-.9096-1.0996-1.625V20c0-.9665.7835-1.75 1.75-1.75h3Zm-6.5 0c.41421 0 .75.3358.75.75v6.8525c0 .9665-.7835 1.75-1.75 1.75H6c-.90598 0-1.65144-.688-1.74121-1.5703L4.25 25.8525V24.5c0-.4142.33579-.75.75-.75s.75.3358.75.75v1.3525l.00488.0508c.0233.114.12429.1992.24512.1992h2.5c.13807 0 .25-.1119.25-.25V19c0-.4142.33579-.75.75-.75Z" fill="#3A3C49"/></svg>