<svg width="32" height="32" viewBox="0 0 32 32" fill="none" xmlns="http://www.w3.org/2000/svg">
    <rect x="0.5" y="3.5" width="28" height="19" rx="1.5" fill="var(--temp-color-icon-32-javascript-sdk-0)" stroke="var(--temp-color-icon-32-javascript-sdk-1)"/>
    <rect x="3" y="6" width="23" height="1" rx="0.5" fill="var(--temp-color-icon-32-javascript-sdk-1)"/>
    <path d="M10.3507 14.1495C10.3656 14.408 10.4177 14.6464 10.507 14.8648C10.6 15.0796 10.7209 15.2653 10.8698 15.4218C11.0223 15.5784 11.1991 15.7003 11.4 15.7877C11.6009 15.8714 11.8223 15.9133 12.0642 15.9133C12.2763 15.9133 12.4791 15.8915 12.6726 15.8478C12.866 15.8041 13.0372 15.7349 13.186 15.6403C13.3349 15.542 13.454 15.4146 13.5433 15.258C13.6326 15.0978 13.6772 14.9031 13.6772 14.6737C13.6772 14.4662 13.6121 14.2915 13.4819 14.1495C13.3553 14.0075 13.1879 13.8856 12.9795 13.7836C12.7712 13.678 12.533 13.5834 12.2651 13.4997C11.9972 13.4123 11.7237 13.3231 11.4447 13.2321C11.1693 13.1411 10.8977 13.0391 10.6298 12.9263C10.3619 12.8098 10.1237 12.6678 9.91535 12.5003C9.70698 12.3329 9.53767 12.1327 9.40744 11.8997C9.28093 11.6667 9.21767 11.3863 9.21767 11.0587C9.21767 10.7238 9.28465 10.4289 9.4186 10.1741C9.55256 9.91559 9.74047 9.7008 9.98233 9.52969C10.2279 9.35495 10.5181 9.22389 10.853 9.13652C11.1879 9.04551 11.5563 9 11.9581 9C12.3153 9 12.6316 9.03641 12.907 9.10922C13.1823 9.17838 13.4223 9.27304 13.627 9.39317C13.8353 9.51331 14.0102 9.65529 14.1516 9.81911C14.293 9.98294 14.4084 10.1577 14.4977 10.3433C14.5907 10.5254 14.6595 10.7165 14.7042 10.9167C14.7488 11.1133 14.7786 11.3063 14.7935 11.4956H13.4595C13.4372 11.2516 13.3814 11.0405 13.2921 10.8621C13.2065 10.6837 13.0967 10.5363 12.9628 10.4198C12.8326 10.3033 12.68 10.2177 12.5051 10.1631C12.334 10.1049 12.1516 10.0758 11.9581 10.0758C11.7833 10.0758 11.6102 10.094 11.4391 10.1304C11.2716 10.1631 11.1209 10.2177 10.987 10.2942C10.853 10.3706 10.7451 10.4726 10.6633 10.6C10.5814 10.7238 10.5405 10.8767 10.5405 11.0587C10.5405 11.2699 10.6037 11.4482 10.7302 11.5939C10.8605 11.7358 11.0298 11.8614 11.2381 11.9706C11.4465 12.0799 11.6847 12.1782 11.9526 12.2655C12.2205 12.3493 12.4921 12.4385 12.7674 12.5331C13.0465 12.6241 13.32 12.7279 13.5879 12.8444C13.8558 12.9572 14.094 13.0956 14.3023 13.2594C14.5107 13.4232 14.6781 13.6198 14.8047 13.8491C14.9349 14.0785 15 14.3534 15 14.6737C15 15.0596 14.9256 15.3982 14.7767 15.6894C14.6316 15.977 14.4288 16.2191 14.1684 16.4157C13.9079 16.6086 13.5972 16.7543 13.2363 16.8526C12.8791 16.9509 12.4884 17 12.0642 17C11.6809 17 11.307 16.9345 10.9423 16.8034C10.5814 16.6724 10.2577 16.4849 9.97116 16.241C9.68837 15.9934 9.45767 15.6931 9.27907 15.3399C9.10419 14.9868 9.01116 14.59 9 14.1495H10.3507Z" fill="var(--temp-color-icon-32-javascript-sdk-1)"/>
    <path d="M8 9V14.628C8 15.0494 7.93123 15.4112 7.79369 15.7133C7.66019 16.0117 7.47816 16.2559 7.24757 16.4462C7.01699 16.6364 6.75 16.7762 6.4466 16.8657C6.1432 16.9552 5.82362 17 5.48786 17C5.16828 17 4.85882 16.9534 4.55947 16.8601C4.26011 16.7706 3.99515 16.6364 3.76456 16.4573C3.53398 16.2746 3.3479 16.049 3.20631 15.7804C3.06877 15.5119 3 15.2005 3 14.8462V14.0909H4.44417V14.835C4.44417 15.014 4.47451 15.1706 4.53519 15.3049C4.59992 15.4354 4.68285 15.5455 4.78398 15.635C4.88916 15.7207 5.00445 15.7841 5.12985 15.8252C5.25526 15.8662 5.38269 15.8867 5.51214 15.8867C5.61327 15.8867 5.72451 15.8718 5.84587 15.842C5.96723 15.8084 6.0805 15.7524 6.18568 15.6741C6.2949 15.5921 6.38592 15.4839 6.45874 15.3496C6.53155 15.2117 6.56796 15.0401 6.56796 14.835V9H8Z" fill="var(--temp-color-icon-32-javascript-sdk-1)"/>
    <rect x="14.5" y="17.5" width="17" height="12" rx="1.5" fill="url(#paint0_linear_1716_6503)" stroke="var(--temp-color-icon-32-javascript-sdk-1)"/>
    <path d="M20 21L18 23.5L20 26" stroke="var(--temp-color-icon-32-javascript-sdk-2)" stroke-linecap="round" stroke-linejoin="round"/>
    <path d="M26 26L28 23.5L26 21" stroke="var(--temp-color-icon-32-javascript-sdk-2)" stroke-linecap="round" stroke-linejoin="round"/>
    <path d="M24 20L22 27" stroke="var(--temp-color-icon-32-javascript-sdk-2)" stroke-linecap="round" stroke-linejoin="round"/>
    <defs>
    <linearGradient id="paint0_linear_1716_6503" x1="23" y1="18" x2="23" y2="29" gradientUnits="userSpaceOnUse">
    <stop stop-color="var(--temp-color-icon-32-javascript-sdk-4)"/>
    <stop offset="1" stop-color="var(--temp-color-icon-32-javascript-sdk-3)"/>
    </linearGradient>
    </defs>
    </svg>
    
    
        