<svg width="32" height="32" viewBox="0 0 32 32" fill="none" xmlns="http://www.w3.org/2000/svg"><path d="M9.75 21.5c.4142 0 .75.3358.75.75v7.5c0 .4142-.3358.75-.75.75-.41421 0-.75-.3358-.75-.75v-4.9854l-.19238.2754.00683-.0088-.59765.8526-1.36524 1.9492c-.0192.0274-.04048.0531-.0625.0772-.03769.042-.07965.0824-.12793.1162-.33921.2371-.80645.1544-1.04394-.1846L3.5 24.8184V29.75c0 .4142-.33585.7499-.75.75-.41421 0-.75-.3358-.75-.75v-7.5c0-.4142.33579-.75.75-.75.39839.0001.72283.3108.74707.7031.00705.0092.01479.0178.02148.0274l.16797.2392.00391.0049 1.19922 1.7129-.00684-.0088.59766.8525.75 1.0723 2.71875-3.8818c.01791-.0256.03725-.0497.05762-.0723.04915-.3666.36306-.6494.74316-.6494Zm7 0c.9665 0 1.75.7835 1.75 1.75v.4004c-.0002.414-.3359.75-.75.75s-.7498-.336-.75-.75V23.25c0-.1381-.1119-.25-.25-.25h-3c-.1381 0-.25.1119-.25.25v5.5c0 .1381.1119.25.25.25h3c.1381 0 .25-.1119.25-.25v-.4004c.0002-.414.3359-.75.75-.75s.7498.336.75.75v.4004c0 .9665-.7835 1.75-1.75 1.75h-3c-.9665 0-1.75-.7835-1.75-1.75v-5.5c0-.9665.7835-1.75 1.75-1.75h3Zm8.2363.0059c.5518.0006.9991.4481.9991 1v3.5c-.0003.5526-.4493 1.0008-1.002 1L21.5146 27v2.7422c0 .4182-.3386.7576-.7568.7578-.4183 0-.7578-.3395-.7578-.7578V22.501c.0001-.5526.4484-1.0006 1.001-1l3.9853.0049ZM21.5 25.5h2.5996c.2209 0 .4004-.1795.4004-.4004v-1.6992c0-.2209-.1795-.4004-.4004-.4004H21.5v2.5Z" fill="#3A3C49"/><rect x="16" y="16" width="3" height="1.5" rx=".75" fill="#3A3C49"/><rect x="20" y="16" width="3" height="1.5" rx=".75" fill="#3A3C49"/><rect x="24" y="16" width="3" height="1.5" rx=".75" fill="#3A3C49"/><path d="M9 18c0 1.1046-.89543 2-2 2s-2-.8954-2-2 .89543-2 2-2 2 .8954 2 2Z" fill="#3A3C49"/><path d="M26.9688 14c1.0518 0 1.9167.7213 2.0205 1.6455L29 18.25c0 .4142.3358.75.75.75.4143 0 .75-.3358.75-.75v-2.418c-.0002-1.9818-1.7302-3.332-3.5312-3.332H5.03125c-1.80102 0-3.53104 1.3501-3.53125 3.332l.00005 2.418c0 .4142.33578.75.75.75.41421 0 .74999-.3358.74999-.75l.0107-2.6045C3.11454 14.7213 3.97937 14 5.03125 14H26.9688Z" fill="#3A3C49"/><path d="M26.9688 1.25c1.4613 0 2.781 1.08518 2.7812 2.58203v4.33594C29.7498 9.66482 28.4301 10.75 26.9688 10.75H5.03125c-1.46136 0-2.78104-1.08518-2.78125-2.58203V3.83203C2.25021 2.33518 3.56989 1.25 5.03125 1.25H26.9688Z" stroke="#3A3C49" stroke-width="1.5"/><path d="M9 6c0 1.10457-.89543 2-2 2s-2-.89543-2-2 .89543-2 2-2 2 .89543 2 2Z" fill="#3A3C49"/><rect x="16" y="4" width="3" height="1.5" rx=".75" fill="#3A3C49"/><rect x="15" y="7" width="3" height="1.5" rx=".75" fill="#3A3C49"/><rect x="20" y="4" width="3" height="1.5" rx=".75" fill="#3A3C49"/><rect x="19" y="7" width="3" height="1.5" rx=".75" fill="#3A3C49"/><rect x="24" y="4" width="3" height="1.5" rx=".75" fill="#3A3C49"/><rect x="23" y="7" width="3" height="1.5" rx=".75" fill="#3A3C49"/></svg>