<svg width="32" height="32" viewBox="0 0 32 32" fill="none" xmlns="http://www.w3.org/2000/svg">
    <mask id="path-1-inside-1_1717_6666" fill="var(--temp-color-icon-32-office-api-0)">
    <path fill-rule="evenodd" clip-rule="evenodd" d="M28 15.4573V20.5428L25.8587 21.0335L25.145 22.8178L26.3048 24.6468L22.6914 28.2602L20.8178 27.1004L19.0335 27.8587L18.5428 30H13.4572L12.9665 27.8587L11.1822 27.145L9.35316 28.3048L5.73978 24.6914L6.89963 22.8178L6.14126 21.0335L4 20.5428V15.4573L6.14126 14.9665L6.85502 13.1822L5.69517 11.3532L9.30855 7.73978L11.1822 8.89963L12.9665 8.14126L13.4572 6H18.5428L19.0335 8.14126L20.8178 8.85502L22.6468 7.69517L26.2602 11.3086L25.1004 13.1822L25.8587 14.9665L28 15.4573ZM16 22.2857C18.3669 22.2857 20.2857 20.3669 20.2857 18C20.2857 15.6331 18.3669 13.7143 16 13.7143C13.633 13.7143 11.7142 15.6331 11.7142 18C11.7142 20.3669 13.633 22.2857 16 22.2857Z"/>
    </mask>
    <path fill-rule="evenodd" clip-rule="evenodd" d="M28 15.4573V20.5428L25.8587 21.0335L25.145 22.8178L26.3048 24.6468L22.6914 28.2602L20.8178 27.1004L19.0335 27.8587L18.5428 30H13.4572L12.9665 27.8587L11.1822 27.145L9.35316 28.3048L5.73978 24.6914L6.89963 22.8178L6.14126 21.0335L4 20.5428V15.4573L6.14126 14.9665L6.85502 13.1822L5.69517 11.3532L9.30855 7.73978L11.1822 8.89963L12.9665 8.14126L13.4572 6H18.5428L19.0335 8.14126L20.8178 8.85502L22.6468 7.69517L26.2602 11.3086L25.1004 13.1822L25.8587 14.9665L28 15.4573ZM16 22.2857C18.3669 22.2857 20.2857 20.3669 20.2857 18C20.2857 15.6331 18.3669 13.7143 16 13.7143C13.633 13.7143 11.7142 15.6331 11.7142 18C11.7142 20.3669 13.633 22.2857 16 22.2857Z" fill="var(--temp-color-icon-32-office-api-1)"/>
    <path d="M28 20.5428L28.2234 21.5175L29 21.3395V20.5428H28ZM28 15.4573H29V14.6605L28.2234 14.4825L28 15.4573ZM25.8587 21.0335L25.6354 20.0587L25.1248 20.1757L24.9303 20.6621L25.8587 21.0335ZM25.145 22.8178L24.2165 22.4465L24.0265 22.9214L24.3005 23.3534L25.145 22.8178ZM26.3048 24.6468L27.0119 25.3539L27.5782 24.7876L27.1493 24.1113L26.3048 24.6468ZM22.6914 28.2602L22.1651 29.1105L22.8385 29.5274L23.3986 28.9673L22.6914 28.2602ZM20.8178 27.1004L21.3442 26.2501L20.9036 25.9774L20.4267 26.18L20.8178 27.1004ZM19.0335 27.8587L18.6423 26.9384L18.1727 27.138L18.0587 27.6354L19.0335 27.8587ZM18.5428 30V31H19.3395L19.5175 30.2234L18.5428 30ZM13.4572 30L12.4825 30.2234L12.6605 31H13.4572V30ZM12.9665 27.8587L13.9413 27.6354L13.8243 27.1248L13.3379 26.9303L12.9665 27.8587ZM11.1822 27.145L11.5535 26.2165L11.0786 26.0265L10.6466 26.3005L11.1822 27.145ZM9.35316 28.3048L8.64605 29.0119L9.21236 29.5782L9.8887 29.1493L9.35316 28.3048ZM5.73978 24.6914L4.88951 24.1651L4.47263 24.8385L5.03267 25.3986L5.73978 24.6914ZM6.89963 22.8178L7.74989 23.3442L8.02264 22.9036L7.81996 22.4267L6.89963 22.8178ZM6.14126 21.0335L7.06159 20.6423L6.86201 20.1727L6.36464 20.0587L6.14126 21.0335ZM4 20.5428H3V21.3395L3.77662 21.5175L4 20.5428ZM4 15.4573L3.77662 14.4825L3 14.6605V15.4573H4ZM6.14126 14.9665L6.36464 15.9413L6.87521 15.8243L7.06974 15.3379L6.14126 14.9665ZM6.85502 13.1822L7.7835 13.5535L7.97347 13.0786L7.69953 12.6466L6.85502 13.1822ZM5.69517 11.3532L4.98806 10.6461L4.42176 11.2124L4.85066 11.8887L5.69517 11.3532ZM9.30855 7.73978L9.83491 6.88951L9.16148 6.47263L8.60144 7.03267L9.30855 7.73978ZM11.1822 8.89963L10.6558 9.74989L11.0964 10.0226L11.5733 9.81996L11.1822 8.89963ZM12.9665 8.14126L13.3577 9.0616L13.8273 8.86201L13.9413 8.36464L12.9665 8.14126ZM13.4572 6V5H12.6605L12.4825 5.77662L13.4572 6ZM18.5428 6L19.5175 5.77663L19.3395 5H18.5428V6ZM19.0335 8.14126L18.0587 8.36464L18.1757 8.87521L18.6621 9.06974L19.0335 8.14126ZM20.8178 8.85502L20.4465 9.7835L20.9214 9.97347L21.3534 9.69953L20.8178 8.85502ZM22.6468 7.69517L23.3539 6.98806L22.7876 6.42176L22.1113 6.85066L22.6468 7.69517ZM26.2602 11.3086L27.1105 11.8349L27.5274 11.1615L26.9673 10.6014L26.2602 11.3086ZM25.1004 13.1822L24.2501 12.6558L23.9774 13.0964L24.18 13.5733L25.1004 13.1822ZM25.8587 14.9665L24.9384 15.3577L25.138 15.8273L25.6354 15.9413L25.8587 14.9665ZM29 20.5428V15.4573H27V20.5428H29ZM26.0821 22.0082L28.2234 21.5175L27.7766 19.568L25.6354 20.0587L26.0821 22.0082ZM26.0735 23.1892L26.7872 21.4048L24.9303 20.6621L24.2165 22.4465L26.0735 23.1892ZM27.1493 24.1113L25.9895 22.2823L24.3005 23.3534L25.4603 25.1824L27.1493 24.1113ZM23.3986 28.9673L27.0119 25.3539L25.5977 23.9397L21.9843 27.5531L23.3986 28.9673ZM20.2915 27.9506L22.1651 29.1105L23.2178 27.41L21.3442 26.2501L20.2915 27.9506ZM19.4246 28.7791L21.209 28.0207L20.4267 26.18L18.6423 26.9384L19.4246 28.7791ZM19.5175 30.2234L20.0082 28.0821L18.0587 27.6354L17.568 29.7766L19.5175 30.2234ZM13.4572 31H18.5428V29H13.4572V31ZM11.9918 28.0821L12.4825 30.2234L14.432 29.7766L13.9413 27.6354L11.9918 28.0821ZM10.8108 28.0735L12.5952 28.7872L13.3379 26.9303L11.5535 26.2165L10.8108 28.0735ZM9.8887 29.1493L11.7177 27.9895L10.6466 26.3005L8.81762 27.4603L9.8887 29.1493ZM5.03267 25.3986L8.64605 29.0119L10.0603 27.5977L6.44688 23.9843L5.03267 25.3986ZM6.04936 22.2915L4.88951 24.1651L6.59004 25.2178L7.74989 23.3442L6.04936 22.2915ZM5.22093 21.4246L5.9793 23.209L7.81996 22.4267L7.06159 20.6423L5.22093 21.4246ZM3.77662 21.5175L5.91789 22.0082L6.36464 20.0587L4.22338 19.568L3.77662 21.5175ZM3 15.4573V20.5428H5V15.4573H3ZM5.91789 13.9918L3.77662 14.4825L4.22338 16.432L6.36464 15.9413L5.91789 13.9918ZM5.92654 12.8108L5.21279 14.5952L7.06974 15.3379L7.7835 13.5535L5.92654 12.8108ZM4.85066 11.8887L6.01051 13.7177L7.69953 12.6466L6.53968 10.8176L4.85066 11.8887ZM8.60144 7.03267L4.98806 10.6461L6.40227 12.0603L10.0157 8.44688L8.60144 7.03267ZM11.7085 8.04936L9.83491 6.88951L8.7822 8.59004L10.6558 9.74989L11.7085 8.04936ZM12.5754 7.22093L10.791 7.9793L11.5733 9.81996L13.3577 9.0616L12.5754 7.22093ZM12.4825 5.77662L11.9918 7.91789L13.9413 8.36464L14.432 6.22338L12.4825 5.77662ZM18.5428 5H13.4572V7H18.5428V5ZM20.0082 7.91789L19.5175 5.77663L17.568 6.22337L18.0587 8.36464L20.0082 7.91789ZM21.1892 7.92654L19.4048 7.21279L18.6621 9.06974L20.4465 9.7835L21.1892 7.92654ZM22.1113 6.85066L20.2823 8.01051L21.3534 9.69953L23.1824 8.53968L22.1113 6.85066ZM26.9673 10.6014L23.3539 6.98806L21.9397 8.40227L25.5531 12.0157L26.9673 10.6014ZM25.9506 13.7085L27.1105 11.8349L25.41 10.7822L24.2501 12.6558L25.9506 13.7085ZM26.7791 14.5754L26.0207 12.791L24.18 13.5733L24.9384 15.3577L26.7791 14.5754ZM28.2234 14.4825L26.0821 13.9918L25.6354 15.9413L27.7766 16.432L28.2234 14.4825ZM19.2857 18C19.2857 19.8146 17.8146 21.2857 16 21.2857V23.2857C18.9192 23.2857 21.2857 20.9192 21.2857 18H19.2857ZM16 14.7143C17.8146 14.7143 19.2857 16.1853 19.2857 18H21.2857C21.2857 15.0808 18.9192 12.7143 16 12.7143V14.7143ZM12.7142 18C12.7142 16.1854 14.1853 14.7143 16 14.7143V12.7143C13.0807 12.7143 10.7142 15.0808 10.7142 18H12.7142ZM16 21.2857C14.1853 21.2857 12.7142 19.8146 12.7142 18H10.7142C10.7142 20.9192 13.0807 23.2857 16 23.2857V21.2857Z" fill="var(--temp-color-icon-32-office-api-2)" mask="url(#path-1-inside-1_1717_6666)"/>
    <mask id="path-3-outside-2_1717_6666" maskUnits="userSpaceOnUse" x="1.06451" y="0" width="31" height="19" fill="black">
    <rect fill="var(--temp-color-icon-32-office-api-0)" x="1.06451" width="31" height="19"/>
    <path d="M25.9549 17.0198H8.21451C4.81796 17.0198 2.06451 14.3558 2.06451 11.0696C2.06451 7.78339 4.81796 5.11939 8.21451 5.11939C8.25472 5.11939 8.29465 5.11962 8.33415 5.12049C9.4623 2.6179 12.016 1 14.8379 1C17.6598 1 20.2135 2.6179 21.3417 5.12049C23.4833 5.16721 25.3979 6.42372 26.2346 8.33163C28.6586 8.4766 30.525 10.4584 30.4494 12.807C30.3738 15.1555 28.3835 17.0211 25.9549 17.0198Z"/>
    </mask>
    <path d="M25.9549 17.0198H8.21451C4.81796 17.0198 2.06451 14.3558 2.06451 11.0696C2.06451 7.78339 4.81796 5.11939 8.21451 5.11939C8.25472 5.11939 8.29465 5.11962 8.33415 5.12049C9.4623 2.6179 12.016 1 14.8379 1C17.6598 1 20.2135 2.6179 21.3417 5.12049C23.4833 5.16721 25.3979 6.42372 26.2346 8.33163C28.6586 8.4766 30.525 10.4584 30.4494 12.807C30.3738 15.1555 28.3835 17.0211 25.9549 17.0198Z" fill="url(#paint0_linear_1717_6666)"/>
    <path d="M25.9549 17.0198L25.9554 16.0198H25.9549V17.0198ZM8.33415 5.12049L8.31214 6.12024L8.97382 6.13481L9.24581 5.53145L8.33415 5.12049ZM21.3417 5.12049L20.43 5.53145L20.6893 6.10649L21.3199 6.12025L21.3417 5.12049ZM26.2346 8.33163L25.3188 8.73327L25.5645 9.29334L26.1749 9.32985L26.2346 8.33163ZM25.9549 16.0198H8.21451V18.0198H25.9549V16.0198ZM8.21451 16.0198C5.33886 16.0198 3.06451 13.7727 3.06451 11.0696H1.06451C1.06451 14.939 4.29706 18.0198 8.21451 18.0198V16.0198ZM3.06451 11.0696C3.06451 8.36655 5.33886 6.11939 8.21451 6.11939V4.11939C4.29706 4.11939 1.06451 7.20023 1.06451 11.0696H3.06451ZM8.21451 6.11939C8.2514 6.11939 8.28312 6.1196 8.31214 6.12024L8.35616 4.12073C8.30619 4.11963 8.25805 4.11939 8.21451 4.11939V6.11939ZM9.24581 5.53145C10.2066 3.40021 12.395 2 14.8379 2V0C11.637 0 8.71805 1.8356 7.4225 4.70952L9.24581 5.53145ZM14.8379 2C17.2808 2 19.4693 3.40021 20.43 5.53145L22.2533 4.70952C20.9578 1.8356 18.0389 0 14.8379 0V2ZM21.3199 6.12025C23.0866 6.15879 24.644 7.19443 25.3188 8.73327L27.1504 7.93C26.1518 5.65301 23.88 4.17562 21.3635 4.12072L21.3199 6.12025ZM26.1749 9.32985C28.0882 9.44428 29.5071 10.997 29.4499 12.7748L31.4489 12.8391C31.5429 9.91987 29.2289 7.50893 26.2943 7.33342L26.1749 9.32985ZM29.4499 12.7748C29.3926 14.5542 27.8739 16.0208 25.9554 16.0198L25.9544 18.0198C28.893 18.0214 31.3549 15.7568 31.4489 12.8391L29.4499 12.7748Z" fill="var(--temp-color-icon-32-office-api-2)" mask="url(#path-3-outside-2_1717_6666)"/>
    <path fill-rule="evenodd" clip-rule="evenodd" d="M8.14148 13.792C8.23845 13.9224 8.39414 13.9998 8.56003 14C8.78223 14 8.97949 13.8622 9.04968 13.658L9.79226 11.5H11.4569L12.1995 13.658C12.2696 13.8622 12.4669 14 12.6891 14C12.855 13.9998 13.0107 13.9224 13.1077 13.792C13.2046 13.6616 13.2311 13.4941 13.1788 13.3416L11.1156 7.34607C11.1136 7.33999 11.1114 7.33394 11.1092 7.32793C11.0818 7.25558 11.0388 7.19289 10.9852 7.14225C10.9382 7.09771 10.8817 7.06133 10.8174 7.03632C10.7568 7.01264 10.6914 6.99999 10.6246 7C10.5578 6.99999 10.4924 7.01264 10.4317 7.03632C10.3675 7.06133 10.311 7.09771 10.2639 7.14225C10.2103 7.19289 10.1673 7.25558 10.14 7.32793C10.1377 7.33395 10.1355 7.34001 10.1335 7.34611L8.07037 13.3416C8.01806 13.4941 8.04451 13.6616 8.14148 13.792ZM11.1128 10.5H10.1364L10.6246 9.08127L11.1128 10.5ZM13.7214 13.4998C13.7214 13.776 13.9525 13.9998 14.2375 13.9998C14.5226 13.9998 14.7536 13.776 14.7536 13.4998V11H16.302C17.4423 11 18.3666 10.1046 18.3666 9.00012C18.3666 7.89562 17.4423 7.00024 16.302 7.00024H14.2375C13.9525 7.00024 13.7214 7.22408 13.7214 7.50021V10.5V13.4998ZM16.302 10.0001H14.7536V8.00018H16.302C16.8722 8.00018 17.3343 8.44787 17.3343 9.00012C17.3343 9.55237 16.8722 10.0001 16.302 10.0001ZM19.915 12.9999V8.00018H18.8827C18.5976 8.00018 18.3665 7.77634 18.3665 7.50021C18.3665 7.22408 18.5976 7.00024 18.8827 7.00024H20.4311H21.9795C22.2645 7.00024 22.4956 7.22408 22.4956 7.50021C22.4956 7.77634 22.2645 8.00018 21.9795 8.00018H20.9472V12.9999H21.9795C22.2646 12.9999 22.4956 13.2237 22.4956 13.4999C22.4956 13.776 22.2646 13.9998 21.9795 13.9998H18.8827C18.5977 13.9998 18.3666 13.776 18.3666 13.4999C18.3666 13.2237 18.5977 12.9999 18.8827 12.9999H19.915Z" fill="var(--temp-color-icon-32-office-api-0)"/>
    <defs>
    <linearGradient id="paint0_linear_1717_6666" x1="16.2581" y1="1" x2="16.2581" y2="17.0198" gradientUnits="userSpaceOnUse">
    <stop stop-color="var(--temp-color-icon-32-office-api-4)"/>
    <stop offset="1" stop-color="var(--temp-color-icon-32-office-api-3)"/>
    </linearGradient>
    </defs>
    </svg>
        