<svg width="32" height="32" viewBox="0 0 32 32" fill="none" xmlns="http://www.w3.org/2000/svg"><path d="M2 18v-6c0-1.1046.89543-2 2-2h20.5c1.1046 0 2 .8954 2 2v15.5c0 1.1046-.8954 2-2 2h-14" stroke="#3A3C49" stroke-width="1.5" stroke-linecap="round"/><path d="M8.30481 17.0361c.44199-.0048.84162.2838.96973.7159l2.17386 7.331c.1175.397-.1099.8149-.5069.9326-.3969.1174-.8138-.109-.9316-.5058L9.41418 23.5H8.26477l-.57129.001.00586-.001h-.54199l-.5957 2.0059c-.11781.397-.53459.6235-.93165.5058-.3969-.1177-.62331-.5347-.50585-.9316L7.297 17.751c.13207-.4451.55111-.7377 1.00781-.7149ZM16.7452 17c.5523 0 1 .4477 1 1v3.5c0 .5523-.4477 1-1 1h-2.75v2.7422c0 .4183-.3394.7578-.7578.7578-.4181-.0002-.7568-.3396-.7568-.7578V18c0-.5523.4477-1 1-1h3.2646Zm3.084 0c.4144.0001.75.3366.75.751v4.3886l-.001 3.1104c-.0001.4142-.3358.75-.75.75-.414-.0002-.7499-.3359-.75-.75v-7.499c0-.4145.3365-.751.751-.751ZM7.60168 21.999 8.96985 22l-.68457-2.3057-.6836 2.3047ZM13.9952 21l2.5-.0068V18.5h-2.5V21Z" fill="#3A3C49"/><path d="M4.5 10V7.5c0-1.10457.89543-2 2-2h4.1716c.5304 0 1.0391-.21071 1.4142-.58579l1.8284-1.82842c.3751-.37508.8838-.58579 1.4142-.58579H28c1.1046 0 2 .89543 2 2V25" stroke="#3A3C49" stroke-width="1.5" stroke-linecap="round"/></svg>