<svg width="32" height="32" viewBox="0 0 32 32" fill="none" xmlns="http://www.w3.org/2000/svg">
<path d="M2 18V12C2 10.8954 2.89543 10 4 10H24.5C25.6046 10 26.5 10.8954 26.5 12V27.5C26.5 28.6046 25.6046 29.5 24.5 29.5H10.5" stroke="#356FED" stroke-width="1.5" stroke-linecap="round"/>
<path d="M8.30005 16.0361C8.7442 16.0289 9.14603 16.3182 9.27466 16.752L11.5432 24.4043C11.6608 24.8013 11.4343 25.2181 11.0374 25.3359C10.6405 25.4535 10.2236 25.2278 10.1057 24.8311L9.41528 22.499L8.26489 22.5H7.15747L6.46997 24.8184C6.35219 25.2154 5.93443 25.4409 5.53735 25.3232C5.14045 25.2054 4.91289 24.7886 5.03052 24.3916L7.29712 16.751C7.42874 16.3075 7.84531 16.0157 8.30005 16.0361ZM16.7454 16C17.2976 16.0001 17.7454 16.4477 17.7454 17V20.5C17.7454 21.0523 17.2976 21.4999 16.7454 21.5H13.9954V24.2422C13.9954 24.6605 13.6559 25 13.2375 25C12.8193 24.9999 12.4807 24.6604 12.4807 24.2422V17C12.4807 16.4477 12.9284 16 13.4807 16H16.7454ZM19.8293 16C20.2436 16 20.5793 16.3358 20.5793 16.75V21.1396L20.5784 24.251C20.5781 24.6647 20.243 24.9999 19.8293 25C19.4153 25 19.0793 24.664 19.0793 24.25V16.75C19.0793 16.3359 19.4152 16.0001 19.8293 16ZM7.60181 20.999L8.97095 21L8.28638 18.6934L7.60181 20.999ZM13.9954 20L16.4954 19.9932V17.5H13.9954V20Z" fill="#356FED"/>
<path d="M4.5 10V7.5C4.5 6.39543 5.39543 5.5 6.5 5.5H10.6716C11.202 5.5 11.7107 5.28929 12.0858 4.91421L13.9142 3.08579C14.2893 2.71071 14.798 2.5 15.3284 2.5H28C29.1046 2.5 30 3.39543 30 4.5V25" stroke="#356FED" stroke-width="1.5" stroke-linecap="round"/>
</svg>
