<svg width="32" height="32" viewBox="0 0 32 32" fill="none" xmlns="http://www.w3.org/2000/svg"><mask id="path-1-outside-1_425_3508" maskUnits="userSpaceOnUse" x="0" y="1" width="30" height="30" fill="#000"><path fill="#fff" d="M0 1h30v30H0z"/><path d="M16.7969 3c2.184 0 3.9579 1.75038 3.998 3.9248h5.6221c1.1044.00018 2 .89554 2 2v3.9199c-2.4925.2834-4.4287 2.3985-4.4287 4.9668.0001 2.5682 1.9363 4.6835 4.4287 4.9668v4.1465c-.0002 1.1043-.8957 1.9998-2 2h-3.665c-.3233-2.4491-2.4178-4.3397-4.9551-4.3398-2.5375 0-4.6318 1.8906-4.9551 4.3398H8.41699c-1.10448 0-1.99985-.8956-2-2v-5.1553c-.13708.0142-.27615.0225-.41699.0225-2.20905 0-3.99986-1.791-4-4 0-2.2091 1.79086-4 4-4 .14082 0 .27992.0073.41699.0215V8.9248c0-1.10456.89543-2 2-2h4.38181C12.8389 4.75049 14.613 3.0002 16.7969 3Z"/></mask><path d="M16.7969 3V1.5h-.0002l.0002 1.5Zm3.998 3.9248-1.4997.02767.0271 1.47233h1.4726v-1.5Zm5.6221 0 .0002-1.5h-.0002v1.5Zm2 2h1.5-1.5Zm0 3.9199.1694 1.4904 1.3306-.1512v-1.3392h-1.5Zm-4.4287 4.9668h-1.5v.0001l1.5-.0001Zm4.4287 4.9668h1.5v-1.3391l-1.3306-.1513-.1694 1.4904Zm0 4.1465 1.5.0002v-.0002h-1.5Zm-2 2v1.5h.0002l-.0002-1.5Zm-3.665 0-1.4871.1963.172 1.3037h1.3151v-1.5Zm-4.9551-4.3398.0001-1.5h-.0001v1.5Zm-4.9551 4.3398v1.5h1.315l.1721-1.3037-1.4871-.1963Zm-6.42481-2h-1.5v.0002l1.5-.0002Zm0-5.1553h1.5v-1.6634l-1.65457.1714.15457 1.492ZM2 17.792H.5v.0001L2 17.792Zm4.41699-3.9785-.15456 1.492 1.65456.1714v-1.6634h-1.5Zm2-6.8887v-1.5 1.5Zm4.38181 0v1.5h1.4726l.0272-1.47234-1.4998-.02766ZM16.7969 3v1.5c1.3642 0 2.4732 1.0934 2.4983 2.45247l1.4997-.02767 1.4998-.02766C22.2395 3.90736 19.8007 1.5 16.7969 1.5V3Zm3.998 3.9248v1.5h5.6221v-3h-5.6221v1.5Zm5.6221 0-.0002 1.5c.2764.00005.5002.22421.5002.5h3c0-1.93312-1.5673-3.49969-3.4998-3.5l-.0002 1.5Zm2 2h-1.5v3.9199h3V8.9248h-1.5Zm0 3.9199-.1694-1.4904c-3.2417.3686-5.7593 3.1172-5.7593 6.4572h3c0-1.7965 1.3548-3.2782 3.0981-3.4764l-.1694-1.4904Zm-4.4287 4.9668-1.5.0001c.0002 3.3399 2.5177 6.0886 5.7592 6.4571l.1695-1.4904.1694-1.4904c-1.7432-.1982-3.098-1.6799-3.0981-3.4765l-1.5.0001Zm4.4287 4.9668h-1.5v4.1465h3v-4.1465h-1.5Zm0 4.1465-1.5-.0002c0 .276-.2241.5002-.5002.5002l.0002 1.5.0002 1.5c1.9326-.0003 3.4995-1.5672 3.4998-3.4998l-1.5-.0002Zm-2 2v-1.5h-3.665v3h3.665v-1.5Zm-3.665 0 1.4871-.1963c-.4204-3.1846-3.1417-5.6433-6.4421-5.6435l-.0001 1.5-.0001 1.5c1.7742.0001 3.2419 1.3225 3.4681 3.0361l1.4871-.1963Zm-4.9551-4.3398v-1.5c-3.3008 0-6.0219 2.4589-6.4422 5.6435l1.4871.1963 1.4871.1963c.2262-1.7138 1.6937-3.0361 3.468-3.0361v-1.5Zm-4.9551 4.3398v-1.5H8.41699v3h4.42481v-1.5Zm-4.42481 0v-1.5c-.27585 0-.49996-.2238-.5-.5002l-1.5.0002-1.5.0002c.00026 1.9325 1.5669 3.4998 3.5 3.4998v-1.5Zm-2-2h1.5v-5.1553h-3v5.1553h1.5Zm0-5.1553-.15457-1.492c-.0931.0097-.18011.0145-.26242.0145v3c.19938 0 .39049-.0117.57157-.0305l-.15458-1.492ZM6 21.792v-1.5c-1.38053 0-2.49991-1.1193-2.5-2.5001L2 17.792l-1.5.0001C.500193 20.8294 2.96243 23.292 6 23.292v-1.5Zm-4-4h1.5c0-1.3807 1.11929-2.5 2.5-2.5v-3c-3.03757 0-5.5 2.4624-5.5 5.5H2Zm4-4v1.5c.08905 0 .17656.0046.26243.0135l.15456-1.492.15456-1.492C6.38329 12.302 6.1926 12.292 6 12.292v1.5Zm.41699.0215h1.5V8.9248h-3v4.8887h1.5Zm0-4.8887h1.5c0-.27614.22386-.5.5-.5v-3c-1.93299 0-3.5 1.56701-3.5 3.5h1.5Zm2-2v1.5h4.38181v-3H8.41699v1.5Zm4.38181 0 1.4998.02766c.025-1.35881 1.1341-2.45234 2.4984-2.45246L16.7969 3l-.0002-1.5c-3.0034.00027-5.4425 2.40734-5.4976 5.39715l1.4997.02765Z" fill="#3A3C49" mask="url(#path-1-outside-1_425_3508)"/></svg>