<svg width="32" height="32" viewBox="0 0 32 32" fill="none" xmlns="http://www.w3.org/2000/svg"><path d="M26.9688 15.25c1.4613 0 2.781 1.0852 2.7812 2.582v4.336c-.0002 1.4968-1.3199 2.582-2.7812 2.582H5.03125c-1.46136 0-2.78104-1.0852-2.78125-2.582v-4.336c.00021-1.4968 1.31989-2.582 2.78125-2.582H26.9688Z" stroke="#3A3C49" stroke-width="1.5"/><path d="M9 20c0 1.1046-.89543 2-2 2s-2-.8954-2-2 .89543-2 2-2 2 .8954 2 2Z" fill="#3A3C49"/><rect x="16" y="18" width="3" height="1.5" rx=".75" fill="#3A3C49"/><rect x="15" y="21" width="3" height="1.5" rx=".75" fill="#3A3C49"/><rect x="20" y="18" width="3" height="1.5" rx=".75" fill="#3A3C49"/><rect x="19" y="21" width="3" height="1.5" rx=".75" fill="#3A3C49"/><rect x="24" y="18" width="3" height="1.5" rx=".75" fill="#3A3C49"/><rect x="23" y="21" width="3" height="1.5" rx=".75" fill="#3A3C49"/><path d="M26.9688 3.25c1.4613 0 2.781 1.08518 2.7812 2.58203V10.168c-.0002 1.4968-1.3199 2.582-2.7812 2.582H5.03125c-1.46136 0-2.78104-1.0852-2.78125-2.582V5.83203C2.25021 4.33518 3.56989 3.25 5.03125 3.25H26.9688Z" stroke="#3A3C49" stroke-width="1.5"/><path d="M9 8c0 1.10457-.89543 2-2 2s-2-.89543-2-2 .89543-2 2-2 2 .89543 2 2Z" fill="#3A3C49"/><rect x="16" y="6" width="3" height="1.5" rx=".75" fill="#3A3C49"/><rect x="15" y="9" width="3" height="1.5" rx=".75" fill="#3A3C49"/><rect x="20" y="6" width="3" height="1.5" rx=".75" fill="#3A3C49"/><rect x="19" y="9" width="3" height="1.5" rx=".75" fill="#3A3C49"/><rect x="24" y="6" width="3" height="1.5" rx=".75" fill="#3A3C49"/><rect x="23" y="9" width="3" height="1.5" rx=".75" fill="#3A3C49"/><path d="M8 30h15M13 25v5M18 25v5" stroke="#3A3C49" stroke-width="1.5" stroke-linecap="round"/></svg>