<svg width="24" height="24" viewBox="0 0 24 24" fill="none" xmlns="http://www.w3.org/2000/svg">
<path d="M6.49998 9.5C5.5 9.5 4.5 8 4.5 6.5" stroke="#333333" stroke-linecap="round"/>
<path d="M17.5 9.5C18.5 9.5 19.5 8 19.5 6.5" stroke="#333333" stroke-linecap="round"/>
<path d="M5.99994 18C5 19 5.49991 21 6.49995 21.5" stroke="#333333" stroke-linecap="round"/>
<path d="M18 18C18.9999 19 18.5 21 17.5 21.5" stroke="#333333" stroke-linecap="round"/>
<path d="M5.5 13.5C4 13.5 2.5 15.5 2.5 16.5" stroke="#333333" stroke-linecap="round"/>
<path d="M18.5 13.5C20 13.5 21.5 15.5 21.5 16.5" stroke="#333333" stroke-linecap="round"/>
<mask id="path-7-inside-1_2066_327" fill="white">
<path fill-rule="evenodd" clip-rule="evenodd" d="M12 4C10.3431 4 9 5.34315 9 7V9.23746C9 9.24838 9.00006 9.25928 9.00017 9.27017C9.63749 9.09408 10.3088 9 11.0022 9H12.9977C13.6911 9 14.3625 9.09409 14.9998 9.2702C14.9999 9.2593 15 9.24839 15 9.23746V7C15 5.34315 13.6569 4 12 4Z"/>
</mask>
<path d="M9.00017 9.27017L8.00023 9.28085L8.01411 10.5801L9.2665 10.2341L9.00017 9.27017ZM14.9998 9.2702L14.7335 10.2341L15.9859 10.5801L15.9998 9.28087L14.9998 9.2702ZM10 7C10 5.89543 10.8954 5 12 5V3C9.79086 3 8 4.79086 8 7H10ZM10 9.23746V7H8V9.23746H10ZM10.0001 9.25949C10 9.25216 10 9.24482 10 9.23746H8C8 9.25194 8.00008 9.2664 8.00023 9.28085L10.0001 9.25949ZM9.2665 10.2341C9.81789 10.0817 10.3997 10 11.0022 10V8C10.218 8 9.45709 8.10645 8.73385 8.30629L9.2665 10.2341ZM11.0022 10H12.9977V8H11.0022V10ZM12.9977 10C13.6002 10 14.1821 10.0817 14.7335 10.2341L15.2662 8.30632C14.5429 8.10647 13.7819 8 12.9977 8V10ZM14 9.23746C14 9.24481 14 9.25216 13.9999 9.25953L15.9998 9.28087C15.9999 9.26644 16 9.25196 16 9.23746H14ZM14 7V9.23746H16V7H14ZM12 5C13.1046 5 14 5.89543 14 7H16C16 4.79086 14.2091 3 12 3V5Z" fill="#FF6F3D" mask="url(#path-7-inside-1_2066_327)"/>
<path d="M9.5 2.5L10.5 5" stroke="#FF6F3D" stroke-linecap="round"/>
<path d="M14.5 2.5L13.5 5" stroke="#FF6F3D" stroke-linecap="round"/>
<path d="M7.91697 10.3937C8.1952 9.28074 9.19516 8.5 10.3423 8.5H13.6577C14.8048 8.5 15.8048 9.28074 16.083 10.3937L16.4692 11.9384C16.8076 13.292 16.8076 14.708 16.4692 16.0616L16.083 17.6063C15.8048 18.7193 14.8048 19.5 13.6577 19.5H10.3423C9.19516 19.5 8.1952 18.7193 7.91697 17.6063L7.53078 16.0616C7.19239 14.708 7.19239 13.292 7.53078 11.9384L7.91697 10.3937Z" stroke="#FF6F3D"/>
</svg>
