<svg width="24" height="24" viewBox="0 0 24 24" fill="none" xmlns="http://www.w3.org/2000/svg">
<g clip-path="url(#clip0_1718_7025)">
<path fill-rule="evenodd" clip-rule="evenodd" d="M2.5 3C1.68677 3 1 3.70397 1 4.54785V14.5479C1 15.3606 1.6556 16 2.5 16H13.5C13.7761 16 14 16.2239 14 16.5C14 16.7761 13.7761 17 13.5 17H2.5C1.13526 17 0 15.9443 0 14.5479V4.54785C0 3.18259 1.10409 2 2.5 2H20.5C21.1176 2 21.754 2.13857 22.241 2.55905C22.7417 2.99137 23 3.64757 23 4.5C23 4.77614 22.7761 5 22.5 5C22.2239 5 22 4.77614 22 4.5C22 3.85243 21.8106 3.50863 21.5874 3.31595C21.3506 3.11143 20.987 3 20.5 3H2.5Z" fill="var(--temp-color-icon-24-any-0)"/>
<path fill-rule="evenodd" clip-rule="evenodd" d="M4 20.5C4 20.2239 4.1599 20 4.35714 20H13.6429C13.8401 20 14 20.2239 14 20.5C14 20.7761 13.8401 21 13.6429 21H4.35714C4.1599 21 4 20.7761 4 20.5Z" fill="var(--temp-color-icon-24-any-0)"/>
<path fill-rule="evenodd" clip-rule="evenodd" d="M8.5 20.9521C8.22386 20.9521 8 20.7283 8 20.4521L8 16.9521L9 16.9521L9 20.4521C9 20.7283 8.77614 20.9521 8.5 20.9521Z" fill="var(--temp-color-icon-24-any-0)"/>
<path fill-rule="evenodd" clip-rule="evenodd" d="M22 7H17C16.4477 7 16 7.44772 16 8V19C16 19.5523 16.4477 20 17 20H22C22.5523 20 23 19.5523 23 19V8C23 7.44772 22.5523 7 22 7ZM17 6C15.8954 6 15 6.89543 15 8V19C15 20.1046 15.8954 21 17 21H22C23.1046 21 24 20.1046 24 19V8C24 6.89543 23.1046 6 22 6H17Z" fill="var(--temp-color-icon-24-any-1)"/>
<path fill-rule="evenodd" clip-rule="evenodd" d="M18 18.5C18 18.2239 18.2929 18 18.5 18H20.5C20.7071 18 21 18.2239 21 18.5C21 18.7761 20.7071 19 20.5 19H18.5C18.2929 19 18 18.7761 18 18.5Z" fill="var(--temp-color-icon-24-any-1)"/>
</g>
<defs>
<clipPath id="clip0_1718_7025">
<rect width="24" height="24" fill="white"/>
</clipPath>
</defs>
</svg>
