<svg width="24" height="24" viewBox="0 0 24 24" fill="none" xmlns="http://www.w3.org/2000/svg">
<g clip-path="url(#clip0_1718_7021)">
<path d="M3.36958 19.5773C-0.691999 15.4593 -0.609006 8.39954 3.88043 3.9101C7.33922 0.451311 13.2068 -0.618544 17.5089 1.92231M6.41585 22.017C10.7006 24.5196 16.4951 23.8108 20.1381 20.1678C24.4821 15.8239 24.6229 8.86846 20.5605 4.35524" stroke="var(--temp-color-icon-24-any-0)" stroke-linecap="round"/>
<path fill-rule="evenodd" clip-rule="evenodd" d="M18.0113 15.4992C18.0117 15.7754 17.7882 15.9995 17.512 16C17.2359 16.0004 17.0117 15.7769 17.0113 15.5007L17.0007 8.50072C17.0003 8.22458 17.2238 8.00039 17.5 7.99997C17.7761 7.99956 18.0003 8.22308 18.0007 8.49922L18.0017 9.14207L18.0017 9.14791L18.0051 11.4278L18.0052 11.44L18.0069 12.5683L18.0113 15.4992ZM5.48755 15.5925C5.40905 15.8572 5.1308 16.0082 4.86605 15.9297C4.6013 15.8512 4.45032 15.573 4.52882 15.3082L6.52118 8.58876C6.61356 8.2772 6.88306 8.05841 7.19594 8.02322L7.201 8.01943C7.23359 8.01708 7.26593 8.01675 7.2979 8.01834C7.31736 8.01866 7.33692 8.01969 7.35656 8.02145L7.35984 8.02387C7.66595 8.06338 7.92762 8.27959 8.01812 8.58481L10.0153 15.3206C10.0938 15.5854 9.94284 15.8636 9.6781 15.9421C9.41335 16.0206 9.13509 15.8696 9.05659 15.6049L8.56976 13.963L7.29633 13.963L6.73356 13.963H6.72747H5.9707L5.48755 15.5925ZM6.26721 12.963L7.27023 9.58023L8.27326 12.963H6.26721ZM11 8.49997C11 8.2236 11.2239 7.99997 11.5 7.99997H13.5C13.9953 7.99997 14.4869 8.15141 14.8955 8.42673C15.5715 8.8774 16 9.68353 16 10.5C16 11.1554 15.7328 11.8021 15.2678 12.2675C14.8033 12.7326 14.1565 13 13.5 13H12V15.5C12 15.7763 11.7761 16 11.5 16C11.2239 16 11 15.7763 11 15.5V12.5V8.49997ZM12 8.99997H13.5C13.7864 8.99997 14.071 9.08398 14.3103 9.23727C14.5661 9.4032 14.7695 9.64495 14.8857 9.92575C14.9612 10.1084 15 10.3027 15 10.5C15 10.8935 14.8401 11.2805 14.5605 11.5605C14.2824 11.8397 13.8943 12 13.5 12H12V8.99997Z" fill="var(--temp-color-icon-24-any-1)"/>
<path d="M3.93398 17.7478L1.61852 20.0476L4.76787 20.9029L3.93398 17.7478Z" fill="var(--temp-color-icon-24-any-0)"/>
<path d="M19.3714 3.23533L22.5051 4.14636L20.1492 6.40471L19.3714 3.23533Z" fill="var(--temp-color-icon-24-any-0)"/>
</g>
<defs>
<clipPath id="clip0_1718_7021">
<rect width="24" height="24" fill="white"/>
</clipPath>
</defs>
</svg>
