<svg width="24" height="24" viewBox="0 0 24 24" fill="none" xmlns="http://www.w3.org/2000/svg">
<g clip-path="url(#clip0_1718_7022)">
<path d="M8.5 9.5V3.5C8.5 2.94772 8.94772 2.5 9.5 2.5H17.0858C17.351 2.5 17.6054 2.60536 17.7929 2.79289L22.2071 7.20711C22.3946 7.39464 22.5 7.649 22.5 7.91421V20.5C22.5 21.0523 22.0523 21.5 21.5 21.5H19.5" stroke="var(--temp-color-icon-24-any-0)" stroke-linecap="round"/>
<path d="M4.5 9.5V3.5C4.5 2.94772 4.94772 2.5 5.5 2.5H7" stroke="var(--temp-color-icon-24-any-0)" stroke-linecap="round"/>
<path d="M0.5 9.5V3.5C0.5 2.94772 0.947715 2.5 1.5 2.5H3" stroke="var(--temp-color-icon-24-any-0)" stroke-linecap="round"/>
<path fill-rule="evenodd" clip-rule="evenodd" d="M16.5 4C16.7761 4 17 4.22386 17 4.5V8H20.5C20.7761 8 21 8.22386 21 8.5C21 8.77614 20.7761 9 20.5 9H16.5C16.2239 9 16 8.77614 16 8.5V4.5C16 4.22386 16.2239 4 16.5 4Z" fill="var(--temp-color-icon-24-any-0)"/>
<path fill-rule="evenodd" clip-rule="evenodd" d="M14.0004 20.5C14.0004 20.7762 13.7766 21 13.5004 21C13.2243 21 13.0004 20.7762 13.0004 20.5V14.5C13.0004 14.2239 13.2243 14 13.5004 14C13.7766 14 14.0004 14.2239 14.0004 14.5V15V15.0051V17V17.0107V17.998L14.0004 20.5ZM2.99219 20.638C2.91369 20.9028 2.63543 21.0538 2.37069 20.9753C2.10594 20.8968 1.95496 20.6185 2.03345 20.3538L3.74797 14.5714C3.83975 14.2618 4.11098 14.0472 4.42236 14.0197L4.42259 14.0195C4.78906 13.9837 5.12941 14.2129 5.23408 14.5659L6.95298 20.3631C7.03148 20.6279 6.8805 20.9061 6.61575 20.9846C6.351 21.0631 6.07274 20.9121 5.99425 20.6474L5.49483 18.9631L4.64173 18.9631L4.22025 18.9631L4.21569 18.9631H3.48883L2.99219 20.638ZM3.78188 17.9747L4.49183 15.5804L5.19833 17.9631H3.93501C3.88294 17.9631 3.8318 17.9671 3.78188 17.9747ZM8.50043 21C8.77657 21 9.00043 20.7762 9.00043 20.5L9.00044 17.998H11.0024C11.5536 17.998 12.0004 17.5512 12.0004 17V15C12.0004 14.4477 11.5527 14 11.0004 14H8.00044V20.5C8.00044 20.7762 8.22429 21 8.50043 21ZM11.0004 15V17.0053L9.00044 17.0107V15H11.0004Z" fill="var(--temp-color-icon-24-any-1)"/>
<path fill-rule="evenodd" clip-rule="evenodd" d="M16.9898 12.3992C16.9432 12.1714 16.7416 12 16.5 12C16.4991 12 16.4982 12 16.4973 12L11.6854 12H10.6363H10.625H1.06793H1.0625H0.5C0.223858 12 0 12.2239 0 12.5L6.93397e-06 22.4973L0 22.5C0 22.6268 0.0472049 22.7426 0.125001 22.8307C0.216619 22.9345 0.350664 23 0.5 23H16.5C16.5173 23 16.5343 22.9991 16.5511 22.9974C16.8033 22.9718 17 22.7589 17 22.5V22.4884V22.4772V13.0531V13.0477V12.5C17 12.4978 17 12.4957 17 12.4935C16.9996 12.4613 16.9961 12.4298 16.9898 12.3992ZM16 13H1V13.0477V13.0531V22H1.0625H1.06793H10.625H10.6363H11.6854L16 22L16 13Z" fill="var(--temp-color-icon-24-any-1)"/>
</g>
<defs>
<clipPath id="clip0_1718_7022">
<rect width="24" height="24" fill="white"/>
</clipPath>
</defs>
</svg>
