<svg width="24" height="24" viewBox="0 0 24 24" fill="none" xmlns="http://www.w3.org/2000/svg">
<g clip-path="url(#clip0_1718_7024)">
<path d="M22.5 21C22.5 21.2761 22.2761 21.5 22 21.5H9C8.72386 21.5 8.5 21.2761 8.5 21V3C8.5 2.72386 8.72386 2.5 9 2.5H17.0872C17.2194 2.5 17.3462 2.55235 17.4399 2.64561L22.3527 7.53526C22.447 7.62909 22.5 7.75663 22.5 7.88965V21Z" stroke="#333333"/>
<path d="M7 2.5H5.5C4.94772 2.5 4.5 2.94771 4.5 3.5V20.5C4.5 21.0523 4.94772 21.5 5.5 21.5H7" stroke="#FF6F3D" stroke-linecap="round"/>
<path d="M3 2.5H1.5C0.947715 2.5 0.5 2.94771 0.5 3.5V20.5C0.5 21.0523 0.947715 21.5 1.5 21.5H3" stroke="#FF6F3D" stroke-linecap="round"/>
<path fill-rule="evenodd" clip-rule="evenodd" d="M16.5 4C16.7761 4 17 4.22386 17 4.5V8H20.5C20.7761 8 21 8.22386 21 8.5C21 8.77614 20.7761 9 20.5 9H16.5C16.2239 9 16 8.77614 16 8.5V4.5C16 4.22386 16.2239 4 16.5 4Z" fill="#333333"/>
<path fill-rule="evenodd" clip-rule="evenodd" d="M16 11.5C16 11.2239 15.7761 11 15.5 11C15.2239 11 15 11.2239 15 11.5V14.0684H12.5C12.2239 14.0684 12 14.2922 12 14.5684C12 14.8445 12.2239 15.0684 12.5 15.0684H15V17.5453C15 17.8214 15.2239 18.0453 15.5 18.0453C15.7761 18.0453 16 17.8214 16 17.5453V15.0684H18.5C18.7761 15.0684 19 14.8445 19 14.5684C19 14.2922 18.7761 14.0684 18.5 14.0684H16V11.5Z" fill="#FF6F3D"/>
</g>
<defs>
<clipPath id="clip0_1718_7024">
<rect width="24" height="24" fill="white"/>
</clipPath>
</defs>
</svg>
