<svg width="24" height="24" viewBox="0 0 24 24" fill="none" xmlns="http://www.w3.org/2000/svg">
<path d="M19.3909 3.1892C17.3922 1.51082 14.8142 0.5 12 0.5C5.64873 0.5 0.5 5.64873 0.5 12C0.5 18.3513 5.64873 23.5 12 23.5C18.3513 23.5 23.5 18.3513 23.5 12C23.5 10.2899 23.1267 8.66703 22.4573 7.20833" stroke="var(--temp-color-icon-24-any-0)" stroke-linecap="round"/>
<path d="M5.5 6L5.69696 5.54043C5.54248 5.47422 5.36507 5.49006 5.22475 5.58258C5.08444 5.6751 5 5.83193 5 6H5.5ZM9.83758 15.7446L10.2698 15.9961C10.3488 15.8601 10.3594 15.6949 10.2982 15.5501C10.237 15.4052 10.1112 15.2976 9.95862 15.2595L9.83758 15.7446ZM14.1624 15.7446L14.0414 15.2595C13.8888 15.2976 13.763 15.4052 13.7018 15.5501C13.6406 15.6949 13.6512 15.8601 13.7302 15.9961L14.1624 15.7446ZM18.5 6H19C19 5.83193 18.9156 5.6751 18.7752 5.58258C18.6349 5.49006 18.4575 5.47422 18.303 5.54043L18.5 6ZM15 7.5V8C15.0677 8 15.1347 7.98625 15.197 7.95957L15 7.5ZM9 7.5L8.80304 7.95957C8.86528 7.98625 8.93229 8 9 8V7.5ZM6 11V6H5V11H6ZM9.95862 15.2595C7.46413 14.6371 6 12.9187 6 11H5C5 13.4986 6.9058 15.5284 9.71653 16.2298L9.95862 15.2595ZM10 17C10 16.6331 10.0983 16.2907 10.2698 15.9961L9.4054 15.4932C9.14754 15.9364 9 16.4517 9 17H10ZM10 19.5V17H9V19.5H10ZM10.5 20C10.2239 20 10 19.7761 10 19.5H9C9 20.3284 9.67157 21 10.5 21V20ZM13.5 20H10.5V21H13.5V20ZM14 19.5C14 19.7761 13.7761 20 13.5 20V21C14.3284 21 15 20.3284 15 19.5H14ZM14 17V19.5H15V17H14ZM13.7302 15.9961C13.9017 16.2907 14 16.6331 14 17H15C15 16.4517 14.8525 15.9364 14.5946 15.4932L13.7302 15.9961ZM18 11C18 12.9187 16.5359 14.6371 14.0414 15.2595L14.2835 16.2298C17.0942 15.5284 19 13.4986 19 11H18ZM18 6V11H19V6H18ZM15.197 7.95957L18.697 6.45957L18.303 5.54043L14.803 7.04043L15.197 7.95957ZM9 8H15V7H9V8ZM5.30304 6.45957L8.80304 7.95957L9.19696 7.04043L5.69696 5.54043L5.30304 6.45957Z" fill="var(--temp-color-icon-24-any-1)"/>
<path d="M9.50012 18.5C8.00012 18.5 7.30012 18.7 6.50012 17.5C6.11947 16.929 5.50012 16.5 4.50012 16.5" stroke="var(--temp-color-icon-24-any-1)" stroke-linecap="round"/>
</svg>
