<svg width="24" height="24" viewBox="0 0 24 24" fill="none" xmlns="http://www.w3.org/2000/svg">
<g clip-path="url(#clip0_1718_7026)">
<path fill-rule="evenodd" clip-rule="evenodd" d="M21.7113 5.81889C21.9505 5.68082 22.2563 5.76276 22.3943 6.0019C25.708 11.7414 23.7415 19.0805 18.002 22.3942C12.2625 25.7079 4.92343 23.7414 1.60972 18.0019C-1.70399 12.2624 0.262516 4.9233 6.00203 1.6096C8.66341 0.0730491 11.6699 -0.32814 14.4582 0.255843C15.8838 0.554427 17.2529 1.1106 18.4905 1.90454C19.2359 2.38267 19.9336 2.94702 20.5671 3.59319C20.7604 3.79037 20.7573 4.10694 20.5601 4.30026C20.3629 4.49358 20.0463 4.49045 19.853 4.29327C19.2727 3.70139 18.6336 3.18438 17.9506 2.74624C16.8163 2.01861 15.5609 1.50849 14.2532 1.23461C11.6965 0.699114 8.94216 1.06681 6.50203 2.47562C1.24081 5.51319 -0.56182 12.2407 2.47575 17.5019C5.51331 22.7631 12.2408 24.5657 17.502 21.5282C22.7632 18.4906 24.5659 11.7631 21.5283 6.5019C21.3902 6.26276 21.4722 5.95696 21.7113 5.81889Z" fill="var(--temp-color-icon-24-any-0)"/>
<path fill-rule="evenodd" clip-rule="evenodd" d="M13.6989 8.04239C13.9527 8.15116 14.0703 8.4451 13.9615 8.69892L10.9615 15.6989C10.8528 15.9527 10.5588 16.0703 10.305 15.9615C10.0512 15.8528 9.93362 15.5588 10.0424 15.305L13.0424 8.305C13.1512 8.05118 13.4451 7.93361 13.6989 8.04239ZM15.1257 8.17271C15.3075 7.96489 15.6234 7.94383 15.8312 8.12567L19.8312 11.6257L20.2613 12.002L19.8312 12.3782L15.8312 15.8782C15.6234 16.0601 15.3075 16.039 15.1257 15.8312C14.9438 15.6234 14.9649 15.3075 15.1727 15.1257L18.7427 12.002L15.1727 8.87825C14.9649 8.69641 14.9438 8.38053 15.1257 8.17271ZM8.17272 8.12567C8.38054 7.94383 8.69642 7.96489 8.87826 8.17271C9.0601 8.38053 9.03904 8.69641 8.83122 8.87825L5.26127 12.002L8.83122 15.1257C9.03904 15.3075 9.0601 15.6234 8.87826 15.8312C8.69642 16.039 8.38054 16.0601 8.17272 15.8782L4.17272 12.3782L3.74268 12.002L4.17272 11.6257L8.17272 8.12567Z" fill="var(--temp-color-icon-24-any-1)"/>
</g>
<defs>
<clipPath id="clip0_1718_7026">
<rect width="24" height="24" fill="white"/>
</clipPath>
</defs>
</svg>
