<svg width="24" height="24" viewBox="0 0 24 24" fill="none" xmlns="http://www.w3.org/2000/svg">
<path fill-rule="evenodd" clip-rule="evenodd" d="M1 12.25C1 11.0074 2.02196 10 3.28261 10H19.7174C20.978 10 22 11.0074 22 12.25V16.75C22 17.9926 20.978 19 19.7174 19H13.8864C13.6342 19 13.4091 18.7485 13.4091 18.5C13.4091 18.2515 13.6342 18 13.8864 18H19.7174C20.4738 18 21.087 17.4956 21.087 16.75V12.25C21.087 11.5044 20.4738 11 19.7174 11H3.28261C2.52622 11 1.91304 11.5044 1.91304 12.25V16.75C1.91304 17.4956 2.52622 18 3.28261 18H9.11364C9.36577 18 9.59091 18.2515 9.59091 18.5C9.59091 18.7485 9.36577 19 9.11364 19H3.28261C2.02196 19 1 17.9926 1 16.75V12.25Z" fill="var(--temp-color-icon-24-any-0)"/>
<path d="M7 14.5C7 15.3284 6.32843 16 5.5 16C4.67157 16 4 15.3284 4 14.5C4 13.6716 4.67157 13 5.5 13C6.32843 13 7 13.6716 7 14.5Z" fill="var(--temp-color-icon-24-any-1)"/>
<path d="M13 22.5C13 23.3284 12.3284 24 11.5 24C10.6716 24 10 23.3284 10 22.5C10 21.6716 10.6716 21 11.5 21C12.3284 21 13 21.6716 13 22.5Z" fill="var(--temp-color-icon-24-any-1)"/>
<path d="M19 13.5C19 13.7761 18.7761 14 18.5 14C18.2239 14 18 13.7761 18 13.5C18 13.2239 18.2239 13 18.5 13C18.7761 13 19 13.2239 19 13.5Z" fill="var(--temp-color-icon-24-any-1)"/>
<path d="M18 15.5C18 15.7761 17.7761 16 17.5 16C17.2239 16 17 15.7761 17 15.5C17 15.2239 17.2239 15 17.5 15C17.7761 15 18 15.2239 18 15.5Z" fill="var(--temp-color-icon-24-any-1)"/>
<path d="M17 13.5C17 13.7761 16.7761 14 16.5 14C16.2239 14 16 13.7761 16 13.5C16 13.2239 16.2239 13 16.5 13C16.7761 13 17 13.2239 17 13.5Z" fill="var(--temp-color-icon-24-any-1)"/>
<path d="M16 15.5C16 15.7761 15.7761 16 15.5 16C15.2239 16 15 15.7761 15 15.5C15 15.2239 15.2239 15 15.5 15C15.7761 15 16 15.2239 16 15.5Z" fill="var(--temp-color-icon-24-any-1)"/>
<path d="M15 13.5C15 13.7761 14.7761 14 14.5 14C14.2239 14 14 13.7761 14 13.5C14 13.2239 14.2239 13 14.5 13C14.7761 13 15 13.2239 15 13.5Z" fill="var(--temp-color-icon-24-any-1)"/>
<path d="M14 15.5C14 15.7761 13.7761 16 13.5 16C13.2239 16 13 15.7761 13 15.5C13 15.2239 13.2239 15 13.5 15C13.7761 15 14 15.2239 14 15.5Z" fill="var(--temp-color-icon-24-any-1)"/>
<path d="M13 13.5C13 13.7761 12.7761 14 12.5 14C12.2239 14 12 13.7761 12 13.5C12 13.2239 12.2239 13 12.5 13C12.7761 13 13 13.2239 13 13.5Z" fill="var(--temp-color-icon-24-any-1)"/>
<path d="M12 15.5C12 15.7761 11.7761 16 11.5 16C11.2239 16 11 15.7761 11 15.5C11 15.2239 11.2239 15 11.5 15C11.7761 15 12 15.2239 12 15.5Z" fill="var(--temp-color-icon-24-any-1)"/>
<rect x="1.5" y="0.5" width="20" height="8" rx="1.5" stroke="var(--temp-color-icon-24-any-0)"/>
<path d="M7 4.5C7 5.32843 6.32843 6 5.5 6C4.67157 6 4 5.32843 4 4.5C4 3.67157 4.67157 3 5.5 3C6.32843 3 7 3.67157 7 4.5Z" fill="var(--temp-color-icon-24-any-1)"/>
<path d="M19 3.5C19 3.77614 18.7761 4 18.5 4C18.2239 4 18 3.77614 18 3.5C18 3.22386 18.2239 3 18.5 3C18.7761 3 19 3.22386 19 3.5Z" fill="var(--temp-color-icon-24-any-1)"/>
<path d="M18 5.5C18 5.77614 17.7761 6 17.5 6C17.2239 6 17 5.77614 17 5.5C17 5.22386 17.2239 5 17.5 5C17.7761 5 18 5.22386 18 5.5Z" fill="var(--temp-color-icon-24-any-1)"/>
<path d="M17 3.5C17 3.77614 16.7761 4 16.5 4C16.2239 4 16 3.77614 16 3.5C16 3.22386 16.2239 3 16.5 3C16.7761 3 17 3.22386 17 3.5Z" fill="var(--temp-color-icon-24-any-1)"/>
<path d="M16 5.5C16 5.77614 15.7761 6 15.5 6C15.2239 6 15 5.77614 15 5.5C15 5.22386 15.2239 5 15.5 5C15.7761 5 16 5.22386 16 5.5Z" fill="var(--temp-color-icon-24-any-1)"/>
<path d="M15 3.5C15 3.77614 14.7761 4 14.5 4C14.2239 4 14 3.77614 14 3.5C14 3.22386 14.2239 3 14.5 3C14.7761 3 15 3.22386 15 3.5Z" fill="var(--temp-color-icon-24-any-1)"/>
<path d="M14 5.5C14 5.77614 13.7761 6 13.5 6C13.2239 6 13 5.77614 13 5.5C13 5.22386 13.2239 5 13.5 5C13.7761 5 14 5.22386 14 5.5Z" fill="var(--temp-color-icon-24-any-1)"/>
<path d="M13 3.5C13 3.77614 12.7761 4 12.5 4C12.2239 4 12 3.77614 12 3.5C12 3.22386 12.2239 3 12.5 3C12.7761 3 13 3.22386 13 3.5Z" fill="var(--temp-color-icon-24-any-1)"/>
<path d="M12 5.5C12 5.77614 11.7761 6 11.5 6C11.2239 6 11 5.77614 11 5.5C11 5.22386 11.2239 5 11.5 5C11.7761 5 12 5.22386 12 5.5Z" fill="var(--temp-color-icon-24-any-1)"/>
<rect x="1" y="22" width="8" height="1" rx="0.5" fill="var(--temp-color-icon-24-any-0)"/>
<rect x="14" y="22" width="8" height="1" rx="0.5" fill="var(--temp-color-icon-24-any-0)"/>
<rect x="12" y="17" width="3" height="1" rx="0.5" transform="rotate(90 12 17)" fill="var(--temp-color-icon-24-any-0)"/>
</svg>
