<svg width="33" height="33" viewBox="0 0 33 33" fill="none" xmlns="http://www.w3.org/2000/svg">
<path fill-rule="evenodd" clip-rule="evenodd" d="M14.9877 31.1324L1.78675 24.9561C0.662229 24.4169 0.662229 23.5836 1.78675 23.0934L6.38263 20.9366L14.9388 24.9561C16.0633 25.4953 17.8723 25.4953 18.9479 24.9561L27.5041 20.9366L32.1 23.0934C33.2245 23.6326 33.2245 24.4659 32.1 24.9561L18.8991 31.1324C17.8723 31.6226 16.0633 31.6226 14.9877 31.1324Z" fill="#FF6F3D"/>
<path fill-rule="evenodd" clip-rule="evenodd" d="M14.9449 23.4894L1.78418 17.306C0.663085 16.7662 0.663085 15.9319 1.78418 15.4412L6.26857 13.3309L14.9449 17.4041C16.066 17.944 17.8695 17.944 18.9418 17.4041L27.6182 13.3309L32.1025 15.4412C33.2236 15.981 33.2236 16.8153 32.1025 17.306L18.9418 23.4894C17.8207 24.0293 16.0172 24.0293 14.9449 23.4894Z" fill="#95C038"/>
<path fill-rule="evenodd" clip-rule="evenodd" d="M14.9449 15.926L1.78418 9.83151C0.663085 9.29946 0.663085 8.47719 1.78418 7.9935L14.9449 1.89904C16.066 1.36699 17.8695 1.36699 18.9418 1.89904L32.1025 7.9935C33.2236 8.52556 33.2236 9.34783 32.1025 9.83151L18.9418 15.926C17.8207 16.4097 16.0172 16.4097 14.9449 15.926Z" fill="#5DC0E8"/>
</svg>
