<svg width="64" height="64" viewBox="0 0 64 64" fill="none" xmlns="http://www.w3.org/2000/svg">
<path d="M10.875 13.5H53.125C54.2831 13.5 55.3952 13.9662 56.2162 14.7984C57.0374 15.6308 57.5 16.7611 57.5 17.9412V40.5H6.5V17.9412C6.5 16.7611 6.96255 15.6308 7.78378 14.7984C8.60479 13.9662 9.71687 13.5 10.875 13.5Z" fill="var(--temp-color-icon-64-desktop-editors-1)" stroke="var(--temp-color-icon-64-desktop-editors-0)" stroke-linecap="round" stroke-linejoin="round"/>
<rect x="13.5" y="8.5" width="37" height="25" rx="1.5" fill="var(--temp-color-icon-64-desktop-editors-2)" stroke="var(--temp-color-icon-64-desktop-editors-0)"/>
<rect x="16.5" y="12.5" width="10" height="5" stroke="var(--temp-color-icon-64-desktop-editors-3)"/>
<rect x="16.5" y="17.5" width="10" height="6" stroke="var(--temp-color-icon-64-desktop-editors-3)"/>
<rect x="16.5" y="23.5" width="10" height="6" stroke="var(--temp-color-icon-64-desktop-editors-3)"/>
<path d="M6.5 40.5H57.5V45C57.5 46.1975 57.0361 47.3435 56.2141 48.1865C55.3926 49.0291 54.2812 49.5 53.125 49.5H10.875C9.71882 49.5 8.60736 49.0291 7.78585 48.1865C6.96393 47.3435 6.5 46.1975 6.5 45V40.5Z" fill="var(--temp-color-icon-64-desktop-editors-4)" stroke="var(--temp-color-icon-64-desktop-editors-0)" stroke-miterlimit="10"/>
<path d="M32.5 46C33.3284 46 34 45.3284 34 44.5C34 43.6716 33.3284 43 32.5 43C31.6716 43 31 43.6716 31 44.5C31 45.3284 31.6716 46 32.5 46Z" fill="var(--temp-color-icon-64-desktop-editors-0)"/>
<path d="M26.5 56.5V49.5H38.5V56.5H26.5Z" fill="var(--temp-color-icon-64-desktop-editors-5)" stroke="var(--temp-color-icon-64-desktop-editors-0)" stroke-linecap="round" stroke-linejoin="round"/>
<path d="M43.6077 17.1083L41.1847 14L38.0003 17.9667C37.9972 18.0991 38.0183 18.2309 38.0623 18.3545C38.1062 18.4781 38.1722 18.5911 38.2565 18.6871C38.3408 18.783 38.4416 18.8601 38.5534 18.9138C38.6652 18.9674 38.7857 18.9968 38.908 19H47.092C47.2143 18.9968 47.3348 18.9674 47.4466 18.9138C47.5584 18.8601 47.6592 18.783 47.7435 18.6871C47.8278 18.5911 47.8938 18.4781 47.9377 18.3545C47.9817 18.2309 48.0028 18.0991 47.9997 17.9667L45.423 15.0667L43.6077 17.1083Z" fill="var(--temp-color-icon-64-desktop-editors-6)"/>
<path d="M44 14C44.5523 14 45 13.5523 45 13C45 12.4477 44.5523 12 44 12C43.4477 12 43 12.4477 43 13C43 13.5523 43.4477 14 44 14Z" fill="var(--temp-color-icon-64-desktop-editors-6)"/>
<path d="M46.4615 21H39.5385C38.6888 21 38 21.7326 38 22.6364V28.3636C38 29.2674 38.6888 30 39.5385 30H46.4615C47.3112 30 48 29.2674 48 28.3636V22.6364C48 21.7326 47.3112 21 46.4615 21Z" fill="var(--temp-color-icon-64-desktop-editors-6)"/>
<path d="M40.5556 35.5H23.4444C22.9246 35.5 22.4286 35.2986 22.0649 34.9442C21.7016 34.5902 21.5 34.1128 21.5 33.6178V8.38221C21.5 7.88723 21.7016 7.40984 22.0649 7.05581C22.4286 6.70135 22.9246 6.5 23.4444 6.5H35.7929L42.5 13.2071V33.6178C42.5 34.1128 42.2984 34.5902 41.9351 34.9442C41.5714 35.2986 41.0754 35.5 40.5556 35.5Z" fill="var(--temp-color-icon-64-desktop-editors-5)" stroke="var(--temp-color-icon-64-desktop-editors-0)" stroke-miterlimit="10"/>
<path d="M36.5 7.20711L41.7929 12.5H36.5V7.20711Z" fill="url(#paint0_linear_1696_7778)" stroke="var(--temp-color-icon-64-desktop-editors-0)" stroke-linecap="round" stroke-linejoin="round"/>
<rect x="22.5" y="55.5" width="21" height="3" rx="1.5" fill="var(--temp-color-icon-64-desktop-editors-1)" stroke="var(--temp-color-icon-64-desktop-editors-0)"/>
<rect x="26" y="17" width="12" height="1" rx="0.5" fill="var(--temp-color-icon-64-desktop-editors-0)"/>
<rect x="26" y="20" width="12" height="1" rx="0.5" fill="var(--temp-color-icon-64-desktop-editors-0)"/>
<rect x="26" y="23" width="12" height="1" rx="0.5" fill="var(--temp-color-icon-64-desktop-editors-0)"/>
<rect x="26" y="26" width="12" height="1" rx="0.5" fill="var(--temp-color-icon-64-desktop-editors-0)"/>
<rect x="26" y="29" width="12" height="1" rx="0.5" fill="var(--temp-color-icon-64-desktop-editors-0)"/>
<defs>
<linearGradient id="paint0_linear_1696_7778" x1="36" y1="5.72656" x2="43" y2="13" gradientUnits="userSpaceOnUse">
<stop stop-color="var(--temp-color-icon-64-desktop-editors-7)"/>
<stop offset="1" stop-color="var(--temp-color-icon-64-desktop-editors-6)"/>
</linearGradient>
</defs>
</svg>