<svg width="64" height="64" viewBox="0 0 64 64" fill="none" xmlns="http://www.w3.org/2000/svg">
<path d="M12.5 55.5C12.5 55.6326 12.5527 55.7598 12.6464 55.8536C12.7402 55.9473 12.8674 56 13 56H51C51.2761 56 51.5 55.7761 51.5 55.5V11C51.5 10.8674 51.4473 10.7402 51.3536 10.6464L43.3536 2.64645C43.2598 2.55268 43.1326 2.5 43 2.5H13C12.7239 2.5 12.5 2.72386 12.5 3V55.5Z" fill="var(--temp-color-icon-64-docs-api-0)" stroke="var(--temp-color-icon-64-docs-api-1)" stroke-miterlimit="10" stroke-linecap="round" stroke-linejoin="round"/>
<path d="M32.5 9C32.5 8.72386 32.2761 8.5 32 8.5H19C18.7239 8.5 18.5 8.72386 18.5 9V22C18.5 22.2761 18.7239 22.5 19 22.5H32C32.2761 22.5 32.5 22.2761 32.5 22V9Z" fill="var(--temp-color-icon-64-docs-api-2)" stroke="var(--temp-color-icon-64-docs-api-1)" stroke-miterlimit="10" stroke-linecap="round" stroke-linejoin="round"/>
<path fill-rule="evenodd" clip-rule="evenodd" d="M32 22H19L23.5 17L25.5 19L29 15L32 18V22Z" fill="url(#paint0_linear_1696_7820)"/>
<path d="M22.5 14C23.3284 14 24 13.3284 24 12.5C24 11.6716 23.3284 11 22.5 11C21.6716 11 21 11.6716 21 12.5C21 13.3284 21.6716 14 22.5 14Z" fill="var(--temp-color-icon-64-docs-api-3)"/>
<path d="M51 11.5C51.2022 11.5 51.3845 11.3782 51.4619 11.1913C51.5393 11.0045 51.4966 10.7894 51.3536 10.6464L43.3536 2.64645C43.2106 2.50345 42.9955 2.46067 42.8087 2.53806C42.6218 2.61545 42.5 2.79777 42.5 3V11C42.5 11.2761 42.7239 11.5 43 11.5H51Z" fill="url(#paint1_linear_1696_7820)" stroke="var(--temp-color-icon-64-docs-api-1)" stroke-miterlimit="10" stroke-linecap="round" stroke-linejoin="round"/>
<path d="M26.5 36C26.5 35.1716 27.1716 34.5 28 34.5H57C57.8284 34.5 58.5 35.1716 58.5 36V61C58.5 61.2761 58.2761 61.5 58 61.5H27C26.7239 61.5 26.5 61.2761 26.5 61V36Z" fill="var(--temp-color-icon-64-docs-api-4)" stroke="var(--temp-color-icon-64-docs-api-1)"/>
<path d="M37 47L34 50.5L37 54" stroke="var(--temp-color-icon-64-docs-api-1)" stroke-width="2" stroke-linecap="round" stroke-linejoin="round"/>
<path d="M48 54L51 50.5L48 47" stroke="var(--temp-color-icon-64-docs-api-1)" stroke-width="2" stroke-linecap="round" stroke-linejoin="round"/>
<path d="M44 45L41 56" stroke="var(--temp-color-icon-64-docs-api-1)" stroke-width="2" stroke-linecap="round" stroke-linejoin="round"/>
<path d="M26.5 36C26.5 35.1716 27.1716 34.5 28 34.5H57C57.8284 34.5 58.5 35.1716 58.5 36V40.5H26.5V36Z" fill="url(#paint2_linear_1696_7820)" stroke="var(--temp-color-icon-64-docs-api-1)"/>
<rect x="18" y="30" width="16" height="1" rx="0.5" fill="var(--temp-color-icon-64-docs-api-1)"/>
<rect x="18" y="34" width="4" height="1" rx="0.5" fill="var(--temp-color-icon-64-docs-api-1)"/>
<rect x="18" y="26" width="28" height="1" rx="0.5" fill="var(--temp-color-icon-64-docs-api-1)"/>
<defs>
<linearGradient id="paint0_linear_1696_7820" x1="19" y1="14.7266" x2="24.7234" y2="25.7709" gradientUnits="userSpaceOnUse">
<stop stop-color="var(--temp-color-icon-64-docs-api-5)"/>
<stop offset="1" stop-color="var(--temp-color-icon-64-docs-api-3)"/>
</linearGradient>
<linearGradient id="paint1_linear_1696_7820" x1="43" y1="2.6875" x2="51" y2="11" gradientUnits="userSpaceOnUse">
<stop stop-color="var(--temp-color-icon-64-docs-api-5)"/>
<stop offset="1" stop-color="var(--temp-color-icon-64-docs-api-3)"/>
</linearGradient>
<linearGradient id="paint2_linear_1696_7820" x1="26.0001" y1="33.7266" x2="28.7458" y2="47.1763" gradientUnits="userSpaceOnUse">
<stop stop-color="var(--temp-color-icon-64-docs-api-5)"/>
<stop offset="1" stop-color="var(--temp-color-icon-64-docs-api-3)"/>
</linearGradient>
</defs>
</svg>
