<svg width="64" height="64" viewBox="0 0 64 64" fill="none" xmlns="http://www.w3.org/2000/svg">
<mask id="path-1-inside-1_1694_23816" fill="white">
<path fill-rule="evenodd" clip-rule="evenodd" d="M56 31.9145V42.0855L51.7175 43.0669L50.29 46.6357L52.6097 50.2937L45.3829 57.5204L41.6357 55.2007L38.0669 56.7175L37.0855 61H26.9145L25.9331 56.7175L22.3643 55.29L18.7063 57.6097L11.4796 50.3829L13.7993 46.6357L12.2825 43.0669L8 42.0855V31.9145L12.2825 30.9331L13.71 27.3643L11.3903 23.7063L18.6171 16.4796L22.3643 18.7993L25.9331 17.2825L26.9145 13H37.0855L38.0669 17.2825L41.6357 18.71L45.2937 16.3903L52.5204 23.6171L50.2007 27.3643L51.7175 30.9331L56 31.9145ZM32 46C36.9706 46 41 41.9706 41 37C41 32.0294 36.9706 28 32 28C27.0294 28 23 32.0294 23 37C23 41.9706 27.0294 46 32 46Z"/>
</mask>
<path fill-rule="evenodd" clip-rule="evenodd" d="M56 31.9145V42.0855L51.7175 43.0669L50.29 46.6357L52.6097 50.2937L45.3829 57.5204L41.6357 55.2007L38.0669 56.7175L37.0855 61H26.9145L25.9331 56.7175L22.3643 55.29L18.7063 57.6097L11.4796 50.3829L13.7993 46.6357L12.2825 43.0669L8 42.0855V31.9145L12.2825 30.9331L13.71 27.3643L11.3903 23.7063L18.6171 16.4796L22.3643 18.7993L25.9331 17.2825L26.9145 13H37.0855L38.0669 17.2825L41.6357 18.71L45.2937 16.3903L52.5204 23.6171L50.2007 27.3643L51.7175 30.9331L56 31.9145ZM32 46C36.9706 46 41 41.9706 41 37C41 32.0294 36.9706 28 32 28C27.0294 28 23 32.0294 23 37C23 41.9706 27.0294 46 32 46Z" fill="#D9F4FF"/>
<path d="M56 42.0855L56.2234 43.0602L57 42.8823V42.0855H56ZM56 31.9145H57V31.1177L56.2234 30.9398L56 31.9145ZM51.7175 43.0669L51.4941 42.0922L50.9835 42.2092L50.789 42.6955L51.7175 43.0669ZM50.29 46.6357L49.3615 46.2643L49.1715 46.7392L49.4454 47.1712L50.29 46.6357ZM52.6097 50.2937L53.3168 51.0008L53.8831 50.4345L53.4542 49.7581L52.6097 50.2937ZM45.3829 57.5204L44.8565 58.3707L45.53 58.7876L46.09 58.2276L45.3829 57.5204ZM41.6357 55.2007L42.162 54.3505L41.7215 54.0777L41.2445 54.2804L41.6357 55.2007ZM38.0669 56.7175L37.6758 55.7971L37.2062 55.9967L37.0922 56.4941L38.0669 56.7175ZM37.0855 61V62H37.8823L38.0602 61.2234L37.0855 61ZM26.9145 61L25.9398 61.2234L26.1177 62H26.9145V61ZM25.9331 56.7175L26.9078 56.4941L26.7908 55.9835L26.3045 55.789L25.9331 56.7175ZM22.3643 55.29L22.7357 54.3615L22.2608 54.1715L21.8288 54.4455L22.3643 55.29ZM18.7063 57.6097L17.9992 58.3168L18.5655 58.8831L19.2419 58.4542L18.7063 57.6097ZM11.4796 50.3829L10.6293 49.8565L10.2124 50.53L10.7724 51.09L11.4796 50.3829ZM13.7993 46.6357L14.6495 47.162L14.9223 46.7215L14.7196 46.2446L13.7993 46.6357ZM12.2825 43.0669L13.2029 42.6758L13.0033 42.2062L12.5059 42.0922L12.2825 43.0669ZM8 42.0855H7V42.8823L7.77662 43.0602L8 42.0855ZM8 31.9145L7.77662 30.9398L7 31.1177V31.9145H8ZM12.2825 30.9331L12.5059 31.9078L13.0165 31.7908L13.211 31.3045L12.2825 30.9331ZM13.71 27.3643L14.6385 27.7357L14.8285 27.2608L14.5545 26.8288L13.71 27.3643ZM11.3903 23.7063L10.6832 22.9992L10.1169 23.5655L10.5458 24.2419L11.3903 23.7063ZM18.6171 16.4796L19.1435 15.6293L18.47 15.2124L17.91 15.7724L18.6171 16.4796ZM22.3643 18.7993L21.838 19.6495L22.2786 19.9223L22.7555 19.7196L22.3643 18.7993ZM25.9331 17.2825L26.3242 18.2029L26.7938 18.0033L26.9078 17.5059L25.9331 17.2825ZM26.9145 13V12H26.1177L25.9398 12.7766L26.9145 13ZM37.0855 13L38.0602 12.7766L37.8823 12H37.0855V13ZM38.0669 17.2825L37.0922 17.5059L37.2092 18.0165L37.6955 18.211L38.0669 17.2825ZM41.6357 18.71L41.2643 19.6385L41.7392 19.8285L42.1712 19.5545L41.6357 18.71ZM45.2937 16.3903L46.0008 15.6832L45.4345 15.1169L44.7581 15.5458L45.2937 16.3903ZM52.5204 23.6171L53.3707 24.1435L53.7876 23.47L53.2276 22.91L52.5204 23.6171ZM50.2007 27.3643L49.3505 26.838L49.0777 27.2786L49.2804 27.7555L50.2007 27.3643ZM51.7175 30.9331L50.7971 31.3242L50.9967 31.7938L51.4941 31.9078L51.7175 30.9331ZM57 42.0855V31.9145H55V42.0855H57ZM51.9409 44.0416L56.2234 43.0602L55.7766 41.1108L51.4941 42.0922L51.9409 44.0416ZM51.2184 47.0071L52.646 43.4383L50.789 42.6955L49.3615 46.2643L51.2184 47.0071ZM53.4542 49.7581L51.1345 46.1002L49.4454 47.1712L51.7652 50.8292L53.4542 49.7581ZM46.09 58.2276L53.3168 51.0008L51.9026 49.5866L44.6758 56.8133L46.09 58.2276ZM41.1093 56.051L44.8565 58.3707L45.9093 56.6702L42.162 54.3505L41.1093 56.051ZM38.4581 57.6378L42.0268 56.1211L41.2445 54.2804L37.6758 55.7971L38.4581 57.6378ZM38.0602 61.2234L39.0416 56.9408L37.0922 56.4941L36.1108 60.7766L38.0602 61.2234ZM26.9145 62H37.0855V60H26.9145V62ZM24.9584 56.9408L25.9398 61.2234L27.8892 60.7766L26.9078 56.4941L24.9584 56.9408ZM21.9929 56.2184L25.5617 57.646L26.3045 55.789L22.7357 54.3615L21.9929 56.2184ZM19.2419 58.4542L22.8999 56.1345L21.8288 54.4455L18.1708 56.7652L19.2419 58.4542ZM10.7724 51.09L17.9992 58.3168L19.4134 56.9026L12.1867 49.6758L10.7724 51.09ZM12.949 46.1093L10.6293 49.8565L12.3298 50.9093L14.6495 47.162L12.949 46.1093ZM11.3622 43.4581L12.8789 47.0268L14.7196 46.2446L13.2029 42.6758L11.3622 43.4581ZM7.77662 43.0602L12.0592 44.0416L12.5059 42.0922L8.22338 41.1108L7.77662 43.0602ZM7 31.9145V42.0855H9V31.9145H7ZM12.0592 29.9584L7.77662 30.9398L8.22338 32.8892L12.5059 31.9078L12.0592 29.9584ZM12.7816 26.9929L11.3541 30.5617L13.211 31.3045L14.6385 27.7357L12.7816 26.9929ZM10.5458 24.2419L12.8655 27.8999L14.5545 26.8288L12.2348 23.1708L10.5458 24.2419ZM17.91 15.7724L10.6832 22.9992L12.0974 24.4134L19.3242 17.1867L17.91 15.7724ZM22.8907 17.949L19.1435 15.6293L18.0907 17.3298L21.838 19.6495L22.8907 17.949ZM25.5419 16.3622L21.9732 17.8789L22.7555 19.7196L26.3242 18.2029L25.5419 16.3622ZM25.9398 12.7766L24.9584 17.0592L26.9078 17.5059L27.8892 13.2234L25.9398 12.7766ZM37.0855 12H26.9145V14H37.0855V12ZM39.0416 17.0592L38.0602 12.7766L36.1108 13.2234L37.0922 17.5059L39.0416 17.0592ZM42.0071 17.7816L38.4383 16.3541L37.6955 18.211L41.2643 19.6385L42.0071 17.7816ZM44.7581 15.5458L41.1001 17.8655L42.1712 19.5545L45.8292 17.2348L44.7581 15.5458ZM53.2276 22.91L46.0008 15.6832L44.5866 17.0974L51.8133 24.3242L53.2276 22.91ZM51.051 27.8907L53.3707 24.1435L51.6702 23.0907L49.3505 26.838L51.051 27.8907ZM52.6378 30.5419L51.1211 26.9732L49.2804 27.7555L50.7971 31.3242L52.6378 30.5419ZM56.2234 30.9398L51.9409 29.9584L51.4941 31.9078L55.7766 32.8892L56.2234 30.9398ZM40 37C40 41.4183 36.4183 45 32 45V47C37.5228 47 42 42.5228 42 37H40ZM32 29C36.4183 29 40 32.5817 40 37H42C42 31.4772 37.5228 27 32 27V29ZM24 37C24 32.5817 27.5817 29 32 29V27C26.4772 27 22 31.4772 22 37H24ZM32 45C27.5817 45 24 41.4183 24 37H22C22 42.5228 26.4772 47 32 47V45Z" fill="#333333" mask="url(#path-1-inside-1_1694_23816)"/>
<path d="M51.9095 36.5396H16.429C9.37547 36.5396 3.62903 31.0032 3.62903 24.1392C3.62903 17.3008 9.33277 11.78 16.3503 11.739C18.7555 6.71764 23.9543 3.5 29.6758 3.5C35.4023 3.5 40.6052 6.72323 43.0076 11.7521C47.2485 11.9573 51.0305 14.4342 52.8017 18.1869C57.7578 18.6356 61.5558 22.7465 61.3985 27.63C61.2381 32.6116 57.0217 36.5423 51.9095 36.5396ZM51.9095 36.5396L51.9098 36.0396M51.9095 36.5396L51.9098 36.0396M51.9095 36.5396H51.9098V36.0396M51.9095 36.5396L51.9098 36.0396" fill="url(#paint0_linear_1694_23816)" stroke="#333333"/>
<path fill-rule="evenodd" clip-rule="evenodd" d="M24.3989 29.3159C24.5393 29.7244 24.9338 30 25.3782 30C25.71 29.9995 26.0214 29.8448 26.2153 29.584C26.4092 29.3233 26.4621 28.9882 26.3575 28.6832L22.2313 16.6921C22.2272 16.6799 22.2228 16.6677 22.2183 16.6557C22.1635 16.5111 22.0776 16.3857 21.9704 16.2845C21.8763 16.1954 21.7632 16.1226 21.6346 16.0726C21.5134 16.0253 21.3827 16 21.2491 16C21.1156 16 20.9848 16.0253 20.8637 16.0726C20.7354 16.1224 20.6226 16.195 20.5287 16.2837C20.4211 16.3851 20.3349 16.5107 20.28 16.6557C20.2754 16.6677 20.2711 16.6799 20.267 16.6922L16.1407 28.6832C16.0361 28.9882 16.089 29.3233 16.283 29.5841C16.4769 29.8448 16.7883 29.9995 17.1201 30C17.5645 30 17.959 29.7244 18.0994 29.3159L19.5845 25H22.9137L24.3989 29.3159ZM22.2255 23H20.2727L21.2491 20.1625L22.2255 23ZM27.4428 28.9997C27.4428 29.5519 27.9049 29.9996 28.475 29.9996C29.0451 29.9996 29.5073 29.5519 29.5073 28.9997V24H32.6041C34.8845 24 36.7332 22.2092 36.7332 20.0002C36.7332 17.7912 34.8845 16.0005 32.6041 16.0005H28.475C27.9049 16.0005 27.4428 16.4482 27.4428 17.0004V23.0001V28.9997ZM32.6041 22.0001H29.5073V18.0004H32.6041C33.7443 18.0004 34.6686 18.8957 34.6686 20.0002C34.6686 21.1047 33.7443 22.0001 32.6041 22.0001ZM39.8299 27.9998V18.0004H37.7653C37.1952 18.0004 36.7331 17.5527 36.7331 17.0004C36.7331 16.4482 37.1952 16.0005 37.7653 16.0005H40.8622H43.9589C44.529 16.0005 44.9912 16.4482 44.9912 17.0004C44.9912 17.5527 44.529 18.0004 43.9589 18.0004H41.8945V27.9998H43.959C44.5291 27.9998 44.9913 28.4475 44.9913 28.9997C44.9913 29.552 44.5291 29.9997 43.959 29.9997H37.7654C37.1953 29.9997 36.7332 29.552 36.7332 28.9997C36.7332 28.4475 37.1953 27.9998 37.7654 27.9998H39.8299Z" fill="white"/>
<defs>
<linearGradient id="paint0_linear_1694_23816" x1="4.12914" y1="2.74845" x2="31.024" y2="52.2677" gradientUnits="userSpaceOnUse">
<stop stop-color="#FFC671"/>
<stop offset="0.59375" stop-color="#FF7541"/>
<stop offset="1" stop-color="#FF6F3D"/>
</linearGradient>
</defs>
</svg>
