<svg width="64" height="64" viewBox="0 0 64 64" fill="none" xmlns="http://www.w3.org/2000/svg">
<path d="M51.5 58.5H7.5C5.8 58.5 4.5 57.2 4.5 55.5V24.5C4.5 22.8 5.8 21.5 7.5 21.5H51.5C53.2 21.5 54.5 22.8 54.5 24.5V55.5C54.5 57.2 53.2 58.5 51.5 58.5Z" fill="white" stroke="#333333" stroke-miterlimit="10" stroke-linecap="round" stroke-linejoin="round"/>
<path d="M54.5 28.5H4.5V24.5C4.5 22.8 5.8 21.5 7.5 21.5H51.5C53.2 21.5 54.5 22.8 54.5 24.5V28.5Z" fill="#EFEFEF" stroke="#333333" stroke-miterlimit="10" stroke-linecap="round" stroke-linejoin="round"/>
<path d="M9 26C9.55228 26 10 25.5523 10 25C10 24.4477 9.55228 24 9 24C8.44772 24 8 24.4477 8 25C8 25.5523 8.44772 26 9 26Z" fill="#333333"/>
<path d="M13 26C13.5523 26 14 25.5523 14 25C14 24.4477 13.5523 24 13 24C12.4477 24 12 24.4477 12 25C12 25.5523 12.4477 26 13 26Z" fill="#333333"/>
<path d="M17 26C17.5523 26 18 25.5523 18 25C18 24.4477 17.5523 24 17 24C16.4477 24 16 24.4477 16 25C16 25.5523 16.4477 26 17 26Z" fill="#333333"/>
<path d="M21 21.4L29 15.4L37 21.4" stroke="#333333" stroke-miterlimit="10" stroke-linecap="round" stroke-linejoin="round"/>
<path d="M57.5 40.5H29.5V60.5H57.5V40.5Z" fill="white" stroke="#333333" stroke-miterlimit="10" stroke-linecap="round" stroke-linejoin="round" stroke-dasharray="2 2"/>
<path d="M29.5 42C30.3284 42 31 41.3284 31 40.5C31 39.6716 30.3284 39 29.5 39C28.6716 39 28 39.6716 28 40.5C28 41.3284 28.6716 42 29.5 42Z" fill="#333333"/>
<path d="M57.5 42C58.3284 42 59 41.3284 59 40.5C59 39.6716 58.3284 39 57.5 39C56.6716 39 56 39.6716 56 40.5C56 41.3284 56.6716 42 57.5 42Z" fill="#333333"/>
<path d="M29.5 62C30.3284 62 31 61.3284 31 60.5C31 59.6716 30.3284 59 29.5 59C28.6716 59 28 59.6716 28 60.5C28 61.3284 28.6716 62 29.5 62Z" fill="#333333"/>
<path d="M57.5 62C58.3284 62 59 61.3284 59 60.5C59 59.6716 58.3284 59 57.5 59C56.6716 59 56 59.6716 56 60.5C56 61.3284 56.6716 62 57.5 62Z" fill="#333333"/>
<path d="M44.8 55L40.1 50L34 56.3C34 57.2 34.8 58 35.7 58H51.4C53.1 58 53.1 57.3 53.1 56.3L48.1 51.6L44.8 55Z" fill="url(#paint0_linear_1696_7945)"/>
<path d="M45.5 50C46.3284 50 47 49.3284 47 48.5C47 47.6716 46.3284 47 45.5 47C44.6716 47 44 47.6716 44 48.5C44 49.3284 44.6716 50 45.5 50Z" fill="url(#paint1_linear_1696_7945)"/>
<path d="M51.6095 45.5H35.291C34.296 45.5 33.5 46.2934 33.5 47.2851V55.7149C33.5 56.7066 34.296 57.5 35.291 57.5H51.709C52.704 57.5 53.5 56.7066 53.5 55.7149V47.2851C53.4005 46.2934 52.6045 45.5 51.6095 45.5Z" stroke="#333333" stroke-miterlimit="10" stroke-linecap="round" stroke-linejoin="round"/>
<path d="M31 12V9.39999H28C28 9.39999 28 11.5 28 12.4C28.5865 12.4 30.1 12.9 30.1 14.4C30.1 15.5 29.2 16.4 28.1 16.4C27.1 16.4 26.3 15.7 26.1 14.7C26.1 14.8 26.1 15 26.1 15.1C26.1 16.9 27.6 18.4 29.4 18.4C31.2 18.4 33 16.9 33 14.9C33 12.4 31 12 31 12Z" stroke="#333333" stroke-miterlimit="10" stroke-linecap="round" stroke-linejoin="round"/>
<path d="M32.5 7.4L31 9.5H28L26.5 7.5V1.5H32.5V7.4Z" stroke="#333333" stroke-miterlimit="10" stroke-linecap="round" stroke-linejoin="round"/>
<path d="M49.5 33H9.5C9.2 33 9 32.8 9 32.5C9 32.2 9.2 32 9.5 32H49.5C49.8 32 50 32.2 50 32.5C50 32.8 49.8 33 49.5 33Z" fill="#333333"/>
<path d="M49.5 37H9.5C9.2 37 9 36.8 9 36.5C9 36.2 9.2 36 9.5 36H49.5C49.8 36 50 36.2 50 36.5C50 36.8 49.8 37 49.5 37Z" fill="#333333"/>
<path d="M21.5 41H9.5C9.2 41 9 40.8 9 40.5C9 40.2 9.2 40 9.5 40H21.5C21.8 40 22 40.2 22 40.5C22 40.8 21.8 41 21.5 41Z" fill="#333333"/>
<path d="M21.5 45H9.5C9.2 45 9 44.8 9 44.5C9 44.2 9.2 44 9.5 44H21.5C21.8 44 22 44.2 22 44.5C22 44.8 21.8 45 21.5 45Z" fill="#333333"/>
<path d="M21.5 49H9.5C9.2 49 9 48.8 9 48.5C9 48.2 9.2 48 9.5 48H21.5C21.8 48 22 48.2 22 48.5C22 48.8 21.8 49 21.5 49Z" fill="#333333"/>
<path d="M21.5 53H9.5C9.2 53 9 52.8 9 52.5C9 52.2 9.2 52 9.5 52H21.5C21.8 52 22 52.2 22 52.5C22 52.8 21.8 53 21.5 53Z" fill="#333333"/>
<defs>
<linearGradient id="paint0_linear_1696_7945" x1="34.0622" y1="54.0408" x2="53.3" y2="54.0408" gradientUnits="userSpaceOnUse">
<stop stop-color="#FF8E3D"/>
<stop offset="1" stop-color="#FF6F3D"/>
</linearGradient>
<linearGradient id="paint1_linear_1696_7945" x1="44" y1="48.5408" x2="47" y2="48.5408" gradientUnits="userSpaceOnUse">
<stop stop-color="#FF8E3D"/>
<stop offset="1" stop-color="#FF6F3D"/>
</linearGradient>
</defs>
</svg>
