<svg width="64" height="64" viewBox="0 0 64 64" fill="none" xmlns="http://www.w3.org/2000/svg">
<rect x="1.5" y="7.5" width="55" height="37" rx="1.5" fill="#F5F5F5" stroke="#333333"/>
<rect x="6" y="12" width="46" height="1" rx="0.5" fill="#333333"/>
<path d="M20.7014 28.299C20.7312 28.8159 20.8353 29.2928 21.014 29.7297C21.2 30.1593 21.4419 30.5306 21.7395 30.8437C22.0447 31.1568 22.3981 31.4007 22.8 31.5754C23.2019 31.7429 23.6447 31.8266 24.1284 31.8266C24.5526 31.8266 24.9581 31.7829 25.3451 31.6956C25.7321 31.6082 26.0744 31.4699 26.3721 31.2805C26.6698 31.084 26.9079 30.8291 27.0865 30.516C27.2651 30.1957 27.3544 29.8061 27.3544 29.3474C27.3544 28.9324 27.2242 28.5829 26.9637 28.299C26.7107 28.015 26.3758 27.7711 25.9591 27.5672C25.5423 27.3561 25.066 27.1668 24.5302 26.9993C23.9944 26.8246 23.4474 26.6462 22.8893 26.4642C22.3386 26.2821 21.7953 26.0783 21.2595 25.8526C20.7237 25.6196 20.2474 25.3356 19.8307 25.0007C19.414 24.6658 19.0753 24.2653 18.8149 23.7993C18.5619 23.3333 18.4353 22.7727 18.4353 22.1174C18.4353 21.4476 18.5693 20.8578 18.8372 20.3481C19.1051 19.8312 19.4809 19.4016 19.9647 19.0594C20.4558 18.7099 21.0363 18.4478 21.706 18.273C22.3758 18.091 23.1126 18 23.9163 18C24.6307 18 25.2633 18.0728 25.814 18.2184C26.3647 18.3568 26.8447 18.5461 27.254 18.7863C27.6707 19.0266 28.0205 19.3106 28.3033 19.6382C28.586 19.9659 28.8167 20.3154 28.9953 20.6867C29.1814 21.0507 29.3191 21.433 29.4084 21.8334C29.4977 22.2266 29.5572 22.6125 29.587 22.9911H26.9191C26.8744 22.5033 26.7628 22.081 26.5842 21.7242C26.413 21.3675 26.1935 21.0726 25.9256 20.8396C25.6651 20.6066 25.36 20.4355 25.0102 20.3263C24.6679 20.2098 24.3033 20.1515 23.9163 20.1515C23.5665 20.1515 23.2205 20.1879 22.8781 20.2608C22.5433 20.3263 22.2419 20.4355 21.974 20.5884C21.706 20.7413 21.4902 20.9452 21.3265 21.2C21.1628 21.4476 21.0809 21.7534 21.0809 22.1174C21.0809 22.5397 21.2074 22.8965 21.4605 23.1877C21.7209 23.4717 22.0595 23.7229 22.4763 23.9413C22.893 24.1597 23.3693 24.3563 23.9051 24.5311C24.4409 24.6985 24.9842 24.8769 25.5349 25.0662C26.093 25.2482 26.64 25.4557 27.1758 25.6887C27.7116 25.9144 28.1879 26.1911 28.6047 26.5188C29.0214 26.8464 29.3563 27.2396 29.6093 27.6983C29.8698 28.157 30 28.7067 30 29.3474C30 30.1192 29.8512 30.7964 29.5535 31.3788C29.2633 31.954 28.8577 32.4382 28.3367 32.8314C27.8158 33.2173 27.1944 33.5085 26.4726 33.7051C25.7581 33.9017 24.9767 34 24.1284 34C23.3619 34 22.614 33.8689 21.8847 33.6068C21.1628 33.3447 20.5153 32.9697 19.9423 32.4819C19.3767 31.9868 18.9153 31.3861 18.5581 30.6799C18.2084 29.9736 18.0223 29.18 18 28.299H20.7014Z" fill="#333333"/>
<path d="M16 18V29.2559C16 30.0988 15.8625 30.8224 15.5874 31.4266C15.3204 32.0233 14.9563 32.5119 14.4951 32.8923C14.034 33.2727 13.5 33.5524 12.8932 33.7315C12.2864 33.9105 11.6472 34 10.9757 34C10.3366 34 9.71764 33.9068 9.11893 33.7203C8.52023 33.5413 7.99029 33.2727 7.52913 32.9147C7.06796 32.5492 6.69579 32.0979 6.41262 31.5608C6.13754 31.0238 6 30.4009 6 29.6923V28.1818H8.88835V29.6699C8.88835 30.028 8.94903 30.3413 9.07039 30.6098C9.19984 30.8709 9.3657 31.0909 9.56796 31.2699C9.77832 31.4415 10.0089 31.5683 10.2597 31.6503C10.5105 31.7324 10.7654 31.7734 11.0243 31.7734C11.2265 31.7734 11.449 31.7436 11.6917 31.6839C11.9345 31.6168 12.161 31.5049 12.3714 31.3483C12.5898 31.1841 12.7718 30.9678 12.9175 30.6993C13.0631 30.4233 13.1359 30.0802 13.1359 29.6699V18H16Z" fill="#333333"/>
<rect x="31.5" y="35.5" width="30" height="21" rx="1.5" fill="url(#paint0_linear_1694_23817)" stroke="#333333"/>
<path d="M41 43L38 46.5L41 50" stroke="white" stroke-width="2" stroke-linecap="round" stroke-linejoin="round"/>
<path d="M52 50L55 46.5L52 43" stroke="white" stroke-width="2" stroke-linecap="round" stroke-linejoin="round"/>
<path d="M48 41L45 52" stroke="white" stroke-width="2" stroke-linecap="round" stroke-linejoin="round"/>
<defs>
<linearGradient id="paint0_linear_1694_23817" x1="46.5" y1="36" x2="46.5" y2="56" gradientUnits="userSpaceOnUse">
<stop stop-color="#FF8E3D"/>
<stop offset="1" stop-color="#FF6F3D"/>
</linearGradient>
</defs>
</svg>
