<svg width="64" height="64" viewBox="0 0 64 64" fill="none" xmlns="http://www.w3.org/2000/svg">
<path d="M32.5 63L10.5 50.5V36L32.5 48.5V63Z" fill="var(--temp-color-icon-64-plugins-0)" stroke="var(--temp-color-icon-64-plugins-1)" stroke-miterlimit="10" stroke-linecap="round" stroke-linejoin="round"/>
<path d="M32.5 63L54.5 50.5V36L32.5 48.5V63Z" fill="var(--temp-color-icon-64-plugins-0)" stroke="var(--temp-color-icon-64-plugins-1)" stroke-miterlimit="10" stroke-linecap="round" stroke-linejoin="round"/>
<path d="M32.5 23L10.5 36L32.5 48.5L54.5 36L32.5 23Z" fill="var(--temp-color-icon-64-plugins-2)" stroke="var(--temp-color-icon-64-plugins-1)" stroke-linejoin="round"/>
<path d="M32.5 43L10.5 30.5V16L32.5 28.5V43Z" fill="var(--temp-color-icon-64-plugins-3)" stroke="var(--temp-color-icon-64-plugins-1)" stroke-miterlimit="10" stroke-linecap="round" stroke-linejoin="round"/>
<path d="M32.5 43L54.5 30.5V16L32.5 28.5V43Z" fill="var(--temp-color-icon-64-plugins-3)" stroke="var(--temp-color-icon-64-plugins-1)" stroke-miterlimit="10" stroke-linecap="round" stroke-linejoin="round"/>
<path d="M30.9738 3.90184L10.5 16L32.5 28.5L54.5 16L34.0262 3.90184C33.0848 3.34554 31.9152 3.34554 30.9738 3.90184Z" fill="var(--temp-color-icon-64-plugins-3)" stroke="var(--temp-color-icon-64-plugins-1)" stroke-linejoin="round"/>
<path d="M28 5.5C27.7239 5.5 27.5 5.72386 27.5 6V9.57143C27.5 9.99905 27.7745 10.3165 28.0558 10.5266C28.3465 10.7439 28.7353 10.9187 29.1706 11.0569C30.047 11.3351 31.2253 11.5 32.5 11.5C33.7747 11.5 34.953 11.3351 35.8294 11.0569C36.2647 10.9187 36.6535 10.7439 36.9442 10.5266C37.2255 10.3165 37.5 9.99905 37.5 9.57143V6C37.5 5.72386 37.2761 5.5 37 5.5H28Z" fill="var(--temp-color-icon-64-plugins-4)" stroke="var(--temp-color-icon-64-plugins-1)" stroke-miterlimit="10" stroke-linecap="round" stroke-linejoin="round"/>
<path d="M15 11.5C14.7239 11.5 14.5 11.7239 14.5 12V15.5714C14.5 15.9991 14.7745 16.3165 15.0558 16.5266C15.3465 16.7439 15.7353 16.9187 16.1706 17.0569C17.047 17.3351 18.2253 17.5 19.5 17.5C20.7747 17.5 21.953 17.3351 22.8294 17.0569C23.2647 16.9187 23.6535 16.7439 23.9442 16.5266C24.2255 16.3165 24.5 15.9991 24.5 15.5714V12C24.5 11.7239 24.2761 11.5 24 11.5H15Z" fill="var(--temp-color-icon-64-plugins-4)" stroke="var(--temp-color-icon-64-plugins-1)" stroke-miterlimit="10" stroke-linecap="round" stroke-linejoin="round"/>
<path d="M40 11.5C39.7239 11.5 39.5 11.7239 39.5 12V15.5714C39.5 15.9991 39.7745 16.3165 40.0558 16.5266C40.3465 16.7439 40.7353 16.9187 41.1706 17.0569C42.047 17.3351 43.2253 17.5 44.5 17.5C45.7747 17.5 46.953 17.3351 47.8294 17.0569C48.2647 16.9187 48.6535 16.7439 48.9442 16.5266C49.2255 16.3165 49.5 15.9991 49.5 15.5714V12C49.5 11.7239 49.2761 11.5 49 11.5H40Z" fill="var(--temp-color-icon-64-plugins-4)" stroke="var(--temp-color-icon-64-plugins-1)" stroke-miterlimit="10" stroke-linecap="round" stroke-linejoin="round"/>
<path d="M28 17.5C27.7239 17.5 27.5 17.7239 27.5 18V21.5714C27.5 21.9991 27.7745 22.3165 28.0558 22.5266C28.3465 22.7439 28.7353 22.9187 29.1706 23.0569C30.047 23.3351 31.2253 23.5 32.5 23.5C33.7747 23.5 34.953 23.3351 35.8294 23.0569C36.2647 22.9187 36.6535 22.7439 36.9442 22.5266C37.2255 22.3165 37.5 21.9991 37.5 21.5714V18C37.5 17.7239 37.2761 17.5 37 17.5H28Z" fill="var(--temp-color-icon-64-plugins-4)" stroke="var(--temp-color-icon-64-plugins-1)" stroke-miterlimit="10" stroke-linecap="round" stroke-linejoin="round"/>
<path d="M32.5 7.5C33.7814 7.5 34.9623 7.3276 35.8401 7.035C36.2764 6.88957 36.6655 6.70538 36.9559 6.47657C37.2406 6.25221 37.5 5.92597 37.5 5.5C37.5 5.07403 37.2406 4.74779 36.9559 4.52343C36.6655 4.29462 36.2764 4.11043 35.8401 3.965C34.9623 3.6724 33.7814 3.5 32.5 3.5C31.2186 3.5 30.0377 3.6724 29.1599 3.965C28.7236 4.11043 28.3345 4.29462 28.0441 4.52343C27.7594 4.74779 27.5 5.07403 27.5 5.5C27.5 5.92597 27.7594 6.25221 28.0441 6.47657C28.3345 6.70538 28.7236 6.88957 29.1599 7.035C30.0377 7.3276 31.2186 7.5 32.5 7.5Z" fill="var(--temp-color-icon-64-plugins-5)" stroke="var(--temp-color-icon-64-plugins-1)" stroke-miterlimit="10" stroke-linecap="round" stroke-linejoin="round"/>
<path d="M19.5 13.5C20.7814 13.5 21.9623 13.3276 22.8401 13.035C23.2764 12.8896 23.6655 12.7054 23.9559 12.4766C24.2406 12.2522 24.5 11.926 24.5 11.5C24.5 11.074 24.2406 10.7478 23.9559 10.5234C23.6655 10.2946 23.2764 10.1104 22.8401 9.965C21.9623 9.6724 20.7814 9.5 19.5 9.5C18.2186 9.5 17.0377 9.6724 16.1599 9.965C15.7236 10.1104 15.3345 10.2946 15.0441 10.5234C14.7594 10.7478 14.5 11.074 14.5 11.5C14.5 11.926 14.7594 12.2522 15.0441 12.4766C15.3345 12.7054 15.7236 12.8896 16.1599 13.035C17.0377 13.3276 18.2186 13.5 19.5 13.5Z" fill="var(--temp-color-icon-64-plugins-5)" stroke="var(--temp-color-icon-64-plugins-1)" stroke-miterlimit="10" stroke-linecap="round" stroke-linejoin="round"/>
<path d="M44.5 13.5C45.7814 13.5 46.9623 13.3276 47.8401 13.035C48.2764 12.8896 48.6655 12.7054 48.9559 12.4766C49.2406 12.2522 49.5 11.926 49.5 11.5C49.5 11.074 49.2406 10.7478 48.9559 10.5234C48.6655 10.2946 48.2764 10.1104 47.8401 9.965C46.9623 9.6724 45.7814 9.5 44.5 9.5C43.2186 9.5 42.0377 9.6724 41.1599 9.965C40.7236 10.1104 40.3345 10.2946 40.0441 10.5234C39.7594 10.7478 39.5 11.074 39.5 11.5C39.5 11.926 39.7594 12.2522 40.0441 12.4766C40.3345 12.7054 40.7236 12.8896 41.1599 13.035C42.0377 13.3276 43.2186 13.5 44.5 13.5Z" fill="var(--temp-color-icon-64-plugins-5)" stroke="var(--temp-color-icon-64-plugins-1)" stroke-miterlimit="10" stroke-linecap="round" stroke-linejoin="round"/>
<path d="M32.5 19.5C33.7814 19.5 34.9623 19.3276 35.8401 19.035C36.2764 18.8896 36.6655 18.7054 36.9559 18.4766C37.2406 18.2522 37.5 17.926 37.5 17.5C37.5 17.074 37.2406 16.7478 36.9559 16.5234C36.6655 16.2946 36.2764 16.1104 35.8401 15.965C34.9623 15.6724 33.7814 15.5 32.5 15.5C31.2186 15.5 30.0377 15.6724 29.1599 15.965C28.7236 16.1104 28.3345 16.2946 28.0441 16.5234C27.7594 16.7478 27.5 17.074 27.5 17.5C27.5 17.926 27.7594 18.2522 28.0441 18.4766C28.3345 18.7054 28.7236 18.8896 29.1599 19.035C30.0377 19.3276 31.2186 19.5 32.5 19.5Z" fill="var(--temp-color-icon-64-plugins-5)" stroke="var(--temp-color-icon-64-plugins-1)" stroke-miterlimit="10" stroke-linecap="round" stroke-linejoin="round"/>
</svg>
