<svg width="64" height="64" viewBox="0 0 64 64" fill="none" xmlns="http://www.w3.org/2000/svg">
<path d="M38 23.6022V16.3978L34.9665 15.7026L33.8922 13.1747L35.5353 10.5204L30.4164 5.40149L27.8253 7.04461L25.2974 6.03346L24.6022 3H17.3978L16.7026 6.03346L14.1747 7.10781L11.5204 5.46468L6.40149 10.5836L8.04461 13.1747L7.03346 15.7026L4 16.3978V23.6022L7.03346 24.2974L8.10781 26.8253L6.46468 29.4796L11.5836 34.5985L14.1747 32.9554L16.7026 33.9665L17.3978 37H24.6022L25.2974 33.9665L27.8253 32.8922L30.4796 34.5353L35.5985 29.4164L33.9554 26.8253L34.9665 24.2974L38 23.6022ZM21 26.5093C17.3978 26.5093 14.4907 23.6022 14.4907 20C14.4907 16.3978 17.3978 13.4907 21 13.4907C24.6022 13.4907 27.5093 16.3978 27.5093 20C27.5093 23.6022 24.6022 26.5093 21 26.5093Z" fill="var(--temp-color-icon-64-workspace-api-0)" stroke="var(--temp-color-icon-64-workspace-api-1)" stroke-miterlimit="10"/>
<path d="M59 48.3606V42.6394L56.5911 42.0874L55.7379 40.0799L57.0428 37.9721L52.9777 33.9071L50.9201 35.2119L48.9126 34.4089L48.3606 32H42.6394L42.0874 34.4089L40.0799 35.2621L37.9721 33.9572L33.9071 38.0223L35.2119 40.0799L34.4089 42.0874L32 42.6394V48.3606L34.4089 48.9126L35.2621 50.9201L33.9572 53.0279L38.0223 57.0929L40.0799 55.7881L42.0874 56.5911L42.6394 59H48.3606L48.9126 56.5911L50.9201 55.7379L53.0279 57.0428L57.0929 52.9777L55.7881 50.9201L56.5911 48.9126L59 48.3606ZM45.5 50.6691C42.6394 50.6691 40.3309 48.3606 40.3309 45.5C40.3309 42.6394 42.6394 40.3309 45.5 40.3309C48.3606 40.3309 50.6691 42.6394 50.6691 45.5C50.6691 48.3606 48.3606 50.6691 45.5 50.6691Z" fill="var(--temp-color-icon-64-workspace-api-2)" stroke="var(--temp-color-icon-64-workspace-api-1)" stroke-miterlimit="10"/>
<path d="M32.5 18.5L21.5 25L32.5 31.5L43.5 25L32.5 18.5Z" fill="url(#paint0_linear_2444_6790)" stroke="var(--temp-color-icon-64-workspace-api-1)" stroke-linejoin="round"/>
<path d="M32.5 45L21.5 38.5V25L32.5 31.5V45Z" fill="url(#paint1_linear_2444_6790)" stroke="var(--temp-color-icon-64-workspace-api-1)" stroke-miterlimit="10" stroke-linecap="round" stroke-linejoin="round"/>
<path d="M32.5 45L43.5 38.5V25L32.5 31.5V45Z" fill="url(#paint2_linear_2444_6790)" stroke="var(--temp-color-icon-64-workspace-api-1)" stroke-miterlimit="10" stroke-linecap="round" stroke-linejoin="round"/>
<defs>
<linearGradient id="paint0_linear_2444_6790" x1="21.5" y1="17.9922" x2="32.6809" y2="37.6528" gradientUnits="userSpaceOnUse">
<stop stop-color="var(--temp-color-icon-64-workspace-api-3)"/>
<stop offset="0.59375" stop-color="var(--temp-color-icon-64-workspace-api-4)"/>
<stop offset="1" stop-color="var(--temp-color-icon-64-workspace-api-5)"/>
</linearGradient>
<linearGradient id="paint1_linear_2444_6790" x1="21.5" y1="24.2187" x2="38.7443" y2="34.0736" gradientUnits="userSpaceOnUse">
<stop stop-color="var(--temp-color-icon-64-workspace-api-3)"/>
<stop offset="0.59375" stop-color="var(--temp-color-icon-64-workspace-api-4)"/>
<stop offset="1" stop-color="#FF6F3D"/>
</linearGradient>
<linearGradient id="paint2_linear_2444_6790" x1="43.5" y1="24.2187" x2="26.2557" y2="34.0736" gradientUnits="userSpaceOnUse">
<stop stop-color="var(--temp-color-icon-64-workspace-api-3)"/>
<stop offset="0.59375" stop-color="var(--temp-color-icon-64-workspace-api-4)"/>
<stop offset="1" stop-color="#FF6F3D"/>
</linearGradient>
</defs>
</svg>
