<svg width="24" height="24" viewBox="0 0 24 24" fill="none" xmlns="http://www.w3.org/2000/svg">
<path fill-rule="evenodd" clip-rule="evenodd" d="M3 12C3 7.0275 7.0275 3 12 3C16.9725 3 21 7.0275 21 12C21 16.9725 16.9725 21 12 21C7.0275 21 3 16.9725 3 12ZM8.46424 9.87868C8.07372 9.48816 8.07372 8.85499 8.46424 8.46447C8.85477 8.07394 9.48793 8.07394 9.87846 8.46447L11.9998 10.5858L14.1211 8.46447C14.5116 8.07394 15.1448 8.07394 15.5353 8.46447C15.9258 8.85499 15.9258 9.48816 15.5353 9.87868L13.414 12L15.5353 14.1213C15.9258 14.5118 15.9258 15.145 15.5353 15.5355C15.1448 15.9261 14.5116 15.9261 14.1211 15.5355L11.9998 13.4142L9.87846 15.5355C9.48793 15.9261 8.85477 15.9261 8.46424 15.5355C8.07372 15.145 8.07372 14.5118 8.46424 14.1213L10.5856 12L8.46424 9.87868Z" fill="currentColor"/>
</svg>
