<svg width="24" height="24" viewBox="0 0 24 24" fill="none" xmlns="http://www.w3.org/2000/svg">
<path fill-rule="evenodd" clip-rule="evenodd" d="M18.3536 8.14645C18.5488 8.34171 18.5488 8.65829 18.3536 8.85355L12.5 14.7071L9.64645 11.8536C9.45118 11.6583 9.45118 11.3417 9.64645 11.1464C9.84171 10.9512 10.1583 10.9512 10.3536 11.1464L12.5 13.2929L17.6464 8.14645C17.8417 7.95118 18.1583 7.95118 18.3536 8.14645Z" fill="#8BB825"/>
<path fill-rule="evenodd" clip-rule="evenodd" d="M17.5 15C17.2239 15 17 14.7761 17 14.5V12L18 11V14.5C18 14.7761 17.7761 15 17.5 15ZM17.5001 6.9999C17.044 6.39273 16.3179 6 15.5 6H9.5C9.22386 6 9 6.22386 9 6.5C9 6.77614 9.22386 7 9.5 7H15.5C16.0423 7 16.5175 7.28783 16.7809 7.71907L17.5001 6.9999ZM15.6421 8.85793C15.2807 8.33935 14.68 8 14 8H8C6.89543 8 6 8.89543 6 10V16C6 17.1046 6.89543 18 8 18H14C15.1046 18 16 17.1046 16 16V13L15 14V16C15 16.5523 14.5523 17 14 17H8C7.44772 17 7 16.5523 7 16V10C7 9.44772 7.44772 9 8 9H14C14.4056 9 14.7547 9.24142 14.9116 9.58838L15.6421 8.85793Z" fill="#8BB825"/>
</svg>
