<svg width="24" height="24" viewBox="0 0 24 24" fill="none" xmlns="http://www.w3.org/2000/svg">
<path fill-rule="evenodd" clip-rule="evenodd" d="M5.29437 5.29444C4.90385 5.68496 4.90017 6.3218 5.29069 6.71233L10.5783 12L10.5784 12L5.29078 17.2876C4.90025 17.6781 4.90394 18.315 5.29446 18.7055C5.68498 19.096 6.32183 19.0997 6.71235 18.7092L12 13.4216L17.2876 18.7092C17.6781 19.0997 18.3149 19.096 18.7055 18.7055C19.096 18.315 19.0997 17.6781 18.7091 17.2876L13.4215 12L13.4216 12L18.7092 6.71233C19.0997 6.3218 19.0961 5.68496 18.7055 5.29444C18.315 4.90391 17.6782 4.90023 17.2876 5.29075L12 10.5784L12 10.5784L11.9999 10.5784L6.71227 5.29075C6.32174 4.90023 5.6849 4.90391 5.29437 5.29444Z" fill="currentColor"/>
</svg>
