<svg width="24" height="24" viewBox="0 0 24 24" fill="none" xmlns="http://www.w3.org/2000/svg">
<path fill-rule="evenodd" clip-rule="evenodd" d="M15 10C15 12.7614 12.7614 15 10 15C7.23858 15 5 12.7614 5 10C5 7.23858 7.23858 5 10 5C12.7614 5 15 7.23858 15 10ZM14.1922 15.6064C13.0236 16.4816 11.5723 17 10 17C6.13401 17 3 13.866 3 10C3 6.13401 6.13401 3 10 3C13.866 3 17 6.13401 17 10C17 11.5723 16.4816 13.0236 15.6064 14.1922L19.7031 18.2889C20.0936 18.6795 20.0936 19.3126 19.7031 19.7031C19.3126 20.0937 18.6794 20.0937 18.2889 19.7031L14.1922 15.6064Z" fill="currentColor"/>
</svg>
