<svg width="24" height="24" viewBox="0 0 24 24" fill="none" xmlns="http://www.w3.org/2000/svg">
  <path d="M3 18C3 18.5523 3.44772 19 4 19H20C20.5523 19 21 18.5523 21 18C21 17.4477 20.5523 17 20 17H4C3.44772 17 3 17.4477 3 18ZM3 12.0526C3 12.6049 3.44772 13.0526 4 13.0526H20C20.5523 13.0526 21 12.6049 21 12.0526V12C21 11.4477 20.5523 11 20 11H4C3.44772 11 3 11.4477 3 12V12.0526ZM4 5C3.44772 5 3 5.44772 3 6V6.05263C3 6.60492 3.44772 7.05263 4 7.05263H20C20.5523 7.05263 21 6.60492 21 6.05263V6C21 5.44772 20.5523 5 20 5H4Z" fill="currentColor"/>
</svg>