<svg width="48" height="48" viewBox="0 0 48 48" fill="none" xmlns="http://www.w3.org/2000/svg">
<path d="M7.5 41C7.5 41.1326 7.55268 41.2598 7.64645 41.3536C7.74021 41.4473 7.86739 41.5 8 41.5H36C36.2761 41.5 36.5 41.2761 36.5 41V9C36.5 8.86739 36.4473 8.74021 36.3536 8.64645L30.3536 2.64645C30.2598 2.55268 30.1326 2.5 30 2.5H8C7.72386 2.5 7.5 2.72386 7.5 3V41Z" fill="var(--temp-color-icon-48-docs-api-0)" stroke="var(--temp-color-icon-48-docs-api-1)" stroke-miterlimit="10" stroke-linecap="round" stroke-linejoin="round"/>
<path d="M22.5 7C22.5 6.72386 22.2761 6.5 22 6.5H13C12.7239 6.5 12.5 6.72386 12.5 7V16C12.5 16.2761 12.7239 16.5 13 16.5H22C22.2761 16.5 22.5 16.2761 22.5 16V7Z" fill="var(--temp-color-icon-48-docs-api-2)" stroke="var(--temp-color-icon-48-docs-api-1)" stroke-miterlimit="10" stroke-linecap="round" stroke-linejoin="round"/>
<path fill-rule="evenodd" clip-rule="evenodd" d="M22 16H13L16.1154 12.4286L17.5 13.8571L19.9231 11L22 13.1429V16Z" fill="url(#paint0_linear_2094_3249)"/>
<path d="M15 10C15.5523 10 16 9.55228 16 9C16 8.44772 15.5523 8 15 8C14.4477 8 14 8.44772 14 9C14 9.55228 14.4477 10 15 10Z" fill="var(--temp-color-icon-48-docs-api-3)"/>
<path d="M36 9.5C36.2022 9.5 36.3845 9.37818 36.4619 9.19134C36.5393 9.0045 36.4966 8.78945 36.3536 8.64645L30.3536 2.64645C30.2106 2.50345 29.9955 2.46067 29.8087 2.53806C29.6218 2.61545 29.5 2.79777 29.5 3V9C29.5 9.27614 29.7239 9.5 30 9.5H36Z" fill="url(#paint1_linear_2094_3249)" stroke="var(--temp-color-icon-48-docs-api-1)" stroke-miterlimit="10" stroke-linecap="round" stroke-linejoin="round"/>
<path d="M20.5 28C20.5 27.1716 21.1716 26.5 22 26.5H42C42.8284 26.5 43.5 27.1716 43.5 28V45C43.5 45.2761 43.2761 45.5 43 45.5H21C20.7239 45.5 20.5 45.2761 20.5 45V28Z" fill="var(--temp-color-icon-48-docs-api-4)" stroke="var(--temp-color-icon-48-docs-api-1)"/>
<path d="M28 35L26 37.5L28 40" stroke="var(--temp-color-icon-48-docs-api-1)" stroke-width="1.5" stroke-linecap="round" stroke-linejoin="round"/>
<path d="M36 40L38 37.5L36 35" stroke="var(--temp-color-icon-48-docs-api-1)" stroke-width="1.5" stroke-linecap="round" stroke-linejoin="round"/>
<path d="M33 34L31 42" stroke="var(--temp-color-icon-48-docs-api-1)" stroke-width="1.5" stroke-linecap="round" stroke-linejoin="round"/>
<path d="M20.5 28C20.5 27.1716 21.1716 26.5 22 26.5H42C42.8284 26.5 43.5 27.1716 43.5 28V30.5H20.5V28Z" fill="url(#paint2_linear_2094_3249)" stroke="var(--temp-color-icon-48-docs-api-1)"/>
<rect x="12" y="23" width="12" height="1" rx="0.5" fill="var(--temp-color-icon-48-docs-api-1)"/>
<rect x="12" y="26" width="5" height="1" rx="0.5" fill="var(--temp-color-icon-48-docs-api-1)"/>
<rect x="12" y="20" width="20" height="1" rx="0.5" fill="var(--temp-color-icon-48-docs-api-1)"/>
<defs>
<linearGradient id="paint0_linear_2094_3249" x1="13" y1="10.8047" x2="17.1611" y2="18.5872" gradientUnits="userSpaceOnUse">
<stop stop-color="var(--temp-color-icon-48-docs-api-5)"/>
<stop offset="1" stop-color="var(--temp-color-icon-48-docs-api-3)"/>
</linearGradient>
<linearGradient id="paint1_linear_2094_3249" x1="30" y1="2.76562" x2="36" y2="9" gradientUnits="userSpaceOnUse">
<stop stop-color="var(--temp-color-icon-48-docs-api-5)"/>
<stop offset="1" stop-color="var(--temp-color-icon-48-docs-api-3)"/>
</linearGradient>
<linearGradient id="paint2_linear_2094_3249" x1="20" y1="25.8047" x2="21.929" y2="35.4253" gradientUnits="userSpaceOnUse">
<stop stop-color="var(--temp-color-icon-48-docs-api-5)"/>
<stop offset="1" stop-color="var(--temp-color-icon-48-docs-api-3)"/>
</linearGradient>
</defs>
</svg>

    