<svg width="48" height="48" viewBox="0 0 48 48" fill="none" xmlns="http://www.w3.org/2000/svg">
<rect x="2.5" y="6.5" width="39" height="27" rx="1.5" fill="#F5F5F5" stroke="#333333"/>
<rect x="6" y="10" width="32" height="1" rx="0.5" fill="#333333"/>
<path d="M16.8009 21.0805C16.8208 21.4359 16.8902 21.7638 17.0093 22.0642C17.1333 22.3595 17.2946 22.6148 17.493 22.83C17.6964 23.0453 17.9321 23.213 18.2 23.3331C18.4679 23.4482 18.7631 23.5058 19.0856 23.5058C19.3684 23.5058 19.6388 23.4758 19.8967 23.4157C20.1547 23.3556 20.3829 23.2605 20.5814 23.1304C20.7798 22.9952 20.9386 22.82 21.0577 22.6048C21.1767 22.3845 21.2363 22.1167 21.2363 21.8014C21.2363 21.516 21.1495 21.2758 20.9758 21.0805C20.8071 20.8853 20.5839 20.7176 20.306 20.5775C20.0282 20.4323 19.7107 20.3022 19.3535 20.187C18.9963 20.0669 18.6316 19.9443 18.2595 19.8191C17.8924 19.694 17.5302 19.5538 17.173 19.3986C16.8158 19.2385 16.4983 19.0432 16.2205 18.813C15.9426 18.5827 15.7169 18.3074 15.5433 17.987C15.3746 17.6667 15.2902 17.2812 15.2902 16.8307C15.2902 16.3702 15.3795 15.9647 15.5581 15.6143C15.7367 15.2589 15.9873 14.9636 16.3098 14.7283C16.6372 14.4881 17.0242 14.3078 17.4707 14.1877C17.9172 14.0626 18.4084 14 18.9442 14C19.4205 14 19.8422 14.0501 20.2093 14.1502C20.5764 14.2453 20.8964 14.3754 21.1693 14.5406C21.4471 14.7058 21.6803 14.901 21.8688 15.1263C22.0574 15.3515 22.2112 15.5918 22.3302 15.8471C22.4543 16.0974 22.546 16.3602 22.6056 16.6355C22.6651 16.9058 22.7048 17.1711 22.7247 17.4314H20.946C20.9163 17.096 20.8419 16.8057 20.7228 16.5604C20.6087 16.3151 20.4623 16.1124 20.2837 15.9522C20.1101 15.792 19.9067 15.6744 19.6735 15.5993C19.4453 15.5192 19.2022 15.4792 18.9442 15.4792C18.711 15.4792 18.4803 15.5042 18.2521 15.5543C18.0288 15.5993 17.8279 15.6744 17.6493 15.7795C17.4707 15.8846 17.3268 16.0248 17.2177 16.2C17.1085 16.3702 17.054 16.5804 17.054 16.8307C17.054 17.121 17.1383 17.3663 17.307 17.5666C17.4806 17.7618 17.7064 17.9345 17.9842 18.0846C18.262 18.2348 18.5795 18.37 18.9367 18.4901C19.294 18.6052 19.6561 18.7279 20.0233 18.858C20.3953 18.9832 20.76 19.1258 21.1172 19.286C21.4744 19.4412 21.7919 19.6314 22.0698 19.8567C22.3476 20.0819 22.5709 20.3522 22.7395 20.6676C22.9132 20.9829 23 21.3609 23 21.8014C23 22.332 22.9008 22.7975 22.7023 23.198C22.5088 23.5934 22.2384 23.9263 21.8912 24.1966C21.5439 24.4619 21.1296 24.6621 20.6484 24.7973C20.1721 24.9324 19.6512 25 19.0856 25C18.5746 25 18.076 24.9099 17.5898 24.7297C17.1085 24.5495 16.6769 24.2917 16.2949 23.9563C15.9178 23.6159 15.6102 23.203 15.3721 22.7174C15.1389 22.2319 15.0149 21.6862 15 21.0805H16.8009Z" fill="#333333"/>
<path d="M13 14V21.7385C13 22.3179 12.9037 22.8154 12.7112 23.2308C12.5243 23.641 12.2694 23.9769 11.9466 24.2385C11.6238 24.5 11.25 24.6923 10.8252 24.8154C10.4005 24.9385 9.95307 25 9.48301 25C9.0356 25 8.60235 24.9359 8.18325 24.8077C7.76416 24.6846 7.3932 24.5 7.07039 24.2538C6.74757 24.0026 6.48706 23.6923 6.28883 23.3231C6.09628 22.9538 6 22.5256 6 22.0385V21H8.02184V22.0231C8.02184 22.2692 8.06432 22.4846 8.14927 22.6692C8.23989 22.8487 8.35599 23 8.49757 23.1231C8.64482 23.241 8.80623 23.3282 8.9818 23.3846C9.15736 23.441 9.33576 23.4692 9.51699 23.4692C9.65858 23.4692 9.81432 23.4487 9.98422 23.4077C10.1541 23.3615 10.3127 23.2846 10.46 23.1769C10.6129 23.0641 10.7403 22.9154 10.8422 22.7308C10.9442 22.541 10.9951 22.3051 10.9951 22.0231V14H13Z" fill="#333333"/>
<rect x="23.5" y="26.5" width="21" height="15" rx="1.5" fill="url(#paint0_linear_2094_3166)" stroke="#333333"/>
<path d="M30.2291 31.7917L28.1041 34.2708L30.2291 36.75" stroke="white" stroke-width="1.5" stroke-linecap="round" stroke-linejoin="round"/>
<path d="M38.0208 36.75L40.1458 34.2708L38.0208 31.7917" stroke="white" stroke-width="1.5" stroke-linecap="round" stroke-linejoin="round"/>
<path d="M35.1875 30.375L33.0625 38.1667" stroke="white" stroke-width="1.5" stroke-linecap="round" stroke-linejoin="round"/>
<defs>
<linearGradient id="paint0_linear_2094_3166" x1="34" y1="27" x2="34" y2="41" gradientUnits="userSpaceOnUse">
<stop stop-color="#FF8E3D"/>
<stop offset="1" stop-color="#FF6F3D"/>
</linearGradient>
</defs>
</svg>
