<svg width="48" height="48" viewBox="0 0 48 48" fill="none" xmlns="http://www.w3.org/2000/svg">
    <mask id="path-1-inside-1_2094_3125" fill="var(--temp-color-icon-48-office-api-0)">
    <path fill-rule="evenodd" clip-rule="evenodd" d="M41.1488 24.3978V31.6022L38.1153 32.2974L37.1042 34.8253L38.7473 37.4164L33.6284 42.5353L30.9741 40.8922L28.4462 41.9665L27.751 45H20.5466L19.8514 41.9665L17.3235 40.9554L14.7324 42.5985L9.61349 37.4796L11.2566 34.8253L10.1823 32.2974L7.1488 31.6022V24.3978L10.1823 23.7026L11.1934 21.1747L9.55029 18.5836L14.6693 13.4647L17.3235 15.1078L19.8514 14.0335L20.5466 11H27.751L28.4462 14.0335L30.9741 15.0446L33.5652 13.4015L38.6841 18.5204L37.041 21.1747L38.1153 23.7026L41.1488 24.3978ZM24 34C27.3137 34 30 31.3137 30 28C30 24.6863 27.3137 22 24 22C20.6863 22 18 24.6863 18 28C18 31.3137 20.6863 34 24 34Z"/>
    </mask>
    <path fill-rule="evenodd" clip-rule="evenodd" d="M41.1488 24.3978V31.6022L38.1153 32.2974L37.1042 34.8253L38.7473 37.4164L33.6284 42.5353L30.9741 40.8922L28.4462 41.9665L27.751 45H20.5466L19.8514 41.9665L17.3235 40.9554L14.7324 42.5985L9.61349 37.4796L11.2566 34.8253L10.1823 32.2974L7.1488 31.6022V24.3978L10.1823 23.7026L11.1934 21.1747L9.55029 18.5836L14.6693 13.4647L17.3235 15.1078L19.8514 14.0335L20.5466 11H27.751L28.4462 14.0335L30.9741 15.0446L33.5652 13.4015L38.6841 18.5204L37.041 21.1747L38.1153 23.7026L41.1488 24.3978ZM24 34C27.3137 34 30 31.3137 30 28C30 24.6863 27.3137 22 24 22C20.6863 22 18 24.6863 18 28C18 31.3137 20.6863 34 24 34Z" fill="var(--temp-color-icon-48-office-api-1)"/>
    <path d="M41.1488 31.6022L41.3722 32.577L42.1488 32.399V31.6022H41.1488ZM41.1488 24.3978H42.1488V23.601L41.3722 23.423L41.1488 24.3978ZM38.1153 32.2974L37.892 31.3227L37.3814 31.4397L37.1869 31.926L38.1153 32.2974ZM37.1042 34.8253L36.1757 34.4539L35.9857 34.9288L36.2597 35.3608L37.1042 34.8253ZM38.7473 37.4164L39.4544 38.1235L40.0207 37.5572L39.5918 36.8808L38.7473 37.4164ZM33.6284 42.5353L33.102 43.3856L33.7754 43.8025L34.3355 43.2424L33.6284 42.5353ZM30.9741 40.8922L31.5004 40.0419L31.0598 39.7692L30.5829 39.9719L30.9741 40.8922ZM28.4462 41.9665L28.0551 41.0462L27.5854 41.2458L27.4715 41.7432L28.4462 41.9665ZM27.751 45V46H28.5478L28.7258 45.2234L27.751 45ZM20.5466 45L19.5718 45.2234L19.7498 46H20.5466V45ZM19.8514 41.9665L20.8261 41.7432L20.7091 41.2326L20.2228 41.0381L19.8514 41.9665ZM17.3235 40.9554L17.6949 40.0269L17.22 39.8369L16.788 40.1109L17.3235 40.9554ZM14.7324 42.5985L14.0253 43.3056L14.5916 43.8719L15.268 43.443L14.7324 42.5985ZM9.61349 37.4796L8.76322 36.9532L8.34634 37.6266L8.90638 38.1867L9.61349 37.4796ZM11.2566 34.8253L12.1069 35.3516L12.3796 34.911L12.1769 34.4341L11.2566 34.8253ZM10.1823 32.2974L11.1026 31.9063L10.903 31.4366L10.4056 31.3227L10.1823 32.2974ZM7.1488 31.6022H6.1488V32.399L6.92543 32.577L7.1488 31.6022ZM7.1488 24.3978L6.92543 23.423L6.1488 23.601V24.3978H7.1488ZM10.1823 23.7026L10.4056 24.6773L10.9162 24.5603L11.1107 24.074L10.1823 23.7026ZM11.1934 21.1747L12.1219 21.5461L12.3119 21.0712L12.0379 20.6392L11.1934 21.1747ZM9.55029 18.5836L8.84318 17.8765L8.27688 18.4428L8.70578 19.1192L9.55029 18.5836ZM14.6693 13.4647L15.1956 12.6144L14.5222 12.1975L13.9621 12.7576L14.6693 13.4647ZM17.3235 15.1078L16.7972 15.9581L17.2378 16.2308L17.7147 16.0281L17.3235 15.1078ZM19.8514 14.0335L20.2425 14.9538L20.7122 14.7542L20.8261 14.2568L19.8514 14.0335ZM20.5466 11V10H19.7498L19.5718 10.7766L20.5466 11ZM27.751 11L28.7258 10.7766L28.5478 10H27.751V11ZM28.4462 14.0335L27.4715 14.2568L27.5885 14.7674L28.0748 14.9619L28.4462 14.0335ZM30.9741 15.0446L30.6027 15.9731L31.0776 16.1631L31.5096 15.8891L30.9741 15.0446ZM33.5652 13.4015L34.2723 12.6944L33.706 12.1281L33.0296 12.557L33.5652 13.4015ZM38.6841 18.5204L39.5344 19.0468L39.9513 18.3734L39.3912 17.8133L38.6841 18.5204ZM37.041 21.1747L36.1907 20.6484L35.918 21.089L36.1207 21.5659L37.041 21.1747ZM38.1153 23.7026L37.195 24.0937L37.3946 24.5634L37.892 24.6773L38.1153 23.7026ZM42.1488 31.6022V24.3978H40.1488V31.6022H42.1488ZM38.3387 33.2721L41.3722 32.577L40.9254 30.6275L37.892 31.3227L38.3387 33.2721ZM38.0327 35.1967L39.0438 32.6688L37.1869 31.926L36.1757 34.4539L38.0327 35.1967ZM39.5918 36.8808L37.9487 34.2897L36.2597 35.3608L37.9028 37.9519L39.5918 36.8808ZM34.3355 43.2424L39.4544 38.1235L38.0402 36.7092L32.9212 41.8282L34.3355 43.2424ZM30.4477 41.7425L33.102 43.3856L34.1547 41.6851L31.5004 40.0419L30.4477 41.7425ZM28.8373 42.8869L31.3652 41.8125L30.5829 39.9719L28.0551 41.0462L28.8373 42.8869ZM28.7258 45.2234L29.4209 42.1899L27.4715 41.7432L26.7763 44.7766L28.7258 45.2234ZM20.5466 46H27.751V44H20.5466V46ZM18.8767 42.1899L19.5718 45.2234L21.5213 44.7766L20.8261 41.7432L18.8767 42.1899ZM16.9521 41.8839L19.48 42.895L20.2228 41.0381L17.6949 40.0269L16.9521 41.8839ZM15.268 43.443L17.8591 41.7999L16.788 40.1109L14.1969 41.754L15.268 43.443ZM8.90638 38.1867L14.0253 43.3056L15.4396 41.8914L10.3206 36.7724L8.90638 38.1867ZM10.4063 34.2989L8.76322 36.9532L10.4638 38.0059L12.1069 35.3516L10.4063 34.2989ZM9.26193 32.6885L10.3363 35.2164L12.1769 34.4341L11.1026 31.9063L9.26193 32.6885ZM6.92543 32.577L9.95888 33.2721L10.4056 31.3227L7.37218 30.6275L6.92543 32.577ZM6.1488 24.3978V31.6022H8.1488V24.3978H6.1488ZM9.95888 22.7279L6.92543 23.423L7.37218 25.3725L10.4056 24.6773L9.95888 22.7279ZM10.2649 20.8033L9.25378 23.3312L11.1107 24.074L12.1219 21.5461L10.2649 20.8033ZM8.70578 19.1192L10.3489 21.7103L12.0379 20.6392L10.3948 18.0481L8.70578 19.1192ZM13.9621 12.7576L8.84318 17.8765L10.2574 19.2908L15.3764 14.1718L13.9621 12.7576ZM17.8499 14.2575L15.1956 12.6144L14.1429 14.3149L16.7972 15.9581L17.8499 14.2575ZM19.4603 13.1131L16.9324 14.1875L17.7147 16.0281L20.2425 14.9538L19.4603 13.1131ZM19.5718 10.7766L18.8767 13.8101L20.8261 14.2568L21.5213 11.2234L19.5718 10.7766ZM27.751 10H20.5466V12H27.751V10ZM29.4209 13.8101L28.7258 10.7766L26.7763 11.2234L27.4715 14.2568L29.4209 13.8101ZM31.3455 14.1161L28.8176 13.105L28.0748 14.9619L30.6027 15.9731L31.3455 14.1161ZM33.0296 12.557L30.4385 14.2001L31.5096 15.8891L34.1007 14.246L33.0296 12.557ZM39.3912 17.8133L34.2723 12.6944L32.8581 14.1086L37.977 19.2276L39.3912 17.8133ZM37.8913 21.7011L39.5344 19.0468L37.8339 17.9941L36.1907 20.6484L37.8913 21.7011ZM39.0357 23.3115L37.9613 20.7836L36.1207 21.5659L37.195 24.0937L39.0357 23.3115ZM41.3722 23.423L38.3387 22.7279L37.892 24.6773L40.9254 25.3725L41.3722 23.423ZM29 28C29 30.7614 26.7614 33 24 33V35C27.866 35 31 31.866 31 28H29ZM24 23C26.7614 23 29 25.2386 29 28H31C31 24.134 27.866 21 24 21V23ZM19 28C19 25.2386 21.2386 23 24 23V21C20.134 21 17 24.134 17 28H19ZM24 33C21.2386 33 19 30.7614 19 28H17C17 31.866 20.134 35 24 35V33Z" fill="var(--temp-color-icon-48-office-api-2)" mask="url(#path-1-inside-1_2094_3125)"/>
    <path d="M38.505 28.5H12.8826C7.69903 28.5 3.5 24.2834 3.5 19.0857C3.5 13.9381 7.6186 9.75269 12.7332 9.67261C14.5049 5.9133 18.2834 3.5 22.4489 3.5C26.6194 3.5 30.4021 5.91921 32.171 9.68641C35.2314 9.87186 37.9477 11.7243 39.246 14.5104C42.868 14.8932 45.6109 18.0202 45.4966 21.7041C45.379 25.491 42.2845 28.5021 38.505 28.5ZM38.505 28.5L38.5053 28M38.505 28.5L38.5053 28M38.505 28.5H38.5053V28M38.505 28.5L38.5053 28" fill="url(#paint0_linear_2094_3125)" stroke="var(--temp-color-icon-48-office-api-2)"/>
    <path fill-rule="evenodd" clip-rule="evenodd" d="M18.3259 22.5114C18.4328 22.8031 18.7331 23 19.0713 23C19.3239 22.9997 19.5609 22.8892 19.7085 22.7029C19.8561 22.5166 19.8964 22.2773 19.8168 22.0594L16.6739 13.4885C16.6312 13.3723 16.5589 13.2726 16.4671 13.1942C16.3989 13.1358 16.3183 13.0878 16.2273 13.0539C16.1336 13.0188 16.0321 13 15.9284 13C15.8248 13 15.7233 13.0188 15.6296 13.0539C15.5382 13.0879 15.4573 13.1362 15.3889 13.195C15.2975 13.2732 15.2255 13.3726 15.183 13.4885L12.0401 22.0594C11.9605 22.2773 12.0008 22.5166 12.1484 22.7029C12.296 22.8892 12.533 22.9997 12.7855 23C13.1238 23 13.4241 22.8031 13.531 22.5114L14.6614 19.4286H17.1955L18.3259 22.5114ZM16.6717 18H15.1852L15.9284 15.9732L16.6717 18ZM20.6427 22.2855C20.6427 22.6799 20.9945 22.9997 21.4284 22.9997C21.8624 22.9997 22.2142 22.6799 22.2142 22.2855V18.7143H24.5713C26.3071 18.7143 27.7142 17.4352 27.7142 15.8573C27.7142 14.2795 26.3071 13.0003 24.5713 13.0003H21.4284C20.9945 13.0003 20.6427 13.3201 20.6427 13.7146V18V22.2855ZM24.5713 17.2858H22.2142V14.4288H24.5713C25.4392 14.4288 26.1428 15.0684 26.1428 15.8573C26.1428 16.6462 25.4392 17.2858 24.5713 17.2858ZM30.0714 21.5713V14.4288H28.4998C28.0659 14.4288 27.7141 14.1091 27.7141 13.7146C27.7141 13.3201 28.0659 13.0003 28.4998 13.0003H30.8571H33.2141C33.6481 13.0003 33.9998 13.3201 33.9998 13.7146C33.9998 14.1091 33.6481 14.4288 33.2141 14.4288H31.6428V21.5713H33.2143C33.6482 21.5713 34 21.8911 34 22.2855C34 22.68 33.6482 22.9997 33.2143 22.9997H28.5C28.066 22.9997 27.7142 22.68 27.7142 22.2855C27.7142 21.8911 28.066 21.5713 28.5 21.5713H30.0714Z" fill="var(--temp-color-icon-48-office-api-0)"/>
    <defs>
    <linearGradient id="paint0_linear_2094_3125" x1="4.00008" y1="3.0625" x2="24.5418" y2="39.5254" gradientUnits="userSpaceOnUse">
    <stop stop-color="var(--temp-color-icon-48-office-api-3)"/>
    <stop offset="0.59375" stop-color="var(--temp-color-icon-48-office-api-4)"/>
    <stop offset="1" stop-color="var(--temp-color-icon-48-office-api-5)"/>
    </linearGradient>
    </defs>
    </svg>
        