<svg width="48" height="48" viewBox="0 0 48 48" fill="none" xmlns="http://www.w3.org/2000/svg">
<path d="M24.5 46L39.5 36.5V25.5L24.5 35V46Z" fill="var(--temp-color-icon-48-plugins-0)" stroke="var(--temp-color-icon-48-plugins-1)" stroke-miterlimit="10" stroke-linecap="round" stroke-linejoin="round"/>
<path d="M24.5 46L9.5 36.5V25.5L24.5 35V46Z" fill="var(--temp-color-icon-48-plugins-0)" stroke="var(--temp-color-icon-48-plugins-1)" stroke-miterlimit="10" stroke-linecap="round" stroke-linejoin="round"/>
<path d="M24.5 16L9.5 25.5L24.5 35L39.5 25.5L24.5 16Z" fill="var(--temp-color-icon-48-plugins-2)" stroke="var(--temp-color-icon-48-plugins-1)" stroke-linejoin="round"/>
<path d="M24.5 32L39.5 22.5V11.5L24.5 21V32Z" fill="var(--temp-color-icon-48-plugins-3)" stroke="var(--temp-color-icon-48-plugins-1)" stroke-miterlimit="10" stroke-linecap="round" stroke-linejoin="round"/>
<path d="M24.5 32L9.5 22.5V11.5L24.5 21V32Z" fill="var(--temp-color-icon-48-plugins-3)" stroke="var(--temp-color-icon-48-plugins-1)" stroke-miterlimit="10" stroke-linecap="round" stroke-linejoin="round"/>
<path d="M22.8948 3.0166L9.5 11.5L24.5 21L39.5 11.5L26.1052 3.0166C25.1251 2.39588 23.8749 2.39587 22.8948 3.0166Z" fill="var(--temp-color-icon-48-plugins-3)" stroke="var(--temp-color-icon-48-plugins-1)" stroke-linejoin="round"/>
<path d="M21 3.5C20.7239 3.5 20.5 3.72386 20.5 4V6.85714C20.5 7.23923 20.739 7.51866 20.9715 7.69732C21.2115 7.88182 21.5274 8.02677 21.8729 8.13959C22.5694 8.36701 23.4991 8.5 24.5 8.5C25.5009 8.5 26.4306 8.36701 27.1271 8.13959C27.4726 8.02677 27.7885 7.88182 28.0285 7.69732C28.261 7.51866 28.5 7.23923 28.5 6.85714V4C28.5 3.72386 28.2761 3.5 28 3.5H21Z" fill="var(--temp-color-icon-48-plugins-4)" stroke="var(--temp-color-icon-48-plugins-1)" stroke-miterlimit="10" stroke-linecap="round" stroke-linejoin="round"/>
<path d="M21 12.5C20.7239 12.5 20.5 12.7239 20.5 13V15.8571C20.5 16.2392 20.739 16.5187 20.9715 16.6973C21.2115 16.8818 21.5274 17.0268 21.8729 17.1396C22.5694 17.367 23.4991 17.5 24.5 17.5C25.5009 17.5 26.4306 17.367 27.1271 17.1396C27.4726 17.0268 27.7885 16.8818 28.0285 16.6973C28.261 16.5187 28.5 16.2392 28.5 15.8571V13C28.5 12.7239 28.2761 12.5 28 12.5H21Z" fill="var(--temp-color-icon-48-plugins-4)" stroke="var(--temp-color-icon-48-plugins-1)" stroke-miterlimit="10" stroke-linecap="round" stroke-linejoin="round"/>
<path d="M12 7.5C11.7239 7.5 11.5 7.72386 11.5 8V10.8571C11.5 11.2392 11.739 11.5187 11.9715 11.6973C12.2115 11.8818 12.5274 12.0268 12.8729 12.1396C13.5694 12.367 14.4991 12.5 15.5 12.5C16.5009 12.5 17.4306 12.367 18.1271 12.1396C18.4726 12.0268 18.7885 11.8818 19.0285 11.6973C19.261 11.5187 19.5 11.2392 19.5 10.8571V8C19.5 7.72386 19.2761 7.5 19 7.5H12Z" fill="var(--temp-color-icon-48-plugins-4)" stroke="var(--temp-color-icon-48-plugins-1)" stroke-miterlimit="10" stroke-linecap="round" stroke-linejoin="round"/>
<path d="M30 7.5C29.7239 7.5 29.5 7.72386 29.5 8V10.8571C29.5 11.2392 29.739 11.5187 29.9715 11.6973C30.2115 11.8818 30.5274 12.0268 30.8729 12.1396C31.5694 12.367 32.4991 12.5 33.5 12.5C34.5009 12.5 35.4306 12.367 36.1271 12.1396C36.4726 12.0268 36.7885 11.8818 37.0285 11.6973C37.261 11.5187 37.5 11.2392 37.5 10.8571V8C37.5 7.72386 37.2761 7.5 37 7.5H30Z" fill="var(--temp-color-icon-48-plugins-4)" stroke="var(--temp-color-icon-48-plugins-1)" stroke-miterlimit="10" stroke-linecap="round" stroke-linejoin="round"/>
<path d="M24.5 5.5C25.4994 5.5 26.4228 5.38485 27.1122 5.18787C27.4536 5.09035 27.7661 4.96483 28.0048 4.80357C28.2261 4.65411 28.5 4.39182 28.5 4C28.5 3.60818 28.2261 3.34589 28.0048 3.19643C27.7661 3.03518 27.4536 2.90965 27.1122 2.81213C26.4228 2.61515 25.4994 2.5 24.5 2.5C23.5006 2.5 22.5772 2.61515 21.8878 2.81213C21.5464 2.90965 21.2339 3.03518 20.9952 3.19643C20.7739 3.34589 20.5 3.60818 20.5 4C20.5 4.39182 20.7739 4.65411 20.9952 4.80357C21.2339 4.96483 21.5464 5.09035 21.8878 5.18787C22.5772 5.38485 23.5006 5.5 24.5 5.5Z" fill="var(--temp-color-icon-48-plugins-5)" stroke="var(--temp-color-icon-48-plugins-1)" stroke-miterlimit="10" stroke-linecap="round" stroke-linejoin="round"/>
<path d="M24.5 14.5C25.4994 14.5 26.4228 14.3849 27.1122 14.1879C27.4536 14.0903 27.7661 13.9648 28.0048 13.8036C28.2261 13.6541 28.5 13.3918 28.5 13C28.5 12.6082 28.2261 12.3459 28.0048 12.1964C27.7661 12.0352 27.4536 11.9097 27.1122 11.8121C26.4228 11.6151 25.4994 11.5 24.5 11.5C23.5006 11.5 22.5772 11.6151 21.8878 11.8121C21.5464 11.9097 21.2339 12.0352 20.9952 12.1964C20.7739 12.3459 20.5 12.6082 20.5 13C20.5 13.3918 20.7739 13.6541 20.9952 13.8036C21.2339 13.9648 21.5464 14.0903 21.8878 14.1879C22.5772 14.3849 23.5006 14.5 24.5 14.5Z" fill="var(--temp-color-icon-48-plugins-5)" stroke="var(--temp-color-icon-48-plugins-1)" stroke-miterlimit="10" stroke-linecap="round" stroke-linejoin="round"/>
<path d="M15.5 9.5C16.4994 9.5 17.4228 9.38485 18.1122 9.18787C18.4536 9.09035 18.7661 8.96483 19.0048 8.80357C19.2261 8.65411 19.5 8.39182 19.5 8C19.5 7.60818 19.2261 7.34589 19.0048 7.19643C18.7661 7.03518 18.4536 6.90965 18.1122 6.81213C17.4228 6.61515 16.4994 6.5 15.5 6.5C14.5006 6.5 13.5772 6.61515 12.8878 6.81213C12.5464 6.90965 12.2339 7.03518 11.9952 7.19643C11.7739 7.34589 11.5 7.60818 11.5 8C11.5 8.39182 11.7739 8.65411 11.9952 8.80357C12.2339 8.96483 12.5464 9.09035 12.8878 9.18787C13.5772 9.38485 14.5006 9.5 15.5 9.5Z" fill="var(--temp-color-icon-48-plugins-5)" stroke="var(--temp-color-icon-48-plugins-1)" stroke-miterlimit="10" stroke-linecap="round" stroke-linejoin="round"/>
<path d="M33.5 9.5C34.4994 9.5 35.4228 9.38485 36.1122 9.18787C36.4536 9.09035 36.7661 8.96483 37.0048 8.80357C37.2261 8.65411 37.5 8.39182 37.5 8C37.5 7.60818 37.2261 7.34589 37.0048 7.19643C36.7661 7.03518 36.4536 6.90965 36.1122 6.81213C35.4228 6.61515 34.4994 6.5 33.5 6.5C32.5006 6.5 31.5772 6.61515 30.8878 6.81213C30.5464 6.90965 30.2339 7.03518 29.9952 7.19643C29.7739 7.34589 29.5 7.60818 29.5 8C29.5 8.39182 29.7739 8.65411 29.9952 8.80357C30.2339 8.96483 30.5464 9.09035 30.8878 9.18787C31.5772 9.38485 32.5006 9.5 33.5 9.5Z" fill="var(--temp-color-icon-48-plugins-5)" stroke="var(--temp-color-icon-48-plugins-1)" stroke-miterlimit="10" stroke-linecap="round" stroke-linejoin="round"/>
</svg>
