<svg width="48" height="48" viewBox="0 0 48 48" fill="none" xmlns="http://www.w3.org/2000/svg">
<path d="M28.5 17.2546V11.7454L26.1803 11.2138L25.3587 9.28067L26.6152 7.25093L22.7007 3.33643L20.7193 4.59294L18.7862 3.8197L18.2546 1.5H12.7454L12.2138 3.8197L10.2807 4.64126L8.25093 3.38476L4.33643 7.29926L5.59294 9.28067L4.8197 11.2138L2.5 11.7454V17.2546L4.8197 17.7862L5.64126 19.7193L4.38476 21.7491L8.29926 25.6636L10.2807 24.4071L12.2138 25.1803L12.7454 27.5H18.2546L18.7862 25.1803L20.7193 24.3587L22.7491 25.6152L26.6636 21.7007L25.4071 19.7193L26.1803 17.7862L28.5 17.2546ZM15.5 19.4777C12.7454 19.4777 10.5223 17.2546 10.5223 14.5C10.5223 11.7454 12.7454 9.5223 15.5 9.5223C18.2546 9.5223 20.4777 11.7454 20.4777 14.5C20.4777 17.2546 18.2546 19.4777 15.5 19.4777Z" fill="#E2E2E2" stroke="#333333" stroke-miterlimit="10"/>
<path d="M45.5 37.619V33.381L43.7156 32.9721L43.0836 31.4851L44.0502 29.9238L41.039 26.9126L39.5149 27.8792L38.0279 27.2844L37.619 25.5H33.381L32.9721 27.2844L31.4851 27.9164L29.9238 26.9498L26.9126 29.961L27.8792 31.4851L27.2844 32.9721L25.5 33.381V37.619L27.2844 38.0279L27.9164 39.5149L26.9498 41.0762L29.961 44.0874L31.4851 43.1208L32.9721 43.7156L33.381 45.5H37.619L38.0279 43.7156L39.5149 43.0836L41.0762 44.0502L44.0874 41.039L43.1208 39.5149L43.7156 38.0279L45.5 37.619ZM35.5 39.329C33.381 39.329 31.671 37.619 31.671 35.5C31.671 33.381 33.381 31.671 35.5 31.671C37.619 31.671 39.329 33.381 39.329 35.5C39.329 37.619 37.619 39.329 35.5 39.329Z" fill="#BDECFF" stroke="#333333" stroke-miterlimit="10"/>
<path d="M24.5 13L15.5 18.5L24.5 24L33.5 18.5L24.5 13Z" fill="url(#paint0_linear_2527_9090)" stroke="#333333" stroke-linejoin="round"/>
<path d="M24.5 34.5L33.5 29V18.5L24.5 24V34.5Z" fill="url(#paint1_linear_2527_9090)" stroke="#333333" stroke-miterlimit="10" stroke-linecap="round" stroke-linejoin="round"/>
<path d="M24.5 34.5L15.5 29V18.5L24.5 24V34.5Z" fill="url(#paint2_linear_2527_9090)" stroke="#333333" stroke-miterlimit="10" stroke-linecap="round" stroke-linejoin="round"/>
<defs>
<linearGradient id="paint0_linear_2527_9090" x1="15.5" y1="12.5703" x2="25.1207" y2="28.9282" gradientUnits="userSpaceOnUse">
<stop stop-color="#FFC671"/>
<stop offset="0.59375" stop-color="#FF7541"/>
<stop offset="1" stop-color="#FF6F3D"/>
</linearGradient>
<linearGradient id="paint1_linear_2527_9090" x1="33.5" y1="17.875" x2="19.5489" y2="26.029" gradientUnits="userSpaceOnUse">
<stop stop-color="#FFC671"/>
<stop offset="0.59375" stop-color="#FF7541"/>
<stop offset="1" stop-color="#FF6F3D"/>
</linearGradient>
<linearGradient id="paint2_linear_2527_9090" x1="15.5" y1="17.875" x2="29.4511" y2="26.029" gradientUnits="userSpaceOnUse">
<stop stop-color="#FFC671"/>
<stop offset="0.59375" stop-color="#FF7541"/>
<stop offset="1" stop-color="#FF6F3D"/>
</linearGradient>
</defs>
</svg>
