<svg width="587" height="232" viewBox="0 0 587 232" fill="none" xmlns="http://www.w3.org/2000/svg">
<path d="M246.807 192.003L246.818 192.01C259.869 200.018 274.759 204 291.429 204C307.919 204 322.63 200.017 335.5 192.007C348.557 183.994 358.785 172.454 366.195 157.466C373.625 142.437 377.293 124.256 377.293 103C377.293 81.744 373.625 63.5632 366.195 48.534C358.785 33.546 348.558 22.0063 335.501 13.9935C322.631 5.98322 307.919 2 291.429 2C274.759 2 259.869 5.98229 246.818 13.9904L246.818 13.9904L246.807 13.9972C233.931 22.0119 223.799 33.5514 216.392 48.534C208.961 63.5632 205.293 81.744 205.293 103C205.293 124.256 208.961 142.437 216.392 157.466C223.799 172.449 233.931 183.988 246.807 192.003Z" stroke="#808080" stroke-width="4" stroke-linejoin="round"/>
<path d="M87.2524 7.64953L2.76344 123.989C2.26724 124.673 2 125.495 2 126.34V158.598C2 160.808 3.79086 162.598 6 162.598H104.564V196C104.564 198.209 106.354 200 108.564 200H155.845C158.054 200 159.845 198.209 159.845 196V162.598H184C186.209 162.598 188 160.808 188 158.598V121.207C188 118.998 186.209 117.207 184 117.207H159.845V88.7926C159.845 86.5835 158.054 84.7926 155.845 84.7926H108.564C106.354 84.7926 104.564 86.5835 104.564 88.7926V117.207H69.7405L145.126 12.3347C147.028 9.68845 145.137 6 141.878 6H90.4889C89.2082 6 88.0049 6.61325 87.2524 7.64953Z" stroke="#808080" stroke-width="4" stroke-linejoin="round"/>
<path d="M484.252 7.64953L399.763 123.989C399.267 124.673 399 125.495 399 126.34V158.598C399 160.808 400.791 162.598 403 162.598H501.564V196C501.564 198.209 503.354 200 505.564 200H552.845C555.054 200 556.845 198.209 556.845 196V162.598H581C583.209 162.598 585 160.808 585 158.598V121.207C585 118.998 583.209 117.207 581 117.207H556.845V88.7926C556.845 86.5835 555.054 84.7926 552.845 84.7926H505.564C503.354 84.7926 501.564 86.5835 501.564 88.7926V117.207H466.741L542.126 12.3347C544.028 9.68845 542.137 6 538.878 6H487.489C486.208 6 485.005 6.61325 484.252 7.64953Z" stroke="#808080" stroke-width="4" stroke-linejoin="round"/>
</svg>
