<svg width="832" height="402" viewBox="0 0 832 402" fill="none" xmlns="http://www.w3.org/2000/svg"><rect x=".5" y=".5" width="831" height="401" rx="2.5" fill="#F9F9F9"/><path d="M132.309 219.821c-.005.552.44 1.003.992 1.007.552.005 1.003-.439 1.008-.992l-2-.015zm1.78-98.689l-.001-1c-.549.001-.995.443-.999.992l1 .008zm74.271.667c.39-.391.39-1.024-.001-1.414l-6.367-6.361c-.391-.39-1.024-.39-1.414.001-.391.391-.39 1.024.001 1.414l5.659 5.654-5.653 5.66c-.391.391-.39 1.024 0 1.414.391.391 1.024.39 1.415-.001l6.36-6.367zm-74.051 98.037l.78-98.696-2-.016-.78 98.697 2 .015zm-.22-97.704l73.564-.04-.001-2-73.564.04.001 2z" fill="#666"/><path d="M704 214c0-.552-.448-1-1-1s-1 .448-1 1h2zm-1 99v1c.265 0 .52-.105.707-.293.188-.187.293-.442.293-.707h-1zm-1-96.422c0 .552.448 1 1 1s1-.448 1-1h-2zm2 7.219c0-.552-.448-1-1-1s-1 .448-1 1h2zm-2 5.156c0 .552.448 1 1 1s1-.448 1-1h-2zm2 7.219c0-.552-.448-1-1-1s-1 .448-1 1h2zm-2 5.156c0 .552.448 1 1 1s1-.448 1-1h-2zm2 7.219c0-.552-.448-1-1-1s-1 .448-1 1h2zm-2 5.156c0 .552.448 1 1 1s1-.448 1-1h-2zm2 7.219c0-.552-.448-1-1-1s-1 .448-1 1h2zm-2 5.156c0 .552.448 1 1 1s1-.448 1-1h-2zm2 7.219c0-.552-.448-1-1-1s-1 .448-1 1h2zm-2 5.156c0 .552.448 1 1 1s1-.448 1-1h-2zm2 7.219c0-.552-.448-1-1-1s-1 .448-1 1h2zm-2 5.156c0 .552.448 1 1 1s1-.448 1-1h-2zm2 7.219c0-.552-.448-1-1-1s-1 .448-1 1h2zm-2 5.156c0 .552.448 1 1 1s1-.448 1-1h-2zm2 7.219c0-.552-.448-1-1-1s-1 .448-1 1h2zM700.619 312c-.552 0-1 .448-1 1s.448 1 1 1v-2zm-6.667 2c.553 0 1-.448 1-1s-.447-1-1-1v2zm-4.762-2c-.552 0-1 .448-1 1s.448 1 1 1v-2zm-6.666 2c.552 0 1-.448 1-1s-.448-1-1-1v2zm-4.762-2c-.552 0-1 .448-1 1s.448 1 1 1v-2zm-6.667 2c.553 0 1-.448 1-1s-.447-1-1-1v2zm-4.762-2c-.552 0-1 .448-1 1s.448 1 1 1v-2zm-6.666 2c.552 0 1-.448 1-1s-.448-1-1-1v2zm-4.762-2c-.553 0-1 .448-1 1s.447 1 1 1v-2zm-6.667 2c.552 0 1-.448 1-1s-.448-1-1-1v2zm-4.762-2c-.552 0-1 .448-1 1s.448 1 1 1v-2zm-6.666 2c.552 0 1-.448 1-1s-.448-1-1-1v2zm-4.762-2c-.553 0-1 .448-1 1s.447 1 1 1v-2zm-6.667 2c.552 0 1-.448 1-1s-.448-1-1-1v2zM702 214v2.578h2V214h-2zm0 9.797v5.156h2v-5.156h-2zm0 12.375v5.156h2v-5.156h-2zm0 12.375v5.156h2v-5.156h-2zm0 12.375v5.156h2v-5.156h-2zm0 12.375v5.156h2v-5.156h-2zm0 12.375v5.156h2v-5.156h-2zm0 12.375v5.156h2v-5.156h-2zm0 12.375V313h2v-2.578h-2zm1 1.578h-2.381v2H703v-2zm-9.048 0h-4.762v2h4.762v-2zm-11.428 0h-4.762v2h4.762v-2zm-11.429 0h-4.762v2h4.762v-2zm-11.428 0h-4.762v2h4.762v-2zm-11.429 0h-4.762v2h4.762v-2zm-11.428 0h-4.762v2h4.762v-2zm-11.429 0H623v2h2.381v-2zM361 314c.552 0 1-.448 1-1s-.448-1-1-1v2zm-78-1h-1c0 .265.105.52.293.707.187.188.442.293.707.293v-1zm.707-99.707c-.39-.391-1.024-.391-1.414 0l-6.364 6.364c-.391.39-.391 1.024 0 1.414.39.391 1.024.391 1.414 0l5.657-5.657 5.657 5.657c.39.391 1.024.391 1.414 0 .391-.39.391-1.024 0-1.414l-6.364-6.364zM358.679 312c-.553 0-1 .448-1 1s.447 1 1 1v-2zm-6.5 2c.552 0 1-.448 1-1s-.448-1-1-1v2zm-4.643-2c-.553 0-1 .448-1 1s.447 1 1 1v-2zm-6.5 2c.552 0 1-.448 1-1s-.448-1-1-1v2zm-4.643-2c-.552 0-1 .448-1 1s.448 1 1 1v-2zm-6.5 2c.552 0 1-.448 1-1s-.448-1-1-1v2zm-4.643-2c-.552 0-1 .448-1 1s.448 1 1 1v-2zm-6.5 2c.552 0 1-.448 1-1s-.448-1-1-1v2zm-4.643-2c-.552 0-1 .448-1 1s.448 1 1 1v-2zm-6.5 2c.552 0 1-.448 1-1s-.448-1-1-1v2zm-4.643-2c-.552 0-1 .448-1 1s.448 1 1 1v-2zm-6.5 2c.553 0 1-.448 1-1s-.447-1-1-1v2zm-4.643-2c-.552 0-1 .448-1 1s.448 1 1 1v-2zm-6.5 2c.553 0 1-.448 1-1s-.447-1-1-1v2zM284 310.422c0-.552-.448-1-1-1s-1 .448-1 1h2zm-2-7.219c0 .552.448 1 1 1s1-.448 1-1h-2zm2-5.156c0-.552-.448-1-1-1s-1 .448-1 1h2zm-2-7.219c0 .552.448 1 1 1s1-.448 1-1h-2zm2-5.156c0-.552-.448-1-1-1s-1 .448-1 1h2zm-2-7.219c0 .552.448 1 1 1s1-.448 1-1h-2zm2-5.156c0-.552-.448-1-1-1s-1 .448-1 1h2zm-2-7.219c0 .552.448 1 1 1s1-.448 1-1h-2zm2-5.156c0-.552-.448-1-1-1s-1 .448-1 1h2zm-2-7.219c0 .552.448 1 1 1s1-.448 1-1h-2zm2-5.156c0-.552-.448-1-1-1s-1 .448-1 1h2zm-2-7.219c0 .552.448 1 1 1s1-.448 1-1h-2zm2-5.156c0-.552-.448-1-1-1s-1 .448-1 1h2zm-2-7.219c0 .552.448 1 1 1s1-.448 1-1h-2zm2-5.156c0-.552-.448-1-1-1s-1 .448-1 1h2zm-2-7.219c0 .552.448 1 1 1s1-.448 1-1h-2zM361 312h-2.321v2H361v-2zm-8.821 0h-4.643v2h4.643v-2zm-11.143 0h-4.643v2h4.643v-2zm-11.143 0h-4.643v2h4.643v-2zm-11.143 0h-4.643v2h4.643v-2zm-11.143 0h-4.643v2h4.643v-2zm-11.143 0h-4.643v2h4.643v-2zm-11.143 0H283v2h2.321v-2zM284 313v-2.578h-2V313h2zm0-9.797v-5.156h-2v5.156h2zm0-12.375v-5.156h-2v5.156h2zm0-12.375v-5.156h-2v5.156h2zm0-12.375v-5.156h-2v5.156h2zm0-12.375v-5.156h-2v5.156h2zm0-12.375v-5.156h-2v5.156h2zm0-12.375v-5.156h-2v5.156h2zm0-12.375V214h-2v2.578h2z" fill="#333"/><path d="M149.5 122c0 8.008-6.492 14.5-14.5 14.5s-14.5-6.492-14.5-14.5 6.492-14.5 14.5-14.5 14.5 6.492 14.5 14.5z" fill="#F9F9F9" stroke="#D0D5DA"/><path d="M137.294 129h-2.716v-7.436l.026-1.221.044-1.336c-.451.451-.764.747-.94.888l-1.477 1.186-1.309-1.635 4.14-3.296h2.232V129zM372 97c-.552 0-1 .4477-1 1s.448 1 1 1v-2zm240.707 1.7071c.391-.3905.391-1.0237 0-1.4142l-6.364-6.364c-.39-.3905-1.024-.3905-1.414 0-.391.3906-.391 1.0237 0 1.4142L610.586 98l-5.657 5.657c-.391.39-.391 1.024 0 1.414.39.391 1.024.391 1.414 0l6.364-6.3639zM372 99h96.995v-2H372v2zm96.995 0H612v-2H468.995v2z" fill="#666"/><path d="M371.293 153.293c-.391.39-.391 1.024 0 1.414l6.364 6.364c.39.391 1.024.391 1.414 0 .391-.39.391-1.024 0-1.414L373.414 154l5.657-5.657c.391-.39.391-1.024 0-1.414-.39-.391-1.024-.391-1.414 0l-6.364 6.364zM606 155c.552 0 1-.448 1-1s-.448-1-1-1v2zm-234 0h94.57v-2H372v2zm94.57 0H606v-2H466.57v2z" fill="#FF6F3D"/><path d="M511.5 97c0 8.008-6.492 14.5-14.5 14.5s-14.5-6.492-14.5-14.5c0-8.0081 6.492-14.5 14.5-14.5s14.5 6.4919 14.5 14.5z" fill="#F9F9F9" stroke="#D0D5DA"/><path d="M501.562 104h-8.983v-1.89l3.226-3.2604c.955-.9785 1.579-1.6553 1.872-2.0303.293-.3808.504-.7324.633-1.0547.128-.3222.193-.6562.193-1.0019 0-.5156-.144-.8994-.431-1.1514-.281-.2519-.659-.3779-1.134-.3779-.498 0-.981.1143-1.45.3428-.468.2285-.958.5537-1.467.9756l-1.477-1.7491c.633-.539 1.157-.9199 1.573-1.1425.416-.2227.87-.3926 1.362-.5098.493-.1231 1.043-.1846 1.653-.1846.803 0 1.512.1465 2.127.4395.615.2929 1.093.7031 1.432 1.2304.34.5274.51 1.1309.51 1.8106 0 .5918-.105 1.1484-.316 1.6699-.205.5156-.528 1.0459-.967 1.5908-.434.545-1.201 1.3213-2.303 2.329l-1.652 1.556v.123h5.599V104z" fill="#666"/><path d="M577.5 153c0 8.008-6.492 14.5-14.5 14.5s-14.5-6.492-14.5-14.5 6.492-14.5 14.5-14.5 14.5 6.492 14.5 14.5z" fill="#F9F9F9" stroke="#D0D5DA"/><path d="M563.255 151.791c1.242 0 2.229.349 2.962 1.046.738.697 1.107 1.652 1.107 2.865 0 1.436-.442 2.54-1.327 3.314-.885.773-2.15 1.16-3.797 1.16-1.429 0-2.584-.232-3.463-.695v-2.346c.463.246 1.002.448 1.617.606.616.153 1.199.229 1.75.229 1.658 0 2.487-.68 2.487-2.039 0-1.295-.859-1.943-2.575-1.943-.311 0-.654.033-1.029.097-.375.059-.679.123-.914.193l-1.081-.58.484-6.548h6.969v2.303h-4.588l-.237 2.523.308-.062c.357-.082.8-.123 1.327-.123z" fill="#666"/><path fill-rule="evenodd" clip-rule="evenodd" d="M164.946 286.14c-4.908-3.447-15.919-7.847-21.322-8.621-1.571.638-11.544-.935-19.755-.297-6.736 1.378-18.848 6.607-21.152 8.918-2.7588 2.767-6.4374 12.608-7.357 22.459 21.458 16.913 55.09 9.239 59.674 7.844 1.679-.537 2.445-.801 4.502-1.569 4.2-1.666 8.035-3.927 11.877-6.275-.949-7.699-3.401-20.307-6.467-22.459z" fill="#FEFEFE"/><path fill-rule="evenodd" clip-rule="evenodd" d="M140.147 318.965c0-8.335-.434-16.656-2.177-24.821-.408-1.595-.892-3.049-1.476-4.304l1.476-1.733.479-2.561c-2.343-3.357-3.523-5.8-4.481-6.01-1.11-.244-2.151 2.404-4.971 6.191l1.042 2.144 1.201 1.769c-3.056 9.125-3.973 20.34-3.973 29.638 4.28.415 11.64.415 12.88-.313z" fill="url(#paint0_linear_2389_49567)"/><path d="M140.133 319.077c0-8.259-.423-16.506-2.125-24.597-.399-1.581-.871-3.022-1.441-4.265m-5.371-.268c-1.362 2.916-3.943 12.88-3.943 29.44" stroke="#333"/><path d="M138.907 285.653c-1.9 4.763-3.21 6.147-4.749 6.134-1.688-.016-2.849-1.371-5.065-6.134" stroke="#333" stroke-linecap="round"/><mask id="a" fill="#fff"><path fill-rule="evenodd" clip-rule="evenodd" d="M116.827 278.913c1.542 2.605 3.792 5.564 5.572 8.017.702.973 1.688 2.465 3.067 2.401.67-.029 1.214-.397 1.7-.827.226-.203.461-.447.704-.731.34-.381.679-.762 1.011-1.143.017-.019.082-.123.13-.187.169-.229 3.414-5.057 3.868-5.75.089-.13.178-.252.275-.373h.923c.202.267.336.509.567.77.795.9 1.61 2.757 3.059 4.85.147.213.218.276.315.422.641.715 1.249 1.493 1.967 2.133.472.421 1.051.828 1.708.828 2.79.065 7.569-8.012 8.867-10.41-2.195-.771-4.503-1.482-6.809-1.839-4.023 3.984-15.787 3.065-19.871-.314-2.166.306-4.907 1.204-7.053 2.153z"/></mask><path fill-rule="evenodd" clip-rule="evenodd" d="M116.827 278.913c1.542 2.605 3.792 5.564 5.572 8.017.702.973 1.688 2.465 3.067 2.401.67-.029 1.214-.397 1.7-.827.226-.203.461-.447.704-.731.34-.381.679-.762 1.011-1.143.017-.019.082-.123.13-.187.169-.229 3.414-5.057 3.868-5.75.089-.13.178-.252.275-.373h.923c.202.267.336.509.567.77.795.9 1.61 2.757 3.059 4.85.147.213.218.276.315.422.641.715 1.249 1.493 1.967 2.133.472.421 1.051.828 1.708.828 2.79.065 7.569-8.012 8.867-10.41-2.195-.771-4.503-1.482-6.809-1.839-4.023 3.984-15.787 3.065-19.871-.314-2.166.306-4.907 1.204-7.053 2.153z" fill="#BDECFF"/><path d="M116.827 278.913l-.405-.915-1.03.455.574.969.861-.509zm5.572 8.017l.811-.585-.002-.003-.809.588zm3.067 2.401l-.044-.999h-.003l.047.999zm1.7-.827l.663.748.003-.003-.666-.745zm.704-.731l-.747-.665-.007.008-.006.008.76.649zm1.011-1.143l-.754-.657.754.657zm.13-.187l.803.596-.803-.596zm3.868-5.75l-.824-.566-.006.009-.006.008.836.549zm.275-.373v-1h-.481l-.3.376.781.624zm.923 0l.798-.603-.3-.397h-.498v1zm.567.77l.749-.662-.749.662zm3.059 4.85l-.822.569.822-.569zm.315.422l-.832.554.039.059.048.053.745-.666zm1.967 2.133l-.665.747.665-.747zm1.708.828l.023-1h-.023v1zm8.867-10.41l.88.475.557-1.031-1.106-.388-.331.944zm-6.809-1.839l.154-.988-.499-.078-.358.355.703.711zm-19.871-.314l.637-.771-.34-.281-.437.062.14.99zm3.952 12.489c.267-.239.532-.515.798-.826l-1.52-1.299c-.221.257-.424.467-.611.634l1.333 1.491zm.784-.81c.339-.381.683-.766 1.02-1.153l-1.509-1.313c-.327.376-.663.753-1.004 1.135l1.493 1.331zm1.198-1.4c.191-.257 3.453-5.114 3.901-5.798l-1.672-1.097c-.223.341-1.144 1.715-2.035 3.04-.444.661-.879 1.307-1.214 1.801-.167.248-.309.457-.413.61-.053.077-.095.14-.127.185-.036.052-.048.069-.046.067l1.606 1.192zm3.89-5.781c.078-.113.152-.215.232-.315l-1.563-1.247c-.115.143-.218.285-.318.431l1.649 1.131zm-.55.062h.923v-2h-.923v2zm.125-.397c.084.111.145.204.248.353.096.139.213.302.367.477l1.499-1.325c-.077-.087-.142-.175-.221-.289-.072-.104-.179-.266-.297-.422l-1.596 1.206zm.615.83c.317.358.666.945 1.168 1.815.482.834 1.067 1.856 1.819 2.941l1.644-1.138c-.698-1.008-1.244-1.961-1.731-2.804-.466-.806-.922-1.597-1.401-2.139l-1.499 1.325zm2.987 4.756c.092.134.163.224.217.291.051.063.067.084.088.116l1.665-1.108c-.076-.114-.144-.198-.19-.256-.043-.054-.081-.102-.136-.181l-1.644 1.138zm6.167-10.146c-.828.82-2.124 1.448-3.761 1.846-1.624.395-3.503.544-5.41.47-1.904-.075-3.803-.371-5.459-.846-1.671-.479-3.027-1.121-3.901-1.844l-1.274 1.541c1.168.967 2.814 1.707 4.623 2.226 1.824.523 3.883.841 5.934.921 2.048.08 4.119-.077 5.96-.525 1.828-.444 3.512-1.196 4.695-2.368l-1.407-1.421zm-19.308-.593c-2.286.323-5.118 1.256-7.318 2.228l.809 1.829c2.094-.925 4.743-1.788 6.789-2.077l-.28-1.98zm-7.774 3.652c1.574 2.658 3.867 5.675 5.623 8.095l1.619-1.175c-1.803-2.485-4.009-5.386-5.521-7.939l-1.721 1.019zm5.622 8.093c.326.452.809 1.161 1.398 1.726.591.568 1.438 1.14 2.527 1.089l-.094-1.998c-.29.014-.626-.128-1.048-.534-.425-.408-.785-.932-1.161-1.453l-1.622 1.17zm3.921 2.815c1.027-.045 1.79-.608 2.32-1.078l-1.327-1.497c-.441.392-.765.563-1.08.577l.087 1.998zm4.127-3.044c.033-.038.057-.072.063-.08.011-.015.02-.028.027-.038.013-.019.028-.041.038-.057.027-.041.042-.062.05-.072l-1.606-1.192c-.023.03-.043.059-.059.083-.017.024-.033.048-.045.066-.014.02-.021.031-.026.039-.003.004-.002.002.002-.003.002-.003.006-.009.012-.017.005-.006.018-.022.035-.042l1.509 1.313zm7.637-.258c.58.648 1.272 1.524 2.047 2.214l1.33-1.493c-.662-.59-1.185-1.27-1.886-2.054l-1.491 1.333zm2.047 2.214c.492.438 1.316 1.081 2.373 1.081v-2c-.258 0-.591-.171-1.043-.574l-1.33 1.493zm11.571-11.273c-2.214-.777-4.59-1.512-6.986-1.883l-.307 1.976c2.214.343 4.454 1.031 6.631 1.794l.662-1.887zm-9.222 12.354c.588.013 1.145-.186 1.633-.453.494-.271.979-.646 1.445-1.07.93-.849 1.874-1.987 2.743-3.164 1.744-2.362 3.288-5.024 3.95-6.248l-1.76-.951c-.635 1.175-2.13 3.751-3.799 6.011-.836 1.133-1.691 2.152-2.482 2.874-.396.361-.751.626-1.058.794-.313.171-.515.21-.625.207l-.047 2z" fill="#333" mask="url(#a)"/><path fill-rule="evenodd" clip-rule="evenodd" d="M143.53 276.888l.163.024c2.773.397 6.927 1.713 10.979 3.346 4.054 1.635 8.081 3.617 10.589 5.38.475.333.899.839 1.282 1.438.387.605.753 1.338 1.099 2.161.692 1.644 1.324 3.695 1.884 5.901 1.122 4.415 1.976 9.518 2.452 13.386l.049.392-.337.206c-3.839 2.349-7.711 4.635-11.96 6.322l-.006.002-.005.002c-2.064.771-2.838 1.039-4.526 1.579l-.008.002c-2.341.713-11.947 2.992-23.667 2.971-11.715-.022-25.636-2.341-36.5095-10.919l-.2618-.207.031-.332c.4643-4.978 1.624-9.948 3.0163-14.027.6963-2.04 1.4536-3.865 2.216-5.362.757-1.487 1.538-2.687 2.294-3.446.647-.65 1.911-1.447 3.472-2.283 1.583-.847 3.539-1.768 5.628-2.658 4.17-1.775 8.92-3.444 12.343-4.145l.038-.007.037-.003c4.15-.323 8.731-.087 12.442.147.428.027.843.054 1.244.08 1.351.087 2.548.164 3.529.201.636.024 1.166.029 1.58.011.438-.019.67-.063.759-.099l.154-.063zm27.84 31.711c-3.838 2.348-7.67 4.609-11.866 6.275-2.055.768-2.82 1.032-4.498 1.569-4.58 1.395-38.18 9.069-59.6182-7.844.9188-9.851 4.5939-19.692 7.3502-22.459 2.302-2.311 14.403-7.54 21.132-8.918 4.57-.356 9.685-.025 13.592.227 3.107.201 5.449.352 6.145.07 5.397.774 16.398 5.174 21.302 8.621 3.063 2.152 5.513 14.76 6.461 22.459z" fill="#333"/><path d="M123.701 277.189l-.065.266.189.198c1.082 1.136 2.776 1.895 4.663 2.363 1.9.47 4.055.659 6.124.61 2.067-.05 4.074-.337 5.675-.836.8-.25 1.514-.557 2.087-.924.57-.364 1.035-.81 1.281-1.351l.082-.18-.063-.187c-.769-2.284-.822-4.66-.846-7.129v0-.001 0-.001 0-.001 0-.001 0-.001 0-.001 0-.001 0-.001 0-.001 0-.001 0-.001 0-.001 0-.001 0-.001 0-.001 0-.001 0-.001 0-.001 0V270v0-.001 0-.001 0-.001 0-.001 0-.001 0-.001 0-.001 0-.001 0-.001 0-.001 0-.001 0-.001 0-.001 0-.001 0-.001 0-.001 0-.001 0-.001 0-.001 0-.001 0-.001 0-.001 0-.001 0-.001 0-.001 0-.001 0-.001 0-.001 0-.001 0-.002 0-.001 0-.001 0-.001 0-.001 0-.002 0-.001 0-.001 0-.002 0-.001 0-.002 0-.001 0-.002 0-.001 0-.002 0-.001 0-.002 0-.001 0-.002 0-.002 0-.002 0-.001 0-.002 0-.002 0-.002 0-.002 0-.002 0-.002 0-.002 0-.002 0-.002 0-.002 0-.003 0-.002 0-.002 0-.003 0-.002 0-.003 0-.002 0-.003 0-.002 0-.003 0-.003 0-.003 0-.003 0-.003 0-.003 0-.003 0-.003 0-.003 0-.003 0-.004 0-.003 0-.004 0-.003 0-.004 0-.003 0-.004 0-.004 0-.003 0-.004 0-.004 0-.004 0-.004 0-.004 0-.004 0-.004 0-.004 0-.004 0-.003 0-.004 0-.004 0-.004 0-.004 0-.004 0-.004 0-.004 0-.003 0-.004 0-.004 0-.003 0-.004 0-.003 0-.004 0-.003 0-.004 0-.003 0-.003 0-.003 0-.003 0-.003 0-.003 0-.003 0-.003 0-.003 0-.002 0-.996l-.799.595c-2.515 1.873-5.466 2.951-8.624 2.951-2.968 0-5.759-.95-8.168-2.621l-.785-.545V270.208l-.012.237c-.119 2.373-.235 4.684-.739 6.744z" fill="#FEFEFE" stroke="#333"/><path fill-rule="evenodd" clip-rule="evenodd" d="M134.007 272.773c11.624 0 18.101-12.646 17.057-22.922-3.904-.348-17.24-1.119-21.561-13.265-1.793 4.394-3.67 6.649-11.81 9.343-.924 3.343-1.106 6.875-.559 10.297 1.355 8.336 7.796 16.547 16.873 16.547z" fill="#FEFEFE"/><path fill-rule="evenodd" clip-rule="evenodd" d="M129.311 236.575c4.277 12.153 17.506 12.924 21.387 13.273.318 3.161.3 6.387-.608 9.432 11.905-29.143-16.064-34.643-21.185-28.322-11.301-.892-17.366 14.139-11.856 25.277-.543-3.426-.362-6.964.555-10.311 8.066-2.696 9.928-4.953 11.707-9.349z" fill="#EFEFEF" stroke="#333" stroke-linejoin="round"/><path d="M117.809 245.787c-2.946 9.972.836 20.78 9.975 25.442 4.028 2.063 8.841 2.055 12.87 0 7.805-3.982 11.237-12.977 10.395-21.703" stroke="#333"/><path d="M126.19 337.434v5.543c0 .597-.127 1.132-.381 1.605-.25.473-.629.848-1.136 1.125-.508.273-1.147.41-1.916.41-1.098 0-1.934-.287-2.508-.861-.571-.578-.856-1.346-.856-2.303v-5.519h1.407v5.396c0 .715.167 1.242.503 1.582.336.34.838.51 1.506.51.461 0 .836-.08 1.125-.24.293-.164.508-.403.645-.715.14-.317.211-.697.211-1.143v-5.39h1.4zm7.617 6.234c0 .508-.125.945-.375 1.312-.246.368-.602.649-1.067.844-.46.196-1.011.293-1.652.293-.312 0-.611-.017-.896-.053-.286-.035-.555-.085-.809-.152-.25-.07-.478-.154-.686-.252v-1.324c.348.152.737.291 1.167.416.429.121.867.182 1.312.182.363 0 .664-.047.902-.141.243-.098.422-.234.539-.41.118-.18.176-.389.176-.627 0-.254-.068-.469-.205-.645-.137-.175-.344-.336-.621-.48-.273-.149-.617-.307-1.031-.475-.281-.113-.551-.242-.809-.386-.254-.145-.48-.315-.68-.51-.199-.196-.357-.426-.474-.692-.113-.269-.17-.586-.17-.949 0-.484.115-.898.346-1.242.234-.344.562-.607.984-.791.426-.184.922-.275 1.488-.275.45 0 .871.046 1.266.14.398.094.789.227 1.172.399l-.445 1.13c-.352-.144-.694-.259-1.026-.345-.328-.086-.664-.129-1.008-.129-.297 0-.549.045-.756.135-.207.089-.365.216-.474.38-.106.161-.158.352-.158.575 0 .25.06.461.181.633.125.167.317.322.574.462.262.141.598.297 1.008.469.473.195.873.401 1.201.615.333.215.586.473.762.774.176.297.264.67.264 1.119zm6.984 2.332h-4.852v-8.566h4.852v1.183h-3.446v2.326h3.229v1.178h-3.229v2.69h3.446V346zm4.74-8.566c.738 0 1.347.089 1.828.269.484.18.843.453 1.078.82.238.368.357.834.357 1.401 0 .422-.078.781-.234 1.078-.156.297-.361.543-.615.738-.254.196-.526.352-.815.469l2.432 3.791h-1.588l-2.068-3.434h-1.377V346h-1.407v-8.566h2.409zm-.094 1.171h-.908v2.801h.972c.653 0 1.125-.121 1.418-.363.297-.242.446-.6.446-1.072 0-.496-.159-.848-.475-1.055-.313-.207-.797-.311-1.453-.311z" fill="#333"/><path d="M331 92.5c1.933 0 3.5 1.567 3.5 3.5v61.145c0 1.729-.109 3.058-.344 4.075-.235 1.02-.604 1.767-1.155 2.287-.553.522-1.234.764-1.986.88-.732.113-1.581.113-2.502.113h-92.029c-1.005 0-1.897 0-2.644-.113-.768-.115-1.445-.358-1.981-.889-.53-.526-.862-1.277-1.067-2.291-.205-1.013-.292-2.338-.292-4.062V96c0-1.933 1.567-3.5 3.5-3.5h97z" fill="#FEFEFE" stroke="#333"/><path d="M231 96c0-1.6569 1.343-3 3-3h97c1.657 0 3 1.3431 3 3v14H231V96z" fill="#666"/><rect x="239.5" y="97.5" width="87" height="7" rx="3.5" fill="#D9D9D9" stroke="#333"/><path d="M247.703 128.189l-6.96-2.858v-.87l6.96-3.232v1.243l-5.121 2.361 5.121 1.989v1.367zM253.27 119.838l-3.445 9.743h-1.426l3.445-9.743h1.426zM253.966 126.822l4.609-1.988-4.609-2.362v-1.243l6.264 3.232v.87l-6.264 2.858v-1.367z" fill="#333"/><path fill-rule="evenodd" clip-rule="evenodd" d="M299 134.5c0-.276.155-.5.347-.5h24.306c.192 0 .347.224.347.5s-.155.5-.347.5h-24.306c-.192 0-.347-.224-.347-.5zM268 134.5c0-.276.149-.5.333-.5h21.334c.184 0 .333.224.333.5s-.149.5-.333.5h-21.334c-.184 0-.333-.224-.333-.5zM271.365 127.297c0-.276.155-.5.347-.5h51.306c.192 0 .347.224.347.5 0 .277-.155.5-.347.5h-51.306c-.192 0-.347-.223-.347-.5zM250 141.5c0-.276.157-.5.352-.5h63.296c.195 0 .352.224.352.5s-.157.5-.352.5h-63.296c-.195 0-.352-.224-.352-.5zM241 148.5c0-.276.151-.5.338-.5h26.325c.186 0 .337.224.337.5s-.151.5-.337.5h-26.325c-.187 0-.338-.224-.338-.5zM277 148.5c0-.276.157-.5.351-.5h46.298c.194 0 .351.224.351.5s-.157.5-.351.5h-46.298c-.194 0-.351-.224-.351-.5z" fill="#333"/><path fill-rule="evenodd" clip-rule="evenodd" d="M271.365 118.75c0-.552.443-1 .99-1h50.019c.547 0 .991.448.991 1s-.444 1-.991 1h-50.019c-.547 0-.99-.448-.99-1z" fill="url(#paint1_linear_2389_49567)"/><path d="M307 97.5h-.5V104h.5-.5v.5h16.685c1.86 0 3.315-1.597 3.315-3.5 0-1.9025-1.455-3.5-3.315-3.5H307z" fill="url(#paint2_linear_2389_49567)" stroke="#333"/><g filter="url(#filter0_d_2389_49567)"><rect x="205.5" y="152.5" width="155" height="41" rx="2.5" fill="#ECEEF1" stroke="#D0D5DA"/><path d="M234.699 169.434L231.705 178h-1.489l-2.994-8.566h1.442l1.804 5.367c.055.156.114.345.176.568.067.223.127.447.182.674.058.227.103.428.135.603.031-.175.074-.376.128-.603.059-.227.12-.451.182-.674.063-.223.121-.414.176-.574l1.81-5.361h1.442zm6.456 8.566h-4.851v-8.566h4.851v1.183h-3.445v2.326h3.229v1.178h-3.229v2.69h3.445V178zm4.74-8.566c.738 0 1.348.089 1.828.269.485.18.844.453 1.078.82.239.368.358.834.358 1.401 0 .422-.078.781-.235 1.078-.156.297-.361.543-.615.738-.254.196-.525.352-.814.469l2.431 3.791h-1.587l-2.069-3.434h-1.377V178h-1.406v-8.566h2.408zm-.094 1.171h-.908v2.801h.973c.652 0 1.125-.121 1.418-.363.297-.242.445-.6.445-1.072 0-.496-.158-.848-.474-1.055-.313-.207-.797-.311-1.454-.311zm10.775 5.063c0 .508-.125.945-.375 1.312-.246.368-.601.649-1.066.844-.461.196-1.012.293-1.652.293-.313 0-.612-.017-.897-.053-.285-.035-.555-.085-.808-.152-.25-.07-.479-.154-.686-.252v-1.324c.348.152.736.291 1.166.416.43.121.867.182 1.312.182.364 0 .665-.047.903-.141.242-.098.422-.234.539-.41.117-.18.176-.389.176-.627 0-.254-.069-.469-.205-.645-.137-.175-.344-.336-.622-.48-.273-.149-.617-.307-1.031-.475-.281-.113-.551-.242-.808-.386-.254-.145-.481-.315-.68-.51-.199-.196-.357-.426-.475-.692-.113-.269-.17-.586-.17-.949 0-.484.116-.898.346-1.242.235-.344.563-.607.985-.791.425-.184.921-.275 1.488-.275.449 0 .871.046 1.265.14.399.094.789.227 1.172.399l-.445 1.13c-.352-.144-.693-.259-1.025-.345-.329-.086-.664-.129-1.008-.129-.297 0-.549.045-.756.135-.207.089-.365.216-.475.38-.105.161-.158.352-.158.575 0 .25.061.461.182.633.125.167.316.322.574.462.262.141.598.297 1.008.469.472.195.873.401 1.201.615.332.215.586.473.762.774.175.297.263.67.263 1.119zm2.133 2.332v-8.566h1.406V178h-1.406zm11.753-4.295c0 .66-.084 1.262-.252 1.805-.164.539-.412 1.004-.744 1.394-.332.387-.748.686-1.248.897-.5.211-1.086.316-1.758.316-.683 0-1.277-.105-1.781-.316-.5-.211-.916-.512-1.248-.903-.328-.39-.574-.857-.738-1.4-.164-.543-.247-1.144-.247-1.805 0-.882.145-1.652.434-2.308.293-.66.736-1.172 1.33-1.535.598-.368 1.352-.551 2.262-.551.891 0 1.631.181 2.221.545.589.363 1.031.875 1.324 1.535.297.656.445 1.432.445 2.326zm-6.539 0c0 .66.09 1.233.27 1.717.179.48.455.851.826 1.113.375.258.855.387 1.441.387.59 0 1.07-.129 1.442-.387.371-.262.644-.633.82-1.113.176-.484.264-1.057.264-1.717 0-1.004-.202-1.789-.604-2.355-.398-.571-1.035-.856-1.91-.856-.586 0-1.068.129-1.447.387-.375.258-.653.627-.832 1.107-.18.477-.27 1.049-.27 1.717zM279.93 178h-1.728l-4.195-6.838h-.053c.015.231.029.475.041.733.015.257.027.523.035.796.012.274.021.551.029.832V178h-1.277v-8.566h1.717l4.189 6.791h.041c-.008-.2-.017-.428-.029-.686-.012-.258-.024-.523-.035-.797-.008-.277-.014-.545-.018-.803v-4.505h1.283V178zm13.083 0h-1.4v-3.867h-3.949V178h-1.406v-8.566h1.406v3.504h3.949v-3.504h1.4V178zm2.748 0v-8.566h1.406V178h-1.406zm9.093-2.332c0 .508-.125.945-.375 1.312-.246.368-.601.649-1.066.844-.461.196-1.012.293-1.652.293-.313 0-.612-.017-.897-.053-.285-.035-.555-.085-.809-.152-.25-.07-.478-.154-.685-.252v-1.324c.348.152.736.291 1.166.416.43.121.867.182 1.312.182.364 0 .665-.047.903-.141.242-.098.422-.234.539-.41.117-.18.176-.389.176-.627 0-.254-.069-.469-.205-.645-.137-.175-.344-.336-.622-.48-.273-.149-.617-.307-1.031-.475-.281-.113-.551-.242-.808-.386-.254-.145-.481-.315-.68-.51-.199-.196-.357-.426-.475-.692-.113-.269-.17-.586-.17-.949 0-.484.116-.898.346-1.242.234-.344.563-.607.984-.791.426-.184.922-.275 1.489-.275.449 0 .871.046 1.265.14.399.094.789.227 1.172.399l-.445 1.13c-.352-.144-.693-.259-1.025-.345-.329-.086-.665-.129-1.008-.129-.297 0-.549.045-.756.135-.207.089-.365.216-.475.38-.105.161-.158.352-.158.575 0 .25.061.461.182.633.125.167.316.322.574.462.262.141.598.297 1.008.469.472.195.873.401 1.201.615.332.215.586.473.762.774.175.297.263.67.263 1.119zm5.103 2.332h-1.412v-7.371h-2.508v-1.195h6.422v1.195h-2.502V178zm11.9-4.295c0 .66-.084 1.262-.252 1.805-.164.539-.412 1.004-.744 1.394-.332.387-.748.686-1.248.897-.5.211-1.086.316-1.758.316-.683 0-1.277-.105-1.781-.316-.5-.211-.916-.512-1.248-.903-.328-.39-.574-.857-.738-1.4-.164-.543-.246-1.144-.246-1.805 0-.882.144-1.652.433-2.308.293-.66.737-1.172 1.33-1.535.598-.368 1.352-.551 2.262-.551.891 0 1.631.181 2.221.545.59.363 1.031.875 1.324 1.535.297.656.445 1.432.445 2.326zm-6.539 0c0 .66.09 1.233.27 1.717.179.48.455.851.826 1.113.375.258.855.387 1.441.387.59 0 1.071-.129 1.442-.387.371-.262.644-.633.82-1.113.176-.484.264-1.057.264-1.717 0-1.004-.201-1.789-.604-2.355-.398-.571-1.035-.856-1.91-.856-.586 0-1.068.129-1.447.387-.375.258-.653.627-.832 1.107-.18.477-.27 1.049-.27 1.717zm11.267-4.271c.739 0 1.348.089 1.828.269.485.18.844.453 1.079.82.238.368.357.834.357 1.401 0 .422-.078.781-.234 1.078-.157.297-.362.543-.616.738-.254.196-.525.352-.814.469l2.432 3.791h-1.588l-2.069-3.434h-1.377V178h-1.406v-8.566h2.408zm-.093 1.171h-.909v2.801h.973c.652 0 1.125-.121 1.418-.363.297-.242.445-.6.445-1.072 0-.496-.158-.848-.474-1.055-.313-.207-.797-.311-1.453-.311zm8.255 2.737l2.033-3.908h1.518l-2.848 5.238V178h-1.4v-3.275l-2.854-5.291h1.529l2.022 3.908z" fill="#333"/></g><rect x="365" y="244" width="254" height="128" rx="10" fill="#F5F5F5" stroke="#444" stroke-width="2" stroke-linecap="round" stroke-linejoin="round" stroke-dasharray="5 7"/><rect x="396.5" y="273.5" width="58" height="31" rx="2.5" fill="#ECEEF1"/><path d="M415.862 285.434L412.868 294h-1.488l-2.994-8.566h1.441l1.805 5.367c.055.156.113.345.176.568.066.223.127.447.181.674.059.227.104.428.135.603.031-.175.074-.376.129-.603.059-.227.119-.451.182-.674.062-.223.121-.414.176-.574l1.81-5.361h1.441zm6.457 8.566h-4.852v-8.566h4.852v1.183h-3.445v2.326h3.228v1.178h-3.228v2.69h3.445V294zm4.74-8.566c.738 0 1.347.089 1.828.269.484.18.844.453 1.078.82.238.368.357.834.357 1.401 0 .422-.078.781-.234 1.078-.156.297-.361.543-.615.738-.254.196-.526.352-.815.469L431.09 294h-1.588l-2.068-3.434h-1.377V294h-1.406v-8.566h2.408zm-.094 1.171h-.908v2.801h.973c.652 0 1.125-.121 1.417-.363.297-.242.446-.6.446-1.072 0-.496-.158-.848-.475-1.055-.312-.207-.797-.311-1.453-.311zm12.89 7.395h-1.383v-5.514c0-.183.002-.367.006-.55.004-.184.008-.364.012-.54.007-.175.017-.343.029-.503-.082.089-.184.187-.305.293-.117.105-.242.214-.375.328l-.984.785-.692-.873 2.543-1.992h1.149V294z" fill="#333"/><rect x="396.5" y="273.5" width="58" height="31" rx="2.5" stroke="#D0D5DA"/><rect x="463.5" y="273.5" width="58" height="31" rx="2.5" fill="#ECEEF1"/><path d="M482.862 285.434L479.868 294h-1.488l-2.994-8.566h1.441l1.805 5.367c.055.156.113.345.176.568.066.223.127.447.181.674.059.227.104.428.135.603.031-.175.074-.376.129-.603.059-.227.119-.451.182-.674.062-.223.121-.414.176-.574l1.81-5.361h1.441zm6.457 8.566h-4.852v-8.566h4.852v1.183h-3.445v2.326h3.228v1.178h-3.228v2.69h3.445V294zm4.74-8.566c.738 0 1.347.089 1.828.269.484.18.844.453 1.078.82.238.368.357.834.357 1.401 0 .422-.078.781-.234 1.078-.156.297-.361.543-.615.738-.254.196-.526.352-.815.469L498.09 294h-1.588l-2.068-3.434h-1.377V294h-1.406v-8.566h2.408zm-.094 1.171h-.908v2.801h.973c.652 0 1.125-.121 1.417-.363.297-.242.446-.6.446-1.072 0-.496-.158-.848-.475-1.055-.312-.207-.797-.311-1.453-.311zM508.607 294h-5.801v-1.037l2.221-2.25c.429-.438.783-.815 1.06-1.131.278-.32.483-.623.615-.908.137-.285.205-.596.205-.932 0-.414-.119-.726-.357-.937-.238-.215-.553-.323-.943-.323-.371 0-.715.075-1.032.223-.312.145-.636.352-.972.621l-.756-.908c.238-.203.492-.389.762-.557.273-.168.578-.3.914-.398.336-.102.718-.152 1.148-.152.543 0 1.012.097 1.406.293.395.191.698.458.909.802.214.344.322.744.322 1.201 0 .461-.092.887-.276 1.278-.183.39-.445.777-.785 1.16-.34.379-.744.791-1.213 1.236l-1.482 1.448v.064h4.055V294z" fill="#333"/><rect x="463.5" y="273.5" width="58" height="31" rx="2.5" stroke="#D0D5DA"/><rect x="530.5" y="273.5" width="58" height="31" rx="2.5" fill="#ECEEF1"/><path d="M549.862 285.434L546.868 294h-1.488l-2.994-8.566h1.441l1.805 5.367c.055.156.113.345.176.568.066.223.127.447.181.674.059.227.104.428.135.603.031-.175.074-.376.129-.603.059-.227.119-.451.182-.674.062-.223.121-.414.176-.574l1.81-5.361h1.441zm6.457 8.566h-4.852v-8.566h4.852v1.183h-3.445v2.326h3.228v1.178h-3.228v2.69h3.445V294zm4.74-8.566c.738 0 1.347.089 1.828.269.484.18.844.453 1.078.82.238.368.357.834.357 1.401 0 .422-.078.781-.234 1.078-.156.297-.361.543-.615.738-.254.196-.526.352-.815.469L565.09 294h-1.588l-2.068-3.434h-1.377V294h-1.406v-8.566h2.408zm-.094 1.171h-.908v2.801h.973c.652 0 1.125-.121 1.417-.363.297-.242.446-.6.446-1.072 0-.496-.158-.848-.475-1.055-.312-.207-.797-.311-1.453-.311zm14.314.786c0 .386-.079.722-.235 1.007-.156.286-.371.52-.644.704-.27.179-.582.308-.938.386v.041c.684.086 1.199.301 1.547.645.352.344.527.799.527 1.365 0 .496-.119.94-.357 1.33-.238.387-.604.692-1.096.914-.492.223-1.125.334-1.898.334-.465 0-.897-.037-1.295-.111-.395-.074-.77-.194-1.125-.358v-1.224c.363.18.75.318 1.16.416.41.098.799.146 1.166.146.715 0 1.225-.132 1.529-.398.305-.27.457-.641.457-1.113 0-.305-.08-.555-.24-.75-.156-.196-.4-.342-.732-.44-.328-.097-.752-.146-1.272-.146h-.756v-1.108h.762c.496 0 .895-.058 1.195-.176.301-.121.518-.287.651-.498.137-.211.205-.457.205-.738 0-.367-.119-.652-.358-.855-.238-.207-.591-.311-1.06-.311-.289 0-.553.033-.791.1-.234.066-.451.15-.65.252-.2.101-.389.211-.569.328l-.662-.955c.324-.242.711-.448 1.16-.616.449-.167.973-.251 1.571-.251.878 0 1.556.189 2.033.568.476.375.715.879.715 1.512z" fill="#333"/><rect x="530.5" y="273.5" width="58" height="31" rx="2.5" stroke="#D0D5DA"/><rect x="429" y="313.5" width="58" height="31" rx="2.5" fill="#ECEEF1"/><path d="M448.362 325.434L445.368 334h-1.488l-2.994-8.566h1.441l1.805 5.367c.055.156.113.345.176.568.066.223.127.447.181.674.059.227.104.428.135.603.031-.175.074-.376.129-.603.059-.227.119-.451.182-.674.062-.223.121-.414.176-.574l1.81-5.361h1.441zm6.457 8.566h-4.852v-8.566h4.852v1.183h-3.445v2.326h3.228v1.178h-3.228v2.69h3.445V334zm4.74-8.566c.738 0 1.347.089 1.828.269.484.18.844.453 1.078.82.238.368.357.834.357 1.401 0 .422-.078.781-.234 1.078-.156.297-.361.543-.615.738-.254.196-.526.352-.815.469L463.59 334h-1.588l-2.068-3.434h-1.377V334h-1.406v-8.566h2.408zm-.094 1.171h-.908v2.801h.973c.652 0 1.125-.121 1.417-.363.297-.242.446-.6.446-1.072 0-.496-.158-.848-.475-1.055-.312-.207-.797-.311-1.453-.311zm14.952 5.514h-1.16V334h-1.359v-1.881h-3.897v-1.043l3.914-5.666h1.342v5.567h1.16v1.142zm-2.519-1.142v-2.127c0-.176.002-.354.006-.534.007-.183.015-.359.023-.527.008-.168.016-.322.023-.463.008-.144.014-.264.018-.357h-.047c-.074.156-.156.316-.246.48-.09.16-.185.317-.287.469l-2.109 3.059h2.619z" fill="#333"/><rect x="429" y="313.5" width="58" height="31" rx="2.5" stroke="#D0D5DA"/><rect x="496" y="313.5" width="60" height="31" rx="2.5" fill="#ECEEF1"/><path d="M515.097 325.434L512.103 334h-1.489l-2.994-8.566h1.442l1.804 5.367c.055.156.114.345.176.568.067.223.127.447.182.674.058.227.103.428.135.603.031-.175.074-.376.128-.603.059-.227.12-.451.182-.674.063-.223.121-.414.176-.574l1.81-5.361h1.442zm6.456 8.566h-4.851v-8.566h4.851v1.183h-3.445v2.326h3.229v1.178h-3.229v2.69h3.445V334zm4.74-8.566c.738 0 1.348.089 1.828.269.485.18.844.453 1.078.82.239.368.358.834.358 1.401 0 .422-.078.781-.235 1.078-.156.297-.361.543-.615.738-.254.196-.525.352-.814.469l2.431 3.791h-1.587l-2.069-3.434h-1.377V334h-1.406v-8.566h2.408zm-.094 1.171h-.908v2.801h.973c.652 0 1.125-.121 1.418-.363.297-.242.445-.6.445-1.072 0-.496-.158-.848-.474-1.055-.313-.207-.797-.311-1.454-.311zM542.775 334h-1.729l-4.195-6.838h-.053c.016.231.029.475.041.733.016.257.027.523.035.796.012.274.022.551.03.832V334h-1.278v-8.566h1.717l4.189 6.791h.042c-.008-.2-.018-.428-.03-.686-.012-.258-.023-.523-.035-.797-.008-.277-.014-.545-.018-.803v-4.505h1.284V334z" fill="#333"/><rect x="496" y="313.5" width="60" height="31" rx="2.5" stroke="#D0D5DA"/><path d="M693 114.228c0-3.787 3.085-6.857 6.889-6.857h48.222c3.805 0 6.889 3.07 6.889 6.857v13.713h-62v-13.713zM693 130.4h62v20.371h-62V130.4zM693 153.428h62v13.581c0 3.75-3.084 6.791-6.889 6.791h-48.222c-3.805 0-6.889-3.041-6.889-6.791v-13.581z" fill="#444"/><path d="M734.17 116.442c0 1.223-.991 2.215-2.214 2.215-1.223 0-2.215-.992-2.215-2.215 0-1.223.992-2.214 2.215-2.214 1.223 0 2.214.991 2.214 2.214zM741.058 116.442c0 1.223-.991 2.215-2.214 2.215-1.223 0-2.214-.992-2.214-2.215 0-1.223.991-2.214 2.214-2.214 1.223 0 2.214.991 2.214 2.214zM747.947 116.442c0 1.223-.991 2.215-2.214 2.215-1.223 0-2.215-.992-2.215-2.215 0-1.223.992-2.214 2.215-2.214 1.223 0 2.214.991 2.214 2.214zM734.17 139.299c0 1.223-.991 2.214-2.214 2.214-1.223 0-2.215-.991-2.215-2.214 0-1.223.992-2.215 2.215-2.215 1.223 0 2.214.992 2.214 2.215zM741.058 139.299c0 1.223-.991 2.214-2.214 2.214-1.223 0-2.214-.991-2.214-2.214 0-1.223.991-2.215 2.214-2.215 1.223 0 2.214.992 2.214 2.215zM747.947 139.299c0 1.223-.991 2.214-2.214 2.214-1.223 0-2.215-.991-2.215-2.214 0-1.223.992-2.215 2.215-2.215 1.223 0 2.214.992 2.214 2.215zM734.17 162.155c0 1.223-.991 2.214-2.214 2.214-1.223 0-2.215-.991-2.215-2.214 0-1.223.992-2.214 2.215-2.214 1.223 0 2.214.991 2.214 2.214zM741.058 162.155c0 1.223-.991 2.214-2.214 2.214-1.223 0-2.214-.991-2.214-2.214 0-1.223.991-2.214 2.214-2.214 1.223 0 2.214.991 2.214 2.214zM747.947 162.155c0 1.223-.991 2.214-2.214 2.214-1.223 0-2.215-.991-2.215-2.214 0-1.223.992-2.214 2.215-2.214 1.223 0 2.214.991 2.214 2.214z" fill="#fff"/><path d="M648.329 93.0826c0-1.0834.574-2.4931 1.556-3.6411.978-1.144 2.284-1.9415 3.679-1.9415h42.955l19.01 19.139v61.078c0 3.122-2.361 5.583-5.235 5.583h-56.73c-2.874 0-5.235-2.461-5.235-5.583V93.0826z" fill="#F9F9F9" stroke="#333"/><rect x="661.114" y="114.457" width="47" height="2" rx="1" fill="#666"/><rect x="661.114" y="122.457" width="47" height="2" rx="1" fill="#666"/><rect x="661.114" y="130.457" width="47" height="2" rx="1" fill="#666"/><rect x="661.114" y="138.457" width="47" height="2" rx="1" fill="#666"/><rect x="661.114" y="146.457" width="47" height="2" rx="1" fill="#666"/><rect x="661.114" y="154.457" width="47" height="2" rx="1" fill="#666"/><path d="M699.052 107.371s-3.395 0-3.395-3.395V87l20.372 20.371h-16.977z" fill="#333"/><path fill-rule="evenodd" clip-rule="evenodd" d="M645.939 121.014l-13.197-6.278c-.735-.359-1.742-1.121-1.742-2.405 0-1.3 1.022-2.044 1.772-2.382l5.263-2.511 9.246 4.417c.286.139.763.248 1.318.248.558 0 1.009-.11 1.255-.236l.019-.009 9.253-4.42 5.292 2.525c.736.359 1.742 1.121 1.742 2.405 0 1.3-1.022 2.044-1.773 2.382l-13.16 6.262c-.802.387-1.769.531-2.628.531-.867 0-1.835-.146-2.646-.522l-.014-.007zm4.594-1.447l13.183-6.272c1.123-.498 1.123-1.344 0-1.891l-4.59-2.191-8.544 4.082c-1.074.548-2.881.548-4.004 0l-8.544-4.082-4.589 2.191c-1.123.497-1.123 1.344 0 1.891l13.182 6.272c1.074.498 2.881.498 3.906 0z" fill="#fff"/><path fill-rule="evenodd" clip-rule="evenodd" d="M663.972 103.583c1.128.585 1.128 1.49 0 2.021l-13.246 6.702c-1.129.585-2.944.585-4.023 0l-13.246-6.702c-1.129-.585-1.129-1.489 0-2.021l4.513-2.287 8.733 4.415c1.128.585 2.943.585 4.023 0l8.732-4.415 4.514 2.287zm-31.191-1.554l5.188-2.6291 9.44 4.7721c.288.149.767.265 1.324.265.56 0 1.014-.117 1.261-.252l.02-.011 9.445-4.7741 5.219 2.6441c.739.383 1.751 1.197 1.751 2.57 0 1.389-1.028 2.184-1.782 2.545l-13.223 6.69c-.839.433-1.828.608-2.728.608-.891 0-1.876-.172-2.703-.614l-13.242-6.699c-.74-.384-1.751-1.198-1.751-2.57 0-1.389 1.027-2.184 1.781-2.545z" fill="#fff"/><path fill-rule="evenodd" clip-rule="evenodd" d="M645.939 105.781l-13.196-6.2781c-.736-.3588-1.743-1.1205-1.743-2.405 0-1.3001 1.023-2.044 1.774-2.3823l13.159-6.2608c.835-.4051 1.819-.5691 2.715-.5691.886 0 1.866.1608 2.689.5744l13.179 6.2701c.736.3588 1.742 1.1206 1.742 2.405 0 1.3002-1.022 2.044-1.773 2.3823L651.3 105.791l-.019.008c-.822.364-1.789.511-2.67.511-.876 0-1.845-.145-2.657-.522l-.015-.007zm17.875-7.7187c1.123-.4977 1.123-1.3439 0-1.8915l-13.183-6.2718c-1.074-.5475-2.88-.5475-4.003 0l-13.183 6.2718c-1.123.4978-1.123 1.344 0 1.8915l13.183 6.2717c1.074.498 2.88.498 4.003 0l13.183-6.2717z" fill="#fff"/><path fill-rule="evenodd" clip-rule="evenodd" d="M646.598 120.138l-13.462-6.546c-1.147-.572-1.147-1.455 0-1.974l4.687-2.286 8.725 4.26c1.147.571 2.992.571 4.089 0l8.726-4.26 4.687 2.286c1.146.571 1.146 1.454 0 1.974l-13.463 6.546c-1.047.52-2.892.52-3.989 0z" fill="#FF6F3D"/><path fill-rule="evenodd" clip-rule="evenodd" d="M646.598 112.085l-13.462-6.546c-1.147-.572-1.147-1.455 0-1.974l4.587-2.234 8.875 4.312c1.147.571 2.992.571 4.089 0l8.875-4.312 4.587 2.234c1.147.571 1.147 1.454 0 1.974l-13.462 6.546c-1.147.572-2.992.572-4.089 0z" fill="#95C038"/><path fill-rule="evenodd" clip-rule="evenodd" d="M646.599 104.24l-13.463-6.5461c-1.147-.5715-1.147-1.4548 0-1.9743l13.463-6.5463c1.147-.5715 2.991-.5715 4.088 0l13.463 6.5463c1.147.5715 1.147 1.4547 0 1.9743l-13.463 6.5461c-1.146.52-2.991.52-4.088 0z" fill="#5DC0E8"/><path d="M647.626 190.435c0 .964-.18 1.771-.539 2.419-.359.645-.881 1.131-1.564 1.459-.684.325-1.508.487-2.473.487h-2.379v-8.567h2.637c.887 0 1.652.161 2.297.481.644.316 1.142.787 1.494 1.412.351.621.527 1.391.527 2.309zm-1.465.041c0-.704-.111-1.282-.334-1.735-.218-.453-.543-.789-.972-1.008-.426-.222-.951-.334-1.576-.334h-1.202v6.223h.996c1.036 0 1.809-.264 2.321-.791.511-.527.767-1.312.767-2.355zm11.396.029c0 .66-.084 1.262-.252 1.805-.164.539-.412 1.003-.744 1.394-.332.387-.748.686-1.248.897-.5.211-1.086.316-1.758.316-.683 0-1.277-.105-1.781-.316-.5-.211-.916-.512-1.248-.903-.328-.39-.574-.857-.738-1.4-.164-.543-.246-1.145-.246-1.805 0-.883.144-1.652.433-2.308.293-.661.737-1.172 1.33-1.536.598-.367 1.352-.55 2.262-.55.891 0 1.631.181 2.221.545.59.363 1.031.875 1.324 1.535.297.656.445 1.431.445 2.326zm-6.539 0c0 .66.09 1.232.27 1.717.18.48.455.851.826 1.113.375.258.855.387 1.441.387.59 0 1.071-.129 1.442-.387.371-.262.644-.633.82-1.113.176-.485.264-1.057.264-1.717 0-1.004-.201-1.789-.604-2.356-.398-.57-1.035-.855-1.91-.855-.586 0-1.068.129-1.447.387-.375.257-.652.627-.832 1.107-.18.477-.27 1.049-.27 1.717zm12.51-3.199c-.411 0-.778.074-1.102.222-.32.149-.592.364-.814.645-.223.277-.393.615-.51 1.014-.117.394-.176.839-.176 1.335 0 .665.094 1.237.281 1.717.188.477.473.844.856 1.102.383.254.867.381 1.453.381.363 0 .717-.035 1.06-.106.344-.07.7-.166 1.067-.287v1.195c-.348.137-.699.237-1.055.299-.355.063-.765.094-1.23.094-.875 0-1.602-.182-2.18-.545-.574-.363-1.004-.875-1.289-1.535-.281-.66-.422-1.434-.422-2.32 0-.649.09-1.243.27-1.782.179-.539.441-1.004.785-1.394.343-.395.767-.697 1.271-.908.508-.215 1.088-.323 1.74-.323.43 0 .852.049 1.266.147.418.094.805.228 1.16.404l-.492 1.16c-.297-.14-.607-.261-.932-.363-.324-.102-.66-.152-1.007-.152zm11.161-1.073v5.543c0 .598-.127 1.133-.381 1.606-.25.472-.629.847-1.136 1.125-.508.273-1.147.41-1.916.41-1.098 0-1.934-.287-2.508-.861-.57-.578-.856-1.346-.856-2.303v-5.52h1.407v5.397c0 .715.168 1.242.504 1.582.335.34.837.51 1.505.51.461 0 .836-.08 1.125-.241.293-.164.508-.402.645-.714.141-.317.211-.698.211-1.143v-5.391h1.4zm6.369 8.567l-2.467-7.154h-.053c.012.16.026.378.041.656.016.277.03.574.041.89.012.317.018.62.018.909v4.699h-1.277v-8.567h1.974l2.373 6.838h.035l2.456-6.838h1.968v8.567h-1.342v-4.77c0-.261.004-.545.012-.849.012-.305.024-.594.035-.868.016-.273.028-.492.036-.656h-.047L682.3 194.8h-1.242zm12.697 0h-4.852v-8.567h4.852v1.184h-3.446v2.326h3.229v1.178h-3.229v2.689h3.446v1.19zm9.48 0h-1.729l-4.195-6.838h-.053c.016.23.029.475.041.732.016.258.027.524.035.797.012.274.022.551.03.832v4.477h-1.278v-8.567h1.717l4.19 6.791h.041c-.008-.199-.018-.427-.03-.685-.011-.258-.023-.524-.035-.797-.008-.277-.014-.545-.018-.803v-4.506h1.284v8.567zm5.7 0h-1.412v-7.371h-2.508v-1.196h6.422v1.196h-2.502v7.371zm12.837-2.332c0 .508-.125.945-.375 1.312-.246.367-.601.649-1.066.844-.461.195-1.012.293-1.652.293-.313 0-.612-.018-.897-.053-.285-.035-.555-.086-.808-.152-.25-.07-.479-.154-.686-.252v-1.324c.348.152.736.291 1.166.416.43.121.867.181 1.312.181.364 0 .665-.046.903-.14.242-.098.422-.235.539-.41.117-.18.176-.389.176-.627 0-.254-.069-.469-.205-.645-.137-.176-.344-.336-.621-.48-.274-.149-.618-.307-1.032-.475-.281-.113-.551-.242-.808-.387-.254-.144-.481-.314-.68-.509-.199-.196-.357-.426-.475-.692-.113-.269-.17-.586-.17-.949 0-.484.116-.898.346-1.242.235-.344.563-.608.985-.791.425-.184.921-.276 1.488-.276.449 0 .871.047 1.265.141.399.094.789.227 1.172.398l-.445 1.131c-.352-.144-.693-.259-1.025-.345-.329-.086-.664-.129-1.008-.129-.297 0-.549.045-.756.134-.207.09-.365.217-.475.381-.105.16-.158.352-.158.575 0 .25.061.46.182.632.125.168.316.323.574.463.262.141.598.297 1.008.469.472.195.873.4 1.201.615.332.215.586.473.762.774.175.297.263.67.263 1.119zm6.984 2.332h-4.851v-8.567h4.851v1.184h-3.445v2.326h3.228v1.178h-3.228v2.689h3.445v1.19zm4.74-8.567c.738 0 1.348.09 1.828.27.485.18.844.453 1.078.82.239.367.358.834.358 1.401 0 .422-.078.781-.235 1.078-.156.297-.361.543-.615.738-.254.195-.525.352-.814.469l2.431 3.791h-1.588l-2.068-3.434h-1.377v3.434h-1.406v-8.567h2.408zm-.094 1.172h-.908v2.801h.973c.652 0 1.125-.121 1.418-.363.297-.242.445-.6.445-1.072 0-.497-.158-.848-.475-1.055-.312-.207-.796-.311-1.453-.311zm12.181-1.172l-2.994 8.567h-1.488l-2.994-8.567h1.441l1.805 5.368c.055.156.113.345.176.568.066.223.127.447.181.674.059.226.104.428.135.603.031-.175.074-.377.129-.603.059-.227.119-.451.182-.674.062-.223.121-.414.175-.574l1.811-5.362h1.441zm1.605 8.567v-8.567h1.407v8.567h-1.407zm7.799-7.494c-.41 0-.778.074-1.102.222-.32.149-.592.364-.814.645-.223.277-.393.615-.51 1.014-.117.394-.176.839-.176 1.335 0 .665.094 1.237.281 1.717.188.477.473.844.856 1.102.383.254.867.381 1.453.381.363 0 .717-.035 1.061-.106.343-.07.699-.166 1.066-.287v1.195c-.348.137-.699.237-1.055.299-.355.063-.765.094-1.23.094-.875 0-1.602-.182-2.18-.545-.574-.363-1.004-.875-1.289-1.535-.281-.66-.422-1.434-.422-2.32 0-.649.09-1.243.27-1.782.179-.539.441-1.004.785-1.394.344-.395.768-.697 1.271-.908.508-.215 1.088-.323 1.741-.323.429 0 .851.049 1.265.147.418.094.805.228 1.16.404l-.492 1.16c-.297-.14-.607-.261-.931-.363-.325-.102-.661-.152-1.008-.152zm9.286 7.494h-4.851v-8.567h4.851v1.184h-3.445v2.326h3.229v1.178h-3.229v2.689h3.445v1.19z" fill="#333"/><path d="M703.707 72.6655c-.39.3905-1.024.3905-1.414 0l-6.364-6.364c-.391-.3905-.391-1.0236 0-1.4142.39-.3905 1.024-.3905 1.414 0L703 70.5442l5.657-5.6569c.39-.3905 1.024-.3905 1.414 0 .391.3906.391 1.0237 0 1.4142l-6.364 6.364zM281 34h-1c0-.2652.105-.5196.293-.7071.187-.1875.442-.2929.707-.2929v1zm1 38c0 .5523-.448 1-1 1s-1-.4477-1-1h2zm421-38v-1c.552 0 1 .4477 1 1h-1zm-421 0v38h-2V34h2zm420 37.9584V34h2v37.9584h-2zM703 35H281v-2h422v2z" fill="#FF6F3D"/><path d="M701 327.5c-8.008 0-14.5-6.492-14.5-14.5s6.492-14.5 14.5-14.5 14.5 6.492 14.5 14.5-6.492 14.5-14.5 14.5z" fill="#F9F9F9" stroke="#D0D5DA"/><path d="M705.061 310.024c0 .803-.244 1.486-.73 2.048-.486.563-1.169.949-2.048 1.16v.053c1.037.129 1.822.445 2.356.949.533.498.799 1.172.799 2.022 0 1.236-.448 2.2-1.344 2.891-.897.686-2.177 1.029-3.841 1.029-1.395 0-2.631-.232-3.709-.695v-2.311c.498.252 1.046.457 1.644.615.597.158 1.189.237 1.775.237.896 0 1.558-.152 1.986-.457.428-.304.642-.794.642-1.467 0-.604-.246-1.032-.738-1.284-.493-.252-1.278-.377-2.356-.377h-.976v-2.083h.994c.996 0 1.722-.129 2.179-.387.463-.264.695-.712.695-1.345 0-.973-.61-1.459-1.828-1.459-.422 0-.853.07-1.292.211-.434.141-.917.384-1.451.73l-1.256-1.873c1.171-.843 2.569-1.265 4.192-1.265 1.33 0 2.379.269 3.146.808.774.539 1.161 1.289 1.161 2.25z" fill="#666"/><path d="M284 327.5c-8.008 0-14.5-6.492-14.5-14.5s6.492-14.5 14.5-14.5 14.5 6.492 14.5 14.5-6.492 14.5-14.5 14.5z" fill="#F9F9F9" stroke="#D0D5DA"/><path d="M288.061 310.024c0 .803-.244 1.486-.73 2.048-.486.563-1.169.949-2.048 1.16v.053c1.037.129 1.822.445 2.356.949.533.498.799 1.172.799 2.022 0 1.236-.448 2.2-1.344 2.891-.897.686-2.177 1.029-3.841 1.029-1.395 0-2.631-.232-3.709-.695v-2.311c.498.252 1.046.457 1.644.615.597.158 1.189.237 1.775.237.896 0 1.558-.152 1.986-.457.428-.304.642-.794.642-1.467 0-.604-.246-1.032-.738-1.284-.493-.252-1.278-.377-2.356-.377h-.976v-2.083h.994c.996 0 1.722-.129 2.179-.387.463-.264.695-.712.695-1.345 0-.973-.61-1.459-1.828-1.459-.422 0-.853.07-1.292.211-.434.141-.917.384-1.451.73l-1.256-1.873c1.171-.843 2.569-1.265 4.192-1.265 1.33 0 2.379.269 3.146.808.774.539 1.161 1.289 1.161 2.25z" fill="#666"/><path d="M456.5 33c0 8.0081-6.492 14.5-14.5 14.5s-14.5-6.4919-14.5-14.5c0-8.0081 6.492-14.5 14.5-14.5s14.5 6.4919 14.5 14.5z" fill="#F9F9F9" stroke="#D0D5DA"/><path d="M446.852 37.3369h-1.547V40h-2.655v-2.6631h-5.484v-1.8896l5.634-8.2969h2.505v8.0771h1.547v2.1094zm-4.202-2.1094v-2.1796c0-.3633.015-.8907.044-1.5821.03-.6914.053-1.0928.071-1.2041h-.071c-.216.4805-.477.9492-.782 1.4063l-2.355 3.5595h3.093z" fill="#666"/><rect x="532.5" y="18.5" width="60" height="31" rx="2.5" fill="#ECEEF1"/><path d="M551.597 30.4336L548.603 39h-1.489l-2.994-8.5664h1.442l1.804 5.3672c.055.1562.114.3457.176.5683.067.2227.127.4473.182.6739.058.2265.103.4277.135.6035.031-.1758.074-.377.128-.6035.059-.2266.12-.4512.182-.6739.063-.2226.121-.414.176-.5742l1.81-5.3613h1.442zM558.053 39h-4.851v-8.5664h4.851v1.1836h-3.445v2.3262h3.229v1.1777h-3.229v2.6894h3.445V39zm4.74-8.5664c.738 0 1.348.0898 1.828.2695.485.1797.844.4531 1.078.8203.239.3672.358.834.358 1.4004 0 .4219-.078.7813-.235 1.0782-.156.2968-.361.5429-.615.7382-.254.1953-.525.3516-.814.4688L566.824 39h-1.587l-2.069-3.4336h-1.377V39h-1.406v-8.5664h2.408zm-.094 1.1719h-.908v2.8007h.973c.652 0 1.125-.121 1.418-.3632.297-.2422.445-.5996.445-1.0723 0-.4961-.158-.8477-.474-1.0547-.313-.207-.797-.3105-1.454-.3105zM579.275 39h-1.729l-4.195-6.8379h-.053c.016.2305.029.4746.041.7324.016.2578.027.5235.035.7969.012.2734.022.5508.03.832V39h-1.278v-8.5664h1.717l4.189 6.791h.042c-.008-.1992-.018-.4277-.03-.6855-.012-.2579-.023-.5235-.035-.7969-.008-.2774-.014-.5449-.018-.8027v-4.5059h1.284V39z" fill="#333"/><rect x="532.5" y="18.5" width="60" height="31" rx="2.5" stroke="#D0D5DA"/><rect x="411.5" y="137.5" width="60" height="31" rx="2.5" fill="#ECEEF1"/><path d="M430.597 149.434L427.603 158h-1.489l-2.994-8.566h1.442l1.804 5.367c.055.156.114.345.176.568.067.223.127.447.182.674.058.227.103.428.135.603.031-.175.074-.376.128-.603.059-.227.12-.451.182-.674.063-.223.121-.414.176-.574l1.81-5.361h1.442zm6.456 8.566h-4.851v-8.566h4.851v1.183h-3.445v2.326h3.229v1.178h-3.229v2.69h3.445V158zm4.74-8.566c.738 0 1.348.089 1.828.269.485.18.844.453 1.078.82.239.368.358.834.358 1.401 0 .422-.078.781-.235 1.078-.156.297-.361.543-.615.738-.254.196-.525.352-.814.469l2.431 3.791h-1.587l-2.069-3.434h-1.377V158h-1.406v-8.566h2.408zm-.094 1.171h-.908v2.801h.973c.652 0 1.125-.121 1.418-.363.297-.242.445-.6.445-1.072 0-.496-.158-.848-.474-1.055-.313-.207-.797-.311-1.454-.311zM458.275 158h-1.729l-4.195-6.838h-.053c.016.231.029.475.041.733.016.257.027.523.035.796.012.274.022.551.03.832V158h-1.278v-8.566h1.717l4.189 6.791h.042c-.008-.2-.018-.428-.03-.686-.012-.258-.023-.523-.035-.797-.008-.277-.014-.545-.018-.803v-4.505h1.284V158z" fill="#333"/><rect x="411.5" y="137.5" width="60" height="31" rx="2.5" stroke="#D0D5DA"/><rect x=".5" y=".5" width="831" height="401" rx="2.5" stroke="#D0D5DA"/><defs><linearGradient id="paint0_linear_2389_49567" x1="120.526" y1="283.578" x2="135.91" y2="307.406" gradientUnits="userSpaceOnUse"><stop stop-color="#FFC671"/><stop offset="1" stop-color="#FF6F3D"/></linearGradient><linearGradient id="paint1_linear_2389_49567" x1="269.887" y1="116.75" x2="347.632" y2="116.75" gradientUnits="userSpaceOnUse"><stop stop-color="#FF8E3D"/><stop offset="1" stop-color="#FF6F3D"/></linearGradient><linearGradient id="paint2_linear_2389_49567" x1="307" y1="97.7656" x2="310.341" y2="108.759" gradientUnits="userSpaceOnUse"><stop stop-color="#FF8E3D"/><stop offset="1" stop-color="#FF6F3D"/></linearGradient><filter id="filter0_d_2389_49567" x="190" y="144" width="186" height="72" filterUnits="userSpaceOnUse" color-interpolation-filters="sRGB"><feFlood flood-opacity="0" result="BackgroundImageFix"/><feColorMatrix in="SourceAlpha" values="0 0 0 0 0 0 0 0 0 0 0 0 0 0 0 0 0 0 127 0" result="hardAlpha"/><feOffset dy="7"/><feGaussianBlur stdDeviation="7.5"/><feColorMatrix values="0 0 0 0 0.333333 0 0 0 0 0.333333 0 0 0 0 0.333333 0 0 0 0.1 0"/><feBlend in2="BackgroundImageFix" result="effect1_dropShadow_2389_49567"/><feBlend in="SourceGraphic" in2="effect1_dropShadow_2389_49567" result="shape"/></filter></defs></svg>