<svg width="32" height="32" viewBox="0 0 32 32" fill="none" xmlns="http://www.w3.org/2000/svg">
<path d="M26.5 27C26.5 27.8284 25.8284 28.5 25 28.5H7C6.17157 28.5 5.5 27.8284 5.5 27V3C5.5 2.17157 6.17157 1.5 7 1.5H19.7929L26.5 8.20711V27Z" fill="white" stroke="#333333"/>
<path d="M13.5 19C13.5 18.1716 14.1716 17.5 15 17.5H29C29.8284 17.5 30.5 18.1716 30.5 19V30C30.5 30.2761 30.2761 30.5 30 30.5H14C13.7239 30.5 13.5 30.2761 13.5 30V19Z" fill="#F5F5F5" stroke="#333333"/>
<path d="M13.5 19C13.5 18.1716 14.1716 17.5 15 17.5H29C29.8284 17.5 30.5 18.1716 30.5 19V20.5H13.5V19Z" fill="url(#paint0_linear_1717_6718)" stroke="#333333"/>
<path fill-rule="evenodd" clip-rule="evenodd" d="M24.9064 27.8296C24.6835 27.6024 24.6835 27.2332 24.9064 27.006L26.3841 25.5L24.9064 23.9939C24.6835 23.7667 24.6835 23.3975 24.9064 23.1703C25.1293 22.9432 25.4915 22.9432 25.7144 23.1703L28 25.5L25.7144 27.8296C25.4915 28.0568 25.1293 28.0568 24.9064 27.8296ZM18.2856 27.8296L16 25.5L18.2856 23.1703C18.5085 22.9432 18.8707 22.9432 19.0936 23.1703C19.3165 23.3975 19.3165 23.7667 19.0936 23.9939L17.6159 25.5L19.0936 27.006C19.3165 27.2332 19.3165 27.6024 19.0936 27.8296C18.8707 28.0568 18.5085 28.0568 18.2856 27.8296ZM20.6019 27.0481C20.4608 27.3357 20.5756 27.6858 20.8578 27.8297C21.1401 27.9735 21.4835 27.8571 21.6242 27.5688L23.3989 23.9513C23.54 23.6643 23.4257 23.3143 23.1435 23.1703C22.8612 23.0265 22.5178 23.1431 22.3766 23.4307L20.6019 27.0481Z" fill="#333333"/>
<path d="M20.5 7.5V2.20711L25.7929 7.5H20.5Z" fill="#FF6F3D" stroke="#333333"/>
<rect x="9" y="5" width="8" height="1" rx="0.5" fill="#333333"/>
<rect x="9" y="8" width="8" height="1" rx="0.5" fill="#333333"/>
<rect x="9" y="11" width="14" height="1" rx="0.5" fill="#333333"/>
<rect x="9" y="14" width="14" height="1" rx="0.5" fill="#333333"/>
<defs>
<linearGradient id="paint0_linear_1717_6718" x1="22" y1="17" x2="22" y2="21" gradientUnits="userSpaceOnUse">
<stop stop-color="#FF8E3D"/>
<stop offset="1" stop-color="#FF6F3D"/>
</linearGradient>
</defs>
</svg>
