<svg width="32" height="32" viewBox="0 0 32 32" fill="none" xmlns="http://www.w3.org/2000/svg">
<path d="M15.5 31.5L1.5 22.5V11.5L15.5 20.5V31.5Z" fill="var(--temp-color-icon-32-plugins-0)" stroke="var(--temp-color-icon-32-plugins-1)" stroke-miterlimit="10" stroke-linecap="round" stroke-linejoin="round"/>
<path d="M15.5 31.5L29.5 22.5V11.5L15.5 20.5V31.5Z" fill="var(--temp-color-icon-32-plugins-0)" stroke="var(--temp-color-icon-32-plugins-1)" stroke-miterlimit="10" stroke-linecap="round" stroke-linejoin="round"/>
<path d="M13.8777 3.54289L1.5 11.5L15.5 20.5L29.5 11.5L17.1223 3.54289C16.1341 2.9076 14.8659 2.9076 13.8777 3.54289Z" fill="#9ADAF3" stroke="var(--temp-color-icon-32-plugins-1)" stroke-linejoin="round"/>
<path d="M13 3.5C12.7239 3.5 12.5 3.72386 12.5 4V6.85714C12.5 7.48779 13.0405 7.89686 13.5265 8.11902C14.0581 8.36206 14.757 8.5 15.5 8.5C16.243 8.5 16.9419 8.36206 17.4735 8.11902C17.9595 7.89686 18.5 7.48779 18.5 6.85714V4C18.5 3.72386 18.2761 3.5 18 3.5H13Z" fill="var(--temp-color-icon-32-plugins-2)" stroke="var(--temp-color-icon-32-plugins-1)" stroke-miterlimit="10" stroke-linecap="round" stroke-linejoin="round"/>
<path d="M13 12.5C12.7239 12.5 12.5 12.7239 12.5 13V15.8571C12.5 16.4878 13.0405 16.8969 13.5265 17.119C14.0581 17.3621 14.757 17.5 15.5 17.5C16.243 17.5 16.9419 17.3621 17.4735 17.119C17.9595 16.8969 18.5 16.4878 18.5 15.8571V13C18.5 12.7239 18.2761 12.5 18 12.5H13Z" fill="var(--temp-color-icon-32-plugins-2)" stroke="var(--temp-color-icon-32-plugins-1)" stroke-miterlimit="10" stroke-linecap="round" stroke-linejoin="round"/>
<path d="M4 7.5C3.72386 7.5 3.5 7.72386 3.5 8V10.8571C3.5 11.4878 4.04052 11.8969 4.5265 12.119C5.05814 12.3621 5.75695 12.5 6.5 12.5C7.24305 12.5 7.94186 12.3621 8.47351 12.119C8.95948 11.8969 9.5 11.4878 9.5 10.8571V8C9.5 7.72386 9.27614 7.5 9 7.5H4Z" fill="var(--temp-color-icon-32-plugins-2)" stroke="var(--temp-color-icon-32-plugins-1)" stroke-miterlimit="10" stroke-linecap="round" stroke-linejoin="round"/>
<path d="M22 7.5C21.7239 7.5 21.5 7.72386 21.5 8V10.8571C21.5 11.4878 22.0405 11.8969 22.5265 12.119C23.0581 12.3621 23.757 12.5 24.5 12.5C25.243 12.5 25.9419 12.3621 26.4735 12.119C26.9595 11.8969 27.5 11.4878 27.5 10.8571V8C27.5 7.72386 27.2761 7.5 27 7.5H22Z" fill="var(--temp-color-icon-32-plugins-2)" stroke="var(--temp-color-icon-32-plugins-1)" stroke-miterlimit="10" stroke-linecap="round" stroke-linejoin="round"/>
<path d="M15.5 5.5C16.2377 5.5 16.9286 5.38131 17.4535 5.17135C17.7145 5.06692 17.9594 4.93007 18.1471 4.75252C18.3359 4.57398 18.5 4.31985 18.5 4C18.5 3.68015 18.3359 3.42602 18.1471 3.24748C17.9594 3.06993 17.7145 2.93308 17.4535 2.82865C16.9286 2.61869 16.2377 2.5 15.5 2.5C14.7623 2.5 14.0714 2.61869 13.5465 2.82865C13.2855 2.93308 13.0406 3.06993 12.8529 3.24748C12.6641 3.42602 12.5 3.68015 12.5 4C12.5 4.31985 12.6641 4.57398 12.8529 4.75252C13.0406 4.93007 13.2855 5.06692 13.5465 5.17135C14.0714 5.38131 14.7623 5.5 15.5 5.5Z" fill="var(--temp-color-icon-32-plugins-3)" stroke="var(--temp-color-icon-32-plugins-1)" stroke-miterlimit="10" stroke-linecap="round" stroke-linejoin="round"/>
<path d="M15.5 14.5C16.2377 14.5 16.9286 14.3813 17.4535 14.1713C17.7145 14.0669 17.9594 13.9301 18.1471 13.7525C18.3359 13.574 18.5 13.3199 18.5 13C18.5 12.6801 18.3359 12.426 18.1471 12.2475C17.9594 12.0699 17.7145 11.9331 17.4535 11.8287C16.9286 11.6187 16.2377 11.5 15.5 11.5C14.7623 11.5 14.0714 11.6187 13.5465 11.8287C13.2855 11.9331 13.0406 12.0699 12.8529 12.2475C12.6641 12.426 12.5 12.6801 12.5 13C12.5 13.3199 12.6641 13.574 12.8529 13.7525C13.0406 13.9301 13.2855 14.0669 13.5465 14.1713C14.0714 14.3813 14.7623 14.5 15.5 14.5Z" fill="var(--temp-color-icon-32-plugins-3)" stroke="var(--temp-color-icon-32-plugins-1)" stroke-miterlimit="10" stroke-linecap="round" stroke-linejoin="round"/>
<path d="M6.5 9.5C7.23768 9.5 7.92855 9.38131 8.45346 9.17135C8.71453 9.06692 8.95936 8.93007 9.14709 8.75252C9.33588 8.57398 9.5 8.31985 9.5 8C9.5 7.68015 9.33588 7.42602 9.14709 7.24748C8.95936 7.06993 8.71453 6.93308 8.45346 6.82865C7.92855 6.61869 7.23768 6.5 6.5 6.5C5.76232 6.5 5.07145 6.61869 4.54654 6.82865C4.28547 6.93308 4.04064 7.06993 3.85291 7.24748C3.66412 7.42602 3.5 7.68015 3.5 8C3.5 8.31985 3.66412 8.57398 3.85291 8.75252C4.04064 8.93007 4.28547 9.06692 4.54654 9.17135C5.07145 9.38131 5.76232 9.5 6.5 9.5Z" fill="var(--temp-color-icon-32-plugins-3)" stroke="var(--temp-color-icon-32-plugins-1)" stroke-miterlimit="10" stroke-linecap="round" stroke-linejoin="round"/>
<path d="M24.5 9.5C25.2377 9.5 25.9286 9.38131 26.4535 9.17135C26.7145 9.06692 26.9594 8.93007 27.1471 8.75252C27.3359 8.57398 27.5 8.31985 27.5 8C27.5 7.68015 27.3359 7.42602 27.1471 7.24748C26.9594 7.06993 26.7145 6.93308 26.4535 6.82865C25.9286 6.61869 25.2377 6.5 24.5 6.5C23.7623 6.5 23.0714 6.61869 22.5465 6.82865C22.2855 6.93308 22.0406 7.06993 21.8529 7.24748C21.6641 7.42602 21.5 7.68015 21.5 8C21.5 8.31985 21.6641 8.57398 21.8529 8.75252C22.0406 8.93007 22.2855 9.06692 22.5465 9.17135C23.0714 9.38131 23.7623 9.5 24.5 9.5Z" fill="var(--temp-color-icon-32-plugins-3)" stroke="var(--temp-color-icon-32-plugins-1)" stroke-miterlimit="10" stroke-linecap="round" stroke-linejoin="round"/>
</svg>



    