<svg width="832" height="402" viewBox="0 0 832 402" fill="none" xmlns="http://www.w3.org/2000/svg"><rect x=".5" y=".5" width="831" height="401" rx="2.5" fill="#F9F9F9"/><rect x="307" y="25" width="493" height="362" rx="10" fill="#F5F5F5" stroke="gray" stroke-linecap="round" stroke-linejoin="round" stroke-dasharray="5 7"/><path d="M141 243c0 .552.448 1 1 1s1-.448 1-1h-2zm1.707-77.707c-.39-.391-1.024-.391-1.414 0l-6.364 6.364c-.391.39-.391 1.024 0 1.414.39.391 1.024.391 1.414 0l5.657-5.657 5.657 5.657c.39.391 1.024.391 1.414 0 .391-.39.391-1.024 0-1.414l-6.364-6.364zM143 243v-31.119h-2V243h2zm0-31.119V166h-2v45.881h2z" fill="#666"/><path fill-rule="evenodd" clip-rule="evenodd" d="M171.946 315.14c-4.908-3.446-15.919-7.847-21.322-8.621-1.571.638-11.544-.935-19.755-.297-6.736 1.378-18.848 6.607-21.152 8.918-2.759 2.768-6.437 12.608-7.357 22.459 21.458 16.913 55.09 9.239 59.674 7.844 1.679-.537 2.445-.801 4.502-1.569 4.2-1.666 8.035-3.927 11.877-6.275-.949-7.699-3.401-20.306-6.467-22.459z" fill="#FEFEFE"/><path fill-rule="evenodd" clip-rule="evenodd" d="M147.147 347.965c0-8.335-.434-16.656-2.177-24.821-.408-1.595-.892-3.049-1.476-4.304l1.476-1.733.479-2.561c-2.343-3.357-3.523-5.8-4.481-6.01-1.11-.244-2.151 2.404-4.971 6.191l1.042 2.144 1.201 1.769c-3.056 9.125-3.973 20.34-3.973 29.638 4.28.415 11.64.415 12.88-.313z" fill="url(#paint0_linear_2387_49014)"/><path d="M147.133 348.077c0-8.259-.423-16.506-2.125-24.597-.399-1.581-.871-3.022-1.441-4.265m-5.371-.268c-1.362 2.916-3.943 12.88-3.943 29.44" stroke="#333"/><path d="M145.907 314.653c-1.9 4.763-3.21 6.147-4.749 6.134-1.688-.016-2.849-1.371-5.065-6.134" stroke="#333" stroke-linecap="round"/><mask id="a" fill="#fff"><path fill-rule="evenodd" clip-rule="evenodd" d="M123.827 307.913c1.542 2.606 3.792 5.564 5.572 8.017.702.973 1.688 2.466 3.067 2.401.67-.029 1.214-.396 1.7-.827.226-.203.461-.446.704-.73.34-.382.679-.763 1.011-1.144.017-.019.082-.122.13-.187.169-.228 3.414-5.057 3.868-5.75.089-.13.178-.251.275-.373h.923c.202.268.336.51.567.771.795.899 1.61 2.756 3.059 4.849.147.213.218.276.315.422.641.716 1.249 1.494 1.967 2.134.472.42 1.051.827 1.708.827 2.79.065 7.569-8.011 8.867-10.41-2.195-.77-4.503-1.481-6.809-1.839-4.023 3.984-15.787 3.065-19.871-.314-2.166.306-4.907 1.204-7.053 2.153z"/></mask><path fill-rule="evenodd" clip-rule="evenodd" d="M123.827 307.913c1.542 2.606 3.792 5.564 5.572 8.017.702.973 1.688 2.466 3.067 2.401.67-.029 1.214-.396 1.7-.827.226-.203.461-.446.704-.73.34-.382.679-.763 1.011-1.144.017-.019.082-.122.13-.187.169-.228 3.414-5.057 3.868-5.75.089-.13.178-.251.275-.373h.923c.202.268.336.51.567.771.795.899 1.61 2.756 3.059 4.849.147.213.218.276.315.422.641.716 1.249 1.494 1.967 2.134.472.42 1.051.827 1.708.827 2.79.065 7.569-8.011 8.867-10.41-2.195-.77-4.503-1.481-6.809-1.839-4.023 3.984-15.787 3.065-19.871-.314-2.166.306-4.907 1.204-7.053 2.153z" fill="#BDECFF"/><path d="M123.827 307.913l-.405-.915-1.03.455.574.969.861-.509zm5.572 8.017l.811-.585-.002-.002-.809.587zm3.067 2.401l-.044-.999h-.003l.047.999zm1.7-.827l.663.748.003-.003-.666-.745zm.704-.73l-.747-.666-.007.008-.006.008.76.65zm1.011-1.144l-.754-.657.754.657zm.13-.187l.803.596-.803-.596zm3.868-5.75l-.824-.565-.006.008-.006.009.836.548zm.275-.373v-1h-.481l-.3.376.781.624zm.923 0l.798-.603-.3-.397h-.498v1zm.567.771l.749-.663-.749.663zm3.059 4.849l-.822.569.822-.569zm.315.422l-.832.554.039.059.048.054.745-.667zm1.967 2.134l-.665.746.665-.746zm1.708.827l.023-1h-.023v1zm8.867-10.41l.88.476.557-1.032-1.106-.388-.331.944zm-6.809-1.839l.154-.988-.499-.078-.358.355.703.711zm-19.871-.314l.637-.77-.34-.282-.437.062.14.99zm3.952 12.489c.267-.238.532-.515.798-.825l-1.52-1.3c-.221.257-.424.467-.611.635l1.333 1.49zm.784-.81c.339-.38.683-.766 1.02-1.153l-1.509-1.313c-.327.376-.663.753-1.004 1.135l1.493 1.331zm1.198-1.4c.191-.257 3.453-5.114 3.901-5.797l-1.672-1.097c-.223.34-1.144 1.715-2.035 3.039-.444.661-.879 1.307-1.214 1.802-.167.247-.309.456-.413.61-.053.077-.095.139-.127.185-.036.052-.048.069-.046.067l1.606 1.191zm3.89-5.78c.078-.114.152-.215.232-.315l-1.563-1.248c-.115.144-.218.285-.318.432l1.649 1.131zm-.55.061h.923v-2h-.923v2zm.125-.397c.084.111.145.205.248.353.096.139.213.303.367.477l1.499-1.325c-.077-.086-.142-.174-.221-.289-.072-.104-.179-.266-.297-.422l-1.596 1.206zm.615.83c.317.358.666.945 1.168 1.815.482.834 1.067 1.856 1.819 2.941l1.644-1.138c-.698-1.008-1.244-1.961-1.731-2.803-.466-.807-.922-1.598-1.401-2.14l-1.499 1.325zm2.987 4.756c.092.134.163.224.217.291.051.064.067.084.088.116l1.665-1.108c-.076-.114-.144-.198-.19-.255-.043-.054-.081-.103-.136-.182l-1.644 1.138zm6.167-10.146c-.828.821-2.124 1.448-3.761 1.846-1.624.395-3.503.544-5.41.47-1.904-.074-3.803-.37-5.459-.845-1.671-.48-3.027-1.121-3.901-1.844l-1.274 1.541c1.168.966 2.814 1.706 4.623 2.225 1.824.523 3.883.841 5.934.921 2.048.08 4.119-.077 5.96-.524 1.828-.445 3.512-1.197 4.695-2.368l-1.407-1.422zm-19.308-.593c-2.286.323-5.118 1.256-7.318 2.228l.809 1.83c2.094-.926 4.743-1.788 6.789-2.078l-.28-1.98zm-7.774 3.652c1.574 2.659 3.867 5.675 5.623 8.095l1.619-1.174c-1.803-2.486-4.009-5.386-5.521-7.94l-1.721 1.019zm5.622 8.093c.326.452.809 1.161 1.398 1.726.591.568 1.438 1.14 2.527 1.089l-.094-1.998c-.29.014-.626-.128-1.048-.533-.425-.409-.785-.933-1.161-1.454l-1.622 1.17zm3.921 2.815c1.027-.044 1.79-.608 2.32-1.078l-1.327-1.496c-.441.391-.765.563-1.08.576l.087 1.998zm4.127-3.044c.033-.038.057-.072.063-.08.011-.014.02-.028.027-.038.013-.019.028-.041.038-.057.027-.04.042-.062.05-.072l-1.606-1.191c-.023.029-.043.059-.059.082-.017.024-.033.048-.045.066-.014.02-.021.031-.026.039-.003.004-.002.002.002-.003.002-.003.006-.009.012-.017.005-.006.018-.022.035-.042l1.509 1.313zm7.637-.257c.58.648 1.272 1.523 2.047 2.213l1.33-1.493c-.662-.59-1.185-1.27-1.886-2.054l-1.491 1.334zm2.047 2.213c.492.438 1.316 1.081 2.373 1.081v-2c-.258 0-.591-.171-1.043-.574l-1.33 1.493zm11.571-11.273c-2.214-.776-4.59-1.511-6.986-1.883l-.307 1.976c2.214.344 4.454 1.031 6.631 1.794l.662-1.887zm-9.222 12.354c.588.014 1.145-.186 1.633-.453.494-.27.979-.645 1.445-1.07.93-.849 1.874-1.986 2.743-3.164 1.744-2.362 3.288-5.024 3.95-6.247l-1.76-.952c-.635 1.176-2.13 3.751-3.799 6.011-.836 1.133-1.691 2.153-2.482 2.875-.396.361-.751.625-1.058.793-.313.171-.515.21-.625.207l-.047 2z" fill="#333" mask="url(#a)"/><path fill-rule="evenodd" clip-rule="evenodd" d="M150.53 305.888l.163.024c2.773.398 6.927 1.713 10.979 3.347 4.054 1.634 8.081 3.616 10.589 5.379.475.334.899.84 1.282 1.439.387.604.753 1.337 1.099 2.16.692 1.644 1.324 3.696 1.884 5.902 1.122 4.415 1.976 9.518 2.452 13.385l.049.392-.337.206c-3.839 2.349-7.711 4.635-11.96 6.322l-.006.002-.005.003c-2.064.77-2.838 1.038-4.526 1.578l-.008.003c-2.341.713-11.947 2.991-23.667 2.97-11.715-.021-25.636-2.341-36.51-10.919l-.261-.207.031-.332c.464-4.978 1.624-9.948 3.016-14.027.696-2.04 1.454-3.865 2.216-5.362.757-1.487 1.538-2.687 2.294-3.446.647-.65 1.911-1.447 3.472-2.282 1.583-.848 3.539-1.769 5.628-2.658 4.17-1.775 8.92-3.445 12.343-4.145l.038-.008.037-.003c4.15-.323 8.731-.086 12.442.147.428.027.843.054 1.244.08 1.351.087 2.548.164 3.529.201.636.024 1.166.03 1.58.012.438-.02.67-.064.759-.1l.154-.063zm27.84 31.711c-3.838 2.348-7.67 4.609-11.866 6.275-2.055.768-2.82 1.032-4.498 1.569-4.58 1.395-38.18 9.069-59.618-7.844.919-9.851 4.594-19.691 7.35-22.459 2.302-2.311 14.403-7.54 21.132-8.918 4.57-.355 9.685-.025 13.592.228 3.107.2 5.449.352 6.145.069 5.397.774 16.398 5.175 21.302 8.621 3.063 2.153 5.513 14.76 6.461 22.459z" fill="#333"/><path d="M130.701 306.189l-.065.266.189.198c1.082 1.136 2.776 1.895 4.663 2.363 1.9.47 4.055.659 6.124.61 2.067-.05 4.074-.337 5.675-.836.8-.25 1.514-.557 2.087-.924.57-.364 1.035-.81 1.281-1.351l.082-.18-.063-.187c-.769-2.284-.822-4.66-.846-7.129v0-.001 0-.001 0-.001 0-.001 0-.001 0-.001 0-.001 0-.001 0-.001 0-.001 0-.001 0-.001 0-.001 0-.001 0-.001 0-.001 0-.001 0-.001 0V299v0-.001 0-.001 0-.001 0-.001 0-.001 0-.001 0-.001 0-.001 0-.001 0-.001 0-.001 0-.001 0-.001 0-.001 0-.001 0-.001 0-.001 0-.001 0-.001 0-.001 0-.001 0-.001 0-.001 0-.001 0-.001 0-.001 0-.001 0-.001 0-.001 0-.002 0-.001 0-.001 0-.001 0-.001 0-.002 0-.001 0-.001 0-.002 0-.001 0-.002 0-.001 0-.002 0-.001 0-.002 0-.001 0-.002 0-.001 0-.002 0-.002 0-.002 0-.001 0-.002 0-.002 0-.002 0-.002 0-.002 0-.002 0-.002 0-.002 0-.002 0-.002 0-.003 0-.002 0-.002 0-.003 0-.002 0-.003 0-.002 0-.003 0-.002 0-.003 0-.003 0-.003 0-.003 0-.003 0-.003 0-.003 0-.003 0-.003 0-.003 0-.004 0-.003 0-.004 0-.003 0-.004 0-.003 0-.004 0-.004 0-.003 0-.004 0-.004 0-.004 0-.004 0-.004 0-.004 0-.004 0-.004 0-.004 0-.003 0-.004 0-.004 0-.004 0-.004 0-.004 0-.004 0-.004 0-.003 0-.004 0-.004 0-.003 0-.004 0-.003 0-.004 0-.003 0-.004 0-.003 0-.003 0-.003 0-.003 0-.003 0-.003 0-.003 0-.003 0-.003 0-.002 0-.996l-.799.595c-2.515 1.873-5.466 2.951-8.624 2.951-2.968 0-5.759-.95-8.168-2.621l-.785-.545V299.208l-.012.237c-.119 2.373-.235 4.684-.739 6.744z" fill="#FEFEFE" stroke="#333"/><path fill-rule="evenodd" clip-rule="evenodd" d="M141.007 301.773c11.624 0 18.101-12.645 17.057-22.922-3.904-.348-17.24-1.119-21.561-13.264-1.793 4.393-3.67 6.648-11.81 9.343-.924 3.342-1.106 6.874-.559 10.296 1.355 8.337 7.796 16.547 16.873 16.547z" fill="#FEFEFE"/><path fill-rule="evenodd" clip-rule="evenodd" d="M136.311 265.575c4.277 12.153 17.506 12.924 21.387 13.273.318 3.161.3 6.387-.608 9.432 11.905-29.143-16.064-34.643-21.185-28.322-11.301-.892-17.366 14.139-11.856 25.277-.543-3.426-.362-6.964.555-10.311 8.066-2.696 9.928-4.953 11.707-9.349z" fill="#EFEFEF" stroke="#333" stroke-linejoin="round"/><path d="M124.809 274.787c-2.946 9.972.836 20.78 9.975 25.442 4.028 2.063 8.841 2.055 12.87 0 7.805-3.982 11.237-12.977 10.395-21.703" stroke="#333"/><path d="M53.252 49.8335c0-2.002 1.6816-3.625 3.7561-3.625H236.44c2.075 0 3.757 1.623 3.757 3.625V153.75c0 2.002-1.682 3.625-3.757 3.625H57.0081c-2.0745 0-3.7561-1.623-3.7561-3.625V49.8335z" fill="#fff"/><path fill-rule="evenodd" clip-rule="evenodd" d="M57.0082 45H236.44c2.766 0 5.009 2.164 5.009 4.8333V153.75c0 2.669-2.243 4.833-5.009 4.833H57.0082c-2.766 0-5.0082-2.164-5.0082-4.833V49.8333C52 47.1639 54.2422 45 57.0082 45zm0 1.2083c-2.0745 0-3.7562 1.623-3.7562 3.625V153.75c0 2.002 1.6817 3.625 3.7562 3.625H236.44c2.075 0 3.757-1.623 3.757-3.625V49.8333c0-2.002-1.682-3.625-3.757-3.625H57.0082z" fill="#333"/><path d="M53.252 49.8335c0-2.002 1.6816-3.625 3.7561-3.625H236.44c2.075 0 3.757 1.623 3.757 3.625v7.3094H53.252v-7.3094z" fill="#40865C"/><path d="M53.252 57.1426h186.945V68.077H53.252V57.1426z" fill="#F2F2F2"/><path fill-rule="evenodd" clip-rule="evenodd" d="M162.149 68.6812H147.35v5.1701h14.799v-5.1701zm-30.849 0h14.798v5.1701H131.3v-5.1701zm0 6.3784h14.798v5.1701H131.3v-5.1701zm0 6.3784h14.798v5.1701H131.3V81.438zm16.05 0v5.1701h14.799V81.438H147.35zm-16.05 6.3784h14.798v5.17H131.3v-5.17zm16.05 0v5.17h14.799v-5.17H147.35zm-16.05 6.3784h14.798v5.17H131.3v-5.17zm16.05 0v5.17h14.799v-5.17H147.35zm-16.05 6.3782h14.798v5.17H131.3v-5.17zm16.05 0v5.17h14.799v-5.17H147.35zm-16.05 6.379h14.798v5.17H131.3v-5.17zm16.05 0v5.17h14.799v-5.17H147.35zm-16.05 6.378h14.798v5.17H131.3v-5.17zm16.05 0v5.17h14.799v-5.17H147.35zm-16.05 6.378h14.798v5.17H131.3v-5.17zm16.05 0v5.17h14.799v-5.17H147.35zm-16.05 6.379h14.798v5.17H131.3v-5.17zm16.05 0v5.17h14.799v-5.17H147.35zm-16.05 6.378h14.798v5.17H131.3v-5.17zm16.05 0v5.17h14.799v-5.17H147.35zm-16.05 6.379h14.798v5.17H131.3v-5.17zm16.05 0v5.17h14.799v-5.17H147.35zm-16.05 6.378h14.798v5.17H131.3v-5.17zm16.05 0v5.17h14.799v-5.17H147.35zm14.799 6.378H147.35v5.775h-1.252V151.6H131.3v5.775h-1.253V151.6h-14.798v5.775h-1.252V151.6H99.1979v5.775h-1.2521V151.6H83.147v5.775h-1.252V151.6H67.0965v5.775h-1.2521V151.6H53.252v-1.208h12.5924v-5.17H53.252v-1.208h12.5924v-5.17H53.252v-1.209h12.5924v-5.17H53.252v-1.208h12.5924v-5.17H53.252v-1.209h12.5924v-5.17H53.252V118.5h12.5924v-5.17H53.252v-1.208h12.5924v-5.17H53.252v-1.209h12.5924v-5.17H53.252v-1.2082h12.5924v-5.17H53.252v-1.2084h12.5924v-5.17H53.252v-1.2083h12.5924V81.438H53.252v-1.2083h12.5924v-5.1701H53.252v-1.2083h12.5924v-5.1701H53.252v-1.2083h186.945v1.2083h-12.593v5.1701h12.593v1.2083h-12.593v5.1701h12.593v1.2083h-12.593v5.1701h12.593v1.2083h-12.593v5.17h12.593v1.2084h-12.593v5.17h12.593v1.2082h-12.593v5.17h12.593v1.209h-12.593v5.17h12.593v1.208h-12.593v5.17h12.593v1.208h-12.593v5.17h12.593v1.209h-12.593v5.17h12.593v1.208h-12.593v5.17h12.593v1.209h-12.593v5.17h12.593v1.208h-12.593v5.17h12.593v1.208h-12.593v5.775h-1.252V151.6h-14.799v5.775h-1.252V151.6h-14.798v5.775h-1.252V151.6h-14.799v5.775H178.2V151.6h-14.799v5.775h-1.252V151.6zm-80.254-1.208H67.0965v-5.17H81.895v5.17zm1.252 0v-5.17h14.7988v5.17H83.147zm0-6.378h14.7988v-5.17H83.147v5.17zm-1.252 0v-5.17H67.0965v5.17H81.895zm0-6.379H67.0965v-5.17H81.895v5.17zm1.252 0v-5.17h14.7988v5.17H83.147zm0-6.378h14.7988v-5.17H83.147v5.17zm-1.252 0v-5.17H67.0965v5.17H81.895zm0-6.379H67.0965v-5.17H81.895v5.17zm1.252 0v-5.17h14.7988v5.17H83.147zm0-6.378h14.7988v-5.17H83.147v5.17zm-1.252 0v-5.17H67.0965v5.17H81.895zm0-6.378H67.0965v-5.17H81.895v5.17zm1.252 0v-5.17h14.7988v5.17H83.147zm0-6.379h14.7988v-5.17H83.147v5.17zm-1.252 0v-5.17H67.0965v5.17H81.895zm0-6.3782H67.0965v-5.17H81.895v5.17zm1.252 0v-5.17h14.7988v5.17H83.147zm0-6.3784h14.7988v-5.17H83.147v5.17zm-1.252 0v-5.17H67.0965v5.17H81.895zm0-6.3783H67.0965V81.438H81.895v5.1701zm1.252 0V81.438h14.7988v5.1701H83.147zm0-6.3784h14.7988v-5.1701H83.147v5.1701zm0-6.3784h14.7988v-5.1701H83.147v5.1701zm-1.252-5.1701v5.1701H67.0965v-5.1701H81.895zm0 6.3784v5.1701H67.0965v-5.1701H81.895zm65.455 0v5.1701h14.799v-5.1701H147.35zm16.051-6.3784v5.1701H178.2v-5.1701h-14.799zm0 6.3784H178.2v5.1701h-14.799v-5.1701zm16.051 0v5.1701h14.799v-5.1701h-14.799zm-16.051 6.3784H178.2v5.1701h-14.799V81.438zm16.051 0v5.1701h14.799V81.438h-14.799zm-16.051 6.3784H178.2v5.17h-14.799v-5.17zm16.051 0v5.17h14.799v-5.17h-14.799zm-16.051 6.3784H178.2v5.17h-14.799v-5.17zm16.051 0v5.17h14.799v-5.17h-14.799zm-16.051 6.3782H178.2v5.17h-14.799v-5.17zm16.051 0v5.17h14.799v-5.17h-14.799zm-16.051 6.379H178.2v5.17h-14.799v-5.17zm16.051 0v5.17h14.799v-5.17h-14.799zm-16.051 6.378H178.2v5.17h-14.799v-5.17zm16.051 0v5.17h14.799v-5.17h-14.799zm-16.051 6.378H178.2v5.17h-14.799v-5.17zm16.051 0v5.17h14.799v-5.17h-14.799zm-16.051 6.379H178.2v5.17h-14.799v-5.17zm16.051 0v5.17h14.799v-5.17h-14.799zm-16.051 6.378H178.2v5.17h-14.799v-5.17zm16.051 0v5.17h14.799v-5.17h-14.799zm-16.051 6.379H178.2v5.17h-14.799v-5.17zm16.051 0v5.17h14.799v-5.17h-14.799zm-16.051 6.378H178.2v5.17h-14.799v-5.17zm16.051 0v5.17h14.799v-5.17h-14.799zm32.101 5.17h14.799v-5.17h-14.799v5.17zm-1.252-5.17v5.17h-14.798v-5.17h14.798zm1.252-1.208h14.799v-5.17h-14.799v5.17zm-1.252-5.17v5.17h-14.798v-5.17h14.798zm1.252-1.209h14.799v-5.17h-14.799v5.17zm-1.252-5.17v5.17h-14.798v-5.17h14.798zm1.252-1.208h14.799v-5.17h-14.799v5.17zm-1.252-5.17v5.17h-14.798v-5.17h14.798zm1.252-1.209h14.799v-5.17h-14.799v5.17zm-1.252-5.17v5.17h-14.798v-5.17h14.798zm1.252-1.208h14.799v-5.17h-14.799v5.17zm-1.252-5.17v5.17h-14.798v-5.17h14.798zm1.252-1.208h14.799v-5.17h-14.799v5.17zm-1.252-5.17v5.17h-14.798v-5.17h14.798zm1.252-1.209h14.799v-5.17h-14.799v5.17zm-1.252-5.17v5.17h-14.798v-5.17h14.798zm1.252-1.2082h14.799v-5.17h-14.799v5.17zm-1.252-5.17v5.17h-14.798v-5.17h14.798zm1.252-1.2084h14.799v-5.17h-14.799v5.17zm-1.252-5.17v5.17h-14.798v-5.17h14.798zm1.252-1.2083h14.799V81.438h-14.799v5.1701zm-1.252-5.1701v5.1701h-14.798V81.438h14.798zm1.252-1.2083h14.799v-5.1701h-14.799v5.1701zm-1.252-5.1701v5.1701h-14.798v-5.1701h14.798zm1.252-1.2083h14.799v-5.1701h-14.799v5.1701zm-1.252-5.1701v5.1701h-14.798v-5.1701h14.798zm-96.304 81.7108H99.1979v-5.17h14.7991v5.17zm1.252 0v-5.17h14.798v5.17h-14.798zm0-6.378h14.798v-5.17h-14.798v5.17zm-1.252 0v-5.17H99.1979v5.17h14.7991zm0-6.379H99.1979v-5.17h14.7991v5.17zm1.252 0v-5.17h14.798v5.17h-14.798zm0-6.378h14.798v-5.17h-14.798v5.17zm-1.252 0v-5.17H99.1979v5.17h14.7991zm0-6.379H99.1979v-5.17h14.7991v5.17zm1.252 0v-5.17h14.798v5.17h-14.798zm0-6.378h14.798v-5.17h-14.798v5.17zm-1.252 0v-5.17H99.1979v5.17h14.7991zm0-6.378H99.1979v-5.17h14.7991v5.17zm1.252 0v-5.17h14.798v5.17h-14.798zm0-6.379h14.798v-5.17h-14.798v5.17zm-1.252 0v-5.17H99.1979v5.17h14.7991zm0-6.3782H99.1979v-5.17h14.7991v5.17zm1.252 0v-5.17h14.798v5.17h-14.798zm0-6.3784h14.798v-5.17h-14.798v5.17zm-1.252 0v-5.17H99.1979v5.17h14.7991zm0-6.3783H99.1979V81.438h14.7991v5.1701zm1.252 0V81.438h14.798v5.1701h-14.798zm0-6.3784h14.798v-5.1701h-14.798v5.1701zm-1.252 0v-5.1701H99.1979v5.1701h14.7991zm0-6.3784H99.1979v-5.1701h14.7991v5.1701zm1.252 0v-5.1701h14.798v5.1701h-14.798zm64.203-5.1701v5.1701h14.799v-5.1701h-14.799z" fill="#EFEFEF"/><path d="M66.3414 74.0317h80.3826v7.2896H66.3414v-7.2896z" fill="#F9FEEF"/><path fill-rule="evenodd" clip-rule="evenodd" d="M145.472 75.2401H67.5935v4.8729h77.8785v-4.8729zm-79.1306-1.2084v7.2896h80.3826v-7.2896H66.3414z" fill="#8BB825"/><path d="M66.3413 86.5781h80.3827v7.2896H66.3413v-7.2896zM66.3413 99.1243h80.3827v7.2897H66.3413v-7.2897z" fill="#EFEFEF"/><path fill-rule="evenodd" clip-rule="evenodd" d="M68.3586 90.2528c0-.3336.2803-.6041.6261-.6041h8.1896c.3457 0 .626.2705.626.6041 0 .3337-.2803.6042-.626.6042h-8.1896c-.3458 0-.6261-.2705-.6261-.6042z" fill="#AAA"/><path fill-rule="evenodd" clip-rule="evenodd" d="M69.1168 77.5736c0-.3336.2803-.6041.626-.6041h8.1896c.3458 0 .6261.2705.6261.6041 0 .3337-.2803.6042-.6261.6042h-8.1896c-.3457 0-.626-.2705-.626-.6042zM117.693 77.5736c0-.3336.281-.6041.626-.6041h8.19c.346 0 .626.2705.626.6041 0 .3337-.28.6042-.626.6042h-8.19c-.345 0-.626-.2705-.626-.6042zM85.3088 77.5736c0-.3336.2803-.6041.6261-.6041h8.1896c.3457 0 .626.2705.626.6041 0 .3337-.2803.6042-.626.6042h-8.1896c-.3458 0-.6261-.2705-.6261-.6042zM133.886 77.5736c0-.3336.28-.6041.626-.6041h8.189c.346 0 .626.2705.626.6041 0 .3337-.28.6042-.626.6042h-8.189c-.346 0-.626-.2705-.626-.6042zM101.501 77.5736c0-.3336.28-.6041.626-.6041h8.19c.345 0 .626.2705.626.6041 0 .3337-.281.6042-.626.6042h-8.19c-.346 0-.626-.2705-.626-.6042z" fill="#8BB825"/><path fill-rule="evenodd" clip-rule="evenodd" d="M68.3586 83.8744c0-.3336.2803-.6041.6261-.6041h11.0221c.3457 0 .626.2705.626.6041 0 .3337-.2803.6042-.626.6042H68.9847c-.3458 0-.6261-.2705-.6261-.6042zM69.3026 96.631c0-.3337.2803-.6041.626-.6041h10.078c.3457 0 .626.2704.626.6041s-.2803.6042-.626.6042h-10.078c-.3457 0-.626-.2705-.626-.6042zM69.1168 102.955c0-.333.2803-.604.626-.604h8.1896c.3458 0 .6261.271.6261.604 0 .334-.2803.605-.6261.605h-8.1896c-.3457 0-.626-.271-.626-.605z" fill="#AAA"/><path d="M66.3414 112.369h80.3826v7.289H66.3414v-7.289z" fill="#F2F2F2"/><path fill-rule="evenodd" clip-rule="evenodd" d="M145.472 113.577H67.5935v4.873h77.8785v-4.873zm-79.1306-1.208v7.289h80.3826v-7.289H66.3414z" fill="#444"/><path d="M66.3413 124.915h80.3827v7.29H66.3413v-7.29zM66.3413 137.462h80.3827v7.289H66.3413v-7.289z" fill="#EFEFEF"/><path fill-rule="evenodd" clip-rule="evenodd" d="M68.3586 128.59c0-.334.2803-.604.6261-.604h8.1896c.3457 0 .626.27.626.604 0 .334-.2803.604-.626.604h-8.1896c-.3458 0-.6261-.27-.6261-.604z" fill="#AAA"/><path fill-rule="evenodd" clip-rule="evenodd" d="M69.1168 115.911c0-.334.2803-.604.626-.604h8.1896c.3458 0 .6261.27.6261.604 0 .333-.2803.604-.6261.604h-8.1896c-.3457 0-.626-.271-.626-.604zM117.693 115.911c0-.334.281-.604.626-.604h8.19c.346 0 .626.27.626.604 0 .333-.28.604-.626.604h-8.19c-.345 0-.626-.271-.626-.604zM85.3088 115.911c0-.334.2803-.604.6261-.604h8.1896c.3457 0 .626.27.626.604 0 .333-.2803.604-.626.604h-8.1896c-.3458 0-.6261-.271-.6261-.604zM133.886 115.911c0-.334.28-.604.626-.604h8.189c.346 0 .626.27.626.604 0 .333-.28.604-.626.604h-8.189c-.346 0-.626-.271-.626-.604zM101.501 115.911c0-.334.28-.604.626-.604h8.19c.345 0 .626.27.626.604 0 .333-.281.604-.626.604h-8.19c-.346 0-.626-.271-.626-.604z" fill="gray"/><path fill-rule="evenodd" clip-rule="evenodd" d="M68.3586 122.212c0-.334.2803-.605.6261-.605h11.0221c.3457 0 .626.271.626.605 0 .333-.2803.604-.626.604H68.9847c-.3458 0-.6261-.271-.6261-.604zM69.3026 134.968c0-.333.2803-.604.626-.604h10.078c.3457 0 .626.271.626.604 0 .334-.2803.605-.626.605h-10.078c-.3457 0-.626-.271-.626-.605zM69.1168 141.293c0-.334.2803-.605.626-.605h8.1896c.3458 0 .6261.271.6261.605 0 .333-.2803.604-.6261.604h-8.1896c-.3457 0-.626-.271-.626-.604z" fill="#AAA"/><path fill="#fff" stroke="#444" d="M162.5 82.5h63v31h-63z"/><path d="M186.278 97.4521c0 2.1153-.603 3.7359-1.81 4.8599-1.201 1.126-2.939 1.688-5.212 1.688h-3.639V91.1504h4.034c2.098 0 3.727.5537 4.887 1.6611 1.16 1.1074 1.74 2.6543 1.74 4.6406zm-2.83.0704c0-2.7598-1.219-4.1397-3.656-4.1397h-1.45v8.3672h1.169c2.625 0 3.937-1.409 3.937-4.2275zM194.971 104l-.519-1.336h-.07c-.451.568-.917.964-1.398 1.187-.474.216-1.095.325-1.863.325-.943 0-1.687-.27-2.232-.809-.539-.539-.809-1.306-.809-2.303 0-1.043.363-1.8101 1.09-2.3023.732-.498 1.834-.7734 3.305-.8262l1.705-.0527v-.4307c0-.996-.51-1.4941-1.53-1.4941-.785 0-1.708.2373-2.768.7119l-.888-1.8105c1.131-.5918 2.385-.8877 3.762-.8877 1.318 0 2.329.2871 3.032.8613.703.5742 1.055 1.4473 1.055 2.6191V104h-1.872zm-.791-4.5527l-1.037.0351c-.78.0235-1.36.1641-1.741.4219-.381.2577-.571.6507-.571 1.1777 0 .756.434 1.134 1.301 1.134.621 0 1.116-.179 1.485-.536.375-.358.563-.832.563-1.424v-.8087zm9.571 2.5927c.469 0 1.031-.102 1.687-.308v1.996c-.667.298-1.488.448-2.46.448-1.073 0-1.855-.27-2.347-.809-.486-.545-.73-1.359-.73-2.443v-4.7375h-1.283v-1.1338l1.477-.8965.773-2.0742h1.714v2.0918h2.751v2.0127h-2.751v4.7375c0 .381.106.662.316.844.217.181.501.272.853.272zm9.923 1.96l-.519-1.336h-.07c-.451.568-.917.964-1.397 1.187-.475.216-1.096.325-1.864.325-.943 0-1.687-.27-2.232-.809-.539-.539-.809-1.306-.809-2.303 0-1.043.363-1.8101 1.09-2.3023.732-.498 1.834-.7734 3.305-.8262l1.705-.0527v-.4307c0-.996-.51-1.4941-1.529-1.4941-.786 0-1.708.2373-2.769.7119l-.888-1.8105c1.131-.5918 2.385-.8877 3.762-.8877 1.318 0 2.329.2871 3.032.8613.703.5742 1.055 1.4473 1.055 2.6191V104h-1.872zm-.791-4.5527l-1.037.0351c-.78.0235-1.36.1641-1.741.4219-.38.2577-.571.6507-.571 1.1777 0 .756.434 1.134 1.301 1.134.621 0 1.116-.179 1.485-.536.375-.358.563-.832.563-1.424v-.8087z" fill="url(#paint1_linear_2387_49014)"/><circle cx="162.5" cy="82.5" r="1.5" fill="#444"/><circle cx="162.5" cy="113.5" r="1.5" fill="#444"/><circle cx="225.5" cy="82.5" r="1.5" fill="#444"/><circle cx="225.5" cy="113.5" r="1.5" fill="#444"/><path fill="#fff" stroke="#444" d="M133.5 106.5h63v31h-63z"/><path d="M157.278 121.452c0 2.115-.603 3.736-1.81 4.86-1.201 1.126-2.939 1.688-5.212 1.688h-3.639v-12.85h4.034c2.098 0 3.727.554 4.887 1.662 1.16 1.107 1.74 2.654 1.74 4.64zm-2.83.07c0-2.759-1.219-4.139-3.656-4.139h-1.45v8.367h1.169c2.625 0 3.937-1.409 3.937-4.228zM165.971 128l-.519-1.336h-.07c-.451.568-.917.964-1.398 1.187-.474.216-1.095.325-1.863.325-.943 0-1.687-.27-2.232-.809-.539-.539-.809-1.306-.809-2.303 0-1.043.363-1.81 1.09-2.302.732-.498 1.834-.774 3.305-.826l1.705-.053v-.431c0-.996-.51-1.494-1.53-1.494-.785 0-1.708.237-2.768.712l-.888-1.811c1.131-.591 2.385-.887 3.762-.887 1.318 0 2.329.287 3.032.861.703.574 1.055 1.447 1.055 2.619V128h-1.872zm-.791-4.553l-1.037.035c-.78.024-1.36.164-1.741.422s-.571.651-.571 1.178c0 .756.434 1.134 1.301 1.134.621 0 1.116-.179 1.485-.536.375-.358.563-.832.563-1.424v-.809zm9.571 2.593c.469 0 1.031-.102 1.687-.308v1.996c-.667.298-1.488.448-2.46.448-1.073 0-1.855-.27-2.347-.809-.486-.545-.73-1.359-.73-2.443v-4.737h-1.283v-1.134l1.477-.897.773-2.074h1.714v2.092h2.751v2.013h-2.751v4.737c0 .381.106.662.316.844.217.181.501.272.853.272zm9.923 1.96l-.519-1.336h-.07c-.451.568-.917.964-1.397 1.187-.475.216-1.096.325-1.864.325-.943 0-1.687-.27-2.232-.809-.539-.539-.809-1.306-.809-2.303 0-1.043.363-1.81 1.09-2.302.732-.498 1.834-.774 3.305-.826l1.705-.053v-.431c0-.996-.51-1.494-1.529-1.494-.786 0-1.708.237-2.769.712l-.888-1.811c1.131-.591 2.385-.887 3.762-.887 1.318 0 2.329.287 3.032.861.703.574 1.055 1.447 1.055 2.619V128h-1.872zm-.791-4.553l-1.037.035c-.78.024-1.36.164-1.741.422-.38.258-.571.651-.571 1.178 0 .756.434 1.134 1.301 1.134.621 0 1.116-.179 1.485-.536.375-.358.563-.832.563-1.424v-.809z" fill="url(#paint2_linear_2387_49014)"/><circle cx="133.5" cy="106.5" r="1.5" fill="#444"/><circle cx="133.5" cy="137.5" r="1.5" fill="#444"/><circle cx="196.5" cy="106.5" r="1.5" fill="#444"/><circle cx="196.5" cy="137.5" r="1.5" fill="#444"/><path d="M496 79.5h.5V62c0-3.0376-2.462-5.5-5.5-5.5H376c-3.038 0-5.5 2.4624-5.5 5.5v17.5H496z" fill="#40865C" stroke="#333"/><mask id="b" style="mask-type:alpha" maskUnits="userSpaceOnUse" x="370" y="79" width="127" height="69"><path d="M371 79.5h-.5V142c0 3.038 2.462 5.5 5.5 5.5h115c3.038 0 5.5-2.462 5.5-5.5V79.5H371z" fill="#fff" stroke="#333"/></mask><g mask="url(#b)"><path fill-rule="evenodd" clip-rule="evenodd" d="M463.036 80.0215h-12.507v4.3705h12.507v-4.3705zm-26.072 0h12.507v4.3705h-12.507v-4.3705zm0 5.392h12.507v4.3707h-12.507v-4.3707zm0 5.3921h12.507v4.3707h-12.507v-4.3707zm13.565 0v4.3707h12.507v-4.3707h-12.507zm-13.565 5.3921h12.507v4.3703h-12.507v-4.3703zm13.565 0v4.3703h12.507v-4.3703h-12.507zm-13.565 5.3923h12.507v4.37h-12.507v-4.37zm13.565 0v4.37h12.507v-4.37h-12.507zm-13.565 5.392h12.507v4.37h-12.507v-4.37zm13.565 0v4.37h12.507v-4.37h-12.507zm-13.565 5.392h12.507v4.371h-12.507v-4.371zm13.565 0v4.371h12.507v-4.371h-12.507zm-13.565 5.392h12.507v4.371h-12.507v-4.371zm13.565 0v4.371h12.507v-4.371h-12.507zm-13.565 5.392h12.507v4.371h-12.507v-4.371zm13.565 0v4.371h12.507v-4.371h-12.507zm-13.565 5.392h12.507v4.371h-12.507v-4.371zm13.565 0v4.371h12.507v-4.371h-12.507zm-13.565 5.392h12.507v4.371h-12.507v-4.371zm13.565 0v4.371h12.507v-4.371h-12.507zm-13.565 5.392h12.507v4.371h-12.507v-4.371zm13.565 0v4.371h12.507v-4.371h-12.507zm-13.565 5.392h12.507v4.371h-12.507v-4.371zm13.565 0v4.371h12.507v-4.371h-12.507zm12.507 5.393h-12.507V155h-1.058v-4.881h-12.507V155h-1.059v-4.881h-12.507V155h-1.058v-4.881h-12.508V155h-1.058v-4.881h-12.508V155h-1.058v-4.881h-12.507V155h-1.058v-4.881H371v-1.022h10.643v-4.371H371v-1.021h10.643v-4.371H371v-1.021h10.643v-4.371H371v-1.021h10.643v-4.371H371v-1.021h10.643v-4.371H371v-1.021h10.643v-4.371H371v-1.021h10.643v-4.371H371v-1.022h10.643v-4.37H371v-1.022h10.643v-4.37H371v-1.022h10.643v-4.3703H371v-1.0214h10.643v-4.3707H371v-1.0214h10.643v-4.3707H371V84.392h10.643v-4.3705H371V79h158v1.0215h-10.643v4.3705H529v1.0215h-10.643v4.3707H529v1.0214h-10.643v4.3707H529v1.0214h-10.643v4.3703H529v1.022h-10.643v4.37H529v1.022h-10.643v4.37H529v1.022h-10.643v4.371H529v1.021h-10.643v4.371H529v1.021h-10.643v4.371H529v1.021h-10.643v4.371H529v1.021h-10.643v4.371H529v1.021h-10.643v4.371H529v1.021h-10.643v4.371H529v1.022h-10.643V155h-1.058v-4.881h-12.507V155h-1.058v-4.881h-12.508V155h-1.058v-4.881H477.66V155h-1.058v-4.881h-12.507V155h-1.059v-4.881zm-67.828-1.022h-12.507v-4.371h12.507v4.371zm1.058 0v-4.371h12.508v4.371h-12.508zm0-5.392h12.508v-4.371h-12.508v4.371zm-1.058 0v-4.371h-12.507v4.371h12.507zm0-5.392h-12.507v-4.371h12.507v4.371zm1.058 0v-4.371h12.508v4.371h-12.508zm0-5.392h12.508v-4.371h-12.508v4.371zm-1.058 0v-4.371h-12.507v4.371h12.507zm0-5.392h-12.507v-4.371h12.507v4.371zm1.058 0v-4.371h12.508v4.371h-12.508zm0-5.392h12.508v-4.371h-12.508v4.371zm-1.058 0v-4.371h-12.507v4.371h12.507zm0-5.392h-12.507v-4.371h12.507v4.371zm1.058 0v-4.371h12.508v4.371h-12.508zm0-5.393h12.508v-4.37h-12.508v4.37zm-1.058 0v-4.37h-12.507v4.37h12.507zm0-5.392h-12.507v-4.37h12.507v4.37zm1.058 0v-4.37h12.508v4.37h-12.508zm0-5.392h12.508v-4.3703h-12.508v4.3703zm-1.058 0v-4.3703h-12.507v4.3703h12.507zm0-5.3917h-12.507v-4.3707h12.507v4.3707zm1.058 0v-4.3707h12.508v4.3707h-12.508zm0-5.3921h12.508v-4.3707h-12.508v4.3707zm0-5.3922h12.508v-4.3705h-12.508v4.3705zm-1.058-4.3705v4.3705h-12.507v-4.3705h12.507zm0 5.392v4.3707h-12.507v-4.3707h12.507zm55.321 0v4.3707h12.507v-4.3707h-12.507zm13.566-5.392v4.3705h12.507v-4.3705h-12.507zm0 5.392h12.507v4.3707h-12.507v-4.3707zm13.565 0v4.3707h12.508v-4.3707H477.66zm-13.565 5.3921h12.507v4.3707h-12.507v-4.3707zm13.565 0v4.3707h12.508v-4.3707H477.66zm-13.565 5.3921h12.507v4.3703h-12.507v-4.3703zm13.565 0v4.3703h12.508v-4.3703H477.66zm-13.565 5.3923h12.507v4.37h-12.507v-4.37zm13.565 0v4.37h12.508v-4.37H477.66zm-13.565 5.392h12.507v4.37h-12.507v-4.37zm13.565 0v4.37h12.508v-4.37H477.66zm-13.565 5.392h12.507v4.371h-12.507v-4.371zm13.565 0v4.371h12.508v-4.371H477.66zm-13.565 5.392h12.507v4.371h-12.507v-4.371zm13.565 0v4.371h12.508v-4.371H477.66zm-13.565 5.392h12.507v4.371h-12.507v-4.371zm13.565 0v4.371h12.508v-4.371H477.66zm-13.565 5.392h12.507v4.371h-12.507v-4.371zm13.565 0v4.371h12.508v-4.371H477.66zm-13.565 5.392h12.507v4.371h-12.507v-4.371zm13.565 0v4.371h12.508v-4.371H477.66zm-13.565 5.392h12.507v4.371h-12.507v-4.371zm13.565 0v4.371h12.508v-4.371H477.66zm-13.565 5.392h12.507v4.371h-12.507v-4.371zm13.565 0v4.371h12.508v-4.371H477.66zm27.132 4.371h12.507v-4.371h-12.507v4.371zm-1.058-4.371v4.371h-12.508v-4.371h12.508zm1.058-1.021h12.507v-4.371h-12.507v4.371zm-1.058-4.371v4.371h-12.508v-4.371h12.508zm1.058-1.021h12.507v-4.371h-12.507v4.371zm-1.058-4.371v4.371h-12.508v-4.371h12.508zm1.058-1.021h12.507v-4.371h-12.507v4.371zm-1.058-4.371v4.371h-12.508v-4.371h12.508zm1.058-1.021h12.507v-4.371h-12.507v4.371zm-1.058-4.371v4.371h-12.508v-4.371h12.508zm1.058-1.021h12.507v-4.371h-12.507v4.371zm-1.058-4.371v4.371h-12.508v-4.371h12.508zm1.058-1.021h12.507v-4.371h-12.507v4.371zm-1.058-4.371v4.371h-12.508v-4.371h12.508zm1.058-1.022h12.507v-4.37h-12.507v4.37zm-1.058-4.37v4.37h-12.508v-4.37h12.508zm1.058-1.022h12.507v-4.37h-12.507v4.37zm-1.058-4.37v4.37h-12.508v-4.37h12.508zm1.058-1.022h12.507v-4.3703h-12.507v4.3703zm-1.058-4.3703v4.3703h-12.508v-4.3703h12.508zm1.058-1.0214h12.507v-4.3707h-12.507v4.3707zm-1.058-4.3707v4.3707h-12.508v-4.3707h12.508zm1.058-1.0214h12.507v-4.3707h-12.507v4.3707zm-1.058-4.3707v4.3707h-12.508v-4.3707h12.508zm1.058-1.0215h12.507v-4.3705h-12.507v4.3705zm-1.058-4.3705v4.3705h-12.508v-4.3705h12.508zM422.34 149.097h-12.508v-4.371h12.508v4.371zm1.058 0v-4.371h12.507v4.371h-12.507zm0-5.392h12.507v-4.371h-12.507v4.371zm-1.058 0v-4.371h-12.508v4.371h12.508zm0-5.392h-12.508v-4.371h12.508v4.371zm1.058 0v-4.371h12.507v4.371h-12.507zm0-5.392h12.507v-4.371h-12.507v4.371zm-1.058 0v-4.371h-12.508v4.371h12.508zm0-5.392h-12.508v-4.371h12.508v4.371zm1.058 0v-4.371h12.507v4.371h-12.507zm0-5.392h12.507v-4.371h-12.507v4.371zm-1.058 0v-4.371h-12.508v4.371h12.508zm0-5.392h-12.508v-4.371h12.508v4.371zm1.058 0v-4.371h12.507v4.371h-12.507zm0-5.393h12.507v-4.37h-12.507v4.37zm-1.058 0v-4.37h-12.508v4.37h12.508zm0-5.392h-12.508v-4.37h12.508v4.37zm1.058 0v-4.37h12.507v4.37h-12.507zm0-5.392h12.507v-4.3703h-12.507v4.3703zm-1.058 0v-4.3703h-12.508v4.3703h12.508zm0-5.3917h-12.508v-4.3707h12.508v4.3707zm1.058 0v-4.3707h12.507v4.3707h-12.507zm0-5.3921h12.507v-4.3707h-12.507v4.3707zm-1.058 0v-4.3707h-12.508v4.3707h12.508zm0-5.3922h-12.508v-4.3705h12.508v4.3705zm1.058 0v-4.3705h12.507v4.3705h-12.507zm54.262-4.3705v4.3705h12.508v-4.3705H477.66z" fill="#EFEFEF"/></g><path d="M371 79.5h-.5V142c0 3.038 2.462 5.5 5.5 5.5h115c3.038 0 5.5-2.462 5.5-5.5V79.5H371z" stroke="#333"/><path d="M371 69h125v11H371V69z" fill="#F2F2F2"/><path d="M393.633 100.816L382 96.0388v-1.4541l11.633-5.4009v2.0773l-8.56 3.9468 8.56 3.3236v2.2845zM402.939 86.8572l-5.76 16.2858h-2.383l5.759-16.2858h2.384zM404.102 98.5315l7.704-3.3236-7.704-3.9468v-2.0773l10.469 5.4009v1.4541l-10.469 4.7772v-2.2845z" fill="#333"/><circle cx="432.143" cy="91.5714" r="1.28571" fill="#444"/><circle cx="432.143" cy="118.143" r="1.28571" fill="#444"/><circle cx="486.143" cy="91.5714" r="1.28571" fill="#444"/><circle cx="486.143" cy="118.143" r="1.28571" fill="#444"/><path fill="#fff" stroke="#444" d="M432.214 91.6428h53.8571v26.4286H432.214z"/><path fill="#fff" stroke="#444" d="M399.643 109.643h53.8571v26.4286H399.643z"/><path d="M452.524 104.388c0 1.813-.517 3.201-1.552 4.166-1.029.964-2.518 1.446-4.467 1.446h-3.119V98.9861h3.458c1.798 0 3.194.4746 4.189 1.4239.994.949 1.491 2.275 1.491 3.978zm-2.426.06c0-2.366-1.044-3.548-3.133-3.548h-1.243v7.171h1.001c2.25 0 3.375-1.207 3.375-3.623z" fill="url(#paint3_linear_2387_49014)"/><path d="M459.975 110l-.445-1.145h-.06c-.387.487-.786.826-1.198 1.017-.407.186-.939.279-1.597.279-.808 0-1.446-.231-1.913-.693-.462-.462-.693-1.12-.693-1.974 0-.894.311-1.552.934-1.974.628-.427 1.572-.663 2.832-.708l1.462-.045v-.369c0-.854-.437-1.281-1.311-1.281-.673 0-1.464.203-2.373.61l-.761-1.552c.969-.507 2.044-.761 3.224-.761 1.13 0 1.997.246 2.599.739.603.492.904 1.24.904 2.245V110h-1.604zm-.678-3.902l-.889.03c-.668.02-1.165.14-1.492.361-.326.221-.489.558-.489 1.01 0 .648.371.972 1.115.972.532 0 .956-.153 1.273-.46.321-.306.482-.713.482-1.22v-.693z" fill="url(#paint4_linear_2387_49014)"/><path d="M467.501 108.32c.402 0 .884-.088 1.446-.264v1.71c-.572.257-1.275.385-2.109.385-.919 0-1.59-.231-2.012-.693-.416-.467-.625-1.166-.625-2.095v-4.06h-1.1v-.972l1.266-.768.663-1.7784h1.469v1.7934h2.358v1.725h-2.358v4.06c0 .327.09.568.271.724.186.155.429.233.731.233z" fill="url(#paint5_linear_2387_49014)"/><path d="M476.006 110l-.444-1.145h-.061c-.386.487-.786.826-1.197 1.017-.407.186-.94.279-1.598.279-.808 0-1.446-.231-1.913-.693-.462-.462-.693-1.12-.693-1.974 0-.894.311-1.552.934-1.974.628-.427 1.572-.663 2.833-.708l1.461-.045v-.369c0-.854-.437-1.281-1.311-1.281-.673 0-1.464.203-2.373.61l-.761-1.552c.97-.507 2.044-.761 3.225-.761 1.13 0 1.996.246 2.599.739.602.492.904 1.24.904 2.245V110h-1.605zm-.678-3.902l-.889.03c-.668.02-1.165.14-1.491.361-.327.221-.49.558-.49 1.01 0 .648.371.972 1.115.972.532 0 .957-.153 1.273-.46.321-.306.482-.713.482-1.22v-.693z" fill="url(#paint6_linear_2387_49014)"/><path d="M419.953 122.388c0 1.813-.517 3.201-1.552 4.166-1.03.964-2.519 1.446-4.467 1.446h-3.119v-11.014h3.458c1.798 0 3.194.475 4.188 1.424.995.949 1.492 2.275 1.492 3.978zm-2.426.06c0-2.366-1.045-3.548-3.134-3.548h-1.243v7.171h1.002c2.25 0 3.375-1.207 3.375-3.623z" fill="url(#paint7_linear_2387_49014)"/><path d="M427.403 128l-.444-1.145h-.06c-.387.487-.786.826-1.198 1.017-.407.186-.939.279-1.597.279-.809 0-1.447-.231-1.914-.693-.462-.462-.693-1.12-.693-1.974 0-.894.312-1.552.934-1.974.628-.427 1.572-.663 2.833-.708l1.461-.045v-.369c0-.854-.437-1.281-1.31-1.281-.673 0-1.464.203-2.373.61l-.761-1.552c.969-.507 2.044-.761 3.224-.761 1.13 0 1.996.246 2.599.739.603.492.904 1.24.904 2.245V128h-1.605zm-.678-3.902l-.889.03c-.668.02-1.165.14-1.491.361-.327.221-.49.558-.49 1.01 0 .648.372.972 1.115.972.532 0 .957-.153 1.273-.46.322-.306.482-.713.482-1.22v-.693z" fill="url(#paint8_linear_2387_49014)"/><path d="M434.929 126.32c.402 0 .884-.088 1.447-.264v1.71c-.573.257-1.276.385-2.11.385-.919 0-1.589-.231-2.011-.693-.417-.467-.625-1.166-.625-2.095v-4.06h-1.1v-.972l1.265-.768.663-1.778h1.469v1.793h2.358v1.725h-2.358v4.06c0 .327.091.568.272.724.185.155.429.233.73.233z" fill="url(#paint9_linear_2387_49014)"/><path d="M443.435 128l-.445-1.145h-.06c-.387.487-.786.826-1.198 1.017-.407.186-.939.279-1.597.279-.809 0-1.446-.231-1.913-.693-.463-.462-.694-1.12-.694-1.974 0-.894.312-1.552.935-1.974.627-.427 1.572-.663 2.832-.708l1.462-.045v-.369c0-.854-.437-1.281-1.311-1.281-.673 0-1.464.203-2.373.61l-.761-1.552c.969-.507 2.044-.761 3.224-.761 1.13 0 1.997.246 2.599.739.603.492.904 1.24.904 2.245V128h-1.604zm-.678-3.902l-.889.03c-.668.02-1.165.14-1.492.361-.326.221-.49.558-.49 1.01 0 .648.372.972 1.115.972.533 0 .957-.153 1.274-.46.321-.306.482-.713.482-1.22v-.693z" fill="url(#paint10_linear_2387_49014)"/><circle cx="399.571" cy="109.571" r="1.28571" fill="#444"/><circle cx="399.571" cy="136.143" r="1.28571" fill="#444"/><circle cx="453.571" cy="109.571" r="1.28571" fill="#444"/><circle cx="453.571" cy="136.143" r="1.28571" fill="#444"/><path d="M156.5 205c0 8.008-6.492 14.5-14.5 14.5s-14.5-6.492-14.5-14.5 6.492-14.5 14.5-14.5 14.5 6.492 14.5 14.5z" fill="#F9F9F9" stroke="#D0D5DA"/><path d="M144.294 212h-2.716v-7.436l.026-1.221.044-1.336c-.451.451-.764.747-.94.888l-1.477 1.186-1.309-1.635 4.14-3.296h2.232V212zM260 99c-.552 0-1 .4477-1 1 0 .552.448 1 1 1v-2zm91.707 1.707c.391-.39.391-1.0236 0-1.4141l-6.364-6.364c-.39-.3905-1.024-.3905-1.414 0-.391.3906-.391 1.0237 0 1.4142L349.586 100l-5.657 5.657c-.391.39-.391 1.024 0 1.414.39.391 1.024.391 1.414 0l6.364-6.364zM260 101h36.777v-2H260v2zm36.777 0H351v-2h-54.223v2z" fill="#666"/><path d="M320.5 99c0 8.008-6.492 14.5-14.5 14.5s-14.5-6.492-14.5-14.5c0-8.0081 6.492-14.5 14.5-14.5s14.5 6.4919 14.5 14.5z" fill="#F9F9F9" stroke="#D0D5DA"/><path d="M310.562 106h-8.983v-1.89l3.226-3.26c.955-.9789 1.579-1.6557 1.872-2.0307.293-.3808.504-.7324.633-1.0547.128-.3222.193-.6562.193-1.0019 0-.5156-.144-.8994-.431-1.1514-.281-.2519-.659-.3779-1.134-.3779-.498 0-.981.1143-1.45.3428-.468.2285-.958.5537-1.467.9756l-1.477-1.7491c.633-.539 1.157-.9199 1.573-1.1425.416-.2227.87-.3926 1.362-.5098.493-.1231 1.043-.1846 1.653-.1846.803 0 1.512.1465 2.127.4395.615.2929 1.093.7031 1.432 1.2304.34.5274.51 1.1309.51 1.8106 0 .5918-.105 1.1484-.316 1.6699-.205.5156-.528 1.0459-.967 1.5908-.434.545-1.201 1.321-2.303 2.329l-1.652 1.556v.123h5.599V106zM535 124c-.552 0-1 .448-1 1s.448 1 1 1v-2zm91.707 1.707c.391-.39.391-1.024 0-1.414l-6.364-6.364c-.39-.391-1.024-.391-1.414 0-.391.39-.391 1.024 0 1.414l5.657 5.657-5.657 5.657c-.391.39-.391 1.024 0 1.414.39.391 1.024.391 1.414 0l6.364-6.364zM535 126h36.777v-2H535v2zm36.777 0H626v-2h-54.223v2z" fill="#666"/><path d="M534.293 76.2929c-.391.3905-.391 1.0237 0 1.4142l6.364 6.364c.39.3905 1.024.3905 1.414 0 .391-.3906.391-1.0237 0-1.4142L536.414 77l5.657-5.6569c.391-.3905.391-1.0236 0-1.4142-.39-.3905-1.024-.3905-1.414 0l-6.364 6.364zM626 78c.552 0 1-.4477 1-1s-.448-1-1-1v2zm-91 0h36.777v-2H535v2zm36.777 0H626v-2h-54.223v2z" fill="#FF6F3D"/><path d="M595.5 124c0 8.008-6.492 14.5-14.5 14.5s-14.5-6.492-14.5-14.5 6.492-14.5 14.5-14.5 14.5 6.492 14.5 14.5z" fill="#F9F9F9" stroke="#D0D5DA"/><path d="M585.061 121.024c0 .803-.244 1.486-.73 2.048-.486.563-1.169.949-2.048 1.16v.053c1.037.129 1.822.445 2.356.949.533.498.799 1.172.799 2.022 0 1.236-.448 2.2-1.344 2.891-.897.686-2.177 1.029-3.841 1.029-1.395 0-2.631-.232-3.709-.695v-2.311c.498.252 1.046.457 1.644.615.597.158 1.189.237 1.775.237.896 0 1.558-.152 1.986-.457.428-.304.642-.794.642-1.467 0-.604-.246-1.032-.738-1.284-.493-.252-1.278-.377-2.356-.377h-.976v-2.083h.994c.996 0 1.722-.129 2.179-.387.463-.264.695-.712.695-1.345 0-.973-.61-1.459-1.828-1.459-.422 0-.853.07-1.292.211-.434.141-.917.384-1.451.73l-1.256-1.873c1.171-.843 2.569-1.265 4.192-1.265 1.33 0 2.379.269 3.146.808.774.539 1.161 1.289 1.161 2.25z" fill="#666"/><path d="M595.5 76c0 8.0081-6.492 14.5-14.5 14.5s-14.5-6.4919-14.5-14.5c0-8.0081 6.492-14.5 14.5-14.5s14.5 6.4919 14.5 14.5z" fill="#F9F9F9" stroke="#D0D5DA"/><path d="M585.852 80.3369h-1.547V83h-2.655v-2.6631h-5.484v-1.8896l5.634-8.2969h2.505v8.0771h1.547v2.1094zm-4.202-2.1094v-2.1796c0-.3633.015-.8907.044-1.5821.03-.6914.053-1.0928.071-1.2041h-.071c-.216.4805-.477.9492-.782 1.4063l-2.355 3.5595h3.093z" fill="#666"/><path d="M514.293 296.293c-.391.39-.391 1.024 0 1.414l6.364 6.364c.39.391 1.024.391 1.414 0 .391-.39.391-1.024 0-1.414L516.414 297l5.657-5.657c.391-.39.391-1.024 0-1.414-.39-.391-1.024-.391-1.414 0l-6.364 6.364zm131.414 1.414c.391-.39.391-1.024 0-1.414l-6.364-6.364c-.39-.391-1.024-.391-1.414 0-.391.39-.391 1.024 0 1.414l5.657 5.657-5.657 5.657c-.391.39-.391 1.024 0 1.414.39.391 1.024.391 1.414 0l6.364-6.364zM515 298h52.539v-2H515v2zm52.539 0H645v-2h-77.461v2z" fill="#FF6F3D"/><path d="M594.5 298c0 8.008-6.492 14.5-14.5 14.5s-14.5-6.492-14.5-14.5 6.492-14.5 14.5-14.5 14.5 6.492 14.5 14.5z" fill="#F9F9F9" stroke="#D0D5DA"/><path d="M575.491 299.542c0-2.543.536-4.436 1.609-5.678 1.078-1.242 2.689-1.863 4.834-1.863.732 0 1.306.044 1.722.132v2.171c-.521-.117-1.037-.176-1.547-.176-.931 0-1.693.141-2.285.422-.586.281-1.025.697-1.318 1.248-.293.551-.466 1.333-.519 2.347h.115c.58-.997 1.508-1.495 2.786-1.495 1.148 0 2.048.361 2.698 1.081.65.721.976 1.717.976 2.989 0 1.371-.387 2.458-1.161 3.26-.773.797-1.845 1.196-3.216 1.196-.95 0-1.779-.22-2.488-.659-.703-.44-1.248-1.081-1.635-1.925-.38-.844-.571-1.861-.571-3.05zm4.641 3.463c.58 0 1.025-.193 1.336-.58.31-.393.466-.949.466-1.67 0-.627-.147-1.119-.44-1.477-.287-.363-.723-.545-1.309-.545-.551 0-1.023.179-1.415.537-.387.357-.581.773-.581 1.248 0 .697.182 1.286.545 1.766.37.481.835.721 1.398.721z" fill="#666"/><path d="M408.293 233.707c.39.391 1.024.391 1.414 0l6.364-6.364c.391-.39.391-1.024 0-1.414-.39-.391-1.024-.391-1.414 0L409 231.586l-5.657-5.657c-.39-.391-1.024-.391-1.414 0-.391.39-.391 1.024 0 1.414l6.364 6.364zM410 159c0-.552-.448-1-1-1s-1 .448-1 1h2zm0 74v-29.907h-2V233h2zm0-29.907V159h-2v44.093h2z" fill="#444"/><path d="M423.5 196c0 8.008-6.492 14.5-14.5 14.5s-14.5-6.492-14.5-14.5 6.492-14.5 14.5-14.5 14.5 6.492 14.5 14.5z" fill="#F9F9F9" stroke="#D0D5DA"/><path d="M409.255 194.791c1.242 0 2.229.349 2.962 1.046.738.697 1.107 1.652 1.107 2.865 0 1.436-.442 2.54-1.327 3.314-.885.773-2.15 1.16-3.797 1.16-1.429 0-2.584-.232-3.463-.695v-2.346c.463.246 1.002.448 1.617.606.616.153 1.199.229 1.75.229 1.658 0 2.487-.68 2.487-2.039 0-1.295-.859-1.943-2.575-1.943-.311 0-.654.033-1.029.097-.375.059-.679.123-.914.193l-1.081-.58.484-6.548h6.969v2.303h-4.588l-.237 2.523.308-.062c.357-.082.8-.123 1.327-.123z" fill="#666"/><path d="M457 233c0 .552.448 1 1 1s1-.448 1-1h-2zm1.707-74.707c-.39-.391-1.024-.391-1.414 0l-6.364 6.364c-.391.39-.391 1.024 0 1.414.39.391 1.024.391 1.414 0l5.657-5.657 5.657 5.657c.39.391 1.024.391 1.414 0 .391-.39.391-1.024 0-1.414l-6.364-6.364zM459 233v-29.907h-2V233h2zm0-29.907V159h-2v44.093h2z" fill="#FF6F3D"/><path d="M472.5 196c0 8.008-6.492 14.5-14.5 14.5s-14.5-6.492-14.5-14.5 6.492-14.5 14.5-14.5 14.5 6.492 14.5 14.5z" fill="#F9F9F9" stroke="#D0D5DA"/><path d="M454.854 203l4.825-10.547h-6.337v-2.285h9.22v1.705L457.701 203h-2.847z" fill="#666"/><path d="M135.19 361.434v5.543c0 .597-.127 1.132-.381 1.605-.25.473-.629.848-1.136 1.125-.508.273-1.147.41-1.916.41-1.098 0-1.934-.287-2.508-.861-.571-.578-.856-1.346-.856-2.303v-5.519h1.407v5.396c0 .715.167 1.242.503 1.582.336.34.838.51 1.506.51.461 0 .836-.08 1.125-.24.293-.164.508-.403.645-.715.14-.317.211-.697.211-1.143v-5.39h1.4zm7.617 6.234c0 .508-.125.945-.375 1.312-.246.368-.602.649-1.067.844-.46.196-1.011.293-1.652.293-.312 0-.611-.017-.896-.053-.286-.035-.555-.085-.809-.152-.25-.07-.478-.154-.686-.252v-1.324c.348.152.737.291 1.167.416.429.121.867.182 1.312.182.363 0 .664-.047.902-.141.243-.098.422-.234.539-.41.118-.18.176-.389.176-.627 0-.254-.068-.469-.205-.645-.137-.175-.344-.336-.621-.48-.273-.149-.617-.307-1.031-.475-.281-.113-.551-.242-.809-.386-.254-.145-.48-.315-.68-.51-.199-.196-.357-.426-.474-.692-.113-.269-.17-.586-.17-.949 0-.484.115-.898.346-1.242.234-.344.562-.607.984-.791.426-.184.922-.275 1.488-.275.45 0 .871.046 1.266.14.398.094.789.227 1.172.399l-.445 1.13c-.352-.144-.694-.259-1.026-.345-.328-.086-.664-.129-1.008-.129-.297 0-.549.045-.756.135-.207.089-.365.216-.474.38-.106.161-.158.352-.158.575 0 .25.06.461.181.633.125.167.317.322.574.462.262.141.598.297 1.008.469.473.195.873.401 1.201.615.333.215.586.473.762.774.176.297.264.67.264 1.119zm6.984 2.332h-4.852v-8.566h4.852v1.183h-3.446v2.326h3.229v1.178h-3.229v2.69h3.446V370zm4.74-8.566c.738 0 1.347.089 1.828.269.484.18.843.453 1.078.82.238.368.357.834.357 1.401 0 .422-.078.781-.234 1.078-.156.297-.361.543-.615.738-.254.196-.526.352-.815.469l2.432 3.791h-1.588l-2.068-3.434h-1.377V370h-1.407v-8.566h2.409zm-.094 1.171h-.908v2.801h.972c.653 0 1.125-.121 1.418-.363.297-.242.446-.6.446-1.072 0-.496-.159-.848-.475-1.055-.313-.207-.797-.311-1.453-.311z" fill="#333"/><path d="M768.837 115.34h.5V56.3871c-.012-1.6203-.657-3.1714-1.797-4.3181-1.139-1.1467-2.683-1.7968-4.296-1.809v0H669.924v0h-.004c-1.613.0122-3.156.6623-4.296 1.809-1.14 1.1467-1.785 2.6978-1.797 4.3181h0V115.34h105.01z" fill="#FEFEFE" stroke="#333"/><path d="M730.637 131.4h-28.11v7.92h28.11v-7.92z" fill="#EFEFEF"/><path fill-rule="evenodd" clip-rule="evenodd" d="M695.342 139.32c-1.965 0-3.626 1.63-3.626 3.6 0 1.97 1.661 3.6 3.626 3.6h41.038c1.966 0 3.627-1.63 3.627-3.6 0-1.97-1.661-3.6-3.627-3.6h-41.038z" fill="#EFEFEF"/><path fill-rule="evenodd" clip-rule="evenodd" d="M736.38 147.24h-41.038c-2.357 0-4.347-1.945-4.347-4.32s1.99-4.32 4.347-4.32h41.038c2.357 0 4.348 1.945 4.348 4.32s-1.991 4.32-4.348 4.32zm-44.664-4.32c0-1.97 1.661-3.6 3.626-3.6h41.038c1.966 0 3.627 1.63 3.627 3.6 0 1.97-1.661 3.6-3.627 3.6h-41.038c-1.965 0-3.626-1.63-3.626-3.6z" fill="#333"/><path d="M716.535 126.207c1.678 0 3.039-1.361 3.039-3.04s-1.361-3.04-3.039-3.04c-1.679 0-3.04 1.361-3.04 3.04s1.361 3.04 3.04 3.04z" fill="#333"/><path d="M671.649 70.8799c0-2.7614 2.239-5 5-5h79.375c2.761 0 5 2.2386 5 5V114.12h-89.375V70.8799z" fill="#F9F9F9"/><path d="M672.87 70.8799c0-2.4853 2.015-4.5 4.5-4.5h80.095c2.486 0 4.5 2.0147 4.5 4.5v1.7H672.87v-1.7z" fill="#AAA" stroke="#333"/><path d="M672.87 70.8799c0-2.4853 2.015-4.5 4.5-4.5h80.095c2.486 0 4.5 2.0147 4.5 4.5V114.34H672.87V70.8799z" stroke="#333"/><path d="M706.245 81.22h-27.387c-1.088 0-1.943.9132-1.943 1.9965v15.727c0 1.0865.852 1.9965 1.943 1.9965h27.387c1.087 0 1.942-.913 1.942-1.9965v-15.727c0-1.0833-.855-1.9965-1.942-1.9965z" fill="#BDECFF" stroke="#333"/><path fill-rule="evenodd" clip-rule="evenodd" d="M678.149 100.44c-.673 0-.989-.8183-.487-1.2582l8.042-7.0218 5.766 5.04 9.01-9 7.207 6.48V99c0 .7952-.655 1.44-1.463 1.44h-28.075z" fill="#fff"/><path fill-rule="evenodd" clip-rule="evenodd" d="M685.532 91.4798l5.8 5.1422 9.2-9.142 7.876 7.32v4.1247c0 1.2343-.96 2.2353-2.144 2.2353h-27.417c-1.314 0-1.931-1.6937-.949-2.604l7.634-7.0762zm5.827 6.1444l-5.817-5.1571-7.169 6.6458c-.492.4551-.183 1.3021.474 1.3021h27.417c.79 0 1.43-.6673 1.43-1.4903V95.134l-7.146-6.6409-9.189 9.1311z" fill="#333"/><path fill-rule="evenodd" clip-rule="evenodd" d="M682.1 88.9199c1.396 0 2.523-1.1267 2.523-2.5219s-1.131-2.5181-2.523-2.5181c-1.396 0-2.522 1.1267-2.522 2.5181s1.126 2.5219 2.522 2.5219z" fill="url(#paint11_linear_2387_49014)"/><path fill-rule="evenodd" clip-rule="evenodd" d="M685.344 86.398c0 1.7923-1.449 3.2419-3.244 3.2419-1.795 0-3.243-1.4541-3.243-3.2419 0-1.7892 1.45-3.2381 3.243-3.2381 1.789 0 3.244 1.4437 3.244 3.2381zm-.721 0c0 1.3952-1.127 2.5219-2.523 2.5219-1.396 0-2.522-1.1305-2.522-2.5219s1.126-2.5181 2.522-2.5181c1.392 0 2.523 1.123 2.523 2.5181zM714.895 90.0003c0-.1991.161-.3604.36-.3604h41.084c.199 0 .36.1613.36.3604 0 .199-.161.3604-.36.3604H715.255c-.199 0-.36-.1614-.36-.3604zM714.895 93.6006c0-.199.161-.3604.36-.3604h41.084c.199 0 .36.1614.36.3604s-.161.3604-.36.3604H715.255c-.199 0-.36-.1614-.36-.3604zM714.895 97.2002c0-.199.161-.3604.36-.3604h41.084c.199 0 .36.1614.36.3604 0 .1991-.161.3604-.36.3604H715.255c-.199 0-.36-.1613-.36-.3604zM714.895 100.8c0-.199.161-.36.36-.36h41.084c.199 0 .36.161.36.36 0 .199-.161.361-.36.361H715.255c-.199 0-.36-.162-.36-.361z" fill="#333"/><path fill-rule="evenodd" clip-rule="evenodd" d="M714.895 82.8006c0-.1991.164-.3604.366-.3604h22.332c.203 0 .366.1613.366.3604 0 .199-.163.3603-.366.3603h-22.332c-.202 0-.366-.1613-.366-.3603z" fill="url(#paint12_linear_2387_49014)"/><path fill-rule="evenodd" clip-rule="evenodd" d="M768.837 114.84h-104.51v11.049c.011 1.459.604 2.854 1.651 3.885 1.048 1.031 2.465 1.615 3.946 1.626h93.316c1.481-.011 2.899-.595 3.946-1.626 1.047-1.031 1.64-2.426 1.651-3.885V114.84z" fill="#EFEFEF"/><path fill-rule="evenodd" clip-rule="evenodd" d="M769.558 114.12v11.775c-.012 1.65-.684 3.228-1.866 4.392-1.182 1.163-2.779 1.821-4.446 1.833h-93.327c-1.667-.012-3.265-.67-4.447-1.833-1.182-1.164-1.853-2.742-1.866-4.392V114.12h105.952zm-105.231.72h104.51v11.049c-.011 1.459-.604 2.854-1.651 3.885-1.047 1.031-2.465 1.615-3.946 1.626h-93.316c-1.481-.011-2.898-.595-3.946-1.626-1.047-1.031-1.64-2.426-1.651-3.885V114.84z" fill="#333"/><path d="M702.527 131.4h-.721v7.92h.721v-7.92zM730.637 131.4h-.721v7.92h.721v-7.92z" fill="#333"/><path fill-rule="evenodd" clip-rule="evenodd" d="M670.814 56.52c.895 0 1.586.8545 1.413 1.7209-.111.5587-.573 1.0203-1.132 1.1314-.28.0556-.57.0271-.833-.0819-.527-.218-.89-.7608-.89-1.3304 0-.7843.656-1.44 1.442-1.44zm5.047.0001c.571 0 1.115.3626 1.334.8889.343.8262-.184 1.791-1.052 1.9634-.88.1745-1.726-.529-1.726-1.4123 0-.7844.658-1.44 1.444-1.44zm6.458 1.7175c.17-.8675-.524-1.7209-1.42-1.7175-.783.0029-1.436.6577-1.436 1.44 0 .8841.846 1.5878 1.725 1.4119.559-.112 1.021-.575 1.131-1.1344z" fill="url(#paint13_linear_2387_49014)"/><rect x="688.112" y="57.24" width="55.4987" height=".720763" rx=".360381" fill="#333"/><rect x="747.935" y="57.24" width="14.4153" height=".720763" rx=".360381" fill="#FF6F3D"/><ellipse cx="716.943" cy="123.48" rx="2.16229" ry="2.16" fill="#333"/><path d="M716.684 270.733c0-3.768 3.068-6.822 6.853-6.822h47.976c3.785 0 6.853 3.054 6.853 6.822v13.643h-61.682v-13.643zM716.683 286.822h61.683v20.267h-61.683v-20.267zM716.683 309.733h61.683v13.511c0 3.731-3.068 6.756-6.853 6.756h-47.976c-3.785 0-6.854-3.025-6.854-6.756v-13.511z" fill="#444"/><path d="M757.643 272.936c0 1.216-.987 2.203-2.203 2.203-1.217 0-2.203-.987-2.203-2.203 0-1.217.986-2.203 2.203-2.203 1.216 0 2.203.986 2.203 2.203zM764.496 272.936c0 1.216-.986 2.203-2.203 2.203-1.217 0-2.203-.987-2.203-2.203 0-1.217.986-2.203 2.203-2.203 1.217 0 2.203.986 2.203 2.203zM771.349 272.936c0 1.216-.986 2.203-2.203 2.203-1.216 0-2.203-.987-2.203-2.203 0-1.217.987-2.203 2.203-2.203 1.217 0 2.203.986 2.203 2.203zM757.643 295.675c0 1.217-.987 2.203-2.203 2.203-1.217 0-2.203-.986-2.203-2.203 0-1.217.986-2.203 2.203-2.203 1.216 0 2.203.986 2.203 2.203zM764.496 295.675c0 1.217-.986 2.203-2.203 2.203-1.217 0-2.203-.986-2.203-2.203 0-1.217.986-2.203 2.203-2.203 1.217 0 2.203.986 2.203 2.203zM771.349 295.675c0 1.217-.986 2.203-2.203 2.203-1.216 0-2.203-.986-2.203-2.203 0-1.217.987-2.203 2.203-2.203 1.217 0 2.203.986 2.203 2.203zM757.643 318.415c0 1.217-.987 2.203-2.203 2.203-1.217 0-2.203-.986-2.203-2.203 0-1.217.986-2.203 2.203-2.203 1.216 0 2.203.986 2.203 2.203zM764.496 318.415c0 1.217-.986 2.203-2.203 2.203-1.217 0-2.203-.986-2.203-2.203 0-1.217.986-2.203 2.203-2.203 1.217 0 2.203.986 2.203 2.203zM771.349 318.415c0 1.217-.986 2.203-2.203 2.203-1.216 0-2.203-.986-2.203-2.203 0-1.217.987-2.203 2.203-2.203 1.217 0 2.203.986 2.203 2.203z" fill="#fff"/><path d="M672.243 249.695c0-1.077.571-2.479 1.547-3.621.973-1.138 2.272-1.93 3.658-1.93h42.735l18.911 19.039v60.766c0 3.104-2.348 5.551-5.206 5.551h-56.44c-2.858 0-5.205-2.447-5.205-5.551v-74.254z" fill="#F9F9F9" stroke="#333"/><rect x="684.96" y="270.96" width="47" height="2" rx="1" fill="#666"/><rect x="684.96" y="278.96" width="47" height="2" rx="1" fill="#666"/><rect x="684.96" y="286.96" width="47" height="2" rx="1" fill="#666"/><rect x="684.96" y="294.96" width="47" height="2" rx="1" fill="#666"/><rect x="684.96" y="302.96" width="47" height="2" rx="1" fill="#666"/><rect x="684.96" y="310.96" width="47" height="2" rx="1" fill="#666"/><path d="M722.705 263.911s-3.378 0-3.378-3.378v-16.889l20.267 20.267h-16.889z" fill="#40865C"/><path fill-rule="evenodd" clip-rule="evenodd" d="M669.862 273.959l-13.128-6.246c-.733-.357-1.734-1.115-1.734-2.393 0-1.293 1.016-2.033 1.763-2.37l5.236-2.498 9.199 4.394c.285.139.759.247 1.311.247.555 0 1.003-.109 1.249-.234l.018-.01 9.206-4.397 5.265 2.512c.732.357 1.734 1.115 1.734 2.393 0 1.293-1.017 2.033-1.764 2.37l-13.094 6.229c-.797.386-1.759.529-2.614.529-.862 0-1.825-.146-2.632-.519l-.015-.007zm4.571-1.44l13.115-6.24c1.118-.495 1.118-1.337 0-1.882l-4.566-2.178-8.5 4.06c-1.069.545-2.866.545-3.983 0l-8.501-4.06-4.566 2.178c-1.117.496-1.117 1.338 0 1.882l13.115 6.24c1.069.495 2.866.495 3.886 0z" fill="#fff"/><path fill-rule="evenodd" clip-rule="evenodd" d="M687.803 256.618c1.123.582 1.123 1.481 0 2.01l-13.178 6.668c-1.123.582-2.929.582-4.002 0l-13.179-6.668c-1.122-.582-1.122-1.481 0-2.01l4.491-2.276 8.688 4.392c1.122.582 2.928.582 4.002 0l8.688-4.392 4.49 2.276zm-31.031-1.547l5.162-2.615 9.391 4.747c.286.148.763.264 1.317.264.558 0 1.009-.117 1.255-.251l.02-.01 9.397-4.75 5.192 2.63c.735.382 1.742 1.191 1.742 2.557 0 1.382-1.023 2.173-1.773 2.532l-13.155 6.656c-.835.43-1.819.605-2.715.605-.886 0-1.865-.171-2.688-.611l-13.175-6.665c-.736-.382-1.742-1.191-1.742-2.557 0-1.382 1.022-2.172 1.772-2.532z" fill="#fff"/><path fill-rule="evenodd" clip-rule="evenodd" d="M669.863 258.804l-13.129-6.246c-.732-.357-1.734-1.115-1.734-2.393 0-1.293 1.018-2.033 1.765-2.37l13.092-6.229c.83-.403 1.809-.566 2.701-.566.882 0 1.856.16 2.675.571l13.112 6.239c.732.356 1.733 1.114 1.733 2.392 0 1.294-1.017 2.034-1.764 2.37l-13.117 6.241-.02.009c-.817.362-1.78.508-2.656.508-.872 0-1.836-.145-2.644-.519l-.014-.007zm17.783-7.679c1.117-.496 1.117-1.338 0-1.882l-13.115-6.24c-1.069-.545-2.866-.545-3.983 0l-13.115 6.24c-1.117.495-1.117 1.337 0 1.882l13.115 6.239c1.068.496 2.866.496 3.983 0l13.115-6.239z" fill="#fff"/><path fill-rule="evenodd" clip-rule="evenodd" d="M670.518 273.088l-13.393-6.513c-1.141-.569-1.141-1.447 0-1.964l4.663-2.275 8.681 4.239c1.141.569 2.976.569 4.068 0l8.681-4.239 4.663 2.275c1.141.568 1.141 1.447 0 1.964l-13.394 6.513c-1.042.517-2.877.517-3.969 0z" fill="#FF6F3D"/><path fill-rule="evenodd" clip-rule="evenodd" d="M670.518 265.076l-13.393-6.513c-1.141-.568-1.141-1.447 0-1.964l4.563-2.223 8.83 4.291c1.141.568 2.977.568 4.068 0l8.83-4.291 4.564 2.223c1.141.569 1.141 1.447 0 1.964l-13.394 6.513c-1.141.569-2.976.569-4.068 0z" fill="#95C038"/><path fill-rule="evenodd" clip-rule="evenodd" d="M670.519 257.271l-13.394-6.513c-1.141-.569-1.141-1.447 0-1.964l13.394-6.513c1.141-.569 2.976-.569 4.068 0l13.394 6.513c1.14.568 1.14 1.447 0 1.964l-13.394 6.513c-1.141.517-2.977.517-4.068 0z" fill="#5DC0E8"/><path d="M687.742 350.635c0 .965-.18 1.771-.539 2.42-.359.644-.881 1.131-1.564 1.459-.684.324-1.508.486-2.473.486h-2.379v-8.566h2.637c.886 0 1.652.16 2.297.48.644.316 1.142.787 1.494 1.412.351.621.527 1.391.527 2.309zm-1.465.041c0-.703-.111-1.281-.334-1.735-.218-.453-.543-.789-.972-1.007-.426-.223-.952-.334-1.577-.334h-1.201v6.222h.996c1.036 0 1.809-.263 2.321-.791.511-.527.767-1.312.767-2.355zm11.396.029c0 .66-.084 1.262-.252 1.805-.164.539-.412 1.004-.744 1.394-.332.387-.748.686-1.248.897-.5.211-1.086.316-1.758.316-.683 0-1.277-.105-1.781-.316-.5-.211-.916-.512-1.248-.903-.328-.39-.574-.857-.738-1.4-.164-.543-.246-1.144-.246-1.805 0-.882.144-1.652.433-2.308.293-.66.737-1.172 1.33-1.535.598-.368 1.352-.551 2.262-.551.891 0 1.631.181 2.221.545.59.363 1.031.875 1.324 1.535.297.656.445 1.432.445 2.326zm-6.539 0c0 .66.09 1.233.27 1.717.179.48.455.851.826 1.113.375.258.855.387 1.441.387.59 0 1.071-.129 1.442-.387.371-.262.644-.633.82-1.113.176-.484.264-1.057.264-1.717 0-1.004-.201-1.789-.604-2.355-.398-.571-1.035-.856-1.91-.856-.586 0-1.068.129-1.447.387-.375.258-.653.627-.832 1.107-.18.477-.27 1.049-.27 1.717zm12.51-3.199c-.411 0-.778.074-1.102.223-.32.148-.592.363-.814.644-.223.277-.393.615-.51 1.014-.117.394-.176.84-.176 1.336 0 .664.094 1.236.281 1.716.188.477.473.844.856 1.102.382.254.867.381 1.453.381.363 0 .717-.035 1.06-.106.344-.07.7-.166 1.067-.287v1.196c-.348.136-.699.236-1.055.298-.355.063-.766.094-1.23.094-.875 0-1.602-.181-2.18-.545-.574-.363-1.004-.875-1.289-1.535-.281-.66-.422-1.433-.422-2.32 0-.649.09-1.242.27-1.781.179-.54.441-1.004.785-1.395.343-.395.767-.697 1.271-.908.508-.215 1.088-.322 1.74-.322.43 0 .852.048 1.266.146.418.094.805.229 1.16.404l-.492 1.16c-.297-.14-.607-.261-.932-.363-.324-.101-.66-.152-1.007-.152zm11.161-1.072v5.543c0 .597-.127 1.132-.381 1.605-.25.473-.629.848-1.136 1.125-.508.273-1.147.41-1.916.41-1.098 0-1.934-.287-2.508-.861-.571-.578-.856-1.346-.856-2.303v-5.519h1.407v5.396c0 .715.168 1.242.503 1.582.336.34.838.51 1.506.51.461 0 .836-.08 1.125-.24.293-.164.508-.403.645-.715.14-.317.211-.697.211-1.143v-5.39h1.4zm6.369 8.566l-2.467-7.154h-.053c.012.16.026.379.041.656.016.277.03.574.041.891.012.316.018.619.018.908V355h-1.277v-8.566h1.974l2.373 6.837h.035l2.455-6.837h1.969V355h-1.342v-4.77c0-.261.004-.544.012-.849.012-.305.024-.594.035-.867.016-.274.028-.493.035-.657h-.046L722.416 355h-1.242zm12.697 0h-4.852v-8.566h4.852v1.183h-3.446v2.326h3.229v1.178h-3.229v2.69h3.446V355zm9.48 0h-1.729l-4.195-6.838h-.053c.016.231.029.475.041.733.016.257.027.523.035.796.012.274.022.551.03.832V355h-1.278v-8.566h1.717l4.189 6.791h.041c-.007-.2-.017-.428-.029-.686-.012-.258-.023-.523-.035-.797-.008-.277-.014-.545-.018-.803v-4.505h1.284V355zm5.7 0h-1.412v-7.371h-2.508v-1.195h6.422v1.195h-2.502V355zm-80.526 13.668c0 .508-.125.945-.375 1.312-.246.368-.602.649-1.067.844-.461.196-1.011.293-1.652.293-.312 0-.611-.017-.896-.053-.286-.035-.555-.085-.809-.152-.25-.07-.479-.154-.686-.252v-1.324c.348.152.737.291 1.166.416.43.121.868.182 1.313.182.363 0 .664-.047.902-.141.242-.098.422-.234.539-.41.117-.18.176-.389.176-.627 0-.254-.068-.469-.205-.645-.137-.175-.344-.336-.621-.48-.274-.149-.617-.307-1.031-.475-.282-.113-.551-.242-.809-.386-.254-.145-.48-.315-.68-.51-.199-.196-.357-.426-.474-.692-.114-.269-.17-.586-.17-.949 0-.484.115-.898.346-1.242.234-.344.562-.607.984-.791.426-.184.922-.275 1.488-.275.449 0 .871.046 1.266.14.398.094.789.227 1.172.399l-.446 1.13c-.351-.144-.693-.259-1.025-.345-.328-.086-.664-.129-1.008-.129-.297 0-.549.045-.756.135-.207.089-.365.216-.474.38-.106.161-.158.352-.158.575 0 .25.06.461.181.633.125.167.317.322.574.462.262.141.598.297 1.008.469.473.195.873.401 1.201.615.332.215.586.473.762.774.176.297.264.67.264 1.119zm5.103 2.332h-1.412v-7.371h-2.508v-1.195h6.422v1.195h-2.502V371zm11.9-4.295c0 .66-.084 1.262-.252 1.805-.164.539-.412 1.004-.744 1.394-.332.387-.748.686-1.248.897-.5.211-1.086.316-1.758.316-.684 0-1.278-.105-1.781-.316-.5-.211-.916-.512-1.249-.903-.328-.39-.574-.857-.738-1.4-.164-.543-.246-1.144-.246-1.805 0-.882.145-1.652.434-2.308.293-.66.736-1.172 1.33-1.535.597-.368 1.351-.551 2.261-.551.891 0 1.631.181 2.221.545.59.363 1.031.875 1.324 1.535.297.656.446 1.432.446 2.326zm-6.539 0c0 .66.09 1.233.269 1.717.18.48.455.851.826 1.113.375.258.856.387 1.442.387.59 0 1.07-.129 1.441-.387.371-.262.645-.633.82-1.113.176-.484.264-1.057.264-1.717 0-1.004-.201-1.789-.603-2.355-.399-.571-1.036-.856-1.911-.856-.585 0-1.068.129-1.447.387-.375.258-.652.627-.832 1.107-.179.477-.269 1.049-.269 1.717zm11.267-4.271c.738 0 1.347.089 1.828.269.484.18.844.453 1.078.82.238.368.357.834.357 1.401 0 .422-.078.781-.234 1.078-.156.297-.361.543-.615.738-.254.196-.526.352-.815.469l2.432 3.791h-1.588l-2.068-3.434h-1.377V371h-1.406v-8.566h2.408zm-.094 1.171h-.908v2.801h.972c.653 0 1.125-.121 1.418-.363.297-.242.446-.6.446-1.072 0-.496-.158-.848-.475-1.055-.312-.207-.797-.311-1.453-.311zM701.3 371l-.838-2.379h-3.275l-.838 2.379h-1.482l3.187-8.602h1.559l3.181 8.602H701.3zm-1.201-3.586l-.814-2.344c-.032-.101-.077-.244-.135-.427-.059-.188-.117-.377-.176-.569-.059-.195-.107-.359-.146-.492-.039.16-.088.34-.147.539-.055.195-.109.379-.164.551-.051.172-.09.305-.117.398l-.82 2.344h2.519zm7.763-1.066h3.199v4.3c-.449.149-.914.264-1.394.346-.481.082-1.02.123-1.617.123-.871 0-1.61-.172-2.215-.515-.602-.348-1.059-.85-1.371-1.506-.313-.66-.469-1.455-.469-2.385 0-.895.174-1.67.522-2.326.347-.66.853-1.17 1.517-1.53.664-.363 1.469-.544 2.414-.544.465 0 .914.046 1.348.14.437.09.838.215 1.201.375l-.492 1.16c-.289-.136-.613-.252-.973-.345-.359-.094-.732-.141-1.119-.141-.613 0-1.143.133-1.588.398-.441.266-.781.641-1.019 1.125-.239.481-.358 1.049-.358 1.706 0 .636.096 1.195.287 1.675.192.481.491.856.897 1.125.41.266.939.399 1.588.399.324 0 .599-.018.826-.053.226-.035.435-.074.627-.117v-2.209h-1.811v-1.201zM718.444 371h-4.852v-8.566h4.852v1.183h-3.445v2.326h3.228v1.178h-3.228v2.69h3.445V371zm10.874-2.332c0 .508-.125.945-.375 1.312-.246.368-.602.649-1.067.844-.46.196-1.011.293-1.652.293-.312 0-.611-.017-.896-.053-.286-.035-.555-.085-.809-.152-.25-.07-.478-.154-.685-.252v-1.324c.347.152.736.291 1.166.416.429.121.867.182 1.312.182.363 0 .664-.047.902-.141.243-.098.422-.234.539-.41.118-.18.176-.389.176-.627 0-.254-.068-.469-.205-.645-.137-.175-.344-.336-.621-.48-.273-.149-.617-.307-1.031-.475-.281-.113-.551-.242-.809-.386-.254-.145-.48-.315-.679-.51-.2-.196-.358-.426-.475-.692-.113-.269-.17-.586-.17-.949 0-.484.115-.898.346-1.242.234-.344.562-.607.984-.791.426-.184.922-.275 1.488-.275.45 0 .871.046 1.266.14.398.094.789.227 1.172.399l-.445 1.13c-.352-.144-.694-.259-1.026-.345-.328-.086-.664-.129-1.008-.129-.297 0-.549.045-.756.135-.207.089-.365.216-.474.38-.106.161-.158.352-.158.575 0 .25.06.461.181.633.125.167.317.322.575.462.261.141.597.297 1.007.469.473.195.873.401 1.201.615.333.215.586.473.762.774.176.297.264.67.264 1.119zm6.984 2.332h-4.852v-8.566h4.852v1.183h-3.446v2.326h3.229v1.178h-3.229v2.69h3.446V371zm4.74-8.566c.738 0 1.347.089 1.828.269.484.18.843.453 1.078.82.238.368.357.834.357 1.401 0 .422-.078.781-.234 1.078-.156.297-.361.543-.615.738-.254.196-.526.352-.815.469l2.432 3.791h-1.588l-2.068-3.434h-1.377V371h-1.407v-8.566h2.409zm-.094 1.171h-.908v2.801h.972c.653 0 1.125-.121 1.418-.363.297-.242.446-.6.446-1.072 0-.496-.159-.848-.475-1.055-.313-.207-.797-.311-1.453-.311zm12.181-1.171L750.135 371h-1.488l-2.995-8.566h1.442l1.805 5.367c.054.156.113.345.175.568.067.223.127.447.182.674.059.227.103.428.135.603.031-.175.074-.376.129-.603.058-.227.119-.451.181-.674.063-.223.121-.414.176-.574l1.811-5.361h1.441zm1.605 8.566v-8.566h1.406V371h-1.406zm7.798-7.494c-.41 0-.777.074-1.101.223-.321.148-.592.363-.815.644-.222.277-.392.615-.509 1.014-.118.394-.176.84-.176 1.336 0 .664.094 1.236.281 1.716.188.477.473.844.855 1.102.383.254.868.381 1.454.381.363 0 .716-.035 1.06-.106.344-.07.699-.166 1.067-.287v1.196c-.348.136-.7.236-1.055.298-.356.063-.766.094-1.231.094-.875 0-1.601-.181-2.179-.545-.574-.363-1.004-.875-1.289-1.535-.282-.66-.422-1.433-.422-2.32 0-.649.09-1.242.269-1.781.18-.54.442-1.004.785-1.395.344-.395.768-.697 1.272-.908.508-.215 1.088-.322 1.74-.322.43 0 .852.048 1.266.146.418.094.805.229 1.16.404l-.492 1.16c-.297-.14-.608-.261-.932-.363-.324-.101-.66-.152-1.008-.152zm9.287 7.494h-4.852v-8.566h4.852v1.183h-3.445v2.326h3.228v1.178h-3.228v2.69h3.445V371z" fill="#333"/><path fill-rule="evenodd" clip-rule="evenodd" d="M404.5 290.56v-20.88h-5.22c-3.133 0-5.22 2.812-5.22 4.972v15.908h10.44z" fill="#444"/><path fill-rule="evenodd" clip-rule="evenodd" d="M405.08 291.14h-11.6v-16.488c0-1.251.596-2.631 1.592-3.693 1.006-1.071 2.458-1.859 4.208-1.859h5.8v22.04zm-5.8-21.46c-3.133 0-5.22 2.812-5.22 4.972v15.908h10.44v-20.88h-5.22z" fill="#333"/><path fill-rule="evenodd" clip-rule="evenodd" d="M460.76 269.68v13.92h10.44v-9.388c0-2.792-2.32-4.532-4.64-4.532h-5.8z" fill="#444"/><path fill-rule="evenodd" clip-rule="evenodd" d="M460.18 269.1h6.38c2.582 0 5.22 1.944 5.22 5.112v9.968h-11.6V269.1zm.58 14.5v-13.92h5.8c2.32 0 4.64 1.74 4.64 4.532v9.388h-10.44z" fill="#333"/><path fill-rule="evenodd" clip-rule="evenodd" d="M454.96 245.32h-44.721l-10.959 10.828v35.572h55.68v-46.4z" fill="#fff"/><path fill-rule="evenodd" clip-rule="evenodd" d="M455.54 244.74H410l-11.3 11.165V292.3h56.84v-47.56zm-.58.58v46.4h-55.68v-35.572l10.959-10.828h44.721z" fill="#333"/><path fill-rule="evenodd" clip-rule="evenodd" d="M409.72 245.32l-10.44 10.44h10.44v-10.44z" fill="url(#paint14_linear_2387_49014)"/><path fill-rule="evenodd" clip-rule="evenodd" d="M409.942 244.784c-.217-.09-.466-.04-.632.126l-10.44 10.44c-.166.166-.216.415-.126.632.09.217.301.358.536.358h10.44c.32 0 .58-.26.58-.58v-10.44c0-.235-.141-.446-.358-.536zm-.222.536v10.44h-10.44l10.44-10.44z" fill="#333"/><path fill-rule="evenodd" clip-rule="evenodd" d="M465.98 254.6h-44.721L410.3 265.428V301h55.68v-46.4z" fill="#fff"/><path fill-rule="evenodd" clip-rule="evenodd" d="M466.56 254.02h-45.54l-11.3 11.165v36.395h56.84v-47.56zm-.58.58V301H410.3v-35.572l10.959-10.828h44.721z" fill="#333"/><path fill-rule="evenodd" clip-rule="evenodd" d="M420.74 254.6l-10.44 10.44h10.44V254.6z" fill="#BDECFF"/><path fill-rule="evenodd" clip-rule="evenodd" d="M420.962 254.064c-.217-.09-.466-.04-.632.126l-10.44 10.44c-.166.166-.216.415-.126.632.09.217.301.358.536.358h10.44c.32 0 .58-.26.58-.58V254.6c0-.235-.141-.446-.358-.536zm-.222.536v10.44H410.3l10.44-10.44zM457.86 285.05c0-.16-.13-.29-.29-.29h-41.18c-.16 0-.29.13-.29.29 0 .16.13.29.29.29h41.18c.16 0 .29-.13.29-.29zM459.02 272.29c0-.16-.13-.29-.29-.29h-33.06c-.16 0-.29.13-.29.29 0 .16.13.29.29.29h33.06c.16 0 .29-.13.29-.29zM459.02 278.67c0-.16-.13-.29-.29-.29h-42.34c-.16 0-.29.13-.29.29 0 .16.13.29.29.29h42.34c.16 0 .29-.13.29-.29z" fill="#333"/><path d="M458.73 285.05h-16.82" stroke="#333" stroke-linecap="round"/><path fill-rule="evenodd" clip-rule="evenodd" d="M449.74 264.46c0-.32-.26-.58-.58-.58h-19.14c-.32 0-.58.26-.58.58 0 .32.26.58.58.58h19.14c.32 0 .58-.26.58-.58z" fill="url(#paint15_linear_2387_49014)"/><path fill-rule="evenodd" clip-rule="evenodd" d="M430.595 284.47l-5.078 5.965h-30.475c-3.749 0-4.721 1.285-4.407 4.108l4.907 29.938c.281 1.843 2.245 3.779 4.763 3.779h67.402c2.518 0 3.74-3.48 3.74-3.48l4.348-39.15c.229-1.161-.39-2.61-2.448-2.61h-38.975c-2.038 0-2.52.227-3.777 1.45z" fill="url(#paint16_linear_2387_49014)"/><path fill-rule="evenodd" clip-rule="evenodd" d="M424.639 301.376c0-.652.496-1.181 1.108-1.181h15.506c.612 0 1.108.529 1.108 1.181v15.359c0 .653-.496 1.182-1.108 1.182h-15.506c-.612 0-1.108-.529-1.108-1.182v-15.359z" fill="#fff"/><path fill-rule="evenodd" clip-rule="evenodd" d="M441.797 301.785c.257.19.308.549.113.8l-9.447 12.231c-.215.284-.538.493-.939.499-.386.006-.726-.179-.991-.43-.013-.013-.025-.026-.037-.039l-3.11-3.542c-.21-.239-.182-.6.062-.806.245-.206.614-.179.824.061l3.09 3.519c.067.061.112.082.134.09.007-.007.018-.018.031-.035l.003-.004 9.449-12.233c.194-.252.561-.302.818-.111z" fill="#333"/><path fill-rule="evenodd" clip-rule="evenodd" d="M426.522 299.389h8.763c.314 0 .569.254.569.569 0 .314-.255.568-.569.568h-8.755c-.217.007-.431.057-.628.148-.199.092-.377.224-.523.388-.145.163-.256.354-.325.562-.068.207-.094.427-.074.644.002.017.002.034.002.051v13.512c-.003.231.04.46.127.674.088.214.217.409.381.572.164.164.359.293.574.38.215.087.445.13.677.127h13.607c.481-.008.939-.203 1.276-.544.291-.294.408-.718.408-1.281v-6.792c0-.314.254-.569.568-.569.314 0 .569.255.569.569v6.791c0 .695-.14 1.479-.736 2.082-.548.554-1.293.87-2.073.881h-13.607c-.382.005-.762-.066-1.116-.21-.356-.144-.679-.358-.95-.629-.272-.27-.486-.593-.631-.948-.144-.354-.216-.733-.211-1.115v-13.476c-.029-.364.015-.73.13-1.077.117-.355.307-.682.556-.962.249-.279.553-.504.893-.662.34-.157.709-.243 1.083-.253h.015z" fill="#333"/><path fill-rule="evenodd" clip-rule="evenodd" d="M430.315 284.175c1.035-1.048 2.324-1.735 3.775-1.735h39.01c2.192 0 3.552 1.733 3.288 3.112l-4.6 38.958c-.078.987-.486 1.926-1.22 2.62-.738.697-1.787 1.13-3.113 1.13h-67.462c-2.66 0-4.75-2.037-5.054-4.023v-.002l-4.912-29.939c-.156-1.046.38-2.161 1.242-2.996.868-.842 2.11-1.445 3.456-1.445h30.543l5.042-5.675.005-.005zm.418.402l-5.205 5.858h-30.803c-1.174 0-2.276.529-3.052 1.281-.782.758-1.191 1.696-1.073 2.492l.001.002 4.911 29.938c.259 1.697 2.101 3.532 4.481 3.532h67.462c1.194 0 2.095-.387 2.714-.972.621-.587.975-1.389 1.042-2.249v-.005l4.604-38.992.002-.011c.186-.94-.794-2.431-2.717-2.431h-39.01c-1.291 0-2.43.622-3.357 1.557z" fill="#333"/><path d="M404.242 350.635c0 .965-.18 1.771-.539 2.42-.359.644-.881 1.131-1.564 1.459-.684.324-1.508.486-2.473.486h-2.379v-8.566h2.637c.886 0 1.652.16 2.297.48.644.316 1.142.787 1.494 1.412.351.621.527 1.391.527 2.309zm-1.465.041c0-.703-.111-1.281-.334-1.735-.218-.453-.543-.789-.972-1.007-.426-.223-.952-.334-1.577-.334h-1.201v6.222h.996c1.036 0 1.809-.263 2.321-.791.511-.527.767-1.312.767-2.355zm11.396.029c0 .66-.084 1.262-.252 1.805-.164.539-.412 1.004-.744 1.394-.332.387-.748.686-1.248.897-.5.211-1.086.316-1.758.316-.683 0-1.277-.105-1.781-.316-.5-.211-.916-.512-1.248-.903-.328-.39-.574-.857-.738-1.4-.164-.543-.246-1.144-.246-1.805 0-.882.144-1.652.433-2.308.293-.66.737-1.172 1.33-1.535.598-.368 1.352-.551 2.262-.551.891 0 1.631.181 2.221.545.59.363 1.031.875 1.324 1.535.297.656.445 1.432.445 2.326zm-6.539 0c0 .66.09 1.233.27 1.717.179.48.455.851.826 1.113.375.258.855.387 1.441.387.59 0 1.071-.129 1.442-.387.371-.262.644-.633.82-1.113.176-.484.264-1.057.264-1.717 0-1.004-.201-1.789-.604-2.355-.398-.571-1.035-.856-1.91-.856-.586 0-1.068.129-1.447.387-.375.258-.653.627-.832 1.107-.18.477-.27 1.049-.27 1.717zm12.51-3.199c-.411 0-.778.074-1.102.223-.32.148-.592.363-.814.644-.223.277-.393.615-.51 1.014-.117.394-.176.84-.176 1.336 0 .664.094 1.236.281 1.716.188.477.473.844.856 1.102.382.254.867.381 1.453.381.363 0 .717-.035 1.06-.106.344-.07.7-.166 1.067-.287v1.196c-.348.136-.699.236-1.055.298-.355.063-.766.094-1.23.094-.875 0-1.602-.181-2.18-.545-.574-.363-1.004-.875-1.289-1.535-.281-.66-.422-1.433-.422-2.32 0-.649.09-1.242.27-1.781.179-.54.441-1.004.785-1.395.343-.395.767-.697 1.271-.908.508-.215 1.088-.322 1.74-.322.43 0 .852.048 1.266.146.418.094.805.229 1.16.404l-.492 1.16c-.297-.14-.607-.261-.932-.363-.324-.101-.66-.152-1.007-.152zm11.161-1.072v5.543c0 .597-.127 1.132-.381 1.605-.25.473-.629.848-1.136 1.125-.508.273-1.147.41-1.916.41-1.098 0-1.934-.287-2.508-.861-.571-.578-.856-1.346-.856-2.303v-5.519h1.407v5.396c0 .715.168 1.242.503 1.582.336.34.838.51 1.506.51.461 0 .836-.08 1.125-.24.293-.164.508-.403.645-.715.14-.317.211-.697.211-1.143v-5.39h1.4zm6.369 8.566l-2.467-7.154h-.053c.012.16.026.379.041.656.016.277.03.574.041.891.012.316.018.619.018.908V355h-1.277v-8.566h1.974l2.373 6.837h.035l2.455-6.837h1.969V355h-1.342v-4.77c0-.261.004-.544.012-.849.012-.305.024-.594.035-.867.016-.274.028-.493.035-.657h-.046L438.916 355h-1.242zm12.697 0h-4.852v-8.566h4.852v1.183h-3.446v2.326h3.229v1.178h-3.229v2.69h3.446V355zm9.48 0h-1.729l-4.195-6.838h-.053c.016.231.029.475.041.733.016.257.027.523.035.796.012.274.022.551.03.832V355h-1.278v-8.566h1.717l4.189 6.791h.041c-.007-.2-.017-.428-.029-.686-.012-.258-.023-.523-.035-.797-.008-.277-.014-.545-.018-.803v-4.505h1.284V355zm5.7 0h-1.412v-7.371h-2.508v-1.195h6.422v1.195h-2.502V355zm-77.567 16h-4.852v-8.566h4.852v1.183h-3.446v2.326h3.229v1.178h-3.229v2.69h3.446V371zm9.286-4.365c0 .965-.179 1.771-.539 2.42-.359.644-.881 1.131-1.564 1.459-.684.324-1.508.486-2.473.486h-2.379v-8.566h2.637c.887 0 1.652.16 2.297.48.644.316 1.142.787 1.494 1.412.352.621.527 1.391.527 2.309zm-1.464.041c0-.703-.112-1.281-.334-1.735-.219-.453-.543-.789-.973-1.007-.426-.223-.951-.334-1.576-.334h-1.201v6.222h.996c1.035 0 1.808-.263 2.32-.791.512-.527.768-1.312.768-2.355zm3.79 4.324v-8.566h1.406V371h-1.406zm7.119 0h-1.412v-7.371h-2.508v-1.195h6.422v1.195h-2.502V371zm4.294 0v-8.566h1.406V371h-1.406zm11.297 0h-1.729l-4.195-6.838h-.053c.016.231.029.475.041.733.016.257.027.523.035.796.012.274.022.551.03.832V371h-1.278v-8.566h1.717l4.189 6.791h.041c-.007-.2-.017-.428-.029-.686-.012-.258-.023-.523-.035-.797-.008-.277-.014-.545-.018-.803v-4.505h1.284V371zm6.187-4.652h3.199v4.3c-.449.149-.914.264-1.395.346-.48.082-1.019.123-1.617.123-.871 0-1.609-.172-2.215-.515-.601-.348-1.058-.85-1.371-1.506-.312-.66-.469-1.455-.469-2.385 0-.895.174-1.67.522-2.326.348-.66.853-1.17 1.518-1.53.664-.363 1.468-.544 2.414-.544.464 0 .914.046 1.347.14.438.09.838.215 1.201.375l-.492 1.16c-.289-.136-.613-.252-.972-.345-.36-.094-.733-.141-1.12-.141-.613 0-1.142.133-1.587.398-.442.266-.782.641-1.02 1.125-.238.481-.357 1.049-.357 1.706 0 .636.095 1.195.287 1.675.191.481.49.856.896 1.125.41.266.94.399 1.588.399.324 0 .6-.018.826-.053.227-.035.436-.074.627-.117v-2.209h-1.81v-1.201zm14.272 2.32c0 .508-.125.945-.375 1.312-.246.368-.601.649-1.066.844-.461.196-1.012.293-1.653.293-.312 0-.611-.017-.896-.053-.285-.035-.555-.085-.809-.152-.25-.07-.478-.154-.685-.252v-1.324c.347.152.736.291 1.166.416.429.121.867.182 1.312.182.364 0 .664-.047.903-.141.242-.098.422-.234.539-.41.117-.18.175-.389.175-.627 0-.254-.068-.469-.205-.645-.136-.175-.343-.336-.621-.48-.273-.149-.617-.307-1.031-.475-.281-.113-.551-.242-.809-.386-.253-.145-.48-.315-.679-.51-.199-.196-.358-.426-.475-.692-.113-.269-.17-.586-.17-.949 0-.484.115-.898.346-1.242.234-.344.562-.607.984-.791.426-.184.922-.275 1.489-.275.449 0 .871.046 1.265.14.399.094.789.227 1.172.399l-.445 1.13c-.352-.144-.694-.259-1.026-.345-.328-.086-.664-.129-1.007-.129-.297 0-.549.045-.756.135-.207.089-.366.216-.475.38-.105.161-.158.352-.158.575 0 .25.06.461.182.633.125.167.316.322.574.462.261.141.597.297 1.008.469.472.195.873.401 1.201.615.332.215.586.473.761.774.176.297.264.67.264 1.119zm6.984 2.332h-4.852v-8.566h4.852v1.183h-3.445v2.326h3.228v1.178h-3.228v2.69h3.445V371zm4.74-8.566c.738 0 1.347.089 1.828.269.484.18.844.453 1.078.82.238.368.358.834.358 1.401 0 .422-.079.781-.235 1.078-.156.297-.361.543-.615.738-.254.196-.525.352-.815.469L458.52 371h-1.588l-2.068-3.434h-1.377V371h-1.406v-8.566h2.408zm-.094 1.171h-.908v2.801h.973c.652 0 1.125-.121 1.418-.363.296-.242.445-.6.445-1.072 0-.496-.158-.848-.475-1.055-.312-.207-.797-.311-1.453-.311zm12.181-1.171L463.582 371h-1.488l-2.994-8.566h1.441l1.805 5.367c.054.156.113.345.176.568.066.223.127.447.181.674.059.227.104.428.135.603.031-.175.074-.376.129-.603.058-.227.119-.451.182-.674.062-.223.121-.414.175-.574l1.811-5.361h1.441zm1.605 8.566v-8.566h1.407V371h-1.407zm7.799-7.494c-.411 0-.778.074-1.102.223-.32.148-.592.363-.814.644-.223.277-.393.615-.51 1.014-.117.394-.176.84-.176 1.336 0 .664.094 1.236.281 1.716.188.477.473.844.856 1.102.383.254.867.381 1.453.381.363 0 .717-.035 1.06-.106.344-.07.7-.166 1.067-.287v1.196c-.348.136-.699.236-1.055.298-.355.063-.765.094-1.23.094-.875 0-1.602-.181-2.18-.545-.574-.363-1.004-.875-1.289-1.535-.281-.66-.422-1.433-.422-2.32 0-.649.09-1.242.27-1.781.179-.54.441-1.004.785-1.395.343-.395.767-.697 1.271-.908.508-.215 1.088-.322 1.74-.322.43 0 .852.048 1.266.146.418.094.805.229 1.16.404l-.492 1.16c-.297-.14-.607-.261-.932-.363-.324-.101-.66-.152-1.007-.152zm9.286 7.494h-4.851v-8.566h4.851v1.183h-3.445v2.326h3.228v1.178h-3.228v2.69h3.445V371z" fill="#333"/><circle cx="496.286" cy="181.286" r="1.28571" fill="#444"/><circle cx="496.286" cy="207.857" r="1.28571" fill="#444"/><circle cx="550.286" cy="181.286" r="1.28571" fill="#444"/><circle cx="550.286" cy="207.857" r="1.28571" fill="#444"/><path fill="#fff" stroke="#444" d="M496.357 181.357h53.8571v26.4286H496.357z"/><path d="M516.667 194.102c0 1.813-.517 3.202-1.552 4.166-1.029.964-2.518 1.446-4.467 1.446h-3.119V188.7h3.458c1.798 0 3.194.475 4.189 1.424.994.949 1.491 2.275 1.491 3.978zm-2.426.06c0-2.365-1.044-3.548-3.134-3.548h-1.243v7.172h1.002c2.25 0 3.375-1.208 3.375-3.624z" fill="url(#paint17_linear_2387_49014)"/><path d="M524.118 199.714l-.445-1.145h-.06c-.387.487-.786.826-1.198 1.017-.407.186-.939.279-1.597.279-.808 0-1.446-.231-1.913-.693-.462-.462-.693-1.12-.693-1.974 0-.894.311-1.552.934-1.974.627-.426 1.572-.663 2.832-.708l1.462-.045v-.369c0-.854-.437-1.281-1.311-1.281-.673 0-1.464.204-2.373.61l-.761-1.551c.969-.508 2.044-.761 3.224-.761 1.13 0 1.997.246 2.599.738.603.492.904 1.24.904 2.245v5.612h-1.604zm-.678-3.902l-.889.03c-.668.02-1.165.141-1.492.362-.326.221-.489.557-.489 1.009 0 .648.371.972 1.114.972.533 0 .957-.153 1.274-.459.321-.307.482-.714.482-1.221v-.693z" fill="url(#paint18_linear_2387_49014)"/><path d="M531.644 198.034c.402 0 .884-.087 1.446-.263v1.71c-.572.256-1.276.384-2.109.384-.919 0-1.59-.231-2.012-.693-.417-.467-.625-1.165-.625-2.094v-4.061h-1.1v-.972l1.266-.768.663-1.778h1.469v1.793H533v1.725h-2.358v4.061c0 .326.09.567.271.723.186.156.429.233.731.233z" fill="url(#paint19_linear_2387_49014)"/><path d="M540.149 199.714l-.444-1.145h-.061c-.386.487-.786.826-1.198 1.017-.406.186-.939.279-1.597.279-.808 0-1.446-.231-1.913-.693-.462-.462-.693-1.12-.693-1.974 0-.894.311-1.552.934-1.974.628-.426 1.572-.663 2.833-.708l1.461-.045v-.369c0-.854-.437-1.281-1.311-1.281-.673 0-1.464.204-2.373.61l-.761-1.551c.97-.508 2.044-.761 3.225-.761 1.13 0 1.996.246 2.599.738.602.492.904 1.24.904 2.245v5.612h-1.605zm-.678-3.902l-.889.03c-.668.02-1.165.141-1.492.362-.326.221-.489.557-.489 1.009 0 .648.371.972 1.115.972.532 0 .956-.153 1.273-.459.321-.307.482-.714.482-1.221v-.693z" fill="url(#paint20_linear_2387_49014)"/><path fill="#fff" stroke="#444" d="M477.357 204.357h53.8571v26.4286H477.357z"/><path d="M497.667 217.102c0 1.813-.517 3.202-1.552 4.166-1.029.964-2.518 1.446-4.467 1.446h-3.119V211.7h3.458c1.798 0 3.194.475 4.189 1.424.994.949 1.491 2.275 1.491 3.978zm-2.426.06c0-2.365-1.044-3.548-3.134-3.548h-1.243v7.172h1.002c2.25 0 3.375-1.208 3.375-3.624z" fill="url(#paint21_linear_2387_49014)"/><path d="M505.118 222.714l-.445-1.145h-.06c-.387.487-.786.826-1.198 1.017-.407.186-.939.279-1.597.279-.808 0-1.446-.231-1.913-.693-.462-.462-.693-1.12-.693-1.974 0-.894.311-1.552.934-1.974.627-.426 1.572-.663 2.832-.708l1.462-.045v-.369c0-.854-.437-1.281-1.311-1.281-.673 0-1.464.204-2.373.61l-.761-1.551c.969-.508 2.044-.761 3.224-.761 1.13 0 1.997.246 2.599.738.603.492.904 1.24.904 2.245v5.612h-1.604zm-.678-3.902l-.889.03c-.668.02-1.165.141-1.492.362-.326.221-.489.557-.489 1.009 0 .648.371.972 1.114.972.533 0 .957-.153 1.274-.459.321-.307.482-.714.482-1.221v-.693z" fill="url(#paint22_linear_2387_49014)"/><path d="M512.644 221.034c.402 0 .884-.087 1.446-.263v1.71c-.572.256-1.276.384-2.109.384-.919 0-1.59-.231-2.012-.693-.417-.467-.625-1.165-.625-2.094v-4.061h-1.1v-.972l1.266-.768.663-1.778h1.469v1.793H514v1.725h-2.358v4.061c0 .326.09.567.271.723.186.156.429.233.731.233z" fill="url(#paint23_linear_2387_49014)"/><path d="M521.149 222.714l-.444-1.145h-.061c-.386.487-.786.826-1.198 1.017-.406.186-.939.279-1.597.279-.808 0-1.446-.231-1.913-.693-.462-.462-.693-1.12-.693-1.974 0-.894.311-1.552.934-1.974.628-.426 1.572-.663 2.833-.708l1.461-.045v-.369c0-.854-.437-1.281-1.311-1.281-.673 0-1.464.204-2.373.61l-.761-1.551c.97-.508 2.044-.761 3.225-.761 1.13 0 1.996.246 2.599.738.602.492.904 1.24.904 2.245v5.612h-1.605zm-.678-3.902l-.889.03c-.668.02-1.165.141-1.492.362-.326.221-.489.557-.489 1.009 0 .648.371.972 1.115.972.532 0 .956-.153 1.273-.459.321-.307.482-.714.482-1.221v-.693z" fill="url(#paint24_linear_2387_49014)"/><circle cx="477.286" cy="204.286" r="1.28571" fill="#444"/><circle cx="477.286" cy="230.857" r="1.28571" fill="#444"/><circle cx="531.286" cy="204.286" r="1.28571" fill="#444"/><circle cx="531.286" cy="230.857" r="1.28571" fill="#444"/><path d="M657.642 167.635c0 .965-.18 1.771-.539 2.42-.36.644-.881 1.131-1.565 1.459-.683.324-1.508.486-2.472.486h-2.379v-8.566h2.636c.887 0 1.653.16 2.297.48.645.316 1.143.787 1.494 1.412.352.621.528 1.391.528 2.309zm-1.465.041c0-.703-.111-1.281-.334-1.735-.219-.453-.543-.789-.973-1.007-.425-.223-.951-.334-1.576-.334h-1.201v6.222h.996c1.035 0 1.809-.263 2.32-.791.512-.527.768-1.312.768-2.355zm11.396.029c0 .66-.084 1.262-.252 1.805-.164.539-.412 1.004-.744 1.394-.332.387-.748.686-1.248.897-.5.211-1.086.316-1.758.316-.684 0-1.277-.105-1.781-.316-.5-.211-.916-.512-1.248-.903-.328-.39-.574-.857-.739-1.4-.164-.543-.246-1.144-.246-1.805 0-.882.145-1.652.434-2.308.293-.66.736-1.172 1.33-1.535.598-.368 1.352-.551 2.262-.551.89 0 1.631.181 2.22.545.59.363 1.032.875 1.325 1.535.297.656.445 1.432.445 2.326zm-6.539 0c0 .66.09 1.233.269 1.717.18.48.456.851.827 1.113.375.258.855.387 1.441.387.59 0 1.07-.129 1.441-.387.372-.262.645-.633.821-1.113.176-.484.263-1.057.263-1.717 0-1.004-.201-1.789-.603-2.355-.399-.571-1.035-.856-1.91-.856-.586 0-1.069.129-1.448.387-.375.258-.652.627-.832 1.107-.179.477-.269 1.049-.269 1.717zm12.509-3.199c-.41 0-.777.074-1.101.223-.321.148-.592.363-.815.644-.222.277-.392.615-.51 1.014-.117.394-.175.84-.175 1.336 0 .664.093 1.236.281 1.716.187.477.473.844.855 1.102.383.254.868.381 1.453.381.364 0 .717-.035 1.061-.106.344-.07.699-.166 1.066-.287v1.196c-.347.136-.699.236-1.054.298-.356.063-.766.094-1.231.094-.875 0-1.601-.181-2.179-.545-.575-.363-1.004-.875-1.289-1.535-.282-.66-.422-1.433-.422-2.32 0-.649.09-1.242.269-1.781.18-.54.442-1.004.785-1.395.344-.395.768-.697 1.272-.908.508-.215 1.088-.322 1.74-.322.43 0 .852.048 1.266.146.418.094.804.229 1.16.404l-.492 1.16c-.297-.14-.608-.261-.932-.363-.324-.101-.66-.152-1.008-.152zm11.162-1.072v5.543c0 .597-.127 1.132-.381 1.605-.25.473-.629.848-1.137 1.125-.508.273-1.146.41-1.916.41-1.097 0-1.933-.287-2.508-.861-.57-.578-.855-1.346-.855-2.303v-5.519h1.406v5.396c0 .715.168 1.242.504 1.582.336.34.838.51 1.506.51.461 0 .836-.08 1.125-.24.293-.164.508-.403.645-.715.14-.317.21-.697.21-1.143v-5.39h1.401zm6.369 8.566l-2.467-7.154h-.053c.012.16.025.379.041.656s.029.574.041.891c.012.316.018.619.018.908V172h-1.278v-8.566h1.975l2.373 6.837h.035l2.455-6.837h1.969V172h-1.342v-4.77c0-.261.004-.544.012-.849.012-.305.023-.594.035-.867.016-.274.027-.493.035-.657h-.047l-2.56 7.143h-1.242zm12.696 0h-4.851v-8.566h4.851v1.183h-3.445v2.326h3.229v1.178h-3.229v2.69h3.445V172zm9.48 0h-1.728l-4.196-6.838h-.052c.015.231.029.475.041.733.015.257.027.523.035.796.012.274.021.551.029.832V172h-1.277v-8.566h1.717l4.189 6.791h.041c-.008-.2-.017-.428-.029-.686-.012-.258-.024-.523-.035-.797-.008-.277-.014-.545-.018-.803v-4.505h1.283V172zm5.701 0h-1.412v-7.371h-2.508v-1.195h6.422v1.195h-2.502V172zm11.589 0l-2.467-7.154h-.053c.012.16.026.379.041.656.016.277.03.574.041.891.012.316.018.619.018.908V172h-1.277v-8.566h1.974l2.373 6.837h.035l2.456-6.837h1.968V172h-1.341v-4.77c0-.261.003-.544.011-.849.012-.305.024-.594.035-.867.016-.274.028-.493.036-.657h-.047L731.782 172h-1.242zm13.154 0l-.838-2.379h-3.276l-.837 2.379h-1.483l3.188-8.602h1.558l3.182 8.602h-1.494zm-1.201-3.586l-.815-2.344c-.031-.101-.076-.244-.135-.427-.058-.188-.117-.377-.175-.569-.059-.195-.108-.359-.147-.492-.039.16-.088.34-.146.539-.055.195-.11.379-.164.551-.051.172-.09.305-.118.398l-.82 2.344h2.52zM753.947 172h-1.728l-4.196-6.838h-.052c.015.231.029.475.041.733.015.257.027.523.035.796.012.274.021.551.029.832V172h-1.277v-8.566h1.717l4.189 6.791h.041c-.008-.2-.018-.428-.029-.686-.012-.258-.024-.523-.035-.797-.008-.277-.014-.545-.018-.803v-4.505h1.283V172zm8.039 0l-.838-2.379h-3.275l-.838 2.379h-1.483l3.188-8.602h1.558L763.48 172h-1.494zm-1.201-3.586l-.815-2.344c-.031-.101-.076-.244-.135-.427-.058-.188-.117-.377-.175-.569-.059-.195-.108-.359-.147-.492-.039.16-.088.34-.146.539-.055.195-.11.379-.164.551-.051.172-.09.305-.118.398l-.82 2.344h2.52zm7.763-1.066h3.199v4.3c-.449.149-.914.264-1.394.346-.481.082-1.02.123-1.618.123-.871 0-1.609-.172-2.215-.515-.601-.348-1.058-.85-1.371-1.506-.312-.66-.468-1.455-.468-2.385 0-.895.173-1.67.521-2.326.348-.66.854-1.17 1.518-1.53.664-.363 1.468-.544 2.414-.544.465 0 .914.046 1.347.14.438.09.838.215 1.202.375l-.493 1.16c-.289-.136-.613-.252-.972-.345-.36-.094-.733-.141-1.119-.141-.614 0-1.143.133-1.588.398-.442.266-.782.641-1.02 1.125-.238.481-.357 1.049-.357 1.706 0 .636.095 1.195.287 1.675.191.481.49.856.896 1.125.411.266.94.399 1.588.399.324 0 .6-.018.826-.053.227-.035.436-.074.627-.117v-2.209h-1.81v-1.201zM779.129 172h-4.851v-8.566h4.851v1.183h-3.445v2.326h3.229v1.178h-3.229v2.69h3.445V172zm4.74-8.566c.738 0 1.348.089 1.828.269.485.18.844.453 1.078.82.239.368.358.834.358 1.401 0 .422-.078.781-.235 1.078-.156.297-.361.543-.615.738-.254.196-.525.352-.814.469L787.9 172h-1.588l-2.068-3.434h-1.377V172h-1.406v-8.566h2.408zm-.094 1.171h-.908v2.801h.973c.652 0 1.125-.121 1.418-.363.297-.242.445-.6.445-1.072 0-.496-.158-.848-.474-1.055-.313-.207-.797-.311-1.454-.311z" fill="#333"/><rect x=".5" y=".5" width="831" height="401" rx="2.5" stroke="#D0D5DA"/><defs><linearGradient id="paint0_linear_2387_49014" x1="127.526" y1="312.578" x2="142.91" y2="336.406" gradientUnits="userSpaceOnUse"><stop stop-color="#FFC671"/><stop offset="1" stop-color="#FF6F3D"/></linearGradient><linearGradient id="paint1_linear_2387_49014" x1="195.5" y1="85" x2="195.5" y2="110" gradientUnits="userSpaceOnUse"><stop stop-color="#FF8E3D"/><stop offset="1" stop-color="#FF6F3D"/></linearGradient><linearGradient id="paint2_linear_2387_49014" x1="166.5" y1="109" x2="166.5" y2="134" gradientUnits="userSpaceOnUse"><stop stop-color="#FF8E3D"/><stop offset="1" stop-color="#FF6F3D"/></linearGradient><linearGradient id="paint3_linear_2387_49014" x1="444.213" y1="98.9861" x2="444.213" y2="128.151" gradientUnits="userSpaceOnUse"><stop stop-color="#FF8E3D"/><stop offset="1" stop-color="#FF6F3D"/></linearGradient><linearGradient id="paint4_linear_2387_49014" x1="444.213" y1="98.9861" x2="444.213" y2="128.151" gradientUnits="userSpaceOnUse"><stop stop-color="#FF8E3D"/><stop offset="1" stop-color="#FF6F3D"/></linearGradient><linearGradient id="paint5_linear_2387_49014" x1="444.213" y1="98.9861" x2="444.213" y2="128.151" gradientUnits="userSpaceOnUse"><stop stop-color="#FF8E3D"/><stop offset="1" stop-color="#FF6F3D"/></linearGradient><linearGradient id="paint6_linear_2387_49014" x1="444.213" y1="98.9861" x2="444.213" y2="128.151" gradientUnits="userSpaceOnUse"><stop stop-color="#FF8E3D"/><stop offset="1" stop-color="#FF6F3D"/></linearGradient><linearGradient id="paint7_linear_2387_49014" x1="444.213" y1="98.9861" x2="444.213" y2="128.151" gradientUnits="userSpaceOnUse"><stop stop-color="#FF8E3D"/><stop offset="1" stop-color="#FF6F3D"/></linearGradient><linearGradient id="paint8_linear_2387_49014" x1="444.213" y1="98.9861" x2="444.213" y2="128.151" gradientUnits="userSpaceOnUse"><stop stop-color="#FF8E3D"/><stop offset="1" stop-color="#FF6F3D"/></linearGradient><linearGradient id="paint9_linear_2387_49014" x1="444.213" y1="98.9861" x2="444.213" y2="128.151" gradientUnits="userSpaceOnUse"><stop stop-color="#FF8E3D"/><stop offset="1" stop-color="#FF6F3D"/></linearGradient><linearGradient id="paint10_linear_2387_49014" x1="444.213" y1="98.9861" x2="444.213" y2="128.151" gradientUnits="userSpaceOnUse"><stop stop-color="#FF8E3D"/><stop offset="1" stop-color="#FF6F3D"/></linearGradient><linearGradient id="paint11_linear_2387_49014" x1="679.578" y1="83.683" x2="684.617" y2="88.9252" gradientUnits="userSpaceOnUse"><stop stop-color="#FF8E3D"/><stop offset="1" stop-color="#FF6F3D"/></linearGradient><linearGradient id="paint12_linear_2387_49014" x1="714.529" y1="81.359" x2="737.593" y2="81.359" gradientUnits="userSpaceOnUse"><stop stop-color="#FF8E3D"/><stop offset="1" stop-color="#FF6F3D"/></linearGradient><linearGradient id="paint13_linear_2387_49014" x1="669.372" y1="56.4075" x2="670.55" y2="61.9201" gradientUnits="userSpaceOnUse"><stop stop-color="#FF8E3D"/><stop offset="1" stop-color="#FF6F3D"/></linearGradient><linearGradient id="paint14_linear_2387_49014" x1="411.969" y1="244.761" x2="406.075" y2="254.294" gradientUnits="userSpaceOnUse"><stop stop-color="#FFC671"/><stop offset="1" stop-color="#FF6F3D"/></linearGradient><linearGradient id="paint15_linear_2387_49014" x1="449.74" y1="263.835" x2="449.613" y2="266.15" gradientUnits="userSpaceOnUse"><stop stop-color="#FF8E3D"/><stop offset="1" stop-color="#FF6F3D"/></linearGradient><linearGradient id="paint16_linear_2387_49014" x1="412.117" y1="268.08" x2="443.381" y2="315.99" gradientUnits="userSpaceOnUse"><stop stop-color="#FFC671"/><stop offset="1" stop-color="#FF6F3D"/></linearGradient><linearGradient id="paint17_linear_2387_49014" x1="524.641" y1="188.7" x2="524.641" y2="199.865" gradientUnits="userSpaceOnUse"><stop stop-color="#FF8E3D"/><stop offset="1" stop-color="#FF6F3D"/></linearGradient><linearGradient id="paint18_linear_2387_49014" x1="524.641" y1="188.7" x2="524.641" y2="199.865" gradientUnits="userSpaceOnUse"><stop stop-color="#FF8E3D"/><stop offset="1" stop-color="#FF6F3D"/></linearGradient><linearGradient id="paint19_linear_2387_49014" x1="524.641" y1="188.7" x2="524.641" y2="199.865" gradientUnits="userSpaceOnUse"><stop stop-color="#FF8E3D"/><stop offset="1" stop-color="#FF6F3D"/></linearGradient><linearGradient id="paint20_linear_2387_49014" x1="524.641" y1="188.7" x2="524.641" y2="199.865" gradientUnits="userSpaceOnUse"><stop stop-color="#FF8E3D"/><stop offset="1" stop-color="#FF6F3D"/></linearGradient><linearGradient id="paint21_linear_2387_49014" x1="505.641" y1="211.7" x2="505.641" y2="222.865" gradientUnits="userSpaceOnUse"><stop stop-color="#FF8E3D"/><stop offset="1" stop-color="#FF6F3D"/></linearGradient><linearGradient id="paint22_linear_2387_49014" x1="505.641" y1="211.7" x2="505.641" y2="222.865" gradientUnits="userSpaceOnUse"><stop stop-color="#FF8E3D"/><stop offset="1" stop-color="#FF6F3D"/></linearGradient><linearGradient id="paint23_linear_2387_49014" x1="505.641" y1="211.7" x2="505.641" y2="222.865" gradientUnits="userSpaceOnUse"><stop stop-color="#FF8E3D"/><stop offset="1" stop-color="#FF6F3D"/></linearGradient><linearGradient id="paint24_linear_2387_49014" x1="505.641" y1="211.7" x2="505.641" y2="222.865" gradientUnits="userSpaceOnUse"><stop stop-color="#FF8E3D"/><stop offset="1" stop-color="#FF6F3D"/></linearGradient></defs></svg>