<svg width="832" height="402" viewBox="0 0 832 402" fill="none" xmlns="http://www.w3.org/2000/svg"><rect x=".5" y=".5" width="831" height="401" rx="2.5" fill="#F9F9F9"/><rect x="528" y="17" width="254" height="369" rx="10" fill="#F5F5F5" stroke="gray" stroke-linecap="round" stroke-linejoin="round" stroke-dasharray="5 7"/><rect x="235" y="17" width="254" height="369" rx="10" fill="#F5F5F5" stroke="#FF6F3D" stroke-linecap="round" stroke-linejoin="round" stroke-dasharray="5 7"/><rect opacity=".8" x="269" y="204" width="481" height="156" rx="10" fill="#D9F4FF" stroke="#9ADAF3" stroke-linecap="round" stroke-linejoin="round" stroke-dasharray="5 7"/><path d="M190 87c-.552 0-1 .4477-1 1s.448 1 1 1v-2zm97.707 1.7071c.391-.3905.391-1.0237 0-1.4142l-6.364-6.364c-.39-.3905-1.024-.3905-1.414 0-.391.3906-.391 1.0237 0 1.4142L285.586 88l-5.657 5.6569c-.391.3905-.391 1.0236 0 1.4142.39.3905 1.024.3905 1.414 0l6.364-6.364zM190 89h39.202v-2H190v2zm39.202 0H287v-2h-57.798v2z" fill="#666"/><path fill-rule="evenodd" clip-rule="evenodd" d="M625 293.2v-21.6h-5.4c-3.241 0-5.4 2.908-5.4 5.143V293.2H625z" fill="#444"/><path fill-rule="evenodd" clip-rule="evenodd" d="M625.6 293.8h-12v-17.056c0-1.295.616-2.723 1.647-3.821 1.041-1.108 2.542-1.923 4.353-1.923h6v22.8zm-6-22.2c-3.241 0-5.4 2.909-5.4 5.144V293.2H625v-21.6h-5.4z" fill="#333"/><path fill-rule="evenodd" clip-rule="evenodd" d="M683.2 271.6V286H694v-9.712c0-2.888-2.4-4.688-4.8-4.688h-6z" fill="#444"/><path fill-rule="evenodd" clip-rule="evenodd" d="M682.6 271h6.6c2.671 0 5.4 2.011 5.4 5.289V286.6h-12V271zm.6 15v-14.4h6c2.4 0 4.8 1.8 4.8 4.689V286h-10.8z" fill="#333"/><path fill-rule="evenodd" clip-rule="evenodd" d="M677.2 246.4h-46.263L619.6 257.601V294.4h57.6v-48z" fill="#fff"/><path fill-rule="evenodd" clip-rule="evenodd" d="M677.8 245.8h-47.11L619 257.35V295h58.8v-49.2zm-.6.6v48h-57.6v-36.799l11.337-11.201H677.2z" fill="#333"/><path fill-rule="evenodd" clip-rule="evenodd" d="M630.4 246.4l-10.8 10.8h10.8v-10.8z" fill="url(#paint0_linear_2331_49636)"/><path fill-rule="evenodd" clip-rule="evenodd" d="M630.629 245.845c-.224-.092-.482-.041-.653.131l-10.8 10.8c-.172.171-.223.429-.13.653.092.225.311.371.554.371h10.8c.331 0 .6-.269.6-.6v-10.8c0-.243-.146-.462-.371-.555zm-.229.555v10.8h-10.8l10.8-10.8z" fill="#333"/><path fill-rule="evenodd" clip-rule="evenodd" d="M688.6 256h-46.263L631 267.201V304h57.6v-48z" fill="#fff"/><path fill-rule="evenodd" clip-rule="evenodd" d="M689.2 255.4h-47.11l-11.69 11.55v37.65h58.8v-49.2zm-.6.6v48H631v-36.799L642.337 256H688.6z" fill="#333"/><path fill-rule="evenodd" clip-rule="evenodd" d="M641.8 256L631 266.8h10.8V256z" fill="#BDECFF"/><path fill-rule="evenodd" clip-rule="evenodd" d="M642.03 255.446c-.225-.093-.483-.042-.654.13l-10.8 10.8c-.172.171-.223.429-.13.654.092.224.311.37.554.37h10.8c.331 0 .6-.269.6-.6V256c0-.243-.146-.462-.37-.554zm-.23.554v10.8H631l10.8-10.8zM680.2 287.5c0-.166-.134-.3-.3-.3h-42.6c-.166 0-.3.134-.3.3 0 .165.134.3.3.3h42.6c.166 0 .3-.135.3-.3zM681.4 274.3c0-.166-.134-.3-.3-.3h-34.2c-.166 0-.3.134-.3.3 0 .166.134.3.3.3h34.2c.166 0 .3-.134.3-.3zM681.4 280.9c0-.166-.134-.3-.3-.3h-43.8c-.166 0-.3.134-.3.3 0 .166.134.3.3.3h43.8c.166 0 .3-.134.3-.3z" fill="#333"/><path d="M681.1 287.5h-17.4" stroke="#333" stroke-linecap="round"/><path fill-rule="evenodd" clip-rule="evenodd" d="M671.8 266.2c0-.331-.269-.6-.6-.6h-19.8c-.331 0-.6.269-.6.6 0 .331.269.6.6.6h19.8c.331 0 .6-.269.6-.6z" fill="url(#paint1_linear_2331_49636)"/><path fill-rule="evenodd" clip-rule="evenodd" d="M651.995 286.9l-5.253 6.17h-31.527c-3.877 0-4.882 1.33-4.558 4.25l5.076 30.971c.291 1.906 2.323 3.909 4.927 3.909h69.726c2.605 0 3.87-3.6 3.87-3.6l4.497-40.5c.238-1.201-.402-2.7-2.532-2.7h-40.319c-2.108 0-2.607.235-3.907 1.5z" fill="url(#paint2_linear_2331_49636)"/><path fill-rule="evenodd" clip-rule="evenodd" d="M645.833 304.389c0-.675.513-1.222 1.146-1.222h16.042c.633 0 1.146.547 1.146 1.222v15.889c0 .675-.513 1.222-1.146 1.222h-16.042c-.633 0-1.146-.547-1.146-1.222v-15.889z" fill="#fff"/><path fill-rule="evenodd" clip-rule="evenodd" d="M663.583 304.811c.266.197.319.568.117.829l-9.772 12.652c-.223.293-.557.51-.972.516-.399.006-.751-.185-1.025-.445-.014-.013-.027-.026-.039-.04l-3.217-3.664c-.217-.248-.188-.621.065-.834.253-.213.634-.185.852.063l3.196 3.641c.069.062.116.084.139.092.007-.006.018-.018.032-.036l.003-.004 9.775-12.655c.201-.26.58-.312.846-.115z" fill="#333"/><path fill-rule="evenodd" clip-rule="evenodd" d="M647.781 302.333h9.066c.325 0 .588.263.588.588 0 .325-.263.588-.588.588h-9.057c-.225.007-.446.059-.65.154-.206.095-.39.231-.541.4-.15.169-.265.367-.336.582-.071.215-.097.441-.077.666.002.018.003.036.003.053v13.978c-.004.239.041.476.131.698.09.221.224.422.393.591.17.17.372.303.594.393.223.09.461.135.701.131h14.077c.497-.007.971-.209 1.319-.562.301-.304.422-.743.422-1.326v-7.026c0-.325.263-.588.588-.588.325 0 .588.263.588.588v7.026c0 .719-.145 1.53-.761 2.153-.567.574-1.337.901-2.144.912H648.02c-.395.005-.788-.069-1.154-.217-.368-.149-.702-.371-.983-.651s-.503-.614-.653-.981c-.148-.366-.223-.758-.218-1.153v-13.941c-.03-.376.016-.755.134-1.114.122-.367.318-.706.576-.995.258-.289.572-.522.924-.685.352-.163.733-.252 1.12-.262h.015z" fill="#333"/><path fill-rule="evenodd" clip-rule="evenodd" d="M651.705 286.594c1.071-1.083 2.405-1.794 3.905-1.794h40.355c2.268 0 3.675 1.792 3.402 3.219l-4.758 40.302c-.081 1.02-.504 1.992-1.263 2.71-.763.721-1.849 1.169-3.22 1.169h-69.789c-2.751 0-4.913-2.108-5.228-4.162v-.002l-5.081-30.972c-.162-1.082.393-2.235 1.285-3.099.898-.87 2.182-1.495 3.574-1.495h31.598l5.215-5.87.005-.006zm.432.417l-5.384 6.059h-31.866c-1.214 0-2.354.548-3.157 1.326-.808.784-1.231 1.754-1.109 2.577v.003l5.081 30.97c.268 1.756 2.173 3.654 4.635 3.654h69.789c1.235 0 2.168-.401 2.808-1.005.642-.608 1.008-1.438 1.077-2.327v-.006l4.763-40.335.002-.012c.193-.972-.822-2.515-2.811-2.515H655.61c-1.335 0-2.514.643-3.473 1.611z" fill="#333"/><path d="M250.5 88c0 8.0081-6.492 14.5-14.5 14.5s-14.5-6.4919-14.5-14.5c0-8.0081 6.492-14.5 14.5-14.5s14.5 6.4919 14.5 14.5z" fill="#F9F9F9" stroke="#D0D5DA"/><path d="M238.294 95h-2.716v-7.4355l.026-1.2217.044-1.336c-.451.4512-.764.7471-.94.8877l-1.477 1.1866-1.309-1.6348 4.14-3.2959h2.232V95zM433.293 317.293c-.391.39-.391 1.024 0 1.414l6.364 6.364c.39.391 1.024.391 1.414 0 .391-.39.391-1.024 0-1.414L435.414 318l5.657-5.657c.391-.39.391-1.024 0-1.414-.39-.391-1.024-.391-1.414 0l-6.364 6.364zM594 319c.552 0 1-.448 1-1s-.448-1-1-1v2zm-160 0h64.663v-2H434v2zm64.663 0H594v-2h-95.337v2zM433 269c-.552 0-1 .448-1 1s.448 1 1 1v-2zm160.707 1.707c.391-.39.391-1.024 0-1.414l-6.364-6.364c-.39-.391-1.024-.391-1.414 0-.391.39-.391 1.024 0 1.414l5.657 5.657-5.657 5.657c-.391.39-.391 1.024 0 1.414.39.391 1.024.391 1.414 0l6.364-6.364zM433 271h64.663v-2H433v2zm64.663 0H593v-2h-95.337v2z" fill="#666"/><path d="M524.5 317c0 8.008-6.492 14.5-14.5 14.5s-14.5-6.492-14.5-14.5 6.492-14.5 14.5-14.5 14.5 6.492 14.5 14.5z" fill="#F9F9F9" stroke="#D0D5DA"/><path d="M510.255 315.791c1.242 0 2.229.349 2.962 1.046.738.697 1.107 1.652 1.107 2.865 0 1.436-.442 2.54-1.327 3.314-.885.773-2.15 1.16-3.797 1.16-1.429 0-2.584-.232-3.463-.695v-2.346c.463.246 1.002.448 1.617.606.616.153 1.199.229 1.75.229 1.658 0 2.487-.68 2.487-2.039 0-1.295-.859-1.943-2.575-1.943-.311 0-.654.033-1.029.097-.375.059-.679.123-.914.193l-1.081-.58.484-6.548h6.969v2.303h-4.588l-.237 2.523.308-.062c.357-.082.8-.123 1.327-.123z" fill="#666"/><path d="M524.5 269c0 8.008-6.492 14.5-14.5 14.5s-14.5-6.492-14.5-14.5 6.492-14.5 14.5-14.5 14.5 6.492 14.5 14.5z" fill="#F9F9F9" stroke="#D0D5DA"/><path d="M514.061 266.024c0 .803-.244 1.486-.73 2.048-.486.563-1.169.949-2.048 1.16v.053c1.037.129 1.822.445 2.356.949.533.498.799 1.172.799 2.022 0 1.236-.448 2.2-1.344 2.891-.897.686-2.177 1.029-3.841 1.029-1.395 0-2.631-.232-3.709-.695v-2.311c.498.252 1.046.457 1.644.615.597.158 1.189.237 1.775.237.896 0 1.558-.152 1.986-.457.428-.304.642-.794.642-1.467 0-.604-.246-1.032-.738-1.284-.493-.252-1.278-.377-2.356-.377h-.976v-2.083h.994c.996 0 1.722-.129 2.179-.387.463-.264.695-.712.695-1.345 0-.973-.61-1.459-1.828-1.459-.422 0-.853.07-1.292.211-.434.141-.917.384-1.451.73l-1.256-1.873c1.171-.843 2.569-1.265 4.192-1.265 1.33 0 2.379.269 3.146.808.774.539 1.161 1.289 1.161 2.25zM362 167c0-.552-.448-1-1-1s-1 .448-1 1h2zm-1.707 71.707c.39.391 1.024.391 1.414 0l6.364-6.364c.391-.39.391-1.024 0-1.414-.39-.391-1.024-.391-1.414 0L361 236.586l-5.657-5.657c-.39-.391-1.024-.391-1.414 0-.391.39-.391 1.024 0 1.414l6.364 6.364zM360 167v28.694h2V167h-2zm0 28.694V238h2v-42.306h-2zM655.707 163.293c-.39-.391-1.024-.391-1.414 0l-6.364 6.364c-.391.39-.391 1.024 0 1.414.39.391 1.024.391 1.414 0l5.657-5.657 5.657 5.657c.39.391 1.024.391 1.414 0 .391-.39.391-1.024 0-1.414l-6.364-6.364zm-1.414 72.414c.39.391 1.024.391 1.414 0l6.364-6.364c.391-.39.391-1.024 0-1.414-.39-.391-1.024-.391-1.414 0L655 233.586l-5.657-5.657c-.39-.391-1.024-.391-1.414 0-.391.39-.391 1.024 0 1.414l6.364 6.364zM654 164v28.694h2V164h-2zm0 28.694V235h2v-42.306h-2z" fill="#666"/><path d="M361 216.5c-8.008 0-14.5-6.492-14.5-14.5s6.492-14.5 14.5-14.5 14.5 6.492 14.5 14.5-6.492 14.5-14.5 14.5z" fill="#F9F9F9" stroke="#D0D5DA"/><path d="M365.562 209h-8.983v-1.89l3.226-3.26c.955-.979 1.579-1.656 1.872-2.031.293-.381.504-.732.633-1.054.128-.323.193-.657.193-1.002 0-.516-.144-.9-.431-1.152-.281-.252-.659-.378-1.134-.378-.498 0-.981.115-1.45.343-.468.229-.958.554-1.467.976l-1.477-1.749c.633-.539 1.157-.92 1.573-1.143.416-.222.87-.392 1.362-.51.493-.123 1.043-.184 1.653-.184.803 0 1.512.146 2.127.439.615.293 1.093.703 1.432 1.231.34.527.51 1.131.51 1.81 0 .592-.105 1.149-.316 1.67-.205.516-.528 1.046-.967 1.591-.434.545-1.201 1.321-2.303 2.329l-1.652 1.556v.123h5.599V209z" fill="#666"/><path d="M655 216.5c-8.008 0-14.5-6.492-14.5-14.5s6.492-14.5 14.5-14.5 14.5 6.492 14.5 14.5-6.492 14.5-14.5 14.5z" fill="#F9F9F9" stroke="#D0D5DA"/><path d="M659.852 206.337h-1.547V209h-2.655v-2.663h-5.484v-1.89l5.634-8.297h2.505v8.078h1.547v2.109zm-4.202-2.109v-2.18c0-.363.015-.891.044-1.582.03-.692.053-1.093.071-1.204h-.071c-.216.48-.477.949-.782 1.406l-2.355 3.56h3.093z" fill="#666"/><path d="M655 85.228c0-3.7868 3.085-6.8567 6.889-6.8567h48.222c3.805 0 6.889 3.0699 6.889 6.8567v13.7134h-62V85.228zM655 101.4h62v20.371h-62V101.4zM655 124.429h62v13.581c0 3.75-3.084 6.79-6.889 6.79h-48.222c-3.805 0-6.889-3.04-6.889-6.79v-13.581z" fill="#444"/><path d="M696.17 87.4426c0 1.2229-.991 2.2142-2.214 2.2142-1.223 0-2.215-.9913-2.215-2.2142 0-1.223.992-2.2143 2.215-2.2143 1.223 0 2.214.9913 2.214 2.2143zM703.058 87.4426c0 1.2229-.991 2.2142-2.214 2.2142-1.223 0-2.214-.9913-2.214-2.2142 0-1.223.991-2.2143 2.214-2.2143 1.223 0 2.214.9913 2.214 2.2143zM709.947 87.4426c0 1.2229-.991 2.2142-2.214 2.2142-1.223 0-2.215-.9913-2.215-2.2142 0-1.223.992-2.2143 2.215-2.2143 1.223 0 2.214.9913 2.214 2.2143zM696.17 110.299c0 1.223-.991 2.214-2.214 2.214-1.223 0-2.215-.991-2.215-2.214 0-1.223.992-2.214 2.215-2.214 1.223 0 2.214.991 2.214 2.214zM703.058 110.299c0 1.223-.991 2.214-2.214 2.214-1.223 0-2.214-.991-2.214-2.214 0-1.223.991-2.214 2.214-2.214 1.223 0 2.214.991 2.214 2.214zM709.947 110.299c0 1.223-.991 2.214-2.214 2.214-1.223 0-2.215-.991-2.215-2.214 0-1.223.992-2.214 2.215-2.214 1.223 0 2.214.991 2.214 2.214zM696.17 133.155c0 1.223-.991 2.215-2.214 2.215-1.223 0-2.215-.992-2.215-2.215 0-1.222.992-2.214 2.215-2.214 1.223 0 2.214.992 2.214 2.214zM703.058 133.155c0 1.223-.991 2.215-2.214 2.215-1.223 0-2.214-.992-2.214-2.215 0-1.222.991-2.214 2.214-2.214 1.223 0 2.214.992 2.214 2.214zM709.947 133.155c0 1.223-.991 2.215-2.214 2.215-1.223 0-2.215-.992-2.215-2.215 0-1.222.992-2.214 2.215-2.214 1.223 0 2.214.992 2.214 2.214z" fill="#fff"/><path d="M610.329 64.0826c0-1.0834.574-2.4931 1.556-3.6411.978-1.144 2.284-1.9415 3.679-1.9415h42.955l19.01 19.139v61.078c0 3.122-2.361 5.583-5.235 5.583h-56.73c-2.874 0-5.235-2.461-5.235-5.583V64.0826z" fill="#F9F9F9" stroke="#333"/><rect x="623.114" y="85.457" width="47" height="2" rx="1" fill="#666"/><rect x="623.114" y="93.457" width="47" height="2" rx="1" fill="#666"/><rect x="623.114" y="101.457" width="47" height="2" rx="1" fill="#666"/><rect x="623.114" y="109.457" width="47" height="2" rx="1" fill="#666"/><rect x="623.114" y="117.457" width="47" height="2" rx="1" fill="#666"/><rect x="623.114" y="125.457" width="47" height="2" rx="1" fill="#666"/><path d="M661.052 78.3714s-3.395 0-3.395-3.3952V58l20.372 20.3714h-16.977z" fill="#333"/><path fill-rule="evenodd" clip-rule="evenodd" d="M607.939 92.0141l-13.197-6.2784c-.735-.3588-1.742-1.1206-1.742-2.405 0-1.2996 1.022-2.0433 1.772-2.3819l5.263-2.5113 9.246 4.417c.286.1398.763.2486 1.318.2486.558 0 1.009-.1101 1.255-.2358l.019-.0094 9.253-4.4204 5.292 2.5255c.736.3588 1.742 1.1205 1.742 2.405 0 1.3002-1.022 2.044-1.773 2.3823l-13.16 6.2614c-.802.3872-1.769.5311-2.628.5311-.867 0-1.835-.1462-2.646-.5218l-.014-.0069zm4.594-1.4472l13.183-6.2718c1.123-.4978 1.123-1.344 0-1.8915l-4.59-2.1902-8.544 4.0817c-1.074.5475-2.881.5475-4.004 0l-8.544-4.0817-4.589 2.1902c-1.123.4978-1.123 1.3439 0 1.8915l13.182 6.2718c1.074.4977 2.881.4977 3.906 0z" fill="#fff"/><path fill-rule="evenodd" clip-rule="evenodd" d="M625.972 74.5834c1.128.585 1.128 1.4892 0 2.021l-13.246 6.7014c-1.129.5851-2.944.5851-4.023 0l-13.246-6.7014c-1.129-.585-1.129-1.4892 0-2.021l4.513-2.287 8.733 4.4144c1.128.585 2.943.585 4.023 0l8.732-4.4144 4.514 2.287zm-31.191-1.5547l5.188-2.6288 9.44 4.7716c.288.1493.767.2657 1.324.2657.56 0 1.014-.1177 1.261-.252l.02-.0108 9.445-4.7745 5.219 2.6442c.739.3834 1.751 1.1973 1.751 2.5697 0 1.3893-1.028 2.184-1.782 2.5455l-13.223 6.6897c-.839.4328-1.828.608-2.728.608-.891 0-1.876-.1718-2.703-.6137l-13.242-6.6996c-.74-.3834-1.751-1.1973-1.751-2.5697 0-1.3889 1.027-2.1837 1.781-2.5453z" fill="#fff"/><path fill-rule="evenodd" clip-rule="evenodd" d="M607.939 76.7813l-13.196-6.2784c-.736-.3588-1.743-1.1205-1.743-2.405 0-1.3001 1.023-2.044 1.774-2.3823l13.159-6.2608c.835-.4051 1.819-.5691 2.715-.5691.886 0 1.866.1608 2.689.5744l13.179 6.2701c.736.3588 1.742 1.1206 1.742 2.405 0 1.3002-1.022 2.044-1.773 2.3823l-13.185 6.273-.019.0088c-.822.3639-1.789.5108-2.67.5108-.876 0-1.845-.1456-2.657-.5219l-.015-.0069zm17.875-7.719c1.123-.4977 1.123-1.3439 0-1.8915l-13.183-6.2718c-1.074-.5475-2.88-.5475-4.003 0l-13.183 6.2718c-1.123.4978-1.123 1.344 0 1.8915l13.183 6.2718c1.074.4978 2.88.4978 4.003 0l13.183-6.2718z" fill="#fff"/><path fill-rule="evenodd" clip-rule="evenodd" d="M608.598 91.1384l-13.462-6.5463c-1.147-.5715-1.147-1.4547 0-1.9743l4.687-2.286 8.725 4.2603c1.147.5715 2.992.5715 4.089 0l8.726-4.2603 4.687 2.286c1.146.5715 1.146 1.4547 0 1.9743l-13.463 6.5463c-1.047.5196-2.892.5196-3.989 0z" fill="#FF6F3D"/><path fill-rule="evenodd" clip-rule="evenodd" d="M608.598 83.0855l-13.462-6.5463c-1.147-.5715-1.147-1.4548 0-1.9743l4.587-2.2341 8.875 4.3123c1.147.5715 2.992.5715 4.089 0l8.875-4.3123 4.587 2.2341c1.147.5715 1.147 1.4547 0 1.9743l-13.462 6.5463c-1.147.5715-2.992.5715-4.089 0z" fill="#95C038"/><path fill-rule="evenodd" clip-rule="evenodd" d="M608.599 75.2402l-13.463-6.5463c-1.147-.5715-1.147-1.4548 0-1.9743l13.463-6.5463c1.147-.5715 2.991-.5715 4.088 0l13.463 6.5463c1.147.5715 1.147 1.4547 0 1.9743l-13.463 6.5463c-1.146.5196-2.991.5196-4.088 0z" fill="#5DC0E8"/><path d="M655.626 38.6348c0 .9648-.18 1.7714-.539 2.4199-.359.6445-.881 1.1308-1.564 1.459-.684.3242-1.508.4863-2.473.4863h-2.379v-8.5664h2.637c.887 0 1.652.1602 2.297.4805.644.3164 1.142.7871 1.494 1.4121.351.6211.527 1.3906.527 2.3086zm-1.465.041c0-.7031-.111-1.2813-.334-1.7344-.218-.4531-.543-.7891-.972-1.0078-.426-.2227-.951-.334-1.576-.334h-1.202v6.2227h.996c1.036 0 1.809-.2637 2.321-.7911.511-.5273.767-1.3124.767-2.3554zm11.396.0293c0 .6601-.084 1.2617-.252 1.8047-.164.539-.412 1.0039-.744 1.3945-.332.3867-.748.6855-1.248.8965-.5.2109-1.086.3164-1.758.3164-.683 0-1.277-.1055-1.781-.3164-.5-.211-.916-.5117-1.248-.9024-.328-.3906-.574-.8574-.738-1.4004-.164-.5429-.246-1.1445-.246-1.8046 0-.8829.144-1.6524.433-2.3086.293-.6602.737-1.1719 1.33-1.5352.598-.3672 1.352-.5508 2.262-.5508.891 0 1.631.1817 2.221.545.59.3632 1.031.875 1.324 1.5351.297.6563.445 1.4316.445 2.3262zm-6.539 0c0 .6601.09 1.2324.27 1.7168.18.4804.455.8515.826 1.1133.375.2578.855.3867 1.441.3867.59 0 1.071-.1289 1.442-.3867.371-.2618.644-.6329.82-1.1133.176-.4844.264-1.0567.264-1.7168 0-1.0039-.201-1.7891-.604-2.3555-.398-.5703-1.035-.8555-1.91-.8555-.586 0-1.068.1289-1.447.3868-.375.2578-.652.6269-.832 1.1074-.18.4765-.27 1.0488-.27 1.7168zm12.51-3.1992c-.411 0-.778.0742-1.102.2226-.32.1485-.592.3633-.814.6445-.223.2774-.393.6153-.51 1.0137-.117.3945-.176.8399-.176 1.336 0 .664.094 1.2363.281 1.7168.188.4765.473.8437.856 1.1015.383.2539.867.3809 1.453.3809.363 0 .717-.0352 1.06-.1055.344-.0703.7-.166 1.067-.2871v1.1953c-.348.1367-.699.2363-1.055.2988-.355.0625-.765.0938-1.23.0938-.875 0-1.602-.1817-2.18-.5449-.574-.3633-1.004-.875-1.289-1.5352-.281-.6601-.422-1.4336-.422-2.3203 0-.6484.09-1.2422.27-1.7813.179-.539.441-1.0039.785-1.3945.343-.3945.767-.6972 1.271-.9082.508-.2148 1.088-.3223 1.74-.3223.43 0 .852.0489 1.266.1465.418.0938.805.2285 1.16.4043l-.492 1.1602c-.297-.1406-.607-.2617-.932-.3633-.324-.1016-.66-.1523-1.007-.1523zm11.161-1.0723v5.543c0 .5976-.127 1.1328-.381 1.6054-.25.4727-.629.8477-1.136 1.125-.508.2735-1.147.4102-1.916.4102-1.098 0-1.934-.2871-2.508-.8613-.57-.5782-.856-1.3457-.856-2.3028v-5.5195h1.407v5.3965c0 .7148.168 1.2422.504 1.582.335.3399.837.5098 1.505.5098.461 0 .836-.0801 1.125-.2403.293-.164.508-.4023.645-.7148.141-.3164.211-.6973.211-1.1426v-5.3906h1.4zM689.058 43l-2.467-7.1543h-.053c.012.1602.026.3789.041.6563.016.2773.03.5742.041.8906.012.3164.018.6191.018.9082V43h-1.277v-8.5664h1.974l2.373 6.8379h.035l2.456-6.8379h1.968V43h-1.342v-4.7695c0-.2617.004-.545.012-.8496.012-.3047.024-.5938.035-.8672.016-.2735.028-.4922.036-.6563h-.047L690.3 43h-1.242zm12.697 0h-4.852v-8.5664h4.852v1.1836h-3.446v2.3262h3.229v1.1777h-3.229v2.6894h3.446V43zm9.48 0h-1.729l-4.195-6.8379h-.053c.016.2305.029.4746.041.7324.016.2578.027.5235.035.7969.012.2734.022.5508.03.832V43h-1.278v-8.5664h1.717l4.19 6.791h.041c-.008-.1992-.018-.4277-.03-.6855-.011-.2579-.023-.5235-.035-.7969-.008-.2774-.014-.5449-.018-.8027v-4.5059h1.284V43zm5.7 0h-1.412v-7.3711h-2.508v-1.1953h6.422v1.1953h-2.502V43zm12.837-2.332c0 .5078-.125.9453-.375 1.3125-.246.3672-.601.6484-1.066.8437-.461.1953-1.012.293-1.652.293-.313 0-.612-.0176-.897-.0527-.285-.0352-.555-.086-.808-.1524-.25-.0703-.479-.1543-.686-.2519v-1.3243c.348.1524.736.2911 1.166.4161.43.121.867.1816 1.312.1816.364 0 .665-.0469.903-.1406.242-.0977.422-.2344.539-.4102.117-.1797.176-.3887.176-.6269 0-.2539-.069-.4688-.205-.6446-.137-.1758-.344-.3359-.621-.4804-.274-.1485-.618-.3067-1.032-.4747-.281-.1132-.551-.2421-.808-.3867-.254-.1445-.481-.3144-.68-.5097-.199-.1953-.357-.4258-.475-.6914-.113-.2696-.17-.586-.17-.9493 0-.4843.116-.8984.346-1.2421.235-.3438.563-.6075.985-.7911.425-.1836.921-.2754 1.488-.2754.449 0 .871.0469 1.265.1407.399.0937.789.2265 1.172.3984l-.445 1.1309c-.352-.1446-.693-.2598-1.025-.3457-.329-.086-.664-.1289-1.008-.1289-.297 0-.549.0449-.756.1347-.207.0899-.365.2168-.475.3809-.105.1601-.158.3515-.158.5742 0 .25.061.4609.182.6328.125.168.316.3223.574.4629.262.1406.598.2969 1.008.4688.472.1953.873.4003 1.201.6152.332.2148.586.4726.762.7734.175.2969.263.67.263 1.1192zM736.756 43h-4.851v-8.5664h4.851v1.1836h-3.445v2.3262h3.228v1.1777h-3.228v2.6894h3.445V43zm4.74-8.5664c.738 0 1.348.0898 1.828.2695.485.1797.844.4531 1.078.8203.239.3672.358.834.358 1.4004 0 .4219-.078.7813-.235 1.0782-.156.2968-.361.5429-.615.7382-.254.1953-.525.3516-.814.4688L745.527 43h-1.588l-2.068-3.4336h-1.377V43h-1.406v-8.5664h2.408zm-.094 1.1719h-.908v2.8007h.973c.652 0 1.125-.121 1.418-.3632.297-.2422.445-.5996.445-1.0723 0-.4961-.158-.8477-.475-1.0547-.312-.207-.796-.3105-1.453-.3105zm12.181-1.1719L750.589 43h-1.488l-2.994-8.5664h1.441l1.805 5.3672c.055.1562.113.3457.176.5683.066.2227.127.4473.181.6739.059.2265.104.4277.135.6035.031-.1758.074-.377.129-.6035.059-.2266.119-.4512.182-.6739.062-.2226.121-.414.175-.5742l1.811-5.3613h1.441zM755.188 43v-8.5664h1.407V43h-1.407zm7.799-7.4941c-.41 0-.778.0742-1.102.2226-.32.1485-.592.3633-.814.6445-.223.2774-.393.6153-.51 1.0137-.117.3945-.176.8399-.176 1.336 0 .664.094 1.2363.281 1.7168.188.4765.473.8437.856 1.1015.383.2539.867.3809 1.453.3809.363 0 .717-.0352 1.061-.1055.343-.0703.699-.166 1.066-.2871v1.1953c-.348.1367-.699.2363-1.055.2988-.355.0625-.765.0938-1.23.0938-.875 0-1.602-.1817-2.18-.5449-.574-.3633-1.004-.875-1.289-1.5352-.281-.6601-.422-1.4336-.422-2.3203 0-.6484.09-1.2422.27-1.7813.179-.539.441-1.0039.785-1.3945.344-.3945.768-.6972 1.271-.9082.508-.2148 1.088-.3223 1.741-.3223.429 0 .851.0489 1.265.1465.418.0938.805.2285 1.16.4043l-.492 1.1602c-.297-.1406-.607-.2617-.931-.3633-.325-.1016-.661-.1523-1.008-.1523zM772.273 43h-4.851v-8.5664h4.851v1.1836h-3.445v2.3262h3.229v1.1777h-3.229v2.6894h3.445V43z" fill="#333"/><path d="M415.737 120.651h.5V58.9269c-.012-1.6907-.685-3.3093-1.873-4.506l-.355.3523.355-.3523c-1.188-1.1967-2.797-1.8753-4.479-1.8879v0h-97.641v-.0001l-.003.0001c-1.682.0126-3.291.6912-4.48 1.8879-1.188 1.1967-1.86 2.8153-1.873 4.506h0v61.7241h109.849z" fill="#FEFEFE" stroke="#333"/><path d="M375.768 137.496h-29.411v8.295h29.411v-8.295z" fill="#EFEFEF"/><path fill-rule="evenodd" clip-rule="evenodd" d="M338.839 145.791c-2.056 0-3.794 1.707-3.794 3.771 0 2.063 1.738 3.77 3.794 3.77h42.939c2.056 0 3.794-1.707 3.794-3.77 0-2.064-1.738-3.771-3.794-3.771h-42.939z" fill="#EFEFEF"/><path fill-rule="evenodd" clip-rule="evenodd" d="M381.778 154.087H338.84c-2.466 0-4.549-2.038-4.549-4.525 0-2.487 2.083-4.525 4.549-4.525h42.938c2.466 0 4.548 2.038 4.548 4.525 0 2.487-2.082 4.525-4.548 4.525zm-46.733-4.525c0-2.064 1.738-3.771 3.795-3.771h42.938c2.056 0 3.794 1.707 3.794 3.771s-1.738 3.771-3.794 3.771H338.84c-2.057 0-3.795-1.707-3.795-3.771z" fill="#333"/><path d="M361.013 132.057c1.757 0 3.181-1.426 3.181-3.184 0-1.759-1.424-3.184-3.181-3.184-1.756 0-3.18 1.425-3.18 3.184 0 1.758 1.424 3.184 3.18 3.184z" fill="#333"/><path d="M314.05 73.8699c0-2.7615 2.238-5 5-5h83.512c2.761 0 5 2.2385 5 5v45.5271H314.05V73.8699z" fill="#F9F9F9"/><path d="M315.304 73.8699c0-2.4853 2.014-4.5 4.5-4.5h84.266c2.485 0 4.5 2.0147 4.5 4.5v2.0413h-93.266v-2.0413z" fill="#AAA" stroke="#333"/><path d="M315.304 73.8699c0-2.4853 2.014-4.5 4.5-4.5h84.266c2.485 0 4.5 2.0147 4.5 4.5v45.7811h-93.266V73.8699z" stroke="#333"/><path d="M350.247 84.9607h-28.655c-1.125 0-2.009.9456-2.009 2.0674v16.4729c0 1.125.88 2.067 2.009 2.067h28.655c1.125 0 2.009-.946 2.009-2.067V87.0281c0-1.1218-.884-2.0674-2.009-2.0674z" fill="#BDECFF" stroke="#333"/><path fill-rule="evenodd" clip-rule="evenodd" d="M320.85 105.068c-.704 0-1.035-.857-.509-1.318l8.414-7.3545 6.033 5.2785 9.427-9.4262 7.541 6.7872v4.525c0 .833-.685 1.508-1.531 1.508H320.85z" fill="#fff"/><path fill-rule="evenodd" clip-rule="evenodd" d="M328.575 95.6831l6.069 5.3859 9.625-9.5753 8.241 7.667v4.3203c0 1.293-1.004 2.341-2.243 2.341h-28.686c-1.375 0-2.021-1.774-.993-2.727l7.987-7.4119zm6.097 6.4359l-6.086-5.4019-7.502 6.9609c-.514.477-.191 1.364.497 1.364h28.686c.826 0 1.496-.699 1.496-1.561v-3.9705l-7.477-6.9557-9.614 9.5642z" fill="#333"/><path fill-rule="evenodd" clip-rule="evenodd" d="M324.984 93.0021c1.461 0 2.64-1.1802 2.64-2.6415 0-1.4613-1.183-2.6375-2.64-2.6375-1.46 0-2.639 1.1802-2.639 2.6375 0 1.4574 1.179 2.6415 2.639 2.6415z" fill="url(#paint3_linear_2331_49636)"/><path fill-rule="evenodd" clip-rule="evenodd" d="M328.378 90.3606c0 1.8772-1.516 3.3956-3.393 3.3956-1.879 0-3.394-1.5231-3.394-3.3956 0-1.874 1.517-3.3916 3.394-3.3916 1.871 0 3.393 1.5121 3.393 3.3916zm-.754 0c0 1.4613-1.179 2.6414-2.639 2.6414-1.461 0-2.64-1.184-2.64-2.6414 0-1.4573 1.179-2.6375 2.64-2.6375 1.456 0 2.639 1.1762 2.639 2.6375zM359.297 94.1332c0-.2083.169-.3771.378-.3771h42.985c.208 0 .377.1688.377.3771 0 .2082-.169.377-.377.377h-42.985c-.209 0-.378-.1688-.378-.377zM359.297 97.9039c0-.2082.169-.377.378-.377h42.985c.208 0 .377.1688.377.377 0 .2083-.169.3771-.377.3771h-42.985c-.209 0-.378-.1688-.378-.3771zM359.297 101.674c0-.208.169-.377.378-.377h42.985c.208 0 .377.169.377.377 0 .209-.169.377-.377.377h-42.985c-.209 0-.378-.168-.378-.377zM359.297 105.445c0-.208.169-.377.378-.377h42.985c.208 0 .377.169.377.377s-.169.377-.377.377h-42.985c-.209 0-.378-.169-.378-.377z" fill="#333"/><path fill-rule="evenodd" clip-rule="evenodd" d="M359.297 86.5919c0-.2082.172-.3771.384-.3771h23.366c.211 0 .383.1689.383.3771 0 .2083-.172.3771-.383.3771h-23.366c-.212 0-.384-.1688-.384-.3771z" fill="url(#paint4_linear_2331_49636)"/><path fill-rule="evenodd" clip-rule="evenodd" d="M415.737 120.151H306.388v11.573c.012 1.527.632 2.989 1.728 4.069s2.579 1.691 4.128 1.703h97.637c1.55-.012 3.032-.623 4.128-1.703s1.717-2.542 1.728-4.069v-11.573z" fill="#EFEFEF"/><path fill-rule="evenodd" clip-rule="evenodd" d="M416.491 119.397v12.333c-.013 1.728-.715 3.381-1.952 4.6-1.237 1.219-2.908 1.907-4.652 1.92h-97.648c-1.744-.013-3.416-.701-4.652-1.92-1.237-1.219-1.94-2.872-1.953-4.6v-12.333h110.857zm-110.103.754h109.349v11.573c-.011 1.527-.632 2.989-1.728 4.069-1.095 1.08-2.578 1.691-4.128 1.703h-97.637c-1.549-.012-3.032-.623-4.128-1.703s-1.716-2.542-1.728-4.069v-11.573z" fill="#333"/><path d="M346.357 137.496h-.754v8.295h.754v-8.295zM375.768 137.496h-.754v8.295h.754v-8.295z" fill="#333"/><path fill-rule="evenodd" clip-rule="evenodd" d="M325.213 60.8652c.179-.9087-.548-1.8026-1.485-1.799-.82.0031-1.503.6889-1.503 1.5082 0 .9261.885 1.6631 1.805 1.4789.585-.1173 1.068-.6022 1.183-1.1881zm-6.757-1.799c.598 0 1.167.3798 1.396.931.359.8654-.192 1.876-1.101 2.0565-.92.1828-1.805-.554-1.805-1.4793 0-.8215.688-1.5082 1.51-1.5082zm-5.281 0c.937 0 1.66.8951 1.48 1.8025-.117.5852-.6 1.0687-1.185 1.1851-.293.0582-.596.0283-.872-.0859-.551-.2283-.931-.7968-.931-1.3934 0-.8215.687-1.5083 1.508-1.5083z" fill="url(#paint5_linear_2331_49636)"/><rect x="331.275" y="59.8203" width="58.0681" height=".754132" rx=".377066" fill="#333"/><rect x="393.867" y="59.8203" width="15.0826" height=".754132" rx=".377066" fill="#FF6F3D"/><circle cx="361.44" cy="129.2" r="2.26239" fill="#333"/><path d="M420.125 34.4336h2.549c1.105 0 1.939.1602 2.502.4805.562.3203.844.873.844 1.6582 0 .3281-.059.625-.176.8906-.114.2617-.28.4785-.498.6504-.219.1679-.489.2812-.809.3398v.0586c.332.0586.627.1621.885.3106.262.1484.467.3613.615.6386.152.2774.229.6368.229 1.0782 0 .5234-.125.9687-.375 1.3359-.246.3672-.6.6465-1.061.8379-.457.1914-1 .2871-1.629.2871h-3.076v-8.5664zm1.406 3.5332h1.348c.637 0 1.078-.1035 1.324-.3106.246-.207.369-.5097.369-.9082 0-.4062-.146-.6992-.439-.8789-.289-.1796-.75-.2695-1.383-.2695h-1.219v2.3672zm0 1.1367v2.7188h1.483c.656 0 1.117-.127 1.382-.3809.266-.2539.399-.5976.399-1.0312 0-.2657-.061-.4961-.182-.6914-.117-.1954-.31-.3458-.58-.4512-.269-.1094-.633-.1641-1.09-.1641h-1.412zm9.392-4.6699c.739 0 1.348.0898 1.828.2695.485.1797.844.4531 1.079.8203.238.3672.357.834.357 1.4004 0 .4219-.078.7813-.234 1.0782-.157.2968-.362.5429-.616.7382-.253.1953-.525.3516-.814.4688L434.955 43h-1.588l-2.069-3.4336h-1.377V43h-1.406v-8.5664h2.408zm-.093 1.1719h-.909v2.8007h.973c.652 0 1.125-.121 1.418-.3632.297-.2422.445-.5996.445-1.0723 0-.4961-.158-.8477-.474-1.0547-.313-.207-.797-.3105-1.453-.3105zm13.435 3.0996c0 .6601-.084 1.2617-.252 1.8047-.164.539-.412 1.0039-.744 1.3945-.332.3867-.748.6855-1.248.8965-.5.2109-1.086.3164-1.758.3164-.684 0-1.278-.1055-1.782-.3164-.5-.211-.916-.5117-1.248-.9024-.328-.3906-.574-.8574-.738-1.4004-.164-.5429-.246-1.1445-.246-1.8046 0-.8829.145-1.6524.434-2.3086.293-.6602.736-1.1719 1.33-1.5352.597-.3672 1.351-.5508 2.261-.5508.891 0 1.631.1817 2.221.545.59.3632 1.031.875 1.324 1.5351.297.6563.446 1.4316.446 2.3262zm-6.539 0c0 .6601.089 1.2324.269 1.7168.18.4804.455.8515.826 1.1133.375.2578.856.3867 1.442.3867.59 0 1.07-.1289 1.441-.3867.371-.2618.645-.6329.82-1.1133.176-.4844.264-1.0567.264-1.7168 0-1.0039-.201-1.7891-.603-2.3555-.399-.5703-1.036-.8555-1.911-.8555-.585 0-1.068.1289-1.447.3868-.375.2578-.652.6269-.832 1.1074-.18.4765-.269 1.0488-.269 1.7168zm18.989-4.2715L454.477 43h-1.535l-1.43-5.1328c-.035-.125-.074-.2734-.117-.4453-.043-.1719-.086-.3477-.129-.5274-.039-.1797-.074-.3437-.105-.4922-.028-.1523-.047-.2695-.059-.3515-.008.082-.025.1972-.053.3457-.027.1484-.06.3125-.099.4922-.035.1758-.074.3515-.117.5273-.043.1719-.082.3242-.118.457L449.309 43h-1.529l-2.233-8.5664h1.413l1.236 5.0215c.039.1601.078.334.117.5215.043.1836.082.3691.117.5566.039.1875.074.3711.106.5508.031.1758.056.3359.076.4805.019-.1485.045-.3125.076-.4922.031-.1836.065-.3692.1-.5567.039-.1914.078-.375.117-.5508.043-.1757.086-.3339.129-.4746l1.394-5.0566h1.371l1.424 5.0742c.043.1445.084.3067.123.4863.043.1797.084.3633.123.5508.039.1875.075.3692.106.5449.031.1758.056.334.076.4747.027-.1915.062-.4102.105-.6563.043-.2461.092-.4961.147-.75.055-.2539.109-.4883.164-.7031l1.23-5.0215h1.418zm6.639 6.2344c0 .5078-.125.9453-.375 1.3125-.247.3672-.602.6484-1.067.8437-.461.1953-1.012.293-1.652.293-.313 0-.611-.0176-.897-.0527-.285-.0352-.554-.086-.808-.1524-.25-.0703-.479-.1543-.686-.2519v-1.3243c.348.1524.737.2911 1.166.4161.43.121.867.1816 1.313.1816.363 0 .664-.0469.902-.1406.242-.0977.422-.2344.539-.4102.117-.1797.176-.3887.176-.6269 0-.2539-.068-.4688-.205-.6446-.137-.1758-.344-.3359-.621-.4804-.274-.1485-.617-.3067-1.032-.4747-.281-.1132-.55-.2421-.808-.3867-.254-.1445-.481-.3144-.68-.5097-.199-.1953-.357-.4258-.474-.6914-.114-.2696-.17-.586-.17-.9493 0-.4843.115-.8984.345-1.2421.235-.3438.563-.6075.985-.7911.426-.1836.922-.2754 1.488-.2754.449 0 .871.0469 1.266.1407.398.0937.789.2265 1.172.3984l-.446 1.1309c-.351-.1446-.693-.2598-1.025-.3457-.328-.086-.664-.1289-1.008-.1289-.297 0-.549.0449-.756.1347-.207.0899-.365.2168-.474.3809-.106.1601-.159.3515-.159.5742 0 .25.061.4609.182.6328.125.168.316.3223.574.4629.262.1406.598.2969 1.008.4688.473.1953.873.4003 1.201.6152.332.2148.586.4726.762.7734.176.2969.264.67.264 1.1192zM470.338 43h-4.852v-8.5664h4.852v1.1836h-3.446v2.3262h3.229v1.1777h-3.229v2.6894h3.446V43zm4.739-8.5664c.739 0 1.348.0898 1.828.2695.485.1797.844.4531 1.079.8203.238.3672.357.834.357 1.4004 0 .4219-.078.7813-.234 1.0782-.157.2968-.362.5429-.616.7382-.254.1953-.525.3516-.814.4688L479.109 43h-1.588l-2.069-3.4336h-1.377V43h-1.406v-8.5664h2.408zm-.093 1.1719h-.909v2.8007h.973c.652 0 1.125-.121 1.418-.3632.297-.2422.445-.5996.445-1.0723 0-.4961-.158-.8477-.474-1.0547-.313-.207-.797-.3105-1.453-.3105z" fill="#333"/><path fill-rule="evenodd" clip-rule="evenodd" d="M413 274.095v49.042c0 5.241-1.74 5.241-5.516 5.241h-91.968c-4.124 0-5.516 0-5.516-5.241v-49.042h103z" fill="#FEFEFE"/><path d="M326.703 292.189l-6.96-2.858v-.87l6.96-3.232v1.243l-5.121 2.361 5.121 1.989v1.367zM332.27 283.838l-3.445 9.743h-1.426l3.445-9.743h1.426zM332.966 290.822l4.609-1.988-4.609-2.362v-1.243l6.264 3.232v.87l-6.264 2.858v-1.367z" fill="#333"/><path fill-rule="evenodd" clip-rule="evenodd" d="M314.176 256h94.648c2.306 0 4.176 1.87 4.176 4.176v64.723c0 2.306-1.87 4.175-4.176 4.175h-94.648c-2.306 0-4.176-1.869-4.176-4.175v-64.723c0-2.306 1.87-4.176 4.176-4.176zm0 .696h94.648c1.922 0 3.48 1.558 3.48 3.48v64.723c0 1.921-1.558 3.479-3.48 3.479h-94.648c-1.922 0-3.48-1.558-3.48-3.479v-64.723c0-1.922 1.558-3.48 3.48-3.48z" fill="#333"/><path fill-rule="evenodd" clip-rule="evenodd" d="M378.203 298.105c0-.192.156-.348.348-.348h24.358c.192 0 .348.156.348.348 0 .192-.156.348-.348.348h-24.358c-.192 0-.348-.156-.348-.348zM346.885 298.105c0-.192.156-.348.348-.348h22.27c.193 0 .348.156.348.348 0 .192-.155.348-.348.348h-22.27c-.192 0-.348-.156-.348-.348zM350.365 291.145c0-.192.156-.348.348-.348h51.5c.192 0 .348.156.348.348 0 .193-.156.348-.348.348h-51.5c-.192 0-.348-.155-.348-.348zM328.791 305.064c0-.192.155-.348.348-.348h62.635c.192 0 .348.156.348.348 0 .192-.156.348-.348.348h-62.635c-.193 0-.348-.156-.348-.348zM320.439 312.024c0-.192.156-.348.348-.348h27.142c.192 0 .348.156.348.348 0 .192-.156.348-.348.348h-27.142c-.192 0-.348-.156-.348-.348zM402.561 318.983c0-.192-.156-.348-.348-.348h-27.142c-.192 0-.348.156-.348.348 0 .192.156.348.348.348h27.142c.192 0 .348-.156.348-.348zM355.932 312.024c0-.192.156-.348.348-.348h45.933c.192 0 .348.156.348.348 0 .192-.156.348-.348.348H356.28c-.192 0-.348-.156-.348-.348zM367.068 318.983c0-.192-.156-.348-.348-.348h-45.933c-.192 0-.348.156-.348.348 0 .192.156.348.348.348h45.933c.192 0 .348-.156.348-.348z" fill="#333"/><path fill-rule="evenodd" clip-rule="evenodd" d="M350.365 282.446c0-.384.439-.696.981-.696h49.538c.542 0 .981.312.981.696 0 .384-.439.696-.981.696h-49.538c-.542 0-.981-.312-.981-.696z" fill="url(#paint6_linear_2331_49636)"/><path d="M310.696 261.696c0-2.762 2.238-5 5-5h91.608c2.761 0 5 2.238 5 5v12.398H310.696v-12.398z" fill="#666"/><path fill-rule="evenodd" clip-rule="evenodd" d="M402.561 267.831c1.537 0 2.784-1.246 2.784-2.784 0-1.537-1.247-2.783-2.784-2.783h-80.73c-1.537 0-2.784 1.821-2.784 3.358 0 1.537 1.247 2.209 2.784 2.209h80.73z" fill="#FEFEFE"/><path fill-rule="evenodd" clip-rule="evenodd" d="M321.831 261.567h80.73c1.922 0 3.479 1.558 3.479 3.48s-1.557 3.48-3.479 3.48h-80.73c-.856 0-1.712-.185-2.373-.658-.693-.496-1.107-1.262-1.107-2.247 0-.942.375-1.929.962-2.683.585-.752 1.464-1.372 2.518-1.372zm83.514 3.48c0 1.538-1.247 2.784-2.784 2.784h-80.73c-1.537 0-2.784-.672-2.784-2.209 0-1.538 1.247-3.359 2.784-3.359h80.73c1.537 0 2.784 1.247 2.784 2.784z" fill="#333"/><path fill-rule="evenodd" clip-rule="evenodd" d="M402.561 267.831c1.537 0 2.784-1.246 2.784-2.784 0-1.537-1.247-2.783-2.784-2.783h-16.007v5.567h16.007z" fill="url(#paint7_linear_2331_49636)"/><path fill-rule="evenodd" clip-rule="evenodd" d="M385.858 261.567h16.703c1.922 0 3.48 1.558 3.48 3.48s-1.558 3.48-3.48 3.48h-16.703v-.696H402.561c1.537 0 2.784-1.246 2.784-2.784 0-1.537-1.247-2.784-2.784-2.784h-16.007v5.568h-.696v-6.264z" fill="#333"/><path d="M286.5 360c0 8.008-6.492 14.5-14.5 14.5s-14.5-6.492-14.5-14.5 6.492-14.5 14.5-14.5 14.5 6.492 14.5 14.5z" fill="#F9F9F9" stroke="#D0D5DA"/><path d="M267.491 361.542c0-2.543.536-4.436 1.609-5.678 1.078-1.242 2.689-1.863 4.834-1.863.732 0 1.306.044 1.722.132v2.171c-.521-.117-1.037-.176-1.547-.176-.931 0-1.693.141-2.285.422-.586.281-1.025.697-1.318 1.248-.293.551-.466 1.333-.519 2.347h.115c.58-.997 1.508-1.495 2.786-1.495 1.148 0 2.048.361 2.698 1.081.65.721.976 1.717.976 2.989 0 1.371-.387 2.458-1.161 3.26-.773.797-1.845 1.196-3.216 1.196-.95 0-1.779-.22-2.488-.659-.703-.44-1.248-1.081-1.635-1.925-.38-.844-.571-1.861-.571-3.05zm4.641 3.463c.58 0 1.025-.193 1.336-.58.31-.393.466-.949.466-1.67 0-.627-.147-1.119-.44-1.477-.287-.363-.723-.545-1.309-.545-.551 0-1.023.179-1.415.537-.387.357-.581.773-.581 1.248 0 .697.182 1.286.545 1.766.37.481.835.721 1.398.721z" fill="#666"/><path fill-rule="evenodd" clip-rule="evenodd" d="M143.946 98.1402c-4.908-3.4467-15.919-7.8469-21.322-8.6211-1.571.6376-11.544-.9353-19.755-.2966-6.7357 1.3775-18.8477 6.6063-21.1519 8.9177-2.7589 2.7678-6.4375 12.6078-7.3571 22.4588 21.4582 16.913 55.09 9.239 59.674 7.844 1.679-.537 2.445-.801 4.502-1.569 4.2-1.666 8.035-3.927 11.877-6.275-.949-7.699-3.401-20.306-6.467-22.4588z" fill="#FEFEFE"/><path fill-rule="evenodd" clip-rule="evenodd" d="M119.147 130.965c0-8.335-.434-16.656-2.177-24.821-.408-1.595-.892-3.049-1.476-4.304l1.476-1.733.479-2.5608c-2.343-3.3576-3.523-5.8006-4.481-6.0107-1.11-.2434-2.151 2.4047-4.971 6.1914l1.042 2.1437 1.201 1.7694c-3.056 9.125-3.973 20.34-3.973 29.638 4.28.415 11.64.415 12.88-.313z" fill="url(#paint8_linear_2331_49636)"/><path d="M119.133 131.077c0-8.259-.423-16.506-2.125-24.597-.399-1.581-.871-3.022-1.441-4.265m-5.371-.268c-1.362 2.916-3.943 12.88-3.943 29.44" stroke="#333"/><path d="M117.907 97.6533c-1.9 4.7627-3.21 6.1467-4.749 6.1337-1.688-.016-2.849-1.371-5.065-6.1337" stroke="#333" stroke-linecap="round"/><mask id="a" fill="#fff"><path fill-rule="evenodd" clip-rule="evenodd" d="M95.8267 90.9129c1.5427 2.6057 3.7923 5.5641 5.5723 8.017.702.9735 1.688 2.4661 3.067 2.4011.67-.029 1.214-.396 1.7-.827.226-.203.461-.446.704-.7303.34-.3813.679-.7626 1.011-1.1439.017-.0189.082-.1221.13-.1866.169-.2286 3.414-5.0572 3.868-5.7501.089-.1298.178-.2515.275-.3732h.923c.202.2678.336.5097.567.7708.795.8997 1.61 2.7563 3.059 4.8495.147.2132.218.2758.315.4218.641.7157 1.249 1.4935 1.967 2.134.472.42 1.051.827 1.708.827 2.79.065 7.569-8.0114 8.867-10.4101-2.195-.7703-4.503-1.4813-6.809-1.8389-4.023 3.9843-15.787 3.0648-19.871-.314-2.166.3065-4.9067 1.2042-7.0533 2.1529z"/></mask><path fill-rule="evenodd" clip-rule="evenodd" d="M95.8267 90.9129c1.5427 2.6057 3.7923 5.5641 5.5723 8.017.702.9735 1.688 2.4661 3.067 2.4011.67-.029 1.214-.396 1.7-.827.226-.203.461-.446.704-.7303.34-.3813.679-.7626 1.011-1.1439.017-.0189.082-.1221.13-.1866.169-.2286 3.414-5.0572 3.868-5.7501.089-.1298.178-.2515.275-.3732h.923c.202.2678.336.5097.567.7708.795.8997 1.61 2.7563 3.059 4.8495.147.2132.218.2758.315.4218.641.7157 1.249 1.4935 1.967 2.134.472.42 1.051.827 1.708.827 2.79.065 7.569-8.0114 8.867-10.4101-2.195-.7703-4.503-1.4813-6.809-1.8389-4.023 3.9843-15.787 3.0648-19.871-.314-2.166.3065-4.9067 1.2042-7.0533 2.1529z" fill="#BDECFF"/><path d="M95.8267 90.9129l-.4042-.9147-1.03.4552.5737.9689.8605-.5094zm5.5723 8.017l.811-.585-.002-.0022-.809.5872zm3.067 2.4011l-.044-.999h-.003l.047.999zm1.7-.827l.663.748.003-.003-.666-.745zm.704-.7303l-.747-.6655-.007.0077-.006.0079.76.6499zm1.011-1.1439l-.754-.6565.754.6565zm.13-.1866l.803.5956-.803-.5956zm3.868-5.7501l-.824-.5656-.006.0085-.006.0087.836.5484zm.275-.3732v-1h-.481l-.3.3763.781.6237zm.923 0l.798-.6029-.3-.3971h-.498v1zm.567.7708l.749-.6624-.749.6624zm3.059 4.8495l-.822.5691.822-.5691zm.315.4218l-.832.5538.039.0596.048.0533.745-.6667zm1.967 2.134l-.665.746.665-.746zm1.708.827l.023-1h-.023v1zm8.867-10.4101l.88.4758.557-1.0313-1.106-.3881-.331.9436zm-6.809-1.8389l.154-.9882-.499-.0773-.358.3549.703.7106zm-19.871-.314l.637-.7705-.34-.2815-.437.0619.14.9901zm3.952 12.489c.267-.238.532-.515.798-.825l-1.52-1.3002c-.221.2575-.424.4675-.611.6349l1.333 1.4903zm.784-.81c.339-.38.683-.7662 1.02-1.1528l-1.509-1.3129c-.327.376-.663.7529-1.004 1.1349l1.493 1.3308zm1.198-1.4002c.191-.2569 3.453-5.1134 3.901-5.7973l-1.672-1.0968c-.223.3404-1.144 1.7149-2.035 3.0396-.444.6608-.879 1.3067-1.214 1.8013-.167.2475-.309.4563-.413.6101-.053.0769-.095.1391-.127.1849-.036.0519-.048.069-.046.0669l1.606 1.1913zm3.89-5.7801c.078-.1132.152-.2151.232-.315l-1.563-1.2475c-.115.1434-.218.285-.318.4313l1.649 1.1312zm-.55.0612h.923v-2h-.923v2zm.125-.397c.084.1113.145.2047.248.3535.096.1387.213.3021.367.4766l1.499-1.3247c-.077-.0866-.142-.1746-.221-.2891-.072-.1044-.179-.2658-.297-.4222l-1.596 1.2059zm.615.8301c.317.3578.666.9448 1.168 1.8151.482.8338 1.067 1.8559 1.819 2.9412l1.644-1.1382c-.698-1.0079-1.244-1.9607-1.731-2.8035-.466-.8062-.922-1.5974-1.401-2.1393l-1.499 1.3247zm2.987 4.7563c.092.1341.163.2236.217.2907.051.0637.067.0839.088.1158l1.665-1.1075c-.076-.1142-.144-.1982-.19-.2557-.043-.054-.081-.1024-.136-.1815l-1.644 1.1382zm6.167-10.1459c-.828.8203-2.124 1.4479-3.761 1.8459-1.624.3948-3.503.5439-5.41.4696-1.904-.0742-3.803-.3703-5.459-.8454-1.671-.4791-3.027-1.1209-3.901-1.844l-1.274 1.541c1.168.9663 2.814 1.7065 4.623 2.2255 1.824.5231 3.883.8415 5.934.9214 2.048.0799 4.119-.077 5.96-.5248 1.828-.4446 3.512-1.1962 4.695-2.3681l-1.407-1.4211zm-19.308-.5935c-2.286.3234-5.1183 1.2564-7.3175 2.2283l.8084 1.8293c2.0941-.9254 4.7431-1.7878 6.7891-2.0773l-.28-1.9803zm-7.7738 3.6524c1.5738 2.6583 3.8672 5.6747 5.6228 8.0949l1.619-1.1745c-1.803-2.4858-4.0093-5.3861-5.5208-7.9393l-1.721 1.0189zm5.6218 8.0926c.326.4522.809 1.1611 1.398 1.7261.591.568 1.438 1.14 2.527 1.089l-.094-1.998c-.29.014-.626-.128-1.048-.5334-.425-.4083-.785-.9324-1.161-1.4537l-1.622 1.17zm3.921 2.8151c1.027-.044 1.79-.608 2.32-1.078l-1.327-1.4964c-.441.3914-.765.5634-1.08.5764l.087 1.998zm4.127-3.0438c.033-.0378.057-.0718.063-.0801.011-.0145.02-.0281.027-.0378.013-.0189.028-.0413.038-.057.027-.0406.042-.0623.05-.0725l-1.606-1.1913c-.023.0297-.043.0592-.059.0826-.017.0241-.033.0477-.045.0658-.014.0205-.021.0315-.026.0392-.003.0037-.002.0017.002-.0033.002-.0026.006-.0085.012-.0164.005-.0065.018-.0223.035-.0421l1.509 1.3129zm7.637-.2575c.58.6479 1.272 1.5233 2.047 2.2133l1.33-1.4929c-.662-.5901-1.185-1.2703-1.886-2.0537l-1.491 1.3333zm2.047 2.2133c.492.438 1.316 1.081 2.373 1.081v-2c-.258 0-.591-.171-1.043-.5739l-1.33 1.4929zm11.571-11.2727c-2.214-.7768-4.59-1.5118-6.986-1.8835l-.307 1.9764c2.214.3435 4.454 1.0305 6.631 1.7943l.662-1.8872zm-9.222 12.3537c.588.014 1.145-.186 1.633-.453.494-.27.979-.645 1.445-1.07.93-.849 1.874-1.9864 2.743-3.1641 1.744-2.3615 3.288-5.024 3.95-6.2472l-1.76-.9516c-.635 1.1755-2.13 3.7507-3.799 6.011-.836 1.1331-1.691 2.1525-2.482 2.8746-.396.3608-.751.6251-1.058.7933-.313.171-.515.21-.625.207l-.047 2z" fill="#333" mask="url(#a)"/><path fill-rule="evenodd" clip-rule="evenodd" d="M122.53 88.8885l.163.0235c2.773.3977 6.927 1.7133 10.979 3.3466 4.054 1.6342 8.081 3.6165 10.589 5.3796.475.3335.899.8394 1.282 1.4385.387.6047.753 1.3373 1.099 2.1603.692 1.644 1.324 3.696 1.884 5.902 1.122 4.415 1.976 9.518 2.452 13.385l.049.392-.337.206c-3.839 2.349-7.711 4.635-11.96 6.322l-.006.002-.005.003c-2.064.77-2.838 1.038-4.526 1.578l-.008.003c-2.341.713-11.947 2.991-23.667 2.97-11.7147-.021-25.6356-2.341-36.5095-10.919l-.2618-.207.031-.332c.4643-4.978 1.624-9.948 3.0163-14.027.6963-2.04 1.4536-3.865 2.216-5.362.7574-1.4869 1.5384-2.687 2.2941-3.4458.6472-.6499 1.9106-1.4471 3.4718-2.2827 1.5833-.8475 3.5392-1.7686 5.6281-2.6578 4.1699-1.775 8.9205-3.4444 12.343-4.1451l.038-.0076.037-.003c4.15-.3231 8.731-.0863 12.442.1473.428.0269.843.0537 1.244.0796 1.351.0873 2.548.1646 3.529.2012.636.0237 1.166.0296 1.58.0114.438-.0192.67-.0635.759-.0997l.154-.0623zm27.84 31.7105c-3.838 2.348-7.67 4.609-11.866 6.275-2.055.768-2.82 1.032-4.498 1.569-4.58 1.395-38.18 9.069-59.6182-7.844.9188-9.851 4.5939-19.691 7.3503-22.4588 2.302-2.3114 14.4027-7.5402 21.1319-8.9177 4.57-.3558 9.685-.0253 13.592.2271 3.107.2007 5.449.352 6.145.0695 5.397.7742 16.398 5.1744 21.302 8.6211 3.063 2.1528 5.513 14.7598 6.461 22.4588z" fill="#333"/><path d="M102.701 89.1892l-.065.2657.189.198c1.082 1.1358 2.776 1.8954 4.663 2.3628 1.9.4702 4.055.6592 6.124.6099 2.067-.0493 4.074-.3371 5.675-.836.8-.2493 1.514-.5562 2.087-.9231.57-.3644 1.035-.8102 1.281-1.3514l.082-.1797-.063-.187c-.769-2.2843-.822-4.6603-.846-7.1294V80.7106l-.799.595c-2.515 1.8735-5.466 2.9515-8.624 2.9515-2.968 0-5.759-.9506-8.168-2.6215l-.785-.5445V82.2079c-.004.079-.008.1581-.012.237-.119 2.3728-.235 4.6839-.739 6.7443z" fill="#FEFEFE" stroke="#333"/><path fill-rule="evenodd" clip-rule="evenodd" d="M113.007 84.7733c11.624 0 18.101-12.6456 17.057-22.9223-3.904-.3482-17.24-1.1192-21.561-13.2643-1.793 4.3938-3.67 6.6487-11.8104 9.343-.9235 3.3428-1.106 6.8745-.5588 10.2964 1.355 8.3365 7.7962 16.5472 16.8732 16.5472z" fill="#FEFEFE"/><path fill-rule="evenodd" clip-rule="evenodd" d="M108.311 48.5747c4.277 12.1531 17.506 12.9246 21.387 13.2731.318 3.1608.3 6.387-.608 9.4321 11.905-29.1424-16.064-34.6427-21.185-28.3214-11.3013-.8929-17.3662 14.1388-11.8557 25.2769-.5432-3.4265-.3624-6.9643.5543-10.3115 8.0664-2.6961 9.9284-4.9525 11.7074-9.3492z" fill="#EFEFEF" stroke="#333" stroke-linejoin="round"/><path d="M96.8087 57.7866c-2.9453 9.9723.8361 20.7805 9.9753 25.4425 4.028 2.0631 8.841 2.0548 12.87 0 7.805-3.9816 11.237-12.9771 10.395-21.7029" stroke="#333"/><path d="M107.19 142.434v5.543c0 .597-.127 1.132-.381 1.605-.25.473-.629.848-1.136 1.125-.508.273-1.147.41-1.916.41-1.098 0-1.934-.287-2.508-.861-.571-.578-.856-1.346-.856-2.303v-5.519h1.407v5.396c0 .715.167 1.242.503 1.582.336.34.838.51 1.506.51.461 0 .836-.08 1.125-.24.293-.164.508-.403.645-.715.14-.317.211-.697.211-1.143v-5.39h1.4zm7.617 6.234c0 .508-.125.945-.375 1.312-.246.368-.602.649-1.067.844-.46.196-1.011.293-1.652.293-.312 0-.611-.017-.896-.053-.286-.035-.555-.085-.809-.152-.25-.07-.478-.154-.686-.252v-1.324c.348.152.737.291 1.167.416.429.121.867.182 1.312.182.363 0 .664-.047.902-.141.243-.098.422-.234.539-.41.118-.18.176-.389.176-.627 0-.254-.068-.469-.205-.645-.137-.175-.344-.336-.621-.48-.273-.149-.617-.307-1.031-.475-.281-.113-.551-.242-.809-.386-.254-.145-.48-.315-.68-.51-.199-.196-.357-.426-.474-.692-.113-.269-.17-.586-.17-.949 0-.484.115-.898.346-1.242.234-.344.562-.607.984-.791.426-.184.922-.275 1.488-.275.45 0 .871.046 1.266.14.398.094.789.227 1.172.399l-.445 1.13c-.352-.144-.694-.259-1.026-.345-.328-.086-.664-.129-1.008-.129-.297 0-.549.045-.756.135-.207.089-.365.216-.474.38-.106.161-.158.352-.158.575 0 .25.06.461.181.633.125.167.317.322.574.462.262.141.598.297 1.008.469.473.195.873.401 1.201.615.333.215.586.473.762.774.176.297.264.67.264 1.119zm6.984 2.332h-4.852v-8.566h4.852v1.183h-3.446v2.326h3.229v1.178h-3.229v2.69h3.446V151zm4.74-8.566c.738 0 1.347.089 1.828.269.484.18.843.453 1.078.82.238.368.357.834.357 1.401 0 .422-.078.781-.234 1.078-.156.297-.361.543-.615.738-.254.196-.526.352-.815.469l2.432 3.791h-1.588l-2.068-3.434h-1.377V151h-1.407v-8.566h2.409zm-.094 1.171h-.908v2.801h.972c.653 0 1.125-.121 1.418-.363.297-.242.446-.6.446-1.072 0-.496-.159-.848-.475-1.055-.313-.207-.797-.311-1.453-.311z" fill="#333"/><rect x=".5" y=".5" width="831" height="401" rx="2.5" stroke="#D0D5DA"/><defs><linearGradient id="paint0_linear_2331_49636" x1="632.727" y1="245.822" x2="626.629" y2="255.683" gradientUnits="userSpaceOnUse"><stop stop-color="#FFC671"/><stop offset="1" stop-color="#FF6F3D"/></linearGradient><linearGradient id="paint1_linear_2331_49636" x1="671.8" y1="265.553" x2="671.668" y2="267.948" gradientUnits="userSpaceOnUse"><stop stop-color="#FF8E3D"/><stop offset="1" stop-color="#FF6F3D"/></linearGradient><linearGradient id="paint2_linear_2331_49636" x1="632.88" y1="269.945" x2="665.221" y2="319.507" gradientUnits="userSpaceOnUse"><stop stop-color="#FFC671"/><stop offset="1" stop-color="#FF6F3D"/></linearGradient><linearGradient id="paint3_linear_2331_49636" x1="322.345" y1="87.5169" x2="327.624" y2="93.0021" gradientUnits="userSpaceOnUse"><stop stop-color="#FF8E3D"/><stop offset="1" stop-color="#FF6F3D"/></linearGradient><linearGradient id="paint4_linear_2331_49636" x1="358.914" y1="85.0836" x2="383.047" y2="85.0836" gradientUnits="userSpaceOnUse"><stop stop-color="#FF8E3D"/><stop offset="1" stop-color="#FF6F3D"/></linearGradient><linearGradient id="paint5_linear_2331_49636" x1="311.667" y1="58.9483" x2="312.902" y2="64.7217" gradientUnits="userSpaceOnUse"><stop stop-color="#FF8E3D"/><stop offset="1" stop-color="#FF6F3D"/></linearGradient><linearGradient id="paint6_linear_2331_49636" x1="348.901" y1="281.054" x2="425.898" y2="281.054" gradientUnits="userSpaceOnUse"><stop stop-color="#FF8E3D"/><stop offset="1" stop-color="#FF6F3D"/></linearGradient><linearGradient id="paint7_linear_2331_49636" x1="386.554" y1="262.046" x2="389.493" y2="272.352" gradientUnits="userSpaceOnUse"><stop stop-color="#FF8E3D"/><stop offset="1" stop-color="#FF6F3D"/></linearGradient><linearGradient id="paint8_linear_2331_49636" x1="99.5255" y1="95.5784" x2="114.91" y2="119.406" gradientUnits="userSpaceOnUse"><stop stop-color="#FFC671"/><stop offset="1" stop-color="#FF6F3D"/></linearGradient></defs></svg>