<svg width="832" height="402" viewBox="0 0 832 402" fill="none" xmlns="http://www.w3.org/2000/svg"><rect x=".5" y=".5" width="831" height="401" rx="2.5" fill="#F9F9F9"/><rect x="528" y="17" width="254" height="369" rx="10" fill="#F5F5F5" stroke="gray" stroke-linecap="round" stroke-linejoin="round" stroke-dasharray="5 7"/><rect x="235" y="17" width="254" height="369" rx="10" fill="#F5F5F5" stroke="#FF6F3D" stroke-linecap="round" stroke-linejoin="round" stroke-dasharray="5 7"/><rect opacity=".8" x="248" y="204" width="521" height="169" rx="10" fill="#D9F4FF" stroke="#9ADAF3" stroke-linecap="round" stroke-linejoin="round" stroke-dasharray="5 7"/><path d="M173 296c-.552 0-1 .448-1 1s.448 1 1 1v-2zm97.707 1.707c.391-.39.391-1.024 0-1.414l-6.364-6.364c-.39-.391-1.024-.391-1.414 0-.391.39-.391 1.024 0 1.414l5.657 5.657-5.657 5.657c-.391.39-.391 1.024 0 1.414.39.391 1.024.391 1.414 0l6.364-6.364zM173 298h39.202v-2H173v2zm39.202 0H270v-2h-57.798v2z" fill="#666"/><path fill-rule="evenodd" clip-rule="evenodd" d="M625 299.2v-21.6h-5.4c-3.241 0-5.4 2.909-5.4 5.144V299.2H625z" fill="#444"/><path fill-rule="evenodd" clip-rule="evenodd" d="M625.6 299.8h-12v-17.056c0-1.295.616-2.723 1.647-3.821 1.041-1.108 2.542-1.923 4.353-1.923h6v22.8zm-6-22.2c-3.241 0-5.4 2.909-5.4 5.144V299.2H625v-21.6h-5.4z" fill="#333"/><path fill-rule="evenodd" clip-rule="evenodd" d="M683.2 277.6V292H694v-9.711c0-2.889-2.4-4.689-4.8-4.689h-6z" fill="#444"/><path fill-rule="evenodd" clip-rule="evenodd" d="M682.6 277h6.6c2.671 0 5.4 2.011 5.4 5.289V292.6h-12V277zm.6 15v-14.4h6c2.4 0 4.8 1.8 4.8 4.689V292h-10.8z" fill="#333"/><path fill-rule="evenodd" clip-rule="evenodd" d="M677.2 252.4h-46.263L619.6 263.601V300.4h57.6v-48z" fill="#fff"/><path fill-rule="evenodd" clip-rule="evenodd" d="M677.8 251.8h-47.11L619 263.35V301h58.8v-49.2zm-.6.6v48h-57.6v-36.799l11.337-11.201H677.2z" fill="#333"/><path fill-rule="evenodd" clip-rule="evenodd" d="M630.4 252.4l-10.8 10.8h10.8v-10.8z" fill="url(#paint0_linear_2760_7177)"/><path fill-rule="evenodd" clip-rule="evenodd" d="M630.629 251.846c-.224-.093-.482-.042-.653.13l-10.8 10.8c-.172.171-.223.429-.13.654.092.224.311.37.554.37h10.8c.331 0 .6-.269.6-.6v-10.8c0-.243-.146-.462-.371-.554zm-.229.554v10.8h-10.8l10.8-10.8z" fill="#333"/><path fill-rule="evenodd" clip-rule="evenodd" d="M688.6 262h-46.263L631 273.201V310h57.6v-48z" fill="#fff"/><path fill-rule="evenodd" clip-rule="evenodd" d="M689.2 261.4h-47.11l-11.69 11.55v37.65h58.8v-49.2zm-.6.6v48H631v-36.799L642.337 262H688.6z" fill="#333"/><path fill-rule="evenodd" clip-rule="evenodd" d="M641.8 262L631 272.8h10.8V262z" fill="#D9F4FF"/><path fill-rule="evenodd" clip-rule="evenodd" d="M642.03 261.446c-.225-.093-.483-.042-.654.13l-10.8 10.8c-.172.171-.223.429-.13.654.092.224.311.37.554.37h10.8c.331 0 .6-.269.6-.6V262c0-.243-.146-.462-.37-.554zm-.23.554v10.8H631l10.8-10.8zM680.2 293.5c0-.166-.134-.3-.3-.3h-42.6c-.166 0-.3.134-.3.3 0 .166.134.3.3.3h42.6c.166 0 .3-.134.3-.3zM681.4 280.3c0-.166-.134-.3-.3-.3h-34.2c-.166 0-.3.134-.3.3 0 .166.134.3.3.3h34.2c.166 0 .3-.134.3-.3zM681.4 286.9c0-.166-.134-.3-.3-.3h-43.8c-.166 0-.3.134-.3.3 0 .166.134.3.3.3h43.8c.166 0 .3-.134.3-.3z" fill="#333"/><path d="M681.1 293.5h-17.4" stroke="#333" stroke-linecap="round"/><path fill-rule="evenodd" clip-rule="evenodd" d="M671.8 272.2c0-.331-.269-.6-.6-.6h-19.8c-.331 0-.6.269-.6.6 0 .331.269.6.6.6h19.8c.331 0 .6-.269.6-.6z" fill="url(#paint1_linear_2760_7177)"/><path fill-rule="evenodd" clip-rule="evenodd" d="M651.995 292.9l-5.253 6.17h-31.527c-3.877 0-4.882 1.33-4.558 4.25l5.076 30.971c.291 1.906 2.323 3.909 4.927 3.909h69.726c2.605 0 3.87-3.6 3.87-3.6l4.497-40.5c.238-1.201-.403-2.7-2.532-2.7h-40.319c-2.108 0-2.607.235-3.907 1.5z" fill="url(#paint2_linear_2760_7177)"/><path fill-rule="evenodd" clip-rule="evenodd" d="M645.833 310.389c0-.675.513-1.222 1.146-1.222h16.042c.633 0 1.146.547 1.146 1.222v15.889c0 .675-.513 1.222-1.146 1.222h-16.042c-.633 0-1.146-.547-1.146-1.222v-15.889z" fill="#fff"/><path fill-rule="evenodd" clip-rule="evenodd" d="M663.583 310.812c.266.197.319.567.117.828l-9.772 12.653c-.223.293-.557.509-.972.516-.399.006-.751-.186-1.025-.446-.014-.013-.027-.026-.039-.04l-3.217-3.664c-.217-.247-.188-.621.065-.834.253-.213.634-.184.852.063l3.196 3.641c.069.063.116.085.139.093.007-.007.018-.018.032-.036l.003-.005 9.775-12.654c.201-.261.58-.312.846-.115z" fill="#333"/><path fill-rule="evenodd" clip-rule="evenodd" d="M647.781 308.333h9.066c.325 0 .588.264.588.589 0 .324-.263.588-.588.588h-9.057c-.225.007-.446.059-.65.153-.206.095-.39.232-.541.401-.15.169-.265.367-.336.581-.071.215-.097.442-.077.667.002.017.003.035.003.053v13.978c-.004.238.041.475.131.697.09.221.224.423.393.592.17.169.372.302.594.392.223.091.461.135.701.132h14.077c.497-.008.971-.21 1.319-.563.301-.304.422-.742.422-1.326v-7.026c0-.325.263-.588.588-.588.325 0 .588.263.588.588v7.026c0 .719-.145 1.53-.761 2.153-.567.574-1.337.901-2.144.912H648.02c-.395.005-.788-.069-1.154-.217-.368-.149-.702-.37-.983-.65-.281-.281-.503-.614-.653-.982-.148-.365-.223-.757-.218-1.153v-13.94c-.03-.377.016-.756.134-1.114.122-.368.318-.707.576-.996.258-.289.572-.522.924-.685.352-.162.733-.251 1.12-.261l.015-.001z" fill="#333"/><path fill-rule="evenodd" clip-rule="evenodd" d="M651.705 292.595c1.071-1.084 2.405-1.795 3.905-1.795h40.355c2.268 0 3.675 1.792 3.402 3.22l-4.758 40.301c-.081 1.021-.504 1.992-1.263 2.71-.763.721-1.849 1.169-3.22 1.169h-69.789c-2.751 0-4.913-2.107-5.228-4.162v-.002l-5.081-30.972c-.162-1.082.393-2.235 1.285-3.099.898-.87 2.182-1.495 3.574-1.495h31.598l5.215-5.87.005-.005zm.432.416l-5.384 6.059h-31.866c-1.214 0-2.354.548-3.157 1.326-.808.784-1.231 1.754-1.109 2.578v.002l5.081 30.97c.268 1.756 2.173 3.654 4.635 3.654h69.789c1.235 0 2.168-.4 2.808-1.005.642-.607 1.008-1.438 1.077-2.327v-.006l4.763-40.335.002-.012c.193-.972-.822-2.515-2.811-2.515H655.61c-1.335 0-2.514.643-3.473 1.611z" fill="#333"/><path d="M247.5 297c0 8.008-6.492 14.5-14.5 14.5s-14.5-6.492-14.5-14.5 6.492-14.5 14.5-14.5 14.5 6.492 14.5 14.5z" fill="#F9F9F9" stroke="#D0D5DA"/><path d="M235.294 304h-2.716v-7.436l.026-1.221.044-1.336c-.451.451-.764.747-.94.888l-1.477 1.186-1.309-1.635 4.14-3.296h2.232V304zM345.707 161.293c-.39-.391-1.024-.391-1.414 0l-6.364 6.364c-.391.39-.391 1.024 0 1.414.39.391 1.024.391 1.414 0l5.657-5.657 5.657 5.657c.39.391 1.024.391 1.414 0 .391-.39.391-1.024 0-1.414l-6.364-6.364zM344 233c0 .552.448 1 1 1s1-.448 1-1h-2zm0-71v28.694h2V162h-2zm0 28.694V233h2v-42.306h-2z" fill="#666"/><path d="M389 162c0-.552-.448-1-1-1s-1 .448-1 1h2zm-1.707 71.707c.39.391 1.024.391 1.414 0l6.364-6.364c.391-.39.391-1.024 0-1.414-.39-.391-1.024-.391-1.414 0L388 231.586l-5.657-5.657c-.39-.391-1.024-.391-1.414 0-.391.39-.391 1.024 0 1.414l6.364 6.364zM387 162v28.694h2V162h-2zm0 28.694V233h2v-42.306h-2z" fill="#FF6F3D"/><path d="M345 211.5c-8.008 0-14.5-6.492-14.5-14.5s6.492-14.5 14.5-14.5 14.5 6.492 14.5 14.5-6.492 14.5-14.5 14.5z" fill="#F9F9F9" stroke="#D0D5DA"/><path d="M349.562 204h-8.983v-1.89l3.226-3.26c.955-.979 1.579-1.656 1.872-2.031.293-.381.504-.732.633-1.054.128-.323.193-.657.193-1.002 0-.516-.144-.9-.431-1.152-.281-.252-.659-.378-1.134-.378-.498 0-.981.115-1.45.343-.468.229-.958.554-1.467.976l-1.477-1.749c.633-.539 1.157-.92 1.573-1.143.416-.222.87-.392 1.362-.51.493-.123 1.043-.184 1.653-.184.803 0 1.512.146 2.127.439.615.293 1.093.703 1.432 1.231.34.527.51 1.131.51 1.81 0 .592-.105 1.149-.316 1.67-.205.516-.528 1.046-.967 1.591-.434.545-1.201 1.321-2.303 2.329l-1.652 1.556v.123h5.599V204z" fill="#666"/><path d="M388 211.5c-8.008 0-14.5-6.492-14.5-14.5s6.492-14.5 14.5-14.5 14.5 6.492 14.5 14.5-6.492 14.5-14.5 14.5z" fill="#F9F9F9" stroke="#D0D5DA"/><path d="M392.061 194.024c0 .803-.244 1.486-.73 2.048-.486.563-1.169.949-2.048 1.16v.053c1.037.129 1.822.445 2.356.949.533.498.799 1.172.799 2.022 0 1.236-.448 2.2-1.344 2.891-.897.686-2.177 1.029-3.841 1.029-1.395 0-2.631-.232-3.709-.695v-2.311c.498.252 1.046.457 1.644.615.597.158 1.189.237 1.775.237.896 0 1.558-.152 1.986-.457.428-.304.642-.794.642-1.467 0-.604-.246-1.032-.738-1.284-.493-.252-1.278-.377-2.356-.377h-.976v-2.083h.994c.996 0 1.722-.129 2.179-.387.463-.264.695-.712.695-1.345 0-.973-.61-1.459-1.828-1.459-.422 0-.853.07-1.292.211-.434.141-.917.384-1.451.73l-1.256-1.873c1.171-.843 2.569-1.265 4.192-1.265 1.33 0 2.379.269 3.146.808.774.539 1.161 1.289 1.161 2.25z" fill="#666"/><path d="M655 85.228c0-3.7868 3.085-6.8567 6.889-6.8567h48.222c3.805 0 6.889 3.0699 6.889 6.8567v13.7134h-62V85.228zM655 101.4h62v20.371h-62V101.4zM655 124.429h62v13.581c0 3.75-3.084 6.79-6.889 6.79h-48.222c-3.805 0-6.889-3.04-6.889-6.79v-13.581z" fill="#444"/><path d="M696.17 87.4424c0 1.223-.991 2.2143-2.214 2.2143-1.223 0-2.215-.9913-2.215-2.2143 0-1.2229.992-2.2143 2.215-2.2143 1.223 0 2.214.9914 2.214 2.2143zM703.058 87.4424c0 1.223-.991 2.2143-2.214 2.2143-1.223 0-2.214-.9913-2.214-2.2143 0-1.2229.991-2.2143 2.214-2.2143 1.223 0 2.214.9914 2.214 2.2143zM709.947 87.4424c0 1.223-.991 2.2143-2.214 2.2143-1.223 0-2.215-.9913-2.215-2.2143 0-1.2229.992-2.2143 2.215-2.2143 1.223 0 2.214.9914 2.214 2.2143zM696.17 110.299c0 1.223-.991 2.214-2.214 2.214-1.223 0-2.215-.991-2.215-2.214 0-1.223.992-2.214 2.215-2.214 1.223 0 2.214.991 2.214 2.214zM703.058 110.299c0 1.223-.991 2.214-2.214 2.214-1.223 0-2.214-.991-2.214-2.214 0-1.223.991-2.214 2.214-2.214 1.223 0 2.214.991 2.214 2.214zM709.947 110.299c0 1.223-.991 2.214-2.214 2.214-1.223 0-2.215-.991-2.215-2.214 0-1.223.992-2.214 2.215-2.214 1.223 0 2.214.991 2.214 2.214zM696.17 133.155c0 1.223-.991 2.215-2.214 2.215-1.223 0-2.215-.992-2.215-2.215 0-1.223.992-2.214 2.215-2.214 1.223 0 2.214.991 2.214 2.214zM703.058 133.155c0 1.223-.991 2.215-2.214 2.215-1.223 0-2.214-.992-2.214-2.215 0-1.223.991-2.214 2.214-2.214 1.223 0 2.214.991 2.214 2.214zM709.947 133.155c0 1.223-.991 2.215-2.214 2.215-1.223 0-2.215-.992-2.215-2.215 0-1.223.992-2.214 2.215-2.214 1.223 0 2.214.991 2.214 2.214z" fill="#fff"/><path d="M672.294 144.3h-56.73c-2.874 0-5.235-2.461-5.235-5.583V64.0826c0-1.0834.574-2.4931 1.556-3.6411.978-1.144 2.284-1.9415 3.679-1.9415h42.955l19.01 19.139v61.078c0 3.122-2.361 5.583-5.235 5.583z" fill="#F9F9F9" stroke="#333"/><rect x="623.114" y="85.4571" width="47" height="2" rx="1" fill="#666"/><rect x="623.114" y="93.4571" width="47" height="2" rx="1" fill="#666"/><rect x="623.114" y="101.457" width="47" height="2" rx="1" fill="#666"/><rect x="623.114" y="109.457" width="47" height="2" rx="1" fill="#666"/><rect x="623.114" y="117.457" width="47" height="2" rx="1" fill="#666"/><rect x="623.114" y="125.457" width="47" height="2" rx="1" fill="#666"/><path d="M661.052 78.3714s-3.395 0-3.395-3.3952V58l20.372 20.3714h-16.977z" fill="#333"/><path fill-rule="evenodd" clip-rule="evenodd" d="M607.939 92.0141l-13.197-6.2784c-.735-.3587-1.742-1.1205-1.742-2.405 0-1.2996 1.022-2.0433 1.772-2.3818l5.263-2.5113 9.246 4.417c.286.1397.763.2486 1.318.2486.558 0 1.009-.1102 1.255-.2359l.019-.0094 9.253-4.4203 5.292 2.5255c.736.3588 1.742 1.1205 1.742 2.405 0 1.3001-1.022 2.0439-1.773 2.3823l-13.16 6.2614c-.802.3872-1.769.5311-2.628.5311-.867 0-1.835-.1462-2.646-.5219l-.014-.0069zm4.594-1.4472l13.183-6.2718c1.123-.4977 1.123-1.3439 0-1.8914l-4.59-2.1902-8.544 4.0816c-1.074.5476-2.881.5476-4.004 0l-8.544-4.0816-4.589 2.1902c-1.123.4977-1.123 1.3439 0 1.8914l13.182 6.2718c1.074.4978 2.881.4978 3.906 0z" fill="#fff"/><path fill-rule="evenodd" clip-rule="evenodd" d="M625.972 74.5836c1.128.585 1.128 1.4892 0 2.021l-13.246 6.7014c-1.129.5851-2.944.5851-4.023 0l-13.246-6.7014c-1.129-.585-1.129-1.4892 0-2.021l4.513-2.287 8.733 4.4144c1.128.585 2.943.585 4.023 0l8.732-4.4144 4.514 2.287zm-31.191-1.5547l5.188-2.6288 9.44 4.7716c.288.1493.767.2656 1.324.2656.56 0 1.014-.1176 1.261-.252l.02-.0107 9.445-4.7745 5.219 2.6442c.739.3833 1.751 1.1973 1.751 2.5697 0 1.3892-1.028 2.184-1.782 2.5455l-13.223 6.6897c-.839.4328-1.828.608-2.728.608-.891 0-1.876-.1718-2.703-.6137l-13.242-6.6996c-.74-.3834-1.751-1.1973-1.751-2.5698 0-1.3889 1.027-2.1836 1.781-2.5452z" fill="#fff"/><path fill-rule="evenodd" clip-rule="evenodd" d="M607.939 76.7814l-13.196-6.2784c-.736-.3588-1.743-1.1206-1.743-2.405 0-1.3002 1.023-2.044 1.774-2.3823l13.159-6.2608c.835-.4051 1.819-.5691 2.715-.5691.886 0 1.866.1608 2.689.5744l13.179 6.2701c.736.3588 1.743 1.1205 1.743 2.405 0 1.3001-1.023 2.044-1.774 2.3823l-13.185 6.273-.019.0087c-.821.364-1.789.5108-2.67.5108-.876 0-1.845-.1455-2.657-.5218l-.015-.0069zm17.875-7.719c1.123-.4978 1.123-1.344 0-1.8915l-13.183-6.2718c-1.074-.5475-2.88-.5475-4.003 0l-13.183 6.2718c-1.123.4977-1.123 1.3439 0 1.8915l13.183 6.2718c1.074.4977 2.88.4977 4.003 0l13.183-6.2718z" fill="#fff"/><path fill-rule="evenodd" clip-rule="evenodd" d="M608.598 91.1384l-13.462-6.5463c-1.147-.5715-1.147-1.4547 0-1.9743l4.687-2.286 8.725 4.2603c1.147.5715 2.992.5715 4.089 0l8.726-4.2603 4.687 2.286c1.146.5715 1.146 1.4547 0 1.9743l-13.463 6.5463c-1.047.5196-2.892.5196-3.989 0z" fill="#FF6F3D"/><path fill-rule="evenodd" clip-rule="evenodd" d="M608.598 83.0855l-13.462-6.5463c-1.147-.5715-1.147-1.4548 0-1.9743l4.587-2.2341 8.875 4.3123c1.147.5715 2.992.5715 4.089 0l8.875-4.3123 4.587 2.2341c1.147.5715 1.147 1.4547 0 1.9743l-13.462 6.5463c-1.147.5715-2.992.5715-4.089 0z" fill="#95C038"/><path fill-rule="evenodd" clip-rule="evenodd" d="M608.599 75.2403l-13.463-6.5464c-1.147-.5715-1.147-1.4547 0-1.9743l13.463-6.5463c1.147-.5715 2.992-.5715 4.088 0l13.463 6.5463c1.147.5716 1.147 1.4548 0 1.9743l-13.463 6.5464c-1.146.5195-2.991.5195-4.088 0z" fill="#5DC0E8"/><path d="M655.626 38.6348c0 .9648-.18 1.7714-.539 2.4199-.359.6445-.881 1.1308-1.564 1.459-.684.3242-1.508.4863-2.473.4863h-2.379v-8.5664h2.637c.887 0 1.652.1602 2.297.4805.644.3164 1.142.7871 1.494 1.4121.351.6211.527 1.3906.527 2.3086zm-1.465.041c0-.7031-.111-1.2813-.334-1.7344-.218-.4531-.543-.7891-.972-1.0078-.426-.2227-.951-.334-1.576-.334h-1.202v6.2227h.996c1.036 0 1.809-.2637 2.321-.7911.511-.5273.767-1.3124.767-2.3554zm11.396.0293c0 .6601-.084 1.2617-.252 1.8047-.164.539-.412 1.0039-.744 1.3945-.332.3867-.748.6855-1.248.8965-.5.2109-1.086.3164-1.758.3164-.683 0-1.277-.1055-1.781-.3164-.5-.211-.916-.5117-1.248-.9024-.328-.3906-.574-.8574-.738-1.4004-.164-.5429-.246-1.1445-.246-1.8046 0-.8829.144-1.6524.433-2.3086.293-.6602.737-1.1719 1.33-1.5352.598-.3672 1.352-.5508 2.262-.5508.891 0 1.631.1817 2.221.545.59.3632 1.031.875 1.324 1.5351.297.6563.445 1.4316.445 2.3262zm-6.539 0c0 .6601.09 1.2324.27 1.7168.18.4804.455.8515.826 1.1133.375.2578.855.3867 1.441.3867.59 0 1.071-.1289 1.442-.3867.371-.2618.644-.6329.82-1.1133.176-.4844.264-1.0567.264-1.7168 0-1.0039-.201-1.7891-.604-2.3555-.398-.5703-1.035-.8555-1.91-.8555-.586 0-1.068.1289-1.447.3868-.375.2578-.652.6269-.832 1.1074-.18.4765-.27 1.0488-.27 1.7168zm12.51-3.1992c-.411 0-.778.0742-1.102.2226-.32.1485-.592.3633-.814.6445-.223.2774-.393.6153-.51 1.0137-.117.3945-.176.8399-.176 1.336 0 .664.094 1.2363.281 1.7168.188.4765.473.8437.856 1.1015.383.2539.867.3809 1.453.3809.363 0 .717-.0352 1.06-.1055.344-.0703.7-.166 1.067-.2871v1.1953c-.348.1367-.699.2363-1.055.2988-.355.0625-.765.0938-1.23.0938-.875 0-1.602-.1817-2.18-.5449-.574-.3633-1.004-.875-1.289-1.5352-.281-.6601-.422-1.4336-.422-2.3203 0-.6484.09-1.2422.27-1.7813.179-.539.441-1.0039.785-1.3945.343-.3945.767-.6972 1.271-.9082.508-.2148 1.088-.3223 1.74-.3223.43 0 .852.0489 1.266.1465.418.0938.805.2285 1.16.4043l-.492 1.1602c-.297-.1406-.607-.2617-.932-.3633-.324-.1016-.66-.1523-1.007-.1523zm11.161-1.0723v5.543c0 .5976-.127 1.1328-.381 1.6054-.25.4727-.629.8477-1.136 1.125-.508.2735-1.147.4102-1.916.4102-1.098 0-1.934-.2871-2.508-.8613-.57-.5782-.856-1.3457-.856-2.3028v-5.5195h1.407v5.3965c0 .7148.168 1.2422.504 1.582.335.3399.837.5098 1.505.5098.461 0 .836-.0801 1.125-.2403.293-.164.508-.4023.645-.7148.141-.3164.211-.6973.211-1.1426v-5.3906h1.4zM689.058 43l-2.467-7.1543h-.053c.012.1602.026.3789.041.6563.016.2773.03.5742.041.8906.012.3164.018.6191.018.9082V43h-1.277v-8.5664h1.974l2.373 6.8379h.035l2.456-6.8379h1.968V43h-1.342v-4.7695c0-.2617.004-.545.012-.8496.012-.3047.024-.5938.035-.8672.016-.2735.028-.4922.036-.6563h-.047L690.3 43h-1.242zm12.697 0h-4.852v-8.5664h4.852v1.1836h-3.446v2.3262h3.229v1.1777h-3.229v2.6894h3.446V43zm9.48 0h-1.729l-4.195-6.8379h-.053c.016.2305.029.4746.041.7324.016.2578.027.5235.035.7969.012.2734.022.5508.03.832V43h-1.278v-8.5664h1.717l4.19 6.791h.041c-.008-.1992-.018-.4277-.03-.6855-.011-.2579-.023-.5235-.035-.7969-.008-.2774-.014-.5449-.018-.8027v-4.5059h1.284V43zm5.7 0h-1.412v-7.3711h-2.508v-1.1953h6.422v1.1953h-2.502V43zm12.837-2.332c0 .5078-.125.9453-.375 1.3125-.246.3672-.601.6484-1.066.8437-.461.1953-1.012.293-1.652.293-.313 0-.612-.0176-.897-.0527-.285-.0352-.555-.086-.808-.1524-.25-.0703-.479-.1543-.686-.2519v-1.3243c.348.1524.736.2911 1.166.4161.43.121.867.1816 1.312.1816.364 0 .665-.0469.903-.1406.242-.0977.422-.2344.539-.4102.117-.1797.176-.3887.176-.6269 0-.2539-.069-.4688-.205-.6446-.137-.1758-.344-.3359-.621-.4804-.274-.1485-.618-.3067-1.032-.4747-.281-.1132-.551-.2421-.808-.3867-.254-.1445-.481-.3144-.68-.5097-.199-.1953-.357-.4258-.475-.6914-.113-.2696-.17-.586-.17-.9493 0-.4843.116-.8984.346-1.2421.235-.3438.563-.6075.985-.7911.425-.1836.921-.2754 1.488-.2754.449 0 .871.0469 1.265.1407.399.0937.789.2265 1.172.3984l-.445 1.1309c-.352-.1446-.693-.2598-1.025-.3457-.329-.086-.664-.1289-1.008-.1289-.297 0-.549.0449-.756.1347-.207.0899-.365.2168-.475.3809-.105.1601-.158.3515-.158.5742 0 .25.061.4609.182.6328.125.168.316.3223.574.4629.262.1406.598.2969 1.008.4688.472.1953.873.4003 1.201.6152.332.2148.586.4726.762.7734.175.2969.263.67.263 1.1192zM736.756 43h-4.851v-8.5664h4.851v1.1836h-3.445v2.3262h3.228v1.1777h-3.228v2.6894h3.445V43zm4.74-8.5664c.738 0 1.348.0898 1.828.2695.485.1797.844.4531 1.078.8203.239.3672.358.834.358 1.4004 0 .4219-.078.7813-.235 1.0782-.156.2968-.361.5429-.615.7382-.254.1953-.525.3516-.814.4688L745.527 43h-1.588l-2.068-3.4336h-1.377V43h-1.406v-8.5664h2.408zm-.094 1.1719h-.908v2.8007h.973c.652 0 1.125-.121 1.418-.3632.297-.2422.445-.5996.445-1.0723 0-.4961-.158-.8477-.475-1.0547-.312-.207-.796-.3105-1.453-.3105zm12.181-1.1719L750.589 43h-1.488l-2.994-8.5664h1.441l1.805 5.3672c.055.1562.113.3457.176.5683.066.2227.127.4473.181.6739.059.2265.104.4277.135.6035.031-.1758.074-.377.129-.6035.059-.2266.119-.4512.182-.6739.062-.2226.121-.414.175-.5742l1.811-5.3613h1.441zM755.188 43v-8.5664h1.407V43h-1.407zm7.799-7.4941c-.41 0-.778.0742-1.102.2226-.32.1485-.592.3633-.814.6445-.223.2774-.393.6153-.51 1.0137-.117.3945-.176.8399-.176 1.336 0 .664.094 1.2363.281 1.7168.188.4765.473.8437.856 1.1015.383.2539.867.3809 1.453.3809.363 0 .717-.0352 1.061-.1055.343-.0703.699-.166 1.066-.2871v1.1953c-.348.1367-.699.2363-1.055.2988-.355.0625-.765.0938-1.23.0938-.875 0-1.602-.1817-2.18-.5449-.574-.3633-1.004-.875-1.289-1.5352-.281-.6601-.422-1.4336-.422-2.3203 0-.6484.09-1.2422.27-1.7813.179-.539.441-1.0039.785-1.3945.344-.3945.768-.6972 1.271-.9082.508-.2148 1.088-.3223 1.741-.3223.429 0 .851.0489 1.265.1465.418.0938.805.2285 1.16.4043l-.492 1.1602c-.297-.1406-.607-.2617-.931-.3633-.325-.1016-.661-.1523-1.008-.1523zM772.273 43h-4.851v-8.5664h4.851v1.1836h-3.445v2.3262h3.229v1.1777h-3.229v2.6894h3.445V43z" fill="#333"/><path d="M428.737 120.651h.5V58.9271c-.012-1.6908-.685-3.3094-1.873-4.506-1.188-1.1968-2.797-1.8753-4.479-1.888v0h-97.641v0h-.003c-1.682.0127-3.291.6912-4.48 1.888-1.188 1.1966-1.86 2.8152-1.873 4.506h0v61.7239h109.849z" fill="#FEFEFE" stroke="#333"/><path d="M388.768 137.496h-29.411v8.295h29.411v-8.295z" fill="#EFEFEF"/><path fill-rule="evenodd" clip-rule="evenodd" d="M351.84 145.791c-2.057 0-3.795 1.707-3.795 3.771s1.738 3.771 3.795 3.771h42.938c2.056 0 3.794-1.707 3.794-3.771s-1.738-3.771-3.794-3.771H351.84z" fill="#EFEFEF"/><path fill-rule="evenodd" clip-rule="evenodd" d="M394.778 154.087H351.84c-2.467 0-4.549-2.038-4.549-4.525 0-2.487 2.082-4.525 4.549-4.525h42.938c2.466 0 4.548 2.038 4.548 4.525 0 2.487-2.082 4.525-4.548 4.525zm-46.733-4.525c0-2.064 1.738-3.771 3.795-3.771h42.938c2.056 0 3.794 1.707 3.794 3.771s-1.738 3.771-3.794 3.771H351.84c-2.057 0-3.795-1.707-3.795-3.771z" fill="#333"/><path d="M374.013 132.057c1.757 0 3.181-1.426 3.181-3.184 0-1.759-1.424-3.184-3.181-3.184-1.756 0-3.18 1.425-3.18 3.184 0 1.758 1.424 3.184 3.18 3.184z" fill="#333"/><path d="M327.05 73.8698c0-2.7614 2.238-5 5-5h83.512c2.761 0 5 2.2386 5 5v45.5272H327.05V73.8698z" fill="#F9F9F9"/><path d="M332.804 69.3698h84.266c2.485 0 4.5 2.0147 4.5 4.5v2.0413h-93.266v-2.0413c0-2.4853 2.014-4.5 4.5-4.5z" fill="#AAA" stroke="#333"/><path d="M332.804 69.3698h84.266c2.485 0 4.5 2.0147 4.5 4.5v45.7812h-93.266V73.8698c0-2.4853 2.014-4.5 4.5-4.5z" stroke="#333"/><path d="M363.247 84.9607h-28.655c-1.125 0-2.009.9456-2.009 2.0674v16.4729c0 1.125.88 2.067 2.009 2.067h28.655c1.125 0 2.009-.946 2.009-2.067V87.0281c0-1.1218-.884-2.0674-2.009-2.0674z" fill="#D9F4FF" stroke="#333"/><path fill-rule="evenodd" clip-rule="evenodd" d="M333.85 105.068c-.704 0-1.035-.857-.509-1.318l8.414-7.3544 6.033 5.2794 9.427-9.4271 7.541 6.7871v4.525c0 .833-.685 1.508-1.531 1.508H333.85z" fill="#fff"/><path fill-rule="evenodd" clip-rule="evenodd" d="M341.575 95.6832l6.069 5.3858 9.625-9.5752 8.241 7.667v4.3202c0 1.293-1.004 2.341-2.243 2.341h-28.686c-1.375 0-2.021-1.774-.993-2.727l7.987-7.4118zm6.097 6.4358l-6.086-5.4017-7.502 6.9607c-.514.477-.191 1.364.497 1.364h28.686c.826 0 1.496-.699 1.496-1.561v-3.9704l-7.477-6.9556-9.614 9.564z" fill="#333"/><path fill-rule="evenodd" clip-rule="evenodd" d="M337.984 93.002c1.461 0 2.64-1.1801 2.64-2.6414s-1.183-2.6375-2.64-2.6375c-1.46 0-2.639 1.1801-2.639 2.6375 0 1.4573 1.179 2.6414 2.639 2.6414z" fill="url(#paint3_linear_2760_7177)"/><path fill-rule="evenodd" clip-rule="evenodd" d="M341.378 90.3606c0 1.8772-1.516 3.3956-3.394 3.3956-1.878 0-3.393-1.5231-3.393-3.3956 0-1.874 1.517-3.3916 3.393-3.3916 1.872 0 3.394 1.5121 3.394 3.3916zm-.754 0c0 1.4613-1.179 2.6414-2.64 2.6414-1.46 0-2.639-1.184-2.639-2.6414 0-1.4573 1.179-2.6375 2.639-2.6375 1.457 0 2.64 1.1762 2.64 2.6375zM372.297 94.1332c0-.2082.169-.377.378-.377h42.985c.208 0 .377.1688.377.377 0 .2083-.169.3771-.377.3771h-42.985c-.209 0-.378-.1688-.378-.3771zM372.297 97.9039c0-.2083.169-.3771.378-.3771h42.985c.208 0 .377.1688.377.3771 0 .2082-.169.377-.377.377h-42.985c-.209 0-.378-.1688-.378-.377zM372.297 101.675c0-.209.169-.378.378-.378h42.985c.208 0 .377.169.377.378 0 .208-.169.377-.377.377h-42.985c-.209 0-.378-.169-.378-.377zM372.297 105.445c0-.208.169-.377.378-.377h42.985c.208 0 .377.169.377.377s-.169.377-.377.377h-42.985c-.209 0-.378-.169-.378-.377z" fill="#333"/><path fill-rule="evenodd" clip-rule="evenodd" d="M372.297 86.5919c0-.2082.172-.3771.384-.3771h23.366c.211 0 .383.1689.383.3771 0 .2083-.172.3771-.383.3771h-23.366c-.212 0-.384-.1688-.384-.3771z" fill="url(#paint4_linear_2760_7177)"/><path fill-rule="evenodd" clip-rule="evenodd" d="M428.737 120.151H319.388v11.573c.012 1.527.633 2.989 1.728 4.069 1.096 1.08 2.579 1.691 4.128 1.703h97.637c1.55-.012 3.033-.623 4.128-1.703 1.096-1.08 1.717-2.542 1.728-4.069v-11.573z" fill="#EFEFEF"/><path fill-rule="evenodd" clip-rule="evenodd" d="M429.491 119.397v12.332c-.013 1.729-.715 3.382-1.952 4.601-1.237 1.219-2.908 1.907-4.652 1.92h-97.648c-1.744-.013-3.416-.701-4.652-1.92-1.237-1.219-1.94-2.872-1.953-4.601v-12.332h110.857zm-110.103.754h109.349v11.573c-.011 1.527-.632 2.989-1.728 4.069-1.095 1.08-2.578 1.691-4.128 1.703h-97.637c-1.549-.012-3.032-.623-4.128-1.703-1.095-1.08-1.716-2.542-1.728-4.069v-11.573z" fill="#333"/><path d="M359.357 137.496h-.754v8.295h.754v-8.295zM388.768 137.496h-.754v8.295h.754v-8.295z" fill="#333"/><path fill-rule="evenodd" clip-rule="evenodd" d="M338.213 60.8651c.179-.9087-.548-1.8025-1.485-1.799-.82.0031-1.503.6889-1.503 1.5083 0 .926.885 1.663 1.805 1.4788.585-.1173 1.068-.6022 1.183-1.1881zm-6.757-1.799c.598 0 1.167.3799 1.396.9311.359.8654-.192 1.8759-1.101 2.0564-.92.1828-1.805-.554-1.805-1.4792 0-.8215.688-1.5083 1.51-1.5083zm-5.281.0001c.937 0 1.66.895 1.48 1.8025-.117.5851-.6 1.0686-1.185 1.185-.293.0582-.596.0283-.872-.0858-.551-.2283-.931-.7969-.931-1.3935 0-.8215.687-1.5082 1.508-1.5082z" fill="url(#paint5_linear_2760_7177)"/><rect x="344.275" y="59.8203" width="58.0681" height=".754132" rx=".377066" fill="#333"/><rect x="406.867" y="59.8203" width="15.0826" height=".754132" rx=".377066" fill="#FF6F3D"/><circle cx="374.44" cy="129.2" r="2.26239" fill="#333"/><path d="M420.125 34.4336h2.549c1.105 0 1.939.1602 2.502.4805.562.3203.844.873.844 1.6582 0 .3281-.059.625-.176.8906-.114.2617-.28.4785-.498.6504-.219.1679-.489.2812-.809.3398v.0586c.332.0586.627.1621.885.3106.262.1484.467.3613.615.6386.152.2774.229.6368.229 1.0782 0 .5234-.125.9687-.375 1.3359-.246.3672-.6.6465-1.061.8379-.457.1914-1 .2871-1.629.2871h-3.076v-8.5664zm1.406 3.5332h1.348c.637 0 1.078-.1035 1.324-.3106.246-.207.369-.5097.369-.9082 0-.4062-.146-.6992-.439-.8789-.289-.1796-.75-.2695-1.383-.2695h-1.219v2.3672zm0 1.1367v2.7188h1.483c.656 0 1.117-.127 1.382-.3809.266-.2539.399-.5976.399-1.0312 0-.2657-.061-.4961-.182-.6914-.117-.1954-.31-.3458-.58-.4512-.269-.1094-.633-.1641-1.09-.1641h-1.412zm9.392-4.6699c.739 0 1.348.0898 1.828.2695.485.1797.844.4531 1.079.8203.238.3672.357.834.357 1.4004 0 .4219-.078.7813-.234 1.0782-.157.2968-.362.5429-.616.7382-.253.1953-.525.3516-.814.4688L434.955 43h-1.588l-2.069-3.4336h-1.377V43h-1.406v-8.5664h2.408zm-.093 1.1719h-.909v2.8007h.973c.652 0 1.125-.121 1.418-.3632.297-.2422.445-.5996.445-1.0723 0-.4961-.158-.8477-.474-1.0547-.313-.207-.797-.3105-1.453-.3105zm13.435 3.0996c0 .6601-.084 1.2617-.252 1.8047-.164.539-.412 1.0039-.744 1.3945-.332.3867-.748.6855-1.248.8965-.5.2109-1.086.3164-1.758.3164-.684 0-1.278-.1055-1.782-.3164-.5-.211-.916-.5117-1.248-.9024-.328-.3906-.574-.8574-.738-1.4004-.164-.5429-.246-1.1445-.246-1.8046 0-.8829.145-1.6524.434-2.3086.293-.6602.736-1.1719 1.33-1.5352.597-.3672 1.351-.5508 2.261-.5508.891 0 1.631.1817 2.221.545.59.3632 1.031.875 1.324 1.5351.297.6563.446 1.4316.446 2.3262zm-6.539 0c0 .6601.089 1.2324.269 1.7168.18.4804.455.8515.826 1.1133.375.2578.856.3867 1.442.3867.59 0 1.07-.1289 1.441-.3867.371-.2618.645-.6329.82-1.1133.176-.4844.264-1.0567.264-1.7168 0-1.0039-.201-1.7891-.603-2.3555-.399-.5703-1.036-.8555-1.911-.8555-.585 0-1.068.1289-1.447.3868-.375.2578-.652.6269-.832 1.1074-.18.4765-.269 1.0488-.269 1.7168zm18.989-4.2715L454.477 43h-1.535l-1.43-5.1328c-.035-.125-.074-.2734-.117-.4453-.043-.1719-.086-.3477-.129-.5274-.039-.1797-.074-.3437-.105-.4922-.028-.1523-.047-.2695-.059-.3515-.008.082-.025.1972-.053.3457-.027.1484-.06.3125-.099.4922-.035.1758-.074.3515-.117.5273-.043.1719-.082.3242-.118.457L449.309 43h-1.529l-2.233-8.5664h1.413l1.236 5.0215c.039.1601.078.334.117.5215.043.1836.082.3691.117.5566.039.1875.074.3711.106.5508.031.1758.056.3359.076.4805.019-.1485.045-.3125.076-.4922.031-.1836.065-.3692.1-.5567.039-.1914.078-.375.117-.5508.043-.1757.086-.3339.129-.4746l1.394-5.0566h1.371l1.424 5.0742c.043.1445.084.3067.123.4863.043.1797.084.3633.123.5508.039.1875.075.3692.106.5449.031.1758.056.334.076.4747.027-.1915.062-.4102.105-.6563.043-.2461.092-.4961.147-.75.055-.2539.109-.4883.164-.7031l1.23-5.0215h1.418zm6.639 6.2344c0 .5078-.125.9453-.375 1.3125-.247.3672-.602.6484-1.067.8437-.461.1953-1.012.293-1.652.293-.313 0-.611-.0176-.897-.0527-.285-.0352-.554-.086-.808-.1524-.25-.0703-.479-.1543-.686-.2519v-1.3243c.348.1524.737.2911 1.166.4161.43.121.867.1816 1.313.1816.363 0 .664-.0469.902-.1406.242-.0977.422-.2344.539-.4102.117-.1797.176-.3887.176-.6269 0-.2539-.068-.4688-.205-.6446-.137-.1758-.344-.3359-.621-.4804-.274-.1485-.617-.3067-1.032-.4747-.281-.1132-.55-.2421-.808-.3867-.254-.1445-.481-.3144-.68-.5097-.199-.1953-.357-.4258-.474-.6914-.114-.2696-.17-.586-.17-.9493 0-.4843.115-.8984.345-1.2421.235-.3438.563-.6075.985-.7911.426-.1836.922-.2754 1.488-.2754.449 0 .871.0469 1.266.1407.398.0937.789.2265 1.172.3984l-.446 1.1309c-.351-.1446-.693-.2598-1.025-.3457-.328-.086-.664-.1289-1.008-.1289-.297 0-.549.0449-.756.1347-.207.0899-.365.2168-.474.3809-.106.1601-.159.3515-.159.5742 0 .25.061.4609.182.6328.125.168.316.3223.574.4629.262.1406.598.2969 1.008.4688.473.1953.873.4003 1.201.6152.332.2148.586.4726.762.7734.176.2969.264.67.264 1.1192zM470.338 43h-4.852v-8.5664h4.852v1.1836h-3.446v2.3262h3.229v1.1777h-3.229v2.6894h3.446V43zm4.739-8.5664c.739 0 1.348.0898 1.828.2695.485.1797.844.4531 1.079.8203.238.3672.357.834.357 1.4004 0 .4219-.078.7813-.234 1.0782-.157.2968-.362.5429-.616.7382-.254.1953-.525.3516-.814.4688L479.109 43h-1.588l-2.069-3.4336h-1.377V43h-1.406v-8.5664h2.408zm-.093 1.1719h-.909v2.8007h.973c.652 0 1.125-.121 1.418-.3632.297-.2422.445-.5996.445-1.0723 0-.4961-.158-.8477-.474-1.0547-.313-.207-.797-.3105-1.453-.3105z" fill="#333"/><path fill-rule="evenodd" clip-rule="evenodd" d="M138.946 307.14c-4.908-3.446-15.919-7.847-21.322-8.621-1.571.638-11.544-.935-19.7552-.297-6.7355 1.378-18.8475 6.607-21.1517 8.918-2.7589 2.768-6.4374 12.608-7.3571 22.459 21.4582 16.913 55.09 9.239 59.674 7.844 1.679-.537 2.445-.801 4.502-1.569 4.2-1.666 8.035-3.927 11.877-6.275-.949-7.699-3.401-20.306-6.467-22.459z" fill="#FEFEFE"/><path fill-rule="evenodd" clip-rule="evenodd" d="M114.147 339.965c0-8.335-.434-16.657-2.177-24.821-.408-1.595-.892-3.05-1.476-4.304l1.476-1.733.479-2.561c-2.343-3.358-3.523-5.8-4.481-6.011-1.11-.243-2.151 2.405-4.971 6.192l1.042 2.144 1.201 1.769c-3.056 9.125-3.973 20.34-3.973 29.638 4.28.415 11.64.415 12.88-.313z" fill="url(#paint6_linear_2760_7177)"/><path d="M114.133 340.077c0-8.259-.423-16.506-2.125-24.597-.399-1.581-.871-3.022-1.441-4.265m-5.371-.268c-1.362 2.916-3.943 12.88-3.943 29.44" stroke="#333"/><path d="M112.907 306.653c-1.9 4.763-3.21 6.147-4.749 6.134-1.688-.016-2.849-1.371-5.065-6.134" stroke="#333" stroke-linecap="round"/><path fill-rule="evenodd" clip-rule="evenodd" d="M90.8267 299.913c1.5427 2.606 3.7923 5.564 5.5719 8.017.7022.973 1.688 2.466 3.0673 2.401.6701-.029 1.2141-.396 1.7001-.827.226-.203.461-.446.704-.73.34-.382.679-.763 1.011-1.144.017-.019.082-.122.13-.187.169-.228 3.414-5.057 3.868-5.75.089-.13.178-.251.275-.373h.923c.202.268.336.51.567.771.795.899 1.61 2.756 3.059 4.849.147.213.218.276.315.422.641.716 1.249 1.494 1.967 2.134.472.42 1.051.827 1.708.827 2.79.065 7.569-8.011 8.867-10.41-2.195-.77-4.503-1.481-6.809-1.839-4.023 3.984-15.787 3.065-19.871-.314-2.1664.306-4.9067 1.204-7.0533 2.153z" fill="#D9F4FF"/><path d="M96.8041 307.637l-.0008-.001c-.3267-.45-.668-.916-1.0169-1.392-1.4445-1.971-3.0194-4.12-4.2354-6.099 1.9546-.819 4.2866-1.56 6.1871-1.858 1.0839.839 2.5849 1.506 4.2659 1.988 1.447.415 3.051.7 4.681.834-.076.099-.147.198-.218.301h0l-.006.009c-.225.343-1.148 1.721-2.038 3.044-.444.661-.88 1.308-1.214 1.803-.168.247-.31.457-.415.611-.053.078-.096.141-.128.188l-.04.056-.012.018-.004.005-.001.001c-.032.043-.066.095-.089.129l-.001.001-.003.004c-.011.016-.019.028-.025.038-.325.373-.659.747-.995 1.124h0l-.006.008c-.232.27-.45.496-.657.681-.463.411-.8964.68-1.3888.702h-.0015c-.4903.023-.9537-.227-1.418-.673-.4151-.399-.7709-.895-1.1008-1.355-.0403-.056-.0802-.112-.1198-.167zm21.1119-9.03c1.988.33 3.985.921 5.92 1.584-.743 1.325-2.079 3.558-3.552 5.554-.845 1.144-1.722 2.193-2.548 2.947-.413.377-.801.669-1.155.862-.356.196-.647.275-.877.269h0-.011c-.457 0-.913-.289-1.375-.701-.497-.442-.929-.944-1.382-1.469-.17-.197-.342-.397-.522-.599-.051-.073-.096-.13-.136-.18l-.008-.01c-.045-.057-.092-.116-.156-.208-.687-.993-1.23-1.933-1.704-2.753-.016-.029-.033-.057-.049-.085-.475-.822-.904-1.563-1.343-2.059-.096-.108-.174-.215-.257-.335-.018-.027-.038-.055-.057-.084-.031-.046-.064-.094-.099-.144 1.749.015 3.482-.151 5.037-.529 1.681-.409 3.19-1.074 4.274-2.06z" stroke="#333"/><path fill-rule="evenodd" clip-rule="evenodd" d="M117.529 297.888l.164.024c2.773.398 6.927 1.713 10.979 3.346 4.054 1.635 8.081 3.617 10.589 5.38.474.334.899.839 1.282 1.439.387.604.753 1.337 1.099 2.16.692 1.644 1.324 3.695 1.884 5.902 1.122 4.414 1.976 9.518 2.452 13.385l.049.392-.337.206c-3.839 2.349-7.711 4.635-11.96 6.322l-.006.002-.005.003c-2.064.77-2.838 1.038-4.526 1.578l-.008.002c-2.341.714-11.947 2.992-23.667 2.971-11.7148-.022-25.6356-2.341-36.5095-10.919l-.2618-.207.031-.332c.4642-4.978 1.6239-9.948 3.0163-14.027.6963-2.04 1.4536-3.865 2.216-5.362.7574-1.487 1.5383-2.687 2.2941-3.446.6472-.65 1.9106-1.447 3.4717-2.283 1.5834-.847 3.5393-1.768 5.6282-2.657 4.1699-1.775 8.9205-3.445 12.3432-4.146l.0373-.007.038-.003c4.1495-.323 8.7305-.086 12.4415.147.428.027.843.054 1.244.08 1.351.087 2.548.164 3.529.201.636.024 1.166.03 1.58.011.438-.019.67-.063.759-.099l.153-.063zm27.841 31.711c-3.838 2.348-7.67 4.609-11.866 6.275-2.055.768-2.82 1.032-4.498 1.569-4.58 1.395-38.18 9.069-59.6182-7.844.9187-9.851 4.5939-19.691 7.3502-22.459 2.3021-2.311 14.4028-7.54 21.132-8.918 4.57-.355 9.685-.025 13.592.227 3.107.201 5.449.352 6.144.07 5.398.774 16.399 5.174 21.303 8.621 3.063 2.153 5.513 14.76 6.461 22.459z" fill="#333"/><path d="M97.7009 298.189l-.0649.266.1887.198c1.0826 1.136 2.7763 1.895 4.6633 2.363 1.9.47 4.055.659 6.124.61 2.067-.05 4.074-.337 5.675-.836.8-.25 1.514-.556 2.087-.923.57-.365 1.035-.811 1.281-1.352l.082-.179-.063-.187c-.769-2.285-.822-4.661-.846-7.13v0-.001 0-.001 0-.001 0-.001 0-.001 0-.001 0-.001 0-.001 0-.001 0-.001 0-.001 0-.001 0-.001 0-.001 0-.001 0-.001 0-.001 0-.001 0V291v0-.001 0-.001 0-.001 0-.001 0-.001 0-.001 0-.001 0-.001 0-.001 0-.001 0-.001 0-.001 0-.001 0-.001 0-.001 0-.001 0-.001 0-.001 0-.001 0-.001 0-.001 0-.001 0-.001 0-.001 0-.001 0-.001 0-.001 0-.001 0-.001 0-.001 0-.001 0-.002 0-.001 0-.001 0-.001 0-.002 0-.001 0-.002 0-.001 0-.001 0-.002 0-.001 0-.002 0-.001 0-.002 0-.002 0-.001 0-.002 0-.002 0-.001 0-.002 0-.002 0-.002 0-.002 0-.002 0-.002 0-.002 0-.002 0-.002 0-.002 0-.002 0-.002 0-.003 0-.002 0-.002 0-.003 0-.002 0-.003 0-.002 0-.003 0-.003 0-.003 0-.002 0-.003 0-.003 0-.003 0-.003 0-.003 0-.004 0-.003 0-.003 0-.004 0-.003 0-.004 0-.003 0-.004 0-.003 0-.004 0-.004 0-.004 0-.003 0-.004 0-.004 0-.004 0-.004 0-.004 0-.004 0-.004 0-.004 0-.004 0-.004 0-.004 0-.004 0-.003 0-.004 0-.004 0-.004 0-.004 0-.003 0-.004 0-.003 0-.004 0-.003 0-.004 0-.003 0-.003 0-.003 0-.004 0-.003 0-.003 0-.003 0-.003 0-.002 0-.003 0-.003 0-.996l-.799.595c-2.515 1.873-5.466 2.951-8.624 2.951-2.968 0-5.759-.95-8.1679-2.621l-.785-.545V291.208c-.004.079-.0079.158-.0119.237-.1193 2.373-.2355 4.684-.7393 6.744z" fill="#FEFEFE" stroke="#333"/><path fill-rule="evenodd" clip-rule="evenodd" d="M108.007 293.773c11.624 0 18.101-12.645 17.057-22.922-3.904-.348-17.24-1.119-21.561-13.264-1.793 4.393-3.6698 6.648-11.8104 9.343-.9235 3.342-1.106 6.874-.5588 10.296 1.355 8.337 7.7959 16.547 16.8732 16.547z" fill="#FEFEFE"/><path fill-rule="evenodd" clip-rule="evenodd" d="M103.311 257.575c4.277 12.153 17.506 12.924 21.387 13.273.318 3.161.3 6.387-.608 9.432 11.905-29.143-16.064-34.643-21.185-28.322-11.3013-.892-17.3662 14.139-11.8557 25.277-.5432-3.426-.3624-6.964.5543-10.311 8.0666-2.696 9.9284-4.953 11.7074-9.349z" fill="#EFEFEF" stroke="#333" stroke-linejoin="round"/><path d="M91.8087 266.787c-2.9453 9.972.8361 20.78 9.9753 25.442 4.028 2.063 8.841 2.055 12.87 0 7.805-3.982 11.237-12.977 10.395-21.703" stroke="#333"/><path d="M100.19 349.434v5.543c0 .597-.127 1.132-.3807 1.605-.25.473-.6289.848-1.1367 1.125-.5078.273-1.1465.41-1.916.41-1.0977 0-1.9336-.287-2.5079-.861-.5703-.578-.8554-1.346-.8554-2.303v-5.519h1.4062v5.396c0 .715.168 1.242.5039 1.582.336.34.8379.51 1.5059.51.4609 0 .8359-.08 1.125-.24.293-.164.5078-.403.6445-.715.1407-.317.211-.697.211-1.143v-5.39h1.4002zm7.617 6.234c0 .508-.125.945-.375 1.312-.246.368-.602.649-1.067.844-.46.196-1.011.293-1.652.293-.312 0-.611-.017-.896-.053-.286-.035-.555-.085-.809-.152-.25-.07-.478-.154-.686-.252v-1.324c.348.152.737.291 1.167.416.429.121.867.182 1.312.182.363 0 .664-.047.902-.141.243-.098.422-.234.539-.41.118-.18.176-.389.176-.627 0-.254-.068-.469-.205-.645-.137-.175-.344-.336-.621-.48-.273-.149-.617-.307-1.031-.475-.281-.113-.551-.242-.809-.386-.254-.145-.48-.315-.68-.51-.199-.196-.357-.426-.474-.692-.113-.269-.17-.586-.17-.949 0-.484.115-.898.346-1.242.234-.344.562-.607.984-.791.426-.184.922-.275 1.488-.275.45 0 .871.046 1.266.14.398.094.789.227 1.172.399l-.445 1.13c-.352-.144-.694-.259-1.026-.345-.328-.086-.664-.129-1.008-.129-.297 0-.549.045-.756.135-.207.089-.365.216-.474.38-.106.161-.158.352-.158.575 0 .25.06.461.181.633.125.167.317.322.574.462.262.141.598.297 1.008.469.473.195.873.401 1.201.615.333.215.586.473.762.774.176.297.264.67.264 1.119zm6.984 2.332h-4.852v-8.566h4.852v1.183h-3.446v2.326h3.229v1.178h-3.229v2.69h3.446V358zm4.74-8.566c.738 0 1.347.089 1.828.269.484.18.843.453 1.078.82.238.368.357.834.357 1.401 0 .422-.078.781-.234 1.078-.156.297-.361.543-.615.738-.254.196-.526.352-.815.469l2.432 3.791h-1.588l-2.068-3.434h-1.377V358h-1.407v-8.566h2.409zm-.094 1.171h-.908v2.801h.972c.653 0 1.125-.121 1.418-.363.297-.242.446-.6.446-1.072 0-.496-.159-.848-.475-1.055-.313-.207-.797-.311-1.453-.311z" fill="#333"/><path d="M287.17 245.516c0-1.871 1.571-3.387 3.509-3.387h167.642c1.938 0 3.509 1.516 3.509 3.387v97.088c0 1.87-1.571 3.386-3.509 3.386H290.679c-1.938 0-3.509-1.516-3.509-3.386v-97.088z" fill="#fff"/><path fill-rule="evenodd" clip-rule="evenodd" d="M290.679 241h167.642c2.584 0 4.679 2.022 4.679 4.516v97.088c0 2.494-2.095 4.515-4.679 4.515H290.679c-2.584 0-4.679-2.021-4.679-4.515v-97.088c0-2.494 2.095-4.516 4.679-4.516zm0 1.129c-1.938 0-3.509 1.516-3.509 3.387v97.088c0 1.87 1.571 3.386 3.509 3.386h167.642c1.938 0 3.509-1.516 3.509-3.386v-97.088c0-1.871-1.571-3.387-3.509-3.387H290.679z" fill="#333"/><path d="M287.17 245.516c0-1.871 1.571-3.387 3.509-3.387h167.642c1.938 0 3.509 1.516 3.509 3.387v6.829H287.17v-6.829z" fill="#40865C"/><path d="M287.17 252.345h174.66v10.216H287.17v-10.216z" fill="#F2F2F2"/><path fill-rule="evenodd" clip-rule="evenodd" d="M388.911 263.125h-13.826v4.83h13.826v-4.83zm-28.822 0h13.826v4.83h-13.826v-4.83zm0 5.959h13.826v4.831h-13.826v-4.831zm0 5.96h13.826v4.83h-13.826v-4.83zm14.996 0v4.83h13.826v-4.83h-13.826zm-14.996 5.959h13.826v4.83h-13.826v-4.83zm14.996 0v4.83h13.826v-4.83h-13.826zm-14.996 5.959h13.826v4.831h-13.826v-4.831zm14.996 0v4.831h13.826v-4.831h-13.826zm-14.996 5.959h13.826v4.831h-13.826v-4.831zm14.996 0v4.831h13.826v-4.831h-13.826zm-14.996 5.96h13.826v4.83h-13.826v-4.83zm14.996 0v4.83h13.826v-4.83h-13.826zm-14.996 5.959h13.826v4.83h-13.826v-4.83zm14.996 0v4.83h13.826v-4.83h-13.826zm-14.996 5.959h13.826v4.831h-13.826v-4.831zm14.996 0v4.831h13.826v-4.831h-13.826zm-14.996 5.96h13.826v4.83h-13.826v-4.83zm14.996 0v4.83h13.826v-4.83h-13.826zm-14.996 5.959h13.826v4.83h-13.826v-4.83zm14.996 0v4.83h13.826v-4.83h-13.826zm-14.996 5.959h13.826v4.83h-13.826v-4.83zm14.996 0v4.83h13.826v-4.83h-13.826zm-14.996 5.959h13.826v4.831h-13.826v-4.831zm14.996 0v4.831h13.826v-4.831h-13.826zm13.826 5.96h-13.826v5.395h-1.17v-5.395h-13.826v5.395h-1.17v-5.395h-13.826v5.395h-1.17v-5.395h-13.827v5.395h-1.169v-5.395H315.1v5.395h-1.169v-5.395h-13.827v5.395h-1.169v-5.395H287.17v-1.129h11.765v-4.831H287.17v-1.129h11.765v-4.83H287.17v-1.129h11.765v-4.83H287.17v-1.129h11.765v-4.83H287.17v-1.129h11.765v-4.831H287.17v-1.129h11.765v-4.83H287.17v-1.129h11.765v-4.83H287.17v-1.129h11.765v-4.831H287.17v-1.128h11.765v-4.831H287.17v-1.129h11.765v-4.83H287.17v-1.129h11.765v-4.83H287.17v-1.129h11.765v-4.831H287.17v-1.129h11.765v-4.83H287.17v-1.129h174.66v1.129h-11.765v4.83h11.765v1.129h-11.765v4.831h11.765v1.129h-11.765v4.83h11.765v1.129h-11.765v4.83h11.765v1.129h-11.765v4.831h11.765v1.128h-11.765v4.831h11.765v1.129h-11.765v4.83h11.765v1.129h-11.765v4.83h11.765v1.129h-11.765v4.831h11.765v1.129h-11.765v4.83h11.765v1.129h-11.765v4.83h11.765v1.129h-11.765v4.83h11.765v1.129h-11.765v4.831h11.765v1.129h-11.765v5.395h-1.17v-5.395h-13.826v5.395h-1.17v-5.395h-13.826v5.395h-1.17v-5.395h-13.826v5.395h-1.17v-5.395h-13.826v5.395h-1.17v-5.395zm-74.98-1.129h-13.827v-4.831h13.827v4.831zm1.169 0v-4.831h13.827v4.831H315.1zm0-5.96h13.827v-4.83H315.1v4.83zm-1.169 0v-4.83h-13.827v4.83h13.827zm0-5.959h-13.827v-4.83h13.827v4.83zm1.169 0v-4.83h13.827v4.83H315.1zm0-5.959h13.827v-4.83H315.1v4.83zm-1.169 0v-4.83h-13.827v4.83h13.827zm0-5.959h-13.827v-4.831h13.827v4.831zm1.169 0v-4.831h13.827v4.831H315.1zm0-5.96h13.827v-4.83H315.1v4.83zm-1.169 0v-4.83h-13.827v4.83h13.827zm0-5.959h-13.827v-4.83h13.827v4.83zm1.169 0v-4.83h13.827v4.83H315.1zm0-5.959h13.827v-4.831H315.1v4.831zm-1.169 0v-4.831h-13.827v4.831h13.827zm0-5.959h-13.827v-4.831h13.827v4.831zm1.169 0v-4.831h13.827v4.831H315.1zm0-5.96h13.827v-4.83H315.1v4.83zm-1.169 0v-4.83h-13.827v4.83h13.827zm0-5.959h-13.827v-4.83h13.827v4.83zm1.169 0v-4.83h13.827v4.83H315.1zm0-5.959h13.827v-4.831H315.1v4.831zm0-5.96h13.827v-4.83H315.1v4.83zm-1.169-4.83v4.83h-13.827v-4.83h13.827zm0 5.959v4.831h-13.827v-4.831h13.827zm61.154 0v4.831h13.826v-4.831h-13.826zm14.996-5.959v4.83h13.826v-4.83h-13.826zm0 5.959h13.826v4.831h-13.826v-4.831zm14.996 0v4.831h13.826v-4.831h-13.826zm-14.996 5.96h13.826v4.83h-13.826v-4.83zm14.996 0v4.83h13.826v-4.83h-13.826zm-14.996 5.959h13.826v4.83h-13.826v-4.83zm14.996 0v4.83h13.826v-4.83h-13.826zm-14.996 5.959h13.826v4.831h-13.826v-4.831zm14.996 0v4.831h13.826v-4.831h-13.826zm-14.996 5.959h13.826v4.831h-13.826v-4.831zm14.996 0v4.831h13.826v-4.831h-13.826zm-14.996 5.96h13.826v4.83h-13.826v-4.83zm14.996 0v4.83h13.826v-4.83h-13.826zm-14.996 5.959h13.826v4.83h-13.826v-4.83zm14.996 0v4.83h13.826v-4.83h-13.826zm-14.996 5.959h13.826v4.831h-13.826v-4.831zm14.996 0v4.831h13.826v-4.831h-13.826zm-14.996 5.96h13.826v4.83h-13.826v-4.83zm14.996 0v4.83h13.826v-4.83h-13.826zm-14.996 5.959h13.826v4.83h-13.826v-4.83zm14.996 0v4.83h13.826v-4.83h-13.826zm-14.996 5.959h13.826v4.83h-13.826v-4.83zm14.996 0v4.83h13.826v-4.83h-13.826zm-14.996 5.959h13.826v4.831h-13.826v-4.831zm14.996 0v4.831h13.826v-4.831h-13.826zm29.992 4.831h13.826v-4.831h-13.826v4.831zm-1.17-4.831v4.831h-13.826v-4.831h13.826zm1.17-1.129h13.826v-4.83h-13.826v4.83zm-1.17-4.83v4.83h-13.826v-4.83h13.826zm1.17-1.129h13.826v-4.83h-13.826v4.83zm-1.17-4.83v4.83h-13.826v-4.83h13.826zm1.17-1.129h13.826v-4.83h-13.826v4.83zm-1.17-4.83v4.83h-13.826v-4.83h13.826zm1.17-1.129h13.826v-4.831h-13.826v4.831zm-1.17-4.831v4.831h-13.826v-4.831h13.826zm1.17-1.129h13.826v-4.83h-13.826v4.83zm-1.17-4.83v4.83h-13.826v-4.83h13.826zm1.17-1.129h13.826v-4.83h-13.826v4.83zm-1.17-4.83v4.83h-13.826v-4.83h13.826zm1.17-1.129h13.826v-4.831h-13.826v4.831zm-1.17-4.831v4.831h-13.826v-4.831h13.826zm1.17-1.128h13.826v-4.831h-13.826v4.831zm-1.17-4.831v4.831h-13.826v-4.831h13.826zm1.17-1.129h13.826v-4.83h-13.826v4.83zm-1.17-4.83v4.83h-13.826v-4.83h13.826zm1.17-1.129h13.826v-4.83h-13.826v4.83zm-1.17-4.83v4.83h-13.826v-4.83h13.826zm1.17-1.129h13.826v-4.831h-13.826v4.831zm-1.17-4.831v4.831h-13.826v-4.831h13.826zm1.17-1.129h13.826v-4.83h-13.826v4.83zm-1.17-4.83v4.83h-13.826v-4.83h13.826zm-89.976 76.342h-13.827v-4.831h13.827v4.831zm1.17 0v-4.831h13.826v4.831h-13.826zm0-5.96h13.826v-4.83h-13.826v4.83zm-1.17 0v-4.83h-13.827v4.83h13.827zm0-5.959h-13.827v-4.83h13.827v4.83zm1.17 0v-4.83h13.826v4.83h-13.826zm0-5.959h13.826v-4.83h-13.826v4.83zm-1.17 0v-4.83h-13.827v4.83h13.827zm0-5.959h-13.827v-4.831h13.827v4.831zm1.17 0v-4.831h13.826v4.831h-13.826zm0-5.96h13.826v-4.83h-13.826v4.83zm-1.17 0v-4.83h-13.827v4.83h13.827zm0-5.959h-13.827v-4.83h13.827v4.83zm1.17 0v-4.83h13.826v4.83h-13.826zm0-5.959h13.826v-4.831h-13.826v4.831zm-1.17 0v-4.831h-13.827v4.831h13.827zm0-5.959h-13.827v-4.831h13.827v4.831zm1.17 0v-4.831h13.826v4.831h-13.826zm0-5.96h13.826v-4.83h-13.826v4.83zm-1.17 0v-4.83h-13.827v4.83h13.827zm0-5.959h-13.827v-4.83h13.827v4.83zm1.17 0v-4.83h13.826v4.83h-13.826zm0-5.959h13.826v-4.831h-13.826v4.831zm-1.17 0v-4.831h-13.827v4.831h13.827zm0-5.96h-13.827v-4.83h13.827v4.83zm1.17 0v-4.83h13.826v4.83h-13.826zm59.984-4.83v4.83h13.826v-4.83h-13.826z" fill="#EFEFEF"/><path d="M299.399 268.124H374.5v6.811h-75.101v-6.811z" fill="#F9FEEF"/><path fill-rule="evenodd" clip-rule="evenodd" d="M373.33 269.253h-72.761v4.553h72.761v-4.553zm-73.931-1.129v6.811H374.5v-6.811h-75.101z" fill="#8BB825"/><path d="M299.399 279.846H374.5v6.811h-75.101v-6.811zM299.399 291.568H374.5v6.811h-75.101v-6.811z" fill="#EFEFEF"/><path fill-rule="evenodd" clip-rule="evenodd" d="M301.284 283.28c0-.312.262-.565.585-.565h7.651c.323 0 .585.253.585.565 0 .311-.262.564-.585.564h-7.651c-.323 0-.585-.253-.585-.564z" fill="#AAA"/><path fill-rule="evenodd" clip-rule="evenodd" d="M301.992 271.433c0-.311.262-.564.585-.564h7.651c.323 0 .585.253.585.564 0 .312-.262.565-.585.565h-7.651c-.323 0-.585-.253-.585-.565zM347.377 271.433c0-.311.261-.564.584-.564h7.652c.323 0 .585.253.585.564 0 .312-.262.565-.585.565h-7.652c-.323 0-.584-.253-.584-.565zM317.12 271.433c0-.311.262-.564.585-.564h7.651c.323 0 .585.253.585.564 0 .312-.262.565-.585.565h-7.651c-.323 0-.585-.253-.585-.565zM362.505 271.433c0-.311.262-.564.585-.564h7.651c.323 0 .585.253.585.564 0 .312-.262.565-.585.565h-7.651c-.323 0-.585-.253-.585-.565zM332.248 271.433c0-.311.262-.564.585-.564h7.652c.323 0 .585.253.585.564 0 .312-.262.565-.585.565h-7.652c-.323 0-.585-.253-.585-.565z" fill="#8BB825"/><path fill-rule="evenodd" clip-rule="evenodd" d="M301.284 277.32c0-.312.262-.564.585-.564h10.297c.323 0 .585.252.585.564 0 .312-.262.565-.585.565h-10.297c-.323 0-.585-.253-.585-.565zM302.166 289.239c0-.312.262-.565.585-.565h9.415c.323 0 .585.253.585.565 0 .311-.262.564-.585.564h-9.415c-.323 0-.585-.253-.585-.564zM301.992 295.147c0-.311.262-.564.585-.564h7.651c.323 0 .585.253.585.564 0 .312-.262.565-.585.565h-7.651c-.323 0-.585-.253-.585-.565z" fill="#AAA"/><path d="M299.399 303.942H374.5v6.811h-75.101v-6.811z" fill="#F2F2F2"/><path fill-rule="evenodd" clip-rule="evenodd" d="M373.33 305.071h-72.761v4.553h72.761v-4.553zm-73.931-1.129v6.811H374.5v-6.811h-75.101z" fill="#444"/><path d="M299.399 315.664H374.5v6.811h-75.101v-6.811zM299.399 327.386H374.5v6.811h-75.101v-6.811z" fill="#EFEFEF"/><path fill-rule="evenodd" clip-rule="evenodd" d="M301.284 319.097c0-.311.262-.564.585-.564h7.651c.323 0 .585.253.585.564 0 .312-.262.565-.585.565h-7.651c-.323 0-.585-.253-.585-.565z" fill="#AAA"/><path fill-rule="evenodd" clip-rule="evenodd" d="M301.992 307.251c0-.312.262-.564.585-.564h7.651c.323 0 .585.252.585.564 0 .312-.262.565-.585.565h-7.651c-.323 0-.585-.253-.585-.565zM347.377 307.251c0-.312.261-.564.584-.564h7.652c.323 0 .585.252.585.564 0 .312-.262.565-.585.565h-7.652c-.323 0-.584-.253-.584-.565zM317.12 307.251c0-.312.262-.564.585-.564h7.651c.323 0 .585.252.585.564 0 .312-.262.565-.585.565h-7.651c-.323 0-.585-.253-.585-.565zM362.505 307.251c0-.312.262-.564.585-.564h7.651c.323 0 .585.252.585.564 0 .312-.262.565-.585.565h-7.651c-.323 0-.585-.253-.585-.565zM332.248 307.251c0-.312.262-.564.585-.564h7.652c.323 0 .585.252.585.564 0 .312-.262.565-.585.565h-7.652c-.323 0-.585-.253-.585-.565z" fill="gray"/><path fill-rule="evenodd" clip-rule="evenodd" d="M301.284 313.138c0-.312.262-.565.585-.565h10.297c.323 0 .585.253.585.565 0 .312-.262.564-.585.564h-10.297c-.323 0-.585-.252-.585-.564zM302.166 325.057c0-.312.262-.565.585-.565h9.415c.323 0 .585.253.585.565 0 .311-.262.564-.585.564h-9.415c-.323 0-.585-.253-.585-.564zM301.992 330.965c0-.311.262-.564.585-.564h7.651c.323 0 .585.253.585.564 0 .312-.262.565-.585.565h-7.651c-.323 0-.585-.253-.585-.565z" fill="#AAA"/><path fill="#fff" stroke="#444" d="M389.272 276.069h58.7946v28.8973H389.272z"/><path d="M410.215 289.915c0 1.763-.503 3.113-1.508 4.05-1.001.938-2.449 1.407-4.344 1.407h-3.032v-10.708h3.362c1.748 0 3.105.461 4.072 1.384.967.923 1.45 2.212 1.45 3.867zm-2.358.059c0-2.3-1.016-3.45-3.047-3.45h-1.208v6.973h.974c2.187 0 3.281-1.175 3.281-3.523zm9.602 5.398l-.432-1.114h-.059c-.376.474-.764.804-1.164.989-.396.181-.913.271-1.553.271-.786 0-1.406-.225-1.86-.674-.45-.449-.674-1.089-.674-1.919 0-.869.303-1.508.908-1.919.61-.415 1.528-.644 2.754-.688l1.421-.044v-.359c0-.83-.425-1.245-1.275-1.245-.654 0-1.423.198-2.307.593l-.739-1.509c.942-.493 1.987-.739 3.134-.739 1.099 0 1.941.239 2.527.717.586.479.879 1.206.879 2.183v5.457h-1.56zm-.659-3.794l-.864.029c-.65.019-1.133.137-1.451.351-.317.215-.476.542-.476.982 0 .63.362.945 1.084.945.518 0 .93-.149 1.238-.447.313-.298.469-.693.469-1.187v-.673zm7.976 2.16c.391 0 .859-.085 1.406-.256v1.663c-.557.249-1.24.373-2.051.373-.893 0-1.545-.225-1.955-.674-.405-.454-.608-1.133-.608-2.036v-3.948h-1.069v-.944l1.23-.748.645-1.728h1.428v1.743h2.292v1.677h-2.292v3.948c0 .317.088.552.263.703.181.152.418.227.711.227zm8.269 1.634l-.432-1.114h-.059c-.376.474-.764.804-1.164.989-.396.181-.913.271-1.553.271-.786 0-1.406-.225-1.86-.674-.45-.449-.674-1.089-.674-1.919 0-.869.302-1.508.908-1.919.61-.415 1.528-.644 2.754-.688l1.421-.044v-.359c0-.83-.425-1.245-1.275-1.245-.654 0-1.423.198-2.307.593l-.74-1.509c.943-.493 1.988-.739 3.135-.739 1.099 0 1.941.239 2.527.717.586.479.879 1.206.879 2.183v5.457h-1.56zm-.659-3.794l-.865.029c-.649.019-1.132.137-1.45.351-.317.215-.476.542-.476.982 0 .63.362.945 1.084.945.518 0 .93-.149 1.238-.447.312-.298.469-.693.469-1.187v-.673z" fill="url(#paint7_linear_2760_7177)"/><circle cx="389.239" cy="276.036" r="1.40144" fill="#444"/><circle cx="389.239" cy="304.999" r="1.40144" fill="#444"/><circle cx="448.099" cy="276.036" r="1.40144" fill="#444"/><circle cx="448.099" cy="304.999" r="1.40144" fill="#444"/><path fill="#fff" stroke="#444" d="M362.178 298.492h58.7946v28.8973H362.178z"/><path d="M383.121 312.338c0 1.763-.503 3.113-1.509 4.05-1.001.938-2.449 1.407-4.343 1.407h-3.032v-10.708h3.361c1.748 0 3.106.461 4.073 1.384.967.923 1.45 2.212 1.45 3.867zm-2.358.059c0-2.3-1.016-3.45-3.047-3.45h-1.209v6.973h.974c2.188 0 3.282-1.175 3.282-3.523zm9.602 5.398l-.433-1.114h-.058c-.376.474-.764.803-1.165.989-.395.181-.913.271-1.552.271-.787 0-1.407-.225-1.861-.674-.449-.449-.674-1.089-.674-1.919 0-.869.303-1.509.909-1.919.61-.415 1.528-.644 2.753-.688l1.421-.044v-.359c0-.83-.424-1.245-1.274-1.245-.654 0-1.423.198-2.307.593l-.74-1.509c.942-.493 1.987-.739 3.135-.739 1.098 0 1.941.239 2.527.717.586.479.879 1.206.879 2.183v5.457h-1.56zm-.66-3.794l-.864.029c-.649.019-1.133.137-1.45.351-.317.215-.476.542-.476.982 0 .63.361.945 1.084.945.517 0 .93-.149 1.238-.447.312-.298.468-.693.468-1.187v-.673zm7.976 2.16c.391 0 .86-.085 1.407-.256v1.663c-.557.249-1.241.373-2.051.373-.894 0-1.545-.225-1.956-.674-.405-.454-.608-1.133-.608-2.036v-3.948h-1.069v-.944l1.231-.748.644-1.728h1.428v1.743H399v1.677h-2.293v3.948c0 .317.088.552.264.703.181.152.417.227.71.227zm8.27 1.634l-.433-1.114h-.058c-.376.474-.764.803-1.165.989-.395.181-.913.271-1.553.271-.786 0-1.406-.225-1.86-.674-.449-.449-.674-1.089-.674-1.919 0-.869.303-1.509.909-1.919.61-.415 1.528-.644 2.753-.688l1.421-.044v-.359c0-.83-.424-1.245-1.274-1.245-.654 0-1.423.198-2.307.593l-.74-1.509c.942-.493 1.987-.739 3.135-.739 1.098 0 1.941.239 2.527.717.586.479.879 1.206.879 2.183v5.457h-1.56zm-.66-3.794l-.864.029c-.649.019-1.133.137-1.45.351-.318.215-.476.542-.476.982 0 .63.361.945 1.084.945.517 0 .93-.149 1.238-.447.312-.298.468-.693.468-1.187v-.673z" fill="url(#paint8_linear_2760_7177)"/><circle cx="362.145" cy="298.459" r="1.40144" fill="#444"/><circle cx="362.145" cy="327.422" r="1.40144" fill="#444"/><circle cx="421.005" cy="298.459" r="1.40144" fill="#444"/><circle cx="421.005" cy="327.422" r="1.40144" fill="#444"/><path d="M284 355.5c-8.008 0-14.5-6.492-14.5-14.5s6.492-14.5 14.5-14.5 14.5 6.492 14.5 14.5-6.492 14.5-14.5 14.5z" fill="#F9F9F9" stroke="#D0D5DA"/><path d="M288.852 345.337h-1.547V348h-2.655v-2.663h-5.484v-1.89l5.634-8.297h2.505v8.078h1.547v2.109zm-4.202-2.109v-2.18c0-.363.015-.891.044-1.582.03-.692.053-1.093.071-1.204h-.071c-.216.48-.477.949-.782 1.406l-2.355 3.56h3.093z" fill="#666"/><rect x=".5" y=".5" width="831" height="401" rx="2.5" stroke="#D0D5DA"/><defs><linearGradient id="paint0_linear_2760_7177" x1="632.727" y1="251.822" x2="626.629" y2="261.683" gradientUnits="userSpaceOnUse"><stop stop-color="#FFC671"/><stop offset="1" stop-color="#FF6F3D"/></linearGradient><linearGradient id="paint1_linear_2760_7177" x1="671.8" y1="271.553" x2="671.668" y2="273.948" gradientUnits="userSpaceOnUse"><stop stop-color="#FF8E3D"/><stop offset="1" stop-color="#FF6F3D"/></linearGradient><linearGradient id="paint2_linear_2760_7177" x1="632.88" y1="275.945" x2="665.221" y2="325.507" gradientUnits="userSpaceOnUse"><stop stop-color="#FFC671"/><stop offset="1" stop-color="#FF6F3D"/></linearGradient><linearGradient id="paint3_linear_2760_7177" x1="335.345" y1="87.5169" x2="340.624" y2="93.002" gradientUnits="userSpaceOnUse"><stop stop-color="#FF8E3D"/><stop offset="1" stop-color="#FF6F3D"/></linearGradient><linearGradient id="paint4_linear_2760_7177" x1="371.914" y1="85.0836" x2="396.047" y2="85.0836" gradientUnits="userSpaceOnUse"><stop stop-color="#FF8E3D"/><stop offset="1" stop-color="#FF6F3D"/></linearGradient><linearGradient id="paint5_linear_2760_7177" x1="324.667" y1="58.9483" x2="325.902" y2="64.7216" gradientUnits="userSpaceOnUse"><stop stop-color="#FF8E3D"/><stop offset="1" stop-color="#FF6F3D"/></linearGradient><linearGradient id="paint6_linear_2760_7177" x1="94.5255" y1="304.578" x2="109.91" y2="328.405" gradientUnits="userSpaceOnUse"><stop stop-color="#FFC671"/><stop offset="1" stop-color="#FF6F3D"/></linearGradient><linearGradient id="paint7_linear_2760_7177" x1="420.071" y1="278.372" x2="420.071" y2="301.729" gradientUnits="userSpaceOnUse"><stop stop-color="#FF8E3D"/><stop offset="1" stop-color="#FF6F3D"/></linearGradient><linearGradient id="paint8_linear_2760_7177" x1="392.976" y1="300.795" x2="392.976" y2="324.152" gradientUnits="userSpaceOnUse"><stop stop-color="#FF8E3D"/><stop offset="1" stop-color="#FF6F3D"/></linearGradient></defs></svg>