<svg width="14" height="14" viewBox="0 0 14 14" fill="none" xmlns="http://www.w3.org/2000/svg">
<path fill-rule="evenodd" clip-rule="evenodd" d="M12 9.5C12 9.77614 12.2239 10 12.5 10C12.7761 10 13 9.77614 13 9.5V3.5C13 2.11929 11.8807 1 10.5 1H4.5C4.22386 1 4 1.22386 4 1.5C4 1.77614 4.22386 2 4.5 2H10.5C11.3284 2 12 2.67157 12 3.5V9.5ZM9 4H3C2.44772 4 2 4.44772 2 5V11C2 11.5523 2.44772 12 3 12H9C9.55228 12 10 11.5523 10 11V5C10 4.44772 9.55228 4 9 4ZM3 3C1.89543 3 1 3.89543 1 5V11C1 12.1046 1.89543 13 3 13H9C10.1046 13 11 12.1046 11 11V5C11 3.89543 10.1046 3 9 3H3Z" fill="#333333"/>
</svg>
