<svg width="30" height="30" viewBox="0 0 30 30" fill="none" xmlns="http://www.w3.org/2000/svg">
<path fill-rule="evenodd" clip-rule="evenodd" d="M10.3545 19.1944L13.8675 15.7561H8.5875H8.574C5.64901 15.7561 3.28052 18.0745 3.28052 20.9366C3.28052 23.7984 5.64901 26.1168 8.574 26.1168C8.7945 26.1168 9.015 26.1039 9.2295 26.0775C8.0715 23.8509 8.4465 21.0544 10.347 19.1944H10.3545Z" fill="#8BDC01"/>
<path fill-rule="evenodd" clip-rule="evenodd" d="M14.643 20.9305V16.0645L10.9095 19.7189L10.9035 19.7255C8.83505 21.7492 8.83505 25.0303 10.9035 27.054C12.9705 29.0778 16.323 29.0778 18.3915 27.054C18.5445 26.9033 18.693 26.7396 18.8265 26.5693C16.3965 25.7966 14.643 23.5633 14.643 20.924V20.9305Z" fill="#8BDC01"/>
<path fill-rule="evenodd" clip-rule="evenodd" d="M18.927 19.1946L15.4125 15.7561V20.9301C15.4125 23.7923 17.7825 26.1107 20.706 26.1107C23.631 26.1107 25.9995 23.7923 25.9995 20.9301C25.9995 20.714 25.986 20.4978 25.9605 20.2883C23.685 21.4213 20.8275 21.0546 18.927 19.1946Z" fill="#8BDC01"/>
<path fill-rule="evenodd" clip-rule="evenodd" d="M26.958 11.3292C26.8035 11.1786 26.6371 11.0346 26.4631 10.9037C25.6726 13.281 23.3911 14.9968 20.6941 14.9968H15.7215L19.4565 18.6511L19.4625 18.6576C21.531 20.6814 24.8834 20.6814 26.9504 18.6576C29.0189 16.6341 29.0189 13.353 26.9504 11.3292H26.958Z" fill="#8BDC01"/>
<path fill-rule="evenodd" clip-rule="evenodd" d="M20.7 3.8822C20.4795 3.8822 20.2589 3.89534 20.0444 3.92149C21.2024 6.14833 20.8275 8.9449 18.927 10.8049L15.4125 14.2435H20.7C23.625 14.2435 25.9934 11.9249 25.9934 9.06277C25.9934 6.20077 23.625 3.8822 20.7 3.8822Z" fill="#FBA100"/>
<path fill-rule="evenodd" clip-rule="evenodd" d="M18.378 2.94627C16.3095 0.922695 12.957 0.922695 10.8885 2.94627C10.7355 3.09698 10.5885 3.26069 10.4535 3.43098C12.8835 4.20384 14.637 6.4371 14.637 9.07641V13.9424L18.3705 10.288L18.378 10.2814C20.445 8.2577 20.445 4.97655 18.378 2.95284V2.94627Z" fill="#33AAFF"/>
<path fill-rule="evenodd" clip-rule="evenodd" d="M10.3605 10.8115L10.515 10.9622L13.8675 14.2435H13.875V9.07592V9.06277C13.875 6.20077 11.505 3.8822 8.58148 3.8822C5.65649 3.8822 3.28796 6.20077 3.28796 9.06277C3.28796 9.27894 3.29996 9.49506 3.32696 9.70465C5.60246 8.57164 8.45998 8.9449 10.368 10.8049L10.3605 10.8115Z" fill="#33AAFF"/>
<path fill-rule="evenodd" clip-rule="evenodd" d="M2.832 19.044C2.8725 18.9261 2.919 18.8017 2.967 18.6905C2.973 18.6773 2.979 18.6576 2.9865 18.6446C3.0405 18.5202 3.10049 18.3957 3.16049 18.2777C3.17399 18.2516 3.1875 18.2254 3.201 18.1992C3.267 18.0813 3.33451 17.9634 3.40201 17.8456C3.40801 17.8325 3.414 17.8193 3.4275 17.8127C3.495 17.708 3.56851 17.6031 3.64201 17.4984C3.65551 17.4787 3.67502 17.4591 3.68852 17.4329C3.76952 17.3281 3.8565 17.2233 3.9435 17.1186C3.963 17.0988 3.97651 17.0793 3.99751 17.0596C4.08451 16.9613 4.17148 16.8697 4.26448 16.778C4.27198 16.7714 4.27798 16.7583 4.29148 16.7517C4.39198 16.6536 4.49251 16.5618 4.59301 16.4767C4.61251 16.457 4.63948 16.4374 4.65898 16.4177C4.76698 16.3326 4.86751 16.2474 4.98001 16.1688C4.99351 16.1559 5.00698 16.1493 5.02798 16.1361C5.12848 16.0641 5.235 15.992 5.3415 15.9266C5.3625 15.9134 5.38198 15.9004 5.40898 15.8873C5.52298 15.8153 5.64301 15.7497 5.76301 15.6907C5.79001 15.6777 5.81698 15.6646 5.83648 15.6514C5.95798 15.5926 6.07798 15.5336 6.20548 15.4812C6.21148 15.4812 6.21898 15.4747 6.22498 15.4747C6.35248 15.4223 6.48598 15.3764 6.61948 15.3306C6.64648 15.324 6.68098 15.3108 6.70648 15.3044C6.84148 15.2652 6.97504 15.2257 7.10854 15.1864C7.12954 15.18 7.14899 15.18 7.16849 15.1734C7.29599 15.1406 7.42348 15.121 7.55098 15.0948C7.57648 15.0883 7.59749 15.0883 7.62449 15.0817C7.76399 15.062 7.90504 15.0424 8.04604 15.0293C8.07904 15.0293 8.10598 15.0227 8.13898 15.0227C8.28598 15.0097 8.43449 15.0032 8.58749 15.0032H13.56L9.81898 11.342C7.75048 9.31829 4.39798 9.31829 2.33098 11.342C0.262477 13.3657 0.262477 16.647 2.33098 18.6707C2.48398 18.8214 2.652 18.9654 2.8185 19.0964C2.826 19.0833 2.83201 19.0637 2.83951 19.0506L2.832 19.044Z" fill="#33AAFF"/>
<path fill-rule="evenodd" clip-rule="evenodd" d="M9.82497 11.3421L12.7905 14.2436H8.80797L8.58147 14.25C6.15897 14.25 4.10995 12.6585 3.48895 10.4777C5.50195 9.37082 8.10597 9.65899 9.81897 11.3355L9.82497 11.3421Z" fill="#017DFF"/>
<path fill-rule="evenodd" clip-rule="evenodd" d="M13.8675 9.06963V13.1694L11.0505 10.4122L10.89 10.2615C9.17701 8.5849 8.88151 6.0439 10.0125 4.07263C12.2415 4.68835 13.8675 6.68579 13.8675 9.06306V9.07621V9.06963Z" fill="#017DFF"/>
<path fill-rule="evenodd" clip-rule="evenodd" d="M18.399 10.2681L15.4335 13.1693V9.27263L15.4275 9.04988C15.4275 6.67919 17.0535 4.67504 19.2825 4.06604C20.4135 6.03731 20.118 8.58488 18.405 10.2615L18.399 10.2681Z" fill="#017DFF"/>
<path fill-rule="evenodd" clip-rule="evenodd" d="M20.6941 14.2365H16.5045L19.3215 11.479L19.476 11.3219C21.189 9.64499 23.7855 9.35687 25.8 10.4639C25.17 12.6449 23.13 14.2365 20.7 14.2365H20.6865H20.6941Z" fill="#FFE912"/>
<path fill-rule="evenodd" clip-rule="evenodd" d="M19.4625 18.6384L16.497 15.7368H20.4795L20.7075 15.7302C23.13 15.7302 25.1775 17.322 25.8 19.503C23.7855 20.61 21.1815 20.3217 19.4685 18.645L19.4625 18.6384Z" fill="#47B41B"/>
<path fill-rule="evenodd" clip-rule="evenodd" d="M15.42 20.9037V16.8038L18.2385 19.5611L18.399 19.7117C20.112 21.3884 20.406 23.9295 19.275 25.9008C17.046 25.2852 15.42 23.2877 15.42 20.9103V20.8971V20.9037Z" fill="#47B41B"/>
<path fill-rule="evenodd" clip-rule="evenodd" d="M10.9231 19.7319L13.887 16.8307V20.7273L13.8945 20.9499C13.8945 23.3206 12.2685 25.3246 10.0395 25.9336C8.90852 23.9624 9.20252 21.4149 10.9155 19.7384L10.9231 19.7319Z" fill="#47B41B"/>
<path fill-rule="evenodd" clip-rule="evenodd" d="M8.60101 15.7625H12.7905L9.97201 18.5199L9.81901 18.6772C8.10601 20.3539 5.508 20.642 3.495 19.5352C4.1235 17.354 6.16501 15.7625 8.59351 15.7625H8.60701H8.60101Z" fill="#47B41B"/>
</svg>
