<svg width="50" height="52" viewBox="0 0 50 52" fill="none" xmlns="http://www.w3.org/2000/svg">
<path fill-rule="evenodd" clip-rule="evenodd" d="M17.2575 33.2703L23.1125 27.3106H14.3125H14.29C9.41501 27.3106 5.46753 31.3292 5.46753 36.2901C5.46753 41.2506 9.41501 45.2692 14.29 45.2692C14.6575 45.2692 15.025 45.2467 15.3825 45.2011C13.4525 41.3415 14.0775 36.4943 17.245 33.2703H17.2575Z" fill="#8BDC01"/>
<path fill-rule="evenodd" clip-rule="evenodd" d="M24.405 36.2794V27.845L18.1825 34.1794L18.1726 34.1908C14.7251 37.6985 14.7251 43.3858 18.1726 46.8936C21.6176 50.4014 27.205 50.4014 30.6525 46.8936C30.9075 46.6324 31.155 46.3486 31.3775 46.0534C27.3275 44.7141 24.405 40.843 24.405 36.2683V36.2794Z" fill="#8BDC01"/>
<path fill-rule="evenodd" clip-rule="evenodd" d="M31.545 33.2706L25.6875 27.3106V36.2789C25.6875 41.24 29.6375 45.2586 34.51 45.2586C39.385 45.2586 43.3325 41.24 43.3325 36.2789C43.3325 35.9043 43.31 35.5296 43.2675 35.1664C39.475 37.1302 34.7125 36.4946 31.545 33.2706Z" fill="#8BDC01"/>
<path fill-rule="evenodd" clip-rule="evenodd" d="M44.93 19.6374C44.6725 19.3764 44.3951 19.1268 44.1051 18.8998C42.7876 23.0204 38.9851 25.9945 34.4901 25.9945H26.2025L32.4275 32.3286L32.4375 32.34C35.885 35.8478 41.4724 35.8478 44.9174 32.34C48.3649 28.8325 48.3649 23.1452 44.9174 19.6374H44.93Z" fill="#8BDC01"/>
<path fill-rule="evenodd" clip-rule="evenodd" d="M34.5 6.72905C34.1325 6.72905 33.7649 6.75183 33.4074 6.79715C35.3374 10.657 34.7125 15.5044 31.545 18.7284L25.6875 24.6886H34.5C39.375 24.6886 43.3224 20.6698 43.3224 15.7087C43.3224 10.7479 39.375 6.72905 34.5 6.72905Z" fill="#FBA100"/>
<path fill-rule="evenodd" clip-rule="evenodd" d="M30.63 5.10692C27.1825 1.59939 21.595 1.59939 18.1475 5.10692C17.8925 5.36815 17.6475 5.65192 17.4225 5.94708C21.4725 7.2867 24.395 11.1577 24.395 15.7325V24.1669L30.6175 17.8326L30.63 17.8212C34.075 14.3134 34.075 8.62607 30.63 5.1183V5.10692Z" fill="#33AAFF"/>
<path fill-rule="evenodd" clip-rule="evenodd" d="M17.2675 18.7398L17.525 19.001L23.1125 24.6886H23.125V15.7315V15.7087C23.125 10.7479 19.175 6.72905 14.3025 6.72905C9.42752 6.72905 5.47997 10.7479 5.47997 15.7087C5.47997 16.0834 5.49997 16.458 5.54497 16.8213C9.33747 14.8574 14.1 15.5044 17.28 18.7284L17.2675 18.7398Z" fill="#33AAFF"/>
<path fill-rule="evenodd" clip-rule="evenodd" d="M4.72002 33.0096C4.78752 32.8053 4.86502 32.5896 4.94502 32.3968C4.95502 32.374 4.96502 32.3398 4.97752 32.3173C5.06752 32.1016 5.16751 31.8859 5.26751 31.6814C5.29001 31.6361 5.31253 31.5907 5.33503 31.5452C5.44503 31.3409 5.55754 31.1366 5.67004 30.9323C5.68004 30.9096 5.69003 30.8868 5.71253 30.8754C5.82503 30.6939 5.94755 30.5121 6.07005 30.3306C6.09255 30.2964 6.12506 30.2625 6.14756 30.217C6.28256 30.0354 6.42752 29.8537 6.57252 29.6722C6.60502 29.638 6.62754 29.6041 6.66254 29.5699C6.80754 29.3996 6.95249 29.2408 7.10749 29.0819C7.11999 29.0705 7.13 29.0477 7.1525 29.0363C7.32 28.8662 7.48755 28.7072 7.65505 28.5596C7.68755 28.5255 7.73249 28.4915 7.76499 28.4574C7.94499 28.3098 8.11254 28.1622 8.30004 28.026C8.32254 28.0035 8.345 27.9921 8.38 27.9693C8.5475 27.8445 8.72503 27.7195 8.90253 27.6061C8.93753 27.5833 8.96999 27.5607 9.01499 27.538C9.20499 27.4132 9.40505 27.2995 9.60505 27.1972C9.65005 27.1747 9.695 27.1519 9.7275 27.1291C9.93 27.0271 10.13 26.9249 10.3425 26.834C10.3525 26.834 10.365 26.8228 10.375 26.8228C10.5875 26.732 10.81 26.6525 11.0325 26.573C11.0775 26.5616 11.135 26.5388 11.1775 26.5277C11.4025 26.4596 11.6251 26.3912 11.8476 26.3231C11.8826 26.312 11.915 26.312 11.9475 26.3006C12.16 26.2437 12.3725 26.2097 12.585 26.1644C12.6275 26.153 12.6625 26.153 12.7075 26.1416C12.94 26.1075 13.1751 26.0735 13.4101 26.0508C13.4651 26.0508 13.51 26.0394 13.565 26.0394C13.81 26.0168 14.0575 26.0055 14.3125 26.0055H22.6L16.365 19.6595C12.9175 16.1517 7.32999 16.1517 3.88499 19.6595C0.437487 23.1672 0.437487 28.8548 3.88499 32.3626C4.13999 32.6238 4.42002 32.8734 4.69752 33.1005C4.71002 33.0777 4.72004 33.0438 4.73254 33.021L4.72002 33.0096Z" fill="#33AAFF"/>
<path fill-rule="evenodd" clip-rule="evenodd" d="M16.375 19.6597L21.3175 24.6889H14.68L14.3025 24.7C10.265 24.7 6.84997 21.9415 5.81497 18.1614C9.16997 16.2428 13.51 16.7423 16.365 19.6483L16.375 19.6597Z" fill="#017DFF"/>
<path fill-rule="evenodd" clip-rule="evenodd" d="M23.1125 15.7206V22.8268L18.4175 18.0477L18.15 17.7865C15.295 14.8804 14.8025 10.476 16.6875 7.05913C20.4025 8.12637 23.1125 11.5886 23.1125 15.7092V15.732V15.7206Z" fill="#017DFF"/>
<path fill-rule="evenodd" clip-rule="evenodd" d="M30.665 17.7979L25.7225 22.8268V16.0725L25.7125 15.6864C25.7125 11.5772 28.4225 8.10334 32.1375 7.04774C34.0225 10.4646 33.53 14.8804 30.675 17.7865L30.665 17.7979Z" fill="#017DFF"/>
<path fill-rule="evenodd" clip-rule="evenodd" d="M34.4901 24.6767H27.5075L32.2025 19.897L32.46 19.6246C35.315 16.718 39.6425 16.2186 43 18.1374C41.95 21.9178 38.55 24.6767 34.5 24.6767H34.4775H34.4901Z" fill="#FFE912"/>
<path fill-rule="evenodd" clip-rule="evenodd" d="M32.4375 32.3066L27.495 27.2772H34.1325L34.5125 27.2658C38.55 27.2658 41.9625 30.0248 43 33.8052C39.6425 35.724 35.3025 35.2243 32.4475 32.318L32.4375 32.3066Z" fill="#47B41B"/>
<path fill-rule="evenodd" clip-rule="evenodd" d="M25.7 36.2331V29.1267L30.3975 33.906L30.665 34.167C33.52 37.0733 34.01 41.4779 32.125 44.8948C28.41 43.8278 25.7 40.3654 25.7 36.2445V36.2217V36.2331Z" fill="#47B41B"/>
<path fill-rule="evenodd" clip-rule="evenodd" d="M18.2051 34.2019L23.145 29.1732V35.9273L23.1575 36.3131C23.1575 40.4223 20.4475 43.8959 16.7325 44.9515C14.8475 41.5349 15.3375 37.1191 18.1925 34.2132L18.2051 34.2019Z" fill="#47B41B"/>
<path fill-rule="evenodd" clip-rule="evenodd" d="M14.335 27.3215H21.3175L16.62 32.1011L16.365 32.3737C13.51 35.28 9.17997 35.7794 5.82497 33.8609C6.87247 30.0802 10.275 27.3215 14.3225 27.3215H14.345H14.335Z" fill="#47B41B"/>
</svg>
