<svg width="30" height="30" viewBox="0 0 30 30" fill="none" xmlns="http://www.w3.org/2000/svg">
<g clip-path="url(#clip0_7_984)">
<path d="M29.6803 18.8034C29.6803 18.8034 29.9241 18.6804 29.9993 18.2632C29.9994 18.2358 29.9995 18.2153 29.9996 18.1879L30 18.1126C29.9776 17.7227 29.5907 17.2508 29.1554 16.7857C28.6472 16.2659 28.2108 16.0197 28.2108 16.0197C28.2108 16.0197 27.9971 14.9869 27.0799 13.5574C26.1874 12.1347 24.6381 10.63 23.7849 11.0678C22.9313 11.4987 23.679 12.7298 23.7259 13.0991C23.797 13.4958 24.1584 14.132 24.0369 14.132C23.8913 14.1114 22.0602 10.589 17.4344 11.5465C16.2411 11.8133 15.217 12.3193 14.3868 12.9828L14.3454 21.177C14.6388 20.8828 14.761 20.7323 14.761 20.7323C14.761 20.7323 15.0698 22.2098 15.6503 22.8732C16.2308 23.5435 16.934 23.9401 17.1553 23.4477C17.3764 22.9825 16.7057 20.9649 16.7057 20.9649C16.7057 20.9649 17.9642 22.2029 18.3276 22.497C18.6911 22.7911 19.3945 23.1673 19.5923 22.5038C19.7658 21.8404 19.2601 20.835 18.8476 20.6571C18.4595 20.4861 18.2161 20.4861 18.2161 20.4861C18.2161 20.4861 17.9744 20.1646 17.8532 20.062C17.7079 19.9663 17.6836 19.9663 17.6836 19.9663C17.6836 19.9663 17.903 19.8431 18.584 19.8705C19.2891 19.8978 19.8484 19.9253 19.8484 19.9253C19.8484 19.9253 20.4763 20.8623 20.8637 21.1564C21.227 21.4779 22.1716 22.2438 22.5106 22.5653C22.8253 22.8868 23.019 23.0373 23.1421 22.7637C23.2408 22.4969 23.074 21.7856 22.6389 21.2658C22.1794 20.7734 21.6943 20.4998 21.5251 20.2535C21.3808 19.9594 21.2845 19.7405 21.2845 19.7405C21.2845 19.7405 22.1812 20.404 22.399 20.6298C22.6411 20.8281 24.2413 21.8404 24.508 22.0114C24.7746 22.2098 24.8969 22.0865 24.8969 22.0865C24.8969 22.0865 25.0906 22.2371 25.1642 22.1413C25.2377 22.0387 25.4356 21.3821 24.9268 20.9854C24.3939 20.5614 24.0786 20.363 24.1276 20.3151C24.1521 20.2673 24.6863 20.4451 24.7599 20.2946C24.8091 20.1715 24.737 19.98 24.6643 19.9253C24.616 19.8568 24.8115 19.7063 24.8115 19.7063C24.8115 19.7063 25.006 19.7064 25.8082 19.7885C26.6105 19.8637 28.6325 19.1865 29.0469 19.0429C29.4609 18.8993 29.6803 18.8034 29.6803 18.8034ZM14.3046 29.2751C15.9885 28.174 16.0753 25.3833 15.154 24.8361C14.8873 24.6651 14.6204 24.5352 14.3289 24.46L14.3225 25.7391C14.3952 25.7869 14.468 25.8621 14.5157 25.9852C14.66 26.2793 14.5854 26.6488 14.5854 26.6488C14.5854 26.6488 14.5634 26.1837 14.3945 25.9374C14.3703 25.9101 14.3461 25.8895 14.3218 25.8621L14.3046 29.2751ZM14.3868 12.9828C14.0208 13.2495 13.7029 13.5642 13.4094 13.8857L13.3685 22.0045C13.6124 21.8609 13.832 21.7105 14.0278 21.519C14.1502 21.3958 14.2476 21.2727 14.3454 21.177L14.3868 12.9828ZM13.3298 29.6856C13.6951 29.6104 14.0361 29.4667 14.3046 29.2751L14.3218 25.8621C14.177 25.6638 14.0559 25.5407 14.0559 25.5407C14.0559 25.5407 14.1774 25.5885 14.3225 25.7391L14.3289 24.46C14.0131 24.3642 13.6728 24.3095 13.3565 24.3848L13.3457 26.5187C13.4191 26.4708 13.5406 26.4435 13.491 26.6214C13.4662 26.7171 13.3932 26.7171 13.3445 26.7171L13.3381 27.9688C13.3869 27.9688 13.4596 27.9688 13.5084 27.9414C13.5084 27.9414 13.4594 27.9893 13.3375 28.0371L13.3298 29.6856ZM13.4094 13.8857C11.6976 15.6914 10.9327 17.8664 10.7601 18.3589C10.4888 19.1181 8.74824 21.8608 8.59391 23.475C8.46393 25.1166 8.41974 29.1179 12.1138 29.6788C12.5511 29.754 12.9647 29.754 13.3298 29.6856L13.3375 28.0371C12.9964 28.1397 12.2425 28.2287 11.3962 27.2438C10.2597 25.9168 10.83 23.7555 11.7338 23.0237C12.32 22.5381 12.8808 22.2713 13.3685 22.0045L13.4094 13.8857ZM13.3565 24.3848L13.3457 26.5187C13.2725 26.5666 13.2238 26.5665 13.1757 26.4913C13.1263 26.6418 13.223 26.7171 13.3445 26.7171L13.3381 27.9688C12.5595 28.0372 11.4931 27.3464 11.7661 26.2657C12.0885 25.0414 12.675 24.5011 13.3565 24.3848Z" fill="#2E75A3"/>
<path d="M18.2096 0.055675L19.7569 0.000903334C20.5874 -0.0264558 21.7247 0.568705 21.6542 1.64255L21.2158 8.31135C21.1609 9.14576 20.8011 9.59029 20.1439 9.58341L18.1045 9.57659C17.2735 9.56976 16.9266 9.03623 16.8718 8.20176L16.4409 1.61516C16.3865 0.780712 17.0308 0.0898741 18.2096 0.055675Z" fill="#EDDF0E"/>
<path d="M5.92374 4.65195L7.1508 3.57138C7.80936 2.99 9.12653 2.70945 9.77505 3.62598L13.8072 9.33042C14.3127 10.0486 14.3098 10.6505 13.7723 11.0883L12.1044 12.4494C11.4247 13.0102 10.7917 12.8118 10.1969 12.1688L5.51143 7.11436C4.91641 6.47142 4.98892 5.47956 5.92374 4.65195Z" fill="#FD6600"/>
<path d="M0.0406652 16.4301L0.298597 14.9253C0.436989 14.1183 1.23567 13.1402 2.25727 13.4343L8.60942 15.2536C9.40575 15.4862 9.76004 15.924 9.6266 16.5602L9.21237 18.5299C9.04362 19.337 8.46069 19.5559 7.6425 19.4397L1.19844 18.4683C0.380235 18.352 -0.155752 17.5792 0.0406652 16.4301Z" fill="#A4DC2D"/>
<path d="M0.953675 27.5584L0.362341 26.4982C0.0449744 25.9305 0.04531 24.9252 0.809917 24.5832L5.56492 22.4491C6.1611 22.1823 6.59426 22.2713 6.82837 22.7228L7.55472 24.1453C7.85068 24.7267 7.60837 25.1645 7.05158 25.5065L2.66662 28.215C2.10977 28.5569 1.4042 28.3586 0.953675 27.5584Z" fill="#EF3E3E"/>
</g>
<defs>
<clipPath id="clip0_7_984">
<rect width="30" height="30" fill="white"/>
</clipPath>
</defs>
</svg>
