<svg width="50" height="49" viewBox="0 0 50 49" fill="none" xmlns="http://www.w3.org/2000/svg">
<g clip-path="url(#clip0_7_984)">
<path d="M49.4672 30.7122C49.4672 30.7122 49.8735 30.5113 49.9988 29.8299C49.9991 29.7852 49.9992 29.7516 49.9994 29.7069L50 29.5839C49.9627 28.9471 49.3178 28.1764 48.5924 27.4167C47.7454 26.5676 47.018 26.1655 47.018 26.1655C47.018 26.1655 46.6619 24.4786 45.1332 22.1437C43.6456 19.8199 41.0635 17.3623 39.6415 18.0774C38.2189 18.7811 39.4651 20.792 39.5432 21.3952C39.6617 22.0432 40.2641 23.0822 40.0616 23.0822C39.8188 23.0486 36.7671 17.2953 29.0574 18.8592C27.0686 19.295 25.3618 20.1215 23.978 21.2052L23.9091 34.589C24.398 34.1086 24.6018 33.8628 24.6018 33.8628C24.6018 33.8628 25.1164 36.276 26.0838 37.3595C27.0513 38.4544 28.2233 39.1022 28.5922 38.2978C28.9607 37.5381 27.8429 34.2426 27.8429 34.2426C27.8429 34.2426 29.9404 36.2647 30.5461 36.7451C31.1519 37.2255 32.3242 37.8399 32.6539 36.7563C32.943 35.6726 32.1002 34.0304 31.4127 33.74C30.7659 33.4607 30.3601 33.4607 30.3601 33.4607C30.3601 33.4607 29.9575 32.9355 29.7553 32.7679C29.5132 32.6115 29.4726 32.6116 29.4726 32.6116C29.4726 32.6116 29.8384 32.4103 30.9734 32.4551C32.1486 32.4998 33.0807 32.5446 33.0807 32.5446C33.0807 32.5446 34.1272 34.0751 34.7729 34.5555C35.3784 35.0805 36.9527 36.3316 37.5176 36.8567C38.0422 37.3817 38.365 37.6275 38.5702 37.1806C38.7348 36.7449 38.4567 35.5831 37.7316 34.7341C36.9656 33.9298 36.1573 33.483 35.8752 33.0808C35.6348 32.6004 35.4743 32.2429 35.4743 32.2429C35.4743 32.2429 36.9687 33.3265 37.3317 33.6953C37.7352 34.0193 40.4023 35.6727 40.8467 35.952C41.291 36.276 41.4949 36.0747 41.4949 36.0747C41.4949 36.0747 41.8177 36.3205 41.9403 36.1641C42.0629 35.9966 42.3926 34.9241 41.5448 34.2762C40.6565 33.5836 40.131 33.2596 40.2126 33.1814C40.2535 33.1032 41.1439 33.3936 41.2665 33.1478C41.3486 32.9467 41.2284 32.6339 41.1072 32.5446C41.0267 32.4328 41.3526 32.187 41.3526 32.187C41.3526 32.187 41.6767 32.1871 43.0137 32.3212C44.3508 32.4441 47.7209 31.3379 48.4115 31.1034C49.1016 30.8688 49.4672 30.7122 49.4672 30.7122ZM23.8411 47.816C26.6476 46.0174 26.7922 41.4594 25.2567 40.5657C24.8123 40.2864 24.3675 40.0741 23.8815 39.9512L23.8708 42.0405C23.9921 42.1186 24.1133 42.2414 24.1928 42.4425C24.4334 42.9229 24.3091 43.5263 24.3091 43.5263C24.3091 43.5263 24.2724 42.7666 23.9908 42.3644C23.9505 42.3198 23.9101 42.2861 23.8698 42.2415L23.8411 47.816ZM23.978 21.2052C23.368 21.6408 22.8382 22.1548 22.349 22.6799L22.2808 35.9407C22.6875 35.7061 23.0534 35.4604 23.3798 35.1476C23.5837 34.9465 23.746 34.7454 23.9091 34.589L23.978 21.2052ZM22.2163 48.4865C22.8251 48.3636 23.3936 48.1289 23.8411 47.816L23.8698 42.2415C23.6284 41.9175 23.4266 41.7164 23.4266 41.7164C23.4266 41.7164 23.6291 41.7946 23.8708 42.0405L23.8815 39.9512C23.3552 39.7948 22.788 39.7056 22.2609 39.8285L22.2429 43.3139C22.3651 43.2357 22.5677 43.1911 22.4851 43.4816C22.4437 43.638 22.322 43.6379 22.2408 43.6379L22.2302 45.6824C22.3115 45.6824 22.4326 45.6823 22.514 45.6376C22.514 45.6376 22.4325 45.7158 22.2292 45.794L22.2163 48.4865ZM22.349 22.6799C19.4961 25.6292 18.2212 29.1818 17.9335 29.9862C17.4813 31.2263 14.5804 35.706 14.3232 38.3425C14.1066 41.0238 14.0329 47.5592 20.1898 48.4753C20.9186 48.5982 21.6079 48.5982 22.2163 48.4865L22.2292 45.794C21.6606 45.9615 20.4043 46.1069 18.9937 44.4982C17.0995 42.3308 18.0501 38.8007 19.5563 37.6053C20.5333 36.8122 21.468 36.3765 22.2808 35.9407L22.349 22.6799ZM22.2609 39.8285L22.2429 43.3139C22.1208 43.3921 22.0397 43.392 21.9596 43.2691C21.8772 43.5149 22.0384 43.6379 22.2408 43.6379L22.2302 45.6824C20.9326 45.7941 19.1552 44.6658 19.6101 42.9007C20.1476 40.901 21.1251 40.0184 22.2609 39.8285Z" fill="#2E75A3"/>
<path d="M30.3494 0.0909358L32.9282 0.00147545C34.3125 -0.0432111 36.208 0.928885 36.0905 2.68284L35.3598 13.5752C35.2683 14.9381 34.6687 15.6641 33.5733 15.6529L30.1743 15.6418C28.7893 15.6306 28.2111 14.7592 28.1199 13.3962L27.4017 2.6381C27.3109 1.27516 28.3848 0.146794 30.3494 0.0909358Z" fill="#EDDF0E"/>
<path d="M9.87286 7.59815L11.918 5.83322C13.0156 4.88363 15.2108 4.4254 16.2917 5.92241L23.0119 15.2397C23.8545 16.4127 23.8497 17.3958 22.9538 18.1109L20.1739 20.334C19.0411 21.25 17.9861 20.9259 16.9948 19.8757L9.18568 11.6201C8.19398 10.57 8.31483 8.94992 9.87286 7.59815Z" fill="#FD6600"/>
<path d="M0.0677753 26.8358L0.497662 24.378C0.728314 23.0598 2.05945 21.4623 3.76212 21.9427L14.349 24.9142C15.6763 25.2941 16.2667 26.0092 16.0443 27.0482L15.3539 30.2655C15.0727 31.5838 14.1012 31.9413 12.7375 31.7514L1.9974 30.1649C0.633726 29.9749 -0.259587 28.7126 0.0677753 26.8358Z" fill="#A4DC2D"/>
<path d="M1.58942 45.012L0.603861 43.2803C0.0749167 42.353 0.0754759 40.7111 1.34982 40.1525L9.27482 36.6668C10.2685 36.2311 10.9904 36.3765 11.3806 37.1138L12.5912 39.4373C13.0844 40.3869 12.6806 41.1019 11.7526 41.6605L4.44433 46.0844C3.51624 46.6429 2.34029 46.3191 1.58942 45.012Z" fill="#EF3E3E"/>
</g>
<defs>
<clipPath id="clip0_7_984">
<rect width="50" height="49" fill="white"/>
</clipPath>
</defs>
</svg>
