<svg width="30" height="30" viewBox="0 0 30 30" fill="none" xmlns="http://www.w3.org/2000/svg">
<g clip-path="url(#clip0_7_990)">
<path d="M1.08585 22.8828C0.775665 23.3795 0.427588 24.0207 0.131555 24.5029C0.00498163 24.7273 -0.032075 24.995 0.0282974 25.2477C0.0890859 25.5005 0.242724 25.7182 0.456316 25.8544L6.65882 29.8298C6.76671 29.8989 6.88659 29.9455 7.01194 29.9659C7.13682 29.9863 7.26465 29.9809 7.38747 29.9493C7.51071 29.918 7.62647 29.8615 7.72806 29.7828C7.83006 29.704 7.91582 29.6053 7.98035 29.4917C8.22853 29.0595 8.54829 28.4979 8.89677 27.9016C11.3537 23.6726 13.8252 24.1898 18.2816 26.411L24.4271 29.4572C24.5424 29.5142 24.6677 29.5467 24.7951 29.5525C24.9225 29.5583 25.0499 29.5375 25.1698 29.4913C25.2894 29.445 25.3988 29.3739 25.4917 29.2827C25.5849 29.1915 25.6591 29.082 25.7107 28.96L28.6639 22.0031C28.7697 21.7645 28.7805 21.4918 28.6935 21.2452C28.6069 20.9983 28.4299 20.7972 28.2014 20.6861C26.8986 20.0503 24.3175 18.7829 21.9984 17.615C13.625 13.401 6.52059 13.6795 1.08585 22.8828Z" fill="url(#paint0_linear_7_990)"/>
<path d="M28.9146 7.09524C29.2248 6.59806 29.5779 5.95729 29.8689 5.47015C29.9951 5.24656 30.0318 4.98092 29.9722 4.72902C29.9126 4.47754 29.7607 4.2602 29.5496 4.12364L23.3466 0.148232C23.2388 0.0786994 23.1189 0.0324722 22.994 0.0120705C22.8686 -0.00833119 22.7409 -0.00292764 22.618 0.0287158C22.4948 0.0599429 22.3791 0.116578 22.2775 0.195271C22.1754 0.273962 22.0896 0.372655 22.0251 0.486322C21.7816 0.9235 21.4622 1.47976 21.1091 2.0814C18.6326 6.27541 16.1611 5.77825 11.7093 3.57195L5.55928 0.525864C5.44395 0.468822 5.31863 0.436345 5.19123 0.430515C5.0634 0.424686 4.936 0.445518 4.8165 0.491735C4.697 0.537951 4.5875 0.608724 4.49424 0.700324C4.40138 0.791506 4.32727 0.901 4.27564 1.02258L1.3224 7.97953C1.22872 8.21435 1.22497 8.47753 1.31157 8.71529C1.39859 8.953 1.56972 9.14659 1.78997 9.25694C3.08777 9.89271 5.66879 11.1651 7.99252 12.3276C16.3805 16.5766 23.4849 16.2931 28.9146 7.09524Z" fill="url(#paint1_linear_7_990)"/>
</g>
<defs>
<linearGradient id="paint0_linear_7_990" x1="28.497" y1="31.887" x2="9.36059" y2="21.3289" gradientUnits="userSpaceOnUse">
<stop stop-color="#0052CC"/>
<stop offset="0.92" stop-color="#2380FB"/>
<stop offset="1" stop-color="#2684FF"/>
</linearGradient>
<linearGradient id="paint1_linear_7_990" x1="-403677" y1="-173285" x2="-402998" y2="-172536" gradientUnits="userSpaceOnUse">
<stop stop-color="#0052CC"/>
<stop offset="1" stop-color="#2684FF"/>
</linearGradient>
<clipPath id="clip0_7_990">
<rect width="30" height="30" fill="white"/>
</clipPath>
</defs>
</svg>
