<svg width="50" height="50" viewBox="0 0 50 50" fill="none" xmlns="http://www.w3.org/2000/svg">
<g clip-path="url(#clip0_7_990)">
<path d="M1.80975 38.138C1.29277 38.9658 0.712647 40.0345 0.219259 40.8381C0.00830272 41.2121 -0.0534583 41.6583 0.0471623 42.0795C0.148476 42.5007 0.404539 42.8637 0.760527 43.0906L11.098 49.7162C11.2778 49.8314 11.4776 49.9092 11.6866 49.9432C11.8947 49.9772 12.1077 49.9682 12.3125 49.9154C12.5178 49.8634 12.7108 49.7691 12.8801 49.6379C13.0501 49.5067 13.193 49.3422 13.3006 49.1528C13.7142 48.4325 14.2472 47.4964 14.8279 46.5027C18.9228 39.4544 23.0421 40.3162 30.4693 44.0184L40.7118 49.0952C40.904 49.1902 41.1128 49.2445 41.3252 49.2542C41.5375 49.2639 41.7499 49.2292 41.9497 49.1521C42.1489 49.075 42.3314 48.9564 42.4862 48.8045C42.6416 48.6525 42.7651 48.4699 42.8512 48.2666L47.7732 36.6717C47.9495 36.2741 47.9675 35.8196 47.8225 35.4087C47.6781 34.9972 47.3832 34.662 47.0023 34.4767C44.831 33.4171 40.5292 31.3047 36.664 29.3583C22.7083 22.3349 10.8676 22.7992 1.80975 38.138Z" fill="url(#paint0_linear_7_990)"/>
<path d="M48.191 11.8254C48.7079 10.9968 49.2965 9.92882 49.7815 9.11692C49.9918 8.74427 50.0528 8.30153 49.9536 7.8817C49.8543 7.46256 49.6011 7.10033 49.2492 6.87273L38.911 0.247053C38.7313 0.131166 38.5314 0.0541203 38.3232 0.0201175C38.1143 -0.0138853 37.9014 -0.00487941 37.6966 0.0478597C37.4912 0.0999049 37.2983 0.194297 37.129 0.325451C36.9589 0.456604 36.816 0.621092 36.7084 0.810536C36.3025 1.53917 35.7703 2.46626 35.1818 3.469C31.0543 10.459 26.9351 9.63041 19.5155 5.95325L9.26539 0.876439C9.07318 0.781371 8.8643 0.727241 8.65196 0.717526C8.43892 0.707811 8.22658 0.74253 8.02742 0.819558C7.82825 0.896584 7.64575 1.01454 7.49031 1.16721C7.33556 1.31918 7.21204 1.50167 7.12599 1.7043L2.20391 13.2992C2.04778 13.6906 2.04153 14.1292 2.18587 14.5255C2.3309 14.9217 2.61612 15.2443 2.98321 15.4282C5.14621 16.4878 9.4479 18.6085 13.3208 20.546C27.3008 27.6276 39.1414 27.1551 48.191 11.8254Z" fill="url(#paint1_linear_7_990)"/>
</g>
<defs>
<linearGradient id="paint0_linear_7_990" x1="47.495" y1="53.145" x2="15.601" y2="35.5482" gradientUnits="userSpaceOnUse">
<stop stop-color="#0052CC"/>
<stop offset="0.92" stop-color="#2380FB"/>
<stop offset="1" stop-color="#2684FF"/>
</linearGradient>
<linearGradient id="paint1_linear_7_990" x1="-672794" y1="-288808" x2="-671664" y2="-287560" gradientUnits="userSpaceOnUse">
<stop stop-color="#0052CC"/>
<stop offset="1" stop-color="#2684FF"/>
</linearGradient>
<clipPath id="clip0_7_990">
<rect width="50" height="50" fill="white"/>
</clipPath>
</defs>
</svg>
