<svg width="30" height="30" viewBox="0 0 30 30" fill="none" xmlns="http://www.w3.org/2000/svg">
<g clip-path="url(#clip0_12_174)">
<mask id="mask0_12_174" style="mask-type:luminance" maskUnits="userSpaceOnUse" x="3" y="0" width="24" height="30">
<path d="M26.0769 0H3V30H26.0769V0Z" fill="white"/>
</mask>
<g mask="url(#mask0_12_174)">
<path d="M19.1877 6.36425C17.1104 4.26269 15.1285 2.25961 14.5385 0C13.9485 2.25961 11.9658 4.26269 9.88849 6.36425C6.7731 9.5154 3.24079 13.0873 3.24079 18.4434C3.23568 19.9472 3.52415 21.4375 4.09002 22.8308C4.65377 24.2197 5.48489 25.4845 6.53617 26.5531C7.58312 27.617 8.83064 28.4628 10.2066 29.0415C11.578 29.6181 13.0508 29.9152 14.5385 29.9154C16.0254 29.9154 17.4977 29.6181 18.8708 29.0412C20.2466 28.4624 21.494 27.6166 22.5408 26.5527C23.5922 25.4842 24.4234 24.2196 24.9873 22.8308C25.5533 21.4375 25.8419 19.9472 25.8369 18.4434C25.8369 13.0873 22.3047 9.5154 19.1877 6.36425ZM8.0427 21.1081C7.34964 21.0842 4.79271 16.6242 9.53619 11.8758L12.6747 15.345C12.7157 15.3858 12.7427 15.4385 12.7517 15.4956C12.7608 15.5527 12.7515 15.6113 12.725 15.6627C12.7078 15.6967 12.6835 15.7267 12.6539 15.7508C11.905 16.5277 8.71272 19.7677 8.31579 20.8881C8.23387 21.1188 8.11424 21.1104 8.0427 21.1081ZM14.5385 26.9858C14.0277 26.9858 13.5221 26.8841 13.0512 26.6865C12.579 26.4883 12.1506 26.1987 11.7908 25.8342C11.4294 25.4681 11.1432 25.0347 10.9485 24.5585C10.7529 24.0808 10.6524 23.5696 10.6523 23.0535C10.667 22.0996 11.0092 21.1812 11.6212 20.4558C12.3219 19.5888 14.5377 17.15 14.5377 17.15C14.5377 17.15 16.72 19.6246 17.4493 20.4477C18.0857 21.1656 18.433 22.0941 18.4239 23.0535C18.4239 24.0966 18.0147 25.0965 17.2858 25.8342C16.9269 26.1984 16.4992 26.4878 16.0276 26.6855C15.556 26.8832 15.0498 26.9852 14.5385 26.9858ZM21.9754 20.6088C21.8919 20.7942 21.7019 21.1035 21.4454 21.1127C20.9885 21.13 20.9397 20.8927 20.6016 20.3869C19.86 19.2762 13.3873 12.43 12.1766 11.1061C11.1119 9.94154 12.0266 9.12037 12.4512 8.68998C12.9835 8.1504 14.5377 6.57845 14.5377 6.57845C14.5377 6.57845 19.1723 11.0285 21.1027 14.0688C23.0331 17.1092 22.3677 19.7404 21.9754 20.6088Z" fill="#009CDE"/>
</g>
</g>
<defs>
<clipPath id="clip0_12_174">
<rect width="23.0769" height="30" fill="white" transform="translate(3)"/>
</clipPath>
</defs>
</svg>
