<svg width="50" height="65" viewBox="0 0 50 65" fill="none" xmlns="http://www.w3.org/2000/svg">
<g clip-path="url(#clip0_6_627)">
<path d="M35.0733 13.7892C30.5725 9.23583 26.2783 4.89583 25 0C23.7217 4.89583 19.4258 9.23583 14.925 13.7892C8.17499 20.6167 0.52166 28.3558 0.52166 39.9608C0.510582 43.219 1.1356 46.448 2.36166 49.4667C3.58311 52.4761 5.38388 55.2164 7.66166 57.5317C9.93004 59.8369 12.633 61.6695 15.6142 62.9233C18.5857 64.1725 21.7766 64.8162 25 64.8167C28.2217 64.8167 31.4117 64.1725 34.3867 62.9225C37.3675 61.6685 40.0702 59.836 42.3383 57.5308C44.6163 55.2158 46.4173 52.4759 47.6392 49.4667C48.8655 46.448 49.4908 43.219 49.48 39.9608C49.48 28.3558 41.8267 20.6167 35.0733 13.7892ZM10.9258 45.7342C9.42416 45.6825 3.88416 36.0192 14.1617 25.7308L20.9617 33.2475C21.0506 33.3358 21.1091 33.4501 21.1287 33.5738C21.1484 33.6976 21.1281 33.8244 21.0708 33.9358C21.0335 34.0096 20.9809 34.0746 20.9167 34.1267C19.2942 35.81 12.3775 42.83 11.5175 45.2575C11.34 45.7575 11.0808 45.7392 10.9258 45.7342ZM25 58.4692C23.8934 58.4692 22.7979 58.2488 21.7775 57.8208C20.7544 57.3914 19.8263 56.7638 19.0467 55.9742C18.2636 55.1809 17.6436 54.2418 17.2217 53.21C16.798 52.175 16.5801 51.0675 16.58 49.9492C16.6117 47.8825 17.3533 45.8925 18.6792 44.3208C20.1975 42.4425 24.9983 37.1583 24.9983 37.1583C24.9983 37.1583 29.7267 42.52 31.3067 44.3033C32.6856 45.8587 33.4381 47.8706 33.4183 49.9492C33.4183 52.2092 32.5317 54.3758 30.9525 55.9742C30.1748 56.7633 29.2482 57.3903 28.2264 57.8186C27.2046 58.2469 26.1079 58.468 25 58.4692ZM41.1133 44.6525C40.9325 45.0542 40.5208 45.7242 39.965 45.7442C38.975 45.7817 38.8692 45.2675 38.1367 44.1717C36.53 41.765 22.5058 26.9317 19.8825 24.0633C17.5758 21.54 19.5575 19.7608 20.4775 18.8283C21.6308 17.6592 24.9983 14.2533 24.9983 14.2533C24.9983 14.2533 35.04 23.895 39.2225 30.4825C43.405 37.07 41.9642 42.7708 41.1142 44.6525H41.1133Z" fill="#009CDE"/>
</g>
<defs>
<clipPath id="clip0_6_627">
<rect width="50" height="65" fill="white"/>
</clipPath>
</defs>
</svg>
