<svg width="30" height="30" viewBox="0 0 30 30" fill="none" xmlns="http://www.w3.org/2000/svg">
<g clip-path="url(#clip0_7_999)">
<mask id="mask0_7_999" style="mask-type:luminance" maskUnits="userSpaceOnUse" x="0" y="0" width="30" height="30">
<path d="M30 0H0V30H30V0Z" fill="white"/>
</mask>
<g mask="url(#mask0_7_999)">
<path d="M1.215 11.5313C-0.405 13.5658 -0.405 16.4287 1.215 18.4631L8.69502 27.8548C10.1963 29.7397 12.745 30.4759 15.04 29.6872L26.1838 25.8575C28.4788 25.0686 30.0125 22.9281 30 20.5305L29.985 19.4869C29.985 18.2349 29.3325 18.0596 28.9775 17.8843C28.0888 17.7089 27.1112 18.0836 26.56 18.9341C25.855 19.8031 24.8875 20.3389 23.8213 20.3389C21.6613 20.3389 19.91 18.1409 19.91 15.4295C19.91 12.7181 21.6613 10.5201 23.8213 10.5201C24.9175 10.5201 25.9087 11.0865 26.6188 11.999L26.6488 11.9951C27.3775 12.7995 28.1825 13.054 28.9775 12.7995C29.7725 12.545 29.9612 11.9228 29.9612 10.5735L29.9425 9.41388C29.93 7.04076 28.405 4.93187 26.1337 4.14737L15.045 0.315871C12.7475 -0.477754 10.1938 0.25762 8.69004 2.14525L1.215 11.5313Z" fill="#5EC0CF"/>
</g>
</g>
<defs>
<clipPath id="clip0_7_999">
<rect width="30" height="30" fill="white"/>
</clipPath>
</defs>
</svg>
