<svg width="50" height="50" viewBox="0 0 50 50" fill="none" xmlns="http://www.w3.org/2000/svg">
<mask id="mask0_6_778" style="mask-type:luminance" maskUnits="userSpaceOnUse" x="0" y="0" width="50" height="50">
<path d="M50 0H0V50H50V0Z" fill="white"/>
</mask>
<g mask="url(#mask0_6_778)">
<path d="M2.025 19.2189C-0.675 22.6096 -0.675 27.3812 2.025 30.7719L14.4917 46.4246C16.9938 49.5662 21.2417 50.7931 25.0667 49.4787L43.6396 43.0958C47.4646 41.781 50.0209 38.2135 50 34.2175L49.975 32.4781C49.975 30.3915 48.8875 30.0994 48.2958 29.8071C46.8146 29.5148 45.1854 30.1394 44.2667 31.5569C43.0917 33.0052 41.4792 33.8981 39.7021 33.8981C36.1021 33.8981 33.1833 30.2348 33.1833 25.7158C33.1833 21.1969 36.1021 17.5335 39.7021 17.5335C41.5292 17.5335 43.1812 18.4775 44.3646 19.9983L44.4146 19.9919C45.6292 21.3325 46.9708 21.7567 48.2958 21.3325C49.6208 20.9083 49.9354 19.8714 49.9354 17.6225L49.9042 15.6898C49.8833 11.7346 47.3417 8.21978 43.5562 6.91228L25.075 0.526451C21.2458 -0.796257 16.9896 0.429366 14.4834 3.57541L2.025 19.2189Z" fill="#5EC0CF"/>
</g>
</svg>
