<svg width="50" height="50" viewBox="0 0 50 50" fill="none" xmlns="http://www.w3.org/2000/svg">
<mask id="mask0_6_784" style="mask-type:luminance" maskUnits="userSpaceOnUse" x="0" y="0" width="50" height="50">
<path d="M50 0H0V50H50V0Z" fill="white"/>
</mask>
<g mask="url(#mask0_6_784)">
<path d="M49.402 23.6008L27.1562 2.08563L25 0L8.25411 16.1958L0.59789 23.6008C0.214557 23.9721 0 24.4754 0 25C0 25.5246 0.214557 26.0279 0.59789 26.3992L15.8979 41.1958L25 50L41.7458 33.8042L42.0041 33.5533L49.402 26.3992C49.7854 26.0279 50 25.5246 50 25C50 24.4754 49.7854 23.9721 49.402 23.6008ZM25 32.3917L17.3583 25L25 17.6083L32.6417 25L25 32.3917Z" fill="#2684FF"/>
<path d="M24.9979 17.6082C22.5958 15.283 21.2395 12.1325 21.2291 8.84462C21.2187 5.5567 22.5542 2.39837 24.9437 0.0592041L8.2187 16.2288L17.3229 25.033L24.9979 17.6082Z" fill="url(#paint0_linear_6_784)"/>
<path d="M32.6625 24.9805L25 32.3921C27.4125 34.7263 28.7687 37.8919 28.7687 41.1928C28.7687 44.4938 27.4125 47.6594 25 49.9936L41.7666 33.7846L32.6625 24.9805Z" fill="url(#paint1_linear_6_784)"/>
</g>
<defs>
<linearGradient id="paint0_linear_6_784" x1="23.6271" y1="10.1307" x2="13.3104" y2="20.7967" gradientUnits="userSpaceOnUse">
<stop offset="0.18" stop-color="#0052CC"/>
<stop offset="1" stop-color="#2684FF"/>
</linearGradient>
<linearGradient id="paint1_linear_6_784" x1="675.171" y1="415.437" x2="1036.33" y2="657.516" gradientUnits="userSpaceOnUse">
<stop offset="0.18" stop-color="#0052CC"/>
<stop offset="1" stop-color="#2684FF"/>
</linearGradient>
</defs>
</svg>
