<svg width="50" height="50" viewBox="0 0 50 50" fill="none" xmlns="http://www.w3.org/2000/svg">
<g clip-path="url(#clip0_6_792)">
<path fill-rule="evenodd" clip-rule="evenodd" d="M3.68719 0C1.66126 0 0 1.62074 0 3.68719V46.3128C0 48.3388 1.62074 50 3.68719 50H46.3128C48.3388 50 50 48.3793 50 46.3128V3.68719C50 1.66126 48.3793 0 46.3128 0H3.68719ZM7.41481 8.34687C7.41481 7.82012 7.82 7.41494 8.34675 7.41494H13.8978C14.4246 7.41494 14.8298 7.82012 14.8298 8.34687V13.8979C14.8298 14.4246 14.4246 14.8298 13.8978 14.8298H8.34675C7.82 14.8298 7.41481 14.4246 7.41481 13.8979V8.34687ZM17.5849 7.41494C17.0582 7.41494 16.653 7.82012 16.653 8.34687V13.8979C16.653 14.4246 17.0582 14.8298 17.5849 14.8298H23.136C23.6628 14.8298 24.0679 14.4246 24.0679 13.8979V8.34687C24.0679 7.82012 23.6628 7.41494 23.136 7.41494H17.5849ZM25.9319 8.34687C25.9319 7.82012 26.3371 7.41494 26.8639 7.41494H32.4149C32.9416 7.41494 33.3468 7.82012 33.3468 8.34687V13.8979C33.3468 14.4246 32.9416 14.8298 32.4149 14.8298H26.8639C26.3371 14.8298 25.9319 14.4246 25.9319 13.8979V8.34687ZM8.34675 16.6937C7.82 16.6937 7.41481 17.0988 7.41481 17.6256V23.1766C7.41481 23.7034 7.82 24.1086 8.34675 24.1086H13.8978C14.4246 24.1086 14.8298 23.7034 14.8298 23.1766V17.6256C14.8298 17.0988 14.4246 16.6937 13.8978 16.6937H8.34675ZM16.653 17.5851C16.653 17.0583 17.0582 16.6531 17.5849 16.6531H23.136C23.6628 16.6531 24.0679 17.0583 24.0679 17.5851V23.1766C24.0679 23.7033 23.6628 24.1085 23.136 24.1085H17.5849C17.0582 24.1085 16.653 23.7033 16.653 23.1766V17.5851ZM36.1426 16.6937C35.6158 16.6937 35.2106 17.0988 35.2106 17.6256V23.1766C35.2106 23.7034 35.6158 24.1086 36.1426 24.1086H41.6936C42.2204 24.1086 42.6256 23.7034 42.6256 23.1766V17.6256C42.6256 17.0988 42.2204 16.6937 41.6936 16.6937H36.1426ZM7.41481 26.8639C7.41481 26.3371 7.82 25.9319 8.34675 25.9319H13.8978C14.4246 25.9319 14.8298 26.3371 14.8298 26.8639V32.4149C14.8298 32.9416 14.4246 33.3468 13.8978 33.3468H8.34675C7.82 33.3468 7.41481 32.9416 7.41481 32.4149V26.8639ZM26.8639 25.9319C26.3371 25.9319 25.9319 26.3371 25.9319 26.8639V32.4149C25.9319 32.9416 26.3371 33.3468 26.8639 33.3468H32.4149C32.9416 33.3468 33.3468 32.9416 33.3468 32.4149V26.8639C33.3468 26.3371 32.9416 25.9319 32.4149 25.9319H26.8639ZM35.2106 26.8639C35.2106 26.3371 35.6158 25.9319 36.1426 25.9319H41.6936C42.2204 25.9319 42.6256 26.3371 42.6256 26.8639V32.4149C42.6256 32.9416 42.2204 33.3468 41.6936 33.3468H36.1426C35.6158 33.3468 35.2106 32.9416 35.2106 32.4149V26.8639ZM17.5849 35.2106C17.0582 35.2106 16.653 35.6158 16.653 36.1426V41.6936C16.653 42.2204 17.0582 42.6256 17.5849 42.6256H23.136C23.6628 42.6256 24.0679 42.2204 24.0679 41.6936V36.1426C24.0679 35.6158 23.6628 35.2106 23.136 35.2106H17.5849ZM25.9319 36.1426C25.9319 35.6158 26.3371 35.2106 26.8639 35.2106H32.4149C32.9416 35.2106 33.3468 35.6158 33.3468 36.1426V41.6936C33.3468 42.2204 32.9416 42.6256 32.4149 42.6256H26.8639C26.3371 42.6256 25.9319 42.2204 25.9319 41.6936V36.1426ZM36.1426 35.2106C35.6158 35.2106 35.2106 35.6158 35.2106 36.1426V41.6936C35.2106 42.2204 35.6158 42.6256 36.1426 42.6256H41.6936C42.2204 42.6256 42.6256 42.2204 42.6256 41.6936V36.1426C42.6256 35.6158 42.2204 35.2106 41.6936 35.2106H36.1426Z" fill="#0B63CE"/>
</g>
<defs>
<clipPath id="clip0_6_792">
<rect width="50" height="50" fill="white"/>
</clipPath>
</defs>
</svg>
