<svg width="30" height="30" viewBox="0 0 30 30" fill="none" xmlns="http://www.w3.org/2000/svg">
<mask id="mask0_7_1018" style="mask-type:luminance" maskUnits="userSpaceOnUse" x="0" y="0" width="30" height="30">
<path d="M30 0H0V30H30V0Z" fill="white"/>
</mask>
<g mask="url(#mask0_7_1018)">
<path fill-rule="evenodd" clip-rule="evenodd" d="M2.21231 0C0.996756 0 0 0.972444 0 2.21231V27.7877C0 29.0033 0.972444 30 2.21231 30H27.7877C29.0033 30 30 29.0276 30 27.7877V2.21231C30 0.996756 29.0276 0 27.7877 0H2.21231ZM4.44889 5.00812C4.44889 4.69207 4.692 4.44896 5.00805 4.44896H8.33868C8.65476 4.44896 8.89788 4.69207 8.89788 5.00812V8.33874C8.89788 8.65476 8.65476 8.89788 8.33868 8.89788H5.00805C4.692 8.89788 4.44889 8.65476 4.44889 8.33874V5.00812ZM10.5509 4.44896C10.2349 4.44896 9.9918 4.69207 9.9918 5.00812V8.33874C9.9918 8.65476 10.2349 8.89788 10.5509 8.89788H13.8816C14.1977 8.89788 14.4407 8.65476 14.4407 8.33874V5.00812C14.4407 4.69207 14.1977 4.44896 13.8816 4.44896H10.5509ZM15.5591 5.00812C15.5591 4.69207 15.8023 4.44896 16.1183 4.44896H19.4489C19.765 4.44896 20.0081 4.69207 20.0081 5.00812V8.33874C20.0081 8.65476 19.765 8.89788 19.4489 8.89788H16.1183C15.8023 8.89788 15.5591 8.65476 15.5591 8.33874V5.00812ZM5.00805 10.0162C4.692 10.0162 4.44889 10.2593 4.44889 10.5754V13.906C4.44889 14.222 4.692 14.4652 5.00805 14.4652H8.33868C8.65476 14.4652 8.89788 14.222 8.89788 13.906V10.5754C8.89788 10.2593 8.65476 10.0162 8.33868 10.0162H5.00805ZM9.9918 10.5511C9.9918 10.235 10.2349 9.99186 10.5509 9.99186H13.8816C14.1977 9.99186 14.4407 10.235 14.4407 10.5511V13.906C14.4407 14.222 14.1977 14.4651 13.8816 14.4651H10.5509C10.2349 14.4651 9.9918 14.222 9.9918 13.906V10.5511ZM21.6856 10.0162C21.3695 10.0162 21.1264 10.2593 21.1264 10.5754V13.906C21.1264 14.222 21.3695 14.4652 21.6856 14.4652H25.0162C25.3322 14.4652 25.5754 14.222 25.5754 13.906V10.5754C25.5754 10.2593 25.3322 10.0162 25.0162 10.0162H21.6856ZM4.44889 16.1183C4.44889 15.8023 4.692 15.5591 5.00805 15.5591H8.33868C8.65476 15.5591 8.89788 15.8023 8.89788 16.1183V19.4489C8.89788 19.765 8.65476 20.0081 8.33868 20.0081H5.00805C4.692 20.0081 4.44889 19.765 4.44889 19.4489V16.1183ZM16.1183 15.5591C15.8023 15.5591 15.5591 15.8023 15.5591 16.1183V19.4489C15.5591 19.765 15.8023 20.0081 16.1183 20.0081H19.4489C19.765 20.0081 20.0081 19.765 20.0081 19.4489V16.1183C20.0081 15.8023 19.765 15.5591 19.4489 15.5591H16.1183ZM21.1264 16.1183C21.1264 15.8023 21.3695 15.5591 21.6856 15.5591H25.0162C25.3322 15.5591 25.5754 15.8023 25.5754 16.1183V19.4489C25.5754 19.765 25.3322 20.0081 25.0162 20.0081H21.6856C21.3695 20.0081 21.1264 19.765 21.1264 19.4489V16.1183ZM10.5509 21.1264C10.2349 21.1264 9.9918 21.3695 9.9918 21.6856V25.0162C9.9918 25.3322 10.2349 25.5754 10.5509 25.5754H13.8816C14.1977 25.5754 14.4407 25.3322 14.4407 25.0162V21.6856C14.4407 21.3695 14.1977 21.1264 13.8816 21.1264H10.5509ZM15.5591 21.6856C15.5591 21.3695 15.8023 21.1264 16.1183 21.1264H19.4489C19.765 21.1264 20.0081 21.3695 20.0081 21.6856V25.0162C20.0081 25.3322 19.765 25.5754 19.4489 25.5754H16.1183C15.8023 25.5754 15.5591 25.3322 15.5591 25.0162V21.6856ZM21.6856 21.1264C21.3695 21.1264 21.1264 21.3695 21.1264 21.6856V25.0162C21.1264 25.3322 21.3695 25.5754 21.6856 25.5754H25.0162C25.3322 25.5754 25.5754 25.3322 25.5754 25.0162V21.6856C25.5754 21.3695 25.3322 21.1264 25.0162 21.1264H21.6856Z" fill="#0B63CE"/>
</g>
</svg>
