<svg width="50" height="50" viewBox="0 0 50 50" fill="none" xmlns="http://www.w3.org/2000/svg">
<mask id="mask0_6_794" style="mask-type:luminance" maskUnits="userSpaceOnUse" x="0" y="0" width="50" height="50">
<path d="M50 0H0V50H50V0Z" fill="white"/>
</mask>
<g mask="url(#mask0_6_794)">
<path fill-rule="evenodd" clip-rule="evenodd" d="M39.954 10.0778L39.6915 4.77138C48.3144 11.0308 52.2707 22.3895 48.6749 33.0137C44.2478 46.0882 30.0603 53.0995 16.9853 48.6735C3.91238 44.2472 -3.10011 30.0601 1.32698 16.9855C4.92906 6.3443 14.9977 -0.279873 25.6686 0.00908513L22.2478 4.05055C15.9165 5.19534 10.4498 9.51867 8.3019 15.8655C5.10606 25.3083 10.4644 35.6543 20.2686 38.9737C30.0749 42.2933 40.6166 37.3295 43.8124 27.8866C45.9541 21.561 44.256 14.8303 39.954 10.0778ZM33.3831 13.011L33.5645 20.4289C33.5645 20.4289 33.6416 23.8408 31.2749 26.1583C28.9103 28.4758 26.004 28.2641 24.1123 27.6239C22.2227 26.9839 19.7853 25.387 19.3144 22.1089C18.8415 18.831 20.9769 16.1678 20.9769 16.1678L25.627 10.3849L28.3353 7.08242L30.6582 4.20471C30.6582 4.20471 31.7249 2.77575 32.0291 2.48054C32.0895 2.422 32.1519 2.38388 32.2123 2.3545L32.256 2.332L32.2644 2.32867C32.3915 2.27346 32.5395 2.26159 32.6811 2.30971C32.8207 2.3568 32.929 2.45284 32.9957 2.57034L33.0102 2.59305L33.0228 2.6195C33.0561 2.682 33.0853 2.75367 33.0978 2.842C33.1603 3.26117 33.1394 5.04409 33.1394 5.04409L33.2373 8.74242L33.3831 13.011Z" fill="#0F5BC8"/>
</g>
</svg>
