<svg width="30" height="30" viewBox="0 0 30 30" fill="none" xmlns="http://www.w3.org/2000/svg">
<g clip-path="url(#clip0_7_1019)">
<mask id="mask0_7_1019" style="mask-type:luminance" maskUnits="userSpaceOnUse" x="0" y="0" width="30" height="30">
<path d="M30 0H0V30H30V0Z" fill="white"/>
</mask>
<g mask="url(#mask0_7_1019)">
<path fill-rule="evenodd" clip-rule="evenodd" d="M23.9723 6.04668L23.8148 2.86283C28.9886 6.61848 31.3623 13.4337 29.2049 19.8082C26.5486 27.6529 18.0361 31.8597 10.1911 29.2041C2.34735 26.5483 -1.86014 18.0361 0.796114 10.1913C2.95736 3.80658 8.99855 -0.167924 15.4011 0.00545107L13.3486 2.43033C9.54983 3.1172 6.26981 5.7112 4.98107 9.5193C3.06356 15.185 6.27857 21.3926 12.1611 23.3842C18.0449 25.376 24.3699 22.3977 26.2874 16.732C27.5724 12.9366 26.5535 8.89818 23.9723 6.04668ZM20.0298 7.8066L20.1386 12.2573C20.1386 12.2573 20.1849 14.3045 18.7649 15.695C17.3461 17.0855 15.6023 16.9585 14.4673 16.5743C13.3335 16.1903 11.8711 15.2322 11.5886 13.2653C11.3048 11.2986 12.5861 9.70068 12.5861 9.70068L15.3761 6.23094L17.0011 4.24945L18.3948 2.52283C18.3948 2.52283 19.0349 1.66545 19.2174 1.48832C19.2536 1.4532 19.2911 1.43033 19.3273 1.4127L19.3535 1.3992L19.3586 1.3972C19.4348 1.36408 19.5236 1.35695 19.6086 1.38583C19.6923 1.41408 19.7573 1.4717 19.7973 1.5422L19.806 1.55583L19.8136 1.5717C19.8336 1.6092 19.8511 1.6522 19.8586 1.7052C19.8961 1.9567 19.8836 3.02645 19.8836 3.02645L19.9423 5.24545L20.0298 7.8066Z" fill="#0F5BC8"/>
</g>
</g>
<defs>
<clipPath id="clip0_7_1019">
<rect width="30" height="30" fill="white"/>
</clipPath>
</defs>
</svg>
