<svg width="50" height="34" viewBox="0 0 50 34" fill="none" xmlns="http://www.w3.org/2000/svg">
<g clip-path="url(#clip0_7_1025)">
<path d="M42.0072 33.334V17.9916C42.0072 14.7899 40.6452 13.1749 37.9465 13.1749C35.2338 13.1749 33.8692 14.7757 33.8692 17.9916V33.334H25.8763V17.9916C25.8763 14.7899 24.5423 13.1749 21.8715 13.1749C19.1588 13.1749 17.8109 14.7757 17.8109 17.9916V33.334H9.81525V17.0848C9.81525 13.7414 11.0069 11.2057 13.3847 9.4916C15.475 7.96168 18.3188 7.1825 21.8854 7.1825C25.4995 7.1825 28.1676 8.08922 29.8783 9.9024C31.3602 8.08922 34.0422 7.1825 37.9465 7.1825C41.5132 7.1825 44.3431 7.94744 46.4334 9.4916C48.8112 11.2057 50 13.7414 50 17.0848V33.334H42.0072Z" fill="#F98012"/>
<path d="M25.3433 6.00665L33.2775 0.339918L33.1771 0C18.8575 1.71411 12.3437 2.9323 0 9.91657L0.114381 10.2283L1.10234 10.2423C1.01582 11.2056 0.856771 13.5856 1.05771 17.1838C-0.304204 21.0513 1.02975 23.6864 2.27724 26.5481C2.48097 23.5731 2.4503 20.3148 1.52375 17.0705C1.33398 13.5148 1.49302 11.1632 1.57954 10.2565L9.76219 10.3274C9.76219 10.3274 9.70356 12.7356 10.0105 15.0165C17.3197 17.524 24.6763 15.0022 28.5778 8.82564C27.4754 7.62141 25.3433 6.00665 25.3433 6.00665Z" fill="#333333"/>
</g>
<defs>
<clipPath id="clip0_7_1025">
<rect width="50" height="34" fill="white"/>
</clipPath>
</defs>
</svg>
