<svg width="30" height="30" viewBox="0 0 30 30" fill="none" xmlns="http://www.w3.org/2000/svg">
<g clip-path="url(#clip0_12_198)">
<mask id="mask0_12_198" style="mask-type:luminance" maskUnits="userSpaceOnUse" x="0" y="5" width="30" height="20">
<path d="M30 5H0V25H30V5Z" fill="white"/>
</mask>
<g mask="url(#mask0_12_198)">
<path d="M25.2043 24.6082V15.5833C25.2043 13.6999 24.3871 12.7499 22.7679 12.7499C21.1403 12.7499 20.3215 13.6916 20.3215 15.5833V24.6082H15.5258V15.5833C15.5258 13.6999 14.7254 12.7499 13.1229 12.7499C11.4953 12.7499 10.6865 13.6916 10.6865 15.5833V24.6082H5.88916V15.0499C5.88916 13.0832 6.60415 11.5916 8.03083 10.5833C9.28501 9.68332 10.9913 9.22498 13.1312 9.22498C15.2997 9.22498 16.9006 9.75834 17.927 10.8249C18.8161 9.75834 20.4253 9.22498 22.7679 9.22498C24.9079 9.22498 26.6059 9.67494 27.86 10.5833C29.2867 11.5916 30 13.0832 30 15.0499V24.6082H25.2043Z" fill="#F98012"/>
<path d="M15.206 8.53332L19.9665 5.19995L19.9063 5C11.3145 6.0083 7.40622 6.72488 0 10.8333L0.0686286 11.0166L0.661404 11.0249C0.609492 11.5915 0.514063 12.9915 0.634626 15.1081C-0.182522 17.3831 0.61785 18.9332 1.36634 20.6165C1.48858 18.8665 1.47018 16.9499 0.91425 15.0415C0.800388 12.9499 0.895812 11.5666 0.947724 11.0332L5.85731 11.0749C5.85731 11.0749 5.82214 12.4915 6.0063 13.8332C10.3918 15.3082 14.8058 13.8248 17.1467 10.1916C16.4852 9.48318 15.206 8.53332 15.206 8.53332Z" fill="#333333"/>
</g>
</g>
<defs>
<clipPath id="clip0_12_198">
<rect width="30" height="20" fill="white" transform="translate(0 5)"/>
</clipPath>
</defs>
</svg>
