<svg width="50" height="23" viewBox="0 0 50 23" fill="none" xmlns="http://www.w3.org/2000/svg">
<g style="mix-blend-mode:luminosity">
<path d="M25.0381 0C19.8555 0 15.4628 3.473 14.1013 8.1785C12.918 5.68263 10.3539 3.934 7.4005 3.934C3.33875 3.934 0 7.23438 0 11.2493C0 15.2641 3.33875 18.5659 7.4005 18.5659C10.3539 18.5659 12.918 16.8162 14.1013 14.3199C15.4628 19.0257 19.8555 22.5 25.0381 22.5C30.1824 22.5 34.5528 19.0782 35.949 14.4254C37.1541 16.865 39.6865 18.5659 42.598 18.5659C46.6596 18.5659 50 15.2641 50 11.2493C50 7.23438 46.6596 3.934 42.598 3.934C39.6865 3.934 37.1541 5.63375 35.949 8.073C34.5528 3.42063 30.1824 0 25.0381 0ZM25.0381 4.29413C28.9504 4.29413 32.0757 7.382 32.0757 11.2493C32.0757 15.1164 28.9504 18.2058 25.0381 18.2058C21.1257 18.2058 18.002 15.1164 18.002 11.2493C18.002 7.382 21.1257 4.29413 25.0381 4.29413ZM7.4005 8.22825C9.1145 8.22825 10.4583 9.55488 10.4583 11.2493C10.4583 12.9435 9.1145 14.2718 7.4005 14.2718C5.68638 14.2718 4.34425 12.9435 4.34425 11.2493C4.34425 9.55488 5.68638 8.22825 7.4005 8.22825ZM42.598 8.22825C44.3121 8.22825 45.6558 9.55488 45.6558 11.2493C45.6558 12.9435 44.3121 14.2718 42.598 14.2718C40.884 14.2718 39.5417 12.9435 39.5417 11.2493C39.5417 9.55488 40.884 8.22825 42.598 8.22825Z" fill="#0082C9"/>
</g>
</svg>
