<svg width="30" height="30" viewBox="0 0 30 30" fill="none" xmlns="http://www.w3.org/2000/svg">
<g style="mix-blend-mode:luminosity">
<path d="M15.0229 7.20001C11.9133 7.20001 9.27768 9.20663 8.46078 11.9254C7.7508 10.4833 6.21234 9.47299 4.4403 9.47299C2.00325 9.47299 0 11.3799 0 13.6996C0 16.0193 2.00325 17.927 4.4403 17.927C6.21234 17.927 7.7508 16.916 8.46078 15.4737C9.27768 18.1926 11.9133 20.2 15.0229 20.2C18.1094 20.2 20.7317 18.223 21.5694 15.5347C22.2925 16.9442 23.8119 17.927 25.5588 17.927C27.9958 17.927 30 16.0193 30 13.6996C30 11.3799 27.9958 9.47299 25.5588 9.47299C23.8119 9.47299 22.2925 10.4551 21.5694 11.8644C20.7317 9.17638 18.1094 7.20001 15.0229 7.20001ZM15.0229 9.68107C17.3702 9.68107 19.2454 11.4652 19.2454 13.6996C19.2454 15.9339 17.3702 17.7189 15.0229 17.7189C12.6754 17.7189 10.8012 15.9339 10.8012 13.6996C10.8012 11.4652 12.6754 9.68107 15.0229 9.68107ZM4.4403 11.9541C5.4687 11.9541 6.27498 12.7206 6.27498 13.6996C6.27498 14.6785 5.4687 15.4459 4.4403 15.4459C3.41183 15.4459 2.60655 14.6785 2.60655 13.6996C2.60655 12.7206 3.41183 11.9541 4.4403 11.9541ZM25.5588 11.9541C26.5873 11.9541 27.3935 12.7206 27.3935 13.6996C27.3935 14.6785 26.5873 15.4459 25.5588 15.4459C24.5304 15.4459 23.725 14.6785 23.725 13.6996C23.725 12.7206 24.5304 11.9541 25.5588 11.9541Z" fill="#0082C9"/>
</g>
</svg>
