<svg width="30" height="30" viewBox="0 0 30 30" fill="none" xmlns="http://www.w3.org/2000/svg">
<g clip-path="url(#clip0_7_1033)">
<path d="M14.9999 30C12.034 30 9.13254 29.1205 6.66588 27.4718C4.19927 25.8237 2.27627 23.4811 1.14182 20.7403C0.00736156 17.9994 -0.291627 14.9834 0.289193 12.0736C0.86754 9.16398 2.29614 6.49128 4.39451 4.39335C6.49038 2.29566 9.16464 0.867066 12.0737 0.28813C14.9827 -0.29056 18.0005 0.0066237 20.739 1.14196C23.48 2.27704 25.823 4.1998 27.4715 6.66648C29.1201 9.13314 30 12.0332 30 14.9999C30 18.9782 28.4206 22.7936 25.6055 25.6067C22.7929 28.4195 18.9791 30 14.9999 30ZM14.9999 23.8C16.7399 23.8 18.4429 23.2838 19.8888 22.3168C21.3371 21.35 22.4641 19.9756 23.1289 18.3676C23.7963 16.7597 23.9693 14.9903 23.6307 13.2832C23.2921 11.5763 22.4542 10.0082 21.2234 8.7774C19.9925 7.54674 18.4231 6.7086 16.7177 6.369C15.0098 6.02946 13.2402 6.20388 11.6312 6.86982C10.0247 7.53594 8.65056 8.66394 7.68414 10.1109C6.71532 11.5581 6.20112 13.2596 6.20112 14.9999C6.20112 17.334 7.12812 19.5723 8.77662 21.2227C10.4276 22.873 12.6668 23.8 14.9999 23.8Z" fill="#A24689"/>
</g>
<defs>
<clipPath id="clip0_7_1033">
<rect width="30" height="30" fill="white"/>
</clipPath>
</defs>
</svg>
