<svg width="50" height="50" viewBox="0 0 50 50" fill="none" xmlns="http://www.w3.org/2000/svg">
<path d="M24.9999 50C20.0567 50 15.2209 48.5341 11.1098 45.7864C6.99878 43.0395 3.79378 39.1351 1.90303 34.5671C0.0122695 29.999 -0.486044 24.9724 0.481989 20.1227C1.4459 15.2733 3.8269 10.8188 7.32418 7.32225C10.8173 3.8261 15.2744 1.44511 20.1228 0.480217C24.9712 -0.484266 30.0008 0.0110395 34.565 1.90326C39.1333 3.79506 43.0384 6.99966 45.7859 11.1108C48.5335 15.2219 50 20.0553 50 24.9998C50 31.6303 47.3677 37.9893 42.6758 42.6778C37.9881 47.3658 31.6319 50 24.9999 50ZM24.9999 39.6667C27.8999 39.6667 30.7382 38.8064 33.148 37.1947C35.5619 35.5834 37.4402 33.2926 38.5482 30.6127C39.6605 27.9329 39.9488 24.9839 39.3845 22.1386C38.8201 19.2938 37.4237 16.6804 35.3723 14.629C33.3209 12.5779 30.7051 11.181 27.8628 10.615C25.0164 10.0491 22.067 10.3398 19.3854 11.4497C16.7078 12.5599 14.4176 14.4399 12.8069 16.8515C11.1922 19.2635 10.3352 22.0994 10.3352 24.9998C10.3352 28.89 11.8802 32.6205 14.6277 35.3711C17.3794 38.1216 21.1113 39.6667 24.9999 39.6667Z" fill="#A24689"/>
</svg>
