<svg width="50" height="28" viewBox="0 0 50 28" fill="none" xmlns="http://www.w3.org/2000/svg">
<g style="mix-blend-mode:luminosity">
<path d="M24.9868 6.88351C21.6932 6.88351 18.7505 8.36608 16.8066 10.692C16.0877 9.60622 15.6699 8.30865 15.6699 6.91473C15.6699 3.09581 18.8068 0 22.6764 0C26.5459 0 29.683 3.09581 29.683 6.91473C29.683 7.25878 29.6574 7.59703 29.6082 7.9277C28.2115 7.25865 26.6435 6.88351 24.9868 6.88351Z" fill="#1D2D44"/>
<path d="M30.4818 8.3975C31.0219 8.72129 31.5303 9.09129 32.0013 9.5021C32.7865 10.1867 33.4681 10.9844 34.0199 11.8694C35.0174 11.4314 36.1161 11.1772 37.2716 11.1502C36.7254 7.91021 33.8967 5.43196 30.4713 5.37939C30.5712 5.87588 30.6236 6.38926 30.6236 6.9148C30.6236 7.42169 30.5749 7.91737 30.4818 8.3975Z" fill="#1D2D44"/>
<path d="M16.2109 11.4767C15.4516 10.4304 14.9466 9.19214 14.785 7.84998C14.6311 7.85254 14.4784 7.85957 14.3268 7.87092C13.6005 7.92565 12.903 8.0816 12.2485 8.32416C11.7738 8.50024 11.3219 8.72187 10.898 8.98376C9.79148 9.66754 8.87675 10.6254 8.25162 11.7612C8.02797 12.1674 7.84148 12.5965 7.69634 13.0438C7.46324 13.7627 7.33743 14.529 7.33743 15.3244C7.33743 17.575 8.34513 19.5932 9.93959 20.9638C10.6285 19.4632 12.0639 18.3677 13.778 18.1384C13.9865 18.1105 14.1992 18.0955 14.4151 18.094C14.3973 17.8461 14.3882 17.5957 14.3882 17.3432C14.3882 15.169 15.0604 13.1497 16.2109 11.4767Z" fill="#1D2D44"/>
<path d="M14.5241 19.0229C14.4989 19.0225 14.4738 19.0222 14.4487 19.0222C14.2828 19.0222 14.1193 19.0322 13.9588 19.0515C12.4716 19.2303 11.2361 20.2132 10.7118 21.5461C10.5935 21.8467 10.5114 22.1651 10.4707 22.496C10.4514 22.6537 10.4414 22.8141 10.4414 22.9769C10.4414 23.8915 10.756 24.7336 11.2842 25.4034C12.0173 26.3334 13.1622 26.9317 14.4487 26.9317C15.8816 26.9317 17.1389 26.1894 17.8473 25.0732C16.1187 23.5175 14.9137 21.4049 14.5241 19.0229Z" fill="#1D2D44"/>
<path d="M15.5892 3.36035C15.1107 3.14779 14.5799 3.02954 14.0211 3.02954C11.9085 3.02954 10.1958 4.71981 10.1958 6.80468C10.1958 7.28387 10.2864 7.74224 10.4514 8.164C11.6999 7.40495 13.162 6.95508 14.7281 6.92251V6.91481C14.7281 5.63535 15.0387 4.42738 15.5892 3.36035Z" fill="#1D2D44"/>
<path d="M43.3878 25.6009C44.9932 24.0725 45.9919 21.9271 45.9919 19.5516C45.9919 19.2439 45.9757 18.9401 45.9432 18.641C45.9595 18.6409 45.9757 18.6407 45.9932 18.6407C48.2054 18.6407 50 20.4114 50 22.5956C50 24.7798 48.2054 26.5505 45.9932 26.5505C44.9987 26.5505 44.0878 26.1929 43.3878 25.6009Z" fill="#1D2D44"/>
<path d="M32.4615 24.7566C32.3911 24.8256 32.3199 24.8936 32.2477 24.9606C33.6072 26.2409 35.4485 27.027 37.4761 27.027C41.6595 27.027 45.0513 23.6801 45.0513 19.5516C45.0513 15.4229 41.6595 12.076 37.4761 12.076C36.4108 12.076 35.397 12.2931 34.4774 12.6847C35.1857 14.0874 35.5841 15.6694 35.5841 17.3431C35.5841 20.2313 34.3977 22.8459 32.4797 24.7386C32.4737 24.7446 32.4676 24.7506 32.4615 24.7566Z" fill="#1D2D44"/>
<path d="M6.72108 13.0161C2.98379 13.1641 0 16.2008 0 19.9254C0 23.7444 3.13702 26.8403 7.00675 26.8403C8.27892 26.8403 9.47176 26.5057 10.5001 25.9208C9.87244 25.1023 9.5 24.0825 9.5 22.9768C9.5 22.6098 9.54108 22.2521 9.61891 21.9081C7.65513 20.3687 6.39581 17.9915 6.39581 15.3242C6.39581 14.5238 6.50933 13.7495 6.72108 13.0161Z" fill="#1D2D44"/>
<path d="M34.6453 17.3431C34.6453 22.6066 30.3211 26.8735 24.9873 26.8735C19.6535 26.8735 15.3295 22.6066 15.3295 17.3431C15.3295 12.0791 19.6537 7.81189 24.9873 7.81189C30.3209 7.81189 34.6453 12.0791 34.6453 17.3431Z" fill="#1D2D44"/>
</g>
</svg>
