<svg width="30" height="30" viewBox="0 0 30 30" fill="none" xmlns="http://www.w3.org/2000/svg">
<g clip-path="url(#clip0_12_117)">
<g style="mix-blend-mode:luminosity">
<path d="M14.9921 10.1301C13.016 10.1301 11.2503 11.0196 10.084 12.4152C9.65266 11.7637 9.40198 10.9852 9.40198 10.1488C9.40198 7.85749 11.2841 6 13.6059 6C15.9276 6 17.8098 7.85749 17.8098 10.1488C17.8098 10.3553 17.7945 10.5582 17.765 10.7566C16.9269 10.3552 15.9861 10.1301 14.9921 10.1301Z" fill="#1D2D44"/>
<path d="M18.2891 11.0385C18.6131 11.2328 18.9182 11.4548 19.2008 11.7013C19.6719 12.112 20.0809 12.5907 20.4119 13.1217C21.0104 12.8589 21.6697 12.7063 22.363 12.6901C22.0352 10.7462 20.338 9.2592 18.2828 9.22766C18.3427 9.52556 18.3742 9.83358 18.3742 10.1489C18.3742 10.453 18.3449 10.7504 18.2891 11.0385Z" fill="#1D2D44"/>
<path d="M9.72655 12.886C9.27097 12.2582 8.96797 11.5153 8.87101 10.71C8.77867 10.7115 8.68705 10.7157 8.59609 10.7225C8.16031 10.7554 7.74181 10.8489 7.34911 10.9945C7.06429 11.1001 6.79315 11.2331 6.53881 11.3902C5.8749 11.8005 5.32606 12.3752 4.95098 13.0567C4.81679 13.3004 4.7049 13.5579 4.61781 13.8263C4.47795 14.2576 4.40247 14.7174 4.40247 15.1946C4.40247 16.545 5.00709 17.7559 5.96376 18.5783C6.37711 17.6779 7.23835 17.0206 8.26681 16.883C8.39191 16.8663 8.51953 16.8573 8.64907 16.8564C8.63839 16.7076 8.63293 16.5574 8.63293 16.4059C8.63293 15.1014 9.03625 13.8898 9.72655 12.886Z" fill="#1D2D44"/>
<path d="M8.71445 17.4138C8.69933 17.4135 8.68427 17.4133 8.66921 17.4133C8.56967 17.4133 8.47157 17.4193 8.37527 17.4309C7.48295 17.5382 6.74165 18.1279 6.42707 18.9277C6.35609 19.108 6.30683 19.2991 6.28241 19.4976C6.27083 19.5922 6.26483 19.6885 6.26483 19.7862C6.26483 20.3349 6.45359 20.8402 6.77051 21.2421C7.21037 21.8001 7.89731 22.159 8.66921 22.159C9.52895 22.159 10.2833 21.7137 10.7084 21.0439C9.67121 20.1105 8.94821 18.8429 8.71445 17.4138Z" fill="#1D2D44"/>
<path d="M9.35353 8.01623C9.06643 7.8887 8.74795 7.81775 8.41267 7.81775C7.14511 7.81775 6.11749 8.83191 6.11749 10.0828C6.11749 10.3703 6.17185 10.6454 6.27085 10.8984C7.01995 10.443 7.89721 10.1731 8.83687 10.1535V10.1489C8.83687 9.38124 9.02323 8.65645 9.35353 8.01623Z" fill="#1D2D44"/>
<path d="M26.0327 21.3606C26.996 20.4435 27.5952 19.1563 27.5952 17.731C27.5952 17.5464 27.5855 17.3641 27.566 17.1846C27.5757 17.1846 27.5855 17.1844 27.596 17.1844C28.9233 17.1844 30 18.2469 30 19.5574C30 20.8679 28.9233 21.9303 27.596 21.9303C26.9993 21.9303 26.4527 21.7158 26.0327 21.3606Z" fill="#1D2D44"/>
<path d="M19.4769 20.854C19.4347 20.8954 19.392 20.9362 19.3486 20.9764C20.1643 21.7445 21.2691 22.2162 22.4857 22.2162C24.9957 22.2162 27.0308 20.2081 27.0308 17.731C27.0308 15.2537 24.9957 13.2456 22.4857 13.2456C21.8465 13.2456 21.2382 13.3759 20.6865 13.6108C21.1114 14.4524 21.3505 15.4016 21.3505 16.4059C21.3505 18.1388 20.6386 19.7075 19.4878 20.8432C19.4842 20.8468 19.4806 20.8504 19.4769 20.854Z" fill="#1D2D44"/>
<path d="M4.03265 13.8097C1.79027 13.8985 0 15.7205 0 17.9553C0 20.2467 1.88221 22.1042 4.20405 22.1042C4.96735 22.1042 5.68306 21.9035 6.30006 21.5525C5.92346 21.0614 5.7 20.4495 5.7 19.7861C5.7 19.5659 5.72465 19.3513 5.77135 19.1449C4.59308 18.2213 3.83749 16.7949 3.83749 15.1946C3.83749 14.7143 3.9056 14.2497 4.03265 13.8097Z" fill="#1D2D44"/>
<path d="M20.7872 16.4059C20.7872 19.564 18.1927 22.1241 14.9924 22.1241C11.7921 22.1241 9.19769 19.564 9.19769 16.4059C9.19769 13.2475 11.7922 10.6871 14.9924 10.6871C18.1925 10.6871 20.7872 13.2475 20.7872 16.4059Z" fill="#1D2D44"/>
</g>
</g>
<defs>
<clipPath id="clip0_12_117">
<rect width="30" height="30" fill="white"/>
</clipPath>
</defs>
</svg>
