<svg width="30" height="30" viewBox="0 0 30 30" fill="none" xmlns="http://www.w3.org/2000/svg">
<g clip-path="url(#clip0_7_1046)">
<mask id="mask0_7_1046" style="mask-type:luminance" maskUnits="userSpaceOnUse" x="0" y="0" width="30" height="31">
<path d="M30 0H0V30.0013H30V0Z" fill="white"/>
</mask>
<g mask="url(#mask0_7_1046)">
<path d="M13.0631 11.7706C14.8556 11.7706 16.3094 10.3173 16.3094 8.5246C16.3094 6.73186 14.8556 5.27869 13.0631 5.27869C11.2705 5.27869 9.81665 6.73186 9.81665 8.5246C9.81665 10.3173 11.2705 11.7706 13.0631 11.7706Z" fill="#0095D3"/>
<path d="M22.911 15.0101C22.911 16.804 21.4596 18.2552 19.6645 18.2552C17.8745 18.2552 16.4195 16.8026 16.4195 15.0101C16.4195 13.216 17.8758 11.7648 19.6645 11.7648C21.4609 11.7641 22.911 13.2167 22.911 15.0101Z" fill="#0095D3"/>
<path d="M13.053 24.7597C14.8456 24.7597 16.2995 23.3064 16.2995 21.5137C16.2995 19.721 14.8456 18.2677 13.053 18.2677C11.2605 18.2677 9.80798 19.721 9.80798 21.5137C9.80798 23.3064 11.2605 24.7597 13.053 24.7597Z" fill="#0095D3"/>
<path d="M14.9993 0C6.71652 0.00075003 0.00125005 6.71616 0 15.0007C0.00125005 23.2845 6.71652 29.9998 14.9993 30.0013C23.2847 29.9998 29.9987 23.2859 30 15.0007C30 6.71616 23.2847 0.00075003 14.9993 0ZM23.4435 23.443C21.2771 25.6065 18.302 26.9396 14.9993 26.9404C11.698 26.9396 8.72286 25.605 6.5565 23.443C4.39393 21.2773 3.06138 18.3019 3.06013 15.0007C3.06138 11.6986 4.3939 8.72328 6.55776 6.55752C8.72286 4.39406 11.698 3.06088 15.0007 3.06013C18.302 3.06088 21.2784 4.39481 23.4435 6.55752C25.6073 8.724 26.9399 11.6994 26.9411 15.0007C26.9399 18.3019 25.6061 21.2773 23.4435 23.443Z" fill="#0095D3"/>
</g>
</g>
<defs>
<clipPath id="clip0_7_1046">
<rect width="30" height="30" fill="white"/>
</clipPath>
</defs>
</svg>

