<svg width="50" height="50" viewBox="0 0 50 50" fill="none" xmlns="http://www.w3.org/2000/svg">
<mask id="mask0_6_841" style="mask-type:luminance" maskUnits="userSpaceOnUse" x="0" y="0" width="50" height="51">
<path d="M50 0H0V50.0022H50V0Z" fill="white"/>
</mask>
<g mask="url(#mask0_6_841)">
<path d="M21.7718 19.6177C24.7594 19.6177 27.1824 17.1955 27.1824 14.2077C27.1824 11.2198 24.7594 8.79785 21.7718 8.79785C18.7842 8.79785 16.3611 11.2198 16.3611 14.2077C16.3611 17.1955 18.7842 19.6177 21.7718 19.6177Z" fill="#0095D3"/>
<path d="M38.185 25.0167C38.185 28.0066 35.766 30.4253 32.7742 30.4253C29.7908 30.4253 27.3658 28.0043 27.3658 25.0167C27.3658 22.0266 29.7929 19.6079 32.7742 19.6079C35.7681 19.6067 38.185 22.0278 38.185 25.0167Z" fill="#0095D3"/>
<path d="M21.755 41.2662C24.7426 41.2662 27.1658 38.844 27.1658 35.8562C27.1658 32.8684 24.7426 30.4462 21.755 30.4462C18.7674 30.4462 16.3466 32.8684 16.3466 35.8562C16.3466 38.844 18.7674 41.2662 21.755 41.2662Z" fill="#0095D3"/>
<path d="M24.9989 0C11.1942 0.00125005 0.00208342 11.1936 0 25.0011C0.00208342 38.8075 11.1942 49.9997 24.9989 50.0022C38.8078 49.9997 49.9979 38.8098 50 25.0011C50 11.1936 38.8078 0.00125005 24.9989 0ZM39.0725 39.0717C35.4619 42.6775 30.5033 44.8994 24.9989 44.9007C19.4966 44.8994 14.5381 42.675 10.9275 39.0717C7.32322 35.4622 5.1023 30.5032 5.10022 25.0011C5.1023 19.4977 7.32317 14.5388 10.9296 10.9292C14.5381 7.32344 19.4967 5.10147 25.0011 5.10022C30.5034 5.10147 35.464 7.32469 39.0725 10.9292C42.6789 14.54 44.8999 19.499 44.9019 25.0011C44.8999 30.5032 42.6768 35.4622 39.0725 39.0717Z" fill="#0095D3"/>
</g>
</svg>
