<svg width="50" height="35" viewBox="0 0 50 35" fill="none" xmlns="http://www.w3.org/2000/svg">
<path d="M0 34.1106H10.8525L11.6276 24.8073L1.55004 22.4822L0 34.1106Z" fill="#4C4C4C"/>
<path d="M1.93756 20.9311L11.6276 23.2568L13.9526 15.1169L5.8127 10.8538L1.93756 20.9311Z" fill="#4C4C4C"/>
<path d="M6.58355 9.30282L14.336 13.5665L20.5383 9.30282L14.7235 2.71338L6.58355 9.30282Z" fill="#4C4C4C"/>
<path d="M50 34.1106H39.1474L38.3724 24.8073L48.4499 22.4822L50 34.1106Z" fill="#4C4C4C"/>
<path d="M48.0645 20.9311L38.3745 23.2568L36.0494 15.1169L44.1872 10.8538L48.0645 20.9311Z" fill="#4C4C4C"/>
<path d="M43.4101 9.30258L35.6577 13.5663L29.4574 9.30258L35.2702 2.71313L43.4101 9.30258Z" fill="#4C4C4C"/>
<path d="M16.6674 1.55048L22.4822 8.52744H27.9074L32.9472 1.55048L27.9074 0H22.3446L16.6674 1.55048Z" fill="#4C4C4C"/>
<path d="M0 34.1106H10.8525L11.6276 24.8073L1.55004 22.4822L0 34.1106Z" fill="#9C0000"/>
<path d="M1.93756 20.9311L11.6276 23.2568L13.9526 15.1169L5.8127 10.8538L1.93756 20.9311Z" fill="#B50808"/>
<path d="M6.58355 9.30282L14.336 13.5665L20.5383 9.30282L14.7235 2.71338L6.58355 9.30282Z" fill="#C61818"/>
<path d="M50 34.1106H39.1474L38.3724 24.8073L48.4499 22.4822L50 34.1106Z" fill="#9C0000"/>
<path d="M48.0645 20.9311L38.3745 23.2568L36.0494 15.1169L44.1872 10.8538L48.0645 20.9311Z" fill="#B50808"/>
<path d="M43.4101 9.30258L35.6577 13.5663L29.4574 9.30258L35.2702 2.71313L43.4101 9.30258Z" fill="#C61818"/>
<path d="M16.6674 1.55048L22.4822 8.52744H27.9074L32.9472 1.55048L27.9074 0H22.3446L16.6674 1.55048Z" fill="#CE3129"/>
</svg>
