<svg width="30" height="30" viewBox="0 0 30 30" fill="none" xmlns="http://www.w3.org/2000/svg">
<mask id="mask0_12_214" style="mask-type:luminance" maskUnits="userSpaceOnUse" x="0" y="5" width="30" height="21">
<path d="M30 5H0V26H30V5Z" fill="white"/>
</mask>
<g mask="url(#mask0_12_214)">
<path d="M0 25.4664H6.5115L6.97656 19.8844L0.930024 18.4894L0 25.4664Z" fill="#4C4C4C"/>
<path d="M1.16254 17.5587L6.97656 18.9541L8.37156 14.0702L3.48762 11.5123L1.16254 17.5587Z" fill="#4C4C4C"/>
<path d="M3.95013 10.5817L8.6016 13.1399L12.323 10.5817L8.8341 6.62805L3.95013 10.5817Z" fill="#4C4C4C"/>
<path d="M30 25.4664H23.4884L23.0234 19.8844L29.0699 18.4894L30 25.4664Z" fill="#4C4C4C"/>
<path d="M28.8387 17.5587L23.0247 18.9541L21.6296 14.0702L26.5123 11.5123L28.8387 17.5587Z" fill="#4C4C4C"/>
<path d="M26.0461 10.5816L21.3946 13.1398L17.6744 10.5816L21.1621 6.62793L26.0461 10.5816Z" fill="#4C4C4C"/>
<path d="M10.0004 5.93029L13.4893 10.1165H16.7444L19.7683 5.93029L16.7444 5H13.4067L10.0004 5.93029Z" fill="#4C4C4C"/>
<path d="M0 25.4664H6.5115L6.97656 19.8844L0.930024 18.4894L0 25.4664Z" fill="#9C0000"/>
<path d="M1.16254 17.5587L6.97656 18.9541L8.37156 14.0702L3.48762 11.5123L1.16254 17.5587Z" fill="#B50808"/>
<path d="M3.95013 10.5817L8.6016 13.1399L12.323 10.5817L8.8341 6.62805L3.95013 10.5817Z" fill="#C61818"/>
<path d="M30 25.4664H23.4884L23.0234 19.8844L29.0699 18.4894L30 25.4664Z" fill="#9C0000"/>
<path d="M28.8387 17.5587L23.0247 18.9541L21.6296 14.0702L26.5123 11.5123L28.8387 17.5587Z" fill="#B50808"/>
<path d="M26.0461 10.5816L21.3946 13.1398L17.6744 10.5816L21.1621 6.62793L26.0461 10.5816Z" fill="#C61818"/>
<path d="M10.0004 5.93029L13.4893 10.1165H16.7444L19.7683 5.93029L16.7444 5H13.4067L10.0004 5.93029Z" fill="#CE3129"/>
</g>
</svg>
