<svg width="50" height="50" viewBox="0 0 50 50" fill="none" xmlns="http://www.w3.org/2000/svg">
<mask id="mask0_6_867" style="mask-type:luminance" maskUnits="userSpaceOnUse" x="0" y="0" width="50" height="50">
<path d="M50 0H0V50H50V0Z" fill="white"/>
</mask>
<g mask="url(#mask0_6_867)">
<mask id="mask1_6_867" style="mask-type:luminance" maskUnits="userSpaceOnUse" x="0" y="0" width="50" height="50">
<path d="M50 0H0V50H50V0Z" fill="white"/>
</mask>
<g mask="url(#mask1_6_867)">
<mask id="mask2_6_867" style="mask-type:luminance" maskUnits="userSpaceOnUse" x="0" y="0" width="50" height="50">
<path d="M50 0H0V50H50V0Z" fill="white"/>
</mask>
<g mask="url(#mask2_6_867)">
<path d="M23.4375 29.6875C31.6354 29.6875 38.2812 23.0417 38.2812 14.8437C38.2812 6.64583 31.6354 0 23.4375 0C15.2396 0 8.59375 6.64583 8.59375 14.8437C8.59375 23.0417 15.2396 29.6875 23.4375 29.6875Z" fill="#036C70"/>
<path d="M37.3042 40.625C44.3167 40.625 50 34.941 50 27.9298C50 20.9183 44.3167 15.2344 37.3042 15.2344C30.2938 15.2344 24.6083 20.9183 24.6083 27.9298C24.6083 34.941 30.2938 40.625 37.3042 40.625Z" fill="#1A9BA1"/>
<path d="M25 50C30.6083 50 35.1562 45.4529 35.1562 39.8437C35.1562 34.2346 30.6083 29.6875 25 29.6875C19.3917 29.6875 14.8438 34.2346 14.8438 39.8437C14.8438 45.4529 19.3917 50 25 50Z" fill="#37C6D0"/>
<path opacity="0.1" d="M26.0417 10.9375H9.11458C8.51458 13.1396 8.43123 15.4502 8.87082 17.6896C9.3104 19.9292 10.2583 22.0375 11.6438 23.851C13.0292 25.6646 14.8146 27.1346 16.8583 28.1465C18.9042 29.1587 21.1562 29.686 23.4375 29.6875C23.8708 29.6875 24.2979 29.6673 24.7208 29.6312L24.7312 29.6904C22.0854 29.7608 19.5708 30.861 17.7229 32.7575C15.8771 34.654 14.8437 37.1965 14.8437 39.8437C14.8437 40.1062 14.8521 40.3673 14.8729 40.625H26.0417C26.5937 40.6233 27.1229 40.4035 27.5125 40.0133C27.9041 39.6229 28.1229 39.094 28.125 38.5423V13.0204C28.1229 12.4683 27.9041 11.9396 27.5125 11.5494C27.1229 11.1592 26.5937 10.9392 26.0417 10.9375Z" fill="black"/>
<path opacity="0.2" d="M24.4792 12.5H8.77708C8.44166 14.6204 8.56668 16.7887 9.14793 18.8556C9.73127 20.9227 10.7521 22.839 12.1458 24.4725C13.5396 26.1062 15.2709 27.4183 17.2209 28.3185C19.1688 29.219 21.2896 29.686 23.4375 29.6875C23.8708 29.6875 24.2979 29.6673 24.7208 29.6312L24.7313 29.6904C23.2208 29.7317 21.7396 30.109 20.3938 30.7946C19.0479 31.4802 17.8729 32.4573 16.9521 33.6542C16.0312 34.8515 15.3875 36.2387 15.0708 37.7152C14.7521 39.1921 14.7688 40.7208 15.1146 42.1904H24.4792C25.0313 42.189 25.5604 41.9685 25.9521 41.5777C26.3417 41.1867 26.5625 40.6571 26.5625 40.1048V14.5829C26.5604 14.0308 26.3417 13.5021 25.95 13.1119C25.5604 12.7217 25.0313 12.5017 24.4792 12.5Z" fill="black"/>
<path opacity="0.2" d="M24.4792 12.5H8.77708C8.44166 14.6204 8.56668 16.7887 9.14793 18.8556C9.73127 20.9227 10.7521 22.839 12.1458 24.4725C13.5396 26.1062 15.2709 27.4183 17.2209 28.3185C19.1688 29.219 21.2896 29.686 23.4375 29.6875C23.8708 29.6875 24.2979 29.6673 24.7208 29.6312L24.7313 29.6904C22.2188 29.7571 19.8208 30.7523 18 32.4838C16.1792 34.2152 15.0667 36.5602 14.8729 39.0654H24.4792C25.0313 39.064 25.5604 38.8435 25.9521 38.4527C26.3417 38.0617 26.5625 37.5321 26.5625 36.9798V14.5829C26.5604 14.0308 26.3417 13.5021 25.95 13.1119C25.5604 12.7217 25.0313 12.5017 24.4792 12.5Z" fill="black"/>
<path opacity="0.2" d="M22.9167 12.5H8.77708C8.44166 14.6204 8.56668 16.7887 9.14793 18.8556C9.73127 20.9227 10.7521 22.839 12.1458 24.4725C13.5396 26.1062 15.2709 27.4183 17.2209 28.3185C19.1688 29.219 21.2896 29.686 23.4375 29.6875C23.8708 29.6875 24.2979 29.6673 24.7208 29.6312L24.7313 29.6904C22.2188 29.7571 19.8208 30.7523 18 32.4838C16.1792 34.2152 15.0667 36.5602 14.8729 39.0654H22.9167C23.4688 39.064 23.9979 38.8435 24.3896 38.4527C24.7792 38.0617 25 37.5321 25 36.9798V14.5829C24.9979 14.0308 24.7792 13.5021 24.3875 13.1119C23.9979 12.7217 23.4688 12.5017 22.9167 12.5Z" fill="black"/>
<path d="M22.9167 12.5H2.08333C0.933333 12.5 0 13.4325 0 14.5829V35.4173C0 36.5675 0.933333 37.5 2.08333 37.5H22.9167C24.0667 37.5 25 36.5675 25 35.4173V14.5829C25 13.4325 24.0667 12.5 22.9167 12.5Z" fill="#038387"/>
<path d="M9.39581 24.8437C8.84997 24.4831 8.39164 24.002 8.05831 23.4375C7.73539 22.8445 7.57291 22.1768 7.58958 21.5014C7.5625 20.5902 7.87083 19.7006 8.45625 19.0014C9.07083 18.3002 9.86666 17.7808 10.7583 17.5C11.7729 17.166 12.8354 17.0012 13.9021 17.0125C15.3083 16.9608 16.7104 17.1577 18.0458 17.5937V20.5202C17.4667 20.1677 16.8333 19.9087 16.1708 19.7531C15.4562 19.577 14.7208 19.4883 13.9833 19.4889C13.2062 19.4587 12.4333 19.6195 11.7312 19.9577C11.4666 20.0723 11.2417 20.2614 11.0833 20.5018C10.9229 20.7425 10.8375 21.0241 10.8375 21.3125C10.8333 21.6691 10.9708 22.0131 11.2146 22.2718C11.5083 22.5752 11.8542 22.822 12.2354 23C12.6625 23.2083 13.3 23.49 14.1479 23.8452C14.2417 23.8743 14.3333 23.9108 14.4208 23.9545C15.2583 24.2814 16.0646 24.6793 16.8333 25.1437C17.4167 25.5025 17.9042 25.9948 18.2583 26.5795C18.6229 27.241 18.8021 27.9889 18.7729 28.7437C18.8146 29.6812 18.5271 30.6039 17.9625 31.3529C17.3979 32.0423 16.6437 32.5498 15.7917 32.8125C14.7917 33.1264 13.75 33.2783 12.7021 33.2625C11.7625 33.2666 10.825 33.1891 9.89998 33.0312C9.11665 32.907 8.35414 32.686 7.62706 32.3733V29.2795C8.32289 29.7764 9.10207 30.1466 9.92707 30.3733C10.7479 30.6287 11.6 30.7652 12.4583 30.7779C13.2541 30.8287 14.05 30.6602 14.7562 30.2904C14.9979 30.1535 15.2 29.9533 15.3375 29.711C15.475 29.4689 15.5437 29.1939 15.5375 28.9154C15.5375 28.72 15.5 28.5264 15.4271 28.3454C15.3521 28.1648 15.2437 28.0004 15.1042 27.8625C14.7542 27.5204 14.35 27.2397 13.9062 27.0312C13.3979 26.775 12.6479 26.4389 11.6521 26.0233C10.8625 25.7062 10.1083 25.311 9.39581 24.8437Z" fill="white"/>
</g>
</g>
</g>
</svg>
