<svg width="30" height="30" viewBox="0 0 30 30" fill="none" xmlns="http://www.w3.org/2000/svg">
<g clip-path="url(#clip0_7_1070)">
<mask id="mask0_7_1070" style="mask-type:luminance" maskUnits="userSpaceOnUse" x="0" y="0" width="30" height="30">
<path d="M30 0H0V30H30V0Z" fill="white"/>
</mask>
<g mask="url(#mask0_7_1070)">
<mask id="mask1_7_1070" style="mask-type:luminance" maskUnits="userSpaceOnUse" x="0" y="0" width="30" height="30">
<path d="M30 0H0V30H30V0Z" fill="white"/>
</mask>
<g mask="url(#mask1_7_1070)">
<mask id="mask2_7_1070" style="mask-type:luminance" maskUnits="userSpaceOnUse" x="0" y="0" width="30" height="30">
<path d="M30 0H0V30H30V0Z" fill="white"/>
</mask>
<g mask="url(#mask2_7_1070)">
<path d="M14.0625 17.8125C18.9812 17.8125 22.9687 13.825 22.9687 8.90622C22.9687 3.9875 18.9812 0 14.0625 0C9.14376 0 5.15625 3.9875 5.15625 8.90622C5.15625 13.825 9.14376 17.8125 14.0625 17.8125Z" fill="#036C70"/>
<path d="M22.3825 24.375C26.59 24.375 30 20.9646 30 16.7579C30 12.551 26.59 9.14062 22.3825 9.14062C18.1763 9.14062 14.765 12.551 14.765 16.7579C14.765 20.9646 18.1763 24.375 22.3825 24.375Z" fill="#1A9BA1"/>
<path d="M15 30C18.365 30 21.0937 27.2717 21.0937 23.9062C21.0937 20.5408 18.365 17.8125 15 17.8125C11.635 17.8125 8.90625 20.5408 8.90625 23.9062C8.90625 27.2717 11.635 30 15 30Z" fill="#37C6D0"/>
<path opacity="0.1" d="M15.625 6.5625H5.46877C5.10877 7.88376 5.05876 9.27012 5.32251 10.6138C5.58626 11.9575 6.155 13.2225 6.9863 14.3106C7.81754 15.3988 8.88878 16.2808 10.115 16.8879C11.3425 17.4952 12.6937 17.8116 14.0625 17.8125C14.3225 17.8125 14.5788 17.8004 14.8325 17.7787L14.8387 17.8142C13.2513 17.8565 11.7425 18.5166 10.6338 19.6545C9.52628 20.7924 8.90624 22.3179 8.90624 23.9062C8.90624 24.0637 8.91128 24.2204 8.92376 24.375H15.625C15.9562 24.374 16.2738 24.2421 16.5075 24.008C16.7425 23.7737 16.8738 23.4564 16.875 23.1254V7.81224C16.8738 7.48098 16.7425 7.16376 16.5075 6.92964C16.2738 6.69552 15.9562 6.56352 15.625 6.5625Z" fill="black"/>
<path opacity="0.2" d="M14.6875 7.5H5.26627C5.06501 8.77224 5.14003 10.0732 5.48878 11.3134C5.83878 12.5536 6.45128 13.7034 7.2875 14.6835C8.12378 15.6637 9.16256 16.451 10.3326 16.9911C11.5013 17.5314 12.7738 17.8116 14.0625 17.8125C14.3225 17.8125 14.5788 17.8004 14.8325 17.7787L14.8388 17.8142C13.9325 17.839 13.0438 18.0654 12.2363 18.4768C11.4288 18.8881 10.7238 19.4744 10.1713 20.1925C9.61874 20.9109 9.23252 21.7432 9.0425 22.6291C8.85128 23.5153 8.8613 24.4325 9.06878 25.3142H14.6875C15.0188 25.3134 15.3363 25.1811 15.5713 24.9466C15.805 24.712 15.9375 24.3943 15.9375 24.0629V8.74974C15.9363 8.41848 15.805 8.10126 15.57 7.86714C15.3363 7.63302 15.0188 7.50102 14.6875 7.5Z" fill="black"/>
<path opacity="0.2" d="M14.6875 7.5H5.26627C5.06501 8.77224 5.14003 10.0732 5.48878 11.3134C5.83878 12.5536 6.45128 13.7034 7.2875 14.6835C8.12378 15.6637 9.16256 16.451 10.3326 16.9911C11.5013 17.5314 12.7738 17.8116 14.0625 17.8125C14.3225 17.8125 14.5788 17.8004 14.8325 17.7787L14.8388 17.8142C13.3313 17.8543 11.8925 18.4514 10.8 19.4903C9.70754 20.5291 9.04004 21.9361 8.92376 23.4392H14.6875C15.0188 23.4384 15.3363 23.3061 15.5713 23.0716C15.805 22.837 15.9375 22.5193 15.9375 22.1879V8.74974C15.9363 8.41848 15.805 8.10126 15.57 7.86714C15.3363 7.63302 15.0188 7.50102 14.6875 7.5Z" fill="black"/>
<path opacity="0.2" d="M13.75 7.5H5.26627C5.06501 8.77224 5.14003 10.0732 5.48878 11.3134C5.83878 12.5536 6.45128 13.7034 7.2875 14.6835C8.12378 15.6637 9.16256 16.451 10.3326 16.9911C11.5013 17.5314 12.7738 17.8116 14.0625 17.8125C14.3225 17.8125 14.5788 17.8004 14.8325 17.7787L14.8388 17.8142C13.3313 17.8543 11.8925 18.4514 10.8 19.4903C9.70754 20.5291 9.04004 21.9361 8.92376 23.4392H13.75C14.0813 23.4384 14.3988 23.3061 14.6338 23.0716C14.8675 22.837 15 22.5193 15 22.1879V8.74974C14.9988 8.41848 14.8675 8.10126 14.6325 7.86714C14.3988 7.63302 14.0813 7.50102 13.75 7.5Z" fill="black"/>
<path d="M13.75 7.5H1.25C0.56 7.5 0 8.0595 0 8.74974V21.2504C0 21.9405 0.56 22.5 1.25 22.5H13.75C14.44 22.5 15 21.9405 15 21.2504V8.74974C15 8.0595 14.44 7.5 13.75 7.5Z" fill="#038387"/>
<path d="M5.63746 14.9062C5.30995 14.6898 5.03496 14.4012 4.83496 14.0625C4.64121 13.7067 4.54372 13.3061 4.55372 12.9008C4.53747 12.3541 4.72247 11.8203 5.07372 11.4008C5.44247 10.9801 5.91997 10.6685 6.45495 10.5C7.06371 10.2996 7.70121 10.2007 8.34123 10.2075C9.18495 10.1765 10.0262 10.2946 10.8275 10.5562V12.3121C10.48 12.1006 10.1 11.9452 9.70245 11.8518C9.27369 11.7462 8.83245 11.693 8.38995 11.6933C7.92369 11.6752 7.45995 11.7717 7.03869 11.9746C6.87993 12.0434 6.74499 12.1568 6.64995 12.3011C6.55371 12.4455 6.50247 12.6144 6.50247 12.7875C6.49995 13.0014 6.58245 13.2078 6.72873 13.3631C6.90495 13.5451 7.11249 13.6932 7.34121 13.8C7.59747 13.925 7.97997 14.094 8.48871 14.3071C8.54499 14.3246 8.59995 14.3465 8.65245 14.3727C9.15495 14.5688 9.63873 14.8076 10.1 15.0862C10.45 15.3015 10.7425 15.5969 10.955 15.9477C11.1737 16.3446 11.2812 16.7933 11.2637 17.2462C11.2887 17.8087 11.1162 18.3623 10.7775 18.8117C10.4387 19.2254 9.98619 19.5299 9.47499 19.6875C8.87499 19.8758 8.24997 19.967 7.62123 19.9575C7.05747 19.9599 6.49497 19.9134 5.93996 19.8187C5.46996 19.7442 5.01246 19.6116 4.57621 19.424V17.5677C4.99371 17.8658 5.46121 18.0879 5.95621 18.224C6.44871 18.3772 6.95997 18.4591 7.47495 18.4667C7.95243 18.4972 8.42997 18.3961 8.85369 18.1742C8.99871 18.0921 9.11997 17.972 9.20247 17.8266C9.28497 17.6813 9.32619 17.5163 9.32247 17.3492C9.32247 17.232 9.29997 17.1158 9.25623 17.0072C9.21123 16.8989 9.14619 16.8002 9.06249 16.7175C8.85249 16.5122 8.60997 16.3438 8.34369 16.2187C8.03871 16.065 7.58871 15.8633 6.99123 15.614C6.51747 15.4237 6.06495 15.1866 5.63746 14.9062Z" fill="white"/>
</g>
</g>
</g>
</g>
<defs>
<clipPath id="clip0_7_1070">
<rect width="30" height="30" fill="white"/>
</clipPath>
</defs>
</svg>

