<svg width="30" height="30" viewBox="0 0 30 30" fill="none" xmlns="http://www.w3.org/2000/svg">
<g clip-path="url(#clip0_7_1092)">
<mask id="mask0_7_1092" style="mask-type:luminance" maskUnits="userSpaceOnUse" x="0" y="0" width="30" height="30">
<path d="M30 0H0V30H30V0Z" fill="white"/>
</mask>
<g mask="url(#mask0_7_1092)">
<path fill-rule="evenodd" clip-rule="evenodd" d="M19.925 20.3918V10.6952C19.925 10.5293 19.8588 10.3703 19.7413 10.253C19.6237 10.1359 19.465 10.07 19.3 10.07H9.61377V0.0609131H29.2976C29.3801 0.0609131 29.4613 0.0770399 29.5363 0.10854C29.6126 0.139915 29.6813 0.186038 29.7401 0.244038C29.7975 0.302163 29.8438 0.371038 29.875 0.446913C29.9062 0.522788 29.9225 0.604165 29.9225 0.686293V20.3918H19.925Z" fill="#8E75FF"/>
<path opacity="0.405" fill-rule="evenodd" clip-rule="evenodd" d="M9.61501 0.0609131V10.07H0.371257C0.310007 10.0699 0.248757 10.0517 0.197507 10.0173C0.146257 9.98291 0.106263 9.93419 0.0825127 9.87701C0.0587628 9.81989 0.0525129 9.75701 0.0650131 9.69641C0.0762631 9.63581 0.106264 9.58007 0.150014 9.53627L9.61501 0.0609131ZM19.925 29.6453V20.3918H29.9238L20.46 29.8663C20.4163 29.9099 20.36 29.9398 20.2987 29.9518C20.2387 29.9639 20.1763 29.9577 20.1187 29.934C20.0613 29.9104 20.0125 29.8703 19.9788 29.8189C19.9438 29.7676 19.9263 29.7072 19.925 29.6453ZM9.61501 10.07H19.6125C19.6963 10.07 19.775 10.1029 19.8338 10.1615C19.8925 10.2201 19.925 10.2996 19.925 10.3826V20.3918H10.24C10.1587 20.3918 10.0775 20.3755 10.0012 20.3442C9.92503 20.3127 9.85627 20.2667 9.79873 20.2085C9.73999 20.1505 9.69379 20.0815 9.66253 20.0058C9.63127 19.9299 9.61501 19.8485 9.61501 19.7664V10.07Z" fill="#8E75FF"/>
</g>
</g>
<defs>
<clipPath id="clip0_7_1092">
<rect width="30" height="30" fill="white"/>
</clipPath>
</defs>
</svg>
