<svg width="50" height="50" viewBox="0 0 50 50" fill="none" xmlns="http://www.w3.org/2000/svg">
<mask id="mask0_6_889" style="mask-type:luminance" maskUnits="userSpaceOnUse" x="0" y="0" width="50" height="50">
<path d="M50 0H0V50H50V0Z" fill="white"/>
</mask>
<g mask="url(#mask0_6_889)">
<path fill-rule="evenodd" clip-rule="evenodd" d="M33.2083 33.9862V17.8252C33.2083 17.5487 33.0979 17.2837 32.9021 17.0883C32.7062 16.8931 32.4417 16.7833 32.1667 16.7833H16.0229V0.10144H48.8292C48.9667 0.10144 49.1021 0.128318 49.2271 0.180818C49.3542 0.23311 49.4688 0.309981 49.5667 0.406648C49.6625 0.503523 49.7396 0.618315 49.7917 0.744773C49.8437 0.871232 49.8708 1.00686 49.8708 1.14374V33.9862H33.2083Z" fill="#8E75FF"/>
<path opacity="0.405" fill-rule="evenodd" clip-rule="evenodd" d="M16.025 0.10144V16.7833H0.618741C0.516658 16.7831 0.414574 16.7527 0.329158 16.6954C0.243741 16.6381 0.177084 16.5569 0.137501 16.4616C0.0979177 16.3664 0.0875012 16.2616 0.108335 16.1606C0.127085 16.0596 0.177086 15.9667 0.250003 15.8937L16.025 0.10144ZM33.2083 49.4087V33.9862H49.8729L34.1 49.7771C34.0271 49.8498 33.9333 49.8996 33.8312 49.9196C33.7312 49.9398 33.6271 49.9294 33.5312 49.89C33.4354 49.8506 33.3542 49.7837 33.2979 49.6981C33.2396 49.6125 33.2104 49.5119 33.2083 49.4087ZM16.025 16.7833H32.6875C32.8271 16.7833 32.9583 16.8381 33.0563 16.9358C33.1542 17.0335 33.2083 17.166 33.2083 17.3042V33.9862H17.0667C16.9312 33.9862 16.7958 33.9591 16.6687 33.9069C16.5417 33.8544 16.4271 33.7777 16.3312 33.6808C16.2333 33.5841 16.1563 33.4691 16.1042 33.3429C16.0521 33.2164 16.025 33.0808 16.025 32.9439V16.7833Z" fill="#8E75FF"/>
</g>
</svg>
