<svg width="30" height="30" viewBox="0 0 30 30" fill="none" xmlns="http://www.w3.org/2000/svg">
<g clip-path="url(#clip0_7_1099)">
<mask id="mask0_7_1099" style="mask-type:luminance" maskUnits="userSpaceOnUse" x="0" y="0" width="30" height="30">
<path d="M30 0H0V30H30V0Z" fill="white"/>
</mask>
<g mask="url(#mask0_7_1099)">
<path d="M30 12.8003H0V30.0003H30V12.8003Z" fill="#5D566A"/>
<path d="M15.1501 15.7C28.7086 15.7 39.7 10.9543 39.7 5.10009C39.7 -0.754112 28.7086 -5.49988 15.1501 -5.49988C1.59148 -5.49988 -9.3999 -0.754112 -9.3999 5.10009C-9.3999 10.9543 1.59148 15.7 15.1501 15.7Z" fill="#EA6552"/>
<path d="M10.7235 22.8488C10.7544 22.8488 10.7852 22.8548 10.8159 22.8676C10.8468 22.8781 10.8763 22.8976 10.9045 22.9253L11.4204 23.4683C11.1945 23.7638 10.911 23.9866 10.5696 24.1381C10.2308 24.2873 9.8291 24.3616 9.36452 24.3616C8.93846 24.3616 8.55602 24.2896 8.2172 24.1463C7.88096 24.0001 7.59482 23.7998 7.35866 23.5456C7.12508 23.2891 6.94538 22.9861 6.81962 22.6366C6.69392 22.2848 6.63098 21.9038 6.63098 21.4936C6.63098 21.0751 6.69902 20.6911 6.8351 20.3423C6.97112 19.9906 7.16228 19.6876 7.4087 19.4333C7.65512 19.1798 7.95026 18.9818 8.29418 18.8408C8.63816 18.6998 9.01676 18.6293 9.42992 18.6293C9.64046 18.6293 9.8381 18.6481 10.0229 18.6871C10.2102 18.7223 10.3848 18.7741 10.5465 18.8408C10.7082 18.9046 10.857 18.9833 10.9931 19.0756C11.1291 19.1678 11.2497 19.2683 11.355 19.3756L10.9161 19.9651C10.8879 20.0011 10.8545 20.0341 10.8159 20.0648C10.7775 20.0933 10.7235 20.1076 10.6542 20.1076C10.608 20.1076 10.5645 20.0971 10.5234 20.0768C10.4823 20.0558 10.4387 20.0318 10.3925 20.0033C10.3463 19.9726 10.2949 19.9403 10.2384 19.9073C10.1846 19.8713 10.1191 19.8391 10.0421 19.8106C9.9677 19.7798 9.87908 19.7543 9.77642 19.7341C9.6764 19.7131 9.55832 19.7033 9.4223 19.7033C9.20666 19.7033 9.00902 19.7431 8.82932 19.8226C8.65226 19.9021 8.4983 20.0191 8.36732 20.1728C8.23898 20.3243 8.13896 20.5118 8.06702 20.7346C7.99772 20.9558 7.9631 21.2086 7.9631 21.4936C7.9631 21.7808 8.00162 22.0366 8.0786 22.2593C8.15816 22.4828 8.26472 22.6718 8.39816 22.8256C8.53418 22.9771 8.6921 23.0926 8.87168 23.1721C9.05138 23.2516 9.24386 23.2913 9.44918 23.2913C9.56726 23.2913 9.67508 23.2861 9.77258 23.2756C9.8702 23.2628 9.96122 23.2441 10.046 23.2178C10.1307 23.1901 10.2102 23.1541 10.2846 23.1106C10.3591 23.0641 10.4348 23.0063 10.5118 22.9373C10.5426 22.9118 10.576 22.8908 10.6119 22.8758C10.6479 22.8578 10.6851 22.8488 10.7235 22.8488Z" fill="white"/>
<path d="M13.8134 21.3278C13.9905 21.3278 14.1406 21.3061 14.2638 21.2626C14.3896 21.2161 14.4923 21.1531 14.5718 21.0736C14.6514 20.9941 14.7091 20.9018 14.745 20.7968C14.781 20.6888 14.799 20.5733 14.799 20.4503C14.799 20.2036 14.7181 20.0108 14.5564 19.8728C14.3973 19.7341 14.1496 19.6643 13.8134 19.6643H13.2897V21.3278H13.8134ZM16.5777 24.3001H15.3996C15.1814 24.3001 15.0249 24.2176 14.9298 24.0534L13.9982 22.4251C13.9545 22.3561 13.9058 22.3058 13.8519 22.2751C13.7979 22.2413 13.721 22.2248 13.6209 22.2248H13.2897V24.3001H11.9885V18.6908H13.8134C14.2189 18.6908 14.5641 18.7328 14.849 18.8176C15.1365 18.9001 15.3701 19.0156 15.5497 19.1641C15.732 19.3133 15.8641 19.4888 15.9462 19.6913C16.0284 19.8946 16.0695 20.1151 16.0695 20.3536C16.0695 20.5358 16.0451 20.7083 15.9963 20.8696C15.9476 21.0316 15.8757 21.1816 15.7807 21.3203C15.6858 21.4561 15.5677 21.5783 15.4265 21.6856C15.2879 21.7936 15.1275 21.8821 14.9453 21.9518C15.03 21.9953 15.1095 22.0501 15.1839 22.1168C15.2584 22.1813 15.3252 22.2586 15.3842 22.3478L16.5777 24.3001Z" fill="white"/>
<path d="M23.3554 18.6908V24.3001H22.2081V21.0736C22.2081 20.9993 22.2094 20.9183 22.212 20.8313C22.2171 20.7436 22.2248 20.6551 22.2351 20.5658L20.7451 23.4488C20.6989 23.5388 20.6361 23.6071 20.5565 23.6536C20.4795 23.6993 20.3909 23.7226 20.2908 23.7226H20.1137C20.0136 23.7226 19.9238 23.6993 19.8442 23.6536C19.7672 23.6071 19.7056 23.5388 19.6594 23.4488L18.1695 20.5576C18.1772 20.6506 18.1836 20.7413 18.1887 20.8313C18.1938 20.9183 18.1964 20.9993 18.1964 21.0736V24.3001H17.0491V18.6908H18.0424C18.0989 18.6908 18.1476 18.6916 18.1887 18.6946C18.2324 18.6968 18.2709 18.7043 18.3042 18.7178C18.3376 18.7306 18.3671 18.7508 18.3927 18.7793C18.421 18.8048 18.4479 18.8423 18.4736 18.8911L19.9173 21.7358C19.9687 21.8333 20.0175 21.9346 20.0637 22.0403C20.1124 22.1453 20.1586 22.2533 20.2023 22.3636C20.2459 22.2503 20.2908 22.1401 20.337 22.0321C20.3858 21.9248 20.437 21.8221 20.491 21.7246L21.9309 18.8911C21.9566 18.8423 21.9822 18.8048 22.0079 18.7793C22.0362 18.7508 22.067 18.7306 22.1003 18.7178C22.1337 18.7043 22.1709 18.6968 22.212 18.6946C22.2556 18.6916 22.3056 18.6908 22.3621 18.6908H23.3554Z" fill="white"/>
<path d="M8.188 8.81993C8.16916 8.85293 8.14876 8.87693 8.12686 8.89271C8.10646 8.90693 8.08066 8.91371 8.04934 8.91371C8.0164 8.91371 7.9804 8.90243 7.94128 8.87843C7.9036 8.85371 7.85824 8.82593 7.8049 8.79671C7.75168 8.76671 7.68904 8.73971 7.61698 8.71643C7.54648 8.69171 7.4626 8.67893 7.36546 8.67893C7.27774 8.67893 7.201 8.69021 7.13518 8.71193C7.06936 8.73221 7.01374 8.76143 6.96838 8.79893C6.92446 8.83643 6.89158 8.88143 6.86968 8.93471C6.84766 8.98643 6.83674 9.04421 6.83674 9.10643C6.83674 9.18671 6.85864 9.25343 6.9025 9.30671C6.94798 9.35993 7.0075 9.40493 7.08118 9.44243C7.15474 9.47993 7.23856 9.51371 7.33258 9.54371C7.4266 9.57371 7.5229 9.60593 7.6216 9.63971C7.7203 9.67271 7.81666 9.71243 7.91068 9.75743C8.0047 9.80171 8.08846 9.85793 8.16214 9.92693C8.23576 9.99443 8.2945 10.0769 8.33836 10.1759C8.38384 10.2742 8.40658 10.3942 8.40658 10.5352C8.40658 10.6889 8.37994 10.8329 8.3266 10.9679C8.27494 11.1007 8.19814 11.2177 8.09638 11.3182C7.99606 11.4164 7.87306 11.4952 7.72738 11.5529C7.5817 11.6092 7.41484 11.6377 7.2268 11.6377C7.11874 11.6377 7.01224 11.6264 6.90724 11.6047C6.80224 11.5844 6.7012 11.5544 6.60406 11.5154C6.50854 11.4764 6.41848 11.4292 6.33388 11.3744C6.24928 11.3197 6.17404 11.2582 6.10828 11.1907L6.29386 10.8877C6.30958 10.8659 6.32986 10.8479 6.355 10.8337C6.38008 10.8179 6.40666 10.8104 6.43486 10.8104C6.47404 10.8104 6.51634 10.8269 6.56176 10.8599C6.60724 10.8907 6.66124 10.9259 6.72394 10.9657C6.78664 11.0047 6.85948 11.0407 6.94246 11.0737C7.02706 11.1052 7.1281 11.1202 7.24564 11.1202C7.42576 11.1202 7.5652 11.0782 7.6639 10.9934C7.7626 10.9072 7.81198 10.7842 7.81198 10.6244C7.81198 10.5352 7.78924 10.4624 7.74388 10.4062C7.69996 10.3499 7.64116 10.3027 7.5676 10.2652C7.49398 10.2262 7.4101 10.1932 7.31614 10.1662C7.22218 10.1399 7.12654 10.1107 7.0294 10.0792C6.93226 10.0484 6.83674 10.0109 6.74278 9.96671C6.6487 9.92321 6.56494 9.86543 6.49126 9.79493C6.41764 9.72443 6.35806 9.63671 6.3127 9.53171C6.26884 9.42521 6.24688 9.29471 6.24688 9.13943C6.24688 9.01571 6.27118 8.89493 6.31978 8.77793C6.36988 8.66021 6.44194 8.55593 6.5359 8.46521C6.62998 8.37443 6.74584 8.30171 6.88378 8.24621C7.0216 8.19143 7.17988 8.16443 7.35844 8.16443C7.55896 8.16443 7.74388 8.19593 7.91308 8.25821C8.08228 8.32121 8.22634 8.40893 8.34544 8.52143L8.188 8.81993Z" fill="white"/>
<path d="M11.5947 11.0903C11.7169 11.0903 11.8258 11.07 11.9214 11.0288C12.0185 10.9883 12.1 10.9313 12.1657 10.8578C12.2316 10.7835 12.2817 10.6943 12.3162 10.5893C12.3522 10.4843 12.3702 10.3673 12.3702 10.2368V8.20203H13.0024V10.2368C13.0024 10.4393 12.9694 10.626 12.9037 10.7985C12.8394 10.9695 12.7462 11.1173 12.624 11.2425C12.5034 11.3663 12.3561 11.4638 12.1822 11.5343C12.0083 11.6033 11.8125 11.6378 11.5947 11.6378C11.3754 11.6378 11.1787 11.6033 11.0049 11.5343C10.831 11.4638 10.6829 11.3663 10.5607 11.2425C10.4401 11.1173 10.3468 10.9695 10.2811 10.7985C10.2168 10.626 10.1847 10.4393 10.1847 10.2368V8.20203H10.8169V10.2345C10.8169 10.365 10.8341 10.482 10.8685 10.587C10.9046 10.692 10.9555 10.782 11.0213 10.8578C11.0887 10.9313 11.1701 10.9883 11.2657 11.0288C11.3629 11.07 11.4725 11.0903 11.5947 11.0903Z" fill="white"/>
<path d="M15.6188 11.6003H14.9843V8.20203H15.6188V11.6003Z" fill="white"/>
<path d="M20.022 8.72103H18.9975V11.6003H18.3653V8.72103H17.3407V8.20203H20.022V8.72103Z" fill="white"/>
<path d="M22.3702 8.70453V9.64731H23.5594V10.1333H22.3702V11.0948H23.8789V11.6003H21.7357V8.20203H23.8789V8.70453H22.3702Z" fill="white"/>
</g>
</g>
<defs>
<clipPath id="clip0_7_1099">
<rect width="30" height="30" fill="white"/>
</clipPath>
</defs>
</svg>
