<svg width="50" height="50" viewBox="0 0 50 50" fill="none" xmlns="http://www.w3.org/2000/svg">
<mask id="mask0_6_946" style="mask-type:luminance" maskUnits="userSpaceOnUse" x="0" y="0" width="50" height="50">
<path d="M50 0H0V50H50V0Z" fill="white"/>
</mask>
<g mask="url(#mask0_6_946)">
<path d="M50 21.3337H0V50.0004H50V21.3337Z" fill="#5D566A"/>
<path d="M25.25 26.1667C47.8476 26.1667 66.1666 18.2571 66.1666 8.50012C66.1666 -1.25689 47.8476 -9.1665 25.25 -9.1665C2.65237 -9.1665 -15.6666 -1.25689 -15.6666 8.50012C-15.6666 18.2571 2.65237 26.1667 25.25 26.1667Z" fill="#EA6552"/>
<path d="M17.8725 38.0813C17.9239 38.0813 17.9753 38.0913 18.0265 38.1126C18.0779 38.1301 18.1271 38.1626 18.1741 38.2088L19.034 39.1138C18.6575 39.6063 18.1849 39.9776 17.6159 40.2301C17.0513 40.4788 16.3818 40.6026 15.6075 40.6026C14.8974 40.6026 14.26 40.4826 13.6953 40.2438C13.1349 40.0001 12.658 39.6663 12.2644 39.2426C11.8751 38.8151 11.5756 38.3101 11.366 37.7276C11.1565 37.1413 11.0516 36.5063 11.0516 35.8226C11.0516 35.1251 11.165 34.4851 11.3918 33.9038C11.6185 33.3176 11.9371 32.8126 12.3478 32.3888C12.7585 31.9663 13.2504 31.6363 13.8236 31.4013C14.3969 31.1663 15.0279 31.0488 15.7165 31.0488C16.0674 31.0488 16.3968 31.0801 16.7048 31.1451C17.017 31.2038 17.3079 31.2901 17.5774 31.4013C17.8469 31.5076 18.095 31.6388 18.3218 31.7926C18.5485 31.9463 18.7495 32.1138 18.9249 32.2926L18.1934 33.2751C18.1464 33.3351 18.0908 33.3901 18.0265 33.4413C17.9624 33.4888 17.8725 33.5126 17.757 33.5126C17.68 33.5126 17.6074 33.4951 17.5389 33.4613C17.4705 33.4263 17.3978 33.3863 17.3208 33.3388C17.2438 33.2876 17.1581 33.2338 17.064 33.1788C16.9743 33.1188 16.8651 33.0651 16.7368 33.0176C16.6128 32.9663 16.4651 32.9238 16.294 32.8901C16.1273 32.8551 15.9305 32.8388 15.7038 32.8388C15.3444 32.8388 15.015 32.9051 14.7155 33.0376C14.4204 33.1701 14.1638 33.3651 13.9455 33.6213C13.7316 33.8738 13.5649 34.1863 13.445 34.5576C13.3295 34.9263 13.2718 35.3476 13.2718 35.8226C13.2718 36.3013 13.336 36.7276 13.4643 37.0988C13.5969 37.4713 13.7745 37.7863 13.9969 38.0426C14.2236 38.2951 14.4868 38.4876 14.7861 38.6201C15.0856 38.7526 15.4064 38.8188 15.7486 38.8188C15.9454 38.8188 16.1251 38.8101 16.2876 38.7926C16.4503 38.7713 16.602 38.7401 16.7433 38.6963C16.8844 38.6501 17.017 38.5901 17.141 38.5176C17.2651 38.4401 17.3913 38.3438 17.5196 38.2288C17.571 38.1863 17.6266 38.1513 17.6865 38.1263C17.7464 38.0963 17.8084 38.0813 17.8725 38.0813Z" fill="white"/>
<path d="M23.0223 35.5462C23.3174 35.5462 23.5676 35.51 23.773 35.4375C23.9826 35.36 24.1538 35.255 24.2863 35.1225C24.4189 34.99 24.5151 34.8362 24.575 34.6612C24.635 34.4812 24.6649 34.2887 24.6649 34.0837C24.6649 33.6725 24.5301 33.3512 24.2606 33.1212C23.9954 32.89 23.5826 32.7737 23.0223 32.7737H22.1495V35.5462H23.0223ZM27.6294 40.5H25.6659C25.3023 40.5 25.0414 40.3625 24.883 40.0888L23.3303 37.375C23.2575 37.26 23.1763 37.1762 23.0864 37.125C22.9965 37.0687 22.8683 37.0412 22.7014 37.0412H22.1495V40.5H19.9808V31.1512H23.0223C23.6981 31.1512 24.2735 31.2212 24.7483 31.3625C25.2274 31.5 25.6168 31.6925 25.9161 31.94C26.2199 32.1887 26.4401 32.4812 26.577 32.8187C26.714 33.1575 26.7824 33.525 26.7824 33.9225C26.7824 34.2262 26.7418 34.5137 26.6605 34.7825C26.5793 35.0525 26.4594 35.3025 26.3011 35.5337C26.1429 35.76 25.9461 35.9637 25.7108 36.1425C25.4798 36.3225 25.2125 36.47 24.9088 36.5862C25.0499 36.6587 25.1825 36.75 25.3065 36.8612C25.4306 36.9687 25.5419 37.0975 25.6403 37.2462L27.6294 40.5Z" fill="white"/>
<path d="M38.9256 31.1512V40.5H37.0135V35.1225C37.0135 34.9987 37.0156 34.8637 37.0199 34.7187C37.0285 34.5725 37.0413 34.425 37.0584 34.2762L34.5751 39.0812C34.4981 39.2312 34.3934 39.345 34.2608 39.4225C34.1324 39.4987 33.9848 39.5375 33.818 39.5375H33.5228C33.356 39.5375 33.2063 39.4987 33.0736 39.4225C32.9453 39.345 32.8426 39.2312 32.7656 39.0812L30.2824 34.2625C30.2953 34.4175 30.3059 34.5687 30.3145 34.7187C30.323 34.8637 30.3273 34.9987 30.3273 35.1225V40.5H28.4151V31.1512H30.0706C30.1648 31.1512 30.246 31.1525 30.3145 31.1575C30.3873 31.1612 30.4514 31.1737 30.507 31.1962C30.5626 31.2175 30.6118 31.2512 30.6545 31.2987C30.7016 31.3412 30.7465 31.4037 30.7893 31.485L33.1955 36.2262C33.2811 36.3887 33.3624 36.5575 33.4394 36.7337C33.5206 36.9087 33.5976 37.0887 33.6704 37.2725C33.7431 37.0837 33.818 36.9 33.895 36.72C33.9763 36.5412 34.0617 36.37 34.1516 36.2075L36.5515 31.485C36.5943 31.4037 36.637 31.3412 36.6798 31.2987C36.7269 31.2512 36.7783 31.2175 36.8338 31.1962C36.8894 31.1737 36.9515 31.1612 37.0199 31.1575C37.0926 31.1525 37.176 31.1512 37.2701 31.1512H38.9256Z" fill="white"/>
<path d="M13.6465 14.6999C13.6151 14.7549 13.5811 14.7949 13.5446 14.8212C13.5106 14.8449 13.4676 14.8562 13.4154 14.8562C13.3605 14.8562 13.3005 14.8374 13.2353 14.7974C13.1725 14.7562 13.0969 14.7099 13.008 14.6612C12.9193 14.6112 12.8149 14.5662 12.6948 14.5274C12.5773 14.4862 12.4375 14.4649 12.2756 14.4649C12.1294 14.4649 12.0015 14.4837 11.8918 14.5199C11.7821 14.5537 11.6894 14.6024 11.6138 14.6649C11.5406 14.7274 11.4858 14.8024 11.4493 14.8912C11.4126 14.9774 11.3944 15.0737 11.3944 15.1774C11.3944 15.3112 11.4309 15.4224 11.504 15.5112C11.5798 15.5999 11.679 15.6749 11.8018 15.7374C11.9244 15.7999 12.0641 15.8562 12.2208 15.9062C12.3775 15.9562 12.538 16.0099 12.7025 16.0662C12.867 16.1212 13.0276 16.1874 13.1843 16.2624C13.341 16.3362 13.4806 16.4299 13.6034 16.5449C13.7261 16.6574 13.824 16.7949 13.8971 16.9599C13.9729 17.1237 14.0108 17.3237 14.0108 17.5587C14.0108 17.8149 13.9664 18.0549 13.8775 18.2799C13.7914 18.5012 13.6634 18.6962 13.4938 18.8637C13.3266 19.0274 13.1216 19.1587 12.8788 19.2549C12.636 19.3487 12.3579 19.3962 12.0445 19.3962C11.8644 19.3962 11.6869 19.3774 11.5119 19.3412C11.3369 19.3074 11.1685 19.2574 11.0066 19.1924C10.8474 19.1274 10.6973 19.0487 10.5563 18.9574C10.4153 18.8662 10.2899 18.7637 10.1803 18.6512L10.4896 18.1462C10.5158 18.1099 10.5496 18.0799 10.5915 18.0562C10.6333 18.0299 10.6776 18.0174 10.7246 18.0174C10.7899 18.0174 10.8604 18.0449 10.9361 18.0999C11.0119 18.1512 11.1019 18.2099 11.2064 18.2762C11.3109 18.3412 11.4323 18.4012 11.5706 18.4562C11.7116 18.5087 11.88 18.5337 12.0759 18.5337C12.3761 18.5337 12.6085 18.4637 12.773 18.3224C12.9375 18.1787 13.0198 17.9737 13.0198 17.7074C13.0198 17.5587 12.9819 17.4374 12.9063 17.3437C12.8331 17.2499 12.7351 17.1712 12.6125 17.1087C12.4898 17.0437 12.35 16.9887 12.1934 16.9437C12.0368 16.8999 11.8774 16.8512 11.7155 16.7987C11.5536 16.7474 11.3944 16.6849 11.2378 16.6112C11.081 16.5387 10.9414 16.4424 10.8186 16.3249C10.6959 16.2074 10.5966 16.0612 10.521 15.8862C10.4479 15.7087 10.4113 15.4912 10.4113 15.2324C10.4113 15.0262 10.4518 14.8249 10.5328 14.6299C10.6163 14.4337 10.7364 14.2599 10.893 14.1087C11.0498 13.9574 11.2429 13.8362 11.4728 13.7437C11.7025 13.6524 11.9663 13.6074 12.2639 13.6074C12.5981 13.6074 12.9063 13.6599 13.1883 13.7637C13.4703 13.8687 13.7104 14.0149 13.9089 14.2024L13.6465 14.6999Z" fill="white"/>
<path d="M19.3243 18.4838C19.528 18.4838 19.7094 18.45 19.8688 18.3813C20.0306 18.3138 20.1664 18.2188 20.276 18.0963C20.3858 17.9725 20.4693 17.8238 20.5268 17.6488C20.5868 17.4738 20.6168 17.2788 20.6168 17.0613V13.67H21.6704V17.0613C21.6704 17.3988 21.6155 17.71 21.5059 17.9975C21.3988 18.2825 21.2435 18.5288 21.0398 18.7375C20.8388 18.9438 20.5933 19.1063 20.3035 19.2238C20.0136 19.3388 19.6873 19.3963 19.3243 19.3963C18.9588 19.3963 18.631 19.3388 18.3413 19.2238C18.0514 19.1063 17.8046 18.9438 17.601 18.7375C17.3999 18.5288 17.2445 18.2825 17.1349 17.9975C17.0278 17.71 16.9743 17.3988 16.9743 17.0613V13.67H18.0279V17.0575C18.0279 17.275 18.0566 17.47 18.114 17.645C18.1741 17.82 18.259 17.97 18.3686 18.0963C18.4809 18.2188 18.6166 18.3138 18.776 18.3813C18.9379 18.45 19.1206 18.4838 19.3243 18.4838Z" fill="white"/>
<path d="M26.0311 19.3338H24.9736V13.67H26.0311V19.3338Z" fill="white"/>
<path d="M33.3699 14.535H31.6623V19.3338H30.6086V14.535H28.901V13.67H33.3699V14.535Z" fill="white"/>
<path d="M37.2835 14.5075V16.0788H39.2654V16.8888H37.2835V18.4913H39.798V19.3338H36.226V13.67H39.798V14.5075H37.2835Z" fill="white"/>
</g>
</svg>
