<svg width="30" height="30" viewBox="0 0 30 30" fill="none" xmlns="http://www.w3.org/2000/svg">
<g clip-path="url(#clip0_7_1114)">
<mask id="mask0_7_1114" style="mask-type:luminance" maskUnits="userSpaceOnUse" x="0" y="0" width="30" height="30">
<path d="M30 0H0V30H30V0Z" fill="white"/>
</mask>
<g mask="url(#mask0_7_1114)">
<path d="M9.43987 16.0925C8.16739 12.3041 7.12741 9.13416 7.12741 9.04842C7.12867 8.95932 7.45741 8.86518 7.89487 8.8287C8.79487 8.75382 9.21739 8.45208 8.92237 8.09496C8.75989 7.8987 8.46487 7.88358 6.48367 7.96932C5.24365 8.02308 4.22991 8.02242 4.22991 7.96818C4.22991 7.73004 5.1149 6.6327 6.04741 5.71606C8.43367 3.36969 11.6161 2.07419 14.9974 2.07419C16.5262 2.07419 17.6699 2.26769 19.2562 2.79519C20.5411 3.22269 22.5487 4.35644 23.3174 5.08906L23.6999 5.45431L23.0937 5.63194C22.3212 5.85794 21.6912 6.50196 21.4999 7.26108C21.3024 8.05194 21.5449 8.84868 22.4524 10.3816C24.0687 13.1134 24.0787 14.1962 22.5349 19.2992C21.9612 21.1952 21.4612 22.7777 21.4224 22.816C21.3849 22.8542 21.3224 22.7986 21.2836 22.6924C21.0724 22.1073 16.6537 8.95404 16.6537 8.9103C16.6537 8.88168 16.9174 8.85192 17.2399 8.8443C18.1936 8.82192 18.5174 8.68404 18.5174 8.29896V7.95996L14.7586 7.95318C11.8099 7.94784 10.9861 7.9848 10.9324 8.12532C10.7924 8.49234 11.0286 8.70768 11.6611 8.79108C12.0162 8.8377 12.3924 8.88744 12.4986 8.90154C12.6174 8.91744 13.0887 10.0016 13.7086 11.6898L14.7237 14.4523L13.3087 18.7183C12.5311 21.0646 11.8624 22.9834 11.8237 22.9826C11.7849 22.9816 10.7124 19.8811 9.43987 16.0925ZM21.3474 26.1335C21.3474 26.1138 22.2886 23.3873 23.4387 20.0746C26.0236 12.6331 26.1974 12.0079 26.2062 10.1131C26.2124 8.8503 26.2374 8.7003 26.4024 8.92806C26.7274 9.37344 27.3862 11.2307 27.6162 12.3492C27.8662 13.5709 27.9036 16.0337 27.6899 17.246C27.2136 19.9399 25.7712 22.615 23.8111 24.4355C22.7587 25.4129 21.3474 26.3858 21.3474 26.1335ZM8.09491 25.9186C5.0374 23.9507 2.93115 20.795 2.30365 17.246C2.07615 15.956 2.13115 13.6528 2.42241 12.2348C2.67241 11.0222 3.1949 9.57408 3.3324 9.7128C3.3924 9.77208 9.47491 26.4407 9.47491 26.5433C9.47491 26.7122 8.97865 26.4872 8.09491 25.9186ZM13.2762 27.8113C11.8486 27.6277 11.2324 27.4361 11.3212 27.203C11.3624 27.0953 12.2137 24.6218 13.2112 21.7066C14.2099 18.7912 15.0774 16.3124 15.1399 16.1982C15.2287 16.0358 15.2887 16.0812 15.4124 16.4059C16.0274 18.0188 19.2762 27.0298 19.2762 27.1237C19.2762 27.4103 16.1174 27.9942 14.7937 27.9524C14.4874 27.9428 13.8049 27.8793 13.2762 27.8113ZM17.4112 29.005C24.6074 27.746 29.8924 20.7908 29.0899 13.6367C28.6874 10.0488 27.3961 7.39866 24.8049 4.84194C22.0911 2.16444 18.7874 0.804438 14.9974 0.804438C12.3787 0.804438 9.93361 1.48519 7.65487 2.84869C6.23611 3.69744 4.08365 5.78544 3.1949 7.17408C-0.146348 12.3922 0.0711539 18.6566 3.76365 23.5848C6.90613 27.7802 12.2599 29.9063 17.4112 29.005ZM12.3261 29.8352C9.27241 29.2562 6.61117 27.8557 4.43491 25.6825C-1.36259 19.8904 -1.49261 10.5526 4.1424 4.59982C6.29617 2.32519 9.08863 0.783438 12.0912 0.212063C13.5774 -0.0706877 16.4174 -0.0706877 17.9024 0.212063C23.3574 1.25006 27.8624 5.40431 29.4099 10.8223C31.4587 17.9948 28.0374 25.4999 21.2712 28.6814C19.3924 29.5647 17.7674 29.9269 15.4111 29.9883C14.0224 30.0244 13.0774 29.9776 12.3261 29.8352Z" fill="#333333"/>
</g>
</g>
<defs>
<clipPath id="clip0_7_1114">
<rect width="30" height="30" fill="white"/>
</clipPath>
</defs>
</svg>
