<svg width="50" height="50" viewBox="0 0 50 50" fill="none" xmlns="http://www.w3.org/2000/svg">
<mask id="mask0_6_961" style="mask-type:luminance" maskUnits="userSpaceOnUse" x="0" y="0" width="50" height="50">
<path d="M50 0H0V50H50V0Z" fill="white"/>
</mask>
<g mask="url(#mask0_6_961)">
<path d="M15.7332 26.8209C13.6124 20.5068 11.8791 15.2236 11.8791 15.0807C11.8812 14.9322 12.4291 14.7753 13.1582 14.7145C14.6582 14.5897 15.3624 14.0868 14.8707 13.4916C14.5999 13.1645 14.1082 13.1393 10.8062 13.2822C8.73949 13.3718 7.04992 13.3707 7.04992 13.2803C7.04992 12.8834 8.52491 11.0545 10.0791 9.52677C14.0562 5.61615 19.3603 3.45698 24.9957 3.45698C27.5437 3.45698 29.4499 3.77948 32.0937 4.65865C34.2353 5.37115 37.5812 7.26073 38.8624 8.48177L39.4999 9.09052L38.4895 9.38656C37.202 9.76323 36.152 10.8366 35.8332 12.1018C35.5041 13.4199 35.9083 14.7478 37.4208 17.3026C40.1145 21.8557 40.1312 23.6603 37.5582 32.1653C36.602 35.3253 35.7687 37.9628 35.7041 38.0266C35.6416 38.0903 35.5374 37.9976 35.4728 37.8207C35.1207 36.8455 27.7562 14.9234 27.7562 14.8505C27.7562 14.8028 28.1958 14.7532 28.7333 14.7405C30.3228 14.7032 30.8624 14.4734 30.8624 13.8316V13.2666L24.5978 13.2553C19.6833 13.2464 18.3103 13.308 18.2207 13.5422C17.9874 14.1539 18.3811 14.5128 19.4353 14.6518C20.027 14.7295 20.6541 14.8124 20.8311 14.8359C21.0291 14.8624 21.8145 16.6693 22.8478 19.483L24.5395 24.0872L22.1812 31.1972C20.8853 35.1076 19.7707 38.3057 19.7062 38.3043C19.6416 38.3026 17.8541 33.1351 15.7332 26.8209ZM35.5791 43.5559C35.5791 43.523 37.1478 38.9789 39.0645 33.4576C43.3728 21.0551 43.6624 20.0132 43.677 16.8551C43.6874 14.7505 43.7291 14.5005 44.0041 14.8801C44.5457 15.6224 45.6437 18.7178 46.027 20.582C46.4437 22.6182 46.5061 26.7228 46.1499 28.7434C45.3561 33.2332 42.952 37.6916 39.6853 40.7259C37.9312 42.3549 35.5791 43.9764 35.5791 43.5559ZM13.4916 43.1976C8.39574 39.9178 4.88533 34.6584 3.8395 28.7434C3.46033 26.5934 3.552 22.7547 4.03742 20.3914C4.45409 18.3703 5.32491 15.9568 5.55408 16.188C5.65408 16.2868 15.7916 44.0678 15.7916 44.2389C15.7916 44.5203 14.9645 44.1453 13.4916 43.1976ZM22.127 46.3522C19.7478 46.0461 18.7208 45.7268 18.8687 45.3384C18.9374 45.1589 20.3562 41.0364 22.0187 36.1776C23.6832 31.3186 25.1291 27.1874 25.2332 26.997C25.3812 26.7264 25.4812 26.802 25.6874 27.3432C26.7124 30.0314 32.127 45.0497 32.127 45.2061C32.127 45.6839 26.8624 46.657 24.6562 46.5874C24.1458 46.5714 23.0082 46.4655 22.127 46.3522ZM29.0187 48.3416C41.0124 46.2434 49.8208 34.6514 48.4833 22.7278C47.8124 16.748 45.6603 12.3311 41.3416 8.0699C36.8186 3.6074 31.3124 1.34073 24.9957 1.34073C20.6312 1.34073 16.5561 2.47531 12.7582 4.74781C10.3936 6.1624 6.80616 9.6424 5.32491 11.9568C-0.243838 20.6536 0.118666 31.0943 6.27283 39.308C11.5103 46.3003 20.4332 49.8439 29.0187 48.3416ZM20.5436 49.7253C15.4541 48.7603 11.0187 46.4261 7.39159 42.8041C-2.27091 33.1507 -2.4876 17.5876 6.90407 7.66636C10.4937 3.87531 15.1478 1.30573 20.152 0.353438C22.6291 -0.117813 27.3624 -0.117813 29.8374 0.353438C38.9291 2.08344 46.4374 9.00719 49.0166 18.0372C52.4312 29.9914 46.7291 42.4999 35.452 47.8024C32.3207 49.2745 29.6124 49.8782 25.6853 49.9805C23.3707 50.0407 21.7957 49.9626 20.5436 49.7253Z" fill="#333333"/>
</g>
</svg>
