<svg width="928" height="689" viewBox="0 0 928 689" fill="none" xmlns="http://www.w3.org/2000/svg"><path fill="#000122" d="M0 0h928v689H0z"/><rect x="64.5" y="64.5" width="195" height="267" rx="11.5" fill="#3F434F" fill-opacity=".5"/><rect x="64.5" y="64.5" width="195" height="267" rx="11.5" stroke="#44437E"/><path d="M118.458 112.238v-2.556h2.358c.456 0 .846-.09 1.17-.27.336-.18.594-.432.774-.756.18-.336.27-.72.27-1.152 0-.456-.09-.846-.27-1.17-.18-.336-.438-.588-.774-.756-.324-.18-.714-.27-1.17-.27h-2.358v-2.556h2.214c1.116 0 2.07.186 2.862.558.804.372 1.416.9 1.836 1.584.432.684.648 1.506.648 2.466v.288c0 .936-.216 1.752-.648 2.448-.42.684-1.032 1.212-1.836 1.584-.792.372-1.746.558-2.862.558h-2.214ZM115.866 116v-13.248h2.952V116h-2.952Zm11.97 0v-13.14h2.898V116h-2.898Zm-1.17-11.016v-2.124h4.068v2.124h-4.068Zm10.051 11.322c-1.14 0-2.016-.366-2.628-1.098-.612-.744-.918-1.86-.918-3.348v-5.724h2.88v5.868c0 .528.15.948.45 1.26.3.312.702.468 1.206.468.516 0 .936-.162 1.26-.486.324-.324.486-.762.486-1.314v-5.796h2.88V116h-2.286v-4.158h.198c0 .996-.132 1.83-.396 2.502-.252.66-.63 1.152-1.134 1.476-.504.324-1.128.486-1.872.486h-.126Zm12.16 3.618c-.48 0-.972-.018-1.476-.054-.504-.036-.966-.084-1.386-.144v-2.43c.42.06.882.108 1.386.144.516.048.984.072 1.404.072.78 0 1.41-.09 1.89-.27.492-.18.852-.456 1.08-.828.228-.36.342-.828.342-1.404v-1.962l.522-1.152c-.024.876-.198 1.626-.522 2.25-.312.624-.75 1.104-1.314 1.44-.564.324-1.236.486-2.016.486-.672 0-1.284-.12-1.836-.36-.54-.252-1.002-.6-1.386-1.044-.384-.444-.678-.96-.882-1.548-.204-.6-.306-1.248-.306-1.944v-.414c0-.696.108-1.344.324-1.944.216-.6.528-1.122.936-1.566.408-.444.894-.786 1.458-1.026.564-.252 1.188-.378 1.872-.378.792 0 1.476.174 2.052.522.588.348 1.05.858 1.386 1.53.336.672.516 1.482.54 2.43l-.396.108v-4.302h2.286v8.694c0 1.212-.216 2.19-.648 2.934-.432.744-1.092 1.29-1.98 1.638-.876.348-1.986.522-3.33.522Zm.81-6.282c.444 0 .846-.096 1.206-.288.36-.204.642-.492.846-.864.216-.372.324-.822.324-1.35v-.522c0-.516-.114-.948-.342-1.296-.216-.36-.504-.63-.864-.81-.36-.192-.744-.288-1.152-.288-.48 0-.906.114-1.278.342-.372.228-.66.546-.864.954-.204.408-.306.888-.306 1.44 0 .564.102 1.05.306 1.458.216.396.504.702.864.918.372.204.792.306 1.26.306Zm8.11 2.358v-9.864h2.88V116h-2.88Zm-1.314-7.74v-2.124h4.194v2.124h-4.194Zm2.43-3.096c-.54 0-.942-.138-1.206-.414-.252-.288-.378-.648-.378-1.08 0-.444.126-.804.378-1.08.264-.288.666-.432 1.206-.432.54 0 .936.144 1.188.432.264.276.396.636.396 1.08 0 .432-.132.792-.396 1.08-.252.276-.648.414-1.188.414ZM163.34 116v-9.864h2.286v4.23h-.162c0-1.008.126-1.848.378-2.52.264-.672.66-1.176 1.188-1.512.528-.336 1.17-.504 1.926-.504h.126c1.152 0 2.028.378 2.628 1.134.612.744.918 1.878.918 3.402V116h-2.88v-5.796c0-.528-.156-.96-.468-1.296-.312-.336-.732-.504-1.26-.504-.54 0-.978.174-1.314.522-.324.336-.486.78-.486 1.332V116h-2.88Zm14.442 0 4.338-13.14h4.77l4.5 13.14h-3.06l-3.636-11.106.936.378h-2.322l.972-.378L180.734 116h-2.952Zm3.294-3.258.9-2.448h5.148l.918 2.448h-6.966Zm14.62-.504v-2.556h2.358c.456 0 .846-.09 1.17-.27.336-.18.594-.432.774-.756.18-.336.27-.72.27-1.152 0-.456-.09-.846-.27-1.17-.18-.336-.438-.588-.774-.756-.324-.18-.714-.27-1.17-.27h-2.358v-2.556h2.214c1.116 0 2.07.186 2.862.558.804.372 1.416.9 1.836 1.584.432.684.648 1.506.648 2.466v.288c0 .936-.216 1.752-.648 2.448-.42.684-1.032 1.212-1.836 1.584-.792.372-1.746.558-2.862.558h-2.214ZM193.104 116v-13.248h2.952V116h-2.952Zm12.042 0v-13.14h2.952V116h-2.952Z" fill="#F0F0FF"/><rect x="89.5" y="172.5" width="145" height="41" rx="11.5" stroke="#494B5B"/><path d="M159.32 198.288c-1.056 0-1.947-.203-2.672-.608-.715-.416-1.259-.992-1.632-1.728-.363-.747-.544-1.611-.544-2.592v-7.04h1.568v7.232c0 .651.123 1.227.368 1.728.256.491.629.875 1.12 1.152.491.277 1.088.416 1.792.416s1.296-.133 1.776-.4c.491-.277.859-.661 1.104-1.152.256-.501.384-1.083.384-1.744v-7.232h1.568v7.04c0 .981-.181 1.845-.544 2.592-.363.736-.901 1.312-1.616 1.728-.715.405-1.605.608-2.672.608Zm8.033-.288v-11.68h1.568V198h-1.568Z" fill="#F0F0FF"/><rect x="89.5" y="256.5" width="145" height="41" rx="11.5" stroke="#494B5B"/><path d="M141.196 282v-11.68h1.568V282h-1.568Zm1.248 0v-1.408h5.344V282h-5.344Zm11.105.288c-.747 0-1.403-.128-1.968-.384-.566-.256-1.046-.592-1.44-1.008-.384-.427-.678-.901-.88-1.424-.192-.523-.288-1.056-.288-1.6v-.288c0-.544.101-1.077.304-1.6.202-.533.501-1.008.896-1.424.394-.427.874-.763 1.44-1.008.565-.256 1.21-.384 1.936-.384.725 0 1.37.128 1.936.384.565.245 1.045.581 1.44 1.008.394.416.693.891.896 1.424.202.523.304 1.056.304 1.6v.288c0 .544-.102 1.077-.304 1.6-.192.523-.486.997-.88 1.424-.384.416-.859.752-1.424 1.008-.566.256-1.222.384-1.968.384Zm0-1.376c.64 0 1.184-.139 1.632-.416.458-.288.805-.672 1.04-1.152.245-.48.368-1.019.368-1.616 0-.608-.123-1.152-.368-1.632-.246-.48-.598-.859-1.056-1.136-.448-.277-.987-.416-1.616-.416-.619 0-1.158.139-1.616.416-.459.277-.811.656-1.056 1.136-.246.48-.368 1.024-.368 1.632 0 .597.117 1.136.352 1.616.245.48.592.864 1.04 1.152.458.277 1.008.416 1.648.416Zm10.108 4.416c-.395 0-.795-.016-1.2-.048-.395-.032-.773-.075-1.136-.128v-1.296c.384.053.784.096 1.2.128.427.043.827.064 1.2.064.779 0 1.397-.107 1.856-.32.469-.203.805-.528 1.008-.976.213-.437.32-1.003.32-1.696v-1.632l.512-1.216c-.032.864-.213 1.584-.544 2.16-.331.565-.763.992-1.296 1.28-.523.277-1.104.416-1.744.416-.597 0-1.147-.112-1.648-.336-.491-.235-.917-.555-1.28-.96-.352-.405-.629-.869-.832-1.392-.192-.533-.288-1.093-.288-1.68v-.288c0-.597.101-1.152.304-1.664.203-.523.485-.976.848-1.36.363-.384.795-.683 1.296-.896.512-.213 1.072-.32 1.68-.32.715 0 1.344.155 1.888.464.544.299.971.741 1.28 1.328.32.576.496 1.285.528 2.128l-.448.016v-3.648h1.216v7.536c0 1.024-.16 1.851-.48 2.48-.309.64-.811 1.109-1.504 1.408-.683.299-1.595.448-2.736.448Zm.464-4.672c.512 0 .976-.112 1.392-.336.427-.224.763-.544 1.008-.96.256-.427.384-.933.384-1.52v-.736c0-.576-.133-1.061-.4-1.456-.256-.395-.592-.693-1.008-.896-.416-.203-.869-.304-1.36-.304-.555 0-1.045.128-1.472.384-.427.256-.757.619-.992 1.088-.235.459-.352 1.003-.352 1.632s.117 1.179.352 1.648c.245.469.576.832.992 1.088.427.245.912.368 1.456.368Zm7.517 1.344v-8.544h1.536V282h-1.536Zm-1.312-7.328v-1.216h2.848v1.216h-2.848Zm1.744-2.592c-.341 0-.597-.091-.768-.272-.16-.181-.24-.411-.24-.688 0-.277.08-.507.24-.688.171-.181.427-.272.768-.272s.592.091.752.272c.171.181.256.411.256.688 0 .277-.085.507-.256.688-.16.181-.411.272-.752.272Zm7.738 10.208c-.736 0-1.376-.128-1.92-.384-.533-.256-.976-.597-1.328-1.024-.352-.437-.619-.917-.8-1.44-.171-.523-.256-1.045-.256-1.568v-.288c0-.544.085-1.077.256-1.6.181-.523.448-.992.8-1.408.363-.427.811-.768 1.344-1.024s1.157-.384 1.872-.384c.715 0 1.355.133 1.92.4.576.267 1.035.645 1.376 1.136.352.48.549 1.051.592 1.712h-1.472c-.075-.533-.32-.976-.736-1.328-.416-.363-.976-.544-1.68-.544-.608 0-1.115.139-1.52.416-.405.277-.709.656-.912 1.136-.203.48-.304 1.024-.304 1.632 0 .587.101 1.125.304 1.616.203.48.507.864.912 1.152.416.277.933.416 1.552.416.48 0 .896-.085 1.248-.256.352-.171.635-.4.848-.688.213-.288.341-.613.384-.976h1.472c-.032.672-.229 1.253-.592 1.744-.352.491-.821.875-1.408 1.152-.576.267-1.227.4-1.952.4Z" fill="#F0F0FF"/><path d="M259.47 114.97c-.293.293-.293.767 0 1.06l4.773 4.773c.293.293.767.293 1.06 0 .293-.293.293-.767 0-1.06l-4.242-4.243 4.242-4.243c.293-.293.293-.767 0-1.06-.293-.293-.767-.293-1.06 0l-4.773 4.773Zm69.06 1.06c.293-.293.293-.767 0-1.06l-4.773-4.773c-.293-.293-.767-.293-1.06 0-.293.293-.293.767 0 1.06l4.242 4.243-4.242 4.243c-.293.293-.293.767 0 1.06.293.293.767.293 1.06 0l4.773-4.773ZM260 115.5v.75h68v-1.5h-68v.75ZM259.47 279.97c-.293.293-.293.767 0 1.06l4.773 4.773c.293.293.767.293 1.06 0 .293-.293.293-.767 0-1.06l-4.242-4.243 4.242-4.243c.293-.293.293-.767 0-1.06-.293-.293-.767-.293-1.06 0l-4.773 4.773Zm69.06 1.06c.293-.293.293-.767 0-1.06l-4.773-4.773c-.293-.293-.767-.293-1.06 0-.293.293-.293.767 0 1.06l4.242 4.243-4.242 4.243c-.293.293-.293.767 0 1.06.293.293.767.293 1.06 0l4.773-4.773ZM260 280.5v.75h68v-1.5h-68v.75Z" fill="#7A7D94"/><rect x="328.5" y="64.5" width="272" height="101" rx="11.5" fill="#3F434F" fill-opacity=".5"/><rect x="328.5" y="64.5" width="272" height="101" rx="11.5" stroke="#44437E"/><path d="M420.958 102.238v-2.556h2.358c.456 0 .846-.09 1.17-.27.336-.18.594-.432.774-.756.18-.336.27-.72.27-1.152 0-.456-.09-.846-.27-1.17-.18-.336-.438-.588-.774-.756-.324-.18-.714-.27-1.17-.27h-2.358v-2.556h2.214c1.116 0 2.07.186 2.862.558.804.372 1.416.9 1.836 1.584.432.684.648 1.506.648 2.466v.288c0 .936-.216 1.752-.648 2.448-.42.684-1.032 1.212-1.836 1.584-.792.372-1.746.558-2.862.558h-2.214ZM418.366 106V92.752h2.952V106h-2.952Zm11.97 0V92.86h2.898V106h-2.898Zm-1.17-11.016V92.86h4.068v2.124h-4.068Zm10.051 11.322c-1.14 0-2.016-.366-2.628-1.098-.612-.744-.918-1.86-.918-3.348v-5.724h2.88v5.868c0 .528.15.948.45 1.26.3.312.702.468 1.206.468.516 0 .936-.162 1.26-.486.324-.324.486-.762.486-1.314v-5.796h2.88V106h-2.286v-4.158h.198c0 .996-.132 1.83-.396 2.502-.252.66-.63 1.152-1.134 1.476-.504.324-1.128.486-1.872.486h-.126Zm12.16 3.618c-.48 0-.972-.018-1.476-.054-.504-.036-.966-.084-1.386-.144v-2.43c.42.06.882.108 1.386.144.516.048.984.072 1.404.072.78 0 1.41-.09 1.89-.27.492-.18.852-.456 1.08-.828.228-.36.342-.828.342-1.404v-1.962l.522-1.152c-.024.876-.198 1.626-.522 2.25-.312.624-.75 1.104-1.314 1.44-.564.324-1.236.486-2.016.486-.672 0-1.284-.12-1.836-.36-.54-.252-1.002-.6-1.386-1.044-.384-.444-.678-.96-.882-1.548-.204-.6-.306-1.248-.306-1.944v-.414c0-.696.108-1.344.324-1.944.216-.6.528-1.122.936-1.566.408-.444.894-.786 1.458-1.026.564-.252 1.188-.378 1.872-.378.792 0 1.476.174 2.052.522.588.348 1.05.858 1.386 1.53.336.672.516 1.482.54 2.43l-.396.108v-4.302h2.286v8.694c0 1.212-.216 2.19-.648 2.934-.432.744-1.092 1.29-1.98 1.638-.876.348-1.986.522-3.33.522Zm.81-6.282c.444 0 .846-.096 1.206-.288.36-.204.642-.492.846-.864.216-.372.324-.822.324-1.35v-.522c0-.516-.114-.948-.342-1.296-.216-.36-.504-.63-.864-.81-.36-.192-.744-.288-1.152-.288-.48 0-.906.114-1.278.342-.372.228-.66.546-.864.954-.204.408-.306.888-.306 1.44 0 .564.102 1.05.306 1.458.216.396.504.702.864.918.372.204.792.306 1.26.306Zm8.11 2.358v-9.864h2.88V106h-2.88Zm-1.314-7.74v-2.124h4.194v2.124h-4.194Zm2.43-3.096c-.54 0-.942-.138-1.206-.414-.252-.288-.378-.648-.378-1.08 0-.444.126-.804.378-1.08.264-.288.666-.432 1.206-.432.54 0 .936.144 1.188.432.264.276.396.636.396 1.08 0 .432-.132.792-.396 1.08-.252.276-.648.414-1.188.414ZM465.84 106v-9.864h2.286v4.23h-.162c0-1.008.126-1.848.378-2.52.264-.672.66-1.176 1.188-1.512.528-.336 1.17-.504 1.926-.504h.126c1.152 0 2.028.378 2.628 1.134.612.744.918 1.878.918 3.402V106h-2.88v-5.796c0-.528-.156-.96-.468-1.296-.312-.336-.732-.504-1.26-.504-.54 0-.978.174-1.314.522-.324.336-.486.78-.486 1.332V106h-2.88Zm14.442 0 4.338-13.14h4.77l4.5 13.14h-3.06l-3.636-11.106.936.378h-2.322l.972-.378L483.234 106h-2.952Zm3.294-3.258.9-2.448h5.148l.918 2.448h-6.966Zm14.62-.504v-2.556h2.358c.456 0 .846-.09 1.17-.27.336-.18.594-.432.774-.756.18-.336.27-.72.27-1.152 0-.456-.09-.846-.27-1.17-.18-.336-.438-.588-.774-.756-.324-.18-.714-.27-1.17-.27h-2.358v-2.556h2.214c1.116 0 2.07.186 2.862.558.804.372 1.416.9 1.836 1.584.432.684.648 1.506.648 2.466v.288c0 .936-.216 1.752-.648 2.448-.42.684-1.032 1.212-1.836 1.584-.792.372-1.746.558-2.862.558h-2.214ZM495.604 106V92.752h2.952V106h-2.952Zm12.042 0V92.86h2.952V106h-2.952Z" fill="#F0F0FF"/><path d="M431.824 138.288c-.736 0-1.376-.128-1.92-.384-.534-.256-.976-.597-1.328-1.024-.352-.437-.619-.917-.8-1.44-.171-.523-.256-1.045-.256-1.568v-.288c0-.544.085-1.077.256-1.6.181-.523.448-.992.8-1.408.362-.427.81-.768 1.344-1.024.533-.256 1.157-.384 1.872-.384.714 0 1.354.133 1.92.4.576.267 1.034.645 1.376 1.136.352.48.549 1.051.592 1.712h-1.472c-.075-.533-.32-.976-.736-1.328-.416-.363-.976-.544-1.68-.544-.608 0-1.115.139-1.52.416-.406.277-.71.656-.912 1.136-.203.48-.304 1.024-.304 1.632 0 .587.101 1.125.304 1.616.202.48.506.864.912 1.152.416.277.933.416 1.552.416.48 0 .896-.085 1.248-.256.352-.171.634-.4.848-.688.213-.288.341-.613.384-.976h1.472c-.032.672-.23 1.253-.592 1.744-.352.491-.822.875-1.408 1.152-.576.267-1.227.4-1.952.4Zm11.207-.288v-2.56h-.256v-2.96c0-.587-.155-1.029-.464-1.328-.299-.299-.742-.448-1.328-.448-.331 0-.672.005-1.024.016s-.688.021-1.008.032c-.32.011-.598.027-.832.048v-1.344c.234-.021.48-.037.736-.048.266-.021.538-.032.816-.032.277-.011.544-.016.8-.016.874 0 1.589.107 2.144.32.554.203.965.539 1.232 1.008.266.469.4 1.104.4 1.904V138h-1.216Zm-2.8.224c-.64 0-1.195-.107-1.664-.32-.459-.224-.816-.544-1.072-.96-.246-.416-.368-.917-.368-1.504 0-.608.133-1.115.4-1.52.277-.405.677-.709 1.2-.912.522-.213 1.152-.32 1.888-.32h2.32v1.152h-2.384c-.619 0-1.094.149-1.424.448-.331.299-.496.683-.496 1.152 0 .469.165.848.496 1.136.33.288.805.432 1.424.432.362 0 .709-.064 1.04-.192.33-.139.602-.363.816-.672.224-.32.346-.757.368-1.312l.416.608c-.054.608-.203 1.12-.448 1.536-.235.405-.566.715-.992.928-.416.213-.923.32-1.52.32Zm6.931-.224v-11.68h1.536V138h-1.536Zm-1.184-10.464v-1.216h2.72v1.216h-2.72ZM451.74 138v-11.68h1.536V138h-1.536Zm-1.184-10.464v-1.216h2.72v1.216h-2.72Zm10.178 10.752c-.704 0-1.333-.155-1.888-.464-.544-.309-.976-.757-1.296-1.344-.32-.597-.496-1.312-.528-2.144h.416V138h-1.216v-11.68h1.536V132l-.544 1.168c.043-.928.229-1.685.56-2.272.331-.587.763-1.019 1.296-1.296.544-.288 1.141-.432 1.792-.432.608 0 1.163.117 1.664.352.501.224.933.539 1.296.944.363.395.64.859.832 1.392.192.523.288 1.088.288 1.696v.288c0 .608-.101 1.179-.304 1.712-.192.533-.475 1.008-.848 1.424-.373.405-.821.725-1.344.96-.512.235-1.083.352-1.712.352Zm-.176-1.344c.576 0 1.077-.139 1.504-.416.427-.277.757-.656.992-1.136.235-.491.352-1.056.352-1.696 0-.64-.123-1.2-.368-1.68-.235-.48-.565-.848-.992-1.104-.427-.267-.923-.4-1.488-.4-.512 0-.987.117-1.424.352-.437.224-.789.555-1.056.992-.256.427-.384.944-.384 1.552v.736c0 .587.133 1.088.4 1.504.267.416.619.736 1.056.96.437.224.907.336 1.408.336ZM472.421 138v-2.56h-.256v-2.96c0-.587-.154-1.029-.464-1.328-.298-.299-.741-.448-1.328-.448-.33 0-.672.005-1.024.016s-.688.021-1.008.032c-.32.011-.597.027-.832.048v-1.344c.235-.021.48-.037.736-.048.267-.021.539-.032.816-.032.278-.011.544-.016.8-.016.875 0 1.59.107 2.144.32.555.203.966.539 1.232 1.008.267.469.4 1.104.4 1.904V138h-1.216Zm-2.8.224c-.64 0-1.194-.107-1.664-.32-.458-.224-.816-.544-1.072-.96-.245-.416-.368-.917-.368-1.504 0-.608.134-1.115.4-1.52.278-.405.678-.709 1.2-.912.523-.213 1.152-.32 1.888-.32h2.32v1.152h-2.384c-.618 0-1.093.149-1.424.448-.33.299-.496.683-.496 1.152 0 .469.166.848.496 1.136.331.288.806.432 1.424.432.363 0 .71-.064 1.04-.192.331-.139.603-.363.816-.672.224-.32.347-.757.368-1.312l.416.608c-.053.608-.202 1.12-.448 1.536-.234.405-.565.715-.992.928-.416.213-.922.32-1.52.32Zm10.499.064c-.736 0-1.376-.128-1.92-.384-.533-.256-.976-.597-1.328-1.024-.352-.437-.618-.917-.8-1.44-.17-.523-.256-1.045-.256-1.568v-.288c0-.544.086-1.077.256-1.6.182-.523.448-.992.8-1.408.363-.427.811-.768 1.344-1.024.534-.256 1.158-.384 1.872-.384.715 0 1.355.133 1.92.4.576.267 1.035.645 1.376 1.136.352.48.55 1.051.592 1.712h-1.472c-.074-.533-.32-.976-.736-1.328-.416-.363-.976-.544-1.68-.544-.608 0-1.114.139-1.52.416-.405.277-.709.656-.912 1.136-.202.48-.304 1.024-.304 1.632 0 .587.102 1.125.304 1.616.203.48.507.864.912 1.152.416.277.934.416 1.552.416.48 0 .896-.085 1.248-.256.352-.171.635-.4.848-.688.214-.288.342-.613.384-.976h1.472c-.032.672-.229 1.253-.592 1.744-.352.491-.821.875-1.408 1.152-.576.267-1.226.4-1.952.4Zm11.928-.288-3.216-3.984h-1.408l3.92-4.56h1.616l-3.552 4.112.112-.816 4.304 5.248h-1.776Zm-5.888 0v-11.68h1.536V138h-1.536Zm11.846.256c-1.12 0-1.989-.24-2.608-.72-.608-.48-.922-1.136-.944-1.968h1.44c.022.331.187.645.496.944.32.288.859.432 1.616.432.683 0 1.206-.133 1.568-.4.363-.277.544-.613.544-1.008 0-.352-.133-.624-.4-.816-.266-.203-.698-.336-1.296-.4l-.928-.096c-.81-.085-1.472-.325-1.984-.72-.512-.405-.768-.971-.768-1.696 0-.544.139-1.008.416-1.392.278-.395.662-.693 1.152-.896.491-.213 1.056-.32 1.696-.32.96 0 1.739.213 2.336.64.598.427.907 1.061.928 1.904h-1.44c-.01-.341-.17-.629-.48-.864-.298-.245-.746-.368-1.344-.368-.597 0-1.05.123-1.36.368-.309.245-.464.555-.464.928 0 .32.107.576.32.768.224.192.587.315 1.088.368l.928.096c.918.096 1.654.352 2.208.768.555.405.832.981.832 1.728 0 .533-.154 1.008-.464 1.424-.298.405-.714.725-1.248.96-.533.224-1.146.336-1.84.336Z" fill="#7A7D94"/><rect x="328.5" y="230.5" width="272" height="101" rx="11.5" fill="#3F434F" fill-opacity=".5"/><rect x="328.5" y="230.5" width="272" height="101" rx="11.5" stroke="#44437E"/><path d="M412.335 272.342c-1.188 0-2.226-.204-3.114-.612-.876-.42-1.602-.966-2.178-1.638-.576-.684-1.008-1.422-1.296-2.214-.276-.792-.414-1.554-.414-2.286v-.396c0-.816.144-1.62.432-2.412.3-.804.744-1.53 1.332-2.178.588-.648 1.32-1.164 2.196-1.548.876-.396 1.89-.594 3.042-.594s2.166.198 3.042.594c.876.384 1.608.9 2.196 1.548.588.648 1.032 1.374 1.332 2.178.3.792.45 1.596.45 2.412v.396c0 .732-.144 1.494-.432 2.286-.288.792-.72 1.53-1.296 2.214-.576.672-1.308 1.218-2.196 1.638-.876.408-1.908.612-3.096.612Zm0-2.754c.624 0 1.182-.108 1.674-.324.504-.216.93-.516 1.278-.9.36-.384.63-.828.81-1.332.18-.504.27-1.044.27-1.62 0-.612-.096-1.17-.288-1.674-.18-.516-.45-.96-.81-1.332-.348-.384-.768-.678-1.26-.882-.492-.204-1.05-.306-1.674-.306-.624 0-1.182.102-1.674.306-.492.204-.918.498-1.278.882-.348.372-.612.816-.792 1.332-.18.504-.27 1.062-.27 1.674 0 .576.09 1.116.27 1.62.18.504.444.948.792 1.332.36.384.786.684 1.278.9.492.216 1.05.324 1.674.324Zm9.292 2.412v-10.134c0-1.14.318-1.986.954-2.538.648-.564 1.602-.846 2.862-.846h.918v2.178h-1.044c-.324 0-.576.09-.756.27-.168.18-.252.432-.252.756V272h-2.682Zm6.462 0v-10.026c0-1.14.324-1.986.972-2.538.648-.564 1.602-.846 2.862-.846h1.17v2.178h-1.296c-.324 0-.576.09-.756.27-.18.18-.27.432-.27.756V272h-2.682Zm6.696 0v-9.864h2.898V272h-2.898Zm-14.31-7.668v-2.106h12.366v2.106h-12.366Zm13.158-.072v-2.124h4.05v2.124h-4.05Zm2.286-3.096c-.54 0-.942-.138-1.206-.414-.252-.288-.378-.648-.378-1.08 0-.444.126-.804.378-1.08.264-.288.666-.432 1.206-.432.54 0 .936.144 1.188.432.252.276.378.636.378 1.08 0 .432-.126.792-.378 1.08-.252.276-.648.414-1.188.414Zm8.835 11.178c-.852 0-1.596-.138-2.232-.414-.624-.288-1.146-.672-1.566-1.152-.42-.48-.732-1.02-.936-1.62-.204-.612-.306-1.242-.306-1.89v-.342c0-.672.108-1.314.324-1.926.216-.624.534-1.176.954-1.656.42-.48.942-.858 1.566-1.134.636-.276 1.362-.414 2.178-.414.888 0 1.674.174 2.358.522.684.336 1.23.81 1.638 1.422.408.612.636 1.314.684 2.106h-2.826c-.048-.444-.228-.816-.54-1.116-.3-.312-.738-.468-1.314-.468-.48 0-.882.12-1.206.36-.312.24-.546.57-.702.99-.156.42-.234.918-.234 1.494 0 .528.072 1.008.216 1.44.144.42.372.75.684.99.324.228.744.342 1.26.342.384 0 .708-.066.972-.198.276-.144.492-.336.648-.576.168-.252.27-.54.306-.864h2.808c-.036.816-.264 1.536-.684 2.16-.42.612-.978 1.092-1.674 1.44-.696.336-1.488.504-2.376.504Zm11.094 0c-.84 0-1.584-.144-2.232-.432-.636-.288-1.17-.672-1.602-1.152-.42-.492-.744-1.038-.972-1.638-.216-.612-.324-1.236-.324-1.872v-.36c0-.66.108-1.29.324-1.89.228-.612.552-1.158.972-1.638.42-.48.942-.858 1.566-1.134.636-.288 1.356-.432 2.16-.432 1.056 0 1.944.24 2.664.72.732.468 1.29 1.086 1.674 1.854.384.756.576 1.584.576 2.484v.972h-8.73v-1.638h6.984l-.936.756c0-.588-.084-1.092-.252-1.512-.168-.42-.42-.738-.756-.954-.324-.228-.732-.342-1.224-.342-.504 0-.93.114-1.278.342-.348.228-.612.564-.792 1.008-.18.432-.27.966-.27 1.602 0 .588.084 1.104.252 1.548.168.432.432.768.792 1.008.36.24.828.36 1.404.36.528 0 .96-.102 1.296-.306.336-.204.564-.456.684-.756h2.646c-.144.66-.426 1.248-.846 1.764s-.948.918-1.584 1.206c-.636.288-1.368.432-2.196.432Zm14.633 0c-.996 0-1.86-.186-2.592-.558-.72-.384-1.278-.936-1.674-1.656-.384-.72-.576-1.596-.576-2.628v-.666h2.916v.828c0 .576.168 1.044.504 1.404.348.348.822.522 1.422.522.588 0 1.05-.174 1.386-.522.348-.36.522-.828.522-1.404v-6.588h2.952v6.426c0 1.032-.198 1.908-.594 2.628-.384.72-.942 1.272-1.674 1.656-.72.372-1.584.558-2.592.558Zm-3.312-10.908v-2.574h8.172v2.574h-8.172Zm15.473 10.908c-1.188 0-2.19-.186-3.006-.558-.816-.384-1.434-.9-1.854-1.548-.42-.66-.63-1.416-.63-2.268h2.862c0 .336.09.648.27.936.192.288.48.522.864.702.384.168.882.252 1.494.252.552 0 1.014-.072 1.386-.216.372-.144.654-.342.846-.594.192-.264.288-.564.288-.9 0-.42-.18-.75-.54-.99-.36-.252-.942-.414-1.746-.486l-.99-.09c-1.308-.108-2.352-.516-3.132-1.224-.78-.708-1.17-1.644-1.17-2.808 0-.84.198-1.566.594-2.178.408-.612.972-1.08 1.692-1.404.72-.336 1.572-.504 2.556-.504 1.032 0 1.914.18 2.646.54.744.348 1.314.846 1.71 1.494.396.636.594 1.386.594 2.25h-2.88c0-.324-.078-.618-.234-.882-.156-.276-.39-.498-.702-.666-.3-.168-.678-.252-1.134-.252-.432 0-.798.072-1.098.216-.288.144-.504.342-.648.594-.144.24-.216.504-.216.792 0 .372.132.696.396.972s.696.438 1.296.486l1.008.09c.96.084 1.806.294 2.538.63.732.324 1.302.774 1.71 1.35.42.564.63 1.254.63 2.07 0 .84-.222 1.578-.666 2.214-.432.624-1.05 1.11-1.854 1.458-.804.348-1.764.522-2.88.522Zm9.971-.342 4.338-13.14h4.77l4.5 13.14h-3.06l-3.636-11.106.936.378h-2.322l.972-.378L495.565 272h-2.952Zm3.294-3.258.9-2.448h5.148l.918 2.448h-6.966Zm14.62-.504v-2.556h2.358c.456 0 .846-.09 1.17-.27.336-.18.594-.432.774-.756.18-.336.27-.72.27-1.152 0-.456-.09-.846-.27-1.17-.18-.336-.438-.588-.774-.756-.324-.18-.714-.27-1.17-.27h-2.358v-2.556h2.214c1.116 0 2.07.186 2.862.558.804.372 1.416.9 1.836 1.584.432.684.648 1.506.648 2.466v.288c0 .936-.216 1.752-.648 2.448-.42.684-1.032 1.212-1.836 1.584-.792.372-1.746.558-2.862.558h-2.214ZM507.935 272v-13.248h2.952V272h-2.952Zm12.042 0v-13.14h2.952V272h-2.952Z" fill="#F0F0FF"/><path d="M431.824 304.288c-.736 0-1.376-.128-1.92-.384-.534-.256-.976-.597-1.328-1.024-.352-.437-.619-.917-.8-1.44-.171-.523-.256-1.045-.256-1.568v-.288c0-.544.085-1.077.256-1.6.181-.523.448-.992.8-1.408.362-.427.81-.768 1.344-1.024.533-.256 1.157-.384 1.872-.384.714 0 1.354.133 1.92.4.576.267 1.034.645 1.376 1.136.352.48.549 1.051.592 1.712h-1.472c-.075-.533-.32-.976-.736-1.328-.416-.363-.976-.544-1.68-.544-.608 0-1.115.139-1.52.416-.406.277-.71.656-.912 1.136-.203.48-.304 1.024-.304 1.632 0 .587.101 1.125.304 1.616.202.48.506.864.912 1.152.416.277.933.416 1.552.416.48 0 .896-.085 1.248-.256.352-.171.634-.4.848-.688.213-.288.341-.613.384-.976h1.472c-.032.672-.23 1.253-.592 1.744-.352.491-.822.875-1.408 1.152-.576.267-1.227.4-1.952.4Zm11.207-.288v-2.56h-.256v-2.96c0-.587-.155-1.029-.464-1.328-.299-.299-.742-.448-1.328-.448-.331 0-.672.005-1.024.016s-.688.021-1.008.032c-.32.011-.598.027-.832.048v-1.344c.234-.021.48-.037.736-.048.266-.021.538-.032.816-.032.277-.011.544-.016.8-.016.874 0 1.589.107 2.144.32.554.203.965.539 1.232 1.008.266.469.4 1.104.4 1.904V304h-1.216Zm-2.8.224c-.64 0-1.195-.107-1.664-.32-.459-.224-.816-.544-1.072-.96-.246-.416-.368-.917-.368-1.504 0-.608.133-1.115.4-1.52.277-.405.677-.709 1.2-.912.522-.213 1.152-.32 1.888-.32h2.32v1.152h-2.384c-.619 0-1.094.149-1.424.448-.331.299-.496.683-.496 1.152 0 .469.165.848.496 1.136.33.288.805.432 1.424.432.362 0 .709-.064 1.04-.192.33-.139.602-.363.816-.672.224-.32.346-.757.368-1.312l.416.608c-.054.608-.203 1.12-.448 1.536-.235.405-.566.715-.992.928-.416.213-.923.32-1.52.32Zm6.931-.224v-11.68h1.536V304h-1.536Zm-1.184-10.464v-1.216h2.72v1.216h-2.72ZM451.74 304v-11.68h1.536V304h-1.536Zm-1.184-10.464v-1.216h2.72v1.216h-2.72Zm10.178 10.752c-.704 0-1.333-.155-1.888-.464-.544-.309-.976-.757-1.296-1.344-.32-.597-.496-1.312-.528-2.144h.416V304h-1.216v-11.68h1.536V298l-.544 1.168c.043-.928.229-1.685.56-2.272.331-.587.763-1.019 1.296-1.296.544-.288 1.141-.432 1.792-.432.608 0 1.163.117 1.664.352.501.224.933.539 1.296.944.363.395.64.859.832 1.392.192.523.288 1.088.288 1.696v.288c0 .608-.101 1.179-.304 1.712-.192.533-.475 1.008-.848 1.424-.373.405-.821.725-1.344.96-.512.235-1.083.352-1.712.352Zm-.176-1.344c.576 0 1.077-.139 1.504-.416.427-.277.757-.656.992-1.136.235-.491.352-1.056.352-1.696 0-.64-.123-1.2-.368-1.68-.235-.48-.565-.848-.992-1.104-.427-.267-.923-.4-1.488-.4-.512 0-.987.117-1.424.352-.437.224-.789.555-1.056.992-.256.427-.384.944-.384 1.552v.736c0 .587.133 1.088.4 1.504.267.416.619.736 1.056.96.437.224.907.336 1.408.336ZM472.421 304v-2.56h-.256v-2.96c0-.587-.154-1.029-.464-1.328-.298-.299-.741-.448-1.328-.448-.33 0-.672.005-1.024.016s-.688.021-1.008.032c-.32.011-.597.027-.832.048v-1.344c.235-.021.48-.037.736-.048.267-.021.539-.032.816-.032.278-.011.544-.016.8-.016.875 0 1.59.107 2.144.32.555.203.966.539 1.232 1.008.267.469.4 1.104.4 1.904V304h-1.216Zm-2.8.224c-.64 0-1.194-.107-1.664-.32-.458-.224-.816-.544-1.072-.96-.245-.416-.368-.917-.368-1.504 0-.608.134-1.115.4-1.52.278-.405.678-.709 1.2-.912.523-.213 1.152-.32 1.888-.32h2.32v1.152h-2.384c-.618 0-1.093.149-1.424.448-.33.299-.496.683-.496 1.152 0 .469.166.848.496 1.136.331.288.806.432 1.424.432.363 0 .71-.064 1.04-.192.331-.139.603-.363.816-.672.224-.32.347-.757.368-1.312l.416.608c-.053.608-.202 1.12-.448 1.536-.234.405-.565.715-.992.928-.416.213-.922.32-1.52.32Zm10.499.064c-.736 0-1.376-.128-1.92-.384-.533-.256-.976-.597-1.328-1.024-.352-.437-.618-.917-.8-1.44-.17-.523-.256-1.045-.256-1.568v-.288c0-.544.086-1.077.256-1.6.182-.523.448-.992.8-1.408.363-.427.811-.768 1.344-1.024.534-.256 1.158-.384 1.872-.384.715 0 1.355.133 1.92.4.576.267 1.035.645 1.376 1.136.352.48.55 1.051.592 1.712h-1.472c-.074-.533-.32-.976-.736-1.328-.416-.363-.976-.544-1.68-.544-.608 0-1.114.139-1.52.416-.405.277-.709.656-.912 1.136-.202.48-.304 1.024-.304 1.632 0 .587.102 1.125.304 1.616.203.48.507.864.912 1.152.416.277.934.416 1.552.416.48 0 .896-.085 1.248-.256.352-.171.635-.4.848-.688.214-.288.342-.613.384-.976h1.472c-.032.672-.229 1.253-.592 1.744-.352.491-.821.875-1.408 1.152-.576.267-1.226.4-1.952.4Zm11.928-.288-3.216-3.984h-1.408l3.92-4.56h1.616l-3.552 4.112.112-.816 4.304 5.248h-1.776Zm-5.888 0v-11.68h1.536V304h-1.536Zm11.846.256c-1.12 0-1.989-.24-2.608-.72-.608-.48-.922-1.136-.944-1.968h1.44c.022.331.187.645.496.944.32.288.859.432 1.616.432.683 0 1.206-.133 1.568-.4.363-.277.544-.613.544-1.008 0-.352-.133-.624-.4-.816-.266-.203-.698-.336-1.296-.4l-.928-.096c-.81-.085-1.472-.325-1.984-.72-.512-.405-.768-.971-.768-1.696 0-.544.139-1.008.416-1.392.278-.395.662-.693 1.152-.896.491-.213 1.056-.32 1.696-.32.96 0 1.739.213 2.336.64.598.427.907 1.061.928 1.904h-1.44c-.01-.341-.17-.629-.48-.864-.298-.245-.746-.368-1.344-.368-.597 0-1.05.123-1.36.368-.309.245-.464.555-.464.928 0 .32.107.576.32.768.224.192.587.315 1.088.368l.928.096c.918.096 1.654.352 2.208.768.555.405.832.981.832 1.728 0 .533-.154 1.008-.464 1.424-.298.405-.714.725-1.248.96-.533.224-1.146.336-1.84.336ZM599.47 114.97c-.293.293-.293.767 0 1.06l4.773 4.773c.293.293.767.293 1.06 0 .293-.293.293-.767 0-1.06l-4.242-4.243 4.242-4.243c.293-.293.293-.767 0-1.06-.293-.293-.767-.293-1.06 0l-4.773 4.773Zm69.06 1.06c.293-.293.293-.767 0-1.06l-4.773-4.773c-.293-.293-.767-.293-1.06 0-.293.293-.293.767 0 1.06l4.242 4.243-4.242 4.243c-.293.293-.293.767 0 1.06.293.293.767.293 1.06 0l4.773-4.773ZM600 115.5v.75h68v-1.5h-68v.75ZM599.47 279.97c-.293.293-.293.767 0 1.06l4.773 4.773c.293.293.767.293 1.06 0 .293-.293.293-.767 0-1.06l-4.242-4.243 4.242-4.243c.293-.293.293-.767 0-1.06-.293-.293-.767-.293-1.06 0l-4.773 4.773Zm69.06 1.06c.293-.293.293-.767 0-1.06l-4.773-4.773c-.293-.293-.767-.293-1.06 0-.293.293-.293.767 0 1.06l4.242 4.243-4.242 4.243c-.293.293-.293.767 0 1.06.293.293.767.293 1.06 0l4.773-4.773ZM600 280.5v.75h68v-1.5h-68v.75Z" fill="#7A7D94"/><rect x="668.5" y="64.5" width="195" height="267" rx="11.5" fill="#3F434F" fill-opacity=".5"/><rect x="668.5" y="64.5" width="195" height="267" rx="11.5" stroke="#44437E"/><path d="M739.114 116v-13.14h2.88V116h-2.88Zm2.52 0v-2.448h5.742V116h-5.742Zm0-5.454v-2.448h5.328v2.448h-5.328Zm0-5.238v-2.448h5.616v2.448h-5.616Zm11.845 11.016c-.696 0-1.332-.126-1.908-.378-.564-.252-1.056-.6-1.476-1.044-.42-.456-.744-.99-.972-1.602-.216-.612-.324-1.272-.324-1.98v-.414c0-.708.102-1.368.306-1.98.216-.612.522-1.146.918-1.602.408-.468.894-.828 1.458-1.08.564-.264 1.194-.396 1.89-.396.792 0 1.476.174 2.052.522.576.336 1.026.84 1.35 1.512.324.66.504 1.476.54 2.448l-.756-.702v-6.768h2.898V116h-2.286v-4.086h.396c-.036.936-.234 1.734-.594 2.394-.348.66-.822 1.164-1.422 1.512-.6.336-1.29.504-2.07.504Zm.72-2.412c.444 0 .846-.096 1.206-.288.372-.204.666-.498.882-.882.228-.384.342-.846.342-1.386v-.666c0-.528-.114-.972-.342-1.332-.228-.36-.528-.636-.9-.828-.372-.192-.774-.288-1.206-.288-.48 0-.912.126-1.296.378-.372.24-.666.576-.882 1.008-.216.42-.324.912-.324 1.476 0 .576.108 1.074.324 1.494.216.42.516.744.9.972.384.228.816.342 1.296.342Zm8.336 2.088v-9.864h2.88V116h-2.88Zm-1.314-7.74v-2.124h4.194v2.124h-4.194Zm2.43-3.096c-.54 0-.942-.138-1.206-.414-.252-.288-.378-.648-.378-1.08 0-.444.126-.804.378-1.08.264-.288.666-.432 1.206-.432.54 0 .936.144 1.188.432.264.276.396.636.396 1.08 0 .432-.132.792-.396 1.08-.252.276-.648.414-1.188.414Zm8.91 10.962c-.996 0-1.8-.12-2.412-.36-.612-.252-1.062-.666-1.35-1.242-.276-.588-.414-1.38-.414-2.376v-8.676h2.682v8.784c0 .468.12.828.36 1.08.252.24.606.36 1.062.36h1.458v2.43h-1.386Zm-5.67-7.884v-2.106h7.056v2.106h-7.056Zm13.763 8.1c-.864 0-1.632-.132-2.304-.396-.672-.276-1.242-.648-1.71-1.116-.456-.468-.804-1.002-1.044-1.602-.24-.612-.36-1.254-.36-1.926v-.414c0-.684.12-1.332.36-1.944.252-.624.612-1.17 1.08-1.638.48-.468 1.056-.834 1.728-1.098.672-.276 1.422-.414 2.25-.414.852 0 1.608.138 2.268.414.672.264 1.242.63 1.71 1.098.468.468.828 1.014 1.08 1.638.252.612.378 1.26.378 1.944v.414c0 .672-.12 1.314-.36 1.926-.24.6-.594 1.134-1.062 1.602-.456.468-1.02.84-1.692 1.116-.672.264-1.446.396-2.322.396Zm0-2.43c.564 0 1.032-.12 1.404-.36.372-.24.654-.576.846-1.008.204-.432.306-.912.306-1.44 0-.564-.102-1.056-.306-1.476-.204-.432-.498-.774-.882-1.026-.372-.252-.828-.378-1.368-.378-.528 0-.984.126-1.368.378-.384.252-.678.594-.882 1.026-.192.42-.288.912-.288 1.476 0 .528.096 1.008.288 1.44.192.432.48.768.864 1.008s.846.36 1.386.36ZM788.1 116v-9.864h2.286v4.23h-.054c0-1.392.294-2.466.882-3.222.6-.756 1.464-1.134 2.592-1.134h.378v2.484h-.72c-.792 0-1.404.216-1.836.648-.432.42-.648 1.032-.648 1.836V116h-2.88Z" fill="#F0F0FF"/><rect x="693.5" y="172.5" width="145" height="41" rx="11.5" stroke="#585A6D"/><path d="M763.32 198.288c-1.056 0-1.947-.203-2.672-.608-.715-.416-1.259-.992-1.632-1.728-.363-.747-.544-1.611-.544-2.592v-7.04h1.568v7.232c0 .651.123 1.227.368 1.728.256.491.629.875 1.12 1.152.491.277 1.088.416 1.792.416s1.296-.133 1.776-.4c.491-.277.859-.661 1.104-1.152.256-.501.384-1.083.384-1.744v-7.232h1.568v7.04c0 .981-.181 1.845-.544 2.592-.363.736-.901 1.312-1.616 1.728-.715.405-1.605.608-2.672.608Zm8.033-.288v-11.68h1.568V198h-1.568Z" fill="#F0F0FF"/><rect x="693.5" y="246.5" width="145" height="41" rx="11.5" stroke="#585A6D"/><path d="M745.196 272v-11.68h1.568V272h-1.568Zm1.248 0v-1.408h5.344V272h-5.344Zm11.105.288c-.747 0-1.403-.128-1.968-.384-.566-.256-1.046-.592-1.44-1.008-.384-.427-.678-.901-.88-1.424-.192-.523-.288-1.056-.288-1.6v-.288c0-.544.101-1.077.304-1.6.202-.533.501-1.008.896-1.424.394-.427.874-.763 1.44-1.008.565-.256 1.21-.384 1.936-.384.725 0 1.37.128 1.936.384.565.245 1.045.581 1.44 1.008.394.416.693.891.896 1.424.202.523.304 1.056.304 1.6v.288c0 .544-.102 1.077-.304 1.6-.192.523-.486.997-.88 1.424-.384.416-.859.752-1.424 1.008-.566.256-1.222.384-1.968.384Zm0-1.376c.64 0 1.184-.139 1.632-.416.458-.288.805-.672 1.04-1.152.245-.48.368-1.019.368-1.616 0-.608-.123-1.152-.368-1.632-.246-.48-.598-.859-1.056-1.136-.448-.277-.987-.416-1.616-.416-.619 0-1.158.139-1.616.416-.459.277-.811.656-1.056 1.136-.246.48-.368 1.024-.368 1.632 0 .597.117 1.136.352 1.616.245.48.592.864 1.04 1.152.458.277 1.008.416 1.648.416Zm10.108 4.416c-.395 0-.795-.016-1.2-.048-.395-.032-.773-.075-1.136-.128v-1.296c.384.053.784.096 1.2.128.427.043.827.064 1.2.064.779 0 1.397-.107 1.856-.32.469-.203.805-.528 1.008-.976.213-.437.32-1.003.32-1.696v-1.632l.512-1.216c-.032.864-.213 1.584-.544 2.16-.331.565-.763.992-1.296 1.28-.523.277-1.104.416-1.744.416-.597 0-1.147-.112-1.648-.336-.491-.235-.917-.555-1.28-.96-.352-.405-.629-.869-.832-1.392-.192-.533-.288-1.093-.288-1.68v-.288c0-.597.101-1.152.304-1.664.203-.523.485-.976.848-1.36.363-.384.795-.683 1.296-.896.512-.213 1.072-.32 1.68-.32.715 0 1.344.155 1.888.464.544.299.971.741 1.28 1.328.32.576.496 1.285.528 2.128l-.448.016v-3.648h1.216v7.536c0 1.024-.16 1.851-.48 2.48-.309.64-.811 1.109-1.504 1.408-.683.299-1.595.448-2.736.448Zm.464-4.672c.512 0 .976-.112 1.392-.336.427-.224.763-.544 1.008-.96.256-.427.384-.933.384-1.52v-.736c0-.576-.133-1.061-.4-1.456-.256-.395-.592-.693-1.008-.896-.416-.203-.869-.304-1.36-.304-.555 0-1.045.128-1.472.384-.427.256-.757.619-.992 1.088-.235.459-.352 1.003-.352 1.632s.117 1.179.352 1.648c.245.469.576.832.992 1.088.427.245.912.368 1.456.368Zm7.517 1.344v-8.544h1.536V272h-1.536Zm-1.312-7.328v-1.216h2.848v1.216h-2.848Zm1.744-2.592c-.341 0-.597-.091-.768-.272-.16-.181-.24-.411-.24-.688 0-.277.08-.507.24-.688.171-.181.427-.272.768-.272s.592.091.752.272c.171.181.256.411.256.688 0 .277-.085.507-.256.688-.16.181-.411.272-.752.272Zm7.738 10.208c-.736 0-1.376-.128-1.92-.384-.533-.256-.976-.597-1.328-1.024-.352-.437-.619-.917-.8-1.44-.171-.523-.256-1.045-.256-1.568v-.288c0-.544.085-1.077.256-1.6.181-.523.448-.992.8-1.408.363-.427.811-.768 1.344-1.024s1.157-.384 1.872-.384c.715 0 1.355.133 1.92.4.576.267 1.035.645 1.376 1.136.352.48.549 1.051.592 1.712h-1.472c-.075-.533-.32-.976-.736-1.328-.416-.363-.976-.544-1.68-.544-.608 0-1.115.139-1.52.416-.405.277-.709.656-.912 1.136-.203.48-.304 1.024-.304 1.632 0 .587.101 1.125.304 1.616.203.48.507.864.912 1.152.416.277.933.416 1.552.416.48 0 .896-.085 1.248-.256.352-.171.635-.4.848-.688.213-.288.341-.613.384-.976h1.472c-.032.672-.229 1.253-.592 1.744-.352.491-.821.875-1.408 1.152-.576.267-1.227.4-1.952.4Z" fill="#F0F0FF"/><path d="M159.47 396.53c.293.293.767.293 1.06 0l4.773-4.773c.293-.293.293-.767 0-1.06-.293-.293-.767-.293-1.06 0L160 394.939l-4.243-4.242c-.293-.293-.767-.293-1.06 0-.293.293-.293.767 0 1.06l4.773 4.773Zm1.06-65.06c-.293-.293-.767-.293-1.06 0l-4.773 4.773c-.293.293-.293.767 0 1.06.293.293.767.293 1.06 0l4.243-4.242 4.243 4.242c.293.293.767.293 1.06 0 .293-.293.293-.767 0-1.06l-4.773-4.773ZM160 396h.75v-64h-1.5v64h.75Z" fill="#7A7D94"/><rect x="64.5" y="396.5" width="799" height="228" rx="11.5" fill="#3F434F" fill-opacity=".5"/><rect x="64.5" y="396.5" width="799" height="228" rx="11.5" stroke="#44437E"/><path d="M345.409 448v-13.14h2.88V448h-2.88Zm2.52 0v-2.448h5.742V448h-5.742Zm0-5.454v-2.448h5.328v2.448h-5.328Zm0-5.238v-2.448h5.616v2.448h-5.616ZM354.836 448l3.06-5.292-.072.45-2.88-5.022h3.114l1.782 3.348h.288l1.674-3.348h2.934l-2.754 5.058.072-.378 3.24 5.184h-3.132l-2.124-3.582h-.288L357.752 448h-2.916Zm16.32.126c-.996 0-1.8-.12-2.412-.36-.612-.252-1.062-.666-1.35-1.242-.276-.588-.414-1.38-.414-2.376v-8.676h2.682v8.784c0 .468.12.828.36 1.08.252.24.606.36 1.062.36h1.458v2.43h-1.386Zm-5.67-7.884v-2.106h7.056v2.106h-7.056Zm13.476 8.1c-.84 0-1.584-.144-2.232-.432-.636-.288-1.17-.672-1.602-1.152-.42-.492-.744-1.038-.972-1.638-.216-.612-.324-1.236-.324-1.872v-.36c0-.66.108-1.29.324-1.89.228-.612.552-1.158.972-1.638.42-.48.942-.858 1.566-1.134.636-.288 1.356-.432 2.16-.432 1.056 0 1.944.24 2.664.72.732.468 1.29 1.086 1.674 1.854.384.756.576 1.584.576 2.484v.972h-8.73v-1.638h6.984l-.936.756c0-.588-.084-1.092-.252-1.512-.168-.42-.42-.738-.756-.954-.324-.228-.732-.342-1.224-.342-.504 0-.93.114-1.278.342-.348.228-.612.564-.792 1.008-.18.432-.27.966-.27 1.602 0 .588.084 1.104.252 1.548.168.432.432.768.792 1.008.36.24.828.36 1.404.36.528 0 .96-.102 1.296-.306.336-.204.564-.456.684-.756h2.646c-.144.66-.426 1.248-.846 1.764s-.948.918-1.584 1.206c-.636.288-1.368.432-2.196.432Zm6.714-.342v-9.864h2.286v4.23h-.054c0-1.392.294-2.466.882-3.222.6-.756 1.464-1.134 2.592-1.134h.378v2.484h-.72c-.792 0-1.404.216-1.836.648-.432.42-.648 1.032-.648 1.836V448h-2.88Zm7.576 0v-9.864h2.286v4.23h-.162c0-1.008.126-1.848.378-2.52.264-.672.66-1.176 1.188-1.512.528-.336 1.17-.504 1.926-.504h.126c1.152 0 2.028.378 2.628 1.134.612.744.918 1.878.918 3.402V448h-2.88v-5.796c0-.528-.156-.96-.468-1.296-.312-.336-.732-.504-1.26-.504-.54 0-.978.174-1.314.522-.324.336-.486.78-.486 1.332V448h-2.88Zm17.701 0v-2.916h-.486v-3.168c0-.504-.12-.882-.36-1.134-.24-.252-.624-.378-1.152-.378-.264 0-.612.006-1.044.018-.432.012-.876.03-1.332.054-.456.024-.87.048-1.242.072v-2.43c.276-.024.6-.048.972-.072.372-.024.756-.042 1.152-.054.396-.012.768-.018 1.116-.018 1.008 0 1.854.144 2.538.432.696.288 1.224.726 1.584 1.314.36.576.54 1.32.54 2.232V448h-2.286Zm-3.15.252c-.708 0-1.332-.126-1.872-.378-.528-.252-.942-.612-1.242-1.08-.3-.48-.45-1.05-.45-1.71 0-.72.186-1.308.558-1.764.372-.468.894-.81 1.566-1.026.672-.228 1.446-.342 2.322-.342h2.106v1.602h-2.124c-.504 0-.894.126-1.17.378-.264.24-.396.57-.396.99 0 .396.132.72.396.972.276.24.666.36 1.17.36.324 0 .612-.054.864-.162.264-.12.48-.318.648-.594.168-.276.264-.66.288-1.152l.684.72c-.06.684-.228 1.26-.504 1.728-.264.468-.636.828-1.116 1.08-.468.252-1.044.378-1.728.378Zm8.005-.252v-13.14h2.898V448h-2.898Zm-1.17-11.016v-2.124h4.068v2.124h-4.068Zm15.235 11.358c-1.188 0-2.19-.186-3.006-.558-.816-.384-1.434-.9-1.854-1.548-.42-.66-.63-1.416-.63-2.268h2.862c0 .336.09.648.27.936.192.288.48.522.864.702.384.168.882.252 1.494.252.552 0 1.014-.072 1.386-.216.372-.144.654-.342.846-.594.192-.264.288-.564.288-.9 0-.42-.18-.75-.54-.99-.36-.252-.942-.414-1.746-.486l-.99-.09c-1.308-.108-2.352-.516-3.132-1.224-.78-.708-1.17-1.644-1.17-2.808 0-.84.198-1.566.594-2.178.408-.612.972-1.08 1.692-1.404.72-.336 1.572-.504 2.556-.504 1.032 0 1.914.18 2.646.54.744.348 1.314.846 1.71 1.494.396.636.594 1.386.594 2.25h-2.88c0-.324-.078-.618-.234-.882-.156-.276-.39-.498-.702-.666-.3-.168-.678-.252-1.134-.252-.432 0-.798.072-1.098.216-.288.144-.504.342-.648.594-.144.24-.216.504-.216.792 0 .372.132.696.396.972s.696.438 1.296.486l1.008.09c.96.084 1.806.294 2.538.63.732.324 1.302.774 1.71 1.35.42.564.63 1.254.63 2.07 0 .84-.222 1.578-.666 2.214-.432.624-1.05 1.11-1.854 1.458-.804.348-1.764.522-2.88.522Zm11.79 0c-.84 0-1.584-.144-2.232-.432-.636-.288-1.17-.672-1.602-1.152-.42-.492-.744-1.038-.972-1.638-.216-.612-.324-1.236-.324-1.872v-.36c0-.66.108-1.29.324-1.89.228-.612.552-1.158.972-1.638.42-.48.942-.858 1.566-1.134.636-.288 1.356-.432 2.16-.432 1.056 0 1.944.24 2.664.72.732.468 1.29 1.086 1.674 1.854.384.756.576 1.584.576 2.484v.972h-8.73v-1.638h6.984l-.936.756c0-.588-.084-1.092-.252-1.512-.168-.42-.42-.738-.756-.954-.324-.228-.732-.342-1.224-.342-.504 0-.93.114-1.278.342-.348.228-.612.564-.792 1.008-.18.432-.27.966-.27 1.602 0 .588.084 1.104.252 1.548.168.432.432.768.792 1.008.36.24.828.36 1.404.36.528 0 .96-.102 1.296-.306.336-.204.564-.456.684-.756h2.646c-.144.66-.426 1.248-.846 1.764s-.948.918-1.584 1.206c-.636.288-1.368.432-2.196.432Zm6.714-.342v-9.864h2.286v4.23h-.054c0-1.392.294-2.466.882-3.222.6-.756 1.464-1.134 2.592-1.134h.378v2.484h-.72c-.792 0-1.404.216-1.836.648-.432.42-.648 1.032-.648 1.836V448h-2.88Zm9.783 0-2.952-9.864h2.97L460.95 448h-2.79Zm.9 0v-2.394h2.898V448h-2.898Zm1.062 0 2.394-9.864h2.772L462.732 448h-2.61Zm7.339 0v-9.864h2.88V448h-2.88Zm-1.314-7.74v-2.124h4.194v2.124h-4.194Zm2.43-3.096c-.54 0-.942-.138-1.206-.414-.252-.288-.378-.648-.378-1.08 0-.444.126-.804.378-1.08.264-.288.666-.432 1.206-.432.54 0 .936.144 1.188.432.264.276.396.636.396 1.08 0 .432-.132.792-.396 1.08-.252.276-.648.414-1.188.414Zm8.855 11.178c-.852 0-1.596-.138-2.232-.414-.624-.288-1.146-.672-1.566-1.152-.42-.48-.732-1.02-.936-1.62-.204-.612-.306-1.242-.306-1.89v-.342c0-.672.108-1.314.324-1.926.216-.624.534-1.176.954-1.656.42-.48.942-.858 1.566-1.134.636-.276 1.362-.414 2.178-.414.888 0 1.674.174 2.358.522.684.336 1.23.81 1.638 1.422.408.612.636 1.314.684 2.106h-2.826c-.048-.444-.228-.816-.54-1.116-.3-.312-.738-.468-1.314-.468-.48 0-.882.12-1.206.36-.312.24-.546.57-.702.99-.156.42-.234.918-.234 1.494 0 .528.072 1.008.216 1.44.144.42.372.75.684.99.324.228.744.342 1.26.342.384 0 .708-.066.972-.198.276-.144.492-.336.648-.576.168-.252.27-.54.306-.864h2.808c-.036.816-.264 1.536-.684 2.16-.42.612-.978 1.092-1.674 1.44-.696.336-1.488.504-2.376.504Zm11.094 0c-.84 0-1.584-.144-2.232-.432-.636-.288-1.17-.672-1.602-1.152-.42-.492-.744-1.038-.972-1.638-.216-.612-.324-1.236-.324-1.872v-.36c0-.66.108-1.29.324-1.89.228-.612.552-1.158.972-1.638.42-.48.942-.858 1.566-1.134.636-.288 1.356-.432 2.16-.432 1.056 0 1.944.24 2.664.72.732.468 1.29 1.086 1.674 1.854.384.756.576 1.584.576 2.484v.972h-8.73v-1.638h6.984l-.936.756c0-.588-.084-1.092-.252-1.512-.168-.42-.42-.738-.756-.954-.324-.228-.732-.342-1.224-.342-.504 0-.93.114-1.278.342-.348.228-.612.564-.792 1.008-.18.432-.27.966-.27 1.602 0 .588.084 1.104.252 1.548.168.432.432.768.792 1.008.36.24.828.36 1.404.36.528 0 .96-.102 1.296-.306.336-.204.564-.456.684-.756h2.646c-.144.66-.426 1.248-.846 1.764s-.948.918-1.584 1.206c-.636.288-1.368.432-2.196.432Zm10.459-.036c-1.404 0-2.502-.288-3.294-.864-.792-.576-1.212-1.386-1.26-2.43h2.556c.048.312.234.594.558.846.336.24.834.36 1.494.36.504 0 .918-.084 1.242-.252.336-.18.504-.432.504-.756 0-.288-.126-.516-.378-.684-.252-.18-.702-.306-1.35-.378l-.774-.072c-1.188-.12-2.082-.45-2.682-.99-.588-.54-.882-1.23-.882-2.07 0-.696.174-1.278.522-1.746.348-.468.828-.822 1.44-1.062.624-.24 1.332-.36 2.124-.36 1.272 0 2.298.282 3.078.846.78.552 1.188 1.356 1.224 2.412h-2.556c-.048-.324-.216-.594-.504-.81-.288-.228-.714-.342-1.278-.342-.444 0-.798.084-1.062.252-.264.168-.396.396-.396.684 0 .276.114.486.342.63.228.144.6.246 1.116.306l.774.072c1.212.132 2.154.468 2.826 1.008.672.54 1.008 1.266 1.008 2.178 0 .66-.18 1.236-.54 1.728-.36.48-.87.852-1.53 1.116-.66.252-1.434.378-2.322.378Zm9.047.774 3.726-15.12h2.952l-3.726 15.12h-2.952Zm14.853-1.008v-2.754h2.448c.612 0 1.164-.09 1.656-.27.492-.192.912-.456 1.26-.792.348-.348.612-.762.792-1.242.18-.492.27-1.032.27-1.62 0-.612-.09-1.158-.27-1.638-.18-.48-.444-.888-.792-1.224-.348-.336-.768-.588-1.26-.756-.492-.18-1.044-.27-1.656-.27h-2.448v-2.754h2.286c1.188 0 2.226.174 3.114.522.888.348 1.632.822 2.232 1.422.6.6 1.044 1.29 1.332 2.07.3.768.45 1.578.45 2.43v.396c0 .792-.15 1.578-.45 2.358-.288.768-.732 1.464-1.332 2.088-.6.612-1.344 1.104-2.232 1.476-.888.372-1.926.558-3.114.558h-2.286Zm-2.592 0v-13.32h2.952v13.32h-2.952Zm16.583.018v-2.304h3.078c.552 0 .966-.144 1.242-.432.276-.288.414-.696.414-1.224s-.138-.93-.414-1.206c-.276-.288-.69-.432-1.242-.432h-3.078v-1.782h2.934c.912 0 1.722.114 2.43.342.708.216 1.266.57 1.674 1.062.408.492.612 1.158.612 1.998v.252c0 .78-.18 1.452-.54 2.016-.36.552-.888.978-1.584 1.278-.696.288-1.56.432-2.592.432h-2.934Zm-2.52 0v-13.338h2.88v13.338h-2.88Zm2.52-6.066v-1.764h2.592c.564 0 .972-.144 1.224-.432.252-.288.378-.672.378-1.152 0-.504-.126-.9-.378-1.188-.252-.288-.66-.432-1.224-.432h-2.592v-2.304h2.412c1.512 0 2.67.318 3.474.954.816.636 1.224 1.542 1.224 2.718v.27c0 .816-.21 1.47-.63 1.962-.408.492-.966.846-1.674 1.062-.696.204-1.494.306-2.394.306h-2.412Zm12.57 7.056 3.726-15.12h2.952l-3.726 15.12h-2.952Zm11.019-1.08 4.338-13.14h4.77l4.5 13.14h-3.06l-3.636-11.106.936.378h-2.322l.972-.378L563.417 448h-2.952Zm3.294-3.258.9-2.448h5.148l.918 2.448h-6.966ZM575.824 448v-13.14h2.952V448h-2.952Z" fill="#F0F0FF"/><rect x="97.5" y="478.5" width="199" height="113" rx="11.5" stroke="#585A6D"/><path d="m196 522-4 9.5M189 522l-3.706 3.032c-.945.773-.982 2.206-.078 3.028L189 531.5M199 531.5l3.706-3.032c.945-.773.982-2.206.078-3.028L199 522" stroke="#EDEDFE" stroke-width="1.5" stroke-linecap="round"/><path d="M184 521v-6c0-1.105.895-2 2-2h20.5c1.105 0 2 .895 2 2v15.5c0 1.105-.895 2-2 2h-2" stroke="#EDEDFE" stroke-width="1.5" stroke-linecap="round"/><path d="M186.5 513v-2.5c0-1.105.895-2 2-2h4.172c.53 0 1.039-.211 1.414-.586l1.828-1.828c.375-.375.884-.586 1.414-.586H210c1.105 0 2 .895 2 2V528" stroke="#EDEDFE" stroke-width="1.5" stroke-linecap="round"/><path d="M134.468 560v-10.592h1.568V560h-1.568Zm-3.552-10.272v-1.408h8.672v1.408h-8.672ZM141.472 560v-11.68h1.536v6.976h-.384c0-.843.107-1.568.32-2.176.224-.619.565-1.093 1.024-1.424.459-.331 1.045-.496 1.76-.496h.064c1.024 0 1.797.341 2.32 1.024.523.672.784 1.637.784 2.896V560h-1.536v-5.2c0-.693-.197-1.232-.592-1.616-.384-.384-.885-.576-1.504-.576-.683 0-1.232.229-1.648.688-.405.448-.608 1.04-.608 1.776V560h-1.536Zm10.65 0v-8.544h1.536V560h-1.536Zm-1.312-7.328v-1.216h2.848v1.216h-2.848Zm1.744-2.592c-.341 0-.597-.091-.768-.272-.16-.181-.24-.411-.24-.688 0-.277.08-.507.24-.688.171-.181.427-.272.768-.272.342 0 .592.091.752.272.171.181.256.411.256.688 0 .277-.085.507-.256.688-.16.181-.41.272-.752.272Zm4.074 9.92v-8.544h1.216v3.52h-.064c0-1.248.272-2.16.816-2.736.555-.587 1.382-.88 2.48-.88h.288v1.376h-.544c-.853 0-1.509.229-1.968.688-.458.448-.688 1.099-.688 1.952V560h-1.536Zm10.037.288c-.608 0-1.168-.112-1.68-.336-.512-.224-.96-.539-1.344-.944-.373-.405-.667-.875-.88-1.408-.203-.533-.304-1.109-.304-1.728v-.288c0-.608.101-1.179.304-1.712.203-.533.485-1.003.848-1.408.373-.405.811-.72 1.312-.944.512-.235 1.077-.352 1.696-.352.651 0 1.243.139 1.776.416.533.267.971.688 1.312 1.264.341.576.533 1.323.576 2.24l-.64-1.024v-5.744h1.536V560h-1.216v-3.792h.448c-.043.971-.245 1.76-.608 2.368-.363.597-.821 1.035-1.376 1.312-.544.267-1.131.4-1.76.4Zm.208-1.344c.523 0 .997-.117 1.424-.352.427-.235.768-.571 1.024-1.008.256-.448.384-.971.384-1.568v-.736c0-.587-.133-1.083-.4-1.488-.256-.416-.603-.731-1.04-.944-.427-.224-.896-.336-1.408-.336-.565 0-1.067.133-1.504.4-.427.267-.763.64-1.008 1.12-.235.48-.352 1.045-.352 1.696s.123 1.221.368 1.712c.245.48.587.853 1.024 1.12.437.256.933.384 1.488.384Zm6.839-2.736v-1.312h5.952v1.312h-5.952Zm8.479 6.992v-11.744h1.216v3.696l-.288-.032c.053-.917.245-1.664.576-2.24.341-.587.784-1.019 1.328-1.296.544-.277 1.136-.416 1.776-.416.618 0 1.178.117 1.68.352.512.235.949.555 1.312.96.362.405.64.875.832 1.408.192.533.288 1.099.288 1.696v.288c0 .597-.102 1.163-.304 1.696-.203.533-.491 1.003-.864 1.408-.363.405-.8.725-1.312.96-.502.235-1.056.352-1.664.352-.608 0-1.19-.133-1.744-.4-.555-.267-1.014-.699-1.376-1.296-.363-.597-.571-1.381-.624-2.352l.704 1.28v5.68h-1.536Zm4.336-4.256c.576 0 1.077-.133 1.504-.4.426-.277.757-.656.992-1.136.234-.491.352-1.051.352-1.68 0-.64-.118-1.2-.352-1.68-.235-.48-.566-.853-.992-1.12-.427-.277-.928-.416-1.504-.416-.512 0-.987.117-1.424.352-.438.224-.79.555-1.056.992-.256.427-.384.944-.384 1.552v.736c0 .587.133 1.088.4 1.504.266.416.618.736 1.056.96.437.224.906.336 1.408.336ZM198.39 560v-2.56h-.256v-2.96c0-.587-.155-1.029-.464-1.328-.299-.299-.741-.448-1.328-.448-.331 0-.672.005-1.024.016s-.688.021-1.008.032c-.32.011-.597.027-.832.048v-1.344c.235-.021.48-.037.736-.048.267-.021.539-.032.816-.032.277-.011.544-.016.8-.016.875 0 1.589.107 2.144.32.555.203.965.539 1.232 1.008s.4 1.104.4 1.904V560h-1.216Zm-2.8.224c-.64 0-1.195-.107-1.664-.32-.459-.224-.816-.544-1.072-.96-.245-.416-.368-.917-.368-1.504 0-.608.133-1.115.4-1.52.277-.405.677-.709 1.2-.912.523-.213 1.152-.32 1.888-.32h2.32v1.152h-2.384c-.619 0-1.093.149-1.424.448-.331.299-.496.683-.496 1.152 0 .469.165.848.496 1.136.331.288.805.432 1.424.432.363 0 .709-.064 1.04-.192.331-.139.603-.363.816-.672.224-.32.347-.757.368-1.312l.416.608c-.053.608-.203 1.12-.448 1.536-.235.405-.565.715-.992.928-.416.213-.923.32-1.52.32Zm6.835-.224v-8.544h1.216v3.52h-.064c0-1.248.272-2.16.816-2.736.555-.587 1.381-.88 2.48-.88h.288v1.376h-.544c-.853 0-1.509.229-1.968.688-.459.448-.688 1.099-.688 1.952V560h-1.536Zm10.047.096c-.64 0-1.195-.091-1.664-.272-.459-.181-.816-.491-1.072-.928-.245-.448-.368-1.051-.368-1.808v-8.224h1.472v8.416c0 .459.123.816.368 1.072.256.245.613.368 1.072.368h1.504v1.376h-1.312Zm-4.576-7.488v-1.152h5.888v1.152h-5.888Zm7.484 10.72v-1.376h1.232c.363 0 .667-.048.912-.144.256-.085.464-.235.624-.448.171-.213.31-.496.416-.848l2.688-9.056h1.504l-2.848 9.456c-.17.565-.41 1.024-.72 1.376-.309.363-.688.624-1.136.784-.437.171-.949.256-1.536.256h-1.136Zm2.608-3.52v-1.28h1.856v1.28h-1.856Zm-.16 0-3.056-8.352h1.568l2.928 8.352h-1.44Zm9.495.192 4.208-11.68h2.656l4.336 11.68h-1.616l-3.92-10.656.768.384h-1.888l.816-.384L228.891 560h-1.568Zm2.512-3.488.528-1.408h5.04l.528 1.408h-6.096Zm12.078-.576v-1.376h2.608c.554 0 1.013-.107 1.376-.32.362-.224.634-.523.816-.896.192-.373.288-.789.288-1.248 0-.469-.096-.891-.288-1.264-.182-.373-.454-.667-.816-.88-.363-.213-.822-.32-1.376-.32h-2.608v-1.376h2.32c.96 0 1.76.155 2.4.464.65.299 1.141.725 1.472 1.28.33.555.496 1.211.496 1.968v.256c0 .747-.166 1.403-.496 1.968-.331.555-.822.987-1.472 1.296-.64.299-1.44.448-2.4.448h-2.32ZM240.665 560v-11.744h1.568V560h-1.568Zm10.266 0v-11.68h1.568V560h-1.568Zm7.575.256c-1.12 0-1.989-.24-2.608-.72-.608-.48-.922-1.136-.944-1.968h1.44c.022.331.187.645.496.944.32.288.859.432 1.616.432.683 0 1.206-.133 1.568-.4.363-.277.544-.613.544-1.008 0-.352-.133-.624-.4-.816-.266-.203-.698-.336-1.296-.4l-.928-.096c-.81-.085-1.472-.325-1.984-.72-.512-.405-.768-.971-.768-1.696 0-.544.139-1.008.416-1.392.278-.395.662-.693 1.152-.896.491-.213 1.056-.32 1.696-.32.96 0 1.739.213 2.336.64.598.427.907 1.061.928 1.904h-1.44c-.01-.341-.17-.629-.48-.864-.298-.245-.746-.368-1.344-.368-.597 0-1.05.123-1.36.368-.309.245-.464.555-.464.928 0 .32.107.576.32.768.224.192.587.315 1.088.368l.928.096c.918.096 1.654.352 2.208.768.555.405.832.981.832 1.728 0 .533-.154 1.008-.464 1.424-.298.405-.714.725-1.248.96-.533.224-1.146.336-1.84.336Z" fill="#F0F0FF"/><rect x="364.5" y="478.5" width="199" height="113" rx="11.5" stroke="#585A6D"/><path d="M464 515c6.075 0 11-1.791 11-4s-4.925-4-11-4-11 1.791-11 4 4.925 4 11 4ZM453 511v16m22 0v-16M453 519c0 1.061 1.159 2.078 3.222 2.828 2.063.751 4.861 1.172 7.778 1.172s5.715-.421 7.778-1.172c2.063-.75 3.222-1.767 3.222-2.828M453 527c0 1.061 1.159 2.078 3.222 2.828 2.063.751 4.861 1.172 7.778 1.172s5.715-.421 7.778-1.172c2.063-.75 3.222-1.767 3.222-2.828" stroke="#EDEDFE" stroke-width="1.5" stroke-linecap="round" stroke-linejoin="round"/><path d="M423.944 560.064v-1.44h2.912c.704 0 1.328-.112 1.872-.336.555-.235 1.024-.555 1.408-.96.395-.405.693-.88.896-1.424.203-.544.304-1.131.304-1.76 0-.661-.101-1.259-.304-1.792-.203-.544-.501-1.013-.896-1.408-.384-.405-.853-.715-1.408-.928-.544-.213-1.168-.32-1.872-.32h-2.912v-1.44h2.752c1.056 0 1.973.165 2.752.496.779.32 1.424.757 1.936 1.312.523.544.912 1.157 1.168 1.84.256.672.384 1.36.384 2.064v.352c0 .683-.128 1.365-.384 2.048s-.645 1.301-1.168 1.856c-.512.555-1.157 1.003-1.936 1.344-.779.331-1.696.496-2.752.496h-2.752Zm-1.248 0v-11.808h1.568v11.808h-1.568Zm17.6-.064v-2.56h-.256v-2.96c0-.587-.154-1.029-.464-1.328-.298-.299-.741-.448-1.328-.448-.33 0-.672.005-1.024.016s-.688.021-1.008.032c-.32.011-.597.027-.832.048v-1.344c.235-.021.48-.037.736-.048.267-.021.539-.032.816-.032.278-.011.544-.016.8-.016.875 0 1.59.107 2.144.32.555.203.966.539 1.232 1.008.267.469.4 1.104.4 1.904V560h-1.216Zm-2.8.224c-.64 0-1.194-.107-1.664-.32-.458-.224-.816-.544-1.072-.96-.245-.416-.368-.917-.368-1.504 0-.608.134-1.115.4-1.52.278-.405.678-.709 1.2-.912.523-.213 1.152-.32 1.888-.32h2.32v1.152h-2.384c-.618 0-1.093.149-1.424.448-.33.299-.496.683-.496 1.152 0 .469.166.848.496 1.136.331.288.806.432 1.424.432.363 0 .71-.064 1.04-.192.331-.139.603-.363.816-.672.224-.32.347-.757.368-1.312l.416.608c-.053.608-.202 1.12-.448 1.536-.234.405-.565.715-.992.928-.416.213-.922.32-1.52.32Zm10.163-.128c-.64 0-1.194-.091-1.664-.272-.458-.181-.816-.491-1.072-.928-.245-.448-.368-1.051-.368-1.808v-8.224h1.472v8.416c0 .459.123.816.368 1.072.256.245.614.368 1.072.368h1.504v1.376h-1.312Zm-4.576-7.488v-1.152h5.888v1.152h-5.888ZM456.281 560v-2.56h-.256v-2.96c0-.587-.155-1.029-.464-1.328-.299-.299-.742-.448-1.328-.448-.331 0-.672.005-1.024.016s-.688.021-1.008.032c-.32.011-.598.027-.832.048v-1.344c.234-.021.48-.037.736-.048.266-.021.538-.032.816-.032.277-.011.544-.016.8-.016.874 0 1.589.107 2.144.32.554.203.965.539 1.232 1.008.266.469.4 1.104.4 1.904V560h-1.216Zm-2.8.224c-.64 0-1.195-.107-1.664-.32-.459-.224-.816-.544-1.072-.96-.246-.416-.368-.917-.368-1.504 0-.608.133-1.115.4-1.52.277-.405.677-.709 1.2-.912.522-.213 1.152-.32 1.888-.32h2.32v1.152h-2.384c-.619 0-1.094.149-1.424.448-.331.299-.496.683-.496 1.152 0 .469.165.848.496 1.136.33.288.805.432 1.424.432.362 0 .709-.064 1.04-.192.33-.139.602-.363.816-.672.224-.32.346-.757.368-1.312l.416.608c-.054.608-.203 1.12-.448 1.536-.235.405-.566.715-.992.928-.416.213-.923.32-1.52.32Zm11.347.064c-.704 0-1.334-.155-1.888-.464-.544-.309-.976-.757-1.296-1.344-.32-.597-.496-1.312-.528-2.144h.416V560h-1.216v-11.68h1.536V554l-.544 1.168c.042-.928.229-1.685.56-2.272.33-.587.762-1.019 1.296-1.296.544-.288 1.141-.432 1.792-.432.608 0 1.162.117 1.664.352.501.224.933.539 1.296.944.362.395.64.859.832 1.392.192.523.288 1.088.288 1.696v.288c0 .608-.102 1.179-.304 1.712-.192.533-.475 1.008-.848 1.424-.374.405-.822.725-1.344.96-.512.235-1.083.352-1.712.352Zm-.176-1.344c.576 0 1.077-.139 1.504-.416.426-.277.757-.656.992-1.136.234-.491.352-1.056.352-1.696 0-.64-.123-1.2-.368-1.68-.235-.48-.566-.848-.992-1.104-.427-.267-.923-.4-1.488-.4-.512 0-.987.117-1.424.352-.438.224-.79.555-1.056.992-.256.427-.384.944-.384 1.552v.736c0 .587.133 1.088.4 1.504.266.416.618.736 1.056.96.437.224.906.336 1.408.336ZM476.515 560v-2.56h-.256v-2.96c0-.587-.155-1.029-.464-1.328-.299-.299-.741-.448-1.328-.448-.331 0-.672.005-1.024.016s-.688.021-1.008.032c-.32.011-.597.027-.832.048v-1.344c.235-.021.48-.037.736-.048.267-.021.539-.032.816-.032.277-.011.544-.016.8-.016.875 0 1.589.107 2.144.32.555.203.965.539 1.232 1.008s.4 1.104.4 1.904V560h-1.216Zm-2.8.224c-.64 0-1.195-.107-1.664-.32-.459-.224-.816-.544-1.072-.96-.245-.416-.368-.917-.368-1.504 0-.608.133-1.115.4-1.52.277-.405.677-.709 1.2-.912.523-.213 1.152-.32 1.888-.32h2.32v1.152h-2.384c-.619 0-1.093.149-1.424.448-.331.299-.496.683-.496 1.152 0 .469.165.848.496 1.136.331.288.805.432 1.424.432.363 0 .709-.064 1.04-.192.331-.139.603-.363.816-.672.224-.32.347-.757.368-1.312l.416.608c-.053.608-.203 1.12-.448 1.536-.235.405-.565.715-.992.928-.416.213-.923.32-1.52.32Zm9.635.032c-1.12 0-1.989-.24-2.608-.72-.608-.48-.923-1.136-.944-1.968h1.44c.021.331.187.645.496.944.32.288.859.432 1.616.432.683 0 1.205-.133 1.568-.4.363-.277.544-.613.544-1.008 0-.352-.133-.624-.4-.816-.267-.203-.699-.336-1.296-.4l-.928-.096c-.811-.085-1.472-.325-1.984-.72-.512-.405-.768-.971-.768-1.696 0-.544.139-1.008.416-1.392.277-.395.661-.693 1.152-.896.491-.213 1.056-.32 1.696-.32.96 0 1.739.213 2.336.64.597.427.907 1.061.928 1.904h-1.44c-.011-.341-.171-.629-.48-.864-.299-.245-.747-.368-1.344-.368-.597 0-1.051.123-1.36.368-.309.245-.464.555-.464.928 0 .32.107.576.32.768.224.192.587.315 1.088.368l.928.096c.917.096 1.653.352 2.208.768.555.405.832.981.832 1.728 0 .533-.155 1.008-.464 1.424-.299.405-.715.725-1.248.96-.533.224-1.147.336-1.84.336Zm9.41.032c-.746 0-1.392-.128-1.936-.384s-.986-.592-1.328-1.008c-.341-.427-.597-.901-.768-1.424-.16-.523-.24-1.056-.24-1.6v-.288c0-.555.08-1.093.24-1.616.171-.523.427-.992.768-1.408.342-.427.774-.763 1.296-1.008.534-.256 1.158-.384 1.872-.384.928 0 1.691.203 2.288.608.608.395 1.056.907 1.344 1.536.299.629.448 1.301.448 2.016v.688h-7.584v-1.152h6.464l-.352.624c0-.608-.096-1.131-.288-1.568-.192-.448-.48-.795-.864-1.04s-.869-.368-1.456-.368c-.608 0-1.114.139-1.52.416-.394.277-.693.656-.896 1.136-.192.48-.288 1.035-.288 1.664 0 .608.096 1.157.288 1.648.203.48.512.864.928 1.152.416.277.944.416 1.584.416.672 0 1.216-.149 1.632-.448.427-.299.683-.645.768-1.04h1.44c-.117.587-.352 1.093-.704 1.52-.352.427-.794.752-1.328.976-.533.224-1.136.336-1.808.336Zm8.965-.032c-1.12 0-1.989-.24-2.608-.72-.608-.48-.923-1.136-.944-1.968h1.44c.021.331.187.645.496.944.32.288.859.432 1.616.432.683 0 1.205-.133 1.568-.4.363-.277.544-.613.544-1.008 0-.352-.133-.624-.4-.816-.267-.203-.699-.336-1.296-.4l-.928-.096c-.811-.085-1.472-.325-1.984-.72-.512-.405-.768-.971-.768-1.696 0-.544.139-1.008.416-1.392.277-.395.661-.693 1.152-.896.491-.213 1.056-.32 1.696-.32.96 0 1.739.213 2.336.64.597.427.907 1.061.928 1.904h-1.44c-.011-.341-.171-.629-.48-.864-.299-.245-.747-.368-1.344-.368-.597 0-1.051.123-1.36.368-.309.245-.464.555-.464.928 0 .32.107.576.32.768.224.192.587.315 1.088.368l.928.096c.917.096 1.653.352 2.208.768.555.405.832.981.832 1.728 0 .533-.155 1.008-.464 1.424-.299.405-.715.725-1.248.96-.533.224-1.147.336-1.84.336Z" fill="#F0F0FF"/><rect x="631.5" y="478.5" width="199" height="113" rx="11.5" stroke="#585A6D"/><path d="M737.75 510h-13.5c-1.243 0-2.25 1.007-2.25 2.25v13.5c0 1.243 1.007 2.25 2.25 2.25h13.5c1.243 0 2.25-1.007 2.25-2.25v-13.5c0-1.243-1.007-2.25-2.25-2.25Z" stroke="#EDEDFE" stroke-width="1.5" stroke-linecap="round" stroke-linejoin="round"/><path d="m731 514 1.308 3.692L736 519l-3.692 1.308L731 524l-1.308-3.692L726 519l3.692-1.308L731 514Z" fill="#EDEDFE"/><path d="M719 523h3M719 515h3M740 523h3M740 515h3M735 531v-3M727 531v-3M735 510v-3M727 510v-3" stroke="#EDEDFE" stroke-width="1.5" stroke-linecap="round" stroke-linejoin="round"/><path d="m681.948 560 4.208-11.68h2.656l4.336 11.68h-1.616l-3.92-10.656.768.384h-1.888l.816-.384L683.516 560h-1.568Zm2.512-3.488.528-1.408h5.04l.528 1.408h-6.096ZM695.322 560v-11.68h1.568V560h-1.568Zm8.416 3.2v-11.744h1.216v3.696l-.288-.032c.053-.917.245-1.664.576-2.24.341-.587.784-1.019 1.328-1.296.544-.277 1.136-.416 1.776-.416.618 0 1.178.117 1.68.352.512.235.949.555 1.312.96.362.405.64.875.832 1.408.192.533.288 1.099.288 1.696v.288c0 .597-.102 1.163-.304 1.696-.203.533-.491 1.003-.864 1.408-.363.405-.8.725-1.312.96-.502.235-1.056.352-1.664.352-.608 0-1.19-.133-1.744-.4-.555-.267-1.014-.699-1.376-1.296-.363-.597-.571-1.381-.624-2.352l.704 1.28v5.68h-1.536Zm4.336-4.256c.576 0 1.077-.133 1.504-.4.426-.277.757-.656.992-1.136.234-.491.352-1.051.352-1.68 0-.64-.118-1.2-.352-1.68-.235-.48-.566-.853-.992-1.12-.427-.277-.928-.416-1.504-.416-.512 0-.987.117-1.424.352-.438.224-.79.555-1.056.992-.256.427-.384.944-.384 1.552v.736c0 .587.133 1.088.4 1.504.266.416.618.736 1.056.96.437.224.906.336 1.408.336Zm6.695 1.056v-8.544h1.216v3.52h-.064c0-1.248.272-2.16.816-2.736.555-.587 1.381-.88 2.48-.88h.288v1.376h-.544c-.853 0-1.509.229-1.968.688-.459.448-.688 1.099-.688 1.952V560h-1.536Zm10.405.288c-.747 0-1.403-.128-1.968-.384-.566-.256-1.046-.592-1.44-1.008-.384-.427-.678-.901-.88-1.424-.192-.523-.288-1.056-.288-1.6v-.288c0-.544.101-1.077.304-1.6.202-.533.501-1.008.896-1.424.394-.427.874-.763 1.44-1.008.565-.256 1.21-.384 1.936-.384.725 0 1.37.128 1.936.384.565.245 1.045.581 1.44 1.008.394.416.693.891.896 1.424.202.523.304 1.056.304 1.6v.288c0 .544-.102 1.077-.304 1.6-.192.523-.486.997-.88 1.424-.384.416-.859.752-1.424 1.008-.566.256-1.222.384-1.968.384Zm0-1.376c.64 0 1.184-.139 1.632-.416.458-.288.805-.672 1.04-1.152.245-.48.368-1.019.368-1.616 0-.608-.123-1.152-.368-1.632-.246-.48-.598-.859-1.056-1.136-.448-.277-.987-.416-1.616-.416-.619 0-1.158.139-1.616.416-.459.277-.811.656-1.056 1.136-.246.48-.368 1.024-.368 1.632 0 .597.117 1.136.352 1.616.245.48.592.864 1.04 1.152.458.277 1.008.416 1.648.416Zm8.544 1.088-2.912-8.544h1.6l2.848 8.544h-1.536Zm.384 0v-1.216h1.856V560h-1.856Zm.736 0 2.48-8.544h1.504L736.294 560h-1.456Zm6.409 0v-8.544h1.536V560h-1.536Zm-1.312-7.328v-1.216h2.848v1.216h-2.848Zm1.744-2.592c-.341 0-.597-.091-.768-.272-.16-.181-.24-.411-.24-.688 0-.277.08-.507.24-.688.171-.181.427-.272.768-.272.342 0 .592.091.752.272.171.181.256.411.256.688 0 .277-.085.507-.256.688-.16.181-.41.272-.752.272Zm7.642 10.208c-.608 0-1.168-.112-1.68-.336-.512-.224-.96-.539-1.344-.944-.373-.405-.666-.875-.88-1.408-.202-.533-.304-1.109-.304-1.728v-.288c0-.608.102-1.179.304-1.712.203-.533.486-1.003.848-1.408.374-.405.811-.72 1.312-.944.512-.235 1.078-.352 1.696-.352.651 0 1.243.139 1.776.416.534.267.971.688 1.312 1.264.342.576.534 1.323.576 2.24l-.64-1.024v-5.744h1.536V560h-1.216v-3.792h.448c-.042.971-.245 1.76-.608 2.368-.362.597-.821 1.035-1.376 1.312-.544.267-1.13.4-1.76.4Zm.208-1.344c.523 0 .998-.117 1.424-.352.427-.235.768-.571 1.024-1.008.256-.448.384-.971.384-1.568v-.736c0-.587-.133-1.083-.4-1.488-.256-.416-.602-.731-1.04-.944-.426-.224-.896-.336-1.408-.336-.565 0-1.066.133-1.504.4-.426.267-.762.64-1.008 1.12-.234.48-.352 1.045-.352 1.696s.123 1.221.368 1.712c.246.48.587.853 1.024 1.12.438.256.934.384 1.488.384Zm10.888 1.344c-.747 0-1.392-.128-1.936-.384s-.987-.592-1.328-1.008c-.342-.427-.598-.901-.768-1.424-.16-.523-.24-1.056-.24-1.6v-.288c0-.555.08-1.093.24-1.616.17-.523.426-.992.768-1.408.341-.427.773-.763 1.296-1.008.533-.256 1.157-.384 1.872-.384.928 0 1.69.203 2.288.608.608.395 1.056.907 1.344 1.536.298.629.448 1.301.448 2.016v.688h-7.584v-1.152h6.464l-.352.624c0-.608-.096-1.131-.288-1.568-.192-.448-.48-.795-.864-1.04s-.87-.368-1.456-.368c-.608 0-1.115.139-1.52.416-.395.277-.694.656-.896 1.136-.192.48-.288 1.035-.288 1.664 0 .608.096 1.157.288 1.648.202.48.512.864.928 1.152.416.277.944.416 1.584.416.672 0 1.216-.149 1.632-.448.426-.299.682-.645.768-1.04h1.44c-.118.587-.352 1.093-.704 1.52-.352.427-.795.752-1.328.976-.534.224-1.136.336-1.808.336Zm6.164-.288v-8.544h1.216v3.52h-.064c0-1.248.272-2.16.816-2.736.555-.587 1.382-.88 2.48-.88h.288v1.376h-.544c-.853 0-1.509.229-1.968.688-.458.448-.688 1.099-.688 1.952V560h-1.536Zm9.363.256c-1.12 0-1.989-.24-2.608-.72-.608-.48-.923-1.136-.944-1.968h1.44c.021.331.187.645.496.944.32.288.859.432 1.616.432.683 0 1.205-.133 1.568-.4.363-.277.544-.613.544-1.008 0-.352-.133-.624-.4-.816-.267-.203-.699-.336-1.296-.4l-.928-.096c-.811-.085-1.472-.325-1.984-.72-.512-.405-.768-.971-.768-1.696 0-.544.139-1.008.416-1.392.277-.395.661-.693 1.152-.896.491-.213 1.056-.32 1.696-.32.96 0 1.739.213 2.336.64.597.427.907 1.061.928 1.904h-1.44c-.011-.341-.171-.629-.48-.864-.299-.245-.747-.368-1.344-.368-.597 0-1.051.123-1.36.368-.309.245-.464.555-.464.928 0 .32.107.576.32.768.224.192.587.315 1.088.368l.928.096c.917.096 1.653.352 2.208.768.555.405.832.981.832 1.728 0 .533-.155 1.008-.464 1.424-.299.405-.715.725-1.248.96-.533.224-1.147.336-1.84.336Z" fill="#F0F0FF"/></svg>