<svg width="206" height="80" viewBox="0 0 206 80" fill="none" xmlns="http://www.w3.org/2000/svg">
<path d="M19.5 3C19.5 1.61929 20.6193 0.5 22 0.5H184C185.381 0.5 186.5 1.61929 186.5 3V77C186.5 78.3807 185.381 79.5 184 79.5H22C20.6193 79.5 19.5 78.3807 19.5 77V3Z" fill="#EFEFEF" stroke="#CCCCCC"/>
<path d="M39 19.5H38.5V20V79V79.5H39H168H168.5V79V20V19.5H168H39Z" fill="white" stroke="#CCCCCC"/>
<path d="M20 17H35V79H22C20.8954 79 20 78.1046 20 77V17Z" fill="#F5F5F5"/>
<path d="M186 17H171V79H184.015C185.111 79 186 77.8732 186 76.4832V17Z" fill="#F5F5F5"/>
<path d="M20 3C20 1.89543 20.8954 1 22 1H184C185.105 1 186 1.89543 186 3V9H20V3Z" fill="#446995"/>
<path fill-rule="evenodd" clip-rule="evenodd" d="M186 17H20V16H186V17Z" fill="#CCCCCC"/>
<path fill-rule="evenodd" clip-rule="evenodd" d="M36 16V79H35V16H36Z" fill="#CCCCCC"/>
<path fill-rule="evenodd" clip-rule="evenodd" d="M172 17V79H171V17H172Z" fill="#CCCCCC"/>
<path fill-rule="evenodd" clip-rule="evenodd" d="M159 33.5C159 33.2239 158.81 33 158.575 33H88.4252C88.1904 33 88 33.2239 88 33.5C88 33.7761 88.1904 34 88.4252 34H158.575C158.81 34 159 33.7761 159 33.5Z" fill="#F5F5F5"/>
<path fill-rule="evenodd" clip-rule="evenodd" d="M159 43.5C159 43.2239 158.81 43 158.575 43H88.4252C88.1904 43 88 43.2239 88 43.5C88 43.7761 88.1904 44 88.4252 44H158.575C158.81 44 159 43.7761 159 43.5Z" fill="#F5F5F5"/>
<path fill-rule="evenodd" clip-rule="evenodd" d="M159 63.5C159 63.2239 158.702 63 158.335 63H48.6647C48.2976 63 48 63.2239 48 63.5C48 63.7761 48.2976 64 48.6647 64H158.335C158.702 64 159 63.7761 159 63.5Z" fill="#F5F5F5"/>
<path fill-rule="evenodd" clip-rule="evenodd" d="M159 53.5C159 53.2239 158.81 53 158.575 53H88.4252C88.1904 53 88 53.2239 88 53.5C88 53.7761 88.1904 54 88.4252 54H158.575C158.81 54 159 53.7761 159 53.5Z" fill="#F5F5F5"/>
<path fill-rule="evenodd" clip-rule="evenodd" d="M55.8179 33C56.3702 33 56.8179 33.4477 56.8179 34C56.8179 34.5523 56.3702 35 55.8179 35H51C50.4477 35 50 35.4477 50 36V40.2494C50 40.8017 49.5523 41.2494 49 41.2494C48.4477 41.2494 48 40.8017 48 40.2494V36C48 34.3431 49.3431 33 51 33H55.8179ZM72.1807 33C71.6284 33 71.1807 33.4477 71.1807 34C71.1807 34.5523 71.6284 35 72.1807 35H76.9986C77.5509 35 77.9986 35.4477 77.9986 36V40.2494C77.9986 40.8017 78.4463 41.2494 78.9986 41.2494C79.5509 41.2494 79.9986 40.8017 79.9986 40.2494V36C79.9986 34.3431 78.6554 33 76.9986 33H72.1807ZM71.1807 53.9982C71.1807 54.5505 71.6284 54.9982 72.1807 54.9982H76.9986C78.6554 54.9982 79.9986 53.655 79.9986 51.9982V47.7488C79.9986 47.1965 79.5509 46.7488 78.9986 46.7488C78.4463 46.7488 77.9986 47.1965 77.9986 47.7488V51.9982C77.9986 52.5505 77.5509 52.9982 76.9986 52.9982H72.1807C71.6284 52.9982 71.1807 53.4459 71.1807 53.9982ZM55.8179 54.9982C56.3702 54.9982 56.8179 54.5505 56.8179 53.9982C56.8179 53.4459 56.3702 52.9982 55.8179 52.9982H51C50.4477 52.9982 50 52.5505 50 51.9982V47.7488C50 47.1965 49.5523 46.7488 49 46.7488C48.4477 46.7488 48 47.1965 48 47.7488V51.9982C48 53.655 49.3431 54.9982 51 54.9982H55.8179Z" fill="#F5F5F5"/>
<path d="M75.1854 57.5964L78.3794 68.9412L75.9911 70.3201L71.6515 65.8974C71.5671 65.8138 71.4438 65.6835 71.2815 65.5066C71.1192 65.3296 70.9442 65.136 70.7566 64.9255C70.5664 64.7106 70.3898 64.5089 70.2268 64.3203C70.0657 64.1246 69.9419 63.9676 69.8555 63.8491C69.9148 63.9832 69.9854 64.168 70.0672 64.4034C70.1536 64.6362 70.2409 64.8865 70.3293 65.1542C70.4222 65.4193 70.506 65.6686 70.5807 65.9021C70.6554 66.1357 70.7105 66.3144 70.7459 66.4382L72.4052 72.3904L70.0237 73.7654L61.7891 65.3308L63.8526 64.1394L68.235 68.808C68.3649 68.9496 68.5174 69.1201 68.6928 69.3196C68.8726 69.5165 69.0567 69.7259 69.245 69.948C69.4352 70.1629 69.6148 70.375 69.7837 70.5842C69.9545 70.7863 70.0971 70.9655 70.2115 71.122C70.1351 70.9376 70.0498 70.7222 69.9557 70.4758C69.859 70.225 69.7632 69.9705 69.6684 69.7126C69.5755 69.4475 69.493 69.2004 69.4209 68.9714C69.3488 68.7424 69.2943 68.5543 69.2575 68.4072L67.4994 62.0339L69.4818 60.8894L74.1221 65.5986C74.224 65.7021 74.3552 65.8459 74.5156 66.03C74.6778 66.2069 74.8506 66.4019 75.0337 66.6149C75.2168 66.8279 75.3928 67.039 75.5617 67.2482C75.7325 67.4503 75.8751 67.6296 75.9895 67.7861C75.8909 67.5423 75.7762 67.2447 75.6454 66.8932C75.5165 66.5346 75.3912 66.1769 75.2695 65.8202C75.1523 65.4609 75.0559 65.1587 74.9806 64.9135L73.1218 58.7878L75.1854 57.5964ZM80.3434 57.5142C81.3583 56.9283 82.264 56.7001 83.0605 56.8296C83.8569 56.9591 84.5156 57.4749 85.0364 58.377L87.9466 63.4176L86.5055 64.2496L85.5125 63.4517L85.4584 63.4829C85.3982 63.8786 85.3047 64.2272 85.1782 64.5288C85.0516 64.8304 84.8652 65.1064 84.6189 65.3569C84.3725 65.6074 84.0396 65.8537 83.6202 66.0959C83.1736 66.3537 82.7227 66.4998 82.2674 66.5341C81.8166 66.5658 81.3882 66.4644 80.9821 66.2297C80.5734 65.9906 80.2115 65.5981 79.8964 65.0523C79.4328 64.2495 79.3736 63.4958 79.7187 62.7914C80.0611 62.0825 80.7845 61.3822 81.8887 60.6906L83.1778 59.8922L82.9864 59.5606C82.7572 59.1637 82.4855 58.9327 82.1713 58.8675C81.857 58.8024 81.5149 58.8766 81.1451 59.0901C80.7797 59.3011 80.4511 59.56 80.1592 59.8668C79.8672 60.1737 79.5909 60.5076 79.3302 60.8686L77.8422 59.8694C78.1213 59.4256 78.4737 58.9996 78.8995 58.5914C79.3299 58.1806 79.8112 57.8215 80.3434 57.5142ZM83.8731 61.0965L83.0904 61.5845C82.4332 61.9879 82.0376 62.3757 81.9036 62.7478C81.7741 63.1172 81.8136 63.4824 82.0219 63.8432C82.2042 64.1589 82.4269 64.3311 82.6899 64.3596C82.9504 64.3837 83.2294 64.3098 83.5271 64.1379C83.9692 63.8827 84.2658 63.537 84.4169 63.1009C84.5726 62.6622 84.5111 62.2016 84.2325 61.7189L83.8731 61.0965ZM92.1163 58.9985C92.3418 58.8683 92.5476 58.7194 92.7335 58.5519C92.924 58.3818 93.1057 58.2017 93.2786 58.0117L94.1653 59.5475C94.0016 59.7744 93.7733 60.0144 93.4805 60.2677C93.1948 60.5228 92.858 60.7624 92.4701 60.9863C92.0191 61.2468 91.5715 61.409 91.1273 61.473C90.685 61.5298 90.256 61.4378 89.8401 61.1967C89.4262 60.9485 89.0318 60.4997 88.6568 59.8502L86.5513 56.2034L85.5635 56.7737L85.0596 55.9009L85.7978 54.5546L85.4713 52.6141L86.7907 51.8523L87.7204 53.4626L89.8381 52.24L90.7326 53.7893L88.6149 55.012L90.7204 58.6588C90.887 58.9474 91.0932 59.1171 91.3389 59.1677C91.5865 59.2111 91.8457 59.1547 92.1163 58.9985ZM94.215 49.5235C94.9141 49.1199 95.5944 48.9075 96.2558 48.8865C96.9147 48.8609 97.5288 49.0236 98.0982 49.3744C98.6676 49.7253 99.1645 50.2683 99.589 51.0035L100.167 52.0049L95.289 54.8213C95.6475 55.3901 96.0855 55.7477 96.6029 55.8939C97.1223 56.0331 97.6729 55.9347 98.2548 55.5988C98.7374 55.3201 99.1508 55.0153 99.4949 54.6843C99.8391 54.3533 100.166 53.9662 100.475 53.5229L101.397 55.1197C101.13 55.5207 100.815 55.8826 100.454 56.2053C100.098 56.5254 99.6286 56.8534 99.0468 57.1893C98.289 57.6268 97.5362 57.875 96.7884 57.9339C96.0451 57.9902 95.3411 57.8283 94.6766 57.4481C94.0166 57.0654 93.4353 56.4387 92.9327 55.5682C92.4223 54.6841 92.1467 53.863 92.1058 53.1047C92.0669 52.3394 92.2312 51.6552 92.5987 51.0521C92.9635 50.4445 93.5023 49.935 94.215 49.5235ZM95.0762 50.9839C94.6747 51.2156 94.4152 51.5369 94.2975 51.9477C94.1843 52.3558 94.2663 52.8467 94.5434 53.4205L97.4392 51.7486C97.2576 51.4445 97.0436 51.2041 96.7974 51.0276C96.5556 50.8484 96.2884 50.7501 95.9956 50.7327C95.7074 50.7126 95.4009 50.7964 95.0762 50.9839ZM103.227 44.3202C103.331 44.2603 103.455 44.1981 103.598 44.1335C103.743 44.0618 103.863 44.0102 103.959 43.9788L104.921 46.0036C104.84 46.0201 104.734 46.0604 104.603 46.1242C104.473 46.181 104.363 46.2355 104.273 46.2875C104.007 46.4412 103.767 46.6248 103.553 46.8382C103.344 47.0491 103.185 47.2886 103.075 47.5565C102.963 47.8199 102.919 48.1095 102.945 48.4253C102.973 48.734 103.09 49.0665 103.296 49.4228L105.518 53.2726L103.455 54.464L99.0875 46.8998L100.65 45.9975L101.689 47.0937L101.791 47.0351C101.791 46.692 101.841 46.3507 101.939 46.0111C102.04 45.6644 102.196 45.3458 102.407 45.0555C102.62 44.758 102.894 44.5129 103.227 44.3202ZM113.904 38.156C114.761 37.6612 115.536 37.5085 116.229 37.698C116.923 37.8803 117.551 38.4563 118.11 39.4261L120.958 44.3584L118.888 45.5537L116.337 41.1356C116.025 40.5943 115.696 40.2395 115.353 40.0711C115.009 39.9028 114.643 39.9306 114.255 40.1545C113.709 40.4696 113.435 40.8898 113.431 41.415C113.425 41.9357 113.632 42.5592 114.051 43.2854L116.242 47.081L114.179 48.2724L111.628 43.8543C111.42 43.4935 111.205 43.2147 110.983 43.018C110.761 42.8213 110.531 42.7103 110.294 42.6849C110.057 42.6594 109.808 42.7222 109.546 42.8733C109.163 43.0946 108.916 43.3661 108.807 43.6876C108.7 44.0021 108.707 44.3738 108.829 44.8029C108.952 45.2248 109.169 45.7042 109.479 46.241L111.533 49.7998L109.47 50.9912L105.103 43.427L106.679 42.5168L107.515 43.3242L107.63 43.2578C107.632 42.9076 107.702 42.585 107.838 42.2898C107.979 41.992 108.167 41.724 108.402 41.4859C108.638 41.2477 108.9 41.0453 109.188 40.8787C109.743 40.5583 110.264 40.3777 110.752 40.3368C111.244 40.2933 111.703 40.401 112.129 40.6601L112.312 40.5547C112.314 40.0365 112.469 39.571 112.778 39.1582C113.091 38.7427 113.467 38.4086 113.904 38.156ZM121.447 33.7829C122.462 33.197 123.368 32.9688 124.164 33.0983C124.961 33.2279 125.619 33.7437 126.14 34.6458L129.05 39.6863L127.609 40.5184L126.616 39.7204L126.562 39.7517C126.502 40.1473 126.408 40.4959 126.282 40.7975C126.155 41.0992 125.969 41.3752 125.723 41.6256C125.476 41.8761 125.143 42.1224 124.724 42.3646C124.277 42.6224 123.826 42.7685 123.371 42.8028C122.92 42.8346 122.492 42.7331 122.086 42.4985C121.677 42.2593 121.315 41.8669 121 41.3211C120.537 40.5182 120.477 39.7646 120.822 39.0602C121.165 38.3512 121.888 37.651 122.992 36.9593L124.282 36.1609L124.09 35.8294C123.861 35.4325 123.589 35.2014 123.275 35.1363C122.961 35.0711 122.619 35.1453 122.249 35.3589C121.883 35.5698 121.555 35.8287 121.263 36.1356C120.971 36.4425 120.695 36.7764 120.434 37.1374L118.946 36.1382C119.225 35.6944 119.577 35.2684 120.003 34.8601C120.434 34.4493 120.915 34.0902 121.447 33.7829ZM124.977 37.3652L124.194 37.8532C123.537 38.2567 123.141 38.6445 123.007 39.0165C122.878 39.386 122.917 39.7511 123.126 40.112C123.308 40.4277 123.531 40.5998 123.794 40.6284C124.054 40.6524 124.333 40.5785 124.631 40.4066C125.073 40.1514 125.37 39.8058 125.521 39.3697C125.676 38.931 125.615 38.4703 125.336 37.9877L124.977 37.3652ZM130.677 28.4721C130.781 28.4122 130.904 28.35 131.047 28.2854C131.192 28.2137 131.313 28.1621 131.409 28.1306L132.371 30.1555C132.29 30.172 132.184 30.2122 132.052 30.2761C131.923 30.3329 131.813 30.3873 131.723 30.4394C131.457 30.5931 131.217 30.7766 131.003 30.9901C130.794 31.201 130.635 31.4404 130.525 31.7084C130.412 31.9718 130.369 32.2614 130.395 32.5772C130.423 32.8859 130.54 33.2184 130.745 33.5747L132.968 37.4245L130.904 38.6159L126.537 31.0517L128.1 30.1493L129.139 31.2455L129.24 31.1869C129.241 30.8439 129.29 30.5026 129.389 30.163C129.49 29.8163 129.645 29.4977 129.857 29.2074C130.07 28.9099 130.343 28.6648 130.677 28.4721ZM132.905 23.424L135.624 28.133C135.788 28.4172 135.941 28.7079 136.082 29.0051C136.224 29.3023 136.363 29.6007 136.5 29.9005L136.527 29.8849C136.552 29.6057 136.581 29.3275 136.613 29.0502C136.65 28.7703 136.7 28.492 136.763 28.2152L137.552 24.6921L139.88 23.3484L138.77 28.3642L144.43 30.8071L142.048 32.1821L138.1 30.375L137.624 31.5971L138.983 33.9516L136.92 35.1431L130.841 24.6154L132.905 23.424Z" fill="#CCCCCC"/>
</svg>
