<svg width="206" height="80" viewBox="0 0 206 80" fill="none" xmlns="http://www.w3.org/2000/svg">
<mask id="mask0_1928_13835" style="mask-type:luminance" maskUnits="userSpaceOnUse" x="19" y="0" width="168" height="80">
<path d="M187 0H19V80H187V0Z" fill="white"/>
</mask>
<g mask="url(#mask0_1928_13835)">
<path d="M187 0H19V80H187V0Z" fill="white"/>
<path d="M19.5 3C19.5 1.61929 20.6193 0.5 22 0.5H184C185.381 0.5 186.5 1.61929 186.5 3V77C186.5 78.3807 185.381 79.5 184 79.5H22C20.6193 79.5 19.5 78.3807 19.5 77V3Z" fill="white" stroke="#CCCCCC"/>
<path d="M20 16H186V9H20V16Z" fill="#F2F2F2"/>
<path d="M20 3C20 1.89543 20.8954 1 22 1H184C185.105 1 186 1.89543 186 3V9H20V3Z" fill="#51845F"/>
<path fill-rule="evenodd" clip-rule="evenodd" d="M186 33H20V32H186V33Z" fill="#CCCCCC"/>
<path fill-rule="evenodd" clip-rule="evenodd" d="M186 73H20V72H186V73Z" fill="#CCCCCC"/>
<path fill-rule="evenodd" clip-rule="evenodd" d="M186 49H20V48H186V49Z" fill="#CCCCCC"/>
<path fill-rule="evenodd" clip-rule="evenodd" d="M186 25H20V24H186V25Z" fill="#CCCCCC"/>
<path fill-rule="evenodd" clip-rule="evenodd" d="M186 65H20V64H186V65Z" fill="#CCCCCC"/>
<path fill-rule="evenodd" clip-rule="evenodd" d="M186 41H20V40H186V41Z" fill="#CCCCCC"/>
<path fill-rule="evenodd" clip-rule="evenodd" d="M186 57H20V56H186V57Z" fill="#CCCCCC"/>
<path fill-rule="evenodd" clip-rule="evenodd" d="M186 17H20V16H186V17Z" fill="#CCCCCC"/>
<path fill-rule="evenodd" clip-rule="evenodd" d="M145 80V16H146V80H145Z" fill="#CCCCCC"/>
<path fill-rule="evenodd" clip-rule="evenodd" d="M40 80V16H41V80H40Z" fill="#CCCCCC"/>
<path fill-rule="evenodd" clip-rule="evenodd" d="M103 80V16H104V80H103Z" fill="#CCCCCC"/>
<path fill-rule="evenodd" clip-rule="evenodd" d="M166 80V16H167V80H166Z" fill="#CCCCCC"/>
<path fill-rule="evenodd" clip-rule="evenodd" d="M61 80V16H62V80H61Z" fill="#CCCCCC"/>
<path fill-rule="evenodd" clip-rule="evenodd" d="M124 80V16H125V80H124Z" fill="#CCCCCC"/>
<path fill-rule="evenodd" clip-rule="evenodd" d="M82 80V16H83V80H82Z" fill="#CCCCCC"/>
</g>
<rect x="41" y="25" width="20" height="7" fill="#FF6F3D"/>
<rect x="41" y="33" width="20" height="7" fill="#FF6F3D"/>
<rect x="41" y="41" width="20" height="7" fill="#FF6F3D"/>
<rect x="41" y="49" width="20" height="7" fill="#FF6F3D"/>
<rect x="62" y="25" width="20" height="7" fill="#FF6F3D"/>
<rect x="62" y="33" width="20" height="7" fill="#FF6F3D"/>
<rect x="62" y="41" width="20" height="7" fill="#FF6F3D"/>
<rect x="62" y="49" width="20" height="7" fill="#FF6F3D"/>
<rect x="83" y="25" width="20" height="7" fill="#FF6F3D"/>
<rect x="83" y="33" width="20" height="7" fill="#FF6F3D"/>
<rect x="83" y="41" width="20" height="7" fill="#FF6F3D"/>
<rect x="83" y="49" width="20" height="7" fill="#FF6F3D"/>
<rect x="40.5" y="24.5" width="63" height="31" stroke="#444444"/>
<circle cx="40.5" cy="55.5" r="1.5" fill="#444444"/>
<circle cx="40.5" cy="24.5" r="1.5" fill="#444444"/>
<circle cx="103.5" cy="24.5" r="1.5" fill="#444444"/>
<circle cx="103.5" cy="55.5" r="1.5" fill="#444444"/>
<rect x="120.5" y="12.5" width="80" height="55" fill="white" stroke="#444444"/>
<path fill-rule="evenodd" clip-rule="evenodd" d="M130 55C130.552 55 131 55.316 131 55.7059V60.2941C131 60.684 130.552 61 130 61C129.448 61 129 60.684 129 60.2941V55.7059C129 55.316 129.448 55 130 55Z" fill="#AAAAAA"/>
<path fill-rule="evenodd" clip-rule="evenodd" d="M135 45C135.552 45 136 45.3332 136 45.7442V60.2558C136 60.6668 135.552 61 135 61C134.448 61 134 60.6668 134 60.2558V45.7442C134 45.3332 134.448 45 135 45Z" fill="#AAAAAA"/>
<path fill-rule="evenodd" clip-rule="evenodd" d="M140 53C140.552 53 141 53.3602 141 53.8045V60.1955C141 60.6398 140.552 61 140 61C139.448 61 139 60.6398 139 60.1955V53.8045C139 53.3602 139.448 53 140 53Z" fill="#AAAAAA"/>
<path fill-rule="evenodd" clip-rule="evenodd" d="M145 49C144.448 49 144 49.3417 144 49.7633V60.2368C144 60.6583 144.448 61 145 61C145.552 61 146 60.6583 146 60.2368V49.7633C146 49.3417 145.552 49 145 49Z" fill="#AAAAAA"/>
<path fill-rule="evenodd" clip-rule="evenodd" d="M150 53C149.448 53 149 53.3475 149 53.7763V60.2237C149 60.6525 149.448 61 150 61C150.552 61 151 60.6525 151 60.2237V53.7763C151 53.3475 150.552 53 150 53Z" fill="#AAAAAA"/>
<path fill-rule="evenodd" clip-rule="evenodd" d="M155 57C155.552 57 156 57.3411 156 57.7619V60.2381C156 60.6589 155.552 61 155 61C154.448 61 154 60.6589 154 60.2381V57.7619C154 57.3411 154.448 57 155 57Z" fill="#AAAAAA"/>
<path fill-rule="evenodd" clip-rule="evenodd" d="M160 55C160.552 55 161 55.316 161 55.7059V60.2941C161 60.684 160.552 61 160 61C159.448 61 159 60.684 159 60.2941V55.7059C159 55.316 159.448 55 160 55Z" fill="#AAAAAA"/>
<path fill-rule="evenodd" clip-rule="evenodd" d="M165 51C164.448 51 164 51.3393 164 51.7579V60.2421C164 60.6607 164.448 61 165 61C165.552 61 166 60.6607 166 60.2421V51.7579C166 51.3393 165.552 51 165 51Z" fill="#AAAAAA"/>
<path fill-rule="evenodd" clip-rule="evenodd" d="M170 53C169.448 53 169 53.3602 169 53.8045V60.1955C169 60.6398 169.448 61 170 61C170.552 61 171 60.6398 171 60.1955V53.8045C171 53.3602 170.552 53 170 53Z" fill="#AAAAAA"/>
<path fill-rule="evenodd" clip-rule="evenodd" d="M175 56C174.448 56 174 56.3173 174 56.7087V60.2913C174 60.6827 174.448 61 175 61C175.552 61 176 60.6827 176 60.2913V56.7087C176 56.3173 175.552 56 175 56Z" fill="#AAAAAA"/>
<path fill-rule="evenodd" clip-rule="evenodd" d="M180 52C180.552 52 181 52.3231 181 52.7216V60.2784C181 60.6769 180.552 61 180 61C179.448 61 179 60.6769 179 60.2784V52.7216C179 52.3231 179.448 52 180 52Z" fill="#AAAAAA"/>
<path fill-rule="evenodd" clip-rule="evenodd" d="M185 50C185.552 50 186 50.3283 186 50.7333V60.2667C186 60.6717 185.552 61 185 61C184.448 61 184 60.6717 184 60.2667V50.7333C184 50.3283 184.448 50 185 50Z" fill="#AAAAAA"/>
<path fill-rule="evenodd" clip-rule="evenodd" d="M190 54C190.552 54 191 54.3398 191 54.759V60.241C191 60.6602 190.552 61 190 61C189.448 61 189 60.6602 189 60.241V54.759C189 54.3398 189.448 54 190 54Z" fill="#AAAAAA"/>
<path fill-rule="evenodd" clip-rule="evenodd" d="M195 52C195.552 52 196 52.3231 196 52.7216V60.2784C196 60.6769 195.552 61 195 61C194.448 61 194 60.6769 194 60.2784V52.7216C194 52.3231 194.448 52 195 52Z" fill="#AAAAAA"/>
<circle cx="120.5" cy="67.5" r="1.5" fill="#444444"/>
<circle cx="200.5" cy="67.5" r="1.5" fill="#444444"/>
<circle cx="120.5" cy="12.5" r="1.5" fill="#444444"/>
<circle cx="200.5" cy="12.5" r="1.5" fill="#444444"/>
<path d="M130 41L139.324 26.1044C139.717 25.4773 140.631 25.4788 141.021 26.1073L148.427 38.0275C148.774 38.5859 149.556 38.6634 150.005 38.1841L158.266 29.3818C158.589 29.0378 159.108 28.9662 159.512 29.21L167.031 33.7489C167.451 34.002 167.992 33.9141 168.309 33.5413L175.55 25.0431C175.903 24.6281 176.524 24.5728 176.946 24.919L182.931 29.8362C183.41 30.23 184.129 30.0968 184.435 29.5574L191 18" stroke="url(#paint0_linear_1928_13835)" stroke-width="2" stroke-linecap="round"/>
<path d="M132 41C132 39.8961 131.104 39 130 39C128.893 39 128 39.8965 128 41C128 42.1039 128.896 43 130 43C131.104 43 132 42.1039 132 41Z" fill="#333333"/>
<path d="M142 25C142 23.8961 141.104 23 140 23C138.893 23 138 23.8965 138 25C138 26.1039 138.896 27 140 27C141.104 27 142 26.1039 142 25Z" fill="#333333"/>
<path d="M161 29C161 30.1039 160.104 31 159 31C157.893 31 157 30.1035 157 29C157 27.8961 157.896 27 159 27C160.104 27 161 27.8961 161 29Z" fill="#333333"/>
<path d="M170 34C170 35.1039 169.104 36 168 36C166.893 36 166 35.1035 166 34C166 32.8961 166.896 32 168 32C169.104 32 170 32.8961 170 34Z" fill="#333333"/>
<path d="M178 25C178 26.1039 177.104 27 176 27C174.893 27 174 26.1035 174 25C174 23.8961 174.896 23 176 23C177.104 23 178 23.8961 178 25Z" fill="#333333"/>
<path d="M186 30C186 31.1039 185.104 32 184 32C182.893 32 182 31.1035 182 30C182 28.8961 182.896 28 184 28C185.104 28 186 28.8961 186 30Z" fill="#333333"/>
<path d="M193 18C193 19.1039 192.104 20 191 20C189.893 20 189 19.1035 189 18C189 16.8961 189.896 16 191 16C192.104 16 193 16.8961 193 18Z" fill="#333333"/>
<path d="M151 39C151 40.1039 150.104 41 149 41C147.893 41 147 40.1035 147 39C147 37.8961 147.896 37 149 37C150.104 37 151 37.8961 151 39Z" fill="#333333"/>
<defs>
<linearGradient id="paint0_linear_1928_13835" x1="130" y1="17.1015" x2="144.761" y2="57.779" gradientUnits="userSpaceOnUse">
<stop stop-color="#FFC671"/>
<stop offset="0.59375" stop-color="#FF7541"/>
<stop offset="1" stop-color="#FF6F3D"/>
</linearGradient>
</defs>
</svg>
