<svg width="832" height="402" viewBox="0 0 832 402" fill="none" xmlns="http://www.w3.org/2000/svg">
<rect x="0.5" y="0.5" width="831" height="401" rx="2.5" fill="#F9F9F9"/>
<rect x="0.5" y="0.5" width="831" height="401" rx="2.5" stroke="#D0D5DA"/>
<rect x="528" y="17" width="254" height="369" rx="10" fill="#F5F5F5" stroke="#808080" stroke-linecap="round" stroke-linejoin="round" stroke-dasharray="5 7"/>
<rect x="235" y="17" width="254" height="369" rx="10" fill="#F5F5F5" stroke="#FF6F3D" stroke-linecap="round" stroke-linejoin="round" stroke-dasharray="5 7"/>
<rect opacity="0.8" x="269" y="204" width="481" height="156" rx="10" fill="#D9F4FF" stroke="#9ADAF3" stroke-linecap="round" stroke-linejoin="round" stroke-dasharray="5 7"/>
<path d="M663.315 298.56L663.315 298.56L663.315 298.548L663.273 268.918C663.268 265.884 660.807 263.426 657.773 263.426H585C581.962 263.426 579.5 265.888 579.5 268.926V326.333C579.5 329.371 581.962 331.833 585 331.833H657.206C660.197 331.833 662.639 329.444 662.705 326.454L663.315 298.56Z" fill="white" stroke="#333333"/>
<path fill-rule="evenodd" clip-rule="evenodd" d="M580 269.889C580 267.127 582.239 264.889 585 264.889H602.135L602.148 299.017L601.956 331.333H585C582.239 331.333 580 329.095 580 326.333V269.889Z" fill="#EFEFEF"/>
<path fill-rule="evenodd" clip-rule="evenodd" d="M586.741 319.278C586.465 319.278 586.241 319.502 586.241 319.778C586.241 320.054 586.465 320.278 586.741 320.278H595.407C595.684 320.278 595.907 320.054 595.907 319.778C595.907 319.502 595.684 319.278 595.407 319.278H586.741ZM586.741 310.611C586.465 310.611 586.241 310.835 586.241 311.111C586.241 311.387 586.465 311.611 586.741 311.611H595.407C595.684 311.611 595.907 311.387 595.907 311.111C595.907 310.835 595.684 310.611 595.407 310.611H586.741ZM586.241 302.444C586.241 302.168 586.465 301.944 586.741 301.944H595.407C595.684 301.944 595.907 302.168 595.907 302.444C595.907 302.721 595.684 302.944 595.407 302.944H586.741C586.465 302.944 586.241 302.721 586.241 302.444ZM586.741 293.278C586.465 293.278 586.241 293.502 586.241 293.778C586.241 294.054 586.465 294.278 586.741 294.278H595.407C595.684 294.278 595.907 294.054 595.907 293.778C595.907 293.502 595.684 293.278 595.407 293.278H586.741ZM586.241 285.111C586.241 284.835 586.465 284.611 586.741 284.611H595.407C595.684 284.611 595.907 284.835 595.907 285.111C595.907 285.387 595.684 285.611 595.407 285.611H586.741C586.465 285.611 586.241 285.387 586.241 285.111ZM586.741 275.944C586.465 275.944 586.241 276.168 586.241 276.444C586.241 276.721 586.465 276.944 586.741 276.944H595.407C595.684 276.944 595.907 276.721 595.907 276.444C595.907 276.168 595.684 275.944 595.407 275.944H586.741Z" fill="#333333"/>
<path d="M602.421 325.408V269.556" stroke="#333333" stroke-linecap="round"/>
<path fill-rule="evenodd" clip-rule="evenodd" d="M652.222 281.148C653.879 281.148 655.222 282.491 655.222 284.148V314.963C655.222 316.62 653.879 317.963 652.222 317.963C650.565 317.963 649.222 316.62 649.222 314.963V284.148C649.222 282.491 650.565 281.148 652.222 281.148ZM642.593 286.926C644.249 286.926 645.593 288.269 645.593 289.926V314.963C645.593 316.62 644.249 317.963 642.593 317.963C640.936 317.963 639.593 316.62 639.593 314.963V289.926C639.593 288.269 640.936 286.926 642.593 286.926ZM612.741 300.407C614.398 300.407 615.741 301.751 615.741 303.407V314.963C615.741 316.62 614.398 317.963 612.741 317.963C611.084 317.963 609.741 316.62 609.741 314.963V303.407C609.741 301.751 611.084 300.407 612.741 300.407ZM625.37 298.593C625.37 296.936 624.027 295.593 622.37 295.593C620.713 295.593 619.37 296.936 619.37 298.593V314.963C619.37 316.62 620.713 317.963 622.37 317.963C624.027 317.963 625.37 316.62 625.37 314.963V298.593ZM635.963 294.741C635.963 293.084 634.62 291.741 632.963 291.741C631.306 291.741 629.963 293.084 629.963 294.741V314.963C629.963 316.62 631.306 317.963 632.963 317.963C634.62 317.963 635.963 316.62 635.963 314.963V294.741Z" fill="url(#paint0_linear_19_7438)"/>
<rect x="668.593" y="262" width="67.4074" height="70.2963" rx="4" fill="white" stroke="#333333" stroke-linecap="round" stroke-dasharray="4 4"/>
<path fill-rule="evenodd" clip-rule="evenodd" d="M677.259 303.614V316.18C677.259 317.675 678.464 318.902 679.942 318.902H712.282C713.755 318.902 714.965 317.68 714.965 316.18V314.12V284.407V275.728V274.915C714.965 273.415 713.755 272.192 712.282 272.192H686.556L677.259 281.064V303.614Z" fill="#EFEFEF"/>
<path fill-rule="evenodd" clip-rule="evenodd" d="M686.72 271.63H701.228C701.384 271.63 701.51 271.756 701.51 271.911C701.51 272.066 701.384 272.192 701.228 272.192H686.955L677.822 281.461V316.462C677.822 317.805 678.905 318.902 680.223 318.902H712.564C713.878 318.902 714.965 317.81 714.965 316.462V284.689C714.965 284.533 715.091 284.407 715.246 284.407C715.402 284.407 715.528 284.533 715.528 284.689V316.462C715.528 318.113 714.196 319.465 712.564 319.465H680.223C678.585 319.465 677.259 318.108 677.259 316.462V281.23L686.72 271.63Z" fill="#333333"/>
<path fill-rule="evenodd" clip-rule="evenodd" d="M683.827 281.197C685.483 281.197 686.827 279.854 686.827 278.197V272.192L677.822 281.197H683.827Z" fill="#BDECFF"/>
<path d="M687.077 272.192C687.077 272.091 687.016 272 686.922 271.961C686.829 271.923 686.721 271.944 686.65 272.016L677.645 281.02C677.574 281.091 677.553 281.199 677.591 281.292C677.63 281.386 677.721 281.447 677.822 281.447H683.827C685.622 281.447 687.077 279.992 687.077 278.197V272.192Z" stroke="#333333" stroke-width="0.5" stroke-linejoin="round"/>
<path fill-rule="evenodd" clip-rule="evenodd" d="M685.926 307.547V320.375C685.926 321.902 687.198 323.155 688.76 323.155H721.36C722.916 323.155 724.194 323.155 724.194 320.375V318.272V289.49V280.054V279.224C724.194 277.698 722.922 277.007 721.36 277.007H695.802L685.926 286.351V307.547Z" fill="#FEFEFE"/>
<path fill-rule="evenodd" clip-rule="evenodd" d="M695.884 276.527C695.937 276.474 696.009 276.444 696.083 276.444H708.862C709.018 276.444 709.144 276.57 709.144 276.726C709.144 276.881 709.018 277.007 708.862 277.007H696.2L686.489 286.748V320.656C686.489 322.022 687.63 323.154 689.042 323.154H721.641C723.048 323.154 724.194 322.027 724.194 320.656V279.505C724.194 278.139 723.052 277.007 721.641 277.007C721.486 277.007 721.36 276.881 721.36 276.726C721.36 276.57 721.486 276.444 721.641 276.444C723.353 276.444 724.757 277.818 724.757 279.505V320.656C724.757 322.349 723.347 323.717 721.641 323.717H689.042C687.329 323.717 685.926 322.343 685.926 320.656V286.632C685.926 286.558 685.955 286.486 686.008 286.433L695.884 276.527Z" fill="#333333"/>
<path d="M696.306 277.007C696.306 276.906 696.245 276.815 696.152 276.776C696.058 276.738 695.951 276.759 695.879 276.831L686.312 286.398C686.24 286.469 686.219 286.577 686.258 286.67C686.296 286.764 686.388 286.824 686.489 286.824H693.056C694.851 286.824 696.306 285.369 696.306 283.574V277.007Z" fill="url(#paint1_linear_19_7438)" stroke="#333333" stroke-width="0.5" stroke-linejoin="round"/>
<path fill-rule="evenodd" clip-rule="evenodd" d="M692.93 296.667C692.785 296.667 692.667 296.882 692.667 297.148C692.667 297.414 692.785 297.63 692.93 297.63H707.512C707.658 297.63 707.776 297.414 707.776 297.148C707.776 296.882 707.658 296.667 707.512 296.667H692.93ZM710.202 296.667C710.056 296.667 709.938 296.882 709.938 297.148C709.938 297.414 710.056 297.63 710.202 297.63H717.44C717.585 297.63 717.704 297.414 717.704 297.148C717.704 296.882 717.585 296.667 717.44 296.667H710.202Z" fill="#CCCCCC"/>
<path fill-rule="evenodd" clip-rule="evenodd" d="M692.667 292.333C692.667 292.067 692.785 291.852 692.93 291.852H717.44C717.585 291.852 717.704 292.067 717.704 292.333C717.704 292.599 717.585 292.815 717.44 292.815H692.93C692.785 292.815 692.667 292.599 692.667 292.333Z" fill="#CCCCCC"/>
<path fill-rule="evenodd" clip-rule="evenodd" d="M692.667 301.963C692.667 301.697 692.785 301.481 692.93 301.481H717.44C717.585 301.481 717.704 301.697 717.704 301.963C717.704 302.229 717.585 302.444 717.44 302.444H692.93C692.785 302.444 692.667 302.229 692.667 301.963Z" fill="#CCCCCC"/>
<path fill-rule="evenodd" clip-rule="evenodd" d="M692.936 306.296C692.787 306.296 692.667 306.512 692.667 306.778C692.667 307.044 692.787 307.259 692.936 307.259H701.102C701.25 307.259 701.371 307.044 701.371 306.778C701.371 306.512 701.25 306.296 701.102 306.296H692.936ZM703.615 306.296C703.466 306.296 703.346 306.512 703.346 306.778C703.346 307.044 703.466 307.259 703.615 307.259H717.434C717.583 307.259 717.704 307.044 717.704 306.778C717.704 306.512 717.583 306.296 717.434 306.296H703.615Z" fill="#CCCCCC"/>
<path fill-rule="evenodd" clip-rule="evenodd" d="M706.755 311.111C706.904 311.111 707.025 311.327 707.025 311.593C707.025 311.858 706.904 312.074 706.755 312.074H692.936C692.787 312.074 692.667 311.858 692.667 311.593C692.667 311.327 692.787 311.111 692.936 311.111H706.755ZM717.434 311.111C717.583 311.111 717.704 311.327 717.704 311.593C717.704 311.858 717.583 312.074 717.434 312.074H709.268C709.119 312.074 708.999 311.858 708.999 311.593C708.999 311.327 709.119 311.111 709.268 311.111H717.434Z" fill="#CCCCCC"/>
<path d="M709.037 272.139V272.139C709.037 269.214 711.408 266.815 714.333 266.815V266.815C717.258 266.815 719.63 269.214 719.63 272.139V272.139V283.065C719.63 285.259 717.851 287.037 715.658 287.037V287.037C713.464 287.037 711.685 285.259 711.685 283.065V272.072C711.685 270.61 712.871 269.424 714.334 269.424V269.424C715.796 269.424 716.982 270.61 716.982 272.072V283.104C716.982 283.835 716.389 284.428 715.658 284.428V284.428C714.926 284.428 714.334 283.835 714.334 283.104V272.033" stroke="#333333" stroke-linecap="round" stroke-linejoin="round"/>
<g clip-path="url(#clip0_19_7438)">
<path fill-rule="evenodd" clip-rule="evenodd" d="M321.923 250.555H405.177C407.831 250.555 410 252.723 410 255.377V338.631C410 341.285 407.831 343.454 405.177 343.454H321.923C319.269 343.454 317.101 341.285 317.101 338.631V255.377C317.101 252.723 319.279 250.555 321.923 250.555Z" fill="#FEFEFE"/>
<path fill-rule="evenodd" clip-rule="evenodd" d="M325.215 255H401.784C403.005 255 404 256.07 404 257.384V273.616C404 274.93 403.005 276 401.784 276H325.215C323.994 276 323 274.93 323 273.616V257.373C323 256.07 323.994 255 325.215 255Z" fill="#BDECFF"/>
<path fill-rule="evenodd" clip-rule="evenodd" d="M324.751 255H402.248C403.006 255 403.694 255.312 404.192 255.816C404.691 256.32 405 257.015 405 257.781V273.219C405 273.985 404.691 274.68 404.192 275.184C403.694 275.688 403.006 276 402.248 276H324.751C323.993 276 323.305 275.688 322.807 275.184C322.309 274.68 322 273.985 322 273.219V257.771C322 257.005 322.309 256.31 322.807 255.806C323.305 255.312 323.993 255 324.751 255ZM402.248 256.028H324.751C324.272 256.028 323.844 256.229 323.535 256.542C323.226 256.854 323.026 257.298 323.026 257.781V273.219C323.026 273.702 323.226 274.136 323.535 274.458C323.844 274.771 324.282 274.972 324.751 274.972H402.248C402.727 274.972 403.156 274.771 403.474 274.458C403.783 274.146 403.983 273.702 403.983 273.219V257.771C403.983 257.287 403.783 256.854 403.474 256.532C403.165 256.219 402.727 256.028 402.248 256.028Z" fill="#333333"/>
<rect x="309.612" y="280.224" width="41" height="36.4043" rx="3.5" transform="rotate(-15 309.612 280.224)" fill="white" stroke="#333333"/>
<path fill-rule="evenodd" clip-rule="evenodd" d="M318.282 283.601L341.947 277.26C343.879 276.742 345.743 277.869 346.233 279.731C346.737 281.594 345.689 283.497 343.758 284.015L320.092 290.357C318.634 290.753 316.778 289.611 316.288 287.749C315.784 285.886 316.822 283.981 318.282 283.601Z" fill="#EFEFEF"/>
<path d="M319.669 286.846L329.328 284.258L339.501 281.5" stroke="#333333" stroke-linecap="round" stroke-linejoin="round"/>
<path fill-rule="evenodd" clip-rule="evenodd" d="M323.854 300.969L347.656 294.598C349.35 294.138 351.144 295.29 351.632 297.152C352.137 299.015 351.161 300.911 349.466 301.353L325.664 307.725C323.97 308.184 322.176 307.033 321.687 305.17C321.183 303.307 322.159 301.412 323.854 300.969Z" fill="url(#paint2_linear_19_7438)"/>
<path d="M330 303L334.496 301.741L344 299" stroke="white" stroke-linecap="round" stroke-linejoin="round"/>
<path fill-rule="evenodd" clip-rule="evenodd" d="M321.093 292.159L344.276 285.953C346.208 285.436 348.072 286.56 348.561 288.422C349.065 290.286 348.018 292.191 346.087 292.709L322.903 298.914C320.972 299.438 319.107 298.305 318.617 296.443C318.113 294.579 319.161 292.677 321.093 292.159Z" fill="#EFEFEF"/>
<path fill-rule="evenodd" clip-rule="evenodd" d="M323.544 293.573C324.342 293.352 325.174 293.831 325.379 294.632C325.6 295.434 325.126 296.269 324.312 296.472C323.515 296.693 322.683 296.214 322.478 295.396C322.273 294.611 322.747 293.793 323.544 293.573Z" fill="#333333"/>
<path fill-rule="evenodd" clip-rule="evenodd" d="M328.374 292.279C329.171 292.058 330.004 292.537 330.208 293.338C330.43 294.14 329.956 294.975 329.142 295.179C328.344 295.399 327.512 294.921 327.307 294.102C327.103 293.317 327.577 292.499 328.374 292.279Z" fill="#333333"/>
<path fill-rule="evenodd" clip-rule="evenodd" d="M333.204 290.984C334.001 290.764 334.833 291.243 335.038 292.044C335.26 292.846 334.786 293.681 333.971 293.884C333.174 294.105 332.342 293.626 332.137 292.808C331.932 292.023 332.406 291.205 333.204 290.984Z" fill="#333333"/>
<path fill-rule="evenodd" clip-rule="evenodd" d="M338.033 289.691C338.831 289.47 339.663 289.949 339.868 290.75C340.089 291.552 339.615 292.387 338.801 292.59C338.004 292.811 337.171 292.332 336.967 291.514C336.762 290.729 337.236 289.911 338.033 289.691Z" fill="#333333"/>
<path fill-rule="evenodd" clip-rule="evenodd" d="M342.863 288.396C343.66 288.176 344.492 288.654 344.697 289.456C344.919 290.258 344.445 291.093 343.63 291.296C342.833 291.517 342.001 291.038 341.796 290.219C341.591 289.435 342.065 288.617 342.863 288.396Z" fill="#333333"/>
<path fill-rule="evenodd" clip-rule="evenodd" d="M333 334L341.608 312H344.87L354 334H350.62L348.021 327.333H338.576L336.143 334H333ZM339.452 324.971H347.097L344.76 318.876C344.057 317.026 343.52 315.492 343.149 314.284C342.841 315.717 342.43 317.126 341.909 318.52L339.452 324.971Z" fill="url(#paint3_linear_19_7438)"/>
<path fill-rule="evenodd" clip-rule="evenodd" d="M330.509 265.984V269.331C330.509 269.37 330.499 269.4 330.48 269.43C330.46 269.46 330.43 269.479 330.381 269.499C330.331 269.519 330.272 269.529 330.193 269.539C330.113 269.549 330.014 269.559 329.905 269.559C329.786 269.559 329.687 269.559 329.618 269.539C329.539 269.529 329.479 269.509 329.43 269.499C329.38 269.479 329.351 269.46 329.331 269.43C329.311 269.4 329.301 269.37 329.301 269.331V265.984L326.736 260.864C326.687 260.755 326.657 260.676 326.637 260.616C326.627 260.557 326.637 260.507 326.677 260.478C326.707 260.448 326.776 260.428 326.865 260.418C326.954 260.408 327.073 260.408 327.232 260.408C327.37 260.408 327.489 260.408 327.568 260.418C327.657 260.428 327.727 260.438 327.776 260.458C327.826 260.478 327.865 260.497 327.895 260.527C327.915 260.557 327.945 260.596 327.964 260.646L329.222 263.25C329.341 263.498 329.45 263.756 329.569 264.023C329.687 264.3 329.806 264.568 329.925 264.845H329.935C330.044 264.577 330.153 264.31 330.262 264.053C330.381 263.785 330.49 263.528 330.608 263.27L331.866 260.646C331.876 260.596 331.896 260.557 331.926 260.527C331.955 260.497 331.985 260.468 332.034 260.458C332.084 260.438 332.143 260.428 332.223 260.418C332.302 260.408 332.401 260.408 332.53 260.408C332.698 260.408 332.827 260.408 332.926 260.428C333.025 260.438 333.084 260.458 333.124 260.497C333.163 260.527 333.173 260.577 333.163 260.636C333.153 260.696 333.124 260.775 333.064 260.884L330.509 265.984ZM339.283 266.112C339.283 265.588 339.214 265.112 339.095 264.686C338.966 264.261 338.768 263.904 338.511 263.617C338.253 263.32 337.937 263.102 337.55 262.943C337.164 262.785 336.709 262.716 336.194 262.716C335.659 262.716 335.193 262.805 334.787 262.973C334.381 263.151 334.055 263.389 333.787 263.706C333.52 264.023 333.322 264.389 333.183 264.825C333.054 265.261 332.985 265.726 332.985 266.241C332.985 266.776 333.045 267.251 333.173 267.677C333.302 268.093 333.49 268.459 333.748 268.747C334.005 269.044 334.322 269.262 334.708 269.42C335.094 269.578 335.55 269.648 336.065 269.648C336.6 269.648 337.065 269.559 337.471 269.38C337.877 269.202 338.214 268.964 338.481 268.648C338.749 268.331 338.957 267.964 339.085 267.529C339.214 267.103 339.283 266.627 339.283 266.112ZM338.075 266.182C338.075 266.548 338.036 266.885 337.966 267.182C337.897 267.489 337.778 267.746 337.61 267.964C337.451 268.182 337.243 268.35 336.996 268.479C336.748 268.598 336.451 268.657 336.114 268.657C335.748 268.657 335.431 268.588 335.184 268.459C334.936 268.331 334.738 268.143 334.589 267.925C334.441 267.697 334.332 267.43 334.273 267.132C334.203 266.825 334.173 266.499 334.173 266.152C334.173 265.796 334.213 265.459 334.292 265.152C334.372 264.845 334.49 264.587 334.649 264.36C334.807 264.142 335.005 263.963 335.253 263.845C335.5 263.726 335.798 263.666 336.134 263.666C336.501 263.666 336.818 263.736 337.065 263.864C337.313 263.993 337.511 264.181 337.659 264.409C337.808 264.637 337.907 264.904 337.976 265.211C338.046 265.518 338.075 265.845 338.075 266.182ZM346.394 269.341C346.394 269.38 346.384 269.41 346.374 269.44C346.354 269.46 346.324 269.489 346.285 269.509C346.245 269.529 346.186 269.539 346.116 269.549C346.047 269.559 345.968 269.559 345.869 269.559C345.76 269.559 345.671 269.559 345.611 269.549C345.542 269.539 345.493 269.529 345.453 269.509C345.413 269.489 345.384 269.47 345.374 269.44C345.354 269.41 345.354 269.38 345.354 269.341V268.509C344.997 268.905 344.641 269.192 344.284 269.37C343.938 269.549 343.581 269.648 343.225 269.648C342.799 269.648 342.452 269.578 342.165 269.44C341.878 269.301 341.64 269.113 341.462 268.865C341.284 268.628 341.155 268.35 341.076 268.024C340.997 267.707 340.957 267.311 340.957 266.855V263.033C340.957 262.993 340.967 262.963 340.977 262.934C340.997 262.914 341.026 262.884 341.076 262.864C341.125 262.844 341.185 262.825 341.254 262.825C341.323 262.815 341.422 262.815 341.531 262.815C341.64 262.815 341.739 262.815 341.809 262.825C341.878 262.835 341.937 262.844 341.987 262.864C342.026 262.884 342.056 262.914 342.076 262.934C342.096 262.963 342.106 262.993 342.106 263.033V266.707C342.106 267.073 342.135 267.37 342.185 267.598C342.234 267.816 342.324 268.014 342.433 268.162C342.541 268.321 342.68 268.44 342.848 268.529C343.017 268.618 343.215 268.657 343.433 268.657C343.72 268.657 344.007 268.558 344.294 268.35C344.581 268.143 344.888 267.845 345.215 267.449V263.033C345.215 262.993 345.225 262.963 345.235 262.934C345.255 262.914 345.285 262.884 345.334 262.864C345.384 262.844 345.443 262.825 345.512 262.825C345.582 262.815 345.681 262.815 345.799 262.815C345.908 262.815 346.007 262.815 346.077 262.825C346.146 262.835 346.215 262.844 346.255 262.864C346.295 262.884 346.324 262.914 346.354 262.934C346.374 262.963 346.384 262.993 346.384 263.033V269.341H346.394ZM352.226 263.439C352.226 263.538 352.226 263.627 352.217 263.696C352.217 263.765 352.207 263.825 352.187 263.864C352.177 263.904 352.157 263.934 352.137 263.954C352.118 263.973 352.088 263.983 352.048 263.983C352.009 263.983 351.969 263.973 351.91 263.954C351.85 263.934 351.791 263.914 351.731 263.894C351.662 263.874 351.593 263.855 351.504 263.835C351.424 263.815 351.325 263.805 351.226 263.805C351.107 263.805 350.999 263.825 350.88 263.874C350.771 263.924 350.652 264.003 350.523 264.112C350.394 264.221 350.266 264.36 350.137 264.538C350.008 264.716 349.85 264.934 349.691 265.191V269.341C349.691 269.38 349.681 269.41 349.662 269.44C349.642 269.46 349.612 269.489 349.573 269.509C349.533 269.529 349.473 269.539 349.394 269.549C349.325 269.559 349.226 269.559 349.107 269.559C348.988 269.559 348.899 269.559 348.82 269.549C348.741 269.539 348.681 269.529 348.642 269.509C348.592 269.489 348.562 269.47 348.553 269.44C348.533 269.41 348.533 269.38 348.533 269.341V263.033C348.533 262.993 348.543 262.963 348.553 262.934C348.562 262.914 348.592 262.884 348.632 262.864C348.671 262.844 348.731 262.825 348.79 262.825C348.859 262.815 348.939 262.815 349.048 262.815C349.147 262.815 349.236 262.815 349.305 262.825C349.374 262.835 349.424 262.844 349.464 262.864C349.503 262.884 349.533 262.914 349.543 262.934C349.563 262.963 349.563 262.993 349.563 263.033V263.954C349.731 263.696 349.899 263.498 350.048 263.33C350.206 263.171 350.345 263.043 350.484 262.953C350.622 262.864 350.751 262.805 350.89 262.765C351.028 262.726 351.157 262.716 351.296 262.716C351.355 262.716 351.424 262.716 351.504 262.726C351.583 262.736 351.662 262.745 351.741 262.765C351.83 262.785 351.9 262.805 351.969 262.835C352.038 262.854 352.088 262.884 352.108 262.904C352.137 262.924 352.157 262.953 352.167 262.973C352.177 262.993 352.187 263.023 352.197 263.052C352.207 263.082 352.207 263.132 352.207 263.191C352.226 263.25 352.226 263.33 352.226 263.439ZM365.605 263.013C365.605 263.043 365.605 263.082 365.595 263.132C365.586 263.181 365.566 263.241 365.546 263.31L363.684 269.301C363.674 269.351 363.645 269.4 363.615 269.43C363.585 269.46 363.546 269.489 363.486 269.509C363.427 269.529 363.357 269.539 363.268 269.549C363.179 269.559 363.06 269.559 362.922 269.559C362.773 269.559 362.654 269.559 362.555 269.549C362.456 269.539 362.377 269.529 362.318 269.509C362.258 269.489 362.219 269.46 362.189 269.43C362.159 269.4 362.139 269.361 362.129 269.311L360.802 264.736L360.793 264.676L360.783 264.736L359.555 269.311C359.545 269.361 359.515 269.41 359.485 269.44C359.456 269.47 359.406 269.499 359.347 269.519C359.287 269.539 359.208 269.549 359.109 269.559C359.01 269.569 358.891 269.569 358.753 269.569C358.604 269.569 358.495 269.569 358.396 269.559C358.307 269.549 358.228 269.539 358.178 269.519C358.119 269.499 358.079 269.47 358.049 269.44C358.02 269.41 358 269.37 357.99 269.321L356.148 263.33C356.128 263.26 356.108 263.201 356.099 263.151C356.089 263.102 356.089 263.062 356.089 263.033C356.089 262.993 356.099 262.953 356.118 262.934C356.138 262.914 356.168 262.884 356.217 262.874C356.257 262.854 356.316 262.844 356.396 262.844C356.475 262.844 356.564 262.835 356.673 262.835C356.802 262.835 356.911 262.835 356.99 262.844C357.069 262.854 357.128 262.864 357.178 262.884C357.218 262.904 357.247 262.924 357.267 262.953C357.287 262.983 357.297 263.023 357.317 263.062L358.842 268.271L358.852 268.331L358.861 268.271L360.258 263.062C360.268 263.023 360.278 262.983 360.307 262.953C360.327 262.924 360.357 262.904 360.396 262.884C360.436 262.864 360.495 262.854 360.565 262.844C360.634 262.835 360.733 262.835 360.852 262.835C360.961 262.835 361.06 262.835 361.129 262.844C361.199 262.854 361.258 262.864 361.298 262.884C361.337 262.904 361.367 262.924 361.387 262.953C361.406 262.983 361.416 263.013 361.426 263.052L362.932 268.281L362.941 268.341L362.951 268.281L364.447 263.072C364.457 263.033 364.466 262.993 364.496 262.963C364.516 262.934 364.546 262.914 364.595 262.894C364.635 262.874 364.694 262.864 364.773 262.854C364.853 262.844 364.952 262.844 365.071 262.844C365.179 262.844 365.279 262.844 365.338 262.854C365.407 262.854 365.457 262.874 365.496 262.894C365.536 262.914 365.566 262.934 365.586 262.953C365.595 262.943 365.605 262.973 365.605 263.013ZM372.29 265.904C372.29 266.083 372.24 266.211 372.151 266.291C372.062 266.37 371.953 266.41 371.834 266.41H367.685C367.685 266.766 367.725 267.073 367.794 267.36C367.863 267.647 367.982 267.885 368.15 268.083C368.309 268.281 368.527 268.44 368.784 268.549C369.052 268.657 369.368 268.707 369.745 268.707C370.042 268.707 370.309 268.687 370.547 268.638C370.785 268.588 370.983 268.539 371.151 268.479C371.319 268.42 371.468 268.36 371.577 268.321C371.686 268.271 371.765 268.242 371.824 268.242C371.854 268.242 371.884 268.251 371.913 268.261C371.933 268.281 371.963 268.301 371.973 268.331C371.983 268.36 372.003 268.41 372.003 268.469C372.013 268.529 372.013 268.598 372.013 268.687C372.013 268.747 372.013 268.796 372.003 268.846C372.003 268.885 371.993 268.925 371.983 268.964C371.973 269.004 371.963 269.034 371.943 269.063C371.923 269.093 371.904 269.113 371.884 269.143C371.854 269.172 371.785 269.212 371.656 269.271C371.527 269.331 371.369 269.39 371.171 269.44C370.973 269.499 370.735 269.549 370.478 269.588C370.21 269.638 369.933 269.658 369.636 269.658C369.121 269.658 368.665 269.588 368.269 269.44C367.883 269.301 367.556 269.083 367.289 268.796C367.021 268.509 366.823 268.152 366.685 267.717C366.546 267.291 366.487 266.786 366.487 266.221C366.487 265.677 366.556 265.191 366.695 264.756C366.833 264.33 367.041 263.954 367.299 263.656C367.566 263.359 367.883 263.122 368.259 262.963C368.636 262.805 369.052 262.726 369.517 262.726C370.012 262.726 370.438 262.805 370.785 262.963C371.131 263.122 371.418 263.34 371.646 263.607C371.864 263.874 372.032 264.191 372.141 264.558C372.25 264.924 372.3 265.31 372.3 265.716V265.904H372.29ZM371.131 265.568C371.141 264.964 371.012 264.478 370.725 264.132C370.438 263.785 370.022 263.617 369.467 263.617C369.18 263.617 368.933 263.666 368.715 263.775C368.497 263.884 368.319 264.023 368.17 264.211C368.022 264.389 367.913 264.597 367.833 264.835C367.754 265.073 367.705 265.32 367.695 265.578H371.131V265.568ZM379.866 266.093C379.866 266.637 379.806 267.132 379.687 267.568C379.568 268.004 379.4 268.38 379.162 268.687C378.935 268.994 378.647 269.232 378.311 269.39C377.974 269.559 377.588 269.638 377.162 269.638C376.964 269.638 376.776 269.618 376.607 269.578C376.439 269.539 376.271 269.479 376.112 269.39C375.954 269.301 375.786 269.192 375.617 269.054C375.459 268.915 375.28 268.756 375.102 268.568V269.341C375.102 269.38 375.092 269.41 375.073 269.44C375.053 269.47 375.023 269.489 374.983 269.509C374.944 269.529 374.884 269.539 374.825 269.549C374.766 269.559 374.676 269.559 374.577 269.559C374.488 269.559 374.399 269.559 374.34 269.549C374.27 269.539 374.221 269.529 374.181 269.509C374.142 269.489 374.112 269.47 374.092 269.44C374.082 269.41 374.072 269.38 374.072 269.341V259.983C374.072 259.943 374.082 259.913 374.092 259.883C374.112 259.854 374.142 259.834 374.181 259.814C374.221 259.794 374.28 259.784 374.359 259.775C374.439 259.765 374.528 259.765 374.647 259.765C374.766 259.765 374.855 259.765 374.934 259.775C375.013 259.784 375.073 259.794 375.112 259.814C375.152 259.834 375.181 259.854 375.201 259.883C375.221 259.913 375.231 259.943 375.231 259.983V263.756C375.419 263.567 375.597 263.399 375.776 263.27C375.954 263.142 376.122 263.033 376.291 262.953C376.459 262.874 376.627 262.815 376.796 262.775C376.964 262.736 377.142 262.716 377.33 262.716C377.786 262.716 378.182 262.805 378.499 262.993C378.826 263.171 379.083 263.419 379.291 263.726C379.489 264.033 379.648 264.389 379.737 264.805C379.816 265.201 379.866 265.637 379.866 266.093ZM378.657 266.231C378.657 265.904 378.638 265.597 378.588 265.29C378.539 264.983 378.459 264.716 378.331 264.478C378.212 264.241 378.053 264.053 377.845 263.914C377.647 263.775 377.39 263.696 377.093 263.696C376.944 263.696 376.796 263.716 376.647 263.756C376.499 263.795 376.35 263.874 376.201 263.973C376.053 264.072 375.894 264.201 375.736 264.35C375.578 264.498 375.399 264.696 375.221 264.934V267.449C375.538 267.836 375.845 268.133 376.132 268.341C376.419 268.539 376.726 268.648 377.043 268.648C377.33 268.648 377.578 268.578 377.786 268.44C377.994 268.301 378.162 268.113 378.291 267.875C378.42 267.647 378.509 267.38 378.568 267.093C378.628 266.816 378.657 266.528 378.657 266.231ZM385.5 267.618C385.5 267.944 385.441 268.232 385.322 268.479C385.203 268.727 385.035 268.945 384.817 269.113C384.599 269.281 384.332 269.42 384.035 269.509C383.728 269.598 383.401 269.648 383.034 269.648C382.807 269.648 382.599 269.628 382.391 269.598C382.183 269.569 382.005 269.519 381.846 269.47C381.688 269.42 381.549 269.361 381.44 269.301C381.331 269.242 381.242 269.192 381.193 269.143C381.143 269.093 381.103 269.034 381.084 268.945C381.064 268.865 381.044 268.747 381.044 268.598C381.044 268.509 381.044 268.44 381.054 268.38C381.064 268.321 381.074 268.271 381.084 268.232C381.093 268.192 381.123 268.172 381.143 268.152C381.173 268.133 381.202 268.133 381.232 268.133C381.282 268.133 381.361 268.162 381.46 268.232C381.559 268.291 381.688 268.36 381.826 268.44C381.975 268.509 382.143 268.578 382.351 268.648C382.549 268.707 382.777 268.747 383.044 268.747C383.242 268.747 383.421 268.727 383.579 268.677C383.738 268.638 383.876 268.578 383.995 268.489C384.114 268.41 384.203 268.301 384.262 268.172C384.322 268.043 384.352 267.895 384.352 267.717C384.352 267.538 384.302 267.39 384.213 267.271C384.124 267.152 384.005 267.043 383.856 266.944C383.708 266.855 383.539 266.766 383.351 266.697C383.163 266.627 382.975 266.548 382.777 266.469C382.579 266.39 382.391 266.301 382.193 266.202C382.005 266.103 381.836 265.984 381.688 265.835C381.539 265.687 381.42 265.518 381.331 265.32C381.242 265.122 381.193 264.884 381.193 264.597C381.193 264.35 381.242 264.112 381.331 263.884C381.43 263.656 381.569 263.458 381.767 263.29C381.965 263.122 382.203 262.983 382.49 262.874C382.777 262.775 383.114 262.726 383.5 262.726C383.668 262.726 383.837 262.736 384.005 262.765C384.173 262.795 384.322 262.835 384.46 262.874C384.599 262.914 384.708 262.963 384.807 263.013C384.906 263.062 384.975 263.112 385.025 263.151C385.074 263.191 385.104 263.221 385.124 263.25C385.144 263.28 385.154 263.31 385.164 263.35C385.173 263.379 385.173 263.429 385.183 263.478C385.193 263.528 385.193 263.597 385.193 263.666C385.193 263.746 385.193 263.815 385.183 263.874C385.173 263.934 385.164 263.983 385.144 264.013C385.124 264.053 385.104 264.082 385.084 264.092C385.065 264.112 385.035 264.112 385.005 264.112C384.966 264.112 384.906 264.082 384.817 264.033C384.738 263.983 384.639 263.924 384.51 263.864C384.381 263.805 384.233 263.746 384.064 263.696C383.896 263.647 383.698 263.617 383.48 263.617C383.282 263.617 383.114 263.637 382.965 263.686C382.817 263.726 382.688 263.795 382.599 263.874C382.5 263.954 382.43 264.053 382.381 264.162C382.331 264.27 382.312 264.389 382.312 264.518C382.312 264.696 382.361 264.855 382.45 264.974C382.539 265.102 382.668 265.201 382.817 265.3C382.965 265.39 383.133 265.479 383.332 265.558C383.52 265.627 383.718 265.706 383.916 265.786C384.114 265.865 384.312 265.954 384.5 266.053C384.698 266.152 384.866 266.271 385.015 266.41C385.164 266.548 385.282 266.716 385.372 266.915C385.451 267.113 385.5 267.35 385.5 267.618ZM388.313 269.341C388.313 269.38 388.303 269.41 388.283 269.44C388.263 269.46 388.233 269.489 388.194 269.509C388.154 269.529 388.095 269.539 388.016 269.549C387.946 269.559 387.847 269.559 387.728 269.559C387.61 269.559 387.52 269.559 387.441 269.549C387.362 269.539 387.303 269.529 387.263 269.509C387.213 269.489 387.184 269.47 387.174 269.44C387.154 269.41 387.154 269.38 387.154 269.341V263.033C387.154 263.003 387.164 262.963 387.174 262.943C387.194 262.914 387.223 262.894 387.263 262.874C387.303 262.854 387.362 262.844 387.441 262.835C387.511 262.825 387.61 262.825 387.728 262.825C387.847 262.825 387.946 262.825 388.016 262.835C388.095 262.844 388.144 262.854 388.194 262.874C388.233 262.894 388.263 262.914 388.283 262.943C388.303 262.973 388.313 263.003 388.313 263.033V269.341ZM388.441 260.903C388.441 261.181 388.392 261.359 388.283 261.458C388.184 261.557 387.996 261.607 387.709 261.607C387.431 261.607 387.253 261.557 387.144 261.468C387.045 261.369 386.996 261.191 386.996 260.923C386.996 260.646 387.045 260.468 387.154 260.369C387.253 260.27 387.441 260.22 387.719 260.22C387.996 260.22 388.174 260.27 388.283 260.359C388.392 260.448 388.441 260.636 388.441 260.903ZM393.72 268.875C393.72 269.014 393.71 269.123 393.69 269.202C393.67 269.281 393.64 269.341 393.611 269.38C393.571 269.42 393.522 269.45 393.442 269.489C393.373 269.519 393.284 269.549 393.185 269.569C393.086 269.588 392.987 269.608 392.878 269.618C392.769 269.628 392.66 269.638 392.561 269.638C392.234 269.638 391.957 269.598 391.719 269.509C391.492 269.42 391.293 269.291 391.145 269.113C390.996 268.935 390.887 268.717 390.818 268.45C390.749 268.182 390.719 267.865 390.719 267.499V263.815H389.828C389.759 263.815 389.699 263.775 389.659 263.706C389.62 263.637 389.6 263.508 389.6 263.34C389.6 263.25 389.6 263.181 389.62 263.122C389.63 263.062 389.65 263.013 389.669 262.973C389.689 262.934 389.719 262.904 389.739 262.884C389.768 262.864 389.808 262.864 389.838 262.864H390.719V261.369C390.719 261.339 390.729 261.3 390.739 261.28C390.759 261.25 390.788 261.23 390.828 261.21C390.868 261.191 390.927 261.171 391.006 261.161C391.076 261.151 391.175 261.151 391.284 261.151C391.402 261.151 391.501 261.151 391.571 261.161C391.65 261.171 391.709 261.181 391.749 261.21C391.789 261.23 391.818 261.26 391.838 261.28C391.858 261.31 391.868 261.339 391.868 261.369V262.864H393.472C393.512 262.864 393.541 262.874 393.571 262.884C393.601 262.904 393.621 262.934 393.64 262.973C393.66 263.013 393.68 263.062 393.69 263.122C393.7 263.181 393.7 263.26 393.7 263.34C393.7 263.508 393.68 263.627 393.64 263.706C393.601 263.785 393.541 263.815 393.472 263.815H391.868V267.321C391.868 267.756 391.937 268.083 392.056 268.301C392.185 268.519 392.412 268.638 392.739 268.638C392.848 268.638 392.937 268.628 393.026 268.608C393.106 268.588 393.185 268.568 393.244 268.539C393.304 268.519 393.363 268.489 393.413 268.469C393.462 268.45 393.502 268.44 393.541 268.44C393.561 268.44 393.591 268.44 393.611 268.459C393.631 268.469 393.65 268.489 393.66 268.529C393.67 268.558 393.68 268.608 393.69 268.667C393.71 268.717 393.72 268.786 393.72 268.875ZM400.473 265.904C400.473 266.083 400.424 266.211 400.335 266.291C400.246 266.37 400.137 266.41 400.018 266.41H395.879C395.879 266.766 395.918 267.073 395.987 267.36C396.057 267.647 396.176 267.885 396.344 268.083C396.502 268.281 396.72 268.44 396.978 268.549C397.245 268.657 397.562 268.707 397.938 268.707C398.235 268.707 398.503 268.687 398.74 268.638C398.978 268.588 399.176 268.539 399.345 268.479C399.513 268.42 399.652 268.36 399.76 268.321C399.869 268.271 399.949 268.242 400.008 268.242C400.038 268.242 400.067 268.251 400.097 268.261C400.117 268.281 400.147 268.301 400.157 268.331C400.176 268.36 400.186 268.41 400.186 268.469C400.196 268.529 400.196 268.598 400.196 268.687C400.196 268.747 400.196 268.796 400.186 268.846C400.186 268.885 400.176 268.925 400.166 268.964C400.157 269.004 400.147 269.034 400.127 269.063C400.107 269.093 400.087 269.113 400.067 269.143C400.038 269.172 399.968 269.212 399.84 269.271C399.711 269.331 399.552 269.39 399.354 269.44C399.156 269.499 398.919 269.549 398.661 269.588C398.394 269.638 398.117 269.658 397.819 269.658C397.305 269.658 396.849 269.588 396.453 269.44C396.067 269.301 395.74 269.083 395.472 268.796C395.205 268.509 395.007 268.152 394.868 267.717C394.73 267.291 394.66 266.786 394.66 266.221C394.66 265.677 394.73 265.191 394.868 264.756C395.007 264.33 395.215 263.954 395.472 263.656C395.74 263.359 396.057 263.122 396.433 262.963C396.809 262.805 397.225 262.726 397.691 262.726C398.186 262.726 398.612 262.805 398.958 262.963C399.305 263.122 399.592 263.34 399.82 263.607C400.038 263.874 400.206 264.191 400.315 264.558C400.424 264.924 400.473 265.31 400.473 265.716V265.904ZM399.305 265.568C399.325 264.964 399.186 264.478 398.899 264.132C398.612 263.785 398.196 263.617 397.641 263.617C397.354 263.617 397.106 263.666 396.889 263.775C396.671 263.884 396.492 264.023 396.344 264.211C396.195 264.389 396.086 264.597 396.007 264.835C395.928 265.073 395.879 265.32 395.879 265.578H399.305V265.568Z" fill="#333333"/>
<path fill-rule="evenodd" clip-rule="evenodd" d="M316 272.66V255.333C316 253.866 316.611 252.538 317.582 251.566C318.564 250.605 319.907 250 321.389 250H405.61C407.093 250 408.435 250.595 409.417 251.566C410.398 252.538 411 253.866 411 255.333V338.667C411 340.134 410.388 341.462 409.417 342.434C408.445 343.405 407.093 344 405.61 344H321.389C319.907 344 318.564 343.405 317.582 342.434C316.601 341.462 316 340.134 316 338.667V314.728C316 313.916 317.021 313.916 317.021 314.728V338.667C317.021 339.857 317.512 340.937 318.304 341.72C319.095 342.503 320.187 342.989 321.389 342.989H405.61C406.812 342.989 407.904 342.503 408.695 341.72C409.487 340.937 409.978 339.857 409.978 338.667V255.333C409.978 254.143 409.487 253.063 408.695 252.28C407.904 251.497 406.812 251.011 405.61 251.011H321.389C320.187 251.011 319.095 251.497 318.304 252.28C317.522 253.063 317.031 254.143 317.031 255.333V272.68C317.031 273.453 316 273.463 316 272.66Z" fill="#333333"/>
<path d="M361 310H400M361 316H400" stroke="#AAAAAA" stroke-linecap="round" stroke-linejoin="round"/>
<path d="M361 322H400M361 328H400" stroke="#AAAAAA" stroke-linecap="round" stroke-linejoin="round"/>
<path d="M361 334H400" stroke="#AAAAAA" stroke-linecap="round" stroke-linejoin="round"/>
<rect x="361.5" y="285.5" width="39" height="16" rx="1.5" stroke="#AAAAAA" stroke-dasharray="2 2"/>
</g>
<path d="M190 87C189.448 87 189 87.4477 189 88C189 88.5523 189.448 89 190 89L190 87ZM287.707 88.7071C288.098 88.3166 288.098 87.6834 287.707 87.2929L281.343 80.9289C280.953 80.5384 280.319 80.5384 279.929 80.9289C279.538 81.3195 279.538 81.9526 279.929 82.3431L285.586 88L279.929 93.6569C279.538 94.0474 279.538 94.6805 279.929 95.0711C280.319 95.4616 280.953 95.4616 281.343 95.0711L287.707 88.7071ZM190 89L229.202 89L229.202 87L190 87L190 89ZM229.202 89L287 89L287 87L229.202 87L229.202 89Z" fill="#666666"/>
<path d="M250.5 88C250.5 96.0081 244.008 102.5 236 102.5C227.992 102.5 221.5 96.0081 221.5 88C221.5 79.9919 227.992 73.5 236 73.5C244.008 73.5 250.5 79.9919 250.5 88Z" fill="#F9F9F9" stroke="#D0D5DA"/>
<path d="M238.294 95H235.578V87.5645L235.604 86.3428L235.648 85.0068C235.197 85.458 234.884 85.7539 234.708 85.8945L233.231 87.0811L231.922 85.4463L236.062 82.1504H238.294V95Z" fill="#666666"/>
<path d="M449.293 318.293C448.902 318.683 448.902 319.317 449.293 319.707L455.657 326.071C456.047 326.462 456.681 326.462 457.071 326.071C457.462 325.681 457.462 325.047 457.071 324.657L451.414 319L457.071 313.343C457.462 312.953 457.462 312.319 457.071 311.929C456.681 311.538 456.047 311.538 455.657 311.929L449.293 318.293ZM570 320C570.552 320 571 319.552 571 319C571 318.448 570.552 318 570 318V320ZM450 320H498.497V318H450V320ZM498.497 320H570V318H498.497V320Z" fill="#666666"/>
<path d="M450 269C449.448 269 449 269.448 449 270C449 270.552 449.448 271 450 271V269ZM570.707 270.707C571.098 270.317 571.098 269.683 570.707 269.293L564.343 262.929C563.953 262.538 563.319 262.538 562.929 262.929C562.538 263.319 562.538 263.953 562.929 264.343L568.586 270L562.929 275.657C562.538 276.047 562.538 276.681 562.929 277.071C563.319 277.462 563.953 277.462 564.343 277.071L570.707 270.707ZM450 271H498.497V269H450V271ZM498.497 271H570V269H498.497V271Z" fill="#666666"/>
<path d="M524.5 317C524.5 325.008 518.008 331.5 510 331.5C501.992 331.5 495.5 325.008 495.5 317C495.5 308.992 501.992 302.5 510 302.5C518.008 302.5 524.5 308.992 524.5 317Z" fill="#F9F9F9" stroke="#D0D5DA"/>
<path d="M510.246 315.791C511.031 315.791 511.729 315.94 512.338 316.239C512.953 316.538 513.437 316.978 513.788 317.558C514.14 318.138 514.315 318.853 514.315 319.702C514.315 320.628 514.122 321.428 513.735 322.102C513.354 322.77 512.783 323.282 512.021 323.64C511.266 323.997 510.322 324.176 509.191 324.176C508.518 324.176 507.882 324.117 507.284 324C506.692 323.889 506.174 323.716 505.729 323.481V321.135C506.174 321.369 506.707 321.568 507.328 321.732C507.955 321.891 508.544 321.97 509.095 321.97C509.634 321.97 510.088 321.899 510.457 321.759C510.826 321.612 511.104 321.39 511.292 321.091C511.485 320.786 511.582 320.399 511.582 319.931C511.582 319.304 511.371 318.823 510.949 318.489C510.527 318.155 509.88 317.988 509.007 317.988C508.673 317.988 508.324 318.021 507.961 318.085C507.604 318.149 507.305 318.214 507.064 318.278L505.983 317.698L506.467 311.15H513.437V313.453H508.849L508.611 315.976C508.811 315.935 509.027 315.894 509.262 315.853C509.496 315.812 509.824 315.791 510.246 315.791Z" fill="#666666"/>
<path d="M524.5 269C524.5 277.008 518.008 283.5 510 283.5C501.992 283.5 495.5 277.008 495.5 269C495.5 260.992 501.992 254.5 510 254.5C518.008 254.5 524.5 260.992 524.5 269Z" fill="#F9F9F9" stroke="#D0D5DA"/>
<path d="M514.052 266.024C514.052 266.616 513.929 267.129 513.683 267.562C513.437 267.996 513.103 268.351 512.681 268.626C512.265 268.901 511.796 269.104 511.274 269.232V269.285C512.306 269.414 513.088 269.73 513.621 270.234C514.16 270.738 514.43 271.412 514.43 272.256C514.43 273.006 514.245 273.677 513.876 274.269C513.513 274.86 512.95 275.326 512.188 275.666C511.427 276.006 510.445 276.176 509.244 276.176C508.535 276.176 507.873 276.117 507.258 276C506.648 275.889 506.074 275.716 505.535 275.481V273.17C506.086 273.451 506.663 273.665 507.267 273.812C507.87 273.952 508.433 274.022 508.954 274.022C509.927 274.022 510.606 273.855 510.993 273.521C511.386 273.182 511.582 272.707 511.582 272.098C511.582 271.74 511.491 271.438 511.31 271.192C511.128 270.946 510.812 270.759 510.36 270.63C509.915 270.501 509.291 270.437 508.488 270.437H507.513V268.354H508.506C509.297 268.354 509.897 268.28 510.308 268.134C510.724 267.981 511.005 267.776 511.151 267.519C511.304 267.255 511.38 266.956 511.38 266.622C511.38 266.165 511.239 265.808 510.958 265.55C510.677 265.292 510.208 265.163 509.552 265.163C509.142 265.163 508.767 265.216 508.427 265.321C508.093 265.421 507.791 265.544 507.521 265.69C507.252 265.831 507.015 265.969 506.81 266.104L505.553 264.231C506.057 263.868 506.646 263.566 507.319 263.326C507.999 263.086 508.808 262.966 509.745 262.966C511.069 262.966 512.118 263.232 512.892 263.766C513.665 264.299 514.052 265.052 514.052 266.024Z" fill="#666666"/>
<path d="M362 167C362 166.448 361.552 166 361 166C360.448 166 360 166.448 360 167L362 167ZM360.293 238.707C360.683 239.098 361.317 239.098 361.707 238.707L368.071 232.343C368.462 231.953 368.462 231.319 368.071 230.929C367.681 230.538 367.047 230.538 366.657 230.929L361 236.586L355.343 230.929C354.953 230.538 354.319 230.538 353.929 230.929C353.538 231.319 353.538 231.953 353.929 232.343L360.293 238.707ZM360 167L360 195.694L362 195.694L362 167L360 167ZM360 195.694L360 238L362 238L362 195.694L360 195.694Z" fill="#666666"/>
<path d="M655.707 163.293C655.317 162.902 654.683 162.902 654.293 163.293L647.929 169.657C647.538 170.047 647.538 170.681 647.929 171.071C648.319 171.462 648.953 171.462 649.343 171.071L655 165.414L660.657 171.071C661.047 171.462 661.681 171.462 662.071 171.071C662.462 170.681 662.462 170.047 662.071 169.657L655.707 163.293ZM654.293 235.707C654.683 236.098 655.317 236.098 655.707 235.707L662.071 229.343C662.462 228.953 662.462 228.319 662.071 227.929C661.681 227.538 661.047 227.538 660.657 227.929L655 233.586L649.343 227.929C648.953 227.538 648.319 227.538 647.929 227.929C647.538 228.319 647.538 228.953 647.929 229.343L654.293 235.707ZM654 164L654 192.694L656 192.694L656 164L654 164ZM654 192.694L654 235L656 235L656 192.694L654 192.694Z" fill="#666666"/>
<path d="M361 216.5C352.992 216.5 346.5 210.008 346.5 202C346.5 193.992 352.992 187.5 361 187.5C369.008 187.5 375.5 193.992 375.5 202C375.5 210.008 369.008 216.5 361 216.5Z" fill="#F9F9F9" stroke="#D0D5DA"/>
<path d="M365.562 209H356.579V207.11L359.805 203.85C360.76 202.871 361.384 202.194 361.677 201.819C361.97 201.438 362.181 201.087 362.31 200.765C362.438 200.442 362.503 200.108 362.503 199.763C362.503 199.247 362.359 198.863 362.072 198.611C361.791 198.359 361.413 198.233 360.938 198.233C360.44 198.233 359.957 198.348 359.488 198.576C359.02 198.805 358.53 199.13 358.021 199.552L356.544 197.803C357.177 197.264 357.701 196.883 358.117 196.66C358.533 196.438 358.987 196.268 359.479 196.15C359.972 196.027 360.522 195.966 361.132 195.966C361.935 195.966 362.644 196.112 363.259 196.405C363.874 196.698 364.352 197.108 364.691 197.636C365.031 198.163 365.201 198.767 365.201 199.446C365.201 200.038 365.096 200.595 364.885 201.116C364.68 201.632 364.357 202.162 363.918 202.707C363.484 203.252 362.717 204.028 361.615 205.036L359.963 206.592V206.715H365.562V209Z" fill="#666666"/>
<path d="M655 216.5C646.992 216.5 640.5 210.008 640.5 202C640.5 193.992 646.992 187.5 655 187.5C663.008 187.5 669.5 193.992 669.5 202C669.5 210.008 663.008 216.5 655 216.5Z" fill="#F9F9F9" stroke="#D0D5DA"/>
<path d="M659.852 206.337H658.305V209H655.65V206.337H650.166V204.447L655.8 196.15H658.305V204.228H659.852V206.337ZM655.65 204.228V202.048C655.65 201.685 655.665 201.157 655.694 200.466C655.724 199.774 655.747 199.373 655.765 199.262H655.694C655.478 199.742 655.217 200.211 654.912 200.668L652.557 204.228H655.65Z" fill="#666666"/>
<path d="M655 85.228C655 81.4412 658.085 78.3713 661.889 78.3713H710.111C713.916 78.3713 717 81.4412 717 85.228V98.9414H655V85.228Z" fill="#444444"/>
<path d="M655 101.4H717V121.771H655V101.4Z" fill="#444444"/>
<path d="M655 124.429H717V138.01C717 141.76 713.916 144.8 710.111 144.8H661.889C658.084 144.8 655 141.76 655 138.01V124.429Z" fill="#444444"/>
<path d="M696.17 87.4426C696.17 88.6655 695.178 89.6568 693.955 89.6568C692.733 89.6568 691.741 88.6655 691.741 87.4426C691.741 86.2196 692.733 85.2283 693.955 85.2283C695.178 85.2283 696.17 86.2196 696.17 87.4426Z" fill="white"/>
<path d="M703.058 87.4426C703.058 88.6655 702.067 89.6568 700.844 89.6568C699.621 89.6568 698.63 88.6655 698.63 87.4426C698.63 86.2196 699.621 85.2283 700.844 85.2283C702.067 85.2283 703.058 86.2196 703.058 87.4426Z" fill="white"/>
<path d="M709.947 87.4426C709.947 88.6655 708.956 89.6568 707.733 89.6568C706.51 89.6568 705.519 88.6655 705.519 87.4426C705.519 86.2196 706.51 85.2283 707.733 85.2283C708.956 85.2283 709.947 86.2196 709.947 87.4426Z" fill="white"/>
<path d="M696.17 110.299C696.17 111.522 695.178 112.513 693.955 112.513C692.733 112.513 691.741 111.522 691.741 110.299C691.741 109.076 692.733 108.085 693.955 108.085C695.178 108.085 696.17 109.076 696.17 110.299Z" fill="white"/>
<path d="M703.058 110.299C703.058 111.522 702.067 112.513 700.844 112.513C699.621 112.513 698.63 111.522 698.63 110.299C698.63 109.076 699.621 108.085 700.844 108.085C702.067 108.085 703.058 109.076 703.058 110.299Z" fill="white"/>
<path d="M709.947 110.299C709.947 111.522 708.956 112.513 707.733 112.513C706.51 112.513 705.519 111.522 705.519 110.299C705.519 109.076 706.51 108.085 707.733 108.085C708.956 108.085 709.947 109.076 709.947 110.299Z" fill="white"/>
<path d="M696.17 133.155C696.17 134.378 695.178 135.37 693.955 135.37C692.733 135.37 691.741 134.378 691.741 133.155C691.741 131.933 692.733 130.941 693.955 130.941C695.178 130.941 696.17 131.933 696.17 133.155Z" fill="white"/>
<path d="M703.058 133.155C703.058 134.378 702.067 135.37 700.844 135.37C699.621 135.37 698.63 134.378 698.63 133.155C698.63 131.933 699.621 130.941 700.844 130.941C702.067 130.941 703.058 131.933 703.058 133.155Z" fill="white"/>
<path d="M709.947 133.155C709.947 134.378 708.956 135.37 707.733 135.37C706.51 135.37 705.519 134.378 705.519 133.155C705.519 131.933 706.51 130.941 707.733 130.941C708.956 130.941 709.947 131.933 709.947 133.155Z" fill="white"/>
<path d="M610.329 64.0826C610.329 62.9992 610.903 61.5895 611.885 60.4415C612.863 59.2975 614.169 58.5 615.564 58.5H658.519L677.529 77.639V138.717C677.529 141.839 675.168 144.3 672.294 144.3H615.564C612.69 144.3 610.329 141.839 610.329 138.717V64.0826Z" fill="#F9F9F9" stroke="#333333"/>
<rect x="623.114" y="85.457" width="47" height="2" rx="1" fill="#666666"/>
<rect x="623.114" y="93.457" width="47" height="2" rx="1" fill="#666666"/>
<rect x="623.114" y="101.457" width="47" height="2" rx="1" fill="#666666"/>
<rect x="623.114" y="109.457" width="47" height="2" rx="1" fill="#666666"/>
<rect x="623.114" y="117.457" width="47" height="2" rx="1" fill="#666666"/>
<rect x="623.114" y="125.457" width="47" height="2" rx="1" fill="#666666"/>
<path d="M661.052 78.3714C661.052 78.3714 657.657 78.3714 657.657 74.9762V58L678.029 78.3714H661.052Z" fill="#333333"/>
<path fill-rule="evenodd" clip-rule="evenodd" d="M607.939 92.0141L594.742 85.7357C594.007 85.3769 593 84.6151 593 83.3307C593 82.0311 594.022 81.2874 594.772 80.9488L600.035 78.4375L609.281 82.8545C609.567 82.9943 610.044 83.1031 610.599 83.1031C611.157 83.1031 611.608 82.993 611.854 82.8673L611.873 82.8579L621.126 78.4375L626.418 80.963C627.154 81.3218 628.16 82.0835 628.16 83.368C628.16 84.6682 627.138 85.412 626.387 85.7503L613.227 92.0117C612.425 92.3989 611.458 92.5428 610.599 92.5428C609.732 92.5428 608.764 92.3966 607.953 92.021L607.939 92.0141ZM612.533 90.5669L625.716 84.2951C626.839 83.7973 626.839 82.9511 625.716 82.4036L621.126 80.2134L612.582 84.2951C611.508 84.8426 609.701 84.8426 608.578 84.2951L600.034 80.2134L595.445 82.4036C594.322 82.9014 594.322 83.7475 595.445 84.2951L608.627 90.5669C609.701 91.0646 611.508 91.0646 612.533 90.5669Z" fill="white"/>
<path fill-rule="evenodd" clip-rule="evenodd" d="M625.972 74.5834C627.1 75.1684 627.1 76.0726 625.972 76.6044L612.726 83.3058C611.597 83.8909 609.782 83.8909 608.703 83.3058L595.457 76.6044C594.328 76.0194 594.328 75.1152 595.457 74.5834L599.97 72.2964L608.703 76.7108C609.831 77.2958 611.646 77.2958 612.726 76.7108L621.458 72.2964L625.972 74.5834ZM594.781 73.0287L599.969 70.3999L609.409 75.1715C609.697 75.3208 610.176 75.4372 610.733 75.4372C611.293 75.4372 611.747 75.3195 611.994 75.1852L612.014 75.1744L621.459 70.3999L626.678 73.0441C627.417 73.4275 628.429 74.2414 628.429 75.6138C628.429 77.0031 627.401 77.7978 626.647 78.1593L613.424 84.849C612.585 85.2818 611.596 85.457 610.696 85.457C609.805 85.457 608.82 85.2852 607.993 84.8433L594.751 78.1437C594.011 77.7603 593 76.9464 593 75.574C593 74.1851 594.027 73.3903 594.781 73.0287Z" fill="white"/>
<path fill-rule="evenodd" clip-rule="evenodd" d="M607.939 76.7813L594.743 70.5029C594.007 70.1441 593 69.3824 593 68.0979C593 66.7978 594.023 66.0539 594.774 65.7156L607.933 59.4548C608.768 59.0497 609.752 58.8857 610.648 58.8857C611.534 58.8857 612.514 59.0465 613.337 59.4601L626.516 65.7302C627.252 66.089 628.259 66.8508 628.259 68.1352C628.259 69.4354 627.236 70.1792 626.485 70.5175L613.3 76.7905L613.281 76.7993C612.46 77.1632 611.492 77.3101 610.611 77.3101C609.735 77.3101 608.766 77.1645 607.954 76.7882L607.939 76.7813ZM625.814 69.0623C626.937 68.5646 626.937 67.7184 625.814 67.1708L612.631 60.899C611.557 60.3515 609.751 60.3515 608.628 60.899L595.445 67.1708C594.322 67.6686 594.322 68.5148 595.445 69.0623L608.628 75.3341C609.702 75.8319 611.508 75.8319 612.631 75.3341L625.814 69.0623Z" fill="white"/>
<path fill-rule="evenodd" clip-rule="evenodd" d="M608.598 91.1384L595.135 84.5921C593.989 84.0206 593.989 83.1374 595.135 82.6178L599.822 80.3318L608.548 84.5921C609.695 85.1636 611.54 85.1636 612.637 84.5921L621.363 80.3318L626.05 82.6178C627.196 83.1893 627.196 84.0725 626.05 84.5921L612.587 91.1384C611.54 91.658 609.695 91.658 608.598 91.1384Z" fill="#FF6F3D"/>
<path fill-rule="evenodd" clip-rule="evenodd" d="M608.598 83.0855L595.135 76.5392C593.989 75.9677 593.989 75.0844 595.135 74.5649L599.723 72.3308L608.598 76.6431C609.745 77.2146 611.59 77.2146 612.687 76.6431L621.562 72.3308L626.149 74.5649C627.296 75.1364 627.296 76.0196 626.149 76.5392L612.687 83.0855C611.54 83.657 609.695 83.657 608.598 83.0855Z" fill="#95C038"/>
<path fill-rule="evenodd" clip-rule="evenodd" d="M608.599 75.2402L595.136 68.6939C593.989 68.1224 593.989 67.2391 595.136 66.7196L608.599 60.1733C609.745 59.6018 611.59 59.6018 612.687 60.1733L626.15 66.7196C627.297 67.2911 627.297 68.1743 626.15 68.6939L612.687 75.2402C611.54 75.7598 609.695 75.7598 608.599 75.2402Z" fill="#5DC0E8"/>
<path d="M715.646 38.6348C715.646 39.5996 715.466 40.4062 715.107 41.0547C714.747 41.6992 714.226 42.1855 713.542 42.5137C712.859 42.8379 712.035 43 711.07 43H708.691V34.4336H711.327C712.214 34.4336 712.98 34.5938 713.624 34.9141C714.269 35.2305 714.767 35.7012 715.119 36.3262C715.47 36.9473 715.646 37.7168 715.646 38.6348ZM714.181 38.6758C714.181 37.9727 714.07 37.3945 713.847 36.9414C713.628 36.4883 713.304 36.1523 712.874 35.9336C712.449 35.7109 711.923 35.5996 711.298 35.5996H710.097V41.8223H711.093C712.128 41.8223 712.902 41.5586 713.413 41.0312C713.925 40.5039 714.181 39.7188 714.181 38.6758ZM725.577 38.7051C725.577 39.3652 725.493 39.9668 725.325 40.5098C725.161 41.0488 724.913 41.5137 724.581 41.9043C724.249 42.291 723.833 42.5898 723.333 42.8008C722.833 43.0117 722.247 43.1172 721.575 43.1172C720.891 43.1172 720.298 43.0117 719.794 42.8008C719.294 42.5898 718.878 42.2891 718.546 41.8984C718.218 41.5078 717.972 41.041 717.807 40.498C717.643 39.9551 717.561 39.3535 717.561 38.6934C717.561 37.8105 717.706 37.041 717.995 36.3848C718.288 35.7246 718.731 35.2129 719.325 34.8496C719.923 34.4824 720.677 34.2988 721.587 34.2988C722.477 34.2988 723.218 34.4805 723.807 34.8438C724.397 35.207 724.839 35.7188 725.132 36.3789C725.429 37.0352 725.577 37.8105 725.577 38.7051ZM719.038 38.7051C719.038 39.3652 719.128 39.9375 719.307 40.4219C719.487 40.9023 719.763 41.2734 720.134 41.5352C720.509 41.793 720.989 41.9219 721.575 41.9219C722.165 41.9219 722.645 41.793 723.016 41.5352C723.388 41.2734 723.661 40.9023 723.837 40.4219C724.013 39.9375 724.1 39.3652 724.1 38.7051C724.1 37.7012 723.899 36.916 723.497 36.3496C723.099 35.7793 722.462 35.4941 721.587 35.4941C721.001 35.4941 720.518 35.623 720.14 35.8809C719.765 36.1387 719.487 36.5078 719.307 36.9883C719.128 37.4648 719.038 38.0371 719.038 38.7051ZM731.547 35.5059C731.137 35.5059 730.77 35.5801 730.446 35.7285C730.125 35.877 729.854 36.0918 729.631 36.373C729.409 36.6504 729.239 36.9883 729.121 37.3867C729.004 37.7812 728.946 38.2266 728.946 38.7227C728.946 39.3867 729.039 39.959 729.227 40.4395C729.414 40.916 729.7 41.2832 730.082 41.541C730.465 41.7949 730.95 41.9219 731.536 41.9219C731.899 41.9219 732.252 41.8867 732.596 41.8164C732.94 41.7461 733.295 41.6504 733.662 41.5293V42.7246C733.315 42.8613 732.963 42.9609 732.608 43.0234C732.252 43.0859 731.842 43.1172 731.377 43.1172C730.502 43.1172 729.776 42.9355 729.198 42.5723C728.623 42.209 728.194 41.6973 727.909 41.0371C727.627 40.377 727.487 39.6035 727.487 38.7168C727.487 38.0684 727.577 37.4746 727.756 36.9355C727.936 36.3965 728.198 35.9316 728.541 35.541C728.885 35.1465 729.309 34.8438 729.813 34.6328C730.321 34.418 730.901 34.3105 731.553 34.3105C731.983 34.3105 732.405 34.3594 732.819 34.457C733.237 34.5508 733.623 34.6855 733.979 34.8613L733.487 36.0215C733.19 35.8809 732.879 35.7598 732.555 35.6582C732.231 35.5566 731.895 35.5059 731.547 35.5059ZM740.928 40.668C740.928 41.1758 740.803 41.6133 740.553 41.9805C740.307 42.3477 739.951 42.6289 739.486 42.8242C739.025 43.0195 738.475 43.1172 737.834 43.1172C737.521 43.1172 737.223 43.0996 736.937 43.0645C736.652 43.0293 736.383 42.9785 736.129 42.9121C735.879 42.8418 735.65 42.7578 735.443 42.6602V41.3359C735.791 41.4883 736.18 41.627 736.609 41.752C737.039 41.873 737.476 41.9336 737.922 41.9336C738.285 41.9336 738.586 41.8867 738.824 41.793C739.066 41.6953 739.246 41.5586 739.363 41.3828C739.48 41.2031 739.539 40.9941 739.539 40.7559C739.539 40.502 739.471 40.2871 739.334 40.1113C739.197 39.9355 738.99 39.7754 738.713 39.6309C738.439 39.4824 738.096 39.3242 737.682 39.1562C737.4 39.043 737.131 38.9141 736.873 38.7695C736.619 38.625 736.393 38.4551 736.193 38.2598C735.994 38.0645 735.836 37.834 735.719 37.5684C735.605 37.2988 735.549 36.9824 735.549 36.6191C735.549 36.1348 735.664 35.7207 735.894 35.377C736.129 35.0332 736.457 34.7695 736.879 34.5859C737.305 34.4023 737.801 34.3105 738.367 34.3105C738.816 34.3105 739.238 34.3574 739.633 34.4512C740.031 34.5449 740.422 34.6777 740.805 34.8496L740.359 35.9805C740.008 35.8359 739.666 35.7207 739.334 35.6348C739.006 35.5488 738.67 35.5059 738.326 35.5059C738.029 35.5059 737.777 35.5508 737.57 35.6406C737.363 35.7305 737.205 35.8574 737.096 36.0215C736.99 36.1816 736.937 36.373 736.937 36.5957C736.937 36.8457 736.998 37.0566 737.119 37.2285C737.244 37.3965 737.435 37.5508 737.693 37.6914C737.955 37.832 738.291 37.9883 738.701 38.1602C739.174 38.3555 739.574 38.5605 739.902 38.7754C740.234 38.9902 740.488 39.248 740.664 39.5488C740.84 39.8457 740.928 40.2188 740.928 40.668ZM745.55 34.4336C746.656 34.4336 747.462 34.6602 747.97 35.1133C748.478 35.5664 748.732 36.2012 748.732 37.0176C748.732 37.3887 748.673 37.7422 748.556 38.0781C748.443 38.4102 748.255 38.7051 747.994 38.9629C747.732 39.2168 747.386 39.418 746.956 39.5664C746.531 39.7148 746.005 39.7891 745.38 39.7891H744.466V43H743.06V34.4336H745.55ZM745.456 35.5996H744.466V38.6172H745.234C745.675 38.6172 746.05 38.5664 746.359 38.4648C746.667 38.3594 746.902 38.1934 747.062 37.9668C747.222 37.7402 747.302 37.4414 747.302 37.0703C747.302 36.5742 747.152 36.2051 746.851 35.9629C746.554 35.7207 746.089 35.5996 745.456 35.5996ZM756.231 43L755.394 40.6211H752.118L751.28 43H749.798L752.985 34.3984H754.544L757.726 43H756.231ZM755.03 39.4141L754.216 37.0703C754.185 36.9688 754.14 36.8262 754.081 36.6426C754.022 36.4551 753.964 36.2656 753.905 36.0742C753.847 35.8789 753.798 35.7148 753.759 35.582C753.72 35.7422 753.671 35.9219 753.612 36.1211C753.558 36.3164 753.503 36.5 753.448 36.6719C753.397 36.8438 753.358 36.9766 753.331 37.0703L752.511 39.4141H755.03ZM762.987 35.5059C762.577 35.5059 762.209 35.5801 761.885 35.7285C761.565 35.877 761.293 36.0918 761.071 36.373C760.848 36.6504 760.678 36.9883 760.561 37.3867C760.444 37.7812 760.385 38.2266 760.385 38.7227C760.385 39.3867 760.479 39.959 760.666 40.4395C760.854 40.916 761.139 41.2832 761.522 41.541C761.905 41.7949 762.389 41.9219 762.975 41.9219C763.338 41.9219 763.692 41.8867 764.036 41.8164C764.379 41.7461 764.735 41.6504 765.102 41.5293V42.7246C764.754 42.8613 764.403 42.9609 764.047 43.0234C763.692 43.0859 763.282 43.1172 762.817 43.1172C761.942 43.1172 761.215 42.9355 760.637 42.5723C760.063 42.209 759.633 41.6973 759.348 41.0371C759.067 40.377 758.926 39.6035 758.926 38.7168C758.926 38.0684 759.016 37.4746 759.196 36.9355C759.375 36.3965 759.637 35.9316 759.981 35.541C760.325 35.1465 760.749 34.8438 761.252 34.6328C761.76 34.418 762.34 34.3105 762.993 34.3105C763.422 34.3105 763.844 34.3594 764.258 34.457C764.676 34.5508 765.063 34.6855 765.418 34.8613L764.926 36.0215C764.629 35.8809 764.319 35.7598 763.995 35.6582C763.67 35.5566 763.334 35.5059 762.987 35.5059ZM772.273 43H767.422V34.4336H772.273V35.6172H768.828V37.9434H772.057V39.1211H768.828V41.8105H772.273V43Z" fill="#333333"/>
<path d="M415.737 120.651H416.237V120.151L416.237 58.9306L416.237 58.9269C416.225 57.2362 415.552 55.6176 414.364 54.4209L414.009 54.7732L414.364 54.4209C413.176 53.2242 411.567 52.5456 409.885 52.533V52.533H409.881H312.244V52.5329L312.241 52.533C310.559 52.5456 308.95 53.2242 307.761 54.4209C306.573 55.6176 305.901 57.2362 305.888 58.9269H305.888V58.9306V120.151V120.651H306.388H415.737Z" fill="#FEFEFE" stroke="#333333"/>
<path d="M375.769 137.496H346.357V145.791H375.769V137.496Z" fill="#EFEFEF"/>
<path fill-rule="evenodd" clip-rule="evenodd" d="M338.84 145.791C336.783 145.791 335.045 147.498 335.045 149.562C335.045 151.626 336.783 153.333 338.84 153.333H381.778C383.835 153.333 385.572 151.626 385.572 149.562C385.572 147.498 383.835 145.791 381.778 145.791H338.84Z" fill="#EFEFEF"/>
<path fill-rule="evenodd" clip-rule="evenodd" d="M381.778 154.087H338.839C336.373 154.087 334.291 152.049 334.291 149.562C334.291 147.075 336.373 145.037 338.839 145.037H381.778C384.244 145.037 386.326 147.075 386.326 149.562C386.326 152.049 384.244 154.087 381.778 154.087ZM335.045 149.562C335.045 147.498 336.783 145.791 338.839 145.791H381.778C383.834 145.791 385.572 147.498 385.572 149.562C385.572 151.626 383.834 153.333 381.778 153.333H338.839C336.783 153.333 335.045 151.626 335.045 149.562Z" fill="#333333"/>
<path d="M361.013 132.057C362.77 132.057 364.193 130.631 364.193 128.873C364.193 127.114 362.77 125.689 361.013 125.689C359.256 125.689 357.833 127.114 357.833 128.873C357.833 130.631 359.256 132.057 361.013 132.057Z" fill="#333333"/>
<path d="M314.05 73.8699C314.05 71.1084 316.288 68.8699 319.05 68.8699H402.562C405.324 68.8699 407.562 71.1084 407.562 73.8699V119.397H314.05V73.8699Z" fill="#F9F9F9"/>
<path d="M315.304 73.8699C315.304 71.3846 317.318 69.3699 319.804 69.3699H404.07C406.555 69.3699 408.57 71.3846 408.57 73.8699V75.9112H315.304V73.8699Z" fill="#AAAAAA" stroke="#333333"/>
<path d="M315.304 73.8699C315.304 71.3846 317.318 69.3699 319.804 69.3699H404.07C406.555 69.3699 408.57 71.3846 408.57 73.8699V119.651H315.304V73.8699Z" stroke="#333333"/>
<path d="M350.247 84.9607H321.592C320.467 84.9607 319.583 85.9063 319.583 87.0281V103.501C319.583 104.626 320.463 105.568 321.592 105.568H350.247C351.371 105.568 352.256 104.622 352.256 103.501V87.0281C352.256 85.9063 351.371 84.9607 350.247 84.9607Z" fill="#D9F4FF" stroke="#333333"/>
<path fill-rule="evenodd" clip-rule="evenodd" d="M320.85 105.068C320.146 105.068 319.815 104.211 320.341 103.75L328.755 96.3955L334.788 101.674L344.215 92.2478L351.756 99.035V103.56C351.756 104.393 351.071 105.068 350.225 105.068H320.85Z" fill="white"/>
<path fill-rule="evenodd" clip-rule="evenodd" d="M328.575 95.6831L334.644 101.069L344.269 91.4937L352.51 99.1607V103.481C352.51 104.774 351.506 105.822 350.267 105.822H321.581C320.206 105.822 319.56 104.048 320.587 103.095L328.575 95.6831ZM334.672 102.119L328.586 96.7171L321.084 103.678C320.57 104.155 320.893 105.042 321.581 105.042H350.267C351.093 105.042 351.763 104.343 351.763 103.481V99.5105L344.286 92.5548L334.672 102.119Z" fill="#333333"/>
<path fill-rule="evenodd" clip-rule="evenodd" d="M324.984 93.0021C326.445 93.0021 327.624 91.8219 327.624 90.3606C327.624 88.8993 326.44 87.7231 324.984 87.7231C323.524 87.7231 322.345 88.9033 322.345 90.3606C322.345 91.818 323.524 93.0021 324.984 93.0021Z" fill="url(#paint4_linear_19_7438)"/>
<path fill-rule="evenodd" clip-rule="evenodd" d="M328.378 90.3606C328.378 92.2378 326.862 93.7562 324.984 93.7562C323.106 93.7562 321.591 92.2331 321.591 90.3606C321.591 88.4866 323.108 86.969 324.984 86.969C326.855 86.969 328.378 88.4811 328.378 90.3606ZM327.624 90.3606C327.624 91.8219 326.445 93.002 324.984 93.002C323.524 93.002 322.345 91.818 322.345 90.3606C322.345 88.9033 323.524 87.7231 324.984 87.7231C326.441 87.7231 327.624 88.8993 327.624 90.3606Z" fill="#333333"/>
<path fill-rule="evenodd" clip-rule="evenodd" d="M359.297 94.1332C359.297 93.9249 359.466 93.7561 359.674 93.7561H402.66C402.868 93.7561 403.037 93.9249 403.037 94.1332C403.037 94.3414 402.868 94.5102 402.66 94.5102H368.724H359.674C359.466 94.5102 359.297 94.3414 359.297 94.1332Z" fill="#333333"/>
<path fill-rule="evenodd" clip-rule="evenodd" d="M359.297 97.9039C359.297 97.6957 359.466 97.5269 359.674 97.5269H402.66C402.868 97.5269 403.037 97.6957 403.037 97.9039C403.037 98.1122 402.868 98.281 402.66 98.281H368.724H359.674C359.466 98.281 359.297 98.1122 359.297 97.9039Z" fill="#333333"/>
<path fill-rule="evenodd" clip-rule="evenodd" d="M359.297 101.674C359.297 101.466 359.466 101.297 359.674 101.297H402.66C402.868 101.297 403.037 101.466 403.037 101.674C403.037 101.883 402.868 102.051 402.66 102.051H368.724H359.674C359.466 102.051 359.297 101.883 359.297 101.674Z" fill="#333333"/>
<path fill-rule="evenodd" clip-rule="evenodd" d="M359.297 105.445C359.297 105.237 359.466 105.068 359.674 105.068H402.66C402.868 105.068 403.037 105.237 403.037 105.445C403.037 105.653 402.868 105.822 402.66 105.822H368.724H359.674C359.466 105.822 359.297 105.653 359.297 105.445Z" fill="#333333"/>
<path fill-rule="evenodd" clip-rule="evenodd" d="M359.297 86.5919C359.297 86.3837 359.469 86.2148 359.68 86.2148H383.047C383.258 86.2148 383.43 86.3837 383.43 86.5919C383.43 86.8002 383.258 86.969 383.047 86.969H359.68C359.469 86.969 359.297 86.8002 359.297 86.5919Z" fill="url(#paint5_linear_19_7438)"/>
<path fill-rule="evenodd" clip-rule="evenodd" d="M415.737 120.151H306.388V131.724C306.4 133.251 307.02 134.713 308.116 135.793C309.212 136.873 310.695 137.484 312.244 137.496H409.881C411.431 137.484 412.913 136.873 414.009 135.793C415.105 134.713 415.726 133.251 415.737 131.724V120.151Z" fill="#EFEFEF"/>
<path fill-rule="evenodd" clip-rule="evenodd" d="M416.492 119.397V131.73C416.479 133.458 415.776 135.111 414.539 136.33C413.302 137.549 411.631 138.237 409.887 138.25L409.881 138.25L312.239 138.25C310.495 138.237 308.824 137.549 307.587 136.33C306.35 135.111 305.647 133.458 305.634 131.73L305.634 131.724L305.634 119.397H416.492ZM306.388 120.151H415.738V131.724C415.726 133.251 415.105 134.713 414.009 135.793C412.914 136.873 411.431 137.484 409.881 137.496H312.245C310.695 137.484 309.212 136.873 308.116 135.793C307.021 134.713 306.4 133.251 306.388 131.724V120.151Z" fill="#333333"/>
<path d="M346.357 137.496H345.603V145.791H346.357V137.496Z" fill="#333333"/>
<path d="M375.768 137.496H375.014V145.791H375.768V137.496Z" fill="#333333"/>
<path fill-rule="evenodd" clip-rule="evenodd" d="M325.213 60.8652C325.392 59.9565 324.665 59.0626 323.727 59.0662C322.908 59.0693 322.225 59.7551 322.225 60.5744C322.225 61.5005 323.11 62.2375 324.029 62.0533C324.615 61.936 325.098 61.4511 325.213 60.8652ZM318.456 59.0662C319.054 59.0662 319.623 59.446 319.852 59.9972C320.211 60.8626 319.66 61.8732 318.751 62.0537C317.831 62.2365 316.946 61.4997 316.946 60.5744C316.946 59.7529 317.634 59.0662 318.456 59.0662ZM313.175 59.0662C314.112 59.0662 314.835 59.9613 314.655 60.8687C314.538 61.4539 314.055 61.9374 313.47 62.0538C313.177 62.112 312.874 62.0821 312.598 61.9679C312.047 61.7396 311.667 61.1711 311.667 60.5745C311.667 59.753 312.354 59.0662 313.175 59.0662Z" fill="url(#paint6_linear_19_7438)"/>
<rect x="331.274" y="59.8203" width="58.0681" height="0.754132" rx="0.377066" fill="#333333"/>
<rect x="393.868" y="59.8203" width="15.0826" height="0.754132" rx="0.377066" fill="#FF6F3D"/>
<circle cx="361.44" cy="129.2" r="2.26239" fill="#333333"/>
<path d="M420.125 34.4336H422.674C423.779 34.4336 424.613 34.5938 425.176 34.9141C425.738 35.2344 426.02 35.7871 426.02 36.5723C426.02 36.9004 425.961 37.1973 425.844 37.4629C425.73 37.7246 425.564 37.9414 425.346 38.1133C425.127 38.2812 424.857 38.3945 424.537 38.4531V38.5117C424.869 38.5703 425.164 38.6738 425.422 38.8223C425.684 38.9707 425.889 39.1836 426.037 39.4609C426.189 39.7383 426.266 40.0977 426.266 40.5391C426.266 41.0625 426.141 41.5078 425.891 41.875C425.645 42.2422 425.291 42.5215 424.83 42.7129C424.373 42.9043 423.83 43 423.201 43H420.125V34.4336ZM421.531 37.9668H422.879C423.516 37.9668 423.957 37.8633 424.203 37.6562C424.449 37.4492 424.572 37.1465 424.572 36.748C424.572 36.3418 424.426 36.0488 424.133 35.8691C423.844 35.6895 423.383 35.5996 422.75 35.5996H421.531V37.9668ZM421.531 39.1035V41.8223H423.014C423.67 41.8223 424.131 41.6953 424.396 41.4414C424.662 41.1875 424.795 40.8438 424.795 40.4102C424.795 40.1445 424.734 39.9141 424.613 39.7188C424.496 39.5234 424.303 39.373 424.033 39.2676C423.764 39.1582 423.4 39.1035 422.943 39.1035H421.531ZM430.923 34.4336C431.662 34.4336 432.271 34.5234 432.751 34.7031C433.236 34.8828 433.595 35.1562 433.83 35.5234C434.068 35.8906 434.187 36.3574 434.187 36.9238C434.187 37.3457 434.109 37.7051 433.953 38.002C433.796 38.2988 433.591 38.5449 433.337 38.7402C433.084 38.9355 432.812 39.0918 432.523 39.209L434.955 43H433.367L431.298 39.5664H429.921V43H428.515V34.4336H430.923ZM430.83 35.6055H429.921V38.4062H430.894C431.546 38.4062 432.019 38.2852 432.312 38.043C432.609 37.8008 432.757 37.4434 432.757 36.9707C432.757 36.4746 432.599 36.123 432.283 35.916C431.97 35.709 431.486 35.6055 430.83 35.6055ZM444.265 38.7051C444.265 39.3652 444.181 39.9668 444.013 40.5098C443.849 41.0488 443.601 41.5137 443.269 41.9043C442.937 42.291 442.521 42.5898 442.021 42.8008C441.521 43.0117 440.935 43.1172 440.263 43.1172C439.579 43.1172 438.985 43.0117 438.481 42.8008C437.981 42.5898 437.565 42.2891 437.233 41.8984C436.905 41.5078 436.659 41.041 436.495 40.498C436.331 39.9551 436.249 39.3535 436.249 38.6934C436.249 37.8105 436.394 37.041 436.683 36.3848C436.976 35.7246 437.419 35.2129 438.013 34.8496C438.61 34.4824 439.364 34.2988 440.274 34.2988C441.165 34.2988 441.905 34.4805 442.495 34.8438C443.085 35.207 443.526 35.7188 443.819 36.3789C444.116 37.0352 444.265 37.8105 444.265 38.7051ZM437.726 38.7051C437.726 39.3652 437.815 39.9375 437.995 40.4219C438.175 40.9023 438.45 41.2734 438.821 41.5352C439.196 41.793 439.677 41.9219 440.263 41.9219C440.853 41.9219 441.333 41.793 441.704 41.5352C442.075 41.2734 442.349 40.9023 442.524 40.4219C442.7 39.9375 442.788 39.3652 442.788 38.7051C442.788 37.7012 442.587 36.916 442.185 36.3496C441.786 35.7793 441.149 35.4941 440.274 35.4941C439.689 35.4941 439.206 35.623 438.827 35.8809C438.452 36.1387 438.175 36.5078 437.995 36.9883C437.815 37.4648 437.726 38.0371 437.726 38.7051ZM456.715 34.4336L454.477 43H452.942L451.512 37.8672C451.477 37.7422 451.438 37.5938 451.395 37.4219C451.352 37.25 451.309 37.0742 451.266 36.8945C451.227 36.7148 451.192 36.5508 451.161 36.4023C451.133 36.25 451.114 36.1328 451.102 36.0508C451.094 36.1328 451.077 36.248 451.049 36.3965C451.022 36.5449 450.989 36.709 450.95 36.8887C450.915 37.0645 450.876 37.2402 450.833 37.416C450.79 37.5879 450.751 37.7402 450.715 37.873L449.309 43H447.78L445.547 34.4336H446.96L448.196 39.4551C448.235 39.6152 448.274 39.7891 448.313 39.9766C448.356 40.1602 448.395 40.3457 448.43 40.5332C448.469 40.7207 448.504 40.9043 448.536 41.084C448.567 41.2598 448.592 41.4199 448.612 41.5645C448.631 41.416 448.657 41.252 448.688 41.0723C448.719 40.8887 448.753 40.7031 448.788 40.5156C448.827 40.3242 448.866 40.1406 448.905 39.9648C448.948 39.7891 448.991 39.6309 449.034 39.4902L450.428 34.4336H451.799L453.223 39.5078C453.266 39.6523 453.307 39.8145 453.346 39.9941C453.389 40.1738 453.43 40.3574 453.469 40.5449C453.508 40.7324 453.544 40.9141 453.575 41.0898C453.606 41.2656 453.631 41.4238 453.651 41.5645C453.678 41.373 453.713 41.1543 453.756 40.9082C453.799 40.6621 453.848 40.4121 453.903 40.1582C453.958 39.9043 454.012 39.6699 454.067 39.4551L455.297 34.4336H456.715ZM463.354 40.668C463.354 41.1758 463.229 41.6133 462.979 41.9805C462.732 42.3477 462.377 42.6289 461.912 42.8242C461.451 43.0195 460.9 43.1172 460.26 43.1172C459.947 43.1172 459.649 43.0996 459.363 43.0645C459.078 43.0293 458.809 42.9785 458.555 42.9121C458.305 42.8418 458.076 42.7578 457.869 42.6602V41.3359C458.217 41.4883 458.606 41.627 459.035 41.752C459.465 41.873 459.902 41.9336 460.348 41.9336C460.711 41.9336 461.012 41.8867 461.25 41.793C461.492 41.6953 461.672 41.5586 461.789 41.3828C461.906 41.2031 461.965 40.9941 461.965 40.7559C461.965 40.502 461.897 40.2871 461.76 40.1113C461.623 39.9355 461.416 39.7754 461.139 39.6309C460.865 39.4824 460.522 39.3242 460.107 39.1562C459.826 39.043 459.557 38.9141 459.299 38.7695C459.045 38.625 458.818 38.4551 458.619 38.2598C458.42 38.0645 458.262 37.834 458.145 37.5684C458.031 37.2988 457.975 36.9824 457.975 36.6191C457.975 36.1348 458.09 35.7207 458.32 35.377C458.555 35.0332 458.883 34.7695 459.305 34.5859C459.731 34.4023 460.227 34.3105 460.793 34.3105C461.242 34.3105 461.664 34.3574 462.059 34.4512C462.457 34.5449 462.848 34.6777 463.231 34.8496L462.785 35.9805C462.434 35.8359 462.092 35.7207 461.76 35.6348C461.432 35.5488 461.096 35.5059 460.752 35.5059C460.455 35.5059 460.203 35.5508 459.996 35.6406C459.789 35.7305 459.631 35.8574 459.522 36.0215C459.416 36.1816 459.363 36.373 459.363 36.5957C459.363 36.8457 459.424 37.0566 459.545 37.2285C459.67 37.3965 459.861 37.5508 460.119 37.6914C460.381 37.832 460.717 37.9883 461.127 38.1602C461.6 38.3555 462 38.5605 462.328 38.7754C462.66 38.9902 462.914 39.248 463.09 39.5488C463.266 39.8457 463.354 40.2188 463.354 40.668ZM470.338 43H465.486V34.4336H470.338V35.6172H466.892V37.9434H470.121V39.1211H466.892V41.8105H470.338V43ZM475.077 34.4336C475.816 34.4336 476.425 34.5234 476.905 34.7031C477.39 34.8828 477.749 35.1562 477.984 35.5234C478.222 35.8906 478.341 36.3574 478.341 36.9238C478.341 37.3457 478.263 37.7051 478.107 38.002C477.95 38.2988 477.745 38.5449 477.491 38.7402C477.237 38.9355 476.966 39.0918 476.677 39.209L479.109 43H477.521L475.452 39.5664H474.075V43H472.669V34.4336H475.077ZM474.984 35.6055H474.075V38.4062H475.048C475.7 38.4062 476.173 38.2852 476.466 38.043C476.763 37.8008 476.911 37.4434 476.911 36.9707C476.911 36.4746 476.753 36.123 476.437 35.916C476.124 35.709 475.64 35.6055 474.984 35.6055Z" fill="#333333"/>
<path d="M286.5 360C286.5 368.008 280.008 374.5 272 374.5C263.992 374.5 257.5 368.008 257.5 360C257.5 351.992 263.992 345.5 272 345.5C280.008 345.5 286.5 351.992 286.5 360Z" fill="#F9F9F9" stroke="#D0D5DA"/>
<path d="M267.491 361.542C267.491 358.999 268.027 357.106 269.1 355.864C270.178 354.622 271.789 354.001 273.934 354.001C274.666 354.001 275.24 354.045 275.656 354.133V356.304C275.135 356.187 274.619 356.128 274.109 356.128C273.178 356.128 272.416 356.269 271.824 356.55C271.238 356.831 270.799 357.247 270.506 357.798C270.213 358.349 270.04 359.131 269.987 360.145H270.102C270.682 359.148 271.61 358.65 272.888 358.65C274.036 358.65 274.936 359.011 275.586 359.731C276.236 360.452 276.562 361.448 276.562 362.72C276.562 364.091 276.175 365.178 275.401 365.98C274.628 366.777 273.556 367.176 272.185 367.176C271.235 367.176 270.406 366.956 269.697 366.517C268.994 366.077 268.449 365.436 268.062 364.592C267.682 363.748 267.491 362.731 267.491 361.542ZM272.132 365.005C272.712 365.005 273.157 364.812 273.468 364.425C273.778 364.032 273.934 363.476 273.934 362.755C273.934 362.128 273.787 361.636 273.494 361.278C273.207 360.915 272.771 360.733 272.185 360.733C271.634 360.733 271.162 360.912 270.77 361.27C270.383 361.627 270.189 362.043 270.189 362.518C270.189 363.215 270.371 363.804 270.734 364.284C271.104 364.765 271.569 365.005 272.132 365.005Z" fill="#666666"/>
<path fill-rule="evenodd" clip-rule="evenodd" d="M143.946 98.1402C139.037 94.6935 128.027 90.2933 122.624 89.5191C121.053 90.1567 111.08 88.5838 102.869 89.2225C96.1332 90.6 84.0212 95.8288 81.717 98.1402C78.9581 100.908 75.2795 110.748 74.3599 120.599C95.8181 137.512 129.45 129.838 134.034 128.443C135.713 127.906 136.479 127.642 138.536 126.874C142.736 125.208 146.571 122.947 150.413 120.599C149.464 112.9 147.011 100.293 143.946 98.1402Z" fill="#FEFEFE"/>
<path fill-rule="evenodd" clip-rule="evenodd" d="M119.147 130.965C119.147 122.63 118.713 114.309 116.97 106.144C116.561 104.549 116.078 103.095 115.494 101.84L116.97 100.107L117.448 97.5462C115.106 94.1886 113.926 91.7456 112.968 91.5355C111.857 91.2921 110.817 93.9402 107.996 97.7269L109.039 99.8706L110.24 101.64C107.184 110.765 106.267 121.98 106.267 131.278C110.546 131.693 117.906 131.693 119.147 130.965Z" fill="url(#paint7_linear_19_7438)"/>
<path d="M119.133 131.077C119.133 122.818 118.71 114.571 117.008 106.48C116.609 104.899 116.137 103.458 115.567 102.215M110.196 101.947C108.834 104.863 106.253 114.827 106.253 131.387" stroke="#333333"/>
<path d="M117.907 97.6533C116.007 102.416 114.697 103.8 113.158 103.787C111.47 103.771 110.309 102.416 108.093 97.6533" stroke="#333333" stroke-linecap="round"/>
<mask id="path-120-inside-1_19_7438" fill="white">
<path fill-rule="evenodd" clip-rule="evenodd" d="M95.8267 90.9129C97.3694 93.5186 99.619 96.477 101.399 98.9299C102.101 99.9034 103.087 101.396 104.466 101.331C105.136 101.302 105.68 100.935 106.166 100.504C106.392 100.301 106.627 100.058 106.87 99.7737C107.21 99.3924 107.549 99.0111 107.881 98.6298C107.898 98.6109 107.963 98.5077 108.011 98.4432C108.18 98.2146 111.425 93.386 111.879 92.6931C111.968 92.5633 112.057 92.4416 112.154 92.3199H113.077C113.279 92.5877 113.413 92.8296 113.644 93.0907C114.439 93.9904 115.254 95.847 116.703 97.9402C116.85 98.1534 116.921 98.216 117.018 98.362C117.659 99.0777 118.267 99.8555 118.985 100.496C119.457 100.916 120.036 101.323 120.693 101.323C123.483 101.388 128.262 93.3116 129.56 90.9129C127.365 90.1426 125.057 89.4316 122.751 89.074C118.728 93.0583 106.964 92.1388 102.88 88.76C100.714 89.0665 97.9733 89.9642 95.8267 90.9129Z"/>
</mask>
<path fill-rule="evenodd" clip-rule="evenodd" d="M95.8267 90.9129C97.3694 93.5186 99.619 96.477 101.399 98.9299C102.101 99.9034 103.087 101.396 104.466 101.331C105.136 101.302 105.68 100.935 106.166 100.504C106.392 100.301 106.627 100.058 106.87 99.7737C107.21 99.3924 107.549 99.0111 107.881 98.6298C107.898 98.6109 107.963 98.5077 108.011 98.4432C108.18 98.2146 111.425 93.386 111.879 92.6931C111.968 92.5633 112.057 92.4416 112.154 92.3199H113.077C113.279 92.5877 113.413 92.8296 113.644 93.0907C114.439 93.9904 115.254 95.847 116.703 97.9402C116.85 98.1534 116.921 98.216 117.018 98.362C117.659 99.0777 118.267 99.8555 118.985 100.496C119.457 100.916 120.036 101.323 120.693 101.323C123.483 101.388 128.262 93.3116 129.56 90.9129C127.365 90.1426 125.057 89.4316 122.751 89.074C118.728 93.0583 106.964 92.1388 102.88 88.76C100.714 89.0665 97.9733 89.9642 95.8267 90.9129Z" fill="#D9F4FF"/>
<path d="M95.8267 90.9129L95.4225 89.9982L94.3925 90.4534L94.9662 91.4223L95.8267 90.9129ZM101.399 98.9299L102.21 98.3449L102.208 98.3427L101.399 98.9299ZM104.466 101.331L104.422 100.332L104.419 100.332L104.466 101.331ZM106.166 100.504L106.829 101.252L106.832 101.249L106.166 100.504ZM106.87 99.7737L106.123 99.1082L106.116 99.1159L106.11 99.1238L106.87 99.7737ZM107.881 98.6298L107.127 97.9733L107.881 98.6298ZM108.011 98.4432L108.814 99.0388L108.011 98.4432ZM111.879 92.6931L111.055 92.1275L111.049 92.136L111.043 92.1447L111.879 92.6931ZM112.154 92.3199V91.3199H111.673L111.373 91.6962L112.154 92.3199ZM113.077 92.3199L113.875 91.717L113.575 91.3199H113.077V92.3199ZM113.644 93.0907L114.393 92.4283L113.644 93.0907ZM116.703 97.9402L115.881 98.5093L116.703 97.9402ZM117.018 98.362L116.186 98.9158L116.225 98.9754L116.273 99.0287L117.018 98.362ZM118.985 100.496L118.32 101.242L118.985 100.496ZM120.693 101.323L120.716 100.323L120.704 100.323H120.693V101.323ZM129.56 90.9129L130.44 91.3887L130.997 90.3574L129.891 89.9693L129.56 90.9129ZM122.751 89.074L122.905 88.0858L122.406 88.0085L122.048 88.3634L122.751 89.074ZM102.88 88.76L103.517 87.9895L103.177 87.708L102.74 87.7699L102.88 88.76ZM106.832 101.249C107.099 101.011 107.364 100.734 107.63 100.424L106.11 99.1238C105.889 99.3813 105.686 99.5913 105.499 99.7587L106.832 101.249ZM107.616 100.439C107.955 100.059 108.299 99.6728 108.636 99.2862L107.127 97.9733C106.8 98.3493 106.464 98.7262 106.123 99.1082L107.616 100.439ZM108.814 99.0388C109.005 98.7819 112.267 93.9254 112.715 93.2415L111.043 92.1447C110.82 92.4851 109.899 93.8596 109.008 95.1843C108.564 95.8451 108.129 96.491 107.794 96.9856C107.627 97.2331 107.485 97.4419 107.381 97.5957C107.328 97.6726 107.286 97.7348 107.254 97.7806C107.218 97.8325 107.206 97.8496 107.208 97.8475L108.814 99.0388ZM112.704 93.2587C112.782 93.1455 112.856 93.0436 112.936 92.9437L111.373 91.6962C111.258 91.8396 111.155 91.9812 111.055 92.1275L112.704 93.2587ZM112.154 93.3199H113.077V91.3199H112.154V93.3199ZM112.279 92.9229C112.363 93.0342 112.424 93.1276 112.527 93.2764C112.623 93.4151 112.74 93.5785 112.894 93.753L114.393 92.4283C114.316 92.3417 114.251 92.2537 114.172 92.1392C114.1 92.0348 113.993 91.8734 113.875 91.717L112.279 92.9229ZM112.894 93.753C113.211 94.1108 113.56 94.6978 114.062 95.5681C114.544 96.4019 115.129 97.424 115.881 98.5093L117.525 97.3711C116.827 96.3632 116.281 95.4104 115.794 94.5676C115.328 93.7614 114.872 92.9702 114.393 92.4283L112.894 93.753ZM115.881 98.5093C115.973 98.6434 116.044 98.7329 116.098 98.8C116.149 98.8637 116.165 98.8839 116.186 98.9158L117.851 97.8083C117.775 97.6941 117.707 97.6101 117.661 97.5526C117.618 97.4986 117.58 97.4502 117.525 97.3711L115.881 98.5093ZM122.048 88.3634C121.22 89.1837 119.924 89.8113 118.287 90.2093C116.663 90.6041 114.784 90.7532 112.877 90.6789C110.973 90.6047 109.074 90.3086 107.418 89.8335C105.747 89.3544 104.391 88.7126 103.517 87.9895L102.243 89.5305C103.411 90.4968 105.057 91.237 106.866 91.756C108.69 92.2791 110.749 92.5975 112.8 92.6774C114.848 92.7573 116.919 92.6004 118.76 92.1526C120.588 91.708 122.272 90.9564 123.455 89.7845L122.048 88.3634ZM102.74 87.7699C100.454 88.0933 97.6217 89.0263 95.4225 89.9982L96.2309 91.8275C98.325 90.9021 100.974 90.0397 103.02 89.7502L102.74 87.7699ZM94.9662 91.4223C96.54 94.0806 98.8334 97.097 100.589 99.5172L102.208 98.3427C100.405 95.8569 98.1987 92.9566 96.6872 90.4034L94.9662 91.4223ZM100.588 99.5149C100.914 99.9671 101.397 100.676 101.986 101.241C102.577 101.809 103.424 102.381 104.513 102.33L104.419 100.332C104.129 100.346 103.793 100.204 103.371 99.7986C102.946 99.3903 102.586 98.8662 102.21 98.3449L100.588 99.5149ZM104.509 102.33C105.536 102.286 106.299 101.722 106.829 101.252L105.502 99.7556C105.061 100.147 104.737 100.319 104.422 100.332L104.509 102.33ZM108.636 99.2862C108.669 99.2484 108.693 99.2144 108.699 99.2061C108.71 99.1916 108.719 99.178 108.726 99.1683C108.739 99.1494 108.754 99.127 108.764 99.1113C108.791 99.0707 108.806 99.049 108.814 99.0388L107.208 97.8475C107.185 97.8772 107.165 97.9067 107.149 97.9301C107.132 97.9542 107.116 97.9778 107.104 97.9959C107.09 98.0164 107.083 98.0274 107.078 98.0351C107.075 98.0388 107.076 98.0368 107.08 98.0318C107.082 98.0292 107.086 98.0233 107.092 98.0154C107.097 98.0089 107.11 97.9931 107.127 97.9733L108.636 99.2862ZM116.273 99.0287C116.853 99.6766 117.545 100.552 118.32 101.242L119.65 99.7491C118.988 99.159 118.465 98.4788 117.764 97.6954L116.273 99.0287ZM118.32 101.242C118.812 101.68 119.636 102.323 120.693 102.323V100.323C120.435 100.323 120.102 100.152 119.65 99.7491L118.32 101.242ZM129.891 89.9693C127.677 89.1925 125.301 88.4575 122.905 88.0858L122.598 90.0622C124.812 90.4057 127.052 91.0927 129.229 91.8565L129.891 89.9693ZM120.669 102.323C121.257 102.337 121.814 102.137 122.302 101.87C122.796 101.6 123.281 101.225 123.747 100.8C124.677 99.951 125.621 98.8136 126.49 97.6359C128.234 95.2744 129.778 92.6119 130.44 91.3887L128.68 90.4371C128.045 91.6126 126.55 94.1878 124.881 96.4481C124.045 97.5812 123.19 98.6006 122.399 99.3227C122.003 99.6835 121.648 99.9478 121.341 100.116C121.028 100.287 120.826 100.326 120.716 100.323L120.669 102.323Z" fill="#333333" mask="url(#path-120-inside-1_19_7438)"/>
<path fill-rule="evenodd" clip-rule="evenodd" d="M122.529 88.8885L122.693 88.912C125.466 89.3097 129.62 90.6253 133.672 92.2586C137.726 93.8928 141.752 95.8751 144.261 97.6382C144.735 97.9717 145.16 98.4776 145.543 99.0767C145.93 99.6814 146.296 100.414 146.642 101.237C147.334 102.881 147.965 104.933 148.526 107.139C149.648 111.554 150.502 116.657 150.978 120.524L151.027 120.916L150.69 121.122C146.851 123.471 142.979 125.757 138.73 127.444L138.724 127.446L138.718 127.449C136.655 128.219 135.881 128.487 134.193 129.027L134.185 129.03C131.844 129.743 122.238 132.021 110.518 132C98.8031 131.979 84.8823 129.659 74.0084 121.081L73.7466 120.874L73.7776 120.542C74.2418 115.564 75.4016 110.594 76.7939 106.515C77.4902 104.475 78.2475 102.65 79.0099 101.153C79.7673 99.6661 80.5482 98.466 81.304 97.7072C81.9512 97.0573 83.2146 96.2601 84.7757 95.4245C86.3591 94.577 88.315 93.6559 90.4039 92.7667C94.5738 90.9917 99.3244 89.3223 102.747 88.6216L102.784 88.614L102.822 88.611C106.972 88.2879 111.553 88.5247 115.264 88.7583C115.691 88.7852 116.107 88.812 116.508 88.8379C117.859 88.9252 119.056 89.0025 120.037 89.0391C120.673 89.0628 121.203 89.0687 121.617 89.0505C122.055 89.0313 122.287 88.987 122.376 88.9508L122.529 88.8885ZM150.37 120.599C146.532 122.947 142.7 125.208 138.504 126.874C136.448 127.642 135.684 127.906 134.006 128.443C129.426 129.838 95.8259 137.512 74.3877 120.599C75.3065 110.748 78.9816 100.908 81.7379 98.1402C84.04 95.8288 96.1407 90.6 102.87 89.2225C107.44 88.8667 112.555 89.1972 116.462 89.4496C119.569 89.6503 121.911 89.8016 122.606 89.5191C128.004 90.2933 139.005 94.6935 143.909 98.1402C146.971 100.293 149.422 112.9 150.37 120.599Z" fill="#333333"/>
<path d="M102.701 89.1892L102.636 89.4549L102.825 89.6529C103.907 90.7887 105.6 91.5483 107.488 92.0157C109.388 92.4859 111.543 92.6749 113.612 92.6256C115.679 92.5763 117.686 92.2885 119.287 91.7896C120.087 91.5403 120.801 91.2334 121.374 90.8665C121.944 90.5021 122.409 90.0563 122.655 89.5151L122.737 89.3354L122.674 89.1484C121.904 86.8641 121.852 84.4881 121.827 82.019V82.0189V82.0187V82.0185V82.0184V82.0182V82.018V82.0178V82.0176V82.0174V82.0172V82.017V82.0168V82.0166V82.0164V82.0162V82.016V82.0158V82.0156V82.0153V82.0151V82.0149V82.0146V82.0144V82.0142V82.0139V82.0137V82.0134V82.0132V82.0129V82.0126V82.0124V82.0121V82.0118V82.0116V82.0113V82.011V82.0107V82.0104V82.0101V82.0099V82.0096V82.0093V82.009V82.0087V82.0083V82.008V82.0077V82.0074V82.0071V82.0068V82.0064V82.0061V82.0058V82.0054V82.0051V82.0048V82.0044V82.0041V82.0037V82.0034V82.003V82.0027V82.0023V82.0019V82.0016V82.0012V82.0008V82.0005V82.0001V81.9997V81.9993V81.9989V81.9986V81.9982V81.9978V81.9974V81.997V81.9966V81.9962V81.9958V81.9953V81.9949V81.9945V81.9941V81.9937V81.9933V81.9928V81.9924V81.992V81.9915V81.9911V81.9907V81.9902V81.9898V81.9893V81.9889V81.9884V81.988V81.9875V81.9871V81.9866V81.9861V81.9857V81.9852V81.9847V81.9843V81.9838V81.9833V81.9828V81.9823V81.9818V81.9814V81.9809V81.9804V81.9799V81.9794V81.9789V81.9784V81.9779V81.9774V81.9769V81.9763V81.9758V81.9753V81.9748V81.9743V81.9737V81.9732V81.9727V81.9722V81.9716V81.9711V81.9706V81.97V81.9695V81.9689V81.9684V81.9678V81.9673V81.9667V81.9662V81.9656V81.9651V81.9645V81.9639V81.9634V81.9628V81.9622V81.9617V81.9611V81.9605V81.9599V81.9594V81.9588V81.9582V81.9576V81.957V81.9564V81.9559V81.9553V81.9547V81.9541V81.9535V81.9529V81.9523V81.9517V81.9511V81.9504V81.9498V81.9492V81.9486V81.948V81.9474V81.9468V81.9461V81.9455V81.9449V81.9443V81.9436V81.943V81.9424V81.9417V81.9411V81.9405V81.9398V81.9392V81.9385V81.9379V81.9373V81.9366V81.936V81.9353V81.9347V81.934V81.9333V81.9327V81.932V81.9314V81.9307V81.93V81.9294V81.9287V81.928V81.9274V81.9267V81.926V81.9253V81.9247V81.924V81.9233V81.9226V81.922V81.9213V81.9206V81.9199V81.9192V81.9185V81.9178V81.9171V81.9164V81.9158V81.9151V81.9144V81.9137V81.913V81.9123V81.9116V81.9109V81.9101V81.9094V81.9087V81.908V81.9073V81.9066V81.9059V81.9052V81.9045V81.9037V81.903V81.9023V81.9016V81.9009V81.9001V81.8994V81.8987V81.898V81.8972V81.8965V81.8958V81.895V81.8943V81.8936V81.8928V81.8921V81.8914V81.8906V81.8899V81.8892V81.8884V81.8877V81.8869V81.8862V81.8854V81.8847V81.8839V81.8832V81.8824V81.8817V81.8809V81.8802V81.8794V81.8787V81.8779V81.8772V81.8764V81.8757V81.8749V81.8742V81.8734V81.8726V81.8719V81.8711V81.8703V81.8696V81.8688V81.8681V81.8673V81.8665V81.8657V81.865V81.8642V81.8634V81.8627V81.8619V81.8611V81.8604V81.8596V81.8588V81.858V81.8573V81.8565V81.8557V81.8549V81.8541V81.8534V81.8526V81.8518V81.851V81.8503V81.8495V81.8487V81.8479V81.8471V81.8463V81.8456V81.8448V81.844V81.8432V81.8424V81.8416V81.8408V81.8401V81.8393V81.8385V81.8377V81.8369V81.8361V81.8353V81.8345V81.8337V81.8329V81.8322V81.8314V81.8306V81.8298V81.829V81.8282V81.8274V81.8266V81.8258V81.825V81.8242V81.8234V81.8226V81.8218V81.821V81.8202V81.8194V81.8186V81.8179V81.8171V81.8163V81.8155V81.8147V81.8139V81.8131V81.8123V81.8115V81.8107V81.8099V81.8091V81.8083V81.8075V81.8067V81.8059V81.8051V81.8043V81.8035V81.8027V81.8019V81.8011V81.8003V81.7995V81.7987V81.7979V81.7971V81.7963V81.7955V81.7947V81.7939V81.7931V81.7923V81.7915V81.7907V81.7899V81.7891V81.7883V81.7875V81.7867V81.7859V81.7851V81.7843V81.7835V81.7828V81.782V81.7812V81.7804V81.7796V81.7788V81.778V81.7772V81.7764V81.7756V81.7748V81.774V81.7732V81.7724V81.7716V81.7708V81.7701V81.7693V81.7685V81.7677V81.7669V81.7661V81.7653V81.7645V81.7637V81.7629V81.7622V81.7614V81.7606V81.7598V81.759V81.7582V81.7574V81.7567V81.7559V81.7551V81.7543V81.7535V81.7528V81.752V81.7512V81.7504V81.7496V81.7489V81.7481V81.7473V81.7465V81.7458V81.745V81.7442V81.7434V81.7427V81.7419V81.7411V81.7403V81.7396V81.7388V81.738V81.7373V81.7365V81.7357V81.735V81.7342V81.7334V81.7327V81.7319V81.7311V81.7304V81.7296V81.7289V81.7281V81.7274V81.7266V81.7258V81.7251V81.7243V81.7236V81.7228V81.7221V81.7213V81.7206V81.7198V81.7191V81.7183V81.7176V81.7169V81.7161V81.7154V81.7146V81.7139V81.7131V81.7124V81.7117V81.7109V81.7102V81.7095V81.7087V81.708V81.7073V81.7065V80.7106L121.029 81.3056C118.514 83.1791 115.563 84.2571 112.405 84.2571C109.437 84.2571 106.646 83.3065 104.237 81.6356L103.452 81.0911V82.0464V82.0469V82.0474V82.0479V82.0484V82.0488V82.0493V82.0498V82.0503V82.0508V82.0513V82.0518V82.0522V82.0527V82.0532V82.0537V82.0542V82.0547V82.0551V82.0556V82.0561V82.0566V82.0571V82.0576V82.0581V82.0585V82.059V82.0595V82.06V82.0605V82.061V82.0615V82.0619V82.0624V82.0629V82.0634V82.0639V82.0644V82.0648V82.0653V82.0658V82.0663V82.0668V82.0673V82.0677V82.0682V82.0687V82.0692V82.0697V82.0701V82.0706V82.0711V82.0716V82.0721V82.0726V82.073V82.0735V82.074V82.0745V82.075V82.0754V82.0759V82.0764V82.0769V82.0773V82.0778V82.0783V82.0788V82.0793V82.0797V82.0802V82.0807V82.0812V82.0817V82.0821V82.0826V82.0831V82.0836V82.084V82.0845V82.085V82.0855V82.0859V82.0864V82.0869V82.0874V82.0878V82.0883V82.0888V82.0892V82.0897V82.0902V82.0907V82.0911V82.0916V82.0921V82.0925V82.093V82.0935V82.094V82.0944V82.0949V82.0954V82.0958V82.0963V82.0968V82.0972V82.0977V82.0982V82.0986V82.0991V82.0996V82.1V82.1005V82.101V82.1014V82.1019V82.1023V82.1028V82.1033V82.1037V82.1042V82.1047V82.1051V82.1056V82.106V82.1065V82.107V82.1074V82.1079V82.1083V82.1088V82.1092V82.1097V82.1102V82.1106V82.1111V82.1115V82.112V82.1124V82.1129V82.1133V82.1138V82.1142V82.1147V82.1151V82.1156V82.116V82.1165V82.1169V82.1174V82.1178V82.1183V82.1187V82.1192V82.1196V82.1201V82.1205V82.121V82.1214V82.1218V82.1223V82.1227V82.1232V82.1236V82.1241V82.1245V82.1249V82.1254V82.1258V82.1263V82.1267V82.1271V82.1276V82.128V82.1284V82.1289V82.1293V82.1297V82.1302V82.1306V82.131V82.1315V82.1319V82.1323V82.1327V82.1332V82.1336V82.134V82.1345V82.1349V82.1353V82.1357V82.1362V82.1366V82.137V82.1374V82.1378V82.1383V82.1387V82.1391V82.1395V82.1399V82.1404V82.1408V82.1412V82.1416V82.142V82.1424V82.1428V82.1433V82.1437V82.1441V82.1445V82.1449V82.1453V82.1457V82.1461V82.1465V82.1469V82.1473V82.1478V82.1482V82.1486V82.149V82.1494V82.1498V82.1502V82.1506V82.151V82.1514V82.1518V82.1522V82.1526V82.1529V82.1533V82.1537V82.1541V82.1545V82.1549V82.1553V82.1557V82.1561V82.1565V82.1568V82.1572V82.1576V82.158V82.1584V82.1588V82.1592V82.1595V82.1599V82.1603V82.1607V82.1611V82.1614V82.1618V82.1622V82.1626V82.1629V82.1633V82.1637V82.164V82.1644V82.1648V82.1651V82.1655V82.1659V82.1662V82.1666V82.167V82.1673V82.1677V82.1681V82.1684V82.1688V82.1691V82.1695V82.1699V82.1702V82.1706V82.1709V82.1713V82.1716V82.172V82.1723V82.1727V82.173V82.1734V82.1737V82.1741V82.1744V82.1747V82.1751V82.1754V82.1758V82.1761V82.1764V82.1768V82.1771V82.1775V82.1778V82.1781V82.1785V82.1788V82.1791V82.1794V82.1798V82.1801V82.1804V82.1807V82.1811V82.1814V82.1817V82.182V82.1824V82.1827V82.183V82.1833V82.1836V82.1839V82.1843V82.1846V82.1849V82.1852V82.1855V82.1858V82.1861V82.1864V82.1867V82.187V82.1873V82.1876V82.1879V82.1882V82.1885V82.1888V82.1891V82.1894V82.1897V82.19V82.1903V82.1906V82.1909V82.1912V82.1914V82.1917V82.192V82.1923V82.1926V82.1929V82.1931V82.1934V82.1937V82.194V82.1942V82.1945V82.1948V82.1951V82.1953V82.1956V82.1959V82.1961V82.1964V82.1967V82.1969V82.1972V82.1975V82.1977V82.198V82.1982V82.1985V82.1987V82.199V82.1992V82.1995V82.1997V82.2V82.2002V82.2005V82.2007V82.201V82.2012V82.2015V82.2017V82.2019V82.2022V82.2024V82.2026V82.2029V82.2031V82.2033V82.2036V82.2038V82.204V82.2042V82.2045V82.2047V82.2049V82.2051V82.2053V82.2056V82.2058V82.206V82.2062V82.2064V82.2066V82.2068V82.207V82.2072V82.2074V82.2077V82.2079V82.2079C103.448 82.2869 103.444 82.366 103.44 82.4449C103.321 84.8177 103.205 87.1288 102.701 89.1892Z" fill="#FEFEFE" stroke="#333333"/>
<path fill-rule="evenodd" clip-rule="evenodd" d="M113.007 84.7733C124.631 84.7733 131.108 72.1277 130.064 61.851C126.16 61.5028 112.824 60.7318 108.503 48.5867C106.71 52.9805 104.833 55.2354 96.6926 57.9297C95.7691 61.2725 95.5866 64.8042 96.1338 68.2261C97.4888 76.5626 103.93 84.7733 113.007 84.7733Z" fill="#FEFEFE"/>
<path fill-rule="evenodd" clip-rule="evenodd" d="M108.311 48.5747C112.588 60.7278 125.817 61.4993 129.698 61.8478C130.016 65.0086 129.998 68.2348 129.09 71.2799C140.995 42.1375 113.026 36.6372 107.905 42.9585C96.6038 42.0656 90.539 57.0973 96.0494 68.2354C95.5062 64.8089 95.687 61.2711 96.6037 57.9239C104.67 55.2278 106.532 52.9714 108.311 48.5747Z" fill="#EFEFEF" stroke="#333333" stroke-linejoin="round"/>
<path d="M96.8087 57.7866C93.8634 67.7589 97.6448 78.5671 106.784 83.2291C110.812 85.2922 115.625 85.2839 119.654 83.2291C127.459 79.2475 130.891 70.252 130.049 61.5262" stroke="#333333"/>
<path d="M107.19 142.434V147.977C107.19 148.574 107.063 149.109 106.809 149.582C106.559 150.055 106.18 150.43 105.673 150.707C105.165 150.98 104.526 151.117 103.757 151.117C102.659 151.117 101.823 150.83 101.249 150.256C100.678 149.678 100.393 148.91 100.393 147.953V142.434H101.8V147.83C101.8 148.545 101.967 149.072 102.303 149.412C102.639 149.752 103.141 149.922 103.809 149.922C104.27 149.922 104.645 149.842 104.934 149.682C105.227 149.518 105.442 149.279 105.579 148.967C105.719 148.65 105.79 148.27 105.79 147.824V142.434H107.19ZM114.807 148.668C114.807 149.176 114.682 149.613 114.432 149.98C114.186 150.348 113.83 150.629 113.365 150.824C112.905 151.02 112.354 151.117 111.713 151.117C111.401 151.117 111.102 151.1 110.817 151.064C110.531 151.029 110.262 150.979 110.008 150.912C109.758 150.842 109.53 150.758 109.322 150.66V149.336C109.67 149.488 110.059 149.627 110.489 149.752C110.918 149.873 111.356 149.934 111.801 149.934C112.164 149.934 112.465 149.887 112.703 149.793C112.946 149.695 113.125 149.559 113.242 149.383C113.36 149.203 113.418 148.994 113.418 148.756C113.418 148.502 113.35 148.287 113.213 148.111C113.076 147.936 112.869 147.775 112.592 147.631C112.319 147.482 111.975 147.324 111.561 147.156C111.28 147.043 111.01 146.914 110.752 146.77C110.498 146.625 110.272 146.455 110.072 146.26C109.873 146.064 109.715 145.834 109.598 145.568C109.485 145.299 109.428 144.982 109.428 144.619C109.428 144.135 109.543 143.721 109.774 143.377C110.008 143.033 110.336 142.77 110.758 142.586C111.184 142.402 111.68 142.311 112.246 142.311C112.696 142.311 113.117 142.357 113.512 142.451C113.91 142.545 114.301 142.678 114.684 142.85L114.239 143.98C113.887 143.836 113.545 143.721 113.213 143.635C112.885 143.549 112.549 143.506 112.205 143.506C111.908 143.506 111.656 143.551 111.449 143.641C111.242 143.73 111.084 143.857 110.975 144.021C110.869 144.182 110.817 144.373 110.817 144.596C110.817 144.846 110.877 145.057 110.998 145.229C111.123 145.396 111.315 145.551 111.572 145.691C111.834 145.832 112.17 145.988 112.58 146.16C113.053 146.355 113.453 146.561 113.781 146.775C114.114 146.99 114.367 147.248 114.543 147.549C114.719 147.846 114.807 148.219 114.807 148.668ZM121.791 151H116.939V142.434H121.791V143.617H118.345V145.943H121.574V147.121H118.345V149.811H121.791V151ZM126.531 142.434C127.269 142.434 127.878 142.523 128.359 142.703C128.843 142.883 129.202 143.156 129.437 143.523C129.675 143.891 129.794 144.357 129.794 144.924C129.794 145.346 129.716 145.705 129.56 146.002C129.404 146.299 129.199 146.545 128.945 146.74C128.691 146.936 128.419 147.092 128.13 147.209L130.562 151H128.974L126.906 147.566H125.529V151H124.122V142.434H126.531ZM126.437 143.605H125.529V146.406H126.501C127.154 146.406 127.626 146.285 127.919 146.043C128.216 145.801 128.365 145.443 128.365 144.971C128.365 144.475 128.206 144.123 127.89 143.916C127.577 143.709 127.093 143.605 126.437 143.605Z" fill="#333333"/>
<defs>
<linearGradient id="paint0_linear_19_7438" x1="609.741" y1="279.71" x2="645.463" y2="325.566" gradientUnits="userSpaceOnUse">
<stop stop-color="#FFC671"/>
<stop offset="0.59375" stop-color="#FF7541"/>
<stop offset="1" stop-color="#FF6F3D"/>
</linearGradient>
<linearGradient id="paint1_linear_19_7438" x1="689.769" y1="280.043" x2="693.487" y2="284.068" gradientUnits="userSpaceOnUse">
<stop stop-color="#FFC671"/>
<stop offset="1" stop-color="#FF6F3D"/>
</linearGradient>
<linearGradient id="paint2_linear_19_7438" x1="326.199" y1="298.279" x2="332.978" y2="306.13" gradientUnits="userSpaceOnUse">
<stop stop-color="#FFC671"/>
<stop offset="1" stop-color="#FF6F3D"/>
</linearGradient>
<linearGradient id="paint3_linear_19_7438" x1="330.092" y1="313.457" x2="344.557" y2="329.706" gradientUnits="userSpaceOnUse">
<stop stop-color="#FFC671"/>
<stop offset="1" stop-color="#FF6F3D"/>
</linearGradient>
<linearGradient id="paint4_linear_19_7438" x1="322.345" y1="87.5169" x2="327.624" y2="93.0021" gradientUnits="userSpaceOnUse">
<stop stop-color="#FF8E3D"/>
<stop offset="1" stop-color="#FF6F3D"/>
</linearGradient>
<linearGradient id="paint5_linear_19_7438" x1="358.914" y1="85.0836" x2="383.047" y2="85.0836" gradientUnits="userSpaceOnUse">
<stop stop-color="#FF8E3D"/>
<stop offset="1" stop-color="#FF6F3D"/>
</linearGradient>
<linearGradient id="paint6_linear_19_7438" x1="311.667" y1="58.9483" x2="312.902" y2="64.7217" gradientUnits="userSpaceOnUse">
<stop stop-color="#FF8E3D"/>
<stop offset="1" stop-color="#FF6F3D"/>
</linearGradient>
<linearGradient id="paint7_linear_19_7438" x1="99.5252" y1="95.5784" x2="114.909" y2="119.406" gradientUnits="userSpaceOnUse">
<stop stop-color="#FFC671"/>
<stop offset="1" stop-color="#FF6F3D"/>
</linearGradient>
<clipPath id="clip0_19_7438">
<rect width="102" height="102" fill="white" transform="translate(309 246)"/>
</clipPath>
</defs>
</svg>
